<svg width="165" height="78" viewBox="0 0 165 78" fill="none" xmlns="http://www.w3.org/2000/svg">
<path d="M0 4C0 1.79086 1.79086 0 4 0H125C147.091 0 165 17.9086 165 40V74C165 76.2091 163.209 78 161 78H15C6.71572 78 0 71.2843 0 63V4Z" fill="#D3D3D3" fill-opacity="0.24"/>
<path d="M54.6826 37.3955C59.2529 37.3955 62.4463 34.3926 62.4463 30.0713C62.4463 26.0283 59.5312 23.0986 55.4883 23.0986C53.4082 23.0986 51.6504 23.9043 50.6982 25.3252H50.625L51.2695 18.6309H61.2158V15.8623H48.6182L47.5781 28.0498H50.4492C51.3428 26.4971 52.8516 25.6914 54.7412 25.6914C57.3779 25.6914 59.2383 27.5518 59.2383 30.1592C59.2383 32.7959 57.3926 34.6562 54.7119 34.6562C52.3535 34.6562 50.5664 33.2207 50.332 31.126H47.1973C47.3877 34.8174 50.4639 37.3955 54.6826 37.3955ZM72.8467 37.3955C77.9297 37.3955 80.918 33.1328 80.918 26.3945C80.918 19.7002 77.9004 15.4668 72.8467 15.4668C67.793 15.4668 64.7461 19.7148 64.7461 26.4092C64.7461 33.1475 67.749 37.3955 72.8467 37.3955ZM72.8467 34.6416C69.7852 34.6416 68.0713 31.5215 68.0713 26.4092C68.0713 21.3701 69.8291 18.2207 72.8467 18.2207C75.8643 18.2207 77.6074 21.3555 77.6074 26.4092C77.6074 31.5361 75.8936 34.6416 72.8467 34.6416ZM91.5674 37.3955C96.6504 37.3955 99.6387 33.1328 99.6387 26.3945C99.6387 19.7002 96.6211 15.4668 91.5674 15.4668C86.5137 15.4668 83.4668 19.7148 83.4668 26.4092C83.4668 33.1475 86.4697 37.3955 91.5674 37.3955ZM91.5674 34.6416C88.5059 34.6416 86.792 31.5215 86.792 26.4092C86.792 21.3701 88.5498 18.2207 91.5674 18.2207C94.585 18.2207 96.3281 21.3555 96.3281 26.4092C96.3281 31.5361 94.6143 34.6416 91.5674 34.6416ZM111.65 30.042H117.48V27.1855H111.65V21.0771H108.765V27.1855H102.949V30.042H108.765V36.1504H111.65V30.042Z" fill="white"/>
<path d="M30.7422 65C32.9004 65 34.2285 63.877 34.2285 62.0801C34.2285 60.8398 33.3887 59.9316 32.1094 59.7559V59.6777C33.0469 59.4824 33.7793 58.5156 33.7793 57.4707C33.7793 55.8398 32.6172 54.8438 30.7129 54.8438H26.3672V65H30.7422ZM28.0664 56.2207H30.459C31.5234 56.2207 32.0996 56.7285 32.0996 57.6465C32.0996 58.6328 31.4844 59.1113 30.2051 59.1113H28.0664V56.2207ZM28.0664 60.4785H30.3418C31.8262 60.4785 32.5391 60.9863 32.5391 62.041C32.5391 63.0664 31.875 63.623 30.6445 63.623H28.0664V60.4785ZM44.8633 65H46.543V54.8438H44.8633V65ZM36.1719 65H39.7754C42.0996 65 43.5938 63.6621 43.5938 61.543C43.5938 59.4238 42.0996 58.0859 39.7754 58.0859H37.8711V54.8438H36.1719V65ZM39.7461 59.4824C41.0547 59.4824 41.9141 60.293 41.9141 61.543C41.9141 62.7832 41.0645 63.6035 39.7461 63.6035H37.8711V59.4824H39.7461ZM55.498 65H57.207V54.8438H48.9258V65H50.625V56.2402H55.498V65ZM60.4492 68.7988C62.2852 68.7988 63.125 68.0859 63.9941 65.7129L67.9883 54.8438H66.2012L63.3887 63.3008H63.3594L60.5469 54.8438H58.7305L62.4805 65.0098L62.2461 65.7227C61.8555 66.9043 61.3281 67.3633 60.3809 67.3633C60.166 67.3633 59.9023 67.3535 59.7168 67.3145V68.7402C59.9023 68.7793 60.2441 68.7988 60.4492 68.7988ZM77.666 58.1738C77.4512 56.3477 75.9375 54.668 73.3984 54.668C70.5957 54.668 68.7305 56.7188 68.7305 59.9219C68.7305 63.1934 70.6055 65.1758 73.418 65.1758C75.7227 65.1758 77.4219 63.75 77.6855 61.7285H76.0156C75.7227 62.9492 74.8145 63.6816 73.4277 63.6816C71.6699 63.6816 70.459 62.2852 70.459 59.9219C70.459 57.6172 71.6504 56.1621 73.4082 56.1621C74.9023 56.1621 75.7617 57.0703 76.0059 58.1738H77.666ZM81.2109 60.1172L85.5762 65H87.7637L82.9004 59.6484L87.627 54.8438H85.5273L81.2109 59.3359H81.1328V54.8438H79.4336V65H81.1328V60.1172H81.2109ZM95.8496 65H97.5488V54.8438H95.8496V59.0332H90.8789V54.8438H89.1797V65H90.8789V60.4297H95.8496V65ZM101.621 65L106.68 57.4512H106.758V65H108.457V54.8438H106.777L101.719 62.3926H101.641V54.8438H99.9414V65H101.621ZM112.617 60.1172L116.982 65H119.17L114.307 59.6484L119.033 54.8438H116.934L112.617 59.3359H112.539V54.8438H110.84V65H112.539V60.1172H112.617ZM124.609 65.1758C127.412 65.1758 129.307 63.1543 129.307 59.9219C129.307 56.6797 127.412 54.668 124.609 54.668C121.797 54.668 119.902 56.6797 119.902 59.9219C119.902 63.1543 121.797 65.1758 124.609 65.1758ZM124.609 63.6816C122.812 63.6816 121.631 62.3145 121.631 59.9219C121.631 57.5293 122.812 56.1621 124.609 56.1621C126.406 56.1621 127.578 57.5293 127.578 59.9219C127.578 62.3145 126.406 63.6816 124.609 63.6816ZM135.586 65C137.744 65 139.072 63.877 139.072 62.0801C139.072 60.8398 138.232 59.9316 136.953 59.7559V59.6777C137.891 59.4824 138.623 58.5156 138.623 57.4707C138.623 55.8398 137.461 54.8438 135.557 54.8438H131.211V65H135.586ZM132.91 56.2207H135.303C136.367 56.2207 136.943 56.7285 136.943 57.6465C136.943 58.6328 136.328 59.1113 135.049 59.1113H132.91V56.2207ZM132.91 60.4785H135.186C136.67 60.4785 137.383 60.9863 137.383 62.041C137.383 63.0664 136.719 63.623 135.488 63.623H132.91V60.4785Z" fill="white"/>
</svg>
