<svg width="165" height="78" viewBox="0 0 165 78" fill="none" xmlns="http://www.w3.org/2000/svg">
<path d="M0 15C0 6.71573 6.71573 0 15 0H161C163.209 0 165 1.79086 165 4V39C165 60.5391 147.539 78 126 78H15C6.71572 78 0 71.2843 0 63V15Z" fill="#D3D3D3" fill-opacity="0.24"/>
<path d="M84.8877 37H88.0371V32.7959H90.9521V30.042H88.0371V15.8623H83.291C78.5449 22.7471 76.1279 26.541 74.3115 29.9395V32.7959H84.8877V37ZM77.3584 29.998C79.043 26.9951 81.1963 23.6553 84.8584 18.4111H84.917V30.0859H77.3584V29.998Z" fill="white"/>
<path d="M32.3418 65H34.041V54.8438H32.3418V59.0332H27.3711V54.8438H25.6719V65H27.3711V60.4297H32.3418V65ZM39.4121 65.1758C40.7793 65.1758 42.0684 64.4141 42.6738 63.252H42.7129V65H44.3242V57.9785C44.3242 55.957 42.8203 54.668 40.4375 54.668C38.0352 54.668 36.5312 56.0156 36.4141 57.7734H38.0547C38.2695 56.7773 39.0898 56.1621 40.3984 56.1621C41.8047 56.1621 42.625 56.9043 42.625 58.1445V58.9941L39.7148 59.1602C37.3711 59.2969 36.0332 60.3906 36.0332 62.1289C36.0332 63.9551 37.3906 65.1758 39.4121 65.1758ZM39.793 63.7305C38.5723 63.7305 37.7617 63.0957 37.7617 62.1289C37.7617 61.1719 38.543 60.5664 39.9102 60.4785L42.625 60.3125V61.1426C42.625 62.6074 41.3945 63.7305 39.793 63.7305ZM53.2402 65H54.9492V54.8438H46.668V65H48.3672V56.2402H53.2402V65ZM62.2734 54.668C60.7988 54.668 59.6172 55.4199 58.9922 56.5625H58.9531V54.8438H57.3418V68.3887H59.041V63.3496H59.0801C59.6855 64.4629 60.8574 65.1758 62.3125 65.1758C64.8711 65.1758 66.6191 63.1055 66.6191 59.9219C66.6191 56.7383 64.8613 54.668 62.2734 54.668ZM61.9414 63.6816C60.2031 63.6816 59.0312 62.1875 59.0312 59.9219C59.0312 57.666 60.2031 56.1621 61.9414 56.1621C63.748 56.1621 64.8809 57.627 64.8809 59.9219C64.8809 62.2266 63.748 63.6816 61.9414 63.6816ZM71.502 65.1758C72.8691 65.1758 74.1582 64.4141 74.7637 63.252H74.8027V65H76.4141V57.9785C76.4141 55.957 74.9102 54.668 72.5273 54.668C70.125 54.668 68.6211 56.0156 68.5039 57.7734H70.1445C70.3594 56.7773 71.1797 56.1621 72.4883 56.1621C73.8945 56.1621 74.7148 56.9043 74.7148 58.1445V58.9941L71.8047 59.1602C69.4609 59.2969 68.123 60.3906 68.123 62.1289C68.123 63.9551 69.4805 65.1758 71.502 65.1758ZM71.8828 63.7305C70.6621 63.7305 69.8516 63.0957 69.8516 62.1289C69.8516 61.1719 70.6328 60.5664 72 60.4785L74.7148 60.3125V61.1426C74.7148 62.6074 73.4844 63.7305 71.8828 63.7305ZM83.1328 65C85.291 65 86.6191 63.877 86.6191 62.0801C86.6191 60.8398 85.7793 59.9316 84.5 59.7559V59.6777C85.4375 59.4824 86.1699 58.5156 86.1699 57.4707C86.1699 55.8398 85.0078 54.8438 83.1035 54.8438H78.7578V65H83.1328ZM80.457 56.2207H82.8496C83.9141 56.2207 84.4902 56.7285 84.4902 57.6465C84.4902 58.6328 83.875 59.1113 82.5957 59.1113H80.457V56.2207ZM80.457 60.4785H82.7324C84.2168 60.4785 84.9297 60.9863 84.9297 62.041C84.9297 63.0664 84.2656 63.623 83.0352 63.623H80.457V60.4785ZM91.1016 60.5176L91.4141 56.2402H94.832V65H96.5312V54.8438H89.8809L89.4902 60.4785C89.3633 62.3438 88.9824 63.5254 87.9766 63.5254C87.7324 63.5254 87.5469 63.4766 87.459 63.4473V64.9805C87.5762 65.0293 87.7715 65.0879 88.0645 65.0879C90.2031 65.0879 90.8965 63.3203 91.1016 60.5176ZM105.682 62.0898C105.398 63.0469 104.451 63.7012 103.162 63.7012C101.336 63.7012 100.193 62.4219 100.193 60.4785V60.3809H107.479V59.7363C107.479 56.6602 105.789 54.668 103.045 54.668C100.242 54.668 98.4453 56.8066 98.4453 59.9609C98.4453 63.1543 100.213 65.1758 103.123 65.1758C105.34 65.1758 107.059 63.8672 107.352 62.0898H105.682ZM103.016 56.1426C104.617 56.1426 105.682 57.3535 105.721 59.0527H100.203C100.311 57.3633 101.424 56.1426 103.016 56.1426ZM116.053 65H117.752V54.8438H116.053V59.0332H111.082V54.8438H109.383V65H111.082V60.4297H116.053V65ZM121.824 65L126.883 57.4512H126.961V65H128.66V54.8438H126.98L121.922 62.3926H121.844V54.8438H120.145V65H121.824ZM136.619 65H138.318V54.8438H134.686C132.352 54.8438 130.848 56.123 130.848 58.2129C130.848 59.6094 131.717 60.6641 133.152 61.0742L130.32 65H132.283L134.861 61.3867H136.619V65ZM134.695 59.9902C133.387 59.9902 132.537 59.2383 132.537 58.1836C132.537 56.9629 133.377 56.2402 134.695 56.2402H136.619V59.9902H134.695Z" fill="white"/>
</svg>
