<svg width="165" height="78" viewBox="0 0 165 78" fill="none" xmlns="http://www.w3.org/2000/svg">
<path d="M0 15C0 6.71573 6.71573 0 15 0H161C163.209 0 165 1.79086 165 4V74C165 76.2091 163.209 78 161 78H15C6.71572 78 0 71.2843 0 63V15Z" fill="#D3D3D3" fill-opacity="0.24"/>
<path d="M64.543 37.3955C69.1133 37.3955 72.3066 34.3926 72.3066 30.0713C72.3066 26.0283 69.3916 23.0986 65.3486 23.0986C63.2686 23.0986 61.5107 23.9043 60.5586 25.3252H60.4854L61.1299 18.6309H71.0762V15.8623H58.4785L57.4385 28.0498H60.3096C61.2031 26.4971 62.7119 25.6914 64.6016 25.6914C67.2383 25.6914 69.0986 27.5518 69.0986 30.1592C69.0986 32.7959 67.2529 34.6562 64.5723 34.6562C62.2139 34.6562 60.4268 33.2207 60.1924 31.126H57.0576C57.248 34.8174 60.3242 37.3955 64.543 37.3955ZM82.707 37.3955C87.79 37.3955 90.7783 33.1328 90.7783 26.3945C90.7783 19.7002 87.7607 15.4668 82.707 15.4668C77.6533 15.4668 74.6064 19.7148 74.6064 26.4092C74.6064 33.1475 77.6094 37.3955 82.707 37.3955ZM82.707 34.6416C79.6455 34.6416 77.9316 31.5215 77.9316 26.4092C77.9316 21.3701 79.6895 18.2207 82.707 18.2207C85.7246 18.2207 87.4678 21.3555 87.4678 26.4092C87.4678 31.5361 85.7539 34.6416 82.707 34.6416ZM102.79 30.042H108.62V27.1855H102.79V21.0771H99.9043V27.1855H94.0889V30.042H99.9043V36.1504H102.79V30.042Z" fill="white"/>
<path d="M17.2559 65H18.9648V54.8438H10.6836V65H12.3828V56.2402H17.2559V65ZM26.2891 54.668C24.8145 54.668 23.6328 55.4199 23.0078 56.5625H22.9688V54.8438H21.3574V68.3887H23.0566V63.3496H23.0957C23.7012 64.4629 24.873 65.1758 26.3281 65.1758C28.8867 65.1758 30.6348 63.1055 30.6348 59.9219C30.6348 56.7383 28.877 54.668 26.2891 54.668ZM25.957 63.6816C24.2188 63.6816 23.0469 62.1875 23.0469 59.9219C23.0469 57.666 24.2188 56.1621 25.957 56.1621C27.7637 56.1621 28.8965 57.627 28.8965 59.9219C28.8965 62.2266 27.7637 63.6816 25.957 63.6816ZM39.2871 62.0898C39.0039 63.0469 38.0566 63.7012 36.7676 63.7012C34.9414 63.7012 33.7988 62.4219 33.7988 60.4785V60.3809H41.084V59.7363C41.084 56.6602 39.3945 54.668 36.6504 54.668C33.8477 54.668 32.0508 56.8066 32.0508 59.9609C32.0508 63.1543 33.8184 65.1758 36.7285 65.1758C38.9453 65.1758 40.6641 63.8672 40.957 62.0898H39.2871ZM36.6211 56.1426C38.2227 56.1426 39.2871 57.3535 39.3262 59.0527H33.8086C33.916 57.3633 35.0293 56.1426 36.6211 56.1426ZM49.5605 65H51.2695V54.8438H42.9883V65H44.6875V56.2402H49.5605V65ZM57.8711 65.1758C60.6738 65.1758 62.5684 63.1543 62.5684 59.9219C62.5684 56.6797 60.6738 54.668 57.8711 54.668C55.0586 54.668 53.1641 56.6797 53.1641 59.9219C53.1641 63.1543 55.0586 65.1758 57.8711 65.1758ZM57.8711 63.6816C56.0742 63.6816 54.8926 62.3145 54.8926 59.9219C54.8926 57.5293 56.0742 56.1621 57.8711 56.1621C59.668 56.1621 60.8398 57.5293 60.8398 59.9219C60.8398 62.3145 59.668 63.6816 57.8711 63.6816ZM64.8535 67.6855V65H72.7344V67.6855H74.3164V63.6035H72.7051V54.8438H65.7129L65.3223 60.4785C65.2246 61.8457 64.8633 63.1152 64.1211 63.6035H63.2715V67.6855H64.8535ZM71.0156 63.6035H66.0645V63.5254C66.543 62.8809 66.8066 61.7773 66.8945 60.5176L67.207 56.2402H71.0156V63.6035ZM78.8184 65.1758C80.1855 65.1758 81.4746 64.4141 82.0801 63.252H82.1191V65H83.7305V57.9785C83.7305 55.957 82.2266 54.668 79.8438 54.668C77.4414 54.668 75.9375 56.0156 75.8203 57.7734H77.4609C77.6758 56.7773 78.4961 56.1621 79.8047 56.1621C81.2109 56.1621 82.0312 56.9043 82.0312 58.1445V58.9941L79.1211 59.1602C76.7773 59.2969 75.4395 60.3906 75.4395 62.1289C75.4395 63.9551 76.7969 65.1758 78.8184 65.1758ZM79.1992 63.7305C77.9785 63.7305 77.168 63.0957 77.168 62.1289C77.168 61.1719 77.9492 60.5664 79.3164 60.4785L82.0312 60.3125V61.1426C82.0312 62.6074 80.8008 63.7305 79.1992 63.7305ZM90.4492 65C92.6074 65 93.9355 63.877 93.9355 62.0801C93.9355 60.8398 93.0957 59.9316 91.8164 59.7559V59.6777C92.7539 59.4824 93.4863 58.5156 93.4863 57.4707C93.4863 55.8398 92.3242 54.8438 90.4199 54.8438H86.0742V65H90.4492ZM87.7734 56.2207H90.166C91.2305 56.2207 91.8066 56.7285 91.8066 57.6465C91.8066 58.6328 91.1914 59.1113 89.9121 59.1113H87.7734V56.2207ZM87.7734 60.4785H90.0488C91.5332 60.4785 92.2461 60.9863 92.2461 62.041C92.2461 63.0664 91.582 63.623 90.3516 63.623H87.7734V60.4785ZM98.8574 65.1758C100.225 65.1758 101.514 64.4141 102.119 63.252H102.158V65H103.77V57.9785C103.77 55.957 102.266 54.668 99.8828 54.668C97.4805 54.668 95.9766 56.0156 95.8594 57.7734H97.5C97.7148 56.7773 98.5352 56.1621 99.8438 56.1621C101.25 56.1621 102.07 56.9043 102.07 58.1445V58.9941L99.1602 59.1602C96.8164 59.2969 95.4785 60.3906 95.4785 62.1289C95.4785 63.9551 96.8359 65.1758 98.8574 65.1758ZM99.2383 63.7305C98.0176 63.7305 97.207 63.0957 97.207 62.1289C97.207 61.1719 97.9883 60.5664 99.3555 60.4785L102.07 60.3125V61.1426C102.07 62.6074 100.84 63.7305 99.2383 63.7305ZM113.35 54.8438H105.107V56.2402H108.379V65H110.078V56.2402H113.35V54.8438ZM121.475 62.0898C121.191 63.0469 120.244 63.7012 118.955 63.7012C117.129 63.7012 115.986 62.4219 115.986 60.4785V60.3809H123.271V59.7363C123.271 56.6602 121.582 54.668 118.838 54.668C116.035 54.668 114.238 56.8066 114.238 59.9609C114.238 63.1543 116.006 65.1758 118.916 65.1758C121.133 65.1758 122.852 63.8672 123.145 62.0898H121.475ZM118.809 56.1426C120.41 56.1426 121.475 57.3535 121.514 59.0527H115.996C116.104 57.3633 117.217 56.1426 118.809 56.1426ZM127.52 60.5176L127.832 56.2402H131.25V65H132.949V54.8438H126.299L125.908 60.4785C125.781 62.3438 125.4 63.5254 124.395 63.5254C124.15 63.5254 123.965 63.4766 123.877 63.4473V64.9805C123.994 65.0293 124.189 65.0879 124.482 65.0879C126.621 65.0879 127.314 63.3203 127.52 60.5176ZM142.1 62.0898C141.816 63.0469 140.869 63.7012 139.58 63.7012C137.754 63.7012 136.611 62.4219 136.611 60.4785V60.3809H143.896V59.7363C143.896 56.6602 142.207 54.668 139.463 54.668C136.66 54.668 134.863 56.8066 134.863 59.9609C134.863 63.1543 136.631 65.1758 139.541 65.1758C141.758 65.1758 143.477 63.8672 143.77 62.0898H142.1ZM139.434 56.1426C141.035 56.1426 142.1 57.3535 142.139 59.0527H136.621C136.729 57.3633 137.842 56.1426 139.434 56.1426ZM146.943 50.4492C146.943 52.2461 148.223 53.4766 150.088 53.4766C151.953 53.4766 153.232 52.2461 153.232 50.4492H151.982C151.982 51.582 151.25 52.4707 150.088 52.4707C148.926 52.4707 148.193 51.582 148.193 50.4492H146.943ZM147.48 65L152.539 57.4512H152.617V65H154.316V54.8438H152.637L147.578 62.3926H147.5V54.8438H145.801V65H147.48Z" fill="white"/>
</svg>
