<svg width="165" height="78" viewBox="0 0 165 78" fill="none" xmlns="http://www.w3.org/2000/svg">
<g filter="url(#filter0_b)">
<path d="M0 40C0 17.9086 17.9086 0 40 0H161C163.209 0 165 1.79086 165 4V63C165 71.2843 158.284 78 150 78H4C1.79086 78 0 76.2091 0 74V40Z" fill="#D3D3D3" fill-opacity="0.24"/>
</g>
<path d="M53.0146 26.8926C52.7363 23.8604 50.3193 21.3115 46.3496 21.3115C41.9697 21.3115 39.0986 24.4023 39.0986 29.2949C39.0986 34.2754 41.9697 37.293 46.3789 37.293C50.085 37.293 52.707 35.0664 53.0439 31.7852H50.0117C49.6309 33.5723 48.3564 34.6416 46.4082 34.6416C43.9619 34.6416 42.3213 32.6787 42.3213 29.2949C42.3213 25.9844 43.9326 23.9482 46.3789 23.9482C48.4443 23.9482 49.6748 25.252 49.9971 26.8926H53.0146ZM61.4082 22.0879H64.5137C64.5137 19.832 66.3447 18.1768 68.7617 18.1768C71.0029 18.1768 72.4678 19.7002 72.4678 21.6484C72.4678 23.3037 71.8232 24.3877 69.04 27.2295L61.584 34.7441V37H76.042V34.2314H65.9785V34.1582L70.7832 29.3389C74.5625 25.5596 75.7051 23.875 75.7051 21.4434C75.7051 18.1182 72.9072 15.4668 68.7617 15.4668C64.5137 15.4668 61.4082 18.25 61.4082 22.0879ZM86.6621 37.3955C91.7451 37.3955 94.7334 33.1328 94.7334 26.3945C94.7334 19.7002 91.7158 15.4668 86.6621 15.4668C81.6084 15.4668 78.5615 19.7148 78.5615 26.4092C78.5615 33.1475 81.5645 37.3955 86.6621 37.3955ZM86.6621 34.6416C83.6006 34.6416 81.8867 31.5215 81.8867 26.4092C81.8867 21.3701 83.6445 18.2207 86.6621 18.2207C89.6797 18.2207 91.4229 21.3555 91.4229 26.4092C91.4229 31.5361 89.709 34.6416 86.6621 34.6416ZM102.761 37H105.969V15.8623H102.731L97.165 19.8174V22.9229L102.688 19.1143H102.761V37ZM118.2 37.3955C123.488 37.3955 126.623 33.2061 126.623 26.1309C126.623 18.2354 122.39 15.4521 118.303 15.4521C113.835 15.4521 110.583 18.5283 110.583 22.7764C110.583 26.834 113.615 29.7344 117.6 29.7344C120.324 29.7344 122.551 28.3574 123.4 26.292H123.459C123.43 31.5068 121.672 34.6709 118.229 34.6709C116.179 34.6709 114.655 33.7188 114.113 31.9316H110.817C111.418 35.2129 114.377 37.3955 118.2 37.3955ZM118.303 27.0684C115.739 27.0684 113.835 25.2227 113.835 22.6592C113.835 20.1982 115.827 18.25 118.347 18.25C120.866 18.25 122.829 20.2129 122.829 22.7324C122.829 25.2373 120.896 27.0684 118.303 27.0684Z" fill="white"/>
<path d="M70.0195 56.2402V54.8438H63.4863V65H65.1855V56.2402H70.0195ZM75.6934 65.1758C78.4961 65.1758 80.3906 63.1543 80.3906 59.9219C80.3906 56.6797 78.4961 54.668 75.6934 54.668C72.8809 54.668 70.9863 56.6797 70.9863 59.9219C70.9863 63.1543 72.8809 65.1758 75.6934 65.1758ZM75.6934 63.6816C73.8965 63.6816 72.7148 62.3145 72.7148 59.9219C72.7148 57.5293 73.8965 56.1621 75.6934 56.1621C77.4902 56.1621 78.6621 57.5293 78.6621 59.9219C78.6621 62.3145 77.4902 63.6816 75.6934 63.6816ZM82.6758 67.6855V65H90.5566V67.6855H92.1387V63.6035H90.5273V54.8438H83.5352L83.1445 60.4785C83.0469 61.8457 82.6855 63.1152 81.9434 63.6035H81.0938V67.6855H82.6758ZM88.8379 63.6035H83.8867V63.5254C84.3652 62.8809 84.6289 61.7773 84.7168 60.5176L85.0293 56.2402H88.8379V63.6035ZM96.6406 65.1758C98.0078 65.1758 99.2969 64.4141 99.9023 63.252H99.9414V65H101.553V57.9785C101.553 55.957 100.049 54.668 97.666 54.668C95.2637 54.668 93.7598 56.0156 93.6426 57.7734H95.2832C95.498 56.7773 96.3184 56.1621 97.627 56.1621C99.0332 56.1621 99.8535 56.9043 99.8535 58.1445V58.9941L96.9434 59.1602C94.5996 59.2969 93.2617 60.3906 93.2617 62.1289C93.2617 63.9551 94.6191 65.1758 96.6406 65.1758ZM97.0215 63.7305C95.8008 63.7305 94.9902 63.0957 94.9902 62.1289C94.9902 61.1719 95.7715 60.5664 97.1387 60.4785L99.8535 60.3125V61.1426C99.8535 62.6074 98.623 63.7305 97.0215 63.7305Z" fill="white"/>
<defs>
<filter id="filter0_b" x="-4" y="-4" width="173" height="86" filterUnits="userSpaceOnUse" color-interpolation-filters="sRGB">
<feFlood flood-opacity="0" result="BackgroundImageFix"/>
<feGaussianBlur in="BackgroundImage" stdDeviation="2"/>
<feComposite in2="SourceAlpha" operator="in" result="effect1_backgroundBlur"/>
<feBlend mode="normal" in="SourceGraphic" in2="effect1_backgroundBlur" result="shape"/>
</filter>
</defs>
</svg>
