<svg width="165" height="78" viewBox="0 0 165 78" fill="none" xmlns="http://www.w3.org/2000/svg">
<path d="M0 4C0 1.79086 1.79086 0 4 0H150C158.284 0 165 6.71573 165 15V63C165 71.2843 158.284 78 150 78H4C1.79086 78 0 76.2091 0 74V4Z" fill="#D3D3D3" fill-opacity="0.24"/>
<path d="M64.1436 37H67.3516V15.8623H64.1143L58.5479 19.8174V22.9229L64.0703 19.1143H64.1436V37ZM72.332 22.0879H75.4375C75.4375 19.832 77.2686 18.1768 79.6855 18.1768C81.9268 18.1768 83.3916 19.7002 83.3916 21.6484C83.3916 23.3037 82.7471 24.3877 79.9639 27.2295L72.5078 34.7441V37H86.9658V34.2314H76.9023V34.1582L81.707 29.3389C85.4863 25.5596 86.6289 23.875 86.6289 21.4434C86.6289 18.1182 83.8311 15.4668 79.6855 15.4668C75.4375 15.4668 72.332 18.25 72.332 22.0879ZM98.9775 30.042H104.808V27.1855H98.9775V21.0771H96.0918V27.1855H90.2764V30.042H96.0918V36.1504H98.9775V30.042Z" fill="white"/>
<path d="M54.2168 60.1172L58.582 65H60.7695L55.9062 59.6484L60.6328 54.8438H58.5332L54.2168 59.3359H54.1387V54.8438H52.4395V65H54.1387V60.1172H54.2168ZM62.8496 68.7988C64.6855 68.7988 65.5254 68.0859 66.3945 65.7129L70.3887 54.8438H68.6016L65.7891 63.3008H65.7598L62.9473 54.8438H61.1309L64.8809 65.0098L64.6465 65.7227C64.2559 66.9043 63.7285 67.3633 62.7812 67.3633C62.5664 67.3633 62.3027 67.3535 62.1172 67.3145V68.7402C62.3027 68.7793 62.6445 68.7988 62.8496 68.7988ZM76.8535 54.668C75.3789 54.668 74.1973 55.4199 73.5723 56.5625H73.5332V54.8438H71.9219V68.3887H73.6211V63.3496H73.6602C74.2656 64.4629 75.4375 65.1758 76.8926 65.1758C79.4512 65.1758 81.1992 63.1055 81.1992 59.9219C81.1992 56.7383 79.4414 54.668 76.8535 54.668ZM76.5215 63.6816C74.7832 63.6816 73.6113 62.1875 73.6113 59.9219C73.6113 57.666 74.7832 56.1621 76.5215 56.1621C78.3281 56.1621 79.4609 57.627 79.4609 59.9219C79.4609 62.2266 78.3281 63.6816 76.5215 63.6816ZM91.5508 58.1738C91.3359 56.3477 89.8223 54.668 87.2832 54.668C84.4805 54.668 82.6152 56.7188 82.6152 59.9219C82.6152 63.1934 84.4902 65.1758 87.3027 65.1758C89.6074 65.1758 91.3066 63.75 91.5703 61.7285H89.9004C89.6074 62.9492 88.6992 63.6816 87.3125 63.6816C85.5547 63.6816 84.3438 62.2852 84.3438 59.9219C84.3438 57.6172 85.5352 56.1621 87.293 56.1621C88.7871 56.1621 89.6465 57.0703 89.8906 58.1738H91.5508ZM97.5371 65.1758C100.34 65.1758 102.234 63.1543 102.234 59.9219C102.234 56.6797 100.34 54.668 97.5371 54.668C94.7246 54.668 92.8301 56.6797 92.8301 59.9219C92.8301 63.1543 94.7246 65.1758 97.5371 65.1758ZM97.5371 63.6816C95.7402 63.6816 94.5586 62.3145 94.5586 59.9219C94.5586 57.5293 95.7402 56.1621 97.5371 56.1621C99.334 56.1621 100.506 57.5293 100.506 59.9219C100.506 62.3145 99.334 63.6816 97.5371 63.6816ZM108.514 65C110.672 65 112 63.877 112 62.0801C112 60.8398 111.16 59.9316 109.881 59.7559V59.6777C110.818 59.4824 111.551 58.5156 111.551 57.4707C111.551 55.8398 110.389 54.8438 108.484 54.8438H104.139V65H108.514ZM105.838 56.2207H108.23C109.295 56.2207 109.871 56.7285 109.871 57.6465C109.871 58.6328 109.256 59.1113 107.977 59.1113H105.838V56.2207ZM105.838 60.4785H108.113C109.598 60.4785 110.311 60.9863 110.311 62.041C110.311 63.0664 109.646 63.623 108.416 63.623H105.838V60.4785Z" fill="white"/>
</svg>
