<svg width="165" height="78" viewBox="0 0 165 78" fill="none" xmlns="http://www.w3.org/2000/svg">
<path d="M0 4C0 1.79086 1.79086 0 4 0H150C158.284 0 165 6.71573 165 15V63C165 71.2843 158.284 78 150 78H39C17.4609 78 0 60.5391 0 39V4Z" fill="#D3D3D3" fill-opacity="0.24"/>
<path d="M63.4697 37H66.6777V15.8623H63.4404L57.874 19.8174V22.9229L63.3965 19.1143H63.4697V37ZM79.5684 37.3955C84.6514 37.3955 87.6396 33.1328 87.6396 26.3945C87.6396 19.7002 84.6221 15.4668 79.5684 15.4668C74.5146 15.4668 71.4678 19.7148 71.4678 26.4092C71.4678 33.1475 74.4707 37.3955 79.5684 37.3955ZM79.5684 34.6416C76.5068 34.6416 74.793 31.5215 74.793 26.4092C74.793 21.3701 76.5508 18.2207 79.5684 18.2207C82.5859 18.2207 84.3291 21.3555 84.3291 26.4092C84.3291 31.5361 82.6152 34.6416 79.5684 34.6416ZM99.6514 30.042H105.481V27.1855H99.6514V21.0771H96.7656V27.1855H90.9502V30.042H96.7656V36.1504H99.6514V30.042Z" fill="white"/>
<path d="M53.8184 56.2402V54.8438H47.2852V65H48.9844V56.2402H53.8184ZM59.4922 65.1758C62.2949 65.1758 64.1895 63.1543 64.1895 59.9219C64.1895 56.6797 62.2949 54.668 59.4922 54.668C56.6797 54.668 54.7852 56.6797 54.7852 59.9219C54.7852 63.1543 56.6797 65.1758 59.4922 65.1758ZM59.4922 63.6816C57.6953 63.6816 56.5137 62.3145 56.5137 59.9219C56.5137 57.5293 57.6953 56.1621 59.4922 56.1621C61.2891 56.1621 62.4609 57.5293 62.4609 59.9219C62.4609 62.3145 61.2891 63.6816 59.4922 63.6816ZM71.0352 54.668C69.5605 54.668 68.3789 55.4199 67.7539 56.5625H67.7148V54.8438H66.1035V68.3887H67.8027V63.3496H67.8418C68.4473 64.4629 69.6191 65.1758 71.0742 65.1758C73.6328 65.1758 75.3809 63.1055 75.3809 59.9219C75.3809 56.7383 73.623 54.668 71.0352 54.668ZM70.7031 63.6816C68.9648 63.6816 67.793 62.1875 67.793 59.9219C67.793 57.666 68.9648 56.1621 70.7031 56.1621C72.5098 56.1621 73.6426 57.627 73.6426 59.9219C73.6426 62.2266 72.5098 63.6816 70.7031 63.6816ZM81.5039 65.1758C84.3066 65.1758 86.2012 63.1543 86.2012 59.9219C86.2012 56.6797 84.3066 54.668 81.5039 54.668C78.6914 54.668 76.7969 56.6797 76.7969 59.9219C76.7969 63.1543 78.6914 65.1758 81.5039 65.1758ZM81.5039 63.6816C79.707 63.6816 78.5254 62.3145 78.5254 59.9219C78.5254 57.5293 79.707 56.1621 81.5039 56.1621C83.3008 56.1621 84.4727 57.5293 84.4727 59.9219C84.4727 62.3145 83.3008 63.6816 81.5039 63.6816ZM88.4863 67.6855V65H96.3672V67.6855H97.9492V63.6035H96.3379V54.8438H89.3457L88.9551 60.4785C88.8574 61.8457 88.4961 63.1152 87.7539 63.6035H86.9043V67.6855H88.4863ZM94.6484 63.6035H89.6973V63.5254C90.1758 62.8809 90.4395 61.7773 90.5273 60.5176L90.8398 56.2402H94.6484V63.6035ZM103.691 65.1758C106.494 65.1758 108.389 63.1543 108.389 59.9219C108.389 56.6797 106.494 54.668 103.691 54.668C100.879 54.668 98.9844 56.6797 98.9844 59.9219C98.9844 63.1543 100.879 65.1758 103.691 65.1758ZM103.691 63.6816C101.895 63.6816 100.713 62.3145 100.713 59.9219C100.713 57.5293 101.895 56.1621 103.691 56.1621C105.488 56.1621 106.66 57.5293 106.66 59.9219C106.66 62.3145 105.488 63.6816 103.691 63.6816ZM114.668 65C116.826 65 118.154 63.877 118.154 62.0801C118.154 60.8398 117.314 59.9316 116.035 59.7559V59.6777C116.973 59.4824 117.705 58.5156 117.705 57.4707C117.705 55.8398 116.543 54.8438 114.639 54.8438H110.293V65H114.668ZM111.992 56.2207H114.385C115.449 56.2207 116.025 56.7285 116.025 57.6465C116.025 58.6328 115.41 59.1113 114.131 59.1113H111.992V56.2207ZM111.992 60.4785H114.268C115.752 60.4785 116.465 60.9863 116.465 62.041C116.465 63.0664 115.801 63.623 114.57 63.623H111.992V60.4785Z" fill="white"/>
</svg>
