<svg width="70" height="61" viewBox="0 0 70 61" fill="none" xmlns="http://www.w3.org/2000/svg">
<path d="M0 0.0012207H50C61.0457 0.0012207 70 8.95553 70 20.0012V60.0012H0V0.0012207Z" fill="#FF7B00"/>
<path d="M31.9548 32.0012H26.6448V37.2512H23.4348V32.0012H18.1248V29.0012H23.4348V23.7512H26.6448V29.0012H31.9548V32.0012ZM44.8766 28.0412C46.2566 28.0412 47.4966 28.3112 48.5966 28.8512C49.6966 29.3712 50.5566 30.1212 51.1766 31.1012C51.7966 32.0812 52.1066 33.2112 52.1066 34.4912C52.1066 35.8512 51.7666 37.0512 51.0866 38.0912C50.4066 39.1112 49.4866 39.9012 48.3266 40.4612C47.1666 41.0212 45.8666 41.3012 44.4266 41.3012C41.5466 41.3012 39.3066 40.4012 37.7066 38.6012C36.1266 36.8012 35.3366 34.2212 35.3366 30.8612C35.3366 28.5012 35.7666 26.4912 36.6266 24.8312C37.4866 23.1512 38.6866 21.8812 40.2266 21.0212C41.7866 20.1412 43.5866 19.7012 45.6266 19.7012C46.7066 19.7012 47.7166 19.8212 48.6566 20.0612C49.6166 20.2812 50.4466 20.6112 51.1466 21.0512L49.7066 23.9912C48.6666 23.3112 47.3366 22.9712 45.7166 22.9712C43.6966 22.9712 42.1166 23.5912 40.9766 24.8312C39.8366 26.0712 39.2666 27.8612 39.2666 30.2012V30.2312C39.8866 29.5112 40.6766 28.9712 41.6366 28.6112C42.5966 28.2312 43.6766 28.0412 44.8766 28.0412ZM44.2166 38.2412C45.4366 38.2412 46.4266 37.9212 47.1866 37.2812C47.9466 36.6212 48.3266 35.7512 48.3266 34.6712C48.3266 33.5712 47.9466 32.7012 47.1866 32.0612C46.4266 31.4212 45.4066 31.1012 44.1266 31.1012C42.8666 31.1012 41.8366 31.4412 41.0366 32.1212C40.2566 32.8012 39.8666 33.6612 39.8666 34.7012C39.8666 35.7212 40.2466 36.5712 41.0066 37.2512C41.7866 37.9112 42.8566 38.2412 44.2166 38.2412Z" fill="white"/>
</svg>
