<svg width="70" height="61" viewBox="0 0 70 61" fill="none" xmlns="http://www.w3.org/2000/svg">
<path d="M0 0.0012207H50C61.0457 0.0012207 70 8.95553 70 20.0012V60.0012H0V0.0012207Z" fill="white"/>
<path d="M27.2527 32.0012H21.9427V37.2512H18.7327V32.0012H13.4227V29.0012H18.7327V23.7512H21.9427V29.0012H27.2527V32.0012ZM37.162 20.0012V41.0012H33.262V23.2712H28.822V20.0012H37.162ZM47.8978 28.1312C50.8578 28.1312 53.0478 28.7112 54.4678 29.8712C55.8878 31.0112 56.5978 32.5712 56.5978 34.5512C56.5978 35.8112 56.2878 36.9512 55.6678 37.9712C55.0478 38.9912 54.1178 39.8012 52.8778 40.4012C51.6378 41.0012 50.1078 41.3012 48.2878 41.3012C46.7878 41.3012 45.3378 41.0912 43.9378 40.6712C42.5378 40.2312 41.3578 39.6312 40.3978 38.8712L42.0478 35.8412C42.8278 36.4812 43.7578 36.9912 44.8378 37.3712C45.9378 37.7312 47.0678 37.9112 48.2278 37.9112C49.6078 37.9112 50.6878 37.6312 51.4678 37.0712C52.2678 36.4912 52.6678 35.7012 52.6678 34.7012C52.6678 33.6212 52.2378 32.8112 51.3778 32.2712C50.5378 31.7112 49.0878 31.4312 47.0278 31.4312H41.9578L43.0378 20.0012H55.3678V23.2712H46.3378L45.8878 28.1312H47.8978Z" fill="#FF7B00"/>
</svg>
