<svg width="12" height="9" viewBox="0 0 12 9" fill="none" xmlns="http://www.w3.org/2000/svg">
<path d="M9.87998 0.231445C9.5402 0.231445 9.22087 0.363834 8.98053 0.604223L4.27391 5.3185L3.01947 4.06416C2.7793 3.82394 2.45997 3.69161 2.1203 3.69161C1.78058 3.69161 1.46124 3.82394 1.22102 4.06411C0.980855 4.30428 0.848633 4.62361 0.848633 4.96327C0.848633 5.30294 0.980855 5.62227 1.22102 5.86239L3.37491 8.01627C3.61508 8.2565 3.93441 8.38883 4.27414 8.38883C4.61369 8.38883 4.93314 8.25644 5.17358 8.01605L10.7792 2.40239C11.2749 1.9065 11.2749 1.09972 10.7792 0.603834C10.539 0.363723 10.2196 0.231445 9.87998 0.231445Z" fill="#31529A"/>
</svg>
