<svg width="31" height="30" viewBox="0 0 31 30" fill="none" xmlns="http://www.w3.org/2000/svg">
<path d="M25.8554 6.58982H12.469C12.101 5.49676 11.0671 4.70703 9.85154 4.70703C8.63596 4.70703 7.60207 5.49676 7.23404 6.58982H5.14453C4.65914 6.58982 4.26562 6.98334 4.26562 7.46873C4.26562 7.95412 4.65914 8.34764 5.14453 8.34764H7.2341C7.60213 9.4407 8.63602 10.2304 9.8516 10.2304C11.0672 10.2304 12.1011 9.4407 12.4691 8.34764H25.8555C26.3409 8.34764 26.7344 7.95412 26.7344 7.46873C26.7344 6.98334 26.3409 6.58982 25.8554 6.58982ZM9.85154 8.47262C9.29801 8.47262 8.84766 8.02227 8.84766 7.46873C8.84766 6.9152 9.29801 6.46484 9.85154 6.46484C10.4051 6.46484 10.8554 6.9152 10.8554 7.46873C10.8554 8.02227 10.4051 8.47262 9.85154 8.47262Z" fill="#292929"/>
<path d="M25.8554 14.1211H23.7659C23.3978 13.028 22.3639 12.2383 21.1484 12.2383C19.9328 12.2383 18.8989 13.028 18.5309 14.1211H5.14453C4.65914 14.1211 4.26562 14.5146 4.26562 15C4.26562 15.4854 4.65914 15.8789 5.14453 15.8789H18.5309C18.8989 16.972 19.9329 17.7617 21.1484 17.7617C22.3639 17.7617 23.3979 16.972 23.7659 15.8789H25.8555C26.3409 15.8789 26.7344 15.4854 26.7344 15C26.7344 14.5146 26.3409 14.1211 25.8554 14.1211ZM21.1484 16.0039C20.5949 16.0039 20.1445 15.5535 20.1445 15C20.1445 14.4464 20.5949 13.9961 21.1484 13.9961C21.702 13.9961 22.1523 14.4464 22.1523 15C22.1523 15.5535 21.702 16.0039 21.1484 16.0039Z" fill="#292929"/>
<path d="M25.8554 21.6523H16.2347C15.8667 20.5593 14.8328 19.7695 13.6172 19.7695C12.4016 19.7695 11.3677 20.5593 10.9997 21.6523H5.14453C4.65914 21.6523 4.26562 22.0458 4.26562 22.5312C4.26562 23.0166 4.65914 23.4101 5.14453 23.4101H10.9997C11.3677 24.5032 12.4016 25.2929 13.6172 25.2929C14.8328 25.2929 15.8667 24.5032 16.2347 23.4101H25.8555C26.3409 23.4101 26.7344 23.0166 26.7344 22.5312C26.7344 22.0458 26.3409 21.6523 25.8554 21.6523ZM13.6172 23.5352C13.0637 23.5352 12.6133 23.0848 12.6133 22.5313C12.6133 21.9778 13.0637 21.5274 13.6172 21.5274C14.1707 21.5274 14.6211 21.9777 14.6211 22.5312C14.6211 23.0848 14.1707 23.5352 13.6172 23.5352Z" fill="#292929"/>
</svg>
