<svg width="29" height="29" viewBox="0 0 29 29" fill="none" xmlns="http://www.w3.org/2000/svg">
<rect x="0.998047" y="0.351562" width="28" height="28" rx="8" fill="#F6F6F6"/>
<g clip-path="url(#clip0)">
<path d="M12.9895 16.8254L12.6807 21.1685C13.1225 21.1685 13.3138 20.9788 13.5433 20.7509L15.6145 18.7714L19.9063 21.9144C20.6934 22.3531 21.2479 22.1221 21.4603 21.1903L24.2774 7.98989L24.2782 7.98911C24.5278 6.82556 23.8574 6.37056 23.0905 6.656L6.53162 12.9957C5.40151 13.4343 5.41862 14.0643 6.33951 14.3498L10.573 15.6666L20.4064 9.51356C20.8692 9.20711 21.2899 9.37667 20.9438 9.68311L12.9895 16.8254Z" fill="#FF7B00"/>
</g>
<defs>
<clipPath id="clip0">
<rect width="18.6667" height="18.6667" fill="white" transform="translate(5.66504 5.01807)"/>
</clipPath>
</defs>
</svg>
