<svg width="29" height="29" viewBox="0 0 29 29" fill="none" xmlns="http://www.w3.org/2000/svg">
<rect x="0.998047" y="0.351562" width="28" height="28" rx="8" fill="#F6F6F6"/>
<g clip-path="url(#clip0)">
<path d="M12.9895 16.8257L12.6807 21.1688C13.1225 21.1688 13.3138 20.979 13.5433 20.7511L15.6145 18.7717L19.9063 21.9147C20.6934 22.3533 21.2479 22.1223 21.4603 21.1906L24.2774 7.99013L24.2782 7.98936C24.5278 6.8258 23.8574 6.3708 23.0905 6.65625L6.53162 12.9959C5.40151 13.4346 5.41862 14.0646 6.33951 14.35L10.573 15.6668L20.4064 9.5138C20.8692 9.20736 21.2899 9.37691 20.9438 9.68336L12.9895 16.8257Z" fill="#31529A"/>
</g>
<defs>
<clipPath id="clip0">
<rect width="18.6667" height="18.6667" fill="white" transform="translate(5.66504 5.01831)"/>
</clipPath>
</defs>
</svg>
