<svg width="29" height="29" viewBox="0 0 29 29" fill="none" xmlns="http://www.w3.org/2000/svg">
<rect x="0.998047" y="0.351562" width="28" height="28" rx="8" fill="#F6F6F6"/>
<path d="M23.3787 9.97732C23.177 9.22761 22.5859 8.63663 21.8363 8.43475C20.4669 8.06006 14.989 8.06006 14.989 8.06006C14.989 8.06006 9.51143 8.06006 8.142 8.42055C7.40681 8.62221 6.8013 9.22772 6.59964 9.97732C6.23926 11.3466 6.23926 14.1864 6.23926 14.1864C6.23926 14.1864 6.23926 17.0405 6.59964 18.3955C6.80151 19.1452 7.39239 19.7361 8.1421 19.938C9.52585 20.3128 14.9893 20.3128 14.9893 20.3128C14.9893 20.3128 20.4669 20.3128 21.8363 19.9523C22.586 19.7506 23.177 19.1596 23.3789 18.41C23.7391 17.0405 23.7391 14.2009 23.7391 14.2009C23.7391 14.2009 23.7536 11.3466 23.3787 9.97732ZM13.245 16.8099V11.5629L17.8001 14.1864L13.245 16.8099Z" fill="#FF7B00"/>
</svg>
