<svg width="29" height="29" viewBox="0 0 29 29" fill="none" xmlns="http://www.w3.org/2000/svg">
<rect x="0.998047" y="0.351562" width="28" height="28" rx="8" fill="#F6F6F6"/>
<g clip-path="url(#clip0)">
<path d="M24.3317 8.56381C23.6375 8.86831 22.8979 9.07014 22.1267 9.16814C22.92 8.69448 23.5255 7.95014 23.8102 7.05298C23.0705 7.49398 22.2539 7.80548 21.3835 7.97931C20.6812 7.23148 19.6802 6.76831 18.5882 6.76831C16.4695 6.76831 14.7639 8.48798 14.7639 10.5961C14.7639 10.8995 14.7895 11.1911 14.8525 11.4688C11.671 11.3136 8.85587 9.78881 6.96471 7.46598C6.63454 8.03881 6.44087 8.69448 6.44087 9.40031C6.44087 10.7256 7.12337 11.9005 8.14071 12.5806C7.52587 12.569 6.92271 12.3905 6.41171 12.1093C6.41171 12.121 6.41171 12.1361 6.41171 12.1513C6.41171 14.011 7.73821 15.5556 9.47771 15.9115C9.16621 15.9966 8.82671 16.0375 8.47437 16.0375C8.22937 16.0375 7.98204 16.0235 7.74987 15.9721C8.24571 17.4876 9.65271 18.6018 11.3257 18.638C10.0237 19.6565 8.37054 20.2701 6.58087 20.2701C6.26704 20.2701 5.96604 20.2561 5.66504 20.2176C7.36021 21.3108 9.36921 21.935 11.5357 21.935C18.5777 21.935 22.4277 16.1016 22.4277 11.0453C22.4277 10.8761 22.4219 10.7128 22.4137 10.5506C23.1732 10.0116 23.8114 9.33848 24.3317 8.56381Z" fill="#31529A"/>
</g>
<defs>
<clipPath id="clip0">
<rect width="18.6667" height="18.6667" fill="white" transform="translate(5.66504 5.01831)"/>
</clipPath>
</defs>
</svg>
