<svg width="29" height="29" viewBox="0 0 29 29" fill="none" xmlns="http://www.w3.org/2000/svg">
<rect x="0.998047" y="0.351562" width="28" height="28" rx="8" fill="#F6F6F6"/>
<g clip-path="url(#clip0)">
<path d="M18.4984 5.01831H11.4984C8.27721 5.01831 5.66504 7.63048 5.66504 10.8516V17.8516C5.66504 21.0728 8.27721 23.685 11.4984 23.685H18.4984C21.7195 23.685 24.3317 21.0728 24.3317 17.8516V10.8516C24.3317 7.63048 21.7195 5.01831 18.4984 5.01831ZM22.5817 17.8516C22.5817 20.1033 20.75 21.935 18.4984 21.935H11.4984C9.24671 21.935 7.41504 20.1033 7.41504 17.8516V10.8516C7.41504 8.59998 9.24671 6.76831 11.4984 6.76831H18.4984C20.75 6.76831 22.5817 8.59998 22.5817 10.8516V17.8516Z" fill="#31529A"/>
<path d="M14.9987 9.68506C12.4215 9.68506 10.332 11.7746 10.332 14.3517C10.332 16.9289 12.4215 19.0184 14.9987 19.0184C17.5759 19.0184 19.6654 16.9289 19.6654 14.3517C19.6654 11.7746 17.5759 9.68506 14.9987 9.68506ZM14.9987 17.2684C13.391 17.2684 12.082 15.9594 12.082 14.3517C12.082 12.7429 13.391 11.4351 14.9987 11.4351C16.6064 11.4351 17.9154 12.7429 17.9154 14.3517C17.9154 15.9594 16.6064 17.2684 14.9987 17.2684Z" fill="#31529A"/>
<path d="M20.0154 9.9568C20.3588 9.9568 20.6372 9.67839 20.6372 9.33497C20.6372 8.99154 20.3588 8.71313 20.0154 8.71313C19.672 8.71313 19.3936 8.99154 19.3936 9.33497C19.3936 9.67839 19.672 9.9568 20.0154 9.9568Z" fill="#31529A"/>
</g>
<defs>
<clipPath id="clip0">
<rect width="18.6667" height="18.6667" fill="white" transform="translate(5.66504 5.01831)"/>
</clipPath>
</defs>
</svg>
