<svg width="29" height="29" viewBox="0 0 29 29" fill="none" xmlns="http://www.w3.org/2000/svg">
<rect x="0.998047" y="0.351562" width="28" height="28" rx="8" fill="#F6F6F6"/>
<g clip-path="url(#clip0)">
<path d="M24.3317 8.56357C23.6375 8.86807 22.8979 9.0699 22.1267 9.1679C22.92 8.69423 23.5255 7.9499 23.8102 7.05273C23.0705 7.49373 22.2539 7.80523 21.3835 7.97907C20.6812 7.23123 19.6802 6.76807 18.5882 6.76807C16.4695 6.76807 14.7639 8.48773 14.7639 10.5959C14.7639 10.8992 14.7895 11.1909 14.8525 11.4686C11.671 11.3134 8.85587 9.78857 6.96471 7.46573C6.63454 8.03857 6.44087 8.69423 6.44087 9.40007C6.44087 10.7254 7.12337 11.9002 8.14071 12.5804C7.52587 12.5687 6.92271 12.3902 6.41171 12.1091C6.41171 12.1207 6.41171 12.1359 6.41171 12.1511C6.41171 14.0107 7.73821 15.5554 9.47771 15.9112C9.16621 15.9964 8.82671 16.0372 8.47437 16.0372C8.22937 16.0372 7.98204 16.0232 7.74987 15.9719C8.24571 17.4874 9.65271 18.6016 11.3257 18.6377C10.0237 19.6562 8.37054 20.2699 6.58087 20.2699C6.26704 20.2699 5.96604 20.2559 5.66504 20.2174C7.36021 21.3106 9.36921 21.9347 11.5357 21.9347C18.5777 21.9347 22.4277 16.1014 22.4277 11.0451C22.4277 10.8759 22.4219 10.7126 22.4137 10.5504C23.1732 10.0114 23.8114 9.33823 24.3317 8.56357Z" fill="#FF7B00"/>
</g>
<defs>
<clipPath id="clip0">
<rect width="18.6667" height="18.6667" fill="white" transform="translate(5.66504 5.01807)"/>
</clipPath>
</defs>
</svg>
