<svg width="29" height="29" viewBox="0 0 29 29" fill="none" xmlns="http://www.w3.org/2000/svg">
<rect x="0.998047" y="0.351562" width="28" height="28" rx="8" fill="#F6F6F6"/>
<g clip-path="url(#clip0)">
<path d="M18.4984 5.01807H11.4984C8.27721 5.01807 5.66504 7.63023 5.66504 10.8514V17.8514C5.66504 21.0726 8.27721 23.6847 11.4984 23.6847H18.4984C21.7195 23.6847 24.3317 21.0726 24.3317 17.8514V10.8514C24.3317 7.63023 21.7195 5.01807 18.4984 5.01807ZM22.5817 17.8514C22.5817 20.1031 20.75 21.9347 18.4984 21.9347H11.4984C9.24671 21.9347 7.41504 20.1031 7.41504 17.8514V10.8514C7.41504 8.59973 9.24671 6.76807 11.4984 6.76807H18.4984C20.75 6.76807 22.5817 8.59973 22.5817 10.8514V17.8514Z" fill="#FF7B00"/>
<path d="M14.9987 9.68457C12.4215 9.68457 10.332 11.7741 10.332 14.3512C10.332 16.9284 12.4215 19.0179 14.9987 19.0179C17.5759 19.0179 19.6654 16.9284 19.6654 14.3512C19.6654 11.7741 17.5759 9.68457 14.9987 9.68457ZM14.9987 17.2679C13.391 17.2679 12.082 15.9589 12.082 14.3512C12.082 12.7424 13.391 11.4346 14.9987 11.4346C16.6064 11.4346 17.9154 12.7424 17.9154 14.3512C17.9154 15.9589 16.6064 17.2679 14.9987 17.2679Z" fill="#FF7B00"/>
<path d="M20.0154 9.95655C20.3588 9.95655 20.6372 9.67815 20.6372 9.33472C20.6372 8.99129 20.3588 8.71289 20.0154 8.71289C19.672 8.71289 19.3936 8.99129 19.3936 9.33472C19.3936 9.67815 19.672 9.95655 20.0154 9.95655Z" fill="#FF7B00"/>
</g>
<defs>
<clipPath id="clip0">
<rect width="18.6667" height="18.6667" fill="white" transform="translate(5.66504 5.01807)"/>
</clipPath>
</defs>
</svg>
