<svg width="29" height="29" viewBox="0 0 29 29" fill="none" xmlns="http://www.w3.org/2000/svg">
<rect x="0.998047" y="0.351562" width="28" height="28" rx="8" fill="#F6F6F6"/>
<path d="M23.3787 9.97757C23.177 9.22786 22.5859 8.63687 21.8363 8.435C20.4669 8.0603 14.989 8.0603 14.989 8.0603C14.989 8.0603 9.51143 8.0603 8.142 8.42079C7.40681 8.62245 6.8013 9.22796 6.59964 9.97757C6.23926 11.3469 6.23926 14.1867 6.23926 14.1867C6.23926 14.1867 6.23926 17.0408 6.59964 18.3958C6.80151 19.1454 7.39239 19.7364 8.1421 19.9383C9.52585 20.3131 14.9893 20.3131 14.9893 20.3131C14.9893 20.3131 20.4669 20.3131 21.8363 19.9526C22.586 19.7508 23.177 19.1598 23.3789 18.4102C23.7391 17.0408 23.7391 14.2011 23.7391 14.2011C23.7391 14.2011 23.7536 11.3469 23.3787 9.97757ZM13.245 16.8102V11.5632L17.8001 14.1867L13.245 16.8102Z" fill="#31529A"/>
</svg>
