<svg width="157" height="40" viewBox="0 0 157 40" fill="none" xmlns="http://www.w3.org/2000/svg">
<path d="M15.4638 1.64871C17.4936 1.55402 19.5272 1.57879 21.554 1.72288C23.3535 1.82739 25.1242 2.22292 26.7971 2.89408C27.4788 3.15016 28.102 3.54062 28.6298 4.04226C29.1576 4.54391 29.5792 5.14651 29.8695 5.81427C30.4239 7.13382 30.2938 8.91014 29.4791 11.1432C28.7374 12.1661 27.9878 12.7595 27.2266 12.9352C26.4587 13.1056 25.6559 13.0135 24.9466 12.6736C24.141 12.3021 23.3768 11.8468 22.6667 11.315C20.5351 10.2948 18.695 10.0059 17.1464 10.4483C15.5978 10.8908 14.2783 11.9501 13.1878 13.6262C11.9625 15.6545 11.0665 17.8643 10.5331 20.1732C10.3125 21.5685 10.4127 22.9957 10.8259 24.3465C11.1733 25.6397 11.8206 26.8328 12.7154 27.8289C13.0588 28.2467 13.5037 28.5695 14.0074 28.7663C14.5111 28.9632 15.0569 29.0275 15.5926 28.9533C16.7177 28.8705 17.7784 28.3968 18.5909 27.6142C19.5786 26.685 21.839 25.5646 23.1937 25.7247C24.2144 25.9078 25.2092 26.2132 26.1568 26.6343C27.1563 27.0247 27.8082 27.5869 28.1088 28.3364C28.4094 29.086 27.7887 30.9482 27.695 31.12C26.956 32.5354 26.0603 33.8633 25.0247 35.0786C23.8929 36.3416 22.3891 37.2125 20.7303 37.5655C18.8954 38.0261 16.3747 37.8817 13.1683 37.1321C9.7848 36.1483 7.1561 34.7611 5.28218 32.9705C3.53862 31.3626 2.21563 29.352 1.42894 27.1145C0.753661 25.1405 0.429923 23.0633 0.472458 20.9774C1.21422 16.8366 2.18761 13.5273 3.39264 11.0495C4.59767 8.5718 5.8912 6.70438 7.27321 5.4473C8.42305 4.33493 9.77106 3.44775 11.2475 2.83162C12.2769 2.42066 13.3438 2.11079 14.4332 1.90637C14.8587 1.81268 15.2022 1.72679 15.4638 1.64871Z" fill="#FF7B00"/>
<path d="M47.6402 13.2827C48.3119 13.3005 48.982 13.3579 49.6469 13.4544C51.604 13.6346 53.484 14.306 55.1125 15.4064C56.5005 16.377 57.6227 17.6804 58.3762 19.1972C59.1013 20.6556 59.5009 22.254 59.5474 23.882C59.6065 25.4587 59.3407 27.0308 58.7666 28.5004C58.3514 29.3161 57.8474 30.0833 57.2636 30.7882C56.4131 31.8376 55.4568 32.7965 54.4098 33.6498C53.1449 34.6852 51.7497 35.5502 50.2598 36.2225C48.5544 36.9905 46.7367 37.4795 44.8762 37.6709C43.1172 38.0106 41.2994 37.8758 39.6097 37.2805C37.9103 36.6295 36.4799 35.4247 35.5496 33.8606C34.4721 32.1741 33.7654 29.8408 33.4297 26.8608C33.3877 24.5472 34.0257 22.2721 35.2646 20.3177C36.55 18.2406 38.3196 16.5059 40.4217 15.262C42.6015 13.9541 45.0983 13.2695 47.6402 13.2827ZM49.885 22.1486C49.2253 22.1213 48.3 22.5078 47.1132 23.3003C45.2497 24.8853 44.0095 26.2153 43.3927 27.2902C42.7759 28.3651 42.6744 29.1017 43.0882 29.4999C43.5072 29.8981 44.3296 29.8668 45.5555 29.4062C46.7813 28.9455 48.313 27.9734 50.1505 26.4899C50.6192 25.9313 50.9603 25.2771 51.1499 24.573C51.3228 24.0198 51.3049 23.4245 51.0992 22.8826C50.9951 22.6516 50.8233 22.4576 50.6064 22.3265C50.3896 22.1954 50.138 22.1334 49.885 22.1486Z" fill="#FF7B00"/>
<path d="M71.8738 1.59412C72.8508 1.57768 73.8265 1.67198 74.7823 1.8752C75.0191 1.7737 75.7127 1.94287 76.8631 2.38272C78.2823 2.99512 79.599 3.82201 80.7671 4.83443C82.3825 6.22814 83.7169 7.91762 84.6984 9.81203C85.8618 11.9384 86.5801 14.6361 86.8534 17.905C87.0681 20.783 86.6455 23.6729 85.6158 26.3689C84.7128 28.6951 83.379 30.8302 81.6845 32.6621C80.2401 34.2421 78.5354 35.5626 76.6444 36.5661C74.9085 37.451 73.3846 37.8766 72.0729 37.8427C70.4413 37.6603 68.8733 37.1061 67.4896 36.2226C65.8811 35.2622 64.7542 34.2797 64.1087 33.275C63.6116 32.3875 63.2759 30.5279 63.1015 27.6962C62.9271 24.8645 62.8673 21.7322 62.9219 18.2993C62.9818 14.8716 63.1223 11.8304 63.3435 9.17568C63.5648 6.52096 63.825 4.94635 64.1243 4.45184C64.9523 3.35886 66.1262 2.5786 67.4544 2.23828C68.8894 1.8144 70.3775 1.59749 71.8738 1.59412ZM73.2753 13.2593C73.1117 13.2439 72.9468 13.2639 72.7917 13.318C72.6366 13.3721 72.495 13.459 72.3764 13.5727C72.2579 13.6864 72.1653 13.8243 72.1048 13.9771C72.0443 14.1298 72.0175 14.2937 72.026 14.4578L72.229 24.8229C72.2642 25.5725 72.5648 25.9941 73.1348 26.1385C73.8218 26.2345 74.5196 26.0657 75.0868 25.6662C75.9104 25.136 76.5829 24.4016 77.0387 23.5346C77.6386 22.3991 77.9383 21.1292 77.9094 19.8453C77.9392 18.5615 77.6635 17.289 77.1051 16.1326C76.6829 15.2626 76.0494 14.5123 75.2624 13.9503C74.687 13.5208 73.993 13.2795 73.2753 13.2593Z" fill="#FF7B00"/>
<path d="M93.977 14.1767C95.0198 13.6263 96.1753 13.3231 97.354 13.2905C98.497 13.2131 99.6396 13.4465 100.661 13.9659C101.113 14.1987 101.489 14.5572 101.743 14.9983C101.997 15.4393 102.119 15.9443 102.093 16.4527L102.207 21.7075V22.9724C102.207 24.1944 102.207 25.5178 102.207 26.935C102.207 28.3521 102.312 29.738 102.449 31.081L102.726 35.3403C102.741 35.9259 102.351 36.4529 101.555 36.9214C100.656 37.4181 99.6619 37.7201 98.6384 37.8076C97.569 37.9407 96.484 37.7603 95.5152 37.2884C94.5665 36.8199 93.9536 35.9376 93.6998 34.6493C93.1793 31.5105 92.7889 28.4159 92.5286 25.3656C92.2761 22.3795 92.2109 19.3806 92.3334 16.3864C92.4453 15.452 92.9932 14.7155 93.977 14.1767Z" fill="#FF7B00"/>
<path d="M108.602 6.39991C108.674 5.74164 108.833 5.09579 109.074 4.47914C109.353 3.8692 109.751 3.32107 110.245 2.86679C110.902 2.26217 111.679 1.80317 112.525 1.51991C113.739 1.1201 115.015 0.936432 116.292 0.977253C121.466 0.956432 125.407 1.19197 128.114 1.68388C130.82 2.17578 132.183 3.05158 132.201 4.31127C132.275 5.36925 132.314 6.48189 132.326 7.64918C132.354 8.62966 132.264 9.60992 132.061 10.5694C131.858 11.1081 131.207 11.3684 130.109 11.3502C128.824 11.3158 127.542 11.2037 126.271 11.0144C124.929 10.82 123.578 10.7001 122.223 10.6553C120.968 10.6162 120.074 10.8387 119.541 11.3228C119.2 11.6756 118.947 12.1035 118.803 12.5721C118.685 12.9694 118.651 13.387 118.705 13.798C118.753 14.1595 118.846 14.5136 118.982 14.8521C119.132 15.2055 119.319 15.5419 119.541 15.8554C120.615 15.7279 121.537 15.6537 122.305 15.6329C123.08 15.6149 123.857 15.6514 124.627 15.7422C125.315 15.8096 125.985 16.0028 126.603 16.3122C126.848 16.4275 127.059 16.6049 127.216 16.8267C127.372 17.0484 127.467 17.3071 127.493 17.577C127.512 17.8581 127.528 18.1548 127.548 18.4672C127.587 19.1738 127.61 19.8921 127.618 20.6261C127.629 21.3055 127.582 21.9847 127.477 22.6561C127.404 23.2056 127.199 23.7293 126.88 24.1826C126.729 24.3832 126.53 24.5431 126.302 24.648C126.074 24.7529 125.823 24.7996 125.572 24.7838C124.702 24.7838 123.784 24.7838 122.82 24.7838C121.856 24.7838 120.708 24.7604 119.373 24.7409V29.8161C119.298 30.6515 119.244 31.6041 119.205 32.6816C119.15 34.4579 119.049 35.9063 118.9 37.0189C118.846 37.3885 118.303 37.8102 117.272 38.2838C116.139 38.7869 114.94 39.1285 113.712 39.2989C112.524 39.5189 111.297 39.3929 110.179 38.9358C109.172 38.4908 108.637 37.5382 108.582 36.0742C108.246 31.0484 108.098 25.9732 108.137 20.8486C108.176 15.7239 108.331 10.9077 108.602 6.39991Z" fill="#FF7B00"/>
<path d="M133.712 16.2927C134.429 15.6158 135.286 15.1053 136.222 14.7974C137.185 14.4364 138.208 14.2628 139.236 14.286C140.194 14.3251 140.86 14.6413 141.235 15.2347L143.101 18.5375C143.382 18.9864 143.636 19.3612 143.882 19.6579C144.099 19.949 144.352 20.2114 144.635 20.4387C144.868 20.6412 145.16 20.7631 145.467 20.7862C145.76 20.7664 146.037 20.6433 146.248 20.4387C146.506 20.2068 146.735 19.9447 146.931 19.6579C147.177 19.3037 147.396 18.9318 147.587 18.5453L149.437 14.7311C149.515 14.4874 149.667 14.2744 149.872 14.1223C150.077 13.9702 150.326 13.8868 150.581 13.8839C151.276 13.8436 151.971 13.9486 152.623 14.1923C153.39 14.4514 154.121 14.8041 154.801 15.2425C155.403 15.604 155.933 16.0739 156.363 16.6284C156.718 17.1125 156.781 17.5498 156.554 17.9402C155.981 18.7963 155.343 19.6069 154.645 20.3645C153.923 21.1453 153.197 21.9261 152.475 22.625C151.538 23.5515 150.735 24.4117 150.066 25.2055C149.494 25.8085 149.097 26.5563 148.918 27.3683C148.785 28.6436 148.655 30.2963 148.528 32.3264C148.411 34.2576 148.28 35.9714 148.137 37.4679C148.114 37.6818 148.044 37.8878 147.931 38.0709C147.818 38.2539 147.666 38.4094 147.485 38.5259C147.1 38.7769 146.671 38.953 146.22 39.0452C145.8 39.1415 145.373 39.2119 144.944 39.256C144.404 39.3185 143.859 39.3185 143.32 39.256C142.77 39.2095 142.237 39.0443 141.758 38.7719C141.547 38.6552 141.37 38.4862 141.243 38.281C141.117 38.0759 141.045 37.8415 141.036 37.6007C140.997 36.4568 140.934 35.1138 140.856 33.5679C140.72 31.1396 140.634 29.0392 140.595 27.2785C140.5 26.398 140.116 25.574 139.502 24.9361C138.732 24.0539 137.909 23.2195 137.038 22.4376C136.328 21.8051 135.644 21.1453 134.981 20.4504C134.338 19.7853 133.763 19.0583 133.263 18.2798C132.94 17.5823 133.09 16.9199 133.712 16.2927Z" fill="#FF7B00"/>
</svg>
