<svg width="1203" height="889" viewBox="0 0 1203 889" fill="none" xmlns="http://www.w3.org/2000/svg">
<path d="M89.864 155.238L16.3731 105.837L58.2937 19.2323L131.785 68.6332L89.864 155.238ZM46.6154 96.0883L81.6206 119.725L101.65 78.3476L66.6539 55.2485L46.6154 96.0883Z" fill="#6EE1F8"/>
<path d="M1161.37 875.738L1109.44 840.83L1139.07 779.634L1191 814.542L1161.37 875.738ZM1130.81 833.942L1155.55 850.644L1169.7 821.406L1144.97 805.084L1130.81 833.942Z" fill="#6EE1F8"/>
<path d="M376.069 694.602L368.75 711.001L425.744 746.099L433.063 729.7L376.069 694.602Z" fill="#89E5F8"/>
<path d="M409.126 682.805L379.183 749.87L393.116 758.454L423.06 691.389L409.126 682.805Z" fill="#89E5F8"/>
<path opacity="0.8" d="M145.752 810.715C142.465 810.715 139.251 809.567 136.517 807.417C133.783 805.267 131.651 802.21 130.39 798.633C129.129 795.056 128.796 791.118 129.432 787.318C130.068 783.518 131.645 780.025 133.965 777.28C136.284 774.535 139.242 772.662 142.464 771.896C145.686 771.13 149.028 771.507 152.069 772.978C155.11 774.449 157.713 776.949 159.549 780.162C161.385 783.374 162.372 787.156 162.386 791.03C162.396 793.611 161.972 796.169 161.14 798.557C160.308 800.945 159.084 803.115 157.539 804.944C155.993 806.773 154.156 808.225 152.134 809.215C150.111 810.205 147.942 810.715 145.752 810.715ZM145.752 779.746C143.841 779.746 141.974 780.415 140.386 781.667C138.798 782.92 137.562 784.7 136.834 786.782C136.106 788.863 135.919 791.153 136.297 793.36C136.675 795.567 137.601 797.592 138.956 799.179C140.312 800.765 142.038 801.841 143.913 802.27C145.789 802.699 147.73 802.462 149.491 801.59C151.253 800.717 152.754 799.247 153.806 797.367C154.857 795.487 155.411 793.281 155.397 791.03C155.369 788.033 154.342 785.169 152.537 783.058C150.732 780.946 148.295 779.756 145.752 779.746Z" fill="#6EE1F8"/>
<path d="M665.734 98.6103L666.049 92.2756L654.069 91.4576L654.763 77.3391L649.361 76.9737L648.383 97.4512L665.734 98.6103Z" fill="#6EE1F8"/>
<path d="M652.23 83.2686L652.545 76.9338L640.565 76.1158L641.259 61.9973L635.857 61.6319L634.879 82.1094L652.23 83.2686Z" fill="#6EE1F8"/>
<path d="M679.575 116.894L679.891 110.559L667.91 109.741L668.605 95.6223L663.203 95.2569L662.199 115.741L679.575 116.894Z" fill="#6EE1F8"/>
<path d="M667.753 112.908L668.763 92.455L651.381 91.2716L651.071 97.6374L663.046 98.4243L662.351 112.543L667.753 112.908Z" fill="#6EE1F8"/>
<path d="M654.249 97.5664L655.259 77.1132L637.877 75.9298L637.567 82.2956L649.542 83.0825L648.848 97.201L654.249 97.5664Z" fill="#6EE1F8"/>
<path d="M1120.62 232.039L1117.87 237.495L1128.19 244.707L1122.07 256.872L1126.73 260.121L1135.58 242.461L1120.62 232.039Z" fill="#6EE1F8"/>
<path d="M1126.63 252.977L1123.88 258.432L1134.21 265.645L1128.09 277.81L1132.74 281.058L1141.59 263.399L1126.63 252.977Z" fill="#6EE1F8"/>
<path d="M1115.45 208.306L1112.7 213.762L1123.02 220.974L1116.9 233.139L1121.56 236.388L1130.44 218.736L1115.45 208.306Z" fill="#6EE1F8"/>
<path d="M1124.4 218.246L1115.53 235.867L1130.51 246.327L1133.26 240.841L1122.93 233.66L1129.05 221.495L1124.4 218.246Z" fill="#6EE1F8"/>
<path d="M1130.41 239.183L1121.54 256.804L1136.52 267.265L1139.28 261.778L1128.95 254.597L1135.07 242.432L1130.41 239.183Z" fill="#6EE1F8"/>
</svg>
