<svg width="51" height="51" viewBox="0 0 51 51" fill="none" xmlns="http://www.w3.org/2000/svg">
<g clip-path="url(#clip0)">
<g clip-path="url(#clip1)">
<path d="M8.54551 8.14353C18.1083 -1.41928 33.6309 -1.41928 43.1937 8.14353C52.7566 17.7063 52.7566 33.2289 43.1937 42.7918C33.6309 52.3546 18.1083 52.3546 8.54551 42.7918C-1.0173 33.2289 -1.0173 17.7063 8.54551 8.14353ZM30.8194 34.66C31.9909 35.8316 33.8904 35.8316 35.062 34.66C36.2336 33.4885 36.2336 31.589 35.062 30.4174L30.1123 25.4676L35.062 20.5179C36.2336 19.3463 36.2336 17.4468 35.062 16.2753C33.8904 15.1037 31.9909 15.1037 30.8194 16.2753L25.8696 21.225L20.9199 16.2753C19.7483 15.1037 17.8488 15.1037 16.6772 16.2753C15.5057 17.4468 15.5057 19.3463 16.6772 20.5179L21.627 25.4676L16.6772 30.4174C15.5057 31.589 15.5057 33.4885 16.6772 34.66C17.8488 35.8316 19.7483 35.8316 20.9199 34.66L25.8696 29.7103L30.8194 34.66Z" fill="#FF7B00" stroke="black"/>
</g>
</g>
<defs>
<clipPath id="clip0">
<rect width="50" height="50" fill="white" transform="translate(0.869629 0.467773)"/>
</clipPath>
<clipPath id="clip1">
<rect width="60" height="60" fill="white" transform="translate(25.8696 -16.9587) rotate(45)"/>
</clipPath>
</defs>
</svg>
