<svg width="51" height="51" viewBox="0 0 51 51" fill="none" xmlns="http://www.w3.org/2000/svg">
<g clip-path="url(#clip0)">
<path d="M1.36963 25.4712C1.36963 11.9473 12.3458 0.971191 25.8696 0.971191C39.3935 0.971191 50.3696 11.9473 50.3696 25.4712C50.3696 38.995 39.3935 49.9712 25.8696 49.9712C12.3458 49.9712 1.36963 38.995 1.36963 25.4712ZM35.8696 28.4712C37.5265 28.4712 38.8696 27.128 38.8696 25.4712C38.8696 23.8143 37.5265 22.4712 35.8696 22.4712H28.8696V15.4712C28.8696 13.8143 27.5265 12.4712 25.8696 12.4712C24.2128 12.4712 22.8696 13.8143 22.8696 15.4712V22.4712H15.8696C14.2128 22.4712 12.8696 23.8143 12.8696 25.4712C12.8696 27.128 14.2128 28.4712 15.8696 28.4712H22.8696V35.4712C22.8696 37.128 24.2128 38.4712 25.8696 38.4712C27.5265 38.4712 28.8696 37.128 28.8696 35.4712V28.4712H35.8696Z" fill="white" stroke="black"/>
</g>
<defs>
<clipPath id="clip0">
<rect width="50" height="50" fill="white" transform="translate(0.869629 0.471191)"/>
</clipPath>
</defs>
</svg>
