<svg width="31" height="30" viewBox="0 0 31 30" fill="none" xmlns="http://www.w3.org/2000/svg">
<path d="M19.875 17.5H18.8875L18.5375 17.1625C19.7625 15.7375 20.5 13.8875 20.5 11.875C20.5 7.3875 16.8625 3.75 12.375 3.75C7.8875 3.75 4.25 7.3875 4.25 11.875C4.25 16.3625 7.8875 20 12.375 20C14.3875 20 16.2375 19.2625 17.6625 18.0375L18 18.3875V19.375L24.25 25.6125L26.1125 23.75L19.875 17.5ZM12.375 17.5C9.2625 17.5 6.75 14.9875 6.75 11.875C6.75 8.7625 9.2625 6.25 12.375 6.25C15.4875 6.25 18 8.7625 18 11.875C18 14.9875 15.4875 17.5 12.375 17.5Z" fill="#292929"/>
</svg>
