<svg width="220" height="439" viewBox="0 0 220 439" fill="none" xmlns="http://www.w3.org/2000/svg">
<path fill-rule="evenodd" clip-rule="evenodd" d="M72.4101 119.717C72.5852 119.716 72.7567 119.772 72.9028 119.877C73.049 119.982 73.1631 120.132 73.2309 120.308C73.2987 120.484 73.317 120.678 73.2835 120.865C73.25 121.053 73.1662 121.225 73.0427 121.36C72.9193 121.496 72.7617 121.588 72.5901 121.626C72.4184 121.663 72.2403 121.645 72.0784 121.572C71.9165 121.499 71.7781 121.376 71.6807 121.217C71.5833 121.058 71.5313 120.872 71.5313 120.681C71.5313 120.426 71.6237 120.182 71.7884 120.002C71.953 119.821 72.1765 119.719 72.4101 119.717Z" fill="#B5EAFF"/>
<path fill-rule="evenodd" clip-rule="evenodd" d="M166.293 114.763C166.468 114.763 166.639 114.82 166.785 114.926C166.93 115.032 167.043 115.182 167.11 115.358C167.177 115.534 167.195 115.728 167.161 115.915C167.127 116.102 167.042 116.273 166.919 116.408C166.795 116.543 166.638 116.635 166.466 116.672C166.294 116.709 166.117 116.69 165.955 116.617C165.794 116.544 165.655 116.421 165.558 116.262C165.461 116.104 165.409 115.917 165.409 115.727C165.408 115.6 165.431 115.474 165.475 115.357C165.519 115.24 165.584 115.133 165.667 115.044C165.749 114.954 165.847 114.883 165.954 114.835C166.062 114.787 166.177 114.763 166.293 114.763Z" fill="#B5EAFF"/>
<path fill-rule="evenodd" clip-rule="evenodd" d="M156.763 241.793C156.938 241.791 157.11 241.847 157.256 241.953C157.403 242.058 157.517 242.208 157.584 242.385C157.652 242.561 157.67 242.755 157.636 242.943C157.602 243.13 157.518 243.302 157.394 243.438C157.27 243.573 157.112 243.665 156.94 243.702C156.768 243.738 156.589 243.719 156.428 243.645C156.266 243.572 156.128 243.447 156.031 243.288C155.934 243.128 155.883 242.941 155.884 242.75C155.884 242.496 155.977 242.253 156.142 242.073C156.307 241.894 156.53 241.793 156.763 241.793Z" fill="#B5EAFF"/>
<path fill-rule="evenodd" clip-rule="evenodd" d="M21.0527 57.1754C21.2278 57.1742 21.3993 57.2297 21.5454 57.3349C21.6916 57.4401 21.8058 57.5901 21.8735 57.7661C21.9413 57.9421 21.9595 58.136 21.926 58.3233C21.8925 58.5106 21.8087 58.6828 21.6853 58.8182C21.5619 58.9535 21.4044 59.0459 21.2327 59.0836C21.061 59.1213 20.8829 59.1025 20.721 59.0298C20.5591 58.957 20.4207 58.8335 20.3233 58.6749C20.2259 58.5163 20.1739 58.3298 20.1739 58.139C20.1732 58.0127 20.1954 57.8876 20.2392 57.7707C20.2831 57.6538 20.3477 57.5476 20.4293 57.458C20.511 57.3684 20.6081 57.2974 20.7151 57.2489C20.8221 57.2004 20.9368 57.1754 21.0527 57.1754Z" fill="#B5EAFF"/>
<path fill-rule="evenodd" clip-rule="evenodd" d="M23.7656 283.642C23.9407 283.641 24.1122 283.697 24.2583 283.802C24.4044 283.907 24.5186 284.057 24.5864 284.233C24.6541 284.409 24.6724 284.603 24.6389 284.79C24.6054 284.977 24.5217 285.15 24.3982 285.285C24.2748 285.42 24.1172 285.513 23.9455 285.55C23.7739 285.588 23.5958 285.569 23.4339 285.497C23.272 285.424 23.1336 285.3 23.0362 285.142C22.9388 284.983 22.8868 284.797 22.8868 284.606C22.8868 284.351 22.9792 284.107 23.1438 283.927C23.3085 283.746 23.532 283.644 23.7656 283.642Z" fill="#B5EAFF"/>
<path fill-rule="evenodd" clip-rule="evenodd" d="M32.4551 130.543C32.6302 130.543 32.8014 130.599 32.947 130.705C33.0925 130.812 33.2058 130.962 33.2726 131.139C33.3393 131.315 33.3565 131.509 33.322 131.696C33.2874 131.883 33.2026 132.055 33.0784 132.19C32.9542 132.324 32.7962 132.415 32.6243 132.452C32.4524 132.488 32.2744 132.469 32.113 132.395C31.9515 132.321 31.8137 132.196 31.7172 132.037C31.6207 131.878 31.5698 131.691 31.5709 131.5C31.5709 131.374 31.5938 131.249 31.6383 131.132C31.6828 131.016 31.748 130.91 31.8302 130.821C31.9124 130.732 32.0099 130.662 32.1172 130.614C32.2244 130.566 32.3392 130.542 32.4551 130.543Z" fill="#B5EAFF"/>
<path fill-rule="evenodd" clip-rule="evenodd" d="M134.515 103.878C134.69 103.876 134.862 103.932 135.008 104.038C135.155 104.143 135.269 104.293 135.336 104.47C135.404 104.646 135.422 104.84 135.388 105.028C135.354 105.215 135.27 105.387 135.146 105.522C135.022 105.658 134.864 105.749 134.692 105.786C134.52 105.823 134.341 105.804 134.18 105.73C134.018 105.657 133.88 105.532 133.783 105.373C133.686 105.213 133.635 105.026 133.636 104.835C133.636 104.581 133.729 104.338 133.894 104.158C134.059 103.978 134.282 103.878 134.515 103.878Z" fill="#B5EAFF"/>
<path fill-rule="evenodd" clip-rule="evenodd" d="M31.0634 147.828C31.2385 147.827 31.41 147.882 31.5561 147.987C31.7023 148.092 31.8165 148.242 31.8842 148.418C31.952 148.594 31.9703 148.788 31.9368 148.976C31.9033 149.163 31.8195 149.335 31.6961 149.471C31.5726 149.606 31.4151 149.698 31.2434 149.736C31.0717 149.774 30.8936 149.755 30.7317 149.682C30.5698 149.609 30.4314 149.486 30.334 149.327C30.2366 149.169 30.1846 148.982 30.1846 148.791C30.1846 148.537 30.277 148.293 30.4417 148.112C30.6063 147.932 30.8298 147.829 31.0634 147.828Z" fill="#B5EAFF"/>
<path fill-rule="evenodd" clip-rule="evenodd" d="M29.0767 377.471C29.2516 377.471 29.4225 377.528 29.568 377.634C29.7134 377.74 29.8267 377.89 29.8936 378.066C29.9606 378.242 29.9781 378.436 29.9439 378.623C29.9098 378.81 29.8256 378.981 29.7019 379.116C29.5783 379.251 29.4207 379.343 29.2492 379.38C29.0777 379.417 28.8999 379.398 28.7383 379.325C28.5767 379.252 28.4386 379.129 28.3414 378.97C28.2443 378.812 28.1924 378.625 28.1924 378.435C28.1939 378.18 28.2875 377.936 28.453 377.755C28.6186 377.575 28.8426 377.473 29.0767 377.471Z" fill="#B5EAFF"/>
<path fill-rule="evenodd" clip-rule="evenodd" d="M86.5039 377.471C86.6788 377.471 86.8498 377.528 86.9952 377.634C87.1406 377.74 87.254 377.89 87.3209 378.066C87.3878 378.242 87.4053 378.436 87.3712 378.623C87.3371 378.81 87.2529 378.981 87.1292 379.116C87.0055 379.251 86.848 379.343 86.6764 379.38C86.5049 379.417 86.3272 379.398 86.1656 379.325C86.004 379.252 85.8659 379.129 85.7687 378.97C85.6716 378.812 85.6197 378.625 85.6197 378.435C85.6197 378.179 85.7129 377.934 85.8787 377.754C86.0445 377.573 86.2694 377.471 86.5039 377.471Z" fill="#B5EAFF"/>
<path fill-rule="evenodd" clip-rule="evenodd" d="M0.000137329 432.025C3.31879 431.9 6.6429 431.68 9.95064 431.353C33.4081 429.251 56.3215 422.532 77.5793 411.523C77.9887 411.285 78.4198 411.077 78.8456 410.869C81.2582 409.608 83.6544 408.323 86.0015 406.943C98.0157 400.024 109.34 391.767 119.794 382.307C122.458 379.886 125.078 377.382 127.621 374.806C131.424 370.988 135.052 367.011 138.505 362.875C147.622 352.161 155.687 340.44 162.571 327.901C165.082 323.404 167.407 318.836 169.585 314.131C182.643 285.997 189.997 255.131 191.145 223.628C191.461 214.59 191.231 205.54 190.457 196.535C190.152 192.579 189.721 188.672 189.213 184.74C186.263 162.787 180.186 141.471 171.2 121.561C155.191 86.1293 131.901 57.8647 104.423 37.5882C103.517 36.8864 102.589 36.2024 101.694 35.5481C97.0219 32.2292 92.2459 29.1362 87.3661 26.2693C85.7941 25.3414 84.193 24.4354 82.5628 23.5511C57.155 9.58901 29.3045 1.69865 0.873493 0.407666L0.0220225 0.407666L0.000137329 432.025Z" fill="url(#paint0_radial)"/>
<g style="mix-blend-mode:multiply" opacity="0.5">
<g style="mix-blend-mode:multiply" opacity="0.5">
<path fill-rule="evenodd" clip-rule="evenodd" d="M6.22811 366.075C5.13645 362.156 2.58194 360.817 0.000149984 358.807L0.000148296 379.839C0.636889 379.4 1.23123 378.892 1.7741 378.322C4.62335 375.241 7.50536 370.524 6.22811 366.075Z" fill="#C4B0B8"/>
</g>
<g style="mix-blend-mode:multiply" opacity="0.5">
<path fill-rule="evenodd" clip-rule="evenodd" d="M9.95075 431.354C8.84214 430.928 7.78186 430.365 6.79043 429.677C4.82543 428.255 2.19446 427.131 0.453258 425.513L0.000241371 425.079L0.000240364 437.623C1.35936 437.855 2.72941 438.248 4.10491 438.046C5.74241 437.784 7.42359 436.856 9.10475 436.475C11.3863 436.017 15.3982 433.918 17.9363 434.554C16.2442 433.959 14.7159 432.906 12.9692 432.383C11.9479 432.095 10.9405 431.752 9.95075 431.354Z" fill="#C4B0B8"/>
</g>
<g style="mix-blend-mode:multiply" opacity="0.5">
<path fill-rule="evenodd" clip-rule="evenodd" d="M0.00015784 341.474C2.29812 342.605 3.99018 345.002 5.78051 347.131C9.27384 351.294 13.7006 354.726 17.6906 358.384C21.3258 361.733 23.9622 366.337 27.5756 369.971C33.4542 375.812 40.4955 380.433 47.3184 384.805C54.7745 389.504 62.2087 394.179 69.3427 399.413C74.388 403.075 80.0385 405.632 85.9796 406.943C97.9938 400.024 109.318 391.768 119.772 382.307L119.226 382.242C111.274 381.159 103.49 377.983 95.4826 377.376C90.39 376.99 85.3956 376.377 80.9089 373.451C77.874 371.482 74.5499 369.519 71.7607 367.152C69.2553 365.028 67.4541 362.161 65.0633 359.925C61.8593 356.886 58.6007 355.232 56.0408 351.402C53.6555 347.892 50.9318 344.93 48.874 341.165C47.6186 338.875 41.9528 332.184 45.1623 329.638C46.0793 328.942 50.1021 329.376 51.101 329.852C55.6259 331.886 60.3419 335.931 64.2009 339.042C71.4332 344.841 78.0105 351.396 85.5594 356.79C93.1082 362.185 102.065 366.664 110.569 369.947C116.084 372.172 121.786 373.8 127.594 374.807C131.397 370.988 135.024 367.011 138.478 362.875C135.836 361.483 133.205 359.842 130.438 358.807C127.163 357.564 123.811 356.719 120.46 355.678C110.875 352.704 101.487 350.063 92.4751 345.299C89.0254 343.515 85.5976 341.48 82.2462 339.411C78.7801 337.257 75.8872 334.254 72.4212 332.124C66.226 328.359 60.1836 324.095 54.2177 319.895C46.8544 314.703 40.157 306.762 33.9564 300.029C23.8748 289.055 13.5204 277.35 4.85809 265.026C3.26789 262.773 1.65588 260.539 0.0220304 258.322L0.00015784 341.474Z" fill="#C4B0B8"/>
</g>
<g style="mix-blend-mode:multiply" opacity="0.5">
<path fill-rule="evenodd" clip-rule="evenodd" d="M-5.13202e-05 206.861C3.02386 211.274 6.00413 215.735 9.10446 220.083C22.3027 238.629 35.883 257.157 52.1542 272.651C55.784 276.119 59.8504 278.498 63.775 281.526C68.4473 285.166 72.6338 289.169 77.6828 292.196C81.8093 294.617 85.8703 297.549 90.1442 299.72C95.1767 302.325 100.64 303.646 105.875 305.668C112.425 308.172 118.429 312.431 124.832 315.369C128.685 317.154 132.413 318.938 136.354 320.467C141.016 322.293 145.759 325.606 150.671 326.415C154.454 327.009 158.553 327.699 162.549 327.955C165.06 323.458 167.385 318.89 169.563 314.186C166.239 313.835 163.286 312.847 159.525 311.729C155.764 310.611 152.074 310.432 148.199 309.945C144.804 309.528 141.856 308.101 138.712 306.846C132.997 304.52 127.616 301.313 122.736 297.323C116.44 292.196 109.779 287.621 102.818 283.643C93.954 278.498 84.2601 275.197 75.2593 270.29C67.1537 265.906 58.7096 260.601 51.8922 254.004C48.6172 250.822 45.8881 247.396 42.3948 244.381C38.2082 240.77 35.1133 235.607 32.0676 230.92C29.2566 226.584 26.0088 222.706 22.9795 218.561C19.5735 213.88 16.6588 208.782 13.1873 204.107C8.71145 198.1 4.34477 192.009 -4.96386e-05 185.901L-5.13202e-05 206.861Z" fill="#C4B0B8"/>
</g>
<g style="mix-blend-mode:multiply" opacity="0.5">
<path fill-rule="evenodd" clip-rule="evenodd" d="M0.000136362 95.7468C0.223937 97.1386 0.45317 98.4948 0.666045 99.8033C1.5885 105.359 5.23469 110.081 6.56651 115.524C4.14302 116.582 1.74682 112.55 0.0165385 108.559L0.0165368 130.072C1.55459 132.229 3.23277 134.262 5.03816 136.157C15.9548 148.428 27.5319 161.061 39.2673 172.909C53.2734 187.03 64.6376 203.999 79.0093 217.679C85.3355 223.734 91.4107 230.313 98.1135 235.856C104.347 240.978 111.896 244.433 118.402 249.138C124.65 253.64 131.249 257.535 138.123 260.778C143.45 263.264 148.45 266.322 153.887 268.618C157.953 270.283 162.134 270.61 166.168 272.097C170.122 273.588 174.318 274.161 178.487 273.78C180.212 273.614 182.073 273.632 183.946 273.632C188.126 257.321 190.535 240.532 191.123 223.61C181.997 218.441 174.235 209.929 165.022 204.844C156.763 200.323 149.416 193.81 141.775 188.124C133.789 182.176 126.038 176.151 118.5 169.483C113.504 165.087 108.931 160.146 104.854 154.738C102.895 152.169 101.438 148.951 99.8001 146.049C97.8569 142.605 95.1605 138.988 93.7959 135.229C90.5991 126.284 86.6333 117.689 81.9514 109.558C78.4035 103.265 74.8119 97.0673 71.3295 90.7446C68.4475 85.5104 64.6212 81.3053 61.6573 76.0532C58.4205 70.2599 55.2711 65.1328 53.5299 58.5782C52.2472 53.8555 52.1981 51.1968 53.0605 46.5396C51.1282 44.1604 49.398 46.6229 48.3718 48.2169C46.9308 50.489 46.5923 54.0042 47.0509 56.9425C47.5967 60.2972 49.1032 62.3789 50.2058 65.3589C50.7516 66.8994 50.6206 68.4101 51.2538 69.9209C52.2676 72.0392 53.159 74.2243 53.9229 76.4636C56.2154 83.6785 62.6562 87.4792 66.1387 93.7126C67.7762 96.6271 69.4682 99.4762 71.0511 102.432C71.8893 103.897 72.5567 105.469 73.038 107.113C73.7639 109.558 73.8567 110.046 73.1744 112.246C71.3295 118.236 64.5394 119.663 61.2152 114.287C59.8234 112.014 57.7984 109.136 57.0069 106.554C55.8006 102.617 54.7035 98.1617 52.8422 94.4204C51.3684 91.4881 49.0213 85.7365 46.6088 83.6368C45.6064 82.9776 44.4927 82.5448 43.3338 82.364C40.7356 82.0071 39.371 81.9714 36.8274 80.7462C32.0317 78.3976 27.7669 74.9319 24.3333 70.593C21.2002 66.715 19.923 60.2079 16.4625 56.7105C9.65593 49.8645 2.48911 65.2637 0.0383157 72.9425L0.000136362 95.7468Z" fill="#C4B0B8"/>
</g>
<g style="mix-blend-mode:multiply" opacity="0.5">
<path fill-rule="evenodd" clip-rule="evenodd" d="M190.457 196.518C190.152 192.562 189.726 188.654 189.213 184.723C185.67 181.154 182.663 176.8 179.224 173.422C175.3 169.562 170.442 166.998 166.457 163.102C162.953 159.664 160 155.786 156.43 152.479C147.489 144.152 139.291 134.159 131.9 124.226C126.224 116.678 121.53 109.826 118.145 100.833C115.182 92.9998 112.392 85.6838 110.356 77.5113C108.113 68.5181 104.756 60.5181 104.401 51.1382C104.259 47.272 104.723 43.5962 104.598 39.8371C104.565 39.0679 104.505 38.3184 104.418 37.5888C103.512 36.887 102.584 36.203 101.689 35.5487C97.0163 32.2297 92.2403 29.1368 87.3605 26.2699C85.7885 25.342 84.1874 24.4359 82.5572 23.5517C82.881 25.5898 83.2759 27.6617 83.7417 29.7673C85.1881 36.31 85.9577 43.0847 87.8681 49.4847C89.9586 56.4735 92.9935 63.3909 95.5098 70.2489C101.776 87.2659 109.581 103.212 116.737 119.754C120.853 129.229 125.339 139.043 131.06 147.56C137.342 156.887 144.122 166.712 152.44 174.046C154.552 175.914 156.807 177.972 159.023 179.649C161.375 181.434 164.246 182.082 166.664 183.813C168.76 185.335 170.736 187.292 172.761 188.946C175.627 191.26 176.839 191.599 180.021 192.866C183.525 194.275 186.746 195.923 190.457 196.518Z" fill="#C4B0B8"/>
</g>
</g>
<g style="mix-blend-mode:multiply" opacity="0.65">
<g style="mix-blend-mode:multiply" opacity="0.65">
<path fill-rule="evenodd" clip-rule="evenodd" d="M9.13188 85.4152C8.95721 81.1744 9.28472 77.1833 11.0532 73.2755C11.8883 71.4257 13.3566 69.8852 15.338 70.2005C17.2266 70.5097 19.4154 72.1097 20.7254 73.6027C22.9087 76.1067 25.1739 78.7595 27.2044 81.4242C29.4068 84.2441 31.2434 87.3802 32.6627 90.7446C33.5797 92.9394 34.3548 95.0806 35.108 97.3468C35.9213 99.7973 37.2259 101.879 38.4758 104.086C39.7258 106.292 40.9048 108.66 42.3403 110.771C43.3937 112.318 44.5837 113.745 45.6153 115.304C48.5745 119.539 50.8353 124.303 52.2963 129.382C53.3552 133.219 53.4207 136.597 51.0736 139.803C49.3433 142.182 47.0836 144.086 44.2071 144.341C39.4529 144.77 34.8842 141.635 31.2872 138.59C26.6312 134.646 22.5539 129.365 19.1206 124.172C15.1088 118.069 11.6973 110.765 9.98887 103.467C9.31203 100.582 9.26837 97.7275 8.89721 94.813C8.59154 92.4338 8.27491 90.132 8.58058 87.7469C8.70066 86.8011 8.78259 85.9149 8.83717 84.9513C8.90267 84.3089 9.24104 83.1491 9.13188 85.4152Z" fill="#C4B0B8"/>
</g>
<g style="mix-blend-mode:multiply" opacity="0.65">
<path fill-rule="evenodd" clip-rule="evenodd" d="M11.3533 125.927C11.4898 127.42 11.4188 128.901 12.3085 130.091C13 130.992 13.8524 131.731 14.8139 132.262C15.1266 132.49 15.4837 132.635 15.857 132.687C16.2303 132.739 16.6094 132.695 16.9644 132.559C17.6686 132.202 17.6031 131.994 17.5103 131.078C17.1371 129.158 16.2344 127.409 14.923 126.064C14.541 125.689 13.8314 124.975 13.2855 124.874C12.7397 124.773 11.921 125.154 12.2431 125.802L11.3533 125.927Z" fill="#C4B0B8"/>
</g>
<g style="mix-blend-mode:multiply" opacity="0.65">
<path fill-rule="evenodd" clip-rule="evenodd" d="M43.0499 157.683C43.8108 157.504 44.5978 157.504 45.3587 157.683C45.4584 157.867 45.5715 158.042 45.6971 158.206C46.2615 158.731 46.794 159.295 47.291 159.895C48.6174 161.448 49.3816 163.429 50.4514 165.183C52.3345 168.264 59.7305 171.512 55.5276 175.634C51.8105 179.298 46.9962 174.022 44.3871 171.286C43.099 169.936 41.991 168.538 41.6143 166.593C41.3742 165.362 40.9102 164.035 40.8939 162.762C40.8775 161.353 41.2923 158.825 43.0499 157.683Z" fill="#C4B0B8"/>
</g>
<g style="mix-blend-mode:multiply" opacity="0.65">
<path fill-rule="evenodd" clip-rule="evenodd" d="M149.82 215.122C150.366 217.263 150.677 219.345 151.583 221.337C153.059 224.679 155.066 227.71 157.511 230.289C160.42 233.263 164.902 235.773 169.023 235.208C170.715 234.976 173.258 234.298 173.711 232.192C174.366 229.135 171.703 225.227 170.289 222.89C168.155 219.357 165.469 216.633 162.434 214.069C160.497 212.427 158.614 210.72 156.649 209.109C155.322 207.893 153.736 207.06 152.036 206.688C150.617 206.438 148.936 206.581 147.943 207.925C147.244 208.859 147.353 210.899 147.539 211.987C147.667 212.668 147.94 213.307 148.336 213.851C148.733 214.396 149.241 214.831 149.82 215.122Z" fill="#C4B0B8"/>
</g>
<g style="mix-blend-mode:multiply" opacity="0.65">
<path fill-rule="evenodd" clip-rule="evenodd" d="M124.401 128.646C125.374 129.934 126.42 131.153 127.534 132.298C127.807 131.65 128.385 132.102 128.822 131.62C129.368 130.989 129.15 129.443 129.03 128.693C128.778 127.153 127.981 126.047 127.223 124.696C126.224 122.912 125.356 120.824 123.915 119.415C122.594 118.124 121.186 117.827 121.186 120.116C121.246 123.358 122.889 126.005 124.379 128.646L124.401 128.646Z" fill="#C4B0B8"/>
</g>
<g style="mix-blend-mode:multiply" opacity="0.65">
<path fill-rule="evenodd" clip-rule="evenodd" d="M86.9787 284.237C87.65 283.762 88.2123 283.244 89.0037 283.167C89.7608 283.161 90.5168 283.227 91.2634 283.363C93.8159 283.691 96.3331 284.289 98.7795 285.147C100.267 285.749 101.692 286.518 103.032 287.443C104.456 288.318 106.055 289.079 107.305 290.239C108.91 291.732 110.728 293.593 111.792 295.592C113.102 298.066 112.109 300.279 109.958 301.784C108.321 302.92 106.137 302.379 104.309 302.129C101.945 301.825 99.6584 300.939 97.3822 300.166C92.5189 298.56 87.8411 296.3 83.1087 294.307C81.6677 293.712 77.3829 291.595 78.0434 289.192C78.3163 288.181 79.6809 286.944 80.3359 286.272C81.1983 285.427 82.2081 284.66 83.1033 283.857C84.9427 282.239 88.0594 281.234 86.9787 284.237Z" fill="#C4B0B8"/>
</g>
<g style="mix-blend-mode:multiply" opacity="0.65">
<path fill-rule="evenodd" clip-rule="evenodd" d="M61.3407 385.948C57.5799 385.353 54.627 383.485 51.2264 381.617C46.5268 379.042 41.6689 377.02 36.8001 374.873C34.1747 373.683 31.4564 372.44 29.4423 370.203C28.0642 368.737 26.7699 367.179 25.5668 365.54C23.4654 362.566 22.0353 359.105 20.4524 355.803C17.4722 349.552 14.2791 343.271 11.9374 336.681C10.4964 332.648 7.29789 320.342 14.9668 321.746C16.7189 322.067 17.9416 323.53 19.3335 324.648C21.1402 326.07 23.0233 327.372 24.759 328.907C28.9456 332.601 33.2249 336.253 37.2586 340.143C40.5827 343.343 43.6394 346.798 47.0454 349.891C50.0638 352.627 53.0768 355.393 55.9861 358.272C58.8743 361.191 61.439 364.469 63.6277 368.038C64.7194 369.781 65.9585 371.381 67.0065 373.142C68.0544 374.902 69.3262 377.305 69.7028 379.328C70.5161 383.67 66.9027 386.542 61.3407 385.948Z" fill="#C4B0B8"/>
</g>
<g style="mix-blend-mode:multiply" opacity="0.65">
<path fill-rule="evenodd" clip-rule="evenodd" d="M66.4879 391.009C67.0337 390.688 67.7324 390.051 68.3983 390.153C68.9442 390.236 69.5609 390.86 70.0358 391.146C70.9692 391.741 71.6733 392.092 72.301 393.091C73.218 394.596 72.6885 395.797 71.1547 396.416C70.3032 396.761 69.1897 396.148 68.3382 395.892C66.9955 395.488 65.3853 393.382 65.5163 391.681L66.4879 391.009Z" fill="#C4B0B8"/>
</g>
<g style="mix-blend-mode:multiply" opacity="0.65">
<path fill-rule="evenodd" clip-rule="evenodd" d="M52.9078 148.328C54.4143 150.511 57.1871 153.14 57.2744 156.024C57.3383 157.088 57.2254 158.156 56.9414 159.177C56.2318 161.193 54.6871 161.258 53.3335 159.855C51.1938 157.612 49.4744 150.433 53.1915 148.869L52.9078 148.328Z" fill="#C4B0B8"/>
</g>
<g style="mix-blend-mode:multiply" opacity="0.65">
<path fill-rule="evenodd" clip-rule="evenodd" d="M78.4145 115.471C77.0451 119.326 76.6479 123.511 77.2641 127.59C77.8803 131.669 79.4875 135.494 81.9187 138.668C84.3968 141.796 87.6718 144.211 90.7503 146.579C91.6018 147.233 92.426 148.03 93.4794 148.256C94.0253 148.375 94.5711 148.214 95.1169 148.446C96.4324 146.62 96.2741 142.219 95.5863 140.048C94.7198 137.66 93.4909 135.448 91.9511 133.505C90.9904 132.315 89.6696 131.626 88.8017 130.341C87.032 127.746 85.4965 124.972 84.2167 122.055C83.5617 120.479 83.4197 118.855 82.208 117.624C81.3237 116.732 80.1175 116.482 79.1077 115.84C78.6328 116.435 78.7256 117.505 78.4145 115.471Z" fill="#C4B0B8"/>
</g>
<g style="mix-blend-mode:multiply" opacity="0.65">
<path fill-rule="evenodd" clip-rule="evenodd" d="M96.4267 155.905C99.3905 154.215 99.5543 154.965 101.083 157.998C101.836 159.497 101.628 161.442 99.7944 161.93C98.7028 162.227 97.8895 161.4 97.0653 160.74C95.6734 159.551 95.0129 158.724 95.4278 156.577L96.4267 155.905Z" fill="#C4B0B8"/>
</g>
<g style="mix-blend-mode:multiply" opacity="0.65">
<path fill-rule="evenodd" clip-rule="evenodd" d="M24.3934 319.717C24.5776 318.778 25.0539 317.938 25.7415 317.338C27.521 318.176 28.9674 318.289 30.654 319.717C31.9187 320.802 33.0537 322.054 34.0327 323.446C34.6197 324.458 35.0356 325.576 35.2608 326.747C35.4846 327.937 35.2608 328.026 34.5076 328.187C33.8799 328.318 32.6845 327.83 32.0295 327.747C30.7305 327.586 29.7206 327.747 28.5853 326.908C26.2382 325.171 24.8627 323 23.3999 320.407L24.3934 319.717Z" fill="#C4B0B8"/>
</g>
<g style="mix-blend-mode:multiply" opacity="0.65">
<path fill-rule="evenodd" clip-rule="evenodd" d="M103.779 164.089C102.966 165.35 103.031 166.397 103.55 167.848C104.014 169.145 105.024 170.227 105.842 171.304C107.393 173.296 109.57 174.825 111.432 176.449C113.73 178.459 116.164 180.356 118.342 182.516C120.621 184.906 122.746 187.466 124.701 190.176C127.856 194.298 130.787 198.593 134.046 202.608C135.002 203.787 136.052 204.872 137.184 205.849C138.014 206.581 138.538 207.497 139.302 208.276C140.192 209.18 141.038 210.06 142.244 210.233C142.643 210.334 143.06 210.317 143.451 210.184C143.843 210.051 144.195 209.808 144.471 209.478C145.017 208.793 145.186 207.693 145.765 206.92C146.539 205.741 147.548 204.769 148.717 204.077C149.914 203.532 151.249 203.469 152.484 203.898C154.001 204.297 155.595 204.868 157.145 204.933C158.149 204.975 158.712 204.761 157.756 203.744C156.801 202.727 155.235 201.805 153.963 200.972C151.463 199.33 148.87 197.927 146.42 196.172C145.055 195.197 143.832 194.072 142.506 193.049C141.18 192.026 139.962 191.176 138.772 190.123C136.409 188.029 133.773 186.215 131.284 184.288C127.223 181.136 123.096 178.049 119.112 174.771C117.254 173.207 115.268 171.833 113.178 170.667C112.048 170.072 110.788 169.704 109.674 169.061C108.735 168.514 108.097 167.562 107.332 166.783C106.884 166.396 106.378 166.094 105.837 165.891C104.691 165.326 103.424 164.85 102.562 163.845C102.491 163.881 102.415 163.91 103.779 164.089Z" fill="#C4B0B8"/>
</g>
<g style="mix-blend-mode:multiply" opacity="0.65">
<path fill-rule="evenodd" clip-rule="evenodd" d="M55.5441 145.056C55.495 144.598 54.9983 142.677 55.5441 142.04C55.9644 141.547 56.4393 141.796 56.8377 142.135C57.4815 142.812 58.0663 143.553 58.5844 144.348C59.6215 145.663 60.675 146.894 61.7666 148.149C62.6618 149.184 63.6279 150.123 64.4958 151.176C65.5874 152.473 66.5972 153.93 67.7708 155.155C68.8188 156.262 69.8231 157.261 70.7729 158.474C71.9191 159.944 73.3218 161.056 74.4135 162.59C76.6787 165.767 78.862 169.068 80.9635 172.387C83.1225 175.764 85.7226 178.78 88.6816 181.338C90.0189 182.528 91.3398 183.717 92.7207 184.836C93.9216 185.811 95.2807 186.442 96.5416 187.31C99.3035 189.207 102.409 190.712 105.013 192.853C107.82 195.281 110.443 197.95 112.857 200.836C116.399 204.85 119.843 208.972 123.396 212.981C127.49 217.591 131.726 222.111 135.994 226.525C137.85 228.44 140.083 230.688 142.288 232.092C144.111 233.282 145.945 234.548 147.812 235.613C149.274 236.452 150.732 237.296 152.178 238.171C153.625 239.045 155.142 239.622 156.583 240.455C157.724 241.109 158.766 242.025 160.027 242.311C161.296 242.575 162.552 242.913 163.788 243.322C164.656 243.613 165.535 243.744 166.408 243.982C167.178 244.196 167.653 244.529 168.471 244.482C169.221 244.456 169.967 244.353 170.698 244.172C171.79 243.899 173.002 244.232 174.115 244.089C174.437 244.047 174.787 243.869 175.098 243.845C175.683 243.883 176.263 243.987 176.828 244.154C177.374 244.238 177.952 244.184 178.52 244.256C179.344 244.363 180.098 244.85 180.922 245.035C182.013 245.308 183.018 245.748 184.137 245.98C185.256 246.212 186.167 245.873 187.221 245.469C187.346 245.689 187.696 245.748 187.767 245.873C188.007 246.224 187.887 246.105 187.936 246.468C188.012 247.252 187.968 248.044 187.805 248.812C187.384 251.421 186.59 253.941 185.452 256.282C184.71 257.668 183.7 259.316 182.297 260C181.907 260.21 181.469 260.29 181.037 260.231C180.605 260.171 180.199 259.975 179.868 259.667C178.553 258.679 177.549 257.252 176.2 256.306C174.65 255.218 173.073 254.129 171.512 253.053C170.54 252.374 169.498 251.946 168.559 251.203C167.592 250.41 166.535 249.759 165.415 249.264C163.544 248.333 161.623 247.528 159.662 246.855C156.676 245.974 153.657 244.761 150.77 243.613C148.443 242.779 146.16 241.806 143.931 240.699C142.202 239.697 140.603 238.449 139.177 236.987C138.294 235.993 137.458 234.95 136.671 233.864C135.721 232.728 134.794 231.652 133.942 230.433C132.545 228.44 131.213 226.453 129.946 224.378C128.967 222.806 127.81 221.376 126.502 220.119C125.411 219.108 124.505 218.007 123.227 217.359C122.196 216.841 121.224 216.217 120.209 215.652C118.784 214.855 117.223 214.284 115.842 213.421C114.046 212.303 112.103 211.001 110.105 210.412C109.052 210.097 104.603 208.74 104.778 211.066C104.904 212.666 106.416 214.51 107.507 215.557C108.1 216.004 108.737 216.377 109.407 216.669C110.024 217.044 110.673 217.311 111.295 217.668C112.363 218.371 113.338 219.23 114.194 220.22C115.968 222.034 117.834 223.705 119.587 225.531C121.508 227.53 123.729 229.177 125.591 231.241C129.302 235.345 132.687 239.943 137.272 242.953C139.455 244.386 141.393 246.177 143.532 247.664C145.519 249.044 147.637 250.174 149.651 251.482C152.637 253.427 155.382 255.598 158.532 257.186C159.782 257.817 161.07 257.829 162.418 257.96C163.664 258.063 164.914 258.094 166.162 258.055C167.484 257.951 168.808 258.191 170.027 258.757C170.965 259.177 171.833 259.761 172.598 260.487C172.324 260.601 172.026 260.624 171.741 260.553C170.922 260.452 170.103 260.226 169.279 260.136C167.996 259.994 166.85 259.922 165.726 260.612C164.643 261.249 163.416 261.537 162.189 261.445C159.27 261.301 156.38 260.745 153.592 259.792C152.016 259.355 150.509 258.664 149.122 257.739C147.746 256.728 146.447 255.592 145.093 254.551C142.364 252.452 139.728 250.209 137.086 247.973C134.231 245.552 131.753 242.65 129.111 239.961C127.867 238.7 126.781 237.267 125.525 236.018C123.888 234.406 122.299 232.782 120.689 231.164C118.091 228.565 114.892 226.489 111.803 224.663C110.417 223.848 109.008 223.075 107.644 222.218C105.913 221.13 104.303 219.839 102.546 218.804C99.4994 217.002 96.5672 214.979 93.7688 212.749C91.0396 210.602 88.8836 207.569 86.602 204.892C84.3204 202.216 81.9787 199.491 79.7463 196.708C77.17 193.49 74.4408 190.51 72.0719 187.096C70.1724 184.366 68.1474 181.743 66.3843 178.923C65.3527 177.276 64.201 175.86 63.5788 173.957C63.1683 172.542 62.9352 171.074 62.8855 169.591C62.5253 164.381 61.521 158.706 58.9992 154.192C58.2623 152.877 57.7493 151.432 57.0397 150.094C56.4902 149.084 56.0314 148.018 55.6697 146.912C55.2002 145.526 55.233 144.592 55.5441 145.056Z" fill="#C4B0B8"/>
</g>
<g style="mix-blend-mode:multiply" opacity="0.65">
<path fill-rule="evenodd" clip-rule="evenodd" d="M59.7634 193.989C60.0527 193.15 60.3092 191.86 61.0297 191.229C61.9031 190.438 63.4095 191.11 64.2501 191.669C66.0131 192.859 67.3723 195.054 68.8679 196.582C70.8438 198.605 72.9234 200.508 74.9539 202.453C76.8674 204.22 78.6624 206.134 80.3249 208.181C81.0126 209.055 82.1753 210.31 81.9624 211.577C81.4766 214.212 78.9931 213.07 77.4047 212.398C74.5009 211.167 72.2084 208.538 70.025 206.194C68.464 204.523 66.9957 202.881 65.582 201.055C64.5503 199.729 63.4641 198.634 62.307 197.433C61.8485 196.951 61.581 196.386 61.1498 195.898C60.8824 195.613 59.7961 194.964 59.7634 193.989Z" fill="#C4B0B8"/>
</g>
<g style="mix-blend-mode:multiply" opacity="0.65">
<path fill-rule="evenodd" clip-rule="evenodd" d="M174.53 182.676C172.843 182.468 171.697 181.79 170.163 180.981C167.167 179.435 164.558 177.02 161.648 175.295C158.781 173.62 156.16 171.485 153.876 168.96C152.113 166.95 150.704 164.696 149.143 162.525C148.221 161.246 147.555 159.789 146.627 158.51C145.659 157.093 144.766 155.618 143.952 154.091C143.117 152.621 142.391 151.117 141.676 149.594C140.819 147.738 139.766 146.025 139.062 144.074C138.702 143.093 137.697 140.702 138.712 139.911C139.728 139.12 140.836 140.018 141.693 140.553C143.756 141.895 145.628 143.558 147.249 145.49C149.547 148.166 151.922 150.801 154.269 153.436C156.266 155.667 158.302 157.867 160.382 159.979C161.343 160.966 162.352 161.722 163.39 162.602C164.427 163.482 165.371 164.529 166.512 165.338C168.471 166.718 170.016 168.592 171.828 170.18C172.647 170.893 173.466 171.619 174.252 172.351C175.038 173.082 176.151 173.576 177.084 174.278C178.722 175.467 180.545 176.657 181.931 178.162C183.143 179.488 184.317 180.797 185.534 182.105C186.511 183.164 188.765 184.931 188.405 186.691C187.985 188.773 184.655 188.672 183.198 188.434C181.064 188.089 179.148 186.816 177.314 185.638C176.189 184.984 175.081 184.312 174.53 182.676Z" fill="#C4B0B8"/>
</g>
</g>
<path fill-rule="evenodd" clip-rule="evenodd" d="M38.1595 402.006C39.797 401.78 41.9803 401.786 42.6244 403.892C43.394 406.431 41.7948 409.358 40.1409 410.994C37.7283 413.373 33.5418 414.913 30.3159 414.188C28.7253 413.899 27.1628 413.449 25.649 412.843C24.6829 412.421 23.8095 412.195 23.3074 411.13C22.2757 408.947 24.5683 406.235 25.7528 404.683C27.0573 402.97 29.0277 401.168 31.0964 400.793C32.9705 400.375 34.8924 400.272 36.7949 400.489C37.6683 400.62 38.6999 400.817 38.1595 402.006Z" fill="#FF8142"/>
<path fill-rule="evenodd" clip-rule="evenodd" d="M35.6429 392.062C36.3774 393.194 37.2903 394.175 38.3393 394.959C38.6638 394.73 39.0142 394.548 39.3818 394.418C39.6111 394.34 40.0587 394.418 40.217 394.192C40.6864 393.531 40.0095 392.33 39.6384 391.866C39.0216 391.093 38.2138 390.789 37.4168 390.343C36.9881 390.033 36.4644 389.92 35.9595 390.028C35.9688 390.349 35.8698 390.662 35.6811 390.908L35.6429 392.062Z" fill="#FF8142"/>
<path fill-rule="evenodd" clip-rule="evenodd" d="M109.188 339.231C109.922 340.365 110.835 341.347 111.884 342.134C112.208 341.904 112.559 341.722 112.927 341.593C113.156 341.509 113.604 341.593 113.762 341.361C114.232 340.706 113.555 339.505 113.184 339.041C112.561 338.268 111.759 337.964 110.962 337.518C110.533 337.208 110.01 337.095 109.505 337.203C109.513 337.523 109.414 337.836 109.226 338.083L109.188 339.231Z" fill="#FF8142"/>
<path fill-rule="evenodd" clip-rule="evenodd" d="M10.9441 415.371C11.4408 415.532 12.3851 415.621 12.7562 416.073C13.1274 416.525 13.0892 417.923 13.0837 418.554C13.1069 419.142 12.9694 419.724 12.6886 420.227C12.4078 420.73 11.9963 421.131 11.5063 421.379C10.4975 421.912 9.33681 421.991 8.27498 421.599C6.38432 420.79 4.58128 419.757 2.89854 418.518C2.04159 417.923 0.747947 416.454 0.835281 415.193C0.955364 413.45 2.77846 413.29 3.99021 413.093C5.70958 412.814 7.34161 413.2 9.03369 413.51C10.3437 413.748 11.7628 414.104 12.4069 415.52L10.9441 415.371Z" fill="#FF8142"/>
<path fill-rule="evenodd" clip-rule="evenodd" d="M137.425 274.442C137.804 273.843 138.31 273.351 138.898 273.008C140.339 273.543 141.442 273.99 142.501 275.387C143.756 277.041 144.908 279.503 144.411 281.71C144.209 282.59 143.598 284.333 142.856 284.868C142.113 285.404 140.749 285.023 140.001 284.72C138.538 284.125 137.272 282.013 136.726 280.455C136.444 279.667 136.26 278.84 136.18 277.998C136.12 276.743 136.726 275.822 137.07 274.656L137.425 274.442Z" fill="#FF8142"/>
<path fill-rule="evenodd" clip-rule="evenodd" d="M155.371 285.909C156.118 287.13 157.156 288.107 158.373 288.734C158.673 288.027 159.427 287.545 159.361 286.635C159.145 285.767 158.719 284.978 158.128 284.351C157.585 284.062 156.999 283.882 156.397 283.821C156.204 283.833 156.017 283.904 155.859 284.027C155.701 284.15 155.578 284.319 155.506 284.515C155.433 284.711 155.413 284.926 155.448 285.133C155.483 285.341 155.572 285.534 155.704 285.689L155.371 285.909Z" fill="#FF8142"/>
<path fill-rule="evenodd" clip-rule="evenodd" d="M96.0558 94.1826C96.8017 95.4033 97.8399 96.3783 99.0579 97.002C99.3581 96.3001 100.106 95.8124 100.046 94.9083C99.8263 94.0389 99.3987 93.2486 98.8069 92.6183C98.2665 92.3294 97.6817 92.152 97.082 92.0949C96.8883 92.1048 96.7012 92.175 96.5429 92.2971C96.3846 92.4192 96.2617 92.5882 96.1888 92.7841C96.1158 92.9799 96.0959 93.1944 96.1314 93.4022C96.1668 93.61 96.2561 93.8024 96.3888 93.9566L96.0558 94.1826Z" fill="#FF8142"/>
<path fill-rule="evenodd" clip-rule="evenodd" d="M119.57 344.418C121.208 344.757 122.905 344.882 124.188 346.202C125.574 347.642 125.078 349.117 124.188 350.747C123.211 352.531 120.596 353.964 118.893 354.785C117.19 355.606 114.456 356.344 112.726 355.517C109.418 353.941 110.722 349.997 112.846 347.969C113.435 347.41 114.008 346.779 114.62 346.244C115.444 345.548 116.388 345.405 117.349 345.054C118.309 344.704 119.243 344.192 120.258 344.133C121.16 344.159 122.054 344.329 122.911 344.638L119.57 344.418Z" fill="#FF8142"/>
<path fill-rule="evenodd" clip-rule="evenodd" d="M104.123 105.74C106.099 107.411 107.207 108.244 108.201 110.653C108.932 112.437 109.445 114.37 110.029 116.191C110.613 118.011 112.502 122.031 110.701 123.786C108.517 125.927 104.609 123.382 102.513 122.424C100.417 121.466 98.2175 120.122 96.7219 118.26C95.3574 116.541 94.1511 115.447 94.1292 113.056C94.1292 111.218 94.0965 109.113 95.1827 107.608C96.389 105.93 98.0647 105.472 99.9533 105.669C101.684 105.8 103.054 106.394 104.123 105.74Z" fill="#FF8142"/>
<path fill-rule="evenodd" clip-rule="evenodd" d="M114.112 122.781C113.146 123.53 112.671 123.578 112.884 124.69C113.052 125.22 113.345 125.692 113.735 126.058C114.11 126.262 114.526 126.359 114.945 126.338C115.363 126.317 115.77 126.18 116.126 125.939C116.759 125.517 117.332 124.827 116.672 124.036C116.317 123.595 114.718 122.792 114.303 123.143L114.112 122.781Z" fill="#FF8142"/>
<path fill-rule="evenodd" clip-rule="evenodd" d="M138.167 285.76C137.201 286.515 136.726 286.563 136.939 287.675C137.107 288.203 137.401 288.673 137.79 289.037C138.164 289.244 138.58 289.343 138.999 289.323C139.418 289.303 139.825 289.166 140.181 288.924C140.814 288.496 141.387 287.812 140.727 287.021C140.372 286.581 138.773 285.778 138.358 286.123L138.167 285.76Z" fill="#FF8142"/>
<path fill-rule="evenodd" clip-rule="evenodd" d="M160.404 128.997C161.572 130.061 163.067 131.073 163.804 132.53C164.2 133.381 164.545 134.259 164.836 135.159C165.382 136.699 165.786 138.632 165.289 140.28C164.547 142.736 162.925 142.409 161.572 140.726C160.136 138.942 158.422 137.02 158.035 134.582C157.833 133.321 157.418 129.478 159.814 130.418L160.404 128.997Z" fill="#FF8142"/>
<path fill-rule="evenodd" clip-rule="evenodd" d="M0.000269049 203.798C1.33936 204.897 3.02107 205.38 4.68349 205.142C8.16589 204.725 5.06013 201.299 4.02305 199.914C2.8768 198.385 1.70872 195.798 0.000269772 194.78L0.000269049 203.798Z" fill="#FF8142"/>
<path fill-rule="evenodd" clip-rule="evenodd" d="M70.6365 377.227C71.0459 378.096 72.4104 381.766 73.5239 383.05C74.0697 383.645 74.7357 384.163 75.3088 384.722C76.5628 386.032 78.1188 386.949 79.8119 387.374C80.535 387.504 81.2769 387.416 81.9571 387.119C82.683 386.679 82.9123 385.424 82.9177 384.519C82.9177 383.175 82.099 382.087 81.4931 380.998C80.5328 379.106 79.1584 377.503 77.4921 376.329C76.466 375.657 71.9137 373.885 71.6353 376.555L70.6365 377.227Z" fill="#FF8142"/>
<path fill-rule="evenodd" clip-rule="evenodd" d="M110.433 303.039C111.574 301.106 111.65 300.957 113.675 300.922C115.891 300.88 117.709 302.01 119.429 303.432C120.657 304.449 122.338 307.268 120.198 308.434C118.506 309.356 115.116 308.119 113.397 307.536C111.345 306.84 110.308 305.264 109.232 303.342L110.433 303.039Z" fill="#FF8142"/>
<path fill-rule="evenodd" clip-rule="evenodd" d="M12.118 190.676C14.7543 191.045 16.108 191.342 17.8001 193.614C18.2824 194.335 18.6143 195.162 18.7727 196.038C18.9311 196.913 18.9121 197.815 18.7171 198.682C18.0403 201.341 15.7478 200.698 14.0121 199.55C12.5219 198.575 11.201 197.308 11.201 195.315C11.166 194.925 11.2067 194.531 11.3205 194.159C11.4343 193.787 11.6186 193.446 11.8614 193.156C12.6747 192.377 13.69 192.996 14.345 192.187L12.118 190.676Z" fill="#FFCE42"/>
<path fill-rule="evenodd" clip-rule="evenodd" d="M0.00030303 280.591C3.39538 278.711 3.89758 273.941 1.46863 270.783C1.01475 270.219 0.524002 269.693 0.000303943 269.206L0.00030303 280.591Z" fill="#FFCE42"/>
<path fill-rule="evenodd" clip-rule="evenodd" d="M74.8062 126.147C73.7416 126.009 72.6633 126.216 71.7058 126.741C71.7823 127.883 71.0618 128.948 70.9854 130.15C70.8817 131.803 71.6894 133.124 72.5682 134.408C73.447 135.693 75.4666 137.222 76.9349 136.02C78.3104 134.896 78.5724 132.303 78.2558 130.721C77.9393 129.138 77.2351 127.99 76.4164 126.557L74.8062 126.147Z" fill="#FFCE42"/>
<path fill-rule="evenodd" clip-rule="evenodd" d="M145.164 162.983C145.071 164.511 144.509 167.741 146.567 168.264C147.73 168.562 148.33 167.598 148.821 166.718C149.081 166.34 149.255 165.9 149.328 165.435C149.401 164.969 149.371 164.492 149.242 164.041C148.827 162.697 147.768 162.804 147.129 161.817L146.665 161.977L145.164 162.983Z" fill="#FFCE42"/>
<path fill-rule="evenodd" clip-rule="evenodd" d="M33.1376 125.267C35.8667 125.589 38.9398 126.415 36.7019 129.722C35.8285 131.019 35.6812 130.87 34.3439 130.454C33.1212 130.073 32.5863 129.794 32.1987 128.271L32.559 127.902L33.1376 125.267Z" fill="#FFCE42"/>
<path style="mix-blend-mode:screen" fill-rule="evenodd" clip-rule="evenodd" d="M183.17 320.253C202.607 320.633 218.95 285.428 219.67 241.568C220.391 197.708 205.227 161.865 185.79 161.508C166.353 161.152 150.011 196.357 149.291 240.194C148.57 284.03 163.739 319.872 183.17 320.253Z" fill="url(#paint1_radial)"/>
<g style="mix-blend-mode:soft-light">
<g style="mix-blend-mode:soft-light">
<path fill-rule="evenodd" clip-rule="evenodd" d="M84.2771 290.441C84.3098 290.132 84.3262 288.294 84.752 287.824C85.0914 287.541 85.4573 287.298 85.8436 287.098C86.5509 286.654 87.3421 286.391 88.1567 286.332C88.9713 286.272 89.7877 286.416 90.5432 286.753C91.8964 287.392 93.1562 288.243 94.2822 289.281C94.9535 289.834 95.5103 290.435 95.5267 291.422C95.5922 294.949 90.8216 293.772 88.9767 293.296C87.885 293.028 85.527 293.254 85.0303 291.803L84.2771 290.441Z" fill="#FFFE90"/>
</g>
<g style="mix-blend-mode:soft-light">
<path fill-rule="evenodd" clip-rule="evenodd" d="M63.1533 274.977C59.911 273.603 57.1492 271.295 54.1744 269.344C51.1996 267.393 48.2848 265.775 45.6375 263.396C42.93 261.061 40.4415 258.439 38.2088 255.568C34.9344 251.126 32.2058 246.237 30.0923 241.026C29.2244 238.914 28.5694 236.708 27.6579 234.614C27.2267 233.627 27.0574 232.592 26.6917 231.586C27.1775 230.89 28.1818 231.646 28.7058 231.937C29.7702 232.532 30.7254 233.769 31.6697 234.578C32.7614 235.518 33.7985 236.529 34.8683 237.505C37.3956 239.709 39.8186 242.051 42.1279 244.523C44.797 247.497 47.1987 250.846 49.7695 253.963C52.1548 256.877 54.9385 259.351 57.3729 262.218C59.0104 264.175 60.8445 265.864 62.1108 268.166C62.6075 269.076 63.3989 270.04 63.5245 271.14C63.5518 271.646 63.3116 272.829 63.1533 274.977Z" fill="#FFFE90"/>
</g>
<g style="mix-blend-mode:soft-light">
<path fill-rule="evenodd" clip-rule="evenodd" d="M23.4602 233.329C23.1054 232.062 22.4831 230.438 22.4176 229.047C22.382 228.174 22.2218 227.313 21.9428 226.495C21.2663 224.471 20.2398 222.607 18.9189 221.005C18.5314 220.517 13.4606 213.273 12.9475 217.115C12.6527 219.316 13.5916 221.951 14.585 223.783C15.7107 225.952 17.0309 227.994 18.5259 229.879C19.1671 230.747 19.9274 231.501 20.7802 232.116C21.0585 232.3 21.195 232.52 21.528 232.395C21.861 232.27 22.052 232.068 23.4602 233.329Z" fill="#FFFE90"/>
</g>
<g style="mix-blend-mode:soft-light">
<path fill-rule="evenodd" clip-rule="evenodd" d="M24.383 225.21C24.383 224.484 24.3393 223.758 24.2792 223.039C24.5085 223.437 24.2792 223.687 24.3447 224.085C24.4148 224.675 24.5638 225.25 24.7869 225.792C25.0161 226.352 26.0641 227.547 26.7792 227.012C28.1274 226.013 25.5347 223.384 24.8633 223.009L24.383 225.21Z" fill="#FFFE90"/>
</g>
<g style="mix-blend-mode:soft-light">
<path fill-rule="evenodd" clip-rule="evenodd" d="M16.9269 90.6861C15.9717 91.2809 15.9935 91.1143 15.677 91.9173C15.3074 93.0295 15.0833 94.1928 15.0111 95.373C14.7927 97.7522 14.7 100.982 16.2665 102.957C17.833 104.931 20.9006 103.956 21.5392 101.428C21.8851 99.7204 21.9791 97.9635 21.8176 96.2236C21.8303 94.6546 21.6091 93.0937 21.1626 91.602C20.9783 91.0537 20.6742 90.5624 20.2767 90.1707C19.8792 89.779 19.4002 89.4986 18.881 89.3537C18.5616 89.2816 18.2307 89.2984 17.9187 89.4023C17.6068 89.5063 17.3239 89.6941 17.0961 89.9485C16.6649 90.4957 16.7304 91.376 16.9269 90.6861Z" fill="#FFFE90"/>
</g>
<g style="mix-blend-mode:soft-light">
<path fill-rule="evenodd" clip-rule="evenodd" d="M48.5739 324.131C45.0096 323.078 42.5698 320.407 40.1354 317.451C39.4476 316.618 35.4357 311.735 37.9193 311.033C39.3657 310.629 41.1943 312.157 42.3187 312.907C44.1036 314.096 45.7793 315.381 47.4768 316.707C50.8337 319.336 54.2124 321.906 57.662 324.38C59.0103 325.35 60.5003 326.165 61.723 327.295C62.2688 327.794 62.8147 328.229 62.5527 329.049C62.0069 330.632 59.9491 330.138 58.7319 329.977C56.5132 329.639 54.3944 328.754 52.5367 327.39C51.4159 326.473 50.2295 325.656 48.9888 324.945C48.1045 324.493 47.5259 323.863 48.5739 324.131Z" fill="#FFFE90"/>
</g>
<g style="mix-blend-mode:soft-light">
<path fill-rule="evenodd" clip-rule="evenodd" d="M67.4709 333.219L67.5473 333.468C66.6958 334.063 67.2198 336.347 67.5964 337.114C67.9608 337.92 68.3998 338.684 68.9064 339.392C69.545 340.231 70.5439 340.38 71.5155 340.416C73.2458 340.475 75.5929 339.446 73.9227 337.442C72.3943 335.621 70.4894 333.962 68.1805 333.873L67.4709 333.219Z" fill="#FFFE90"/>
</g>
<g style="mix-blend-mode:soft-light">
<path fill-rule="evenodd" clip-rule="evenodd" d="M79.5117 340.523C81.6478 340.809 83.6849 341.67 85.4395 343.028C86.4493 343.836 87.732 345.758 87.4973 347.191C87.0934 349.677 84.0312 350.534 82.0389 350.236C78.955 349.773 76.4059 346.406 75.7127 343.283C75.549 342.522 75.287 341.529 75.7127 340.827C76.1385 340.125 77.3993 339.804 78.1144 339.947L79.5117 340.523Z" fill="#FFFE90"/>
</g>
<g style="mix-blend-mode:soft-light">
<path fill-rule="evenodd" clip-rule="evenodd" d="M91.6458 352.264C91.2528 352.175 88.4799 351.39 88.9166 352.948C89.2277 354.066 90.5541 354.221 91.3564 354.53C91.9023 354.733 92.7702 355.399 92.9939 354.471C93.1577 353.828 92.3499 352.901 92.0497 352.365L91.6458 352.264Z" fill="#FFFE90"/>
</g>
<g style="mix-blend-mode:soft-light">
<path fill-rule="evenodd" clip-rule="evenodd" d="M108.414 212.19C108.73 211.643 108.659 211.649 109.052 211.512C109.417 211.394 109.796 211.34 110.177 211.352C111.248 211.461 112.268 211.901 113.119 212.619C113.987 213.243 114.822 213.975 115.651 214.653C116.481 215.331 117.496 215.842 118.381 216.479C119.562 217.334 120.674 218.297 121.705 219.358C122.796 220.446 123.817 221.433 124.434 222.926C124.636 223.432 124.98 224.443 124.576 224.949C124.106 225.543 123.031 225.43 122.458 225.133C122.091 224.907 121.739 224.653 121.405 224.372C120.93 224.021 120.422 223.723 119.964 223.349C118.992 222.631 118.061 221.85 117.174 221.011C115.853 219.649 114.669 217.93 113.075 216.925C112.104 216.33 111.083 216.051 110.253 215.212C109.522 214.486 108.479 213.297 108.414 212.19Z" fill="#FFFE90"/>
</g>
<g style="mix-blend-mode:soft-light">
<path fill-rule="evenodd" clip-rule="evenodd" d="M124.958 219.851C124.565 219.905 124.374 219.809 124.308 220.154C124.243 220.499 124.527 220.886 124.658 221.154C124.875 221.716 125.132 222.259 125.427 222.777C125.642 223.071 125.888 223.336 126.159 223.568C126.557 223.952 126.99 224.288 127.452 224.574C127.517 224.617 127.59 224.645 127.665 224.655C127.741 224.666 127.818 224.659 127.891 224.636C127.964 224.612 128.031 224.572 128.089 224.519C128.147 224.465 128.194 224.399 128.227 224.324C128.653 223.58 127.709 222.242 127.278 221.76C126.893 221.291 126.473 220.857 126.022 220.464C125.749 220.25 125.313 219.714 124.98 219.649L124.958 219.851Z" fill="#FFFE90"/>
</g>
<g style="mix-blend-mode:soft-light">
<path fill-rule="evenodd" clip-rule="evenodd" d="M131.421 234.649C131.623 234.423 131.824 234.054 132.125 234.054C132.461 234.074 132.794 234.144 133.113 234.263C134.282 234.49 135.405 234.945 136.426 235.607C136.875 235.854 137.308 236.132 137.725 236.44C138.118 236.761 138.44 237.177 138.817 237.522C139.193 237.867 139.614 238.176 139.985 238.539C140.437 239.035 140.92 239.496 141.431 239.919C143.557 241.375 145.521 243.096 147.282 245.046C147.916 245.796 148.849 246.831 149.051 247.877C149.171 248.472 149.275 249.103 148.631 249.305C147.796 249.561 146.993 249.21 146.229 248.859C145.211 248.309 144.241 247.66 143.331 246.92C142.097 246.045 140.896 245.135 139.712 244.166C138.527 243.196 137.528 242.328 136.437 241.43C134.726 240.093 133.149 238.564 131.732 236.868C131.017 235.94 130.569 235.119 131.421 234.649Z" fill="#FFFE90"/>
</g>
<g style="mix-blend-mode:soft-light">
<path fill-rule="evenodd" clip-rule="evenodd" d="M130.525 246.135C130.558 247.455 130.869 248.704 132.163 249.109C132.66 249.27 133.14 249.347 133.151 248.663C133.151 247.473 131.917 245.487 130.727 245.588L130.525 246.135Z" fill="#FFFE90"/>
</g>
<g style="mix-blend-mode:soft-light">
<path fill-rule="evenodd" clip-rule="evenodd" d="M117.038 298.483C116.716 297.888 115.575 296.347 115.832 295.372C115.906 295.092 116.076 294.854 116.306 294.707C116.537 294.56 116.81 294.515 117.071 294.581C118.266 294.855 119.254 295.973 120.182 296.74C121.607 297.93 122.911 299.274 124.374 300.362C126.011 301.552 127.572 302.866 129.286 303.985C130.727 304.96 132.212 305.855 133.735 306.667C134.434 307.03 135.099 307.458 135.76 307.892C136.396 308.257 136.989 308.706 137.523 309.231C138.238 310.016 139.111 311.223 139.002 312.407C138.806 314.548 135.269 314.162 134.019 313.817C132.451 313.423 130.951 312.759 129.576 311.848C128.173 310.798 126.846 309.633 125.607 308.362C124.554 307.333 123.479 306.376 122.387 305.388C121.478 304.628 120.621 303.797 119.822 302.902C118.965 301.891 118.184 300.85 117.365 299.779C116.547 298.709 116.334 297.876 117.038 298.483Z" fill="#FFFE90"/>
</g>
<g style="mix-blend-mode:soft-light">
<path fill-rule="evenodd" clip-rule="evenodd" d="M122.769 310.765C123.189 311.211 123.626 311.633 124.074 312.037C124.232 312.002 124.336 312.109 124.538 312.168C124.817 312.233 125.109 312.204 125.373 312.085C125.793 311.948 126.011 311.752 125.88 311.229C125.673 310.378 124.871 309.95 124.183 309.605C123.817 309.42 122.611 308.939 122.545 309.783L122.769 310.765Z" fill="#FFFE90"/>
</g>
</g>
<defs>
<radialGradient id="paint0_radial" cx="0" cy="0" r="1" gradientUnits="userSpaceOnUse" gradientTransform="translate(-82.0953 207.968) rotate(60.6899) scale(289.447 277.553)">
<stop stop-color="#FF5731"/>
<stop offset="0.7" stop-color="#BA005E"/>
<stop offset="0.95" stop-color="#5E1377"/>
<stop offset="1" stop-color="#8160FF"/>
</radialGradient>
<radialGradient id="paint1_radial" cx="0" cy="0" r="1" gradientUnits="userSpaceOnUse" gradientTransform="translate(-359484 137515) rotate(91.0515) scale(10244.3 9334.85)">
<stop stop-color="#2C6AFF"/>
<stop offset="0.09" stop-color="#2559D6"/>
<stop offset="0.23" stop-color="#1B429E"/>
<stop offset="0.36" stop-color="#132E6E"/>
<stop offset="0.5" stop-color="#0C1D46"/>
<stop offset="0.63" stop-color="#071027"/>
<stop offset="0.76" stop-color="#030712"/>
<stop offset="0.89" stop-color="#010204"/>
<stop offset="1"/>
</radialGradient>
</defs>
</svg>
