<svg width="279" height="374" viewBox="0 0 279 374" fill="none" xmlns="http://www.w3.org/2000/svg">
<path fill-rule="evenodd" clip-rule="evenodd" d="M205.329 286.171C205.163 286.171 205.002 286.118 204.864 286.018C204.727 285.918 204.62 285.775 204.557 285.609C204.493 285.443 204.477 285.26 204.509 285.083C204.541 284.906 204.621 284.744 204.738 284.617C204.855 284.489 205.004 284.403 205.166 284.368C205.328 284.332 205.496 284.351 205.648 284.419C205.801 284.488 205.932 284.605 206.023 284.755C206.115 284.904 206.164 285.081 206.164 285.261C206.163 285.502 206.074 285.732 205.918 285.903C205.762 286.073 205.55 286.17 205.329 286.171Z" fill="#B5EAFF"/>
<path fill-rule="evenodd" clip-rule="evenodd" d="M116.62 290.853C116.455 290.854 116.292 290.801 116.154 290.702C116.016 290.603 115.908 290.461 115.844 290.295C115.78 290.128 115.763 289.945 115.795 289.768C115.826 289.591 115.906 289.428 116.022 289.3C116.139 289.173 116.288 289.085 116.45 289.05C116.612 289.014 116.78 289.032 116.933 289.1C117.086 289.169 117.217 289.286 117.309 289.436C117.401 289.586 117.45 289.762 117.45 289.942C117.451 290.062 117.43 290.18 117.389 290.29C117.347 290.401 117.286 290.501 117.209 290.586C117.132 290.67 117.04 290.738 116.939 290.783C116.838 290.829 116.73 290.853 116.62 290.853Z" fill="#B5EAFF"/>
<path fill-rule="evenodd" clip-rule="evenodd" d="M117.254 2.2607C117.088 2.26181 116.926 2.20936 116.788 2.10999C116.65 2.01062 116.542 1.86881 116.478 1.70254C116.414 1.53627 116.397 1.35302 116.429 1.17603C116.46 0.999038 116.539 0.836274 116.656 0.708374C116.773 0.580474 116.921 0.493199 117.084 0.457608C117.246 0.422018 117.414 0.439719 117.567 0.508465C117.72 0.577211 117.851 0.693904 117.943 0.843756C118.035 0.993608 118.084 1.16987 118.084 1.35019C118.084 1.5907 117.997 1.82145 117.841 1.99204C117.686 2.16263 117.475 2.25922 117.254 2.2607Z" fill="#B5EAFF"/>
<path fill-rule="evenodd" clip-rule="evenodd" d="M125.62 170.817C125.454 170.818 125.292 170.766 125.154 170.666C125.016 170.566 124.908 170.424 124.844 170.258C124.78 170.091 124.763 169.907 124.795 169.73C124.827 169.553 124.907 169.39 125.024 169.263C125.141 169.135 125.291 169.048 125.453 169.013C125.616 168.978 125.784 168.997 125.937 169.066C126.09 169.136 126.22 169.254 126.312 169.404C126.403 169.555 126.451 169.732 126.45 169.912C126.449 170.152 126.361 170.381 126.206 170.55C126.05 170.72 125.84 170.816 125.62 170.817Z" fill="#B5EAFF"/>
<path fill-rule="evenodd" clip-rule="evenodd" d="M253.858 345.27C253.693 345.27 253.531 345.217 253.394 345.117C253.256 345.017 253.149 344.875 253.086 344.708C253.023 344.542 253.006 344.359 253.039 344.182C253.071 344.005 253.15 343.843 253.267 343.716C253.384 343.589 253.533 343.502 253.695 343.467C253.857 343.432 254.025 343.45 254.178 343.519C254.331 343.587 254.461 343.704 254.553 343.854C254.645 344.004 254.694 344.18 254.694 344.36C254.694 344.601 254.606 344.833 254.449 345.004C254.292 345.174 254.08 345.27 253.858 345.27Z" fill="#B5EAFF"/>
<path fill-rule="evenodd" clip-rule="evenodd" d="M251.295 131.272C251.129 131.272 250.968 131.219 250.83 131.119C250.693 131.019 250.586 130.876 250.523 130.71C250.459 130.544 250.443 130.361 250.475 130.184C250.507 130.007 250.587 129.845 250.704 129.718C250.821 129.591 250.97 129.504 251.132 129.469C251.294 129.434 251.462 129.452 251.614 129.52C251.767 129.589 251.897 129.706 251.989 129.856C252.081 130.006 252.13 130.182 252.13 130.362C252.129 130.603 252.04 130.833 251.884 131.004C251.727 131.174 251.516 131.271 251.295 131.272Z" fill="#B5EAFF"/>
<path fill-rule="evenodd" clip-rule="evenodd" d="M243.073 275.942C242.907 275.943 242.745 275.89 242.607 275.791C242.469 275.691 242.361 275.549 242.297 275.382C242.233 275.216 242.216 275.032 242.248 274.855C242.28 274.678 242.36 274.515 242.477 274.388C242.594 274.26 242.744 274.173 242.906 274.138C243.069 274.103 243.237 274.122 243.39 274.191C243.543 274.261 243.673 274.378 243.765 274.529C243.856 274.68 243.905 274.856 243.904 275.037C243.904 275.156 243.882 275.273 243.84 275.383C243.799 275.493 243.737 275.593 243.66 275.677C243.583 275.761 243.492 275.828 243.391 275.873C243.29 275.918 243.182 275.942 243.073 275.942Z" fill="#B5EAFF"/>
<path fill-rule="evenodd" clip-rule="evenodd" d="M146.623 301.138C146.457 301.138 146.295 301.085 146.158 300.984C146.02 300.884 145.913 300.741 145.85 300.575C145.787 300.408 145.771 300.225 145.804 300.048C145.836 299.871 145.916 299.709 146.034 299.582C146.151 299.455 146.3 299.368 146.463 299.334C146.625 299.299 146.793 299.318 146.946 299.388C147.099 299.458 147.229 299.575 147.32 299.726C147.411 299.876 147.459 300.053 147.458 300.233C147.457 300.474 147.368 300.704 147.212 300.873C147.055 301.043 146.843 301.138 146.623 301.138Z" fill="#B5EAFF"/>
<path fill-rule="evenodd" clip-rule="evenodd" d="M244.399 259.609C244.233 259.609 244.072 259.556 243.934 259.456C243.797 259.356 243.69 259.213 243.627 259.047C243.563 258.881 243.547 258.698 243.579 258.521C243.611 258.344 243.691 258.182 243.808 258.055C243.925 257.927 244.073 257.841 244.235 257.806C244.398 257.77 244.566 257.788 244.718 257.857C244.871 257.926 245.001 258.043 245.093 258.193C245.185 258.342 245.234 258.519 245.234 258.699C245.233 258.94 245.144 259.17 244.988 259.341C244.831 259.511 244.62 259.608 244.399 259.609Z" fill="#B5EAFF"/>
<path fill-rule="evenodd" clip-rule="evenodd" d="M246.276 42.6098C246.111 42.6098 245.949 42.5564 245.812 42.4564C245.674 42.3563 245.567 42.2141 245.504 42.0478C245.441 41.8814 245.424 41.6983 245.456 41.5217C245.489 41.3451 245.568 41.1828 245.685 41.0555C245.802 40.9282 245.951 40.8414 246.113 40.8063C246.275 40.7712 246.443 40.7892 246.596 40.8581C246.748 40.927 246.879 41.0437 246.971 41.1935C247.063 41.3432 247.112 41.5193 247.112 41.6993C247.112 41.9408 247.024 42.1724 246.867 42.3432C246.71 42.5139 246.498 42.6098 246.276 42.6098Z" fill="#B5EAFF"/>
<path fill-rule="evenodd" clip-rule="evenodd" d="M192.011 42.6098C191.846 42.6109 191.684 42.5585 191.545 42.4591C191.407 42.3597 191.3 42.2179 191.235 42.0517C191.171 41.8854 191.154 41.7021 191.186 41.5251C191.218 41.3482 191.297 41.1854 191.413 41.0575C191.53 40.9296 191.679 40.8423 191.841 40.8067C192.003 40.7711 192.172 40.7888 192.325 40.8576C192.478 40.9263 192.608 41.043 192.7 41.1929C192.792 41.3427 192.842 41.519 192.842 41.6993C192.842 41.9398 192.754 42.1706 192.599 42.3412C192.443 42.5118 192.232 42.6083 192.011 42.6098Z" fill="#B5EAFF"/>
<path style="mix-blend-mode:screen" fill-rule="evenodd" clip-rule="evenodd" d="M278.585 28.255C206.974 15.0469 131.748 31.3406 109.977 104.243C71.8348 231.962 144.869 350.469 243.831 340.689C255.532 339.548 267.145 337.516 278.585 334.608V28.255Z" fill="url(#paint0_radial)"/>
<path opacity="0.61" fill-rule="evenodd" clip-rule="evenodd" d="M278.585 28.255C206.974 15.0469 131.748 31.3406 109.977 104.243C71.8348 231.962 144.869 350.469 243.831 340.689C255.532 339.548 267.145 337.516 278.585 334.608V28.255Z" fill="#5BAEFF"/>
<path fill-rule="evenodd" clip-rule="evenodd" d="M278.584 48.1344C253.096 44.3036 227.135 48.6452 203.874 60.6287H203.848C192.682 66.3454 182.318 73.7617 173.066 82.6552C154.399 100.356 140.944 123.67 134.388 149.671C127.832 175.673 128.467 203.205 136.214 228.815C137.844 234.205 139.784 239.478 142.022 244.602C148.178 258.788 156.485 271.741 166.593 282.917C169.136 285.727 171.787 288.425 174.552 290.999C189.056 304.539 206.107 314.452 224.505 320.04C242.079 325.443 260.488 326.836 278.579 324.132L278.584 48.1344Z" fill="url(#paint1_radial)"/>
<g opacity="0.61">
<path opacity="0.61" d="M278.584 333.242C267.109 336.176 255.458 338.221 243.718 339.363C229.12 340.85 214.396 339.411 200.274 335.12C167.444 325.07 139.448 299.773 121.442 263.88C98.4075 217.967 94.663 159.902 111.168 104.648C132.382 33.6056 206.112 16.1542 278.584 29.5983V28.255C206.969 15.0526 131.747 31.3406 110.002 104.243C77.7867 212.156 124.888 313.425 199.954 336.401C214.225 340.739 229.105 342.192 243.857 340.689C255.557 339.548 267.17 337.516 278.61 334.608L278.584 333.242Z" fill="#90CCFF"/>
</g>
<path d="M278.584 367.522C262.594 369.713 246.376 368.888 230.643 365.082C208.774 359.908 188.001 350.271 169.42 336.682C132.32 309.828 104.85 268.27 94.4928 222.587C89.335 199.667 86.1115 175.786 88.0147 152.697C90.2377 129.653 99.8775 107.998 115.294 91.0804C130.711 74.1629 149.96 61.191 169.652 49.6466C189.499 38.2202 210.362 28.8847 231.303 19.8976C246.518 13.6617 262.411 9.60362 278.584 7.82493V5.73413C262.283 8.07422 246.291 12.4941 230.937 18.9028C209.924 27.7887 188.973 36.8376 168.466 47.1567C148.103 57.667 128.024 69.6385 110.884 86.3143C93.7759 102.861 81.7479 126.635 79.2773 151.646C78.0943 163.998 78.2554 176.459 79.7571 188.769C80.4585 194.879 81.1342 200.999 82.4598 206.946C83.6357 212.931 84.6105 218.94 86.4467 224.847C92.6618 248.644 103.503 270.833 117.466 290.212C131.428 309.592 148.624 326.183 167.61 339.549C186.595 352.914 207.618 363.199 229.869 368.741C245.719 372.586 262.245 374.255 278.584 372.676V367.522Z" fill="#4ACCFF"/>
<path d="M278.584 362.519C264.008 364.172 249.376 364.897 234.79 363.447C212.193 361.474 189.958 354.668 170.178 342.893C150.398 331.118 132.98 315.178 117.904 297.17C102.431 279.545 89.7733 258.833 83.3931 235.66C77.0129 212.487 77.9826 187.415 85.2809 164.635C92.5792 141.855 105.267 121.15 120.725 103.513C136.385 85.7964 154.612 71.0066 174.676 59.7352C184.728 54.0506 195.252 49.4174 206.107 45.8977L222.431 40.4402C227.78 38.3157 233.227 36.4554 238.421 33.9543C248.963 29.2949 259.145 23.5621 268.398 16.396C271.853 13.7881 275.185 10.9442 278.564 8.1958V7.13916C275.025 10.0449 271.554 13.035 267.939 15.7103C258.701 22.7808 248.561 28.4125 238.023 32.9875C232.83 35.4437 227.388 37.2647 222.034 39.3499L205.772 44.7174C194.82 48.1962 184.195 52.7993 174.041 58.465C153.731 69.6546 135.246 84.4063 119.327 102.13C103.581 119.79 90.4747 140.585 83.1197 163.882C75.6564 187.061 74.6301 212.746 81.1237 236.385C87.6174 260.025 100.496 281.158 116.088 298.935C131.33 317.056 148.763 333.529 169.054 345.118C189.251 356.815 211.863 363.424 234.666 365.133C249.35 366.392 264.019 365.515 278.584 363.716V362.519Z" fill="url(#paint2_radial)"/>
<path opacity="0.61" fill-rule="evenodd" clip-rule="evenodd" d="M278.584 29.9689C207.556 17.4128 133.48 34.0549 111.905 106.311C73.7687 234.024 146.793 352.486 245.76 342.752C256.803 341.667 267.768 339.79 278.584 337.131V29.9689Z" fill="#5BAEFF"/>
<path fill-rule="evenodd" clip-rule="evenodd" d="M278.584 261.239C276.005 261.424 273.359 261.565 270.775 261.801C265.231 262.363 260.001 265.224 255.787 269.029C250.639 273.801 245.999 279.187 241.954 285.087C239.669 288.352 235.986 293.849 236.053 298.165C236.131 302.752 239.096 306.034 242.97 307.433C246.843 308.833 251.016 310.244 255.008 310.867C257.2 311.199 259.428 310.946 261.605 311.306C263.384 311.604 264.999 312.464 266.763 312.863C268.527 313.262 270.373 313.155 272.168 313.554C274.287 314.002 276.461 314.048 278.595 313.689L278.584 261.239Z" fill="#5BAEFF"/>
<path fill-rule="evenodd" clip-rule="evenodd" d="M212.219 122.712C218.367 120.149 224.201 116.692 230.204 113.36C234.903 110.746 239.803 108.616 244.497 106.053C248.623 103.805 252.991 99.8705 255.106 95.4135C257.159 91.3423 258.317 86.8076 258.49 82.1661C258.649 78.3386 258.851 75.371 256.808 72.0494C254.766 68.7277 251.852 68.0364 248.329 67.0697C243.733 65.8107 239.782 66.3615 235.28 67.4743C228.007 69.2616 221.555 72.6901 214.489 75.1462C208.114 77.3944 204.013 81.8907 205.37 86.0555C201.434 88.1294 198.824 89.7144 195.905 93.2946C191.779 98.2885 188.651 104.162 186.719 110.544C185.517 114.68 184.336 119.07 186.306 123.252C189.215 129.434 200.047 126.658 204.988 125.157C207.015 124.544 208.965 123.701 210.935 122.909C213.643 121.785 216.897 120.318 219.652 122.06C222.839 124.072 224.515 128.805 221.802 131.958C217.898 136.533 213.746 131.536 212.245 127.557L212.219 122.712Z" fill="#5BAEFF"/>
<path fill-rule="evenodd" clip-rule="evenodd" d="M204.266 275.38C201.455 274.778 195.425 271.962 192.511 274.441C191.217 275.565 190.355 276.363 189.736 278.021C187.926 282.883 190.134 288.07 192.95 291.937C197.241 297.839 205.452 303.105 212.621 300.317C217.97 298.238 220.435 291.134 217.176 286.188C214.7 282.433 208.181 274.278 203.25 275.986L204.266 275.38Z" fill="#5BAEFF"/>
<path fill-rule="evenodd" clip-rule="evenodd" d="M226.156 273.834C227.863 278.196 228.172 278.988 231.829 278.089C233.258 277.741 234.14 278.044 234.924 276.543C235.151 276.111 235.77 274.037 235.62 273.576C235.146 272.137 233.041 271.266 231.639 270.929C229.684 270.456 228.028 270.929 227.167 273.233L226.156 273.834Z" fill="#5BAEFF"/>
<path fill-rule="evenodd" clip-rule="evenodd" d="M110.57 37.7816C108.507 38.1357 107.351 37.8265 106.237 39.5857C104.623 42.2138 103.387 45.0946 102.57 48.1288C101.152 53.3333 100.852 58.4423 102.255 63.6243C102.467 64.4056 102.916 65.9624 103.71 66.3671C104.741 66.873 106.583 65.7151 107.46 65.243C110.525 63.6757 113.344 61.589 115.81 59.0605C118.306 56.5314 119.488 53.2659 119.936 49.6857C120.23 47.3476 120.251 45.0151 120.504 42.6826C120.738 41.1533 120.764 39.5946 120.581 38.057C120.282 36.0954 119.864 33.7405 117.672 33.5269C115.929 33.3527 113.427 34.325 111.823 34.9657C109.404 35.9774 107.883 37.9727 110.57 37.7816Z" fill="#5BAEFF"/>
<path fill-rule="evenodd" clip-rule="evenodd" d="M97.5412 81.4414C97.4382 80.6837 97.5145 79.9098 97.763 79.1932C99.4032 78.7773 100.295 78.8392 101.58 80.1768C102.611 81.2559 103.302 83.1894 102.095 84.4203C101.095 85.4207 99.4238 85.9378 98.3046 85.0104C97.0151 83.9425 95.7979 81.9866 96.5922 80.2162L97.5412 81.4414Z" fill="#5BAEFF"/>
<path fill-rule="evenodd" clip-rule="evenodd" d="M75.0481 120.374C74.0784 121.543 72.4125 123.746 73.6349 125.505C74.0288 126.008 74.5805 126.332 75.1822 126.416C75.894 126.461 76.1518 125.977 76.6727 125.567C78.3542 124.252 80.5463 122.841 81.0208 120.593C81.3251 119.165 81.7686 115.495 79.6385 115.372C77.1472 115.226 75.1821 120.43 74.6096 122.066L75.0481 120.374Z" fill="#5BAEFF"/>
<path fill-rule="evenodd" clip-rule="evenodd" d="M62.0913 228.243C62.6999 230.879 63.9274 233.026 65.2581 235.324C65.908 236.448 67.0944 238.803 68.7191 238.483C69.8022 238.264 70.9111 235.74 71.0555 234.678C71.2824 232.992 70.6996 230.378 70.0859 228.878C69.3019 226.967 67.2284 224.617 65.155 224.825C63.7211 224.972 62.8288 225.387 62.4368 226.972L62.0913 228.243Z" fill="#5BAEFF"/>
<path fill-rule="evenodd" clip-rule="evenodd" d="M98.0103 224.988C99.2276 231.035 101.714 237.218 105.474 241.956C106.18 242.844 107.289 244.058 108.445 243.344C109.966 242.405 109.182 239.848 108.996 238.426C108.341 233.502 106.933 228.736 105.644 223.948C104.979 221.43 104.097 218.991 103.746 216.411C103.4 213.735 102.616 211.066 102.152 208.39C101.739 206.007 101.177 203.68 100.713 201.32C100.538 200.449 100.058 198.538 99.274 197.948C98.49 197.357 97.0355 198.302 96.4888 199.072C95.2922 200.696 94.9414 202.764 94.7454 204.748C94.5838 207.063 94.6495 209.39 94.9415 211.69C95.1478 214.106 95.1013 216.568 95.6687 218.934C96.2515 221.39 96.7467 223.993 97.6132 226.342C98.1288 227.989 98.7298 229.603 99.4132 231.176C100.249 232.862 101.43 234.34 102.369 235.964L98.0103 224.988Z" fill="#5BAEFF"/>
<path style="mix-blend-mode:screen" d="M146.081 250.079C171.591 206.837 169.909 156.118 142.325 136.795C114.741 117.472 71.6997 136.862 46.1898 180.103C20.6798 223.345 22.3614 274.064 49.9455 293.387C77.5296 312.71 120.571 293.321 146.081 250.079Z" fill="url(#paint3_radial)"/>
<defs>
<radialGradient id="paint0_radial" cx="0" cy="0" r="1" gradientUnits="userSpaceOnUse" gradientTransform="translate(209.491 92.07) rotate(17.2936) scale(157.966 166.532)">
<stop stop-color="#2C6AFF"/>
<stop offset="0.11" stop-color="#2B68FA"/>
<stop offset="0.23" stop-color="#2962EC"/>
<stop offset="0.36" stop-color="#2558D4"/>
<stop offset="0.5" stop-color="#1F4AB3"/>
<stop offset="0.65" stop-color="#183989"/>
<stop offset="0.79" stop-color="#0F2355"/>
<stop offset="0.94" stop-color="#040A18"/>
<stop offset="1"/>
</radialGradient>
<radialGradient id="paint1_radial" cx="0" cy="0" r="1" gradientUnits="userSpaceOnUse" gradientTransform="translate(241.555 142.654) rotate(17.2936) scale(180.428 190.212)">
<stop stop-color="#5EA4EA"/>
<stop offset="0.77" stop-color="#75FFF6"/>
<stop offset="1" stop-color="#F2F4FF"/>
</radialGradient>
<radialGradient id="paint2_radial" cx="0" cy="0" r="1" gradientUnits="userSpaceOnUse" gradientTransform="translate(662457 -442553) scale(67772.4 120453)">
<stop stop-color="#5EA4EA"/>
<stop offset="0.77" stop-color="#75FFF6"/>
<stop offset="1" stop-color="#F2F4FF"/>
</radialGradient>
<radialGradient id="paint3_radial" cx="0" cy="0" r="1" gradientUnits="userSpaceOnUse" gradientTransform="translate(437550 210107) rotate(32.9483) scale(20125.4 20965.5)">
<stop stop-color="#2C6AFF"/>
<stop offset="0.09" stop-color="#2559D6"/>
<stop offset="0.23" stop-color="#1B429E"/>
<stop offset="0.36" stop-color="#132E6E"/>
<stop offset="0.5" stop-color="#0C1D46"/>
<stop offset="0.63" stop-color="#071027"/>
<stop offset="0.76" stop-color="#030712"/>
<stop offset="0.89" stop-color="#010204"/>
<stop offset="1"/>
</radialGradient>
</defs>
</svg>
