<svg width="220" height="439" viewBox="0 0 220 439" fill="none" xmlns="http://www.w3.org/2000/svg">
<path fill-rule="evenodd" clip-rule="evenodd" d="M147.285 319.196C147.11 319.197 146.938 319.142 146.792 319.037C146.646 318.932 146.532 318.781 146.464 318.605C146.396 318.43 146.378 318.236 146.411 318.048C146.445 317.861 146.529 317.689 146.652 317.553C146.776 317.418 146.933 317.326 147.105 317.288C147.276 317.25 147.455 317.269 147.616 317.342C147.778 317.415 147.917 317.538 148.014 317.697C148.112 317.855 148.164 318.042 148.164 318.233C148.164 318.487 148.071 318.731 147.906 318.912C147.742 319.092 147.518 319.195 147.285 319.196Z" fill="#B5EAFF"/>
<path fill-rule="evenodd" clip-rule="evenodd" d="M53.4013 324.15C53.2264 324.15 53.0555 324.094 52.9101 323.988C52.7647 323.882 52.6513 323.732 52.5844 323.555C52.5175 323.379 52.5 323.186 52.5341 322.999C52.5682 322.812 52.6524 322.64 52.7761 322.505C52.8997 322.371 53.0573 322.279 53.2288 322.242C53.4004 322.204 53.5782 322.224 53.7397 322.296C53.9013 322.369 54.0394 322.493 54.1366 322.651C54.2337 322.81 54.2856 322.996 54.2856 323.187C54.2863 323.313 54.2639 323.439 54.2197 323.556C54.1756 323.674 54.1105 323.78 54.0282 323.87C53.946 323.959 53.8482 324.03 53.7406 324.079C53.633 324.127 53.5177 324.151 53.4013 324.15Z" fill="#B5EAFF"/>
<path fill-rule="evenodd" clip-rule="evenodd" d="M62.9317 197.12C62.7563 197.122 62.5846 197.066 62.4384 196.961C62.2921 196.855 62.1779 196.705 62.1103 196.528C62.0427 196.352 62.0248 196.158 62.0587 195.97C62.0927 195.783 62.177 195.611 62.301 195.476C62.425 195.34 62.583 195.249 62.7551 195.212C62.9271 195.175 63.1053 195.194 63.2671 195.268C63.4289 195.342 63.567 195.466 63.6637 195.625C63.7605 195.785 63.8115 195.972 63.8105 196.163C63.8105 196.417 63.7179 196.66 63.5531 196.84C63.3883 197.02 63.1647 197.12 62.9317 197.12Z" fill="#B5EAFF"/>
<path fill-rule="evenodd" clip-rule="evenodd" d="M198.642 381.738C198.467 381.739 198.296 381.684 198.149 381.579C198.003 381.474 197.889 381.323 197.821 381.147C197.754 380.972 197.735 380.778 197.769 380.59C197.802 380.403 197.886 380.231 198.01 380.095C198.133 379.96 198.29 379.868 198.462 379.83C198.634 379.792 198.812 379.811 198.974 379.884C199.136 379.957 199.274 380.08 199.372 380.239C199.469 380.397 199.521 380.584 199.521 380.775C199.522 380.901 199.499 381.026 199.456 381.143C199.412 381.26 199.347 381.366 199.265 381.456C199.184 381.545 199.087 381.616 198.98 381.665C198.873 381.713 198.758 381.738 198.642 381.738Z" fill="#B5EAFF"/>
<path fill-rule="evenodd" clip-rule="evenodd" d="M195.929 155.27C195.754 155.272 195.583 155.216 195.437 155.111C195.29 155.006 195.176 154.856 195.108 154.68C195.041 154.504 195.022 154.31 195.056 154.122C195.089 153.935 195.173 153.763 195.297 153.628C195.42 153.492 195.578 153.4 195.749 153.362C195.921 153.325 196.099 153.343 196.261 153.416C196.423 153.489 196.561 153.612 196.659 153.771C196.756 153.929 196.808 154.116 196.808 154.307C196.808 154.561 196.716 154.806 196.551 154.986C196.386 155.167 196.163 155.269 195.929 155.27Z" fill="#B5EAFF"/>
<path fill-rule="evenodd" clip-rule="evenodd" d="M187.24 308.371C187.065 308.371 186.893 308.314 186.748 308.208C186.602 308.102 186.489 307.951 186.422 307.775C186.355 307.598 186.338 307.404 186.373 307.217C186.407 307.03 186.492 306.858 186.616 306.724C186.741 306.589 186.899 306.498 187.071 306.462C187.242 306.425 187.42 306.445 187.582 306.519C187.743 306.593 187.881 306.717 187.978 306.876C188.074 307.036 188.125 307.223 188.124 307.413C188.124 307.54 188.101 307.665 188.057 307.781C188.012 307.898 187.947 308.004 187.865 308.093C187.782 308.182 187.685 308.252 187.578 308.3C187.47 308.348 187.356 308.372 187.24 308.371Z" fill="#B5EAFF"/>
<path fill-rule="evenodd" clip-rule="evenodd" d="M85.1797 335.035C85.0044 335.037 84.8327 334.981 84.6864 334.876C84.5402 334.77 84.426 334.62 84.3584 334.443C84.2908 334.267 84.2728 334.073 84.3068 333.885C84.3407 333.698 84.425 333.526 84.549 333.391C84.673 333.256 84.8311 333.164 85.0031 333.127C85.1752 333.09 85.3534 333.109 85.5152 333.183C85.677 333.257 85.815 333.381 85.9118 333.54C86.0085 333.7 86.0596 333.887 86.0585 334.078C86.0585 334.332 85.9659 334.575 85.8011 334.755C85.6363 334.935 85.4128 335.035 85.1797 335.035Z" fill="#B5EAFF"/>
<path fill-rule="evenodd" clip-rule="evenodd" d="M188.631 291.086C188.456 291.087 188.285 291.031 188.139 290.926C187.993 290.821 187.878 290.671 187.811 290.495C187.743 290.319 187.725 290.125 187.758 289.938C187.792 289.751 187.875 289.578 187.999 289.443C188.122 289.308 188.28 289.215 188.451 289.178C188.623 289.14 188.801 289.159 188.963 289.231C189.125 289.304 189.263 289.428 189.361 289.586C189.458 289.745 189.51 289.931 189.51 290.122C189.51 290.377 189.418 290.621 189.253 290.801C189.088 290.982 188.865 291.084 188.631 291.086Z" fill="#B5EAFF"/>
<path fill-rule="evenodd" clip-rule="evenodd" d="M190.618 61.4418C190.443 61.4418 190.272 61.3853 190.127 61.2794C189.981 61.1735 189.868 61.023 189.801 60.847C189.734 60.6709 189.717 60.4771 189.751 60.2902C189.785 60.1033 189.869 59.9316 189.993 59.7969C190.117 59.6621 190.274 59.5703 190.446 59.5332C190.617 59.496 190.795 59.5151 190.957 59.588C191.118 59.6609 191.256 59.7844 191.353 59.9429C191.451 60.1013 191.502 60.2876 191.502 60.4782C191.501 60.7333 191.407 60.9775 191.242 61.1578C191.076 61.3382 190.852 61.4402 190.618 61.4418Z" fill="#B5EAFF"/>
<path fill-rule="evenodd" clip-rule="evenodd" d="M133.191 61.4418C133.016 61.4418 132.845 61.3853 132.7 61.2794C132.554 61.1735 132.441 61.023 132.374 60.847C132.307 60.6709 132.29 60.4771 132.324 60.2902C132.358 60.1033 132.442 59.9316 132.566 59.7969C132.689 59.6621 132.847 59.5703 133.018 59.5332C133.19 59.496 133.368 59.5151 133.529 59.588C133.691 59.6609 133.829 59.7844 133.926 59.9429C134.023 60.1013 134.075 60.2876 134.075 60.4782C134.075 60.7338 133.982 60.9789 133.816 61.1596C133.65 61.3403 133.425 61.4418 133.191 61.4418Z" fill="#B5EAFF"/>
<path fill-rule="evenodd" clip-rule="evenodd" d="M219.695 6.88766C216.376 7.01257 213.052 7.23264 209.744 7.55978C186.287 9.66183 163.373 16.3806 142.116 27.3902C141.706 27.6281 141.275 27.8363 140.849 28.0445C138.437 29.3054 136.04 30.5902 133.693 31.9701C121.679 38.8894 110.355 47.1456 99.9009 56.6064C97.2373 59.0273 94.6172 61.5313 92.0736 64.1068C88.271 67.9254 84.6431 71.9025 81.1898 76.0383C72.073 86.7521 64.0074 98.4735 57.124 111.012C54.6132 115.509 52.288 120.077 50.1101 124.782C37.0514 152.916 29.6983 183.782 28.5497 215.285C28.234 224.323 28.4637 233.373 29.2375 242.378C29.5432 246.334 29.9743 250.241 30.482 254.173C33.4314 276.126 39.5088 297.442 48.4944 317.352C64.5037 352.784 87.7944 381.048 115.272 401.325C116.178 402.027 117.106 402.711 118.001 403.365C122.673 406.684 127.449 409.777 132.329 412.644C133.901 413.572 135.502 414.478 137.132 415.362C162.54 429.324 190.39 437.214 218.821 438.505L219.673 438.505L219.695 6.88766Z" fill="url(#paint0_radial)"/>
<g style="mix-blend-mode:multiply" opacity="0.5">
<g style="mix-blend-mode:multiply" opacity="0.5">
<path fill-rule="evenodd" clip-rule="evenodd" d="M213.466 72.8377C214.558 76.7574 217.112 78.0957 219.694 80.1061L219.694 59.0742C219.057 59.5133 218.463 60.0215 217.92 60.5909C215.071 63.672 212.189 68.3887 213.466 72.8377Z" fill="#C4B0B8"/>
</g>
<g style="mix-blend-mode:multiply" opacity="0.5">
<path fill-rule="evenodd" clip-rule="evenodd" d="M209.744 7.55949C210.852 7.98568 211.913 8.54843 212.904 9.23681C214.869 10.6584 217.5 11.7825 219.241 13.4004L219.694 13.8346L219.694 1.29037C218.335 1.0584 216.965 0.665835 215.59 0.868065C213.952 1.12977 212.271 2.05765 210.59 2.43832C208.308 2.89631 204.296 4.99593 201.758 4.3595C203.45 4.95429 204.979 6.00708 206.725 6.5305C207.747 6.81825 208.754 7.16168 209.744 7.55949Z" fill="#C4B0B8"/>
</g>
<g style="mix-blend-mode:multiply" opacity="0.5">
<path fill-rule="evenodd" clip-rule="evenodd" d="M219.694 97.4386C217.396 96.3085 215.704 93.9115 213.914 91.7821C210.421 87.6186 205.994 84.1866 202.004 80.5286C198.369 77.1799 195.732 72.5762 192.119 68.9421C186.24 63.1012 179.199 58.4796 172.376 54.1079C164.92 49.409 157.486 44.734 150.352 39.4998C145.307 35.8383 139.656 33.2808 133.715 31.9697C121.701 38.8891 110.376 47.1452 99.9224 56.6061L100.468 56.6715C108.421 57.754 116.205 60.9302 124.212 61.5369C129.305 61.9235 134.299 62.5361 138.786 65.4625C141.821 67.4313 145.145 69.3941 147.934 71.7614C150.439 73.8848 152.241 76.7517 154.631 78.9881C157.835 82.0275 161.094 83.681 163.654 87.5115C166.039 91.0208 168.763 93.9829 170.821 97.7479C172.076 100.038 177.742 106.729 174.532 109.275C173.615 109.971 169.593 109.537 168.594 109.061C164.069 107.027 159.353 102.982 155.494 99.8713C148.261 94.0721 141.684 87.5175 134.135 82.1227C126.586 76.7279 117.629 72.2491 109.125 68.9659C103.611 66.7411 97.9081 65.1134 92.1007 64.1064C88.2981 67.925 84.6701 71.9022 81.2168 76.038C83.8586 77.4298 86.4895 79.0714 89.2569 80.1063C92.5319 81.3495 95.8833 82.1941 99.2347 83.235C108.82 86.2089 118.208 88.8498 127.22 93.6141C130.669 95.3985 134.097 97.4327 137.448 99.5025C140.914 101.656 143.807 104.659 147.273 106.789C153.469 110.554 159.511 114.818 165.477 119.018C172.84 124.21 179.538 132.151 185.738 138.884C195.82 149.858 206.174 161.563 214.837 173.887C216.427 176.14 218.039 178.374 219.673 180.591L219.694 97.4386Z" fill="#C4B0B8"/>
</g>
<g style="mix-blend-mode:multiply" opacity="0.5">
<path fill-rule="evenodd" clip-rule="evenodd" d="M219.695 232.052C216.671 227.639 213.69 223.178 210.59 218.83C197.392 200.284 183.812 181.756 167.54 166.262C163.911 162.794 159.844 160.415 155.92 157.388C151.247 153.747 147.061 149.744 142.012 146.717C137.885 144.296 133.824 141.364 129.55 139.193C124.518 136.588 119.054 135.267 113.82 133.245C107.27 130.741 101.265 126.482 94.8628 123.544C91.0093 121.759 87.2812 119.975 83.3403 118.446C78.6789 116.62 73.9356 113.307 69.0231 112.499C65.2405 111.904 61.1413 111.214 57.1458 110.958C54.635 115.455 52.3097 120.023 50.1318 124.727C53.456 125.078 56.4089 126.066 60.1697 127.184C63.9305 128.302 67.6203 128.481 71.4957 128.968C74.8908 129.385 77.8383 130.812 80.9823 132.067C86.6979 134.393 92.0781 137.6 96.9588 141.59C103.255 146.718 109.915 151.292 116.876 155.27C125.741 160.415 135.435 163.716 144.435 168.623C152.541 173.007 160.985 178.312 167.802 184.909C171.077 188.091 173.807 191.517 177.3 194.532C181.486 198.143 184.581 203.306 187.627 207.993C190.438 212.329 193.686 216.207 196.715 220.352C200.121 225.033 203.036 230.131 206.507 234.806C210.983 240.813 215.35 246.904 219.695 253.012L219.695 232.052Z" fill="#C4B0B8"/>
</g>
<g style="mix-blend-mode:multiply" opacity="0.5">
<path fill-rule="evenodd" clip-rule="evenodd" d="M219.694 343.166C219.471 341.774 219.241 340.418 219.029 339.11C218.106 333.554 214.46 328.832 213.128 323.389C215.552 322.331 217.948 326.363 219.678 330.354L219.678 308.841C218.14 306.684 216.462 304.651 214.656 302.756C203.74 290.485 192.163 277.852 180.427 266.004C166.421 251.883 155.057 234.914 140.685 221.234C134.359 215.179 128.284 208.6 121.581 203.057C115.348 197.936 107.799 194.48 101.293 189.775C95.0445 185.273 88.4455 181.378 81.5716 178.135C76.2443 175.649 71.2445 172.591 65.808 170.295C61.7415 168.63 57.5605 168.303 53.5268 166.816C49.5728 165.326 45.3766 164.752 41.2073 165.133C39.4825 165.299 37.6212 165.281 35.749 165.281C31.5689 181.592 29.1599 198.381 28.5713 215.304C37.6976 220.472 45.4594 228.984 54.673 234.069C62.9314 238.59 70.2784 245.103 77.92 250.789C85.9055 256.737 93.6564 262.762 101.194 269.43C106.191 273.827 110.763 278.767 114.84 284.175C116.8 286.744 118.257 289.962 119.895 292.865C121.838 296.308 124.534 299.925 125.899 303.684C129.095 312.629 133.061 321.224 137.743 329.355C141.291 335.648 144.883 341.846 148.365 348.168C151.247 353.403 155.073 357.608 158.037 362.86C161.274 368.653 164.424 373.78 166.165 380.335C167.447 385.058 167.497 387.716 166.634 392.373C168.566 394.753 170.297 392.29 171.323 390.696C172.764 388.424 173.102 384.909 172.644 381.971C172.098 378.616 170.591 376.534 169.489 373.554C168.943 372.014 169.074 370.503 168.441 368.992C167.427 366.874 166.536 364.689 165.772 362.449C163.479 355.235 157.038 351.434 153.556 345.2C151.918 342.286 150.226 339.437 148.643 336.481C147.805 335.016 147.138 333.444 146.657 331.8C145.931 329.355 145.838 328.867 146.52 326.667C148.365 320.677 155.155 319.25 158.479 324.626C159.871 326.899 161.896 329.777 162.688 332.359C163.894 336.296 164.991 340.751 166.852 344.493C168.326 347.425 170.673 353.177 173.086 355.276C174.088 355.935 175.202 356.368 176.361 356.549C178.959 356.906 180.324 356.942 182.867 358.167C187.663 360.515 191.928 363.981 195.361 368.32C198.494 372.198 199.772 378.705 203.232 382.203C210.039 389.049 217.206 373.649 219.656 365.971L219.694 343.166Z" fill="#C4B0B8"/>
</g>
<g style="mix-blend-mode:multiply" opacity="0.5">
<path fill-rule="evenodd" clip-rule="evenodd" d="M29.2373 242.396C29.543 246.351 29.9687 250.259 30.4818 254.19C34.0242 257.759 37.0318 262.113 40.4705 265.491C44.3951 269.352 49.253 271.915 53.2375 275.811C56.7418 279.249 59.6947 283.127 63.2645 286.434C72.2052 294.761 80.4036 304.754 87.7942 314.687C93.4708 322.235 98.165 329.087 101.549 338.08C104.513 345.913 107.302 353.229 109.338 361.402C111.582 370.395 114.938 378.395 115.293 387.775C115.435 391.641 114.971 395.317 115.097 399.076C115.129 399.845 115.19 400.595 115.277 401.324C116.183 402.026 117.111 402.71 118.006 403.364C122.678 406.683 127.454 409.776 132.334 412.643C133.906 413.571 135.507 414.477 137.137 415.361C136.814 413.323 136.419 411.251 135.953 409.146C134.507 402.603 133.737 395.828 131.827 389.428C129.736 382.44 126.701 375.522 124.185 368.664C117.919 351.647 110.113 335.701 102.957 319.159C98.8418 309.684 94.3551 299.87 88.6348 291.353C82.3523 282.027 75.573 272.201 67.2545 264.867C65.1421 262.999 62.8878 260.941 60.6718 259.264C58.3192 257.479 55.4482 256.831 53.0301 255.1C50.9341 253.578 48.9582 251.621 46.9332 249.967C44.0676 247.653 42.8558 247.314 39.6736 246.048C36.1694 244.638 32.949 242.99 29.2373 242.396Z" fill="#C4B0B8"/>
</g>
</g>
<g style="mix-blend-mode:multiply" opacity="0.65">
<g style="mix-blend-mode:multiply" opacity="0.65">
<path fill-rule="evenodd" clip-rule="evenodd" d="M210.563 353.498C210.738 357.739 210.41 361.73 208.642 365.638C207.806 367.488 206.338 369.028 204.357 368.713C202.468 368.404 200.279 366.804 198.969 365.311C196.786 362.807 194.521 360.154 192.49 357.489C190.288 354.669 188.451 351.533 187.032 348.169C186.115 345.974 185.34 343.833 184.587 341.567C183.774 339.116 182.469 337.034 181.219 334.828C179.969 332.621 178.79 330.254 177.355 328.142C176.301 326.596 175.111 325.168 174.08 323.61C171.12 319.375 168.86 314.611 167.398 309.531C166.34 305.695 166.274 302.316 168.621 299.11C170.352 296.731 172.611 294.828 175.488 294.572C180.242 294.144 184.811 297.278 188.408 300.324C193.064 304.267 197.141 309.549 200.574 314.742C204.586 320.844 207.998 328.148 209.706 335.446C210.383 338.331 210.426 341.186 210.798 344.101C211.103 346.48 211.42 348.782 211.114 351.167C210.994 352.112 210.912 352.999 210.858 353.962C210.792 354.605 210.454 355.764 210.563 353.498Z" fill="#C4B0B8"/>
</g>
<g style="mix-blend-mode:multiply" opacity="0.65">
<path fill-rule="evenodd" clip-rule="evenodd" d="M208.342 312.986C208.205 311.493 208.276 310.012 207.387 308.822C206.695 307.921 205.843 307.183 204.881 306.651C204.568 306.423 204.211 306.278 203.838 306.226C203.465 306.174 203.086 306.218 202.731 306.354C202.026 306.711 202.092 306.919 202.185 307.835C202.558 309.755 203.461 311.504 204.772 312.849C205.154 313.224 205.864 313.938 206.41 314.039C206.955 314.14 207.774 313.759 207.452 313.111L208.342 312.986Z" fill="#C4B0B8"/>
</g>
<g style="mix-blend-mode:multiply" opacity="0.65">
<path fill-rule="evenodd" clip-rule="evenodd" d="M176.645 281.23C175.884 281.409 175.097 281.409 174.336 281.23C174.237 281.046 174.124 280.871 173.998 280.707C173.434 280.182 172.901 279.618 172.404 279.018C171.078 277.465 170.314 275.485 169.244 273.73C167.361 270.649 159.965 267.401 164.167 263.279C167.885 259.615 172.699 264.891 175.308 267.627C176.596 268.978 177.704 270.375 178.081 272.32C178.321 273.551 178.785 274.878 178.801 276.151C178.818 277.56 178.403 280.088 176.645 281.23Z" fill="#C4B0B8"/>
</g>
<g style="mix-blend-mode:multiply" opacity="0.65">
<path fill-rule="evenodd" clip-rule="evenodd" d="M69.8748 223.791C69.329 221.65 69.0178 219.568 68.1117 217.576C66.636 214.234 64.6292 211.203 62.184 208.624C59.2747 205.65 54.7934 203.14 50.6724 203.705C48.9803 203.937 46.4367 204.615 45.9837 206.721C45.3287 209.778 47.9924 213.686 49.4061 216.023C51.5403 219.556 54.2258 222.28 57.2606 224.844C59.1983 226.486 61.0814 228.193 63.0464 229.805C64.373 231.021 65.9592 231.853 67.6587 232.225C69.0779 232.475 70.759 232.332 71.7525 230.988C72.4511 230.054 72.342 228.014 72.1564 226.926C72.0283 226.245 71.7551 225.606 71.3587 225.062C70.9624 224.517 70.454 224.082 69.8748 223.791Z" fill="#C4B0B8"/>
</g>
<g style="mix-blend-mode:multiply" opacity="0.65">
<path fill-rule="evenodd" clip-rule="evenodd" d="M95.2942 310.268C94.3213 308.98 93.2749 307.76 92.1611 306.616C91.8882 307.264 91.3096 306.812 90.873 307.294C90.3271 307.924 90.5455 309.471 90.6656 310.22C90.9166 311.761 91.7136 312.867 92.4723 314.217C93.4712 316.002 94.339 318.089 95.78 319.499C97.1009 320.79 98.5092 321.087 98.5092 318.797C98.4491 315.555 96.8062 312.909 95.3161 310.268L95.2942 310.268Z" fill="#C4B0B8"/>
</g>
<g style="mix-blend-mode:multiply" opacity="0.65">
<path fill-rule="evenodd" clip-rule="evenodd" d="M132.716 154.676C132.045 155.152 131.483 155.669 130.691 155.747C129.934 155.752 129.178 155.687 128.432 155.551C125.879 155.222 123.362 154.625 120.916 153.766C119.428 153.165 118.003 152.395 116.663 151.47C115.239 150.596 113.64 149.835 112.39 148.675C110.785 147.182 108.967 145.32 107.903 143.322C106.593 140.847 107.586 138.635 109.737 137.13C111.374 135.994 113.558 136.535 115.386 136.785C117.75 137.088 120.037 137.974 122.313 138.748C127.176 140.354 131.854 142.614 136.586 144.606C138.027 145.201 142.312 147.319 141.652 149.722C141.379 150.733 140.014 151.97 139.359 152.642C138.497 153.487 137.487 154.254 136.592 155.057C134.752 156.675 131.636 157.68 132.716 154.676Z" fill="#C4B0B8"/>
</g>
<g style="mix-blend-mode:multiply" opacity="0.65">
<path fill-rule="evenodd" clip-rule="evenodd" d="M158.354 52.966C162.115 53.5608 165.068 55.4285 168.468 57.2961C173.168 59.8716 178.026 61.8939 182.895 64.0411C185.52 65.2306 188.238 66.4738 190.253 68.7102C191.631 70.1768 192.925 71.7341 194.128 73.3734C196.229 76.3473 197.66 79.809 199.242 83.1101C202.223 89.3614 205.416 95.6424 207.757 102.233C209.198 106.265 212.397 118.572 204.728 117.168C202.976 116.847 201.753 115.384 200.361 114.265C198.555 112.844 196.672 111.541 194.936 110.007C190.749 106.313 186.47 102.661 182.436 98.771C179.112 95.571 176.055 92.1153 172.649 89.0224C169.631 86.2863 166.618 83.5205 163.709 80.6417C160.821 77.7224 158.256 74.4446 156.067 70.8752C154.975 69.1325 153.736 67.5325 152.688 65.7719C151.64 64.0113 150.369 61.6084 149.992 59.5861C149.179 55.2441 152.792 52.3712 158.354 52.966Z" fill="#C4B0B8"/>
</g>
<g style="mix-blend-mode:multiply" opacity="0.65">
<path fill-rule="evenodd" clip-rule="evenodd" d="M153.207 47.9045C152.661 48.2257 151.963 48.8621 151.297 48.761C150.751 48.6777 150.134 48.0532 149.659 47.7677C148.726 47.1729 148.022 46.822 147.394 45.8227C146.477 44.3179 147.007 43.1164 148.54 42.4978C149.392 42.1529 150.505 42.7655 151.357 43.0213C152.7 43.4257 154.31 45.5313 154.179 47.2324L153.207 47.9045Z" fill="#C4B0B8"/>
</g>
<g style="mix-blend-mode:multiply" opacity="0.65">
<path fill-rule="evenodd" clip-rule="evenodd" d="M166.787 290.586C165.281 288.403 162.508 285.774 162.421 282.889C162.357 281.825 162.47 280.757 162.754 279.737C163.463 277.721 165.008 277.655 166.362 279.059C168.501 281.301 170.221 288.48 166.504 290.045L166.787 290.586Z" fill="#C4B0B8"/>
</g>
<g style="mix-blend-mode:multiply" opacity="0.65">
<path fill-rule="evenodd" clip-rule="evenodd" d="M141.28 323.442C142.65 319.587 143.047 315.402 142.431 311.323C141.814 307.244 140.207 303.419 137.776 300.245C135.298 297.117 132.023 294.702 128.945 292.334C128.093 291.68 127.269 290.883 126.215 290.657C125.67 290.538 125.124 290.699 124.578 290.467C123.262 292.293 123.421 296.694 124.108 298.865C124.975 301.253 126.204 303.465 127.744 305.408C128.704 306.598 130.025 307.288 130.893 308.572C132.663 311.167 134.198 313.941 135.478 316.858C136.133 318.434 136.275 320.058 137.487 321.289C138.371 322.181 139.577 322.431 140.587 323.073C141.062 322.479 140.969 321.408 141.28 323.442Z" fill="#C4B0B8"/>
</g>
<g style="mix-blend-mode:multiply" opacity="0.65">
<path fill-rule="evenodd" clip-rule="evenodd" d="M123.268 283.008C120.305 284.697 120.141 283.948 118.612 280.914C117.859 279.416 118.067 277.471 119.901 276.983C120.992 276.685 121.806 277.512 122.63 278.172C124.022 279.362 124.682 280.189 124.267 282.336L123.268 283.008Z" fill="#C4B0B8"/>
</g>
<g style="mix-blend-mode:multiply" opacity="0.65">
<path fill-rule="evenodd" clip-rule="evenodd" d="M195.302 119.197C195.117 120.135 194.641 120.976 193.954 121.576C192.174 120.737 190.728 120.624 189.041 119.197C187.776 118.112 186.641 116.859 185.662 115.467C185.075 114.456 184.659 113.338 184.434 112.166C184.21 110.977 184.434 110.887 185.187 110.727C185.815 110.596 187.011 111.084 187.666 111.167C188.965 111.328 189.974 111.167 191.11 112.006C193.457 113.742 194.832 115.913 196.295 118.507L195.302 119.197Z" fill="#C4B0B8"/>
</g>
<g style="mix-blend-mode:multiply" opacity="0.65">
<path fill-rule="evenodd" clip-rule="evenodd" d="M115.916 274.824C116.729 273.563 116.664 272.516 116.145 271.065C115.681 269.768 114.671 268.686 113.853 267.609C112.303 265.617 110.125 264.088 108.263 262.464C105.965 260.454 103.531 258.557 101.353 256.398C99.074 254.007 96.9493 251.447 94.9942 248.737C91.8393 244.615 88.9082 240.32 85.6496 236.305C84.6932 235.126 83.6429 234.041 82.511 233.064C81.6814 232.332 81.1574 231.416 80.3932 230.637C79.5035 229.733 78.6575 228.853 77.4512 228.68C77.0519 228.579 76.6351 228.596 76.2437 228.729C75.8523 228.862 75.5004 229.106 75.2242 229.436C74.6783 230.12 74.5091 231.22 73.9306 231.993C73.1563 233.172 72.1466 234.144 70.9776 234.836C69.7815 235.381 68.4464 235.445 67.2114 235.015C65.6939 234.616 64.1001 234.045 62.5499 233.98C61.5456 233.938 60.9834 234.152 61.9386 235.169C62.8938 236.186 64.4604 237.108 65.7321 237.941C68.2321 239.583 70.8248 240.986 73.2756 242.741C74.6401 243.717 75.8628 244.841 77.1892 245.864C78.5155 246.887 79.7328 247.737 80.9227 248.79C83.2861 250.884 85.9225 252.698 88.4115 254.625C92.4725 257.777 96.599 260.864 100.584 264.142C102.441 265.706 104.427 267.08 106.517 268.246C107.647 268.841 108.907 269.209 110.021 269.852C110.96 270.399 111.598 271.351 112.363 272.13C112.811 272.518 113.317 272.819 113.858 273.022C115.004 273.587 116.271 274.063 117.133 275.068C117.204 275.032 117.281 275.003 115.916 274.824Z" fill="#C4B0B8"/>
</g>
<g style="mix-blend-mode:multiply" opacity="0.65">
<path fill-rule="evenodd" clip-rule="evenodd" d="M164.151 293.858C164.2 294.316 164.697 296.237 164.151 296.873C163.73 297.367 163.256 297.117 162.857 296.778C162.213 296.101 161.629 295.36 161.11 294.565C160.073 293.251 159.02 292.02 157.928 290.765C157.033 289.73 156.067 288.79 155.199 287.737C154.107 286.441 153.098 284.983 151.924 283.758C150.876 282.652 149.872 281.653 148.922 280.439C147.776 278.97 146.373 277.858 145.281 276.323C143.016 273.147 140.833 269.846 138.731 266.527C136.572 263.149 133.972 260.134 131.013 257.575C129.676 256.386 128.355 255.196 126.974 254.078C125.773 253.102 124.414 252.472 123.153 251.604C120.391 249.706 117.286 248.201 114.682 246.06C111.875 243.633 109.252 240.964 106.838 238.078C103.296 234.063 99.8517 229.941 96.2983 225.932C92.2046 221.323 87.9689 216.802 83.7005 212.389C81.8447 210.474 79.6122 208.225 77.4071 206.822C75.584 205.632 73.75 204.365 71.8832 203.3C70.4204 202.462 68.963 201.617 67.5166 200.743C66.0701 199.868 64.5527 199.291 63.1117 198.459C61.9709 197.805 60.9284 196.889 59.6675 196.603C58.3985 196.338 57.1431 196.001 55.9067 195.592C55.0388 195.3 54.1601 195.17 53.2867 194.932C52.5171 194.718 52.0422 194.384 51.2235 194.432C50.4738 194.457 49.728 194.561 48.9965 194.741C47.9048 195.015 46.6931 194.682 45.5796 194.825C45.2575 194.866 44.9082 195.045 44.5971 195.068C44.0121 195.03 43.4323 194.927 42.8668 194.759C42.3209 194.676 41.7424 194.729 41.1747 194.658C40.3505 194.551 39.5972 194.063 38.773 193.879C37.6814 193.605 36.6771 193.165 35.5581 192.933C34.4392 192.701 33.5276 193.04 32.4741 193.445C32.3486 193.225 31.9993 193.165 31.9283 193.04C31.6881 192.689 31.8082 192.808 31.7591 192.445C31.6825 191.662 31.7268 190.87 31.8901 190.102C32.3111 187.493 33.1049 184.972 34.2426 182.631C34.985 181.245 35.9948 179.598 37.3976 178.914C37.7879 178.704 38.2261 178.624 38.6579 178.683C39.0897 178.742 39.4961 178.938 39.8265 179.247C41.1419 180.234 42.1463 181.662 43.4945 182.608C45.0447 183.696 46.6221 184.784 48.1832 185.861C49.1548 186.539 50.1973 186.967 51.1361 187.711C52.1025 188.503 53.1594 189.155 54.2801 189.65C56.1505 190.581 58.0719 191.386 60.0332 192.059C63.0189 192.939 66.0373 194.152 68.9248 195.3C71.2519 196.134 73.5352 197.107 75.7641 198.215C77.493 199.217 79.0917 200.465 80.5183 201.926C81.4008 202.921 82.237 203.963 83.0237 205.049C83.9734 206.185 84.9013 207.262 85.7528 208.481C87.1502 210.474 88.482 212.46 89.7484 214.536C90.7282 216.107 91.8853 217.538 93.1925 218.795C94.2842 219.806 95.1903 220.906 96.4675 221.555C97.4991 222.072 98.4707 222.697 99.486 223.262C100.911 224.059 102.472 224.63 103.853 225.492C105.648 226.61 107.592 227.913 109.589 228.502C110.643 228.817 115.091 230.173 114.917 227.848C114.791 226.248 113.279 224.404 112.188 223.357C111.595 222.91 110.957 222.537 110.288 222.245C109.671 221.87 109.022 221.602 108.399 221.245C107.331 220.542 106.356 219.684 105.501 218.694C103.727 216.88 101.86 215.208 100.108 213.382C98.1869 211.384 95.9654 209.736 94.1041 207.672C90.3924 203.568 87.0082 198.97 82.4233 195.961C80.2399 194.527 78.3022 192.737 76.1625 191.25C74.1757 189.87 72.0579 188.74 70.0438 187.431C67.0581 185.486 64.3125 183.315 61.1631 181.727C59.9131 181.097 58.625 181.085 57.2768 180.954C56.031 180.851 54.7812 180.819 53.5324 180.859C52.2113 180.963 50.8865 180.722 49.6679 180.157C48.7299 179.737 47.8614 179.152 47.097 178.426C47.3703 178.312 47.6687 178.289 47.9539 178.361C48.7727 178.462 49.5914 178.688 50.4156 178.777C51.6983 178.92 52.8446 178.991 53.969 178.301C55.052 177.665 56.2785 177.376 57.506 177.469C60.4251 177.613 63.3148 178.169 66.1029 179.122C67.6789 179.558 69.1858 180.25 70.5732 181.174C71.9487 182.185 73.2478 183.321 74.6015 184.362C77.3306 186.462 79.967 188.704 82.6088 190.941C85.4635 193.361 87.9416 196.264 90.5834 198.952C91.8279 200.213 92.9142 201.647 94.1696 202.896C95.8071 204.508 97.3954 206.132 99.0056 207.749C101.604 210.349 104.802 212.425 107.892 214.251C109.278 215.065 110.686 215.839 112.051 216.695C113.781 217.784 115.392 219.074 117.149 220.109C120.195 221.912 123.128 223.935 125.926 226.164C128.655 228.311 130.811 231.345 133.093 234.021C135.374 236.698 137.716 239.422 139.949 242.206C142.525 245.424 145.254 248.404 147.623 251.818C149.522 254.548 151.547 257.171 153.311 259.99C154.342 261.638 155.494 263.053 156.116 264.957C156.526 266.371 156.76 267.84 156.809 269.322C157.17 274.533 158.174 280.207 160.696 284.722C161.433 286.036 161.946 287.482 162.655 288.82C163.205 289.83 163.663 290.896 164.025 292.002C164.495 293.388 164.462 294.322 164.151 293.858Z" fill="#C4B0B8"/>
</g>
<g style="mix-blend-mode:multiply" opacity="0.65">
<path fill-rule="evenodd" clip-rule="evenodd" d="M159.932 244.925C159.642 245.763 159.386 247.054 158.665 247.684C157.792 248.475 156.286 247.803 155.445 247.244C153.682 246.055 152.323 243.86 150.827 242.331C148.851 240.309 146.772 238.406 144.741 236.461C142.828 234.694 141.033 232.779 139.37 230.733C138.682 229.858 137.52 228.603 137.733 227.337C138.218 224.702 140.702 225.844 142.29 226.516C145.194 227.747 147.487 230.376 149.67 232.719C151.231 234.391 152.699 236.032 154.113 237.858C155.145 239.185 156.231 240.279 157.388 241.481C157.847 241.962 158.114 242.528 158.545 243.015C158.813 243.301 159.899 243.949 159.932 244.925Z" fill="#C4B0B8"/>
</g>
<g style="mix-blend-mode:multiply" opacity="0.65">
<path fill-rule="evenodd" clip-rule="evenodd" d="M45.1651 256.237C46.8517 256.445 47.998 257.124 49.5318 257.932C52.5284 259.479 55.1375 261.894 58.0467 263.619C60.9145 265.293 63.5348 267.429 65.8194 269.953C67.5824 271.964 68.9907 274.218 70.5518 276.389C71.4742 277.668 72.1402 279.125 73.0681 280.404C74.036 281.82 74.9289 283.296 75.7427 284.823C76.5778 286.292 77.3037 287.797 78.0188 289.32C78.8757 291.175 79.9292 292.888 80.6333 294.839C80.9935 295.821 81.9979 298.212 80.9826 299.003C79.9674 299.794 78.8593 298.896 78.0024 298.361C75.9393 297.019 74.0673 295.356 72.4458 293.424C70.1479 290.747 67.7735 288.112 65.4264 285.477C63.4287 283.247 61.3927 281.046 59.3131 278.935C58.3524 277.947 57.3426 277.192 56.3055 276.312C55.2685 275.431 54.3242 274.384 53.1834 273.576C51.2239 272.196 49.6792 270.322 47.867 268.734C47.0483 268.02 46.2295 267.294 45.4435 266.563C44.6575 265.831 43.544 265.338 42.6106 264.636C40.9731 263.446 39.1501 262.257 37.7636 260.752C36.5519 259.425 35.3783 258.117 34.1611 256.808C33.1841 255.75 30.9298 253.983 31.2901 252.222C31.7104 250.141 35.0399 250.242 36.4973 250.48C38.6315 250.825 40.5474 252.098 42.3814 253.275C43.5058 253.929 44.6138 254.602 45.1651 256.237Z" fill="#C4B0B8"/>
</g>
</g>
<path fill-rule="evenodd" clip-rule="evenodd" d="M181.535 36.9069C179.898 37.1329 177.715 37.127 177.07 35.0214C176.301 32.4817 177.9 29.5553 179.554 27.9196C181.967 25.5404 186.153 23.9999 189.379 24.7255C190.97 25.0143 192.532 25.4643 194.046 26.0698C195.012 26.4921 195.885 26.7181 196.387 27.7828C197.419 29.9657 195.127 32.6779 193.942 34.2303C192.638 35.9433 190.667 37.7456 188.598 38.1203C186.724 38.5384 184.802 38.6407 182.9 38.4236C182.027 38.2928 180.995 38.0965 181.535 36.9069Z" fill="#FF8142"/>
<path fill-rule="evenodd" clip-rule="evenodd" d="M184.052 46.8512C183.317 45.7195 182.405 44.7387 181.356 43.9546C181.031 44.1835 180.681 44.3655 180.313 44.4958C180.084 44.5732 179.636 44.4958 179.478 44.7219C179.008 45.3821 179.685 46.5836 180.056 47.0475C180.673 47.8207 181.481 48.1241 182.278 48.5702C182.707 48.8803 183.23 48.9935 183.735 48.8854C183.726 48.5647 183.825 48.2514 184.014 48.0051L184.052 46.8512Z" fill="#FF8142"/>
<path fill-rule="evenodd" clip-rule="evenodd" d="M110.507 99.6819C109.773 98.5483 108.86 97.5656 107.811 96.7793C107.487 97.0092 107.136 97.1912 106.768 97.3206C106.539 97.4038 106.091 97.3206 105.933 97.5525C105.464 98.2068 106.14 99.4083 106.512 99.8722C107.134 100.645 107.936 100.949 108.733 101.395C109.162 101.705 109.686 101.818 110.19 101.71C110.182 101.39 110.281 101.077 110.469 100.83L110.507 99.6819Z" fill="#FF8142"/>
<path fill-rule="evenodd" clip-rule="evenodd" d="M208.751 23.5422C208.254 23.3816 207.31 23.2924 206.939 22.8403C206.567 22.3883 206.606 20.9905 206.611 20.36C206.588 19.7718 206.725 19.1894 207.006 18.6864C207.287 18.1835 207.699 17.7827 208.189 17.5348C209.197 17.0018 210.358 16.9228 211.42 17.3147C213.311 18.1232 215.114 19.1564 216.796 20.3957C217.653 20.9905 218.947 22.4596 218.86 23.7206C218.739 25.4634 216.916 25.6239 215.705 25.8202C213.985 26.0998 212.353 25.7132 210.661 25.4039C209.351 25.166 207.932 24.8091 207.288 23.3935L208.751 23.5422Z" fill="#FF8142"/>
<path fill-rule="evenodd" clip-rule="evenodd" d="M82.2704 164.471C81.8908 165.07 81.3855 165.562 80.7966 165.905C79.3556 165.37 78.253 164.924 77.1941 163.526C75.9387 161.872 74.787 159.41 75.2837 157.203C75.4857 156.323 76.097 154.58 76.8393 154.045C77.5817 153.509 78.9463 153.89 79.6941 154.193C81.1569 154.788 82.4232 156.9 82.969 158.458C83.2515 159.246 83.4351 160.073 83.5149 160.915C83.5749 162.17 82.969 163.092 82.6252 164.257L82.2704 164.471Z" fill="#FF8142"/>
<path fill-rule="evenodd" clip-rule="evenodd" d="M64.3236 153.004C63.5766 151.783 62.5389 150.807 61.3216 150.179C61.0214 150.887 60.2681 151.369 60.3336 152.279C60.5499 153.147 60.9759 153.935 61.5672 154.563C62.1098 154.852 62.6961 155.031 63.2975 155.092C63.4912 155.081 63.678 155.01 63.8359 154.887C63.9938 154.764 64.1163 154.595 64.1891 154.399C64.2618 154.203 64.2818 153.988 64.2467 153.78C64.2115 153.572 64.1227 153.379 63.9907 153.225L64.3236 153.004Z" fill="#FF8142"/>
<path fill-rule="evenodd" clip-rule="evenodd" d="M123.639 344.73C122.893 343.51 121.855 342.535 120.637 341.911C120.337 342.613 119.589 343.101 119.649 344.005C119.869 344.874 120.296 345.664 120.888 346.295C121.428 346.584 122.013 346.761 122.613 346.818C122.807 346.808 122.994 346.738 123.152 346.616C123.31 346.494 123.433 346.325 123.506 346.129C123.579 345.933 123.599 345.719 123.563 345.511C123.528 345.303 123.439 345.111 123.306 344.956L123.639 344.73Z" fill="#FF8142"/>
<path fill-rule="evenodd" clip-rule="evenodd" d="M100.125 94.4946C98.4873 94.1555 96.7897 94.0306 95.507 92.7102C94.1206 91.2708 94.6173 89.7957 95.507 88.1659C96.4841 86.3816 99.0986 84.9481 100.802 84.1273C102.505 83.3065 105.239 82.5689 106.97 83.3957C110.277 84.9719 108.973 88.9154 106.849 90.9436C106.26 91.5027 105.687 92.1332 105.075 92.6685C104.251 93.3644 103.307 93.5072 102.346 93.8581C101.386 94.2091 100.452 94.7206 99.4371 94.7801C98.5349 94.7535 97.6411 94.5832 96.7843 94.2745L100.125 94.4946Z" fill="#FF8142"/>
<path fill-rule="evenodd" clip-rule="evenodd" d="M115.571 333.174C113.595 331.502 112.487 330.669 111.494 328.261C110.763 326.476 110.25 324.543 109.665 322.723C109.081 320.903 107.193 316.882 108.994 315.128C111.177 312.986 115.086 315.532 117.182 316.49C119.278 317.447 121.477 318.791 122.973 320.653C124.337 322.372 125.544 323.466 125.566 325.858C125.566 327.695 125.598 329.801 124.512 331.306C123.306 332.983 121.63 333.441 119.742 333.245C118.011 333.114 116.641 332.519 115.571 333.174Z" fill="#FF8142"/>
<path fill-rule="evenodd" clip-rule="evenodd" d="M105.583 316.133C106.549 315.383 107.024 315.335 106.811 314.223C106.643 313.693 106.35 313.221 105.96 312.855C105.585 312.651 105.169 312.554 104.75 312.575C104.332 312.596 103.925 312.733 103.569 312.974C102.936 313.396 102.363 314.086 103.023 314.878C103.378 315.318 104.977 316.121 105.392 315.77L105.583 316.133Z" fill="#FF8142"/>
<path fill-rule="evenodd" clip-rule="evenodd" d="M81.5279 153.153C82.494 152.398 82.9689 152.35 82.756 151.238C82.588 150.71 82.2942 150.24 81.9045 149.876C81.5308 149.669 81.1144 149.571 80.6955 149.59C80.2767 149.61 79.8696 149.748 79.5138 149.989C78.8806 150.417 78.3075 151.101 78.9679 151.892C79.3227 152.333 80.922 153.136 81.3368 152.791L81.5279 153.153Z" fill="#FF8142"/>
<path fill-rule="evenodd" clip-rule="evenodd" d="M59.2914 309.916C58.1233 308.852 56.6277 307.841 55.8909 306.383C55.4946 305.533 55.15 304.654 54.8592 303.754C54.3134 302.214 53.9095 300.281 54.4062 298.633C55.1485 296.177 56.7696 296.504 58.1233 298.187C59.5588 299.971 61.2727 301.893 61.6603 304.331C61.8622 305.592 62.2771 309.435 59.8809 308.495L59.2914 309.916Z" fill="#FF8142"/>
<path fill-rule="evenodd" clip-rule="evenodd" d="M219.695 235.116C218.355 234.016 216.674 233.533 215.011 233.771C211.529 234.188 214.635 237.614 215.672 239C216.818 240.528 217.986 243.116 219.695 244.133L219.695 235.116Z" fill="#FF8142"/>
<path fill-rule="evenodd" clip-rule="evenodd" d="M149.059 61.6858C148.649 60.8174 147.285 57.1475 146.171 55.8628C145.625 55.268 144.959 54.7505 144.386 54.1914C143.132 52.8808 141.576 51.9642 139.883 51.5386C139.16 51.4088 138.418 51.4973 137.738 51.7944C137.012 52.2345 136.783 53.4896 136.777 54.3936C136.777 55.7379 137.596 56.8264 138.202 57.9148C139.162 59.8066 140.537 61.4105 142.203 62.5839C143.229 63.2561 147.781 65.0285 148.06 62.3579L149.059 61.6858Z" fill="#FF8142"/>
<path fill-rule="evenodd" clip-rule="evenodd" d="M109.261 135.874C108.121 137.808 108.044 137.956 106.019 137.992C103.803 138.034 101.985 136.903 100.266 135.482C99.0379 134.465 97.3568 131.645 99.4965 130.48C101.189 129.558 104.578 130.795 106.298 131.378C108.35 132.074 109.387 133.65 110.462 135.571L109.261 135.874Z" fill="#FF8142"/>
<path fill-rule="evenodd" clip-rule="evenodd" d="M207.577 248.237C204.94 247.868 203.587 247.571 201.895 245.299C201.412 244.578 201.081 243.751 200.922 242.875C200.764 242 200.783 241.098 200.978 240.231C201.655 237.572 203.947 238.215 205.683 239.363C207.173 240.338 208.494 241.605 208.494 243.598C208.529 243.988 208.488 244.382 208.374 244.754C208.261 245.126 208.076 245.467 207.833 245.757C207.02 246.536 206.005 245.917 205.35 246.726L207.577 248.237Z" fill="#FFCE42"/>
<path fill-rule="evenodd" clip-rule="evenodd" d="M219.695 158.322C216.299 160.202 215.797 164.972 218.226 168.13C218.68 168.694 219.171 169.221 219.695 169.707L219.695 158.322Z" fill="#FFCE42"/>
<path fill-rule="evenodd" clip-rule="evenodd" d="M144.889 312.766C145.953 312.904 147.032 312.697 147.989 312.171C147.913 311.029 148.633 309.965 148.709 308.763C148.813 307.109 148.005 305.789 147.127 304.504C146.248 303.22 144.228 301.691 142.76 302.892C141.384 304.017 141.122 306.61 141.439 308.192C141.756 309.774 142.46 310.922 143.278 312.356L144.889 312.766Z" fill="#FFCE42"/>
<path fill-rule="evenodd" clip-rule="evenodd" d="M74.5307 275.931C74.6235 274.402 75.1857 271.172 73.1279 270.649C71.9652 270.351 71.3648 271.315 70.8736 272.195C70.6136 272.573 70.4398 273.013 70.3667 273.478C70.2936 273.944 70.3233 274.421 70.4533 274.872C70.8681 276.216 71.9271 276.109 72.5657 277.096L73.0296 276.936L74.5307 275.931Z" fill="#FFCE42"/>
<path fill-rule="evenodd" clip-rule="evenodd" d="M186.557 313.646C183.828 313.324 180.755 312.498 182.993 309.191C183.866 307.894 184.014 308.043 185.351 308.459C186.574 308.84 187.109 309.119 187.496 310.642L187.136 311.011L186.557 313.646Z" fill="#FFCE42"/>
<path style="mix-blend-mode:screen" fill-rule="evenodd" clip-rule="evenodd" d="M36.5245 118.661C17.0874 118.28 0.745153 153.486 0.0246616 197.346C-0.69583 241.206 14.4674 277.048 33.9045 277.405C53.3416 277.762 69.6838 242.556 70.4043 198.72C71.1248 154.884 55.9561 119.041 36.5245 118.661Z" fill="url(#paint1_radial)"/>
<g style="mix-blend-mode:soft-light">
<g style="mix-blend-mode:soft-light">
<path fill-rule="evenodd" clip-rule="evenodd" d="M135.418 148.473C135.385 148.782 135.369 150.62 134.943 151.09C134.603 151.373 134.238 151.616 133.851 151.815C133.144 152.26 132.353 152.522 131.538 152.582C130.724 152.642 129.907 152.498 129.152 152.16C127.798 151.522 126.539 150.67 125.413 149.632C124.741 149.079 124.185 148.479 124.168 147.491C124.103 143.964 128.873 145.142 130.718 145.618C131.81 145.885 134.168 145.659 134.664 147.111L135.418 148.473Z" fill="#FFFE90"/>
</g>
<g style="mix-blend-mode:soft-light">
<path fill-rule="evenodd" clip-rule="evenodd" d="M156.541 163.937C159.784 165.31 162.545 167.618 165.52 169.569C168.495 171.52 171.41 173.138 174.057 175.517C176.765 177.852 179.253 180.474 181.486 183.345C184.76 187.787 187.489 192.676 189.602 197.887C190.47 199.999 191.125 202.206 192.037 204.299C192.468 205.287 192.637 206.321 193.003 207.327C192.517 208.023 191.513 207.267 190.989 206.976C189.924 206.381 188.969 205.144 188.025 204.335C186.933 203.395 185.896 202.384 184.826 201.408C182.299 199.204 179.876 196.862 177.567 194.39C174.898 191.416 172.496 188.067 169.925 184.951C167.54 182.036 164.756 179.562 162.322 176.695C160.684 174.738 158.85 173.049 157.584 170.747C157.087 169.837 156.296 168.873 156.17 167.773C156.143 167.267 156.383 166.084 156.541 163.937Z" fill="#FFFE90"/>
</g>
<g style="mix-blend-mode:soft-light">
<path fill-rule="evenodd" clip-rule="evenodd" d="M196.235 205.584C196.59 206.851 197.212 208.475 197.277 209.867C197.313 210.739 197.473 211.6 197.752 212.418C198.429 214.442 199.455 216.306 200.776 217.908C201.164 218.396 206.235 225.64 206.748 221.798C207.042 219.597 206.104 216.962 205.11 215.13C203.984 212.961 202.664 210.919 201.169 209.034C200.528 208.166 199.768 207.412 198.915 206.797C198.637 206.613 198.5 206.393 198.167 206.518C197.834 206.643 197.643 206.845 196.235 205.584Z" fill="#FFFE90"/>
</g>
<g style="mix-blend-mode:soft-light">
<path fill-rule="evenodd" clip-rule="evenodd" d="M195.312 213.704C195.312 214.429 195.356 215.155 195.416 215.875C195.186 215.476 195.416 215.226 195.35 214.828C195.28 214.238 195.131 213.663 194.908 213.121C194.679 212.562 193.631 211.366 192.916 211.901C191.567 212.901 194.16 215.53 194.832 215.904L195.312 213.704Z" fill="#FFFE90"/>
</g>
<g style="mix-blend-mode:soft-light">
<path fill-rule="evenodd" clip-rule="evenodd" d="M202.768 348.228C203.723 347.633 203.702 347.799 204.018 346.996C204.388 345.884 204.612 344.721 204.684 343.541C204.902 341.161 204.995 337.932 203.429 335.957C201.862 333.982 198.794 334.958 198.156 337.486C197.81 339.193 197.716 340.95 197.877 342.69C197.865 344.259 198.086 345.82 198.532 347.312C198.717 347.86 199.021 348.351 199.418 348.743C199.816 349.135 200.295 349.415 200.814 349.56C201.133 349.632 201.464 349.615 201.776 349.511C202.088 349.407 202.371 349.22 202.599 348.965C203.03 348.418 202.965 347.538 202.768 348.228Z" fill="#FFFE90"/>
</g>
<g style="mix-blend-mode:soft-light">
<path fill-rule="evenodd" clip-rule="evenodd" d="M171.121 114.783C174.685 115.836 177.125 118.506 179.559 121.463C180.247 122.295 184.259 127.179 181.775 127.88C180.329 128.285 178.5 126.756 177.376 126.007C175.591 124.817 173.915 123.532 172.218 122.206C168.861 119.577 165.482 117.008 162.033 114.533C160.684 113.564 159.194 112.749 157.972 111.619C157.426 111.119 156.88 110.685 157.142 109.864C157.688 108.282 159.746 108.776 160.963 108.936C163.181 109.274 165.3 110.159 167.158 111.524C168.279 112.441 169.465 113.258 170.706 113.968C171.59 114.42 172.169 115.051 171.121 114.783Z" fill="#FFFE90"/>
</g>
<g style="mix-blend-mode:soft-light">
<path fill-rule="evenodd" clip-rule="evenodd" d="M152.224 105.695L152.148 105.445C152.999 104.85 152.475 102.566 152.098 101.799C151.734 100.993 151.295 100.23 150.788 99.5211C150.15 98.6824 149.151 98.5337 148.179 98.498C146.449 98.4386 144.102 99.4676 145.772 101.472C147.301 103.292 149.205 104.952 151.514 105.041L152.224 105.695Z" fill="#FFFE90"/>
</g>
<g style="mix-blend-mode:soft-light">
<path fill-rule="evenodd" clip-rule="evenodd" d="M140.183 98.3901C138.047 98.1045 136.01 97.2439 134.255 95.886C133.246 95.0771 131.963 93.1559 132.198 91.7225C132.601 89.2362 135.664 88.3797 137.656 88.6771C140.74 89.141 143.289 92.5076 143.982 95.6302C144.146 96.3916 144.408 97.3849 143.982 98.0867C143.556 98.7886 142.295 99.1098 141.58 98.967L140.183 98.3901Z" fill="#FFFE90"/>
</g>
<g style="mix-blend-mode:soft-light">
<path fill-rule="evenodd" clip-rule="evenodd" d="M128.049 86.6494C128.442 86.7386 131.215 87.5238 130.778 85.9654C130.467 84.8472 129.141 84.6926 128.338 84.3833C127.793 84.181 126.925 83.5149 126.701 84.4427C126.537 85.0851 127.345 86.013 127.645 86.5483L128.049 86.6494Z" fill="#FFFE90"/>
</g>
<g style="mix-blend-mode:soft-light">
<path fill-rule="evenodd" clip-rule="evenodd" d="M111.281 226.723C110.964 227.27 111.035 227.264 110.642 227.401C110.278 227.52 109.898 227.574 109.518 227.562C108.447 227.452 107.426 227.013 106.576 226.295C105.708 225.67 104.873 224.939 104.043 224.261C103.213 223.583 102.198 223.071 101.314 222.435C100.133 221.58 99.0208 220.617 97.9899 219.556C96.8982 218.467 95.8775 217.48 95.2607 215.987C95.0587 215.482 94.7149 214.47 95.1188 213.965C95.5882 213.37 96.6635 213.483 97.2366 213.781C97.6041 214.006 97.9561 214.261 98.29 214.542C98.7649 214.893 99.2725 215.19 99.731 215.565C100.703 216.283 101.634 217.064 102.52 217.902C103.841 219.265 105.026 220.983 106.619 221.989C107.591 222.583 108.612 222.863 109.441 223.702C110.173 224.427 111.215 225.617 111.281 226.723Z" fill="#FFFE90"/>
</g>
<g style="mix-blend-mode:soft-light">
<path fill-rule="evenodd" clip-rule="evenodd" d="M94.7371 219.063C95.1301 219.009 95.3212 219.104 95.3867 218.759C95.4522 218.414 95.1684 218.028 95.0374 217.76C94.8203 217.198 94.563 216.655 94.2677 216.136C94.0528 215.843 93.8073 215.577 93.5363 215.345C93.1384 214.962 92.7048 214.625 92.2427 214.34C92.1777 214.297 92.1051 214.269 92.0296 214.258C91.9541 214.248 91.8774 214.254 91.8044 214.278C91.7314 214.301 91.6637 214.341 91.6057 214.395C91.5477 214.449 91.5007 214.515 91.4676 214.59C91.0419 215.333 91.9861 216.672 92.4174 217.153C92.802 217.623 93.2219 218.057 93.6728 218.45C93.9457 218.664 94.3824 219.199 94.7154 219.265L94.7371 219.063Z" fill="#FFFE90"/>
</g>
<g style="mix-blend-mode:soft-light">
<path fill-rule="evenodd" clip-rule="evenodd" d="M88.2742 204.264C88.0723 204.49 87.8703 204.859 87.5701 204.859C87.2336 204.839 86.9012 204.769 86.5822 204.651C85.4126 204.423 84.2903 203.968 83.269 203.306C82.8203 203.059 82.3864 202.781 81.9699 202.474C81.5769 202.152 81.2549 201.736 80.8782 201.391C80.5016 201.046 80.0813 200.737 79.7101 200.374C79.2578 199.878 78.7745 199.417 78.2637 198.994C76.1374 197.538 74.1738 195.817 72.4124 193.867C71.7792 193.117 70.8458 192.083 70.6439 191.036C70.5238 190.441 70.4201 189.81 71.0642 189.608C71.8993 189.352 72.7017 189.703 73.4658 190.054C74.4836 190.604 75.4536 191.253 76.3642 191.993C77.5978 192.868 78.7986 193.778 79.9831 194.747C81.1675 195.717 82.1664 196.585 83.258 197.483C84.9685 198.82 86.5455 200.349 87.9631 202.045C88.6782 202.973 89.1257 203.794 88.2742 204.264Z" fill="#FFFE90"/>
</g>
<g style="mix-blend-mode:soft-light">
<path fill-rule="evenodd" clip-rule="evenodd" d="M89.1694 192.779C89.1366 191.458 88.8255 190.209 87.5319 189.805C87.0352 189.644 86.5549 189.567 86.5439 190.251C86.5439 191.44 87.7775 193.427 88.9674 193.326L89.1694 192.779Z" fill="#FFFE90"/>
</g>
<g style="mix-blend-mode:soft-light">
<path fill-rule="evenodd" clip-rule="evenodd" d="M102.657 140.431C102.979 141.026 104.12 142.566 103.864 143.542C103.789 143.821 103.619 144.059 103.389 144.207C103.158 144.354 102.885 144.399 102.624 144.333C101.429 144.059 100.441 142.941 99.5132 142.174C98.0886 140.984 96.7841 139.64 95.3212 138.551C93.6837 137.362 92.1227 136.047 90.4087 134.929C88.9682 133.954 87.4834 133.059 85.9602 132.246C85.2615 131.884 84.5956 131.455 83.9351 131.021C83.2987 130.657 82.7064 130.207 82.1721 129.683C81.4571 128.898 80.5837 127.69 80.6929 126.507C80.8894 124.365 84.4264 124.752 85.6763 125.097C87.2445 125.49 88.7446 126.155 90.1194 127.066C91.5221 128.115 92.8487 129.28 94.0876 130.551C95.1411 131.58 96.2164 132.538 97.3081 133.525C98.2172 134.285 99.0746 135.116 99.8735 136.011C100.73 137.023 101.511 138.063 102.33 139.134C103.148 140.205 103.361 141.037 102.657 140.431Z" fill="#FFFE90"/>
</g>
<g style="mix-blend-mode:soft-light">
<path fill-rule="evenodd" clip-rule="evenodd" d="M96.926 128.148C96.5057 127.702 96.069 127.28 95.6214 126.876C95.4631 126.911 95.3594 126.804 95.1575 126.745C94.8778 126.68 94.5866 126.709 94.3223 126.828C93.902 126.965 93.6837 127.161 93.8147 127.685C94.0222 128.535 94.8245 128.963 95.5123 129.308C95.878 129.493 97.0843 129.974 97.1498 129.13L96.926 128.148Z" fill="#FFFE90"/>
</g>
</g>
<defs>
<radialGradient id="paint0_radial" cx="0" cy="0" r="1" gradientUnits="userSpaceOnUse" gradientTransform="translate(301.79 230.945) rotate(-119.31) scale(289.447 277.553)">
<stop stop-color="#FF5731"/>
<stop offset="0.7" stop-color="#BA005E"/>
<stop offset="0.95" stop-color="#5E1377"/>
<stop offset="1" stop-color="#8160FF"/>
</radialGradient>
<radialGradient id="paint1_radial" cx="0" cy="0" r="1" gradientUnits="userSpaceOnUse" gradientTransform="translate(359703 -137076) rotate(-88.9485) scale(10244.3 9334.85)">
<stop stop-color="#2C6AFF"/>
<stop offset="0.09" stop-color="#2559D6"/>
<stop offset="0.23" stop-color="#1B429E"/>
<stop offset="0.36" stop-color="#132E6E"/>
<stop offset="0.5" stop-color="#0C1D46"/>
<stop offset="0.63" stop-color="#071027"/>
<stop offset="0.76" stop-color="#030712"/>
<stop offset="0.89" stop-color="#010204"/>
<stop offset="1"/>
</radialGradient>
</defs>
</svg>
