<svg width="177" height="373" viewBox="0 0 177 373" fill="none" xmlns="http://www.w3.org/2000/svg">
<path fill-rule="evenodd" clip-rule="evenodd" d="M63.4813 267.683C63.6296 267.684 63.7747 267.637 63.8984 267.548C64.0221 267.459 64.1187 267.332 64.1761 267.183C64.2334 267.034 64.2489 266.87 64.2206 266.712C64.1922 266.553 64.1213 266.407 64.0168 266.293C63.9123 266.178 63.779 266.1 63.6337 266.068C63.4884 266.036 63.3376 266.052 63.2006 266.114C63.0636 266.175 62.9464 266.28 62.864 266.414C62.7815 266.548 62.7376 266.706 62.7376 266.868C62.7375 267.083 62.8158 267.29 62.9551 267.443C63.0945 267.595 63.2836 267.682 63.4813 267.683Z" fill="#B5EAFF"/>
<path fill-rule="evenodd" clip-rule="evenodd" d="M142.943 271.877C143.091 271.877 143.235 271.829 143.358 271.74C143.481 271.65 143.577 271.523 143.634 271.374C143.691 271.225 143.705 271.061 143.677 270.903C143.648 270.744 143.576 270.599 143.472 270.485C143.367 270.371 143.234 270.293 143.089 270.262C142.943 270.23 142.793 270.246 142.656 270.308C142.519 270.37 142.402 270.474 142.32 270.609C142.238 270.743 142.194 270.9 142.194 271.062C142.194 271.278 142.273 271.485 142.413 271.638C142.554 271.791 142.744 271.877 142.943 271.877Z" fill="#B5EAFF"/>
<path fill-rule="evenodd" clip-rule="evenodd" d="M134.899 164.361C135.048 164.361 135.192 164.313 135.316 164.223C135.439 164.133 135.535 164.005 135.591 163.856C135.648 163.707 135.662 163.542 135.633 163.384C135.604 163.226 135.532 163.08 135.427 162.967C135.322 162.853 135.188 162.775 135.042 162.745C134.897 162.714 134.746 162.731 134.61 162.793C134.473 162.856 134.356 162.961 134.275 163.096C134.193 163.23 134.15 163.389 134.151 163.55C134.151 163.657 134.17 163.763 134.208 163.861C134.246 163.96 134.301 164.05 134.37 164.125C134.44 164.2 134.522 164.26 134.613 164.3C134.704 164.341 134.801 164.361 134.899 164.361Z" fill="#B5EAFF"/>
<path fill-rule="evenodd" clip-rule="evenodd" d="M20.0177 320.619C20.1657 320.619 20.3104 320.571 20.4335 320.481C20.5566 320.392 20.6525 320.264 20.7092 320.115C20.7658 319.966 20.7806 319.802 20.7517 319.644C20.7229 319.486 20.6516 319.341 20.5469 319.227C20.4422 319.113 20.3089 319.035 20.1637 319.003C20.0185 318.972 19.8681 318.988 19.7313 319.05C19.5946 319.112 19.4777 319.216 19.3954 319.35C19.3132 319.484 19.2693 319.642 19.2693 319.803C19.2687 319.911 19.2876 320.017 19.325 320.116C19.3624 320.215 19.4175 320.306 19.4871 320.382C19.5568 320.457 19.6395 320.517 19.7306 320.558C19.8217 320.599 19.9192 320.62 20.0177 320.619Z" fill="#B5EAFF"/>
<path fill-rule="evenodd" clip-rule="evenodd" d="M22.3136 128.94C22.4616 128.94 22.6063 128.892 22.7294 128.803C22.8525 128.713 22.9484 128.586 23.005 128.437C23.0617 128.288 23.0765 128.124 23.0476 127.966C23.0188 127.807 22.9475 127.662 22.8428 127.548C22.7382 127.434 22.6048 127.356 22.4596 127.325C22.3144 127.293 22.1639 127.309 22.0272 127.371C21.8904 127.433 21.7735 127.537 21.6913 127.672C21.6091 127.806 21.5652 127.963 21.5652 128.125C21.5652 128.341 21.6441 128.548 21.7844 128.701C21.9248 128.854 22.1151 128.94 22.3136 128.94Z" fill="#B5EAFF"/>
<path fill-rule="evenodd" clip-rule="evenodd" d="M29.6642 258.521C29.8124 258.521 29.9573 258.473 30.0805 258.383C30.2037 258.293 30.2996 258.165 30.3561 258.016C30.4126 257.867 30.4271 257.703 30.3979 257.544C30.3686 257.386 30.2969 257.241 30.1917 257.127C30.0866 257.013 29.9528 256.936 29.8074 256.905C29.6619 256.874 29.5113 256.891 29.3746 256.953C29.2379 257.016 29.1213 257.121 29.0397 257.256C28.958 257.391 28.9149 257.549 28.9158 257.71C28.9158 257.817 28.9352 257.923 28.9728 258.022C29.0105 258.12 29.0657 258.21 29.1353 258.285C29.2048 258.36 29.2874 258.42 29.3781 258.46C29.4689 258.501 29.5661 258.521 29.6642 258.521Z" fill="#B5EAFF"/>
<path fill-rule="evenodd" clip-rule="evenodd" d="M116.05 281.09C116.198 281.09 116.343 281.042 116.466 280.952C116.59 280.862 116.686 280.734 116.742 280.585C116.799 280.436 116.813 280.271 116.784 280.113C116.755 279.955 116.683 279.809 116.578 279.696C116.473 279.582 116.339 279.504 116.193 279.474C116.048 279.443 115.897 279.46 115.761 279.522C115.624 279.585 115.507 279.69 115.426 279.825C115.344 279.959 115.301 280.118 115.302 280.279C115.302 280.386 115.321 280.492 115.359 280.59C115.396 280.689 115.452 280.779 115.521 280.854C115.591 280.929 115.673 280.989 115.764 281.029C115.855 281.07 115.952 281.09 116.05 281.09Z" fill="#B5EAFF"/>
<path fill-rule="evenodd" clip-rule="evenodd" d="M28.4911 243.892C28.6391 243.892 28.7838 243.844 28.9069 243.754C29.03 243.665 29.1259 243.537 29.1825 243.388C29.2391 243.239 29.254 243.075 29.2251 242.917C29.1963 242.759 29.125 242.614 29.0203 242.5C28.9156 242.386 28.7823 242.308 28.6371 242.276C28.4919 242.245 28.3414 242.261 28.2047 242.323C28.0679 242.385 27.951 242.489 27.8688 242.623C27.7866 242.757 27.7427 242.915 27.7427 243.076C27.7427 243.293 27.8215 243.5 27.9619 243.653C28.1023 243.806 28.2926 243.892 28.4911 243.892Z" fill="#B5EAFF"/>
<path fill-rule="evenodd" clip-rule="evenodd" d="M0.000167847 8.30491C7.2748 8.27022 14.5432 8.77481 21.7549 9.81518C26.2177 10.4747 30.6666 11.3254 35.074 12.3877C58.1447 17.9249 79.8027 28.9645 98.4904 44.7125C168.8 103.769 181.865 213.772 127.669 290.373C124.04 295.511 120.147 300.42 116.009 305.078C101.347 321.629 83.8365 334.869 64.4776 344.044C45.1186 353.218 24.2905 358.146 3.18327 358.547C2.12532 358.547 1.072 358.577 0.0140662 358.577L0.000167847 8.30491Z" fill="url(#paint0_radial)"/>
<g style="mix-blend-mode:multiply" opacity="0.58">
<g style="mix-blend-mode:multiply" opacity="0.58">
<path fill-rule="evenodd" clip-rule="evenodd" d="M6.38514 119.656C6.38514 119.259 6.38519 118.896 6.66238 118.69C7.05968 118.398 7.62329 118.624 8.21001 119.093C9.10626 119.807 9.59595 120.462 9.36034 121.212C9.20789 121.675 8.43637 121.917 7.84965 121.831C7.53769 121.766 7.24273 121.627 6.98574 121.423C6.7775 121.26 6.6069 121.047 6.48744 120.8C6.36797 120.552 6.30292 120.278 6.29739 119.999L6.38514 119.656Z" fill="#9CBDFF"/>
</g>
<g style="mix-blend-mode:multiply" opacity="0.58">
<path fill-rule="evenodd" clip-rule="evenodd" d="M44.8682 128.894C44.7434 128.612 44.5494 128.29 44.614 128.078C44.6645 127.976 44.7376 127.89 44.8266 127.827C45.2378 127.55 46.2125 128.33 46.7068 128.753C48.0327 129.86 49.3632 131.406 49.8807 132.851C50.2133 133.772 50.2734 134.955 49.6728 135.368C48.8412 135.967 47.1873 135.313 45.9307 134.527C44.7573 133.792 43.2328 132.574 42.8031 131.325C42.7153 131.139 42.6634 130.934 42.6507 130.725C42.638 130.515 42.6647 130.305 42.7292 130.107C42.8539 129.865 43.1265 129.76 43.2835 129.548C43.4406 129.337 43.4499 128.823 43.8656 128.718C44.2084 128.671 44.5563 128.732 44.8682 128.894Z" fill="#9CBDFF"/>
</g>
<g style="mix-blend-mode:multiply" opacity="0.58">
<path fill-rule="evenodd" clip-rule="evenodd" d="M52.837 135.484C52.5922 135.67 52.6014 135.716 52.6799 136.083C52.7165 136.257 52.7892 136.42 52.8925 136.559C52.9958 136.698 53.127 136.809 53.2759 136.884C53.8349 137.226 54.4216 137.09 54.4216 136.602C54.3337 136.183 54.1127 135.812 53.7979 135.555C53.6533 135.402 53.4742 135.293 53.2786 135.24C53.0831 135.187 52.8781 135.191 52.6846 135.253L52.837 135.484Z" fill="#9CBDFF"/>
</g>
<g style="mix-blend-mode:multiply" opacity="0.58">
<path fill-rule="evenodd" clip-rule="evenodd" d="M49.5937 163.062C49.2554 162.679 49.0371 162.189 48.9701 161.662C48.9377 161.38 48.9701 161.209 49.2011 161.128C49.8063 160.927 50.9705 161.199 51.7558 161.607C52.3667 161.933 52.8937 162.419 53.2896 163.021C53.5328 163.512 53.7131 164.038 53.8255 164.582C53.9508 165.013 54.0542 165.452 54.1351 165.896C54.2829 166.646 54.3014 167.371 53.5437 167.462C52.6547 167.477 51.7903 167.143 51.1091 166.52C50.6298 166.073 50.2182 165.546 49.8894 164.96C49.5152 164.396 49.1641 163.922 49.5937 163.062Z" fill="#9CBDFF"/>
</g>
<g style="mix-blend-mode:multiply" opacity="0.58">
<path fill-rule="evenodd" clip-rule="evenodd" d="M48.31 158.848C48.7083 159.155 49.1396 159.409 49.5943 159.603C49.6636 159.472 49.9362 159.603 49.9593 159.396C49.9916 159.109 49.4557 158.752 49.2201 158.566C48.9385 158.334 48.6081 158.184 48.2592 158.128C48.1483 158.128 47.6632 158.062 47.9081 158.304L48.31 158.848Z" fill="#9CBDFF"/>
</g>
<g style="mix-blend-mode:multiply" opacity="0.58">
<path fill-rule="evenodd" clip-rule="evenodd" d="M23.4 113.469C23.363 112.966 23.3214 112.392 23.9867 112.432C24.6519 112.472 25.3357 113.187 25.7237 113.751C25.927 114.048 26.1857 114.391 26.0656 114.622C25.9276 114.844 25.773 115.052 25.6036 115.246C25.271 115.75 25.7699 116.757 24.7628 116.641C24.2099 116.543 23.694 116.276 23.2752 115.871C23.018 115.582 22.8254 115.232 22.7124 114.849C22.5995 114.465 22.5691 114.059 22.6238 113.661L23.4 113.469Z" fill="#9CBDFF"/>
</g>
<g style="mix-blend-mode:multiply" opacity="0.58">
<path fill-rule="evenodd" clip-rule="evenodd" d="M0.000133038 59.5625C0.499913 60.0124 0.884967 60.5949 1.11815 61.254C1.363 62.3213 0.785505 62.5226 0.000133268 62.432L0.000133038 59.5625Z" fill="#9CBDFF"/>
</g>
<g style="mix-blend-mode:multiply" opacity="0.58">
<path fill-rule="evenodd" clip-rule="evenodd" d="M8.99482 227.61C8.99482 226.221 8.94862 226.1 9.91878 225.561C10.658 225.138 11.3694 224.554 12.4736 224.67C13.9334 224.821 15.1623 226.115 16.5252 226.981C17.5923 227.655 18.1791 228.078 18.715 229.221C19.209 230.309 19.5219 231.483 19.6389 232.69C19.7466 234.252 19.3498 235.806 18.5171 237.083C17.6844 238.36 16.4683 239.279 15.0792 239.682C13.2728 240.251 10.9213 240.649 8.35728 239.179C6.22754 237.945 4.26877 235.846 3.60813 233.767C2.9475 231.688 3.60808 229.971 4.88778 229.06C5.22503 228.869 5.5623 228.677 5.89493 228.481C6.23478 228.161 6.52358 227.782 6.74959 227.358C7.12841 226.971 7.74284 226.895 8.99482 227.61Z" fill="#9CBDFF"/>
</g>
<g style="mix-blend-mode:multiply" opacity="0.58">
<path fill-rule="evenodd" clip-rule="evenodd" d="M7.7938 221.252C9.49852 221.645 9.23984 221.605 10.016 220.93C10.3532 220.633 10.635 220.739 10.7551 220.291C10.9076 219.747 10.2931 218.544 9.58167 218.02C9.02729 217.608 7.73376 217.588 7.34569 217.673C6.72663 217.804 6.69429 218.131 6.70353 218.771L7.7938 221.252Z" fill="#9CBDFF"/>
</g>
<g style="mix-blend-mode:multiply" opacity="0.58">
<path fill-rule="evenodd" clip-rule="evenodd" d="M64.6785 111.375C64.6785 109.442 65.7087 108.193 67.0254 107.202C67.8616 106.572 68.8225 105.621 70.4395 106.386C74.2277 108.178 73.4793 114.743 73.0635 116.686C72.741 118.326 71.9067 119.794 70.7028 120.839C69.9683 121.423 68.0094 122.179 66.6235 121.63C64.8356 120.92 63.6483 118.952 63.3065 117.467C62.5165 114.043 64.6046 112.256 65.0573 109.497L64.6785 111.375Z" fill="#9CBDFF"/>
</g>
<g style="mix-blend-mode:multiply" opacity="0.58">
<path fill-rule="evenodd" clip-rule="evenodd" d="M62.8302 110.313C62.5253 109.996 61.1301 108.702 60.7882 108.073C60.5433 107.62 60.1553 106.915 60.2523 106.562C60.3863 106.059 61.0747 106.024 61.6383 106.109C62.1297 106.187 62.5842 106.438 62.9318 106.824C63.1197 107.158 63.2379 107.533 63.2783 107.922C63.3822 108.452 63.4164 108.997 63.3799 109.538C63.4028 109.787 63.3904 110.038 63.343 110.283C63.2229 110.62 62.881 110.484 62.6177 110.615L62.8302 110.313Z" fill="#9CBDFF"/>
</g>
<g style="mix-blend-mode:multiply" opacity="0.58">
<path fill-rule="evenodd" clip-rule="evenodd" d="M18.9781 271.62C18.4099 270.553 17.1902 268.695 18.0542 268.096C18.4515 267.814 19.0336 267.774 19.4817 267.552C19.8589 267.366 20.2042 267.11 20.5027 266.797C21.0702 266.274 21.7975 266.003 22.5401 266.037C23.1175 266.087 23.3208 266.712 23.3947 267.185C23.5308 267.65 23.5145 268.151 23.3485 268.605C23.0401 269.062 22.8043 269.572 22.6509 270.115C22.6001 270.336 22.6878 270.648 22.6186 270.875C22.5117 271.157 22.3547 271.414 22.1566 271.63C21.7593 272.108 20.498 272.592 18.9781 271.62Z" fill="#9CBDFF"/>
</g>
<g style="mix-blend-mode:multiply" opacity="0.58">
<path fill-rule="evenodd" clip-rule="evenodd" d="M20.5259 261.843C20.4646 261.871 20.4095 261.913 20.3645 261.967C20.3195 262.02 20.2855 262.083 20.2649 262.152C20.2443 262.221 20.2376 262.293 20.2451 262.365C20.2527 262.437 20.2744 262.506 20.3087 262.568C21.5607 263.575 23.1361 262.337 22.1983 261.058C21.1172 259.573 20.0916 260.65 20.1286 261.521L20.5259 261.843Z" fill="#9CBDFF"/>
</g>
<g style="mix-blend-mode:multiply" opacity="0.58">
<path fill-rule="evenodd" clip-rule="evenodd" d="M41.1723 252.782C41.2139 253.19 41.1954 253.854 41.7775 254.216C41.8704 254.281 41.9755 254.32 42.0848 254.333C42.1941 254.345 42.3046 254.33 42.4076 254.288C42.5105 254.246 42.6031 254.179 42.6782 254.091C42.7532 254.004 42.8086 253.898 42.8401 253.784C43.1496 253.033 41.4541 252.661 41.2324 253.144L41.1723 252.782Z" fill="#9CBDFF"/>
</g>
<g style="mix-blend-mode:multiply" opacity="0.58">
<path fill-rule="evenodd" clip-rule="evenodd" d="M53.4103 256.668C53.4103 256.27 53.4103 255.908 53.6921 255.701C54.0894 255.409 54.6484 255.636 55.2352 256.104C56.1314 256.819 56.6211 257.473 56.3855 258.223C56.2377 258.686 55.4615 258.928 54.8748 258.842C54.5619 258.778 54.2666 258.637 54.0109 258.43C53.8025 258.268 53.6321 258.056 53.5133 257.809C53.3945 257.562 53.3307 257.289 53.3272 257.01L53.4103 256.668Z" fill="#9CBDFF"/>
</g>
<g style="mix-blend-mode:multiply" opacity="0.58">
<path fill-rule="evenodd" clip-rule="evenodd" d="M91.8938 265.906C91.7691 265.624 91.575 265.301 91.6397 265.09C91.6904 264.987 91.7653 264.9 91.8568 264.838C92.2633 264.561 93.2428 265.342 93.7325 265.765C95.063 266.872 96.3889 268.418 96.9063 269.863C97.2389 270.784 97.299 271.967 96.6984 272.38C95.8715 272.979 94.2175 272.324 92.9563 271.539C91.7829 270.804 90.2583 269.586 89.8287 268.337C89.7408 268.15 89.689 267.946 89.6763 267.736C89.6635 267.527 89.6903 267.317 89.7548 267.119C89.8795 266.877 90.1521 266.771 90.3092 266.56C90.4662 266.349 90.4755 265.835 90.8913 265.729C91.234 265.683 91.5819 265.744 91.8938 265.906Z" fill="#9CBDFF"/>
</g>
<g style="mix-blend-mode:multiply" opacity="0.58">
<path fill-rule="evenodd" clip-rule="evenodd" d="M99.8671 272.495C99.6222 272.681 99.6268 272.727 99.7053 273.094C99.7428 273.268 99.8159 273.43 99.9191 273.569C100.022 273.708 100.153 273.819 100.301 273.895C100.865 274.237 101.452 274.101 101.452 273.613C101.362 273.194 101.139 272.823 100.823 272.566C100.68 272.412 100.502 272.303 100.307 272.249C100.112 272.196 99.9073 272.201 99.7146 272.264L99.8671 272.495Z" fill="#9CBDFF"/>
</g>
<g style="mix-blend-mode:multiply" opacity="0.58">
<path fill-rule="evenodd" clip-rule="evenodd" d="M70.4255 250.481C70.3885 249.978 70.3469 249.404 71.0122 249.444C71.6775 249.484 72.3612 250.199 72.7493 250.763C72.9572 251.06 73.2112 251.402 73.0911 251.634C72.9534 251.856 72.7989 252.064 72.6291 252.258C72.2965 252.761 72.7955 253.768 71.7884 253.653C71.2366 253.556 70.7219 253.288 70.3054 252.882C70.0468 252.594 69.8529 252.245 69.7391 251.861C69.6253 251.478 69.5946 251.071 69.6494 250.672L70.4255 250.481Z" fill="#9CBDFF"/>
</g>
<g style="mix-blend-mode:multiply" opacity="0.58">
<path fill-rule="evenodd" clip-rule="evenodd" d="M44.1011 196.599C44.1473 197.128 44.1011 198.044 44.7478 198.658C45.2653 199.162 45.6025 199.101 46.1338 199.247C47.2888 199.57 48.4945 199.721 48.1573 198.24C47.8325 197.374 47.2671 196.64 46.5403 196.141C45.9305 195.728 44.6462 195.386 44.5169 195.985L44.1011 196.599Z" fill="#9CBDFF"/>
</g>
<g style="mix-blend-mode:multiply" opacity="0.58">
<path fill-rule="evenodd" clip-rule="evenodd" d="M111.712 248.387C111.712 246.448 112.747 245.205 114.059 244.213C114.895 243.584 115.856 242.627 117.473 243.393C121.261 245.19 120.513 251.755 120.097 253.698C119.778 255.34 118.943 256.808 117.736 257.851C117.002 258.435 115.048 259.19 113.657 258.641C111.874 257.932 110.682 255.963 110.34 254.478C109.55 251.055 111.638 249.268 112.091 246.509L111.712 248.387Z" fill="#9CBDFF"/>
</g>
<g style="mix-blend-mode:multiply" opacity="0.58">
<path fill-rule="evenodd" clip-rule="evenodd" d="M109.869 247.309C109.564 246.992 108.169 245.698 107.827 245.064C107.587 244.616 107.194 243.911 107.291 243.554C107.425 243.05 108.113 243.015 108.677 243.101C109.167 243.179 109.62 243.43 109.966 243.815C110.155 244.149 110.275 244.524 110.317 244.913C110.417 245.444 110.45 245.988 110.414 246.529C110.439 246.778 110.427 247.029 110.377 247.274C110.257 247.611 109.915 247.475 109.656 247.606L109.869 247.309Z" fill="#9CBDFF"/>
</g>
<g style="mix-blend-mode:multiply" opacity="0.58">
<path fill-rule="evenodd" clip-rule="evenodd" d="M75.6594 135.026C75.7009 135.434 75.6593 136.098 76.2645 136.466C76.3572 136.529 76.462 136.568 76.5708 136.58C76.6796 136.591 76.7893 136.576 76.8916 136.534C76.9939 136.492 77.0861 136.425 77.1608 136.338C77.2355 136.251 77.2908 136.147 77.3225 136.033C77.632 135.278 75.9365 134.905 75.7148 135.388L75.6594 135.026Z" fill="#9CBDFF"/>
</g>
<g style="mix-blend-mode:multiply" opacity="0.58">
<path fill-rule="evenodd" clip-rule="evenodd" d="M87.8976 138.937C87.8976 138.54 87.8976 138.177 88.1748 137.971C88.5721 137.679 89.1357 137.905 89.7225 138.373C90.6187 139.088 91.1084 139.743 90.8728 140.498C90.7203 140.956 89.9489 141.203 89.3622 141.112C89.0495 141.049 88.7541 140.91 88.4982 140.704C88.29 140.541 88.1194 140.328 87.9999 140.08C87.8805 139.833 87.8154 139.559 87.8098 139.28L87.8976 138.937Z" fill="#9CBDFF"/>
</g>
<g style="mix-blend-mode:multiply" opacity="0.58">
<path fill-rule="evenodd" clip-rule="evenodd" d="M126.38 148.176C126.255 147.894 126.061 147.577 126.126 147.36C126.175 147.259 126.249 147.173 126.339 147.113C126.75 146.831 127.725 147.617 128.219 148.035C129.545 149.142 130.875 150.688 131.393 152.133C131.725 153.054 131.785 154.237 131.185 154.65C130.353 155.254 128.699 154.594 127.443 153.809C126.269 153.079 124.745 151.856 124.315 150.607C124.227 150.42 124.175 150.216 124.163 150.006C124.15 149.797 124.177 149.587 124.241 149.389C124.366 149.147 124.638 149.047 124.796 148.83C124.953 148.614 124.962 148.105 125.378 147.999C125.72 147.955 126.068 148.016 126.38 148.176Z" fill="#9CBDFF"/>
</g>
<g style="mix-blend-mode:multiply" opacity="0.58">
<path fill-rule="evenodd" clip-rule="evenodd" d="M134.35 154.765C134.105 154.951 134.114 155.001 134.192 155.364C134.228 155.539 134.3 155.702 134.403 155.841C134.507 155.98 134.639 156.091 134.788 156.164C135.347 156.512 135.934 156.376 135.934 155.887C135.846 155.468 135.626 155.095 135.31 154.835C135.166 154.682 134.987 154.574 134.791 154.521C134.596 154.468 134.391 154.472 134.197 154.533L134.35 154.765Z" fill="#9CBDFF"/>
</g>
<g style="mix-blend-mode:multiply" opacity="0.58">
<path fill-rule="evenodd" clip-rule="evenodd" d="M104.912 132.75C104.875 132.247 104.834 131.673 105.499 131.713C106.164 131.754 106.848 132.469 107.236 133.032C107.439 133.329 107.698 133.672 107.578 133.903C107.44 134.125 107.285 134.334 107.116 134.528C106.783 135.031 107.282 136.038 106.275 135.922C105.724 135.825 105.209 135.558 104.792 135.152C104.534 134.864 104.34 134.514 104.226 134.131C104.112 133.747 104.081 133.34 104.136 132.942L104.912 132.75Z" fill="#9CBDFF"/>
</g>
<g style="mix-blend-mode:multiply" opacity="0.58">
<path fill-rule="evenodd" clip-rule="evenodd" d="M146.2 130.656C146.2 128.723 147.23 127.475 148.546 126.483C149.383 125.854 150.344 124.902 151.96 125.667C155.749 127.46 155 134.024 154.585 135.973C154.261 137.611 153.427 139.076 152.224 140.121C151.489 140.71 149.53 141.46 148.145 140.911C146.357 140.201 145.169 138.233 144.827 136.748C144.037 133.325 146.126 131.537 146.578 128.779L146.2 130.656Z" fill="#9CBDFF"/>
</g>
<g style="mix-blend-mode:multiply" opacity="0.58">
<path fill-rule="evenodd" clip-rule="evenodd" d="M144.356 129.578C144.051 129.261 142.656 127.967 142.314 127.338C142.069 126.885 141.681 126.18 141.778 125.828C141.912 125.324 142.601 125.284 143.164 125.37C143.656 125.449 144.111 125.702 144.458 126.09C144.645 126.422 144.763 126.795 144.804 127.182C144.906 127.715 144.94 128.26 144.906 128.803C144.929 129.05 144.916 129.3 144.869 129.543C144.749 129.88 144.407 129.745 144.144 129.875L144.356 129.578Z" fill="#9CBDFF"/>
</g>
<g style="mix-blend-mode:multiply" opacity="0.58">
<path fill-rule="evenodd" clip-rule="evenodd" d="M68.8357 97.7875L70.1431 98.3615C70.2633 98.0242 70.6513 97.8329 70.3695 97.3093C70.0151 96.819 69.5695 96.4158 69.0621 96.1263C68.517 95.8494 68.0504 95.8343 67.8425 96.1716C67.6346 96.5089 67.9995 97.1381 68.4661 97.6365L68.8357 97.7875Z" fill="#9CBDFF"/>
</g>
<g style="mix-blend-mode:multiply" opacity="0.58">
<path fill-rule="evenodd" clip-rule="evenodd" d="M30.0293 41.4949C30.1032 40.9915 30.2279 40.6944 30.8516 40.77C31.3262 40.8342 31.78 41.0201 32.1759 41.3123C32.5718 41.6046 32.8985 41.995 33.1292 42.4514C33.7251 43.715 33.9931 45.6582 33.1292 46.2673C32.5886 46.6449 31.1427 46.3982 30.5652 45.4115C30.2347 44.8889 29.9516 44.3325 29.7197 43.7502C29.6076 43.3943 29.5702 43.0156 29.6102 42.6418C29.6502 42.2681 29.7665 41.9088 29.9507 41.5905L30.0293 41.4949Z" fill="#9CBDFF"/>
</g>
</g>
<path fill-rule="evenodd" clip-rule="evenodd" d="M0.000129647 277.45C23.5058 288.087 54.3617 301.212 71.2472 304.997L75.613 290.539L110.617 286.809C110.617 286.809 129.277 236.904 127.646 187.166L137.348 183.008C137.348 183.008 164.831 216.299 170.611 242.487L149.262 293.288L141.871 291.309C141.871 291.309 74.3425 379.645 9.31374 371.812C9.31374 371.812 5.30371 366.747 0.0140062 356.321L0.000129647 277.45Z" fill="url(#paint1_linear)"/>
<path fill-rule="evenodd" clip-rule="evenodd" d="M40.5716 43.3079L47.2057 83.7026L108.964 129.761L114.54 108.874L127.217 114.341C127.217 114.341 125.637 77.2185 59.767 32.3735L40.5716 43.3079Z" fill="url(#paint2_linear)"/>
<path fill-rule="evenodd" clip-rule="evenodd" d="M21.769 9.83532L28.052 0.959966L66.2904 12.146L85.2871 35.0467C85.2871 35.0467 49.257 12.4632 21.769 9.83532Z" fill="url(#paint3_linear)"/>
<path fill-rule="evenodd" clip-rule="evenodd" d="M128.265 78.0245L128.011 99.0977L138.364 140.519L159.033 155.526L176.344 152.959C176.344 152.959 178.478 112.756 153.282 65.5396L128.265 78.0245Z" fill="url(#paint4_linear)"/>
<path fill-rule="evenodd" clip-rule="evenodd" d="M153.281 65.5435L150.103 119.717L176.344 152.943C176.344 152.943 180.746 114.944 153.281 65.5435Z" fill="#573DAE"/>
<path fill-rule="evenodd" clip-rule="evenodd" d="M139.732 186.023L141.788 271.852L149.249 293.307L170.597 242.507C170.597 242.507 166.707 213.575 139.732 186.023Z" fill="#573DAE"/>
<path fill-rule="evenodd" clip-rule="evenodd" d="M127.337 151.896L144.051 186.27L156.086 187.075L154.668 164.91L133.481 142.1L127.337 151.896Z" fill="url(#paint5_linear)"/>
<path fill-rule="evenodd" clip-rule="evenodd" d="M156.086 187.075L136.369 155.566L133.481 142.1L154.668 164.91L156.086 187.075Z" fill="#573DAE"/>
<g style="mix-blend-mode:multiply">
<path fill-rule="evenodd" clip-rule="evenodd" d="M0.0139084 274.439L72.5637 299.641L71.261 305.012L74.7905 342.91L32.8794 302.324L0.013909 281.684L0.0139084 274.439Z" fill="#A972B0"/>
</g>
<path fill-rule="evenodd" clip-rule="evenodd" d="M0.0140953 188.375L37.6704 205.637L62.4465 268.273L48.989 287.292L0.0141009 258.35L0.0140953 188.375Z" fill="url(#paint6_linear)"/>
<path fill-rule="evenodd" clip-rule="evenodd" d="M0.0143394 149.308L9.81299 160.972L5.31328 172.591L0.014341 169.062L0.0143394 149.308Z" fill="url(#paint7_linear)"/>
<g style="mix-blend-mode:soft-light">
<path fill-rule="evenodd" clip-rule="evenodd" d="M0.0141592 196.363L2.98931 198.498L7.30884 261.26L0.0141641 257.635L0.0141592 196.363Z" fill="#A99AF4"/>
</g>
<g style="mix-blend-mode:soft-light" opacity="0.88">
<path fill-rule="evenodd" clip-rule="evenodd" d="M0.0138087 165.795L5.31274 172.592L0.013809 169.063L0.0138087 165.795Z" fill="#A99AF4"/>
</g>
<g style="mix-blend-mode:multiply">
<path fill-rule="evenodd" clip-rule="evenodd" d="M0.0140953 186.491L51.4467 206.915L62.4465 268.272L33.8036 211.531L2.98924 198.498L0.0140961 196.363L0.0140953 186.491Z" fill="#A972B0"/>
</g>
<g style="mix-blend-mode:multiply">
<path fill-rule="evenodd" clip-rule="evenodd" d="M0.0138035 148.548L18.4238 164.019L5.31274 172.592L0.0138049 165.796L0.0138035 148.548Z" fill="#A972B0"/>
</g>
<path fill-rule="evenodd" clip-rule="evenodd" d="M123.951 311.859L122.62 283.677L125.577 254.041L135.958 294.888L123.951 311.859Z" fill="#573DAE"/>
<path fill-rule="evenodd" clip-rule="evenodd" d="M124.251 112.146L114.55 108.874L108.973 129.761L53.6971 81.402L46.0144 43.5848L59.7722 32.3887C59.7722 32.3887 86.8399 43.615 105.01 64.2201C123.179 84.8252 124.251 112.146 124.251 112.146Z" fill="#5729AE"/>
<g style="mix-blend-mode:soft-light" opacity="0.88">
<path fill-rule="evenodd" clip-rule="evenodd" d="M47.2059 83.7028L53.6875 81.4021L46.0047 43.585L40.5718 43.3081L47.2059 83.7028Z" fill="#A99AF4"/>
</g>
<g style="mix-blend-mode:multiply">
<path fill-rule="evenodd" clip-rule="evenodd" d="M75.6135 290.559L116.014 305.078L110.618 286.829L75.6135 290.559Z" fill="#A972B0"/>
</g>
<path d="M0.0136623 335.037L5.90858 350.431L25.5706 371.615L25.0624 372.174L5.34954 350.935L0.0136625 337.025L0.0136623 335.037Z" fill="#00E7F4"/>
<path d="M0.0140686 300.174L35.998 320.714L75.6731 352.319L75.2434 352.958L35.6191 321.379L0.0140687 301.06L0.0140686 300.174Z" fill="#00E7F4"/>
<path d="M33.4892 328.356L6.34763 310.816L4.34726 313.646L4.3842 313.827L11.4433 348.019L34.5471 370.653L35.0322 370.069L12.0947 347.602L5.12336 313.832L6.52781 311.848L33.078 329L66.3593 358.204L66.812 357.589L33.4892 328.356Z" fill="#00E7F4"/>
<path d="M118.028 316.647L100.902 308.929L100.75 309.02L85.689 318.202L86.1417 345.115L86.8671 345.1L86.4235 318.66L100.948 309.8L117.746 317.377L118.028 316.647Z" fill="#00E7F4"/>
<path d="M115.566 320.059L105.975 317.069L105.832 317.175L97.2526 323.684L97.2388 323.86L95.8482 337.583L96.5643 337.669L97.9364 324.127L106.104 317.93L115.362 320.814L115.566 320.059Z" fill="#00E7F4"/>
<path d="M0.0138779 214.013L5.57612 221.313L49.2798 287.06L48.6977 287.523L5.00789 221.801L0.013878 215.247L0.0138779 214.013Z" fill="#00E7F4"/>
<path d="M38.0309 205.602L37.3102 205.672L39.1073 227.168L55.5862 277.621L56.2654 277.36L39.8049 226.952L38.0309 205.602Z" fill="#00E7F4"/>
<path d="M46.6327 45.1704L46.1384 45.7443L112.923 114.285L113.422 113.717L46.6327 45.1704Z" fill="#00E7F4"/>
<path d="M109.855 126.911L61.5363 87.7647L61.1021 88.3939L109.426 127.54L109.855 126.911Z" fill="#00E7F4"/>
<defs>
<radialGradient id="paint0_radial" cx="0" cy="0" r="1" gradientUnits="userSpaceOnUse" gradientTransform="translate(-59.0455 206.109) rotate(40.0333) scale(228.585 232.82)">
<stop stop-color="#B840C7"/>
<stop offset="0.7" stop-color="#750088"/>
<stop offset="0.95" stop-color="#5E1377"/>
<stop offset="1" stop-color="#8160FF"/>
</radialGradient>
<linearGradient id="paint1_linear" x1="143.294" y1="188.243" x2="-2.66272" y2="361.983" gradientUnits="userSpaceOnUse">
<stop stop-color="#4F0E6F"/>
<stop offset="1" stop-color="#450086"/>
</linearGradient>
<linearGradient id="paint2_linear" x1="422466" y1="-8552.35" x2="422466" y2="-18325.2" gradientUnits="userSpaceOnUse">
<stop stop-color="#4F0E6F"/>
<stop offset="1" stop-color="#450086"/>
</linearGradient>
<linearGradient id="paint3_linear" x1="317347" y1="-1726.59" x2="317347" y2="-3609.54" gradientUnits="userSpaceOnUse">
<stop stop-color="#4F0E6F"/>
<stop offset="1" stop-color="#450086"/>
</linearGradient>
<linearGradient id="paint4_linear" x1="228161" y1="-1709.92" x2="228161" y2="-14098.4" gradientUnits="userSpaceOnUse">
<stop stop-color="#4F0E6F"/>
<stop offset="1" stop-color="#450086"/>
</linearGradient>
<linearGradient id="paint5_linear" x1="134299" y1="-7338.74" x2="134299" y2="-9835.35" gradientUnits="userSpaceOnUse">
<stop stop-color="#4F0E6F"/>
<stop offset="1" stop-color="#450086"/>
</linearGradient>
<linearGradient id="paint6_linear" x1="298696" y1="-38678.4" x2="298696" y2="-52098.5" gradientUnits="userSpaceOnUse">
<stop stop-color="#4F0E6F"/>
<stop offset="1" stop-color="#450086"/>
</linearGradient>
<linearGradient id="paint7_linear" x1="48160.4" y1="-8067.15" x2="48160.4" y2="-8931.66" gradientUnits="userSpaceOnUse">
<stop stop-color="#4F0E6F"/>
<stop offset="1" stop-color="#450086"/>
</linearGradient>
</defs>
</svg>
