<svg width="177" height="373" viewBox="0 0 177 373" fill="none" xmlns="http://www.w3.org/2000/svg">
<path fill-rule="evenodd" clip-rule="evenodd" d="M113.122 105.441C112.973 105.44 112.828 105.487 112.705 105.576C112.581 105.665 112.484 105.792 112.427 105.941C112.37 106.09 112.354 106.254 112.382 106.413C112.411 106.571 112.482 106.717 112.586 106.832C112.691 106.946 112.824 107.024 112.969 107.056C113.115 107.088 113.265 107.072 113.402 107.011C113.539 106.949 113.657 106.845 113.739 106.71C113.821 106.576 113.865 106.418 113.865 106.257C113.865 106.041 113.787 105.835 113.648 105.682C113.509 105.529 113.319 105.443 113.122 105.441Z" fill="#B5EAFF"/>
<path fill-rule="evenodd" clip-rule="evenodd" d="M33.6605 101.248C33.5125 101.248 33.3678 101.296 33.2447 101.385C33.1217 101.475 33.0257 101.602 32.9691 101.751C32.9124 101.9 32.8976 102.064 32.9265 102.222C32.9554 102.381 33.0267 102.526 33.1313 102.64C33.236 102.754 33.3693 102.832 33.5145 102.863C33.6597 102.895 33.8102 102.879 33.947 102.817C34.0837 102.755 34.2006 102.651 34.2828 102.516C34.3651 102.382 34.4089 102.225 34.4089 102.063C34.4089 101.847 34.3301 101.64 34.1897 101.487C34.0494 101.334 33.859 101.248 33.6605 101.248Z" fill="#B5EAFF"/>
<path fill-rule="evenodd" clip-rule="evenodd" d="M41.704 208.763C41.5558 208.763 41.4109 208.811 41.2877 208.901C41.1645 208.991 41.0686 209.119 41.0121 209.268C40.9556 209.417 40.941 209.582 40.9703 209.74C40.9995 209.898 41.0713 210.044 41.1764 210.157C41.2815 210.271 41.4154 210.349 41.5608 210.379C41.7063 210.41 41.8569 210.393 41.9936 210.331C42.1303 210.268 42.2468 210.163 42.3285 210.028C42.4102 209.894 42.4533 209.735 42.4524 209.574C42.4524 209.467 42.433 209.361 42.3953 209.263C42.3576 209.164 42.3025 209.074 42.2329 208.999C42.1633 208.924 42.0808 208.864 41.99 208.824C41.8992 208.783 41.802 208.763 41.704 208.763Z" fill="#B5EAFF"/>
<path fill-rule="evenodd" clip-rule="evenodd" d="M156.585 52.5056C156.437 52.5056 156.293 52.5535 156.17 52.6431C156.046 52.7327 155.951 52.8601 155.894 53.0091C155.837 53.1581 155.822 53.3221 155.851 53.4803C155.88 53.6385 155.951 53.7838 156.056 53.8978C156.161 54.0119 156.294 54.0896 156.439 54.121C156.585 54.1525 156.735 54.1364 156.872 54.0746C157.008 54.0129 157.125 53.9084 157.208 53.7743C157.29 53.6401 157.334 53.4825 157.334 53.3212C157.334 53.2139 157.315 53.1075 157.278 53.0083C157.241 52.909 157.186 52.8189 157.116 52.743C157.046 52.6671 156.964 52.6071 156.872 52.5663C156.781 52.5256 156.684 52.505 156.585 52.5056Z" fill="#B5EAFF"/>
<path fill-rule="evenodd" clip-rule="evenodd" d="M154.289 244.184C154.141 244.184 153.997 244.232 153.874 244.322C153.751 244.411 153.655 244.539 153.598 244.688C153.541 244.837 153.527 245.001 153.555 245.159C153.584 245.317 153.656 245.463 153.76 245.577C153.865 245.691 153.998 245.768 154.143 245.8C154.289 245.831 154.439 245.815 154.576 245.753C154.713 245.692 154.829 245.587 154.912 245.453C154.994 245.319 155.038 245.161 155.038 245C155.038 244.784 154.959 244.576 154.819 244.423C154.678 244.27 154.488 244.184 154.289 244.184Z" fill="#B5EAFF"/>
<path fill-rule="evenodd" clip-rule="evenodd" d="M146.939 114.603C146.791 114.603 146.646 114.651 146.523 114.741C146.399 114.831 146.303 114.959 146.247 115.108C146.19 115.257 146.176 115.421 146.205 115.58C146.234 115.738 146.306 115.883 146.411 115.997C146.516 116.111 146.65 116.188 146.796 116.219C146.941 116.25 147.092 116.233 147.228 116.171C147.365 116.108 147.482 116.003 147.563 115.868C147.645 115.733 147.688 115.575 147.687 115.414C147.687 115.307 147.668 115.201 147.63 115.102C147.593 115.004 147.537 114.914 147.468 114.839C147.398 114.764 147.316 114.704 147.225 114.664C147.134 114.623 147.037 114.603 146.939 114.603Z" fill="#B5EAFF"/>
<path fill-rule="evenodd" clip-rule="evenodd" d="M60.5531 92.0349C60.4049 92.0349 60.26 92.0829 60.1368 92.1727C60.0136 92.2625 59.9177 92.3902 59.8612 92.5395C59.8047 92.6889 59.7902 92.8531 59.8194 93.0114C59.8487 93.1698 59.9204 93.3151 60.0255 93.4289C60.1307 93.5428 60.2644 93.6201 60.4099 93.651C60.5554 93.6819 60.706 93.665 60.8427 93.6025C60.9794 93.54 61.0959 93.4347 61.1776 93.2999C61.2593 93.1651 61.3024 93.0069 61.3015 92.8454C61.3015 92.7386 61.2821 92.6327 61.2444 92.5341C61.2068 92.4354 61.1516 92.3459 61.082 92.2705C61.0125 92.1952 60.9299 92.1356 60.8391 92.0952C60.7484 92.0547 60.6512 92.0343 60.5531 92.0349Z" fill="#B5EAFF"/>
<path fill-rule="evenodd" clip-rule="evenodd" d="M148.112 129.232C147.964 129.232 147.819 129.28 147.696 129.37C147.573 129.459 147.477 129.587 147.421 129.736C147.364 129.885 147.349 130.049 147.378 130.207C147.407 130.365 147.478 130.51 147.583 130.624C147.688 130.738 147.821 130.816 147.966 130.848C148.111 130.879 148.262 130.863 148.399 130.801C148.535 130.739 148.652 130.635 148.734 130.501C148.817 130.367 148.861 130.209 148.861 130.048C148.861 129.831 148.782 129.624 148.641 129.471C148.501 129.318 148.311 129.232 148.112 129.232Z" fill="#B5EAFF"/>
<path fill-rule="evenodd" clip-rule="evenodd" d="M176.603 364.821C169.328 364.855 162.06 364.351 154.848 363.31C150.385 362.651 145.936 361.8 141.529 360.738C118.458 355.201 96.8001 344.161 78.1124 328.413C7.80316 269.356 -5.26174 159.353 48.9335 82.7526C52.5624 77.6149 56.4555 72.7054 60.594 68.0476C75.2557 51.4969 92.7663 38.2561 112.125 29.0818C131.484 19.9075 152.312 14.9794 173.42 14.579C174.477 14.579 175.531 14.5488 176.589 14.5488L176.603 364.821Z" fill="url(#paint0_radial)"/>
<g style="mix-blend-mode:multiply" opacity="0.58">
<g style="mix-blend-mode:multiply" opacity="0.58">
<path fill-rule="evenodd" clip-rule="evenodd" d="M170.218 253.469C170.218 253.866 170.218 254.229 169.941 254.435C169.544 254.727 168.98 254.501 168.393 254.032C167.497 253.318 167.007 252.663 167.243 251.913C167.395 251.45 168.167 251.208 168.754 251.294C169.066 251.359 169.361 251.498 169.618 251.702C169.826 251.865 169.996 252.078 170.116 252.325C170.235 252.573 170.3 252.847 170.306 253.126L170.218 253.469Z" fill="#9CBDFF"/>
</g>
<g style="mix-blend-mode:multiply" opacity="0.58">
<path fill-rule="evenodd" clip-rule="evenodd" d="M131.735 244.231C131.86 244.513 132.054 244.835 131.989 245.047C131.938 245.149 131.865 245.235 131.776 245.298C131.365 245.575 130.391 244.795 129.896 244.372C128.57 243.265 127.24 241.719 126.722 240.274C126.39 239.353 126.33 238.17 126.93 237.757C127.762 237.158 129.416 237.812 130.672 238.598C131.846 239.333 133.37 240.551 133.8 241.8C133.888 241.986 133.94 242.191 133.952 242.4C133.965 242.61 133.938 242.82 133.874 243.018C133.749 243.26 133.477 243.365 133.319 243.577C133.162 243.788 133.153 244.302 132.737 244.407C132.395 244.454 132.047 244.393 131.735 244.231Z" fill="#9CBDFF"/>
</g>
<g style="mix-blend-mode:multiply" opacity="0.58">
<path fill-rule="evenodd" clip-rule="evenodd" d="M123.766 237.641C124.011 237.455 124.001 237.409 123.923 237.042C123.886 236.868 123.814 236.705 123.71 236.566C123.607 236.427 123.476 236.316 123.327 236.241C122.768 235.899 122.181 236.035 122.181 236.523C122.269 236.942 122.49 237.313 122.805 237.57C122.949 237.723 123.129 237.832 123.324 237.885C123.52 237.938 123.725 237.934 123.918 237.872L123.766 237.641Z" fill="#9CBDFF"/>
</g>
<g style="mix-blend-mode:multiply" opacity="0.58">
<path fill-rule="evenodd" clip-rule="evenodd" d="M127.01 210.063C127.348 210.446 127.566 210.936 127.633 211.463C127.666 211.745 127.633 211.916 127.402 211.997C126.797 212.198 125.633 211.926 124.847 211.518C124.237 211.192 123.71 210.706 123.314 210.104C123.07 209.613 122.89 209.087 122.778 208.543C122.652 208.112 122.549 207.673 122.468 207.229C122.32 206.479 122.302 205.754 123.06 205.663C123.949 205.648 124.813 205.982 125.494 206.605C125.973 207.052 126.385 207.579 126.714 208.165C127.088 208.729 127.439 209.203 127.01 210.063Z" fill="#9CBDFF"/>
</g>
<g style="mix-blend-mode:multiply" opacity="0.58">
<path fill-rule="evenodd" clip-rule="evenodd" d="M128.293 214.276C127.895 213.968 127.464 213.715 127.009 213.521C126.94 213.652 126.667 213.521 126.644 213.727C126.612 214.014 127.148 214.372 127.383 214.558C127.665 214.789 127.995 214.94 128.344 214.996C128.455 214.996 128.94 215.061 128.695 214.82L128.293 214.276Z" fill="#9CBDFF"/>
</g>
<g style="mix-blend-mode:multiply" opacity="0.58">
<path fill-rule="evenodd" clip-rule="evenodd" d="M153.203 259.655C153.24 260.159 153.282 260.733 152.616 260.692C151.951 260.652 151.267 259.937 150.879 259.373C150.676 259.076 150.417 258.734 150.537 258.502C150.675 258.281 150.83 258.072 150.999 257.878C151.332 257.375 150.833 256.368 151.84 256.484C152.393 256.581 152.909 256.849 153.328 257.254C153.585 257.543 153.778 257.893 153.891 258.276C154.004 258.659 154.034 259.066 153.979 259.464L153.203 259.655Z" fill="#9CBDFF"/>
</g>
<g style="mix-blend-mode:multiply" opacity="0.58">
<path fill-rule="evenodd" clip-rule="evenodd" d="M176.603 313.562C176.103 313.112 175.718 312.529 175.485 311.87C175.24 310.803 175.817 310.601 176.603 310.692V313.562Z" fill="#9CBDFF"/>
</g>
<g style="mix-blend-mode:multiply" opacity="0.58">
<path fill-rule="evenodd" clip-rule="evenodd" d="M167.608 145.514C167.608 146.903 167.654 147.024 166.684 147.563C165.945 147.986 165.234 148.57 164.129 148.454C162.67 148.303 161.441 147.009 160.078 146.143C159.011 145.469 158.424 145.046 157.888 143.903C157.394 142.815 157.081 141.641 156.964 140.434C156.856 138.872 157.253 137.318 158.086 136.041C158.919 134.764 160.135 133.845 161.524 133.442C163.33 132.873 165.682 132.475 168.246 133.945C170.375 135.179 172.334 137.278 172.995 139.357C173.656 141.436 172.995 143.153 171.715 144.064C171.378 144.255 171.041 144.447 170.708 144.643C170.368 144.963 170.079 145.342 169.853 145.766C169.475 146.153 168.86 146.229 167.608 145.514Z" fill="#9CBDFF"/>
</g>
<g style="mix-blend-mode:multiply" opacity="0.58">
<path fill-rule="evenodd" clip-rule="evenodd" d="M168.809 151.872C167.104 151.479 167.363 151.52 166.587 152.194C166.25 152.491 165.968 152.386 165.848 152.834C165.695 153.377 166.31 154.58 167.021 155.104C167.575 155.517 168.869 155.537 169.257 155.451C169.876 155.321 169.908 154.993 169.899 154.354L168.809 151.872Z" fill="#9CBDFF"/>
</g>
<g style="mix-blend-mode:multiply" opacity="0.58">
<path fill-rule="evenodd" clip-rule="evenodd" d="M111.924 261.749C111.924 263.682 110.894 264.931 109.578 265.922C108.741 266.552 107.781 267.503 106.164 266.738C102.375 264.946 103.124 258.381 103.539 256.438C103.862 254.798 104.696 253.33 105.9 252.285C106.635 251.701 108.594 250.945 109.98 251.494C111.767 252.204 112.955 254.172 113.297 255.658C114.087 259.081 111.998 260.868 111.546 263.627L111.924 261.749Z" fill="#9CBDFF"/>
</g>
<g style="mix-blend-mode:multiply" opacity="0.58">
<path fill-rule="evenodd" clip-rule="evenodd" d="M113.773 262.812C114.078 263.129 115.473 264.423 115.815 265.052C116.06 265.505 116.448 266.21 116.351 266.563C116.217 267.066 115.528 267.101 114.965 267.016C114.473 266.938 114.019 266.687 113.671 266.301C113.483 265.967 113.365 265.592 113.325 265.203C113.221 264.673 113.187 264.128 113.223 263.587C113.2 263.338 113.213 263.087 113.26 262.842C113.38 262.505 113.722 262.641 113.985 262.51L113.773 262.812Z" fill="#9CBDFF"/>
</g>
<g style="mix-blend-mode:multiply" opacity="0.58">
<path fill-rule="evenodd" clip-rule="evenodd" d="M157.625 101.505C158.193 102.572 159.413 104.43 158.549 105.029C158.152 105.311 157.57 105.351 157.122 105.573C156.744 105.759 156.399 106.015 156.101 106.328C155.533 106.851 154.806 107.122 154.063 107.088C153.486 107.038 153.282 106.413 153.209 105.94C153.072 105.475 153.089 104.974 153.255 104.52C153.563 104.063 153.799 103.553 153.952 103.01C154.003 102.789 153.915 102.477 153.985 102.25C154.092 101.968 154.249 101.711 154.447 101.495C154.844 101.017 156.105 100.533 157.625 101.505Z" fill="#9CBDFF"/>
</g>
<g style="mix-blend-mode:multiply" opacity="0.58">
<path fill-rule="evenodd" clip-rule="evenodd" d="M156.077 111.282C156.138 111.254 156.193 111.212 156.239 111.158C156.284 111.105 156.318 111.042 156.338 110.973C156.359 110.904 156.365 110.832 156.358 110.76C156.35 110.688 156.329 110.619 156.294 110.557C155.042 109.55 153.467 110.788 154.405 112.067C155.486 113.552 156.511 112.475 156.474 111.604L156.077 111.282Z" fill="#9CBDFF"/>
</g>
<g style="mix-blend-mode:multiply" opacity="0.58">
<path fill-rule="evenodd" clip-rule="evenodd" d="M135.431 120.343C135.389 119.935 135.408 119.27 134.826 118.908C134.733 118.844 134.628 118.804 134.518 118.792C134.409 118.779 134.299 118.795 134.196 118.837C134.093 118.879 134 118.946 133.925 119.033C133.85 119.121 133.795 119.226 133.763 119.341C133.454 120.091 135.149 120.464 135.371 119.98L135.431 120.343Z" fill="#9CBDFF"/>
</g>
<g style="mix-blend-mode:multiply" opacity="0.58">
<path fill-rule="evenodd" clip-rule="evenodd" d="M123.193 116.457C123.193 116.855 123.193 117.217 122.911 117.423C122.514 117.715 121.955 117.489 121.368 117.021C120.472 116.306 119.982 115.651 120.218 114.901C120.365 114.438 121.142 114.196 121.728 114.282C122.041 114.347 122.336 114.488 122.592 114.695C122.8 114.856 122.971 115.069 123.09 115.316C123.209 115.562 123.272 115.836 123.276 116.114L123.193 116.457Z" fill="#9CBDFF"/>
</g>
<g style="mix-blend-mode:multiply" opacity="0.58">
<path fill-rule="evenodd" clip-rule="evenodd" d="M84.7095 107.219C84.8342 107.501 85.0283 107.824 84.9636 108.035C84.9128 108.138 84.8379 108.225 84.7465 108.287C84.3399 108.564 83.3605 107.783 82.8708 107.36C81.5403 106.253 80.2144 104.707 79.697 103.262C79.3643 102.341 79.3043 101.158 79.9048 100.745C80.7318 100.146 82.3857 100.801 83.6469 101.586C84.8204 102.321 86.3449 103.539 86.7746 104.788C86.8624 104.975 86.9143 105.179 86.927 105.389C86.9397 105.598 86.913 105.808 86.8485 106.006C86.7237 106.248 86.4512 106.354 86.2941 106.565C86.137 106.776 86.1278 107.29 85.712 107.396C85.3692 107.442 85.0214 107.381 84.7095 107.219Z" fill="#9CBDFF"/>
</g>
<g style="mix-blend-mode:multiply" opacity="0.58">
<path fill-rule="evenodd" clip-rule="evenodd" d="M76.7359 100.629C76.9808 100.443 76.9762 100.397 76.8977 100.03C76.8602 99.856 76.7871 99.6937 76.6839 99.5551C76.5807 99.4165 76.45 99.3051 76.3017 99.2293C75.7381 98.887 75.1514 99.0229 75.1514 99.5112C75.2412 99.9299 75.4637 100.301 75.7797 100.558C75.9227 100.712 76.1011 100.821 76.2961 100.875C76.4912 100.928 76.6957 100.923 76.8884 100.86L76.7359 100.629Z" fill="#9CBDFF"/>
</g>
<g style="mix-blend-mode:multiply" opacity="0.58">
<path fill-rule="evenodd" clip-rule="evenodd" d="M106.178 122.644C106.215 123.147 106.256 123.721 105.591 123.681C104.926 123.64 104.242 122.925 103.854 122.362C103.646 122.065 103.392 121.722 103.512 121.491C103.65 121.269 103.804 121.06 103.974 120.866C104.307 120.363 103.808 119.356 104.815 119.472C105.366 119.569 105.881 119.836 106.298 120.242C106.556 120.53 106.75 120.88 106.864 121.263C106.978 121.647 107.008 122.054 106.954 122.452L106.178 122.644Z" fill="#9CBDFF"/>
</g>
<g style="mix-blend-mode:multiply" opacity="0.58">
<path fill-rule="evenodd" clip-rule="evenodd" d="M132.502 176.525C132.456 175.996 132.502 175.08 131.855 174.466C131.338 173.962 131.001 174.023 130.469 173.877C129.314 173.555 128.108 173.403 128.446 174.884C128.771 175.75 129.336 176.484 130.063 176.983C130.673 177.396 131.957 177.738 132.086 177.139L132.502 176.525Z" fill="#9CBDFF"/>
</g>
<g style="mix-blend-mode:multiply" opacity="0.58">
<path fill-rule="evenodd" clip-rule="evenodd" d="M64.8908 124.739C64.8908 126.677 63.8559 127.921 62.5439 128.912C61.7077 129.542 60.7468 130.498 59.1298 129.733C55.3416 127.936 56.09 121.371 56.5058 119.428C56.8248 117.786 57.6597 116.317 58.8665 115.275C59.6011 114.691 61.5553 113.935 62.9458 114.484C64.7291 115.194 65.921 117.162 66.2629 118.647C67.0529 122.071 64.9647 123.858 64.512 126.617L64.8908 124.739Z" fill="#9CBDFF"/>
</g>
<g style="mix-blend-mode:multiply" opacity="0.58">
<path fill-rule="evenodd" clip-rule="evenodd" d="M66.734 125.815C67.0389 126.132 68.4341 127.426 68.776 128.06C69.0162 128.508 69.4089 129.213 69.3119 129.57C69.1779 130.074 68.4896 130.109 67.9259 130.023C67.4361 129.945 66.9833 129.694 66.637 129.309C66.4478 128.975 66.3279 128.6 66.2859 128.211C66.1857 127.68 66.1531 127.136 66.1889 126.595C66.1637 126.346 66.1761 126.095 66.2258 125.85C66.3459 125.513 66.6878 125.649 66.9465 125.518L66.734 125.815Z" fill="#9CBDFF"/>
</g>
<g style="mix-blend-mode:multiply" opacity="0.58">
<path fill-rule="evenodd" clip-rule="evenodd" d="M100.943 238.099C100.902 237.691 100.943 237.026 100.338 236.659C100.246 236.596 100.141 236.557 100.032 236.545C99.9232 236.533 99.8135 236.549 99.7112 236.591C99.6088 236.632 99.5167 236.699 99.442 236.786C99.3673 236.873 99.312 236.978 99.2803 237.092C98.9708 237.847 100.666 238.219 100.888 237.736L100.943 238.099Z" fill="#9CBDFF"/>
</g>
<g style="mix-blend-mode:multiply" opacity="0.58">
<path fill-rule="evenodd" clip-rule="evenodd" d="M88.7054 234.187C88.7054 234.585 88.7054 234.947 88.4282 235.154C88.0309 235.446 87.4673 235.219 86.8806 234.751C85.9843 234.036 85.4946 233.382 85.7302 232.627C85.8827 232.169 86.6542 231.922 87.2409 232.013C87.5535 232.075 87.8489 232.215 88.1048 232.42C88.313 232.583 88.4836 232.797 88.6031 233.044C88.7225 233.291 88.7877 233.566 88.7932 233.845L88.7054 234.187Z" fill="#9CBDFF"/>
</g>
<g style="mix-blend-mode:multiply" opacity="0.58">
<path fill-rule="evenodd" clip-rule="evenodd" d="M50.2226 224.949C50.3474 225.231 50.5414 225.548 50.4767 225.765C50.4275 225.866 50.3541 225.952 50.2643 226.012C49.8531 226.294 48.8783 225.508 48.3839 225.09C47.0581 223.983 45.7275 222.437 45.2101 220.992C44.8775 220.071 44.8175 218.888 45.4181 218.475C46.2496 217.871 47.9035 218.531 49.1601 219.316C50.3335 220.046 51.8581 221.269 52.2877 222.518C52.3756 222.705 52.4275 222.909 52.4402 223.119C52.4529 223.328 52.4261 223.538 52.3616 223.736C52.2369 223.978 51.9643 224.078 51.8073 224.295C51.6502 224.511 51.6409 225.02 51.2252 225.126C50.8824 225.17 50.5351 225.109 50.2226 224.949Z" fill="#9CBDFF"/>
</g>
<g style="mix-blend-mode:multiply" opacity="0.58">
<path fill-rule="evenodd" clip-rule="evenodd" d="M42.2535 218.36C42.4984 218.173 42.4892 218.123 42.4106 217.761C42.3754 217.586 42.3032 217.422 42.1997 217.283C42.0962 217.144 41.9644 217.034 41.8147 216.96C41.2557 216.613 40.6689 216.749 40.6689 217.237C40.7566 217.657 40.9775 218.029 41.2926 218.289C41.4372 218.442 41.6164 218.551 41.8119 218.604C42.0075 218.657 42.2125 218.653 42.406 218.591L42.2535 218.36Z" fill="#9CBDFF"/>
</g>
<g style="mix-blend-mode:multiply" opacity="0.58">
<path fill-rule="evenodd" clip-rule="evenodd" d="M71.6909 240.375C71.7278 240.878 71.7694 241.452 71.1041 241.412C70.4389 241.372 69.7551 240.657 69.3671 240.093C69.1638 239.796 68.9051 239.454 69.0252 239.222C69.1633 239.001 69.3178 238.792 69.4872 238.598C69.8198 238.095 69.3209 237.088 70.328 237.203C70.8798 237.3 71.3945 237.568 71.811 237.974C72.0696 238.262 72.2634 238.611 72.3772 238.995C72.4911 239.378 72.5218 239.785 72.467 240.184L71.6909 240.375Z" fill="#9CBDFF"/>
</g>
<g style="mix-blend-mode:multiply" opacity="0.58">
<path fill-rule="evenodd" clip-rule="evenodd" d="M30.4035 242.469C30.4035 244.402 29.3733 245.65 28.0566 246.642C27.2204 247.271 26.2595 248.223 24.6425 247.458C20.8543 245.665 21.6027 239.101 22.0185 237.152C22.3424 235.514 23.1765 234.049 24.3792 233.004C25.1138 232.415 27.0726 231.665 28.4585 232.214C30.2464 232.924 31.4337 234.892 31.7756 236.377C32.5656 239.8 30.4774 241.588 30.0247 244.346L30.4035 242.469Z" fill="#9CBDFF"/>
</g>
<g style="mix-blend-mode:multiply" opacity="0.58">
<path fill-rule="evenodd" clip-rule="evenodd" d="M32.2468 243.546C32.5517 243.863 33.9469 245.157 34.2887 245.786C34.5336 246.239 34.9217 246.944 34.8246 247.297C34.6907 247.8 34.0023 247.84 33.4387 247.755C32.9469 247.675 32.4925 247.422 32.1452 247.035C31.9581 246.703 31.8398 246.33 31.7987 245.942C31.6969 245.41 31.6626 244.864 31.697 244.321C31.6742 244.074 31.6867 243.824 31.734 243.581C31.8541 243.244 32.196 243.38 32.4593 243.249L32.2468 243.546Z" fill="#9CBDFF"/>
</g>
<g style="mix-blend-mode:multiply" opacity="0.58">
<path fill-rule="evenodd" clip-rule="evenodd" d="M107.768 275.337L106.46 274.763C106.34 275.1 105.952 275.292 106.234 275.815C106.588 276.306 107.034 276.709 107.541 276.998C108.086 277.275 108.553 277.29 108.761 276.953C108.969 276.616 108.604 275.986 108.137 275.488L107.768 275.337Z" fill="#9CBDFF"/>
</g>
<g style="mix-blend-mode:multiply" opacity="0.58">
<path fill-rule="evenodd" clip-rule="evenodd" d="M146.574 331.63C146.5 332.133 146.375 332.43 145.751 332.355C145.277 332.29 144.823 332.104 144.427 331.812C144.031 331.52 143.705 331.13 143.474 330.673C142.878 329.41 142.61 327.466 143.474 326.857C144.014 326.48 145.46 326.726 146.038 327.713C146.368 328.236 146.651 328.792 146.883 329.374C146.995 329.73 147.033 330.109 146.993 330.483C146.953 330.856 146.837 331.216 146.652 331.534L146.574 331.63Z" fill="#9CBDFF"/>
</g>
</g>
<path fill-rule="evenodd" clip-rule="evenodd" d="M176.603 95.675C153.097 85.0377 122.242 71.9134 105.356 68.1277L100.99 82.586L65.9859 86.3164C65.9859 86.3164 47.3263 136.221 48.9571 185.959L39.2555 190.117C39.2555 190.117 11.7721 156.826 5.99268 130.638L27.341 79.8373L34.7327 81.8158C34.7327 81.8158 102.261 -6.5199 167.29 1.31337C167.29 1.31337 171.3 6.37781 176.589 16.8037L176.603 95.675Z" fill="url(#paint1_linear)"/>
<path fill-rule="evenodd" clip-rule="evenodd" d="M136.032 329.817L129.398 289.422L67.6397 243.364L62.0635 264.251L49.3867 258.784C49.3867 258.784 50.9667 295.906 116.836 340.751L136.032 329.817Z" fill="url(#paint2_linear)"/>
<path fill-rule="evenodd" clip-rule="evenodd" d="M154.834 363.29L148.551 372.165L110.313 360.979L91.3159 338.078C91.3159 338.078 127.346 360.662 154.834 363.29Z" fill="url(#paint3_linear)"/>
<path fill-rule="evenodd" clip-rule="evenodd" d="M48.3377 295.1L48.5919 274.027L38.2388 232.605L17.5697 217.598L0.259154 220.166C0.259154 220.166 -1.87525 260.369 23.3213 307.585L48.3377 295.1Z" fill="url(#paint4_linear)"/>
<path fill-rule="evenodd" clip-rule="evenodd" d="M23.3217 307.581L26.5001 253.408L0.259492 220.182C0.259492 220.182 -4.14325 258.18 23.3217 307.581Z" fill="#573DAE"/>
<path fill-rule="evenodd" clip-rule="evenodd" d="M36.871 187.101L34.8151 101.272L27.3541 79.8161L6.00586 130.616C6.00586 130.616 9.89579 159.548 36.871 187.101Z" fill="#573DAE"/>
<path fill-rule="evenodd" clip-rule="evenodd" d="M49.2663 221.229L32.5517 186.855L20.5171 186.05L21.9354 208.215L43.1219 231.025L49.2663 221.229Z" fill="url(#paint5_linear)"/>
<path fill-rule="evenodd" clip-rule="evenodd" d="M20.5171 186.05L40.2345 217.559L43.1219 231.025L21.9354 208.215L20.5171 186.05Z" fill="#573DAE"/>
<g style="mix-blend-mode:multiply">
<path fill-rule="evenodd" clip-rule="evenodd" d="M176.589 98.6855L104.039 73.4842L105.342 68.1127L101.813 30.215L143.724 70.801L176.589 91.4413V98.6855Z" fill="#A972B0"/>
</g>
<path fill-rule="evenodd" clip-rule="evenodd" d="M176.589 184.75L138.932 167.488L114.156 104.852L127.614 85.8324L176.589 114.774V184.75Z" fill="url(#paint6_linear)"/>
<path fill-rule="evenodd" clip-rule="evenodd" d="M176.589 223.816L166.79 212.152L171.29 200.533L176.589 204.062V223.816Z" fill="url(#paint7_linear)"/>
<g style="mix-blend-mode:soft-light">
<path fill-rule="evenodd" clip-rule="evenodd" d="M176.589 176.762L173.613 174.627L169.294 111.865L176.589 115.49V176.762Z" fill="#A99AF4"/>
</g>
<g style="mix-blend-mode:soft-light" opacity="0.88">
<path fill-rule="evenodd" clip-rule="evenodd" d="M176.589 207.33L171.29 200.534L176.589 204.063V207.33Z" fill="#A99AF4"/>
</g>
<g style="mix-blend-mode:multiply">
<path fill-rule="evenodd" clip-rule="evenodd" d="M176.589 186.634L125.156 166.21L114.156 104.853L142.799 161.594L173.614 174.627L176.589 176.762V186.634Z" fill="#A972B0"/>
</g>
<g style="mix-blend-mode:multiply">
<path fill-rule="evenodd" clip-rule="evenodd" d="M176.589 224.576L158.179 209.106L171.29 200.533L176.589 207.329V224.576Z" fill="#A972B0"/>
</g>
<path fill-rule="evenodd" clip-rule="evenodd" d="M52.6525 61.2658L53.983 89.4475L51.0263 119.084L40.6455 78.2362L52.6525 61.2658Z" fill="#573DAE"/>
<path fill-rule="evenodd" clip-rule="evenodd" d="M52.3521 260.979L62.0537 264.251L67.6298 243.364L122.906 291.723L130.589 329.54L116.831 340.736C116.831 340.736 89.7634 329.51 71.5936 308.905C53.4238 288.3 52.3521 260.979 52.3521 260.979Z" fill="#5729AE"/>
<g style="mix-blend-mode:soft-light" opacity="0.88">
<path fill-rule="evenodd" clip-rule="evenodd" d="M129.397 289.422L122.916 291.722L130.598 329.54L136.031 329.816L129.397 289.422Z" fill="#A99AF4"/>
</g>
<g style="mix-blend-mode:multiply">
<path fill-rule="evenodd" clip-rule="evenodd" d="M100.989 82.5646L60.5889 68.0458L65.9849 86.2949L100.989 82.5646Z" fill="#A972B0"/>
</g>
<path d="M176.59 38.0879L170.695 22.6932L151.033 1.50917L151.541 0.950382L171.254 22.1898L176.59 36.0994V38.0879Z" fill="#00E7F4"/>
<path d="M176.589 72.9492L140.605 52.4096L100.93 20.8047L101.36 20.1653L140.984 51.745L176.589 72.0632V72.9492Z" fill="#00E7F4"/>
<path d="M143.114 44.7684L170.255 62.3076L172.256 59.4784L172.219 59.2972L165.16 25.1047L142.056 2.47074L141.571 3.05473L164.508 25.5225L171.48 59.2921L170.075 61.2756L143.525 44.124L110.244 14.9204L109.791 15.5346L143.114 44.7684Z" fill="#00E7F4"/>
<path d="M58.5752 56.4788L75.7009 64.1963L75.8534 64.1057L90.914 54.9232L90.4613 28.0103L89.7359 28.0253L90.1795 54.4651L75.6547 63.3254L58.857 55.7489L58.5752 56.4788Z" fill="#00E7F4"/>
<path d="M61.0371 53.0644L70.6279 56.0547L70.7711 55.949L79.3501 49.4397L79.364 49.2635L80.7546 35.5402L80.0385 35.4546L78.6664 48.9967L70.4985 55.1939L61.2404 52.3092L61.0371 53.0644Z" fill="#00E7F4"/>
<path d="M176.589 159.111L171.027 151.812L127.323 86.0646L127.905 85.6015L171.595 151.323L176.589 157.878V159.111Z" fill="#00E7F4"/>
<path d="M138.572 167.523L139.293 167.453L137.496 145.957L121.017 95.5037L120.338 95.7655L136.798 146.173L138.572 167.523Z" fill="#00E7F4"/>
<path d="M129.97 327.954L130.464 327.38L63.6801 258.839L63.1812 259.408L129.97 327.954Z" fill="#00E7F4"/>
<path d="M66.7476 246.214L115.066 285.36L115.501 284.731L67.1772 245.585L66.7476 246.214Z" fill="#00E7F4"/>
<defs>
<radialGradient id="paint0_radial" cx="0" cy="0" r="1" gradientUnits="userSpaceOnUse" gradientTransform="translate(235.648 167.016) rotate(-139.967) scale(228.585 232.82)">
<stop stop-color="#B840C7"/>
<stop offset="0.7" stop-color="#750088"/>
<stop offset="0.95" stop-color="#5E1377"/>
<stop offset="1" stop-color="#8160FF"/>
</radialGradient>
<linearGradient id="paint1_linear" x1="33.3088" y1="184.882" x2="179.266" y2="11.142" gradientUnits="userSpaceOnUse">
<stop stop-color="#4F0E6F"/>
<stop offset="1" stop-color="#450086"/>
</linearGradient>
<linearGradient id="paint2_linear" x1="-422290" y1="8925.44" x2="-422290" y2="18698.2" gradientUnits="userSpaceOnUse">
<stop stop-color="#4F0E6F"/>
<stop offset="1" stop-color="#450086"/>
</linearGradient>
<linearGradient id="paint3_linear" x1="-317170" y1="2099.68" x2="-317170" y2="3982.64" gradientUnits="userSpaceOnUse">
<stop stop-color="#4F0E6F"/>
<stop offset="1" stop-color="#450086"/>
</linearGradient>
<linearGradient id="paint4_linear" x1="-227984" y1="2083.03" x2="-227984" y2="14471.5" gradientUnits="userSpaceOnUse">
<stop stop-color="#4F0E6F"/>
<stop offset="1" stop-color="#450086"/>
</linearGradient>
<linearGradient id="paint5_linear" x1="-134122" y1="7711.85" x2="-134122" y2="10208.5" gradientUnits="userSpaceOnUse">
<stop stop-color="#4F0E6F"/>
<stop offset="1" stop-color="#450086"/>
</linearGradient>
<linearGradient id="paint6_linear" x1="-298520" y1="39051.5" x2="-298520" y2="52471.6" gradientUnits="userSpaceOnUse">
<stop stop-color="#4F0E6F"/>
<stop offset="1" stop-color="#450086"/>
</linearGradient>
<linearGradient id="paint7_linear" x1="-47983.8" y1="8440.27" x2="-47983.8" y2="9304.78" gradientUnits="userSpaceOnUse">
<stop stop-color="#4F0E6F"/>
<stop offset="1" stop-color="#450086"/>
</linearGradient>
</defs>
</svg>
