<svg width="47" height="41" viewBox="0 0 47 41" fill="none" xmlns="http://www.w3.org/2000/svg">
<path d="M0.818359 0H33.6319C41.015 0 47.0003 5.98524 47.0003 13.3684V40.0923H0.818359V0Z" fill="white"/>
<path d="M18.8242 22.4688H22.6719V20.3008H18.8242V16.2676H16.627V20.3008H12.7891V22.4688H16.627V26.502H18.8242V22.4688ZM30.5723 27.2832C33.6191 27.2832 35.8359 25.2227 35.8359 22.3613C35.8359 19.6953 33.9219 17.7422 31.2168 17.7422C29.3027 17.7422 27.8965 18.7188 27.3398 20.0176H27.291C27.3105 16.6875 28.4434 14.666 30.6016 14.666C31.8711 14.666 32.7891 15.3008 33.1504 16.4043H35.6504C35.2402 14.1387 33.2285 12.6152 30.6113 12.6152C27.0273 12.6152 24.8789 15.418 24.8789 20.1152C24.8789 25.1152 27.4766 27.2832 30.5723 27.2832ZM30.5332 25.2324C28.9609 25.2324 27.7207 23.9922 27.7207 22.4102C27.7207 20.8379 28.9414 19.6855 30.5625 19.6855C32.1836 19.6855 33.3652 20.8379 33.3555 22.459C33.3555 24.002 32.1055 25.2324 30.5332 25.2324Z" fill="#FF7B00"/>
</svg>
