<svg width="113" height="115" viewBox="0 0 113 115" fill="none" xmlns="http://www.w3.org/2000/svg">
<path d="M102.039 28.8151L58.6161 3.48869C54.5162 1.1156 51.1938 3.63006 51.1938 9.10332V22.8874C51.1938 28.3506 54.5162 34.7024 58.6161 37.025L80.3576 49.4559L86.1035 66.2291L91.7888 56.0602L102.069 62.3918C106.169 64.7649 109.491 62.2504 109.491 56.7873V42.9931C109.461 37.5299 106.138 31.1781 102.039 28.8151Z" fill="white"/>
<path d="M85.3453 66.8575C85.2719 66.8542 85.2013 66.8282 85.1434 66.7829C85.0855 66.7377 85.0431 66.6755 85.0222 66.605L79.2864 49.9934L57.6761 37.6433C53.4752 35.2197 50.062 28.7063 50.062 23.1321V9.34795C50.062 5.16727 51.9605 2.46094 54.9092 2.46094C56.029 2.48001 57.1235 2.79721 58.08 3.37988L101.503 28.7265C105.703 31.1501 109.117 37.6635 109.117 43.2377V57.0319C109.197 58.7909 108.735 60.5321 107.794 62.0204C107.409 62.6047 106.883 63.0834 106.266 63.4132C105.649 63.743 104.959 63.9134 104.259 63.9088C103.151 63.8785 102.071 63.5544 101.129 62.9697L91.1619 56.84L85.6786 66.6555C85.6461 66.7159 85.5981 66.7664 85.5395 66.802C85.4809 66.8375 85.4138 66.8567 85.3453 66.8575ZM54.9799 3.2385C52.4957 3.2385 50.8901 5.64189 50.8901 9.36814V23.1321C50.8901 28.4639 54.1316 34.6845 58.1204 36.9869L79.8519 49.4077C79.9325 49.4557 79.9934 49.5309 80.0235 49.6198L85.4362 65.5447L90.6974 56.1231C90.7207 56.0778 90.7536 56.0382 90.7937 56.0068C90.8337 55.9754 90.8801 55.9531 90.9296 55.9413C90.9758 55.921 91.0256 55.9105 91.0761 55.9105C91.1265 55.9105 91.1764 55.921 91.2225 55.9413L101.503 62.3133C102.329 62.8291 103.276 63.1182 104.249 63.1515C104.827 63.1523 105.396 63.0097 105.906 62.7365C106.415 62.4634 106.849 62.0681 107.168 61.5862C108.013 60.2224 108.425 58.6345 108.349 57.0319V43.2377C108.349 37.9058 105.108 31.6853 101.119 29.3829L57.6963 4.05646C56.87 3.54111 55.9228 3.25206 54.9496 3.21831L54.9799 3.2385Z" fill="#1A87C7"/>
<path d="M93.3128 57.6381L91.0003 56.3052L85.3149 66.4741L89.8793 63.788L93.3128 57.6381Z" fill="#D1EBFF"/>
<path d="M85.3454 66.8577C85.2469 66.8558 85.1529 66.816 85.0829 66.7466C85.0222 66.6894 84.983 66.6129 84.9719 66.5302C84.9609 66.4474 84.9787 66.3634 85.0223 66.2922L90.6975 56.1233C90.7223 56.0792 90.7556 56.0404 90.7955 56.0092C90.8353 55.978 90.881 55.955 90.9298 55.9415C90.9761 55.9218 91.0259 55.9116 91.0762 55.9116C91.1265 55.9116 91.1763 55.9218 91.2226 55.9415L93.5351 57.2745C93.6192 57.3268 93.6799 57.4096 93.7044 57.5056C93.7288 57.6016 93.7152 57.7033 93.6664 57.7895L90.233 63.9292C90.2065 63.9898 90.1602 64.0397 90.1017 64.0706L85.5373 66.7567C85.4864 66.8109 85.4189 66.8464 85.3454 66.8577ZM91.1721 56.8302L86.3553 65.4339L89.617 63.5152L92.8182 57.7794L91.1721 56.8302Z" fill="#1A87C7"/>
<path d="M105.107 26.8178L61.685 1.49137C61.0179 1.02261 60.2429 0.730449 59.4324 0.642157C58.6219 0.553866 57.8022 0.672317 57.0499 0.986457L53.0308 3.37974C54.3435 2.60218 56.0602 2.65267 57.9284 3.74328L101.351 29.0697C105.451 31.4327 108.773 37.7845 108.773 43.2073V57.0318C108.773 59.6876 107.985 61.6366 106.753 62.6767L109.015 61.1821C110.181 60.5876 111.145 59.6638 111.79 58.5256C112.434 57.3873 112.73 56.0848 112.641 54.7799V40.9957C112.53 35.5326 109.207 29.1808 105.107 26.8178Z" fill="#D1EBFF"/>
<path d="M106.642 63.0505C106.583 63.0518 106.525 63.0386 106.472 63.0123C106.419 62.9859 106.374 62.947 106.339 62.8991C106.281 62.8221 106.255 62.7254 106.266 62.6294C106.277 62.5333 106.325 62.4454 106.4 62.3841C107.642 61.3742 108.329 59.4657 108.329 57.032V43.2378C108.329 37.9059 105.087 31.6854 101.098 29.383L57.676 4.05655C57.029 3.59217 56.2673 3.31373 55.4734 3.25143C54.6795 3.18912 53.8836 3.34533 53.1722 3.70312C53.1222 3.7313 53.0665 3.74791 53.0092 3.75172C52.9519 3.75552 52.8945 3.74643 52.8412 3.72511C52.7879 3.7038 52.7401 3.67079 52.7013 3.62854C52.6624 3.58628 52.6335 3.53585 52.6168 3.48095C52.5895 3.39436 52.5893 3.30149 52.6164 3.21483C52.6435 3.12817 52.6965 3.05188 52.7682 2.99624L56.8075 0.61305C56.8837 0.593383 56.9636 0.593383 57.0398 0.61305C57.8345 0.325708 58.6858 0.229908 59.5246 0.333432C60.3633 0.436956 61.1657 0.736884 61.8668 1.20885L105.289 26.5353C109.49 28.9588 112.903 35.4722 112.903 41.0465V54.7801C112.99 56.1535 112.674 57.5224 111.995 58.7188C111.315 59.9153 110.3 60.8873 109.076 61.5156L106.844 62.9597C106.788 63.0102 106.718 63.042 106.642 63.0505ZM55.1918 2.46103C56.2142 2.53178 57.2046 2.84692 58.0799 3.37997L101.502 28.7266C105.703 31.1502 109.116 37.6635 109.116 43.2378V57.032C109.151 58.4489 108.872 59.8559 108.299 61.1521L108.723 60.8693C109.831 60.3109 110.75 59.4386 111.366 58.3612C111.982 57.2837 112.268 56.0488 112.186 54.8104V40.996C112.186 35.6641 108.935 29.4436 104.946 27.1412L61.5234 1.81474C60.9075 1.38173 60.1926 1.11041 59.4445 1.02571C58.6963 0.94102 57.9389 1.04566 57.2418 1.33003C57.1849 1.33963 57.1269 1.33963 57.0701 1.33003L55.1918 2.46103Z" fill="#1A87C7"/>
<path d="M70.6386 30.9815C72.0493 30.1568 72.0361 27.5093 70.6091 25.0683C69.182 22.6272 66.8816 21.3168 65.4709 22.1415C64.0601 22.9662 64.0733 25.6137 65.5004 28.0547C66.9274 30.4958 69.2278 31.8062 70.6386 30.9815Z" fill="#3DA5D9"/>
<path d="M69.6933 31.6551C69.0483 31.6378 68.42 31.4459 67.8756 31.0996C66.7647 30.3806 65.8392 29.4096 65.1742 28.2655C64.5092 27.1215 64.1234 25.8367 64.0483 24.5156C64.0483 22.7282 64.9875 21.5669 66.4315 21.5669C67.0765 21.5841 67.7048 21.7761 68.2492 22.1223C69.3482 22.8339 70.2656 23.7925 70.9284 24.9216C71.5911 26.0508 71.9808 27.3191 72.0664 28.6256C72.0664 30.4433 71.1373 31.6551 69.6933 31.6551ZM66.4315 22.3243C65.4217 22.3243 64.8057 23.1422 64.8057 24.5156C64.8747 25.7058 65.2223 26.8632 65.8204 27.8945C66.4185 28.9259 67.2504 29.8023 68.2492 30.4534C68.6842 30.7235 69.1816 30.8766 69.6933 30.8977C70.7031 30.8977 71.309 30.0797 71.309 28.7064C71.2395 27.5174 70.8928 26.3612 70.2967 25.3302C69.7005 24.2992 68.8714 23.4219 67.8756 22.7686C67.4443 22.4831 66.9472 22.3127 66.4315 22.2738V22.3243Z" fill="#1A87C7"/>
<path d="M83.0531 35.2401C83.0531 37.5324 81.4273 38.4614 79.4178 37.2597C78.3684 36.5697 77.4944 35.6446 76.8651 34.5578C76.2358 33.471 75.8685 32.2524 75.7925 30.9988C75.7925 28.6964 77.4183 27.7674 79.4178 28.9287C80.4812 29.6166 81.3656 30.5478 81.9978 31.6453C82.6299 32.7428 82.9917 33.975 83.0531 35.2401Z" fill="#3DA5D9"/>
<path d="M81.0536 38.1786C80.4102 38.1605 79.7831 37.9724 79.2359 37.6333C78.1251 36.9143 77.1995 35.9433 76.5345 34.7992C75.8695 33.6552 75.4838 32.3704 75.4087 31.0493C75.4087 29.2518 76.3478 28.1006 77.7919 28.1006C78.4353 28.1187 79.0624 28.3068 79.6096 28.6459C80.7193 29.3677 81.6433 30.3409 82.3065 31.4866C82.9697 32.6323 83.3535 33.9183 83.4267 35.2401C83.4267 37.0274 82.4977 38.1786 81.0536 38.1786ZM77.7919 28.858C76.7821 28.858 76.1661 29.6759 76.1661 31.0493C76.2343 32.2383 76.5815 33.3946 77.1798 34.4244C77.7781 35.4542 78.6105 36.3287 79.6096 36.9769C80.0445 37.2471 80.542 37.4002 81.0536 37.4213C82.0634 37.4213 82.6693 36.6033 82.6693 35.2401C82.6038 34.0502 82.2588 32.8925 81.6623 31.8608C81.0657 30.8292 80.2345 29.9526 79.2359 29.3023C78.7998 29.0346 78.303 28.8817 77.7919 28.858Z" fill="#1A87C7"/>
<path d="M94.1405 41.5516C94.1405 43.8439 92.5248 44.773 90.5152 43.5713C89.4602 42.8865 88.5812 41.9628 87.9496 40.8751C87.318 39.7873 86.9516 38.5661 86.8799 37.3103C86.8799 35.0079 88.5057 34.0789 90.5152 35.2402C91.5774 35.9286 92.4603 36.8602 93.0907 37.9577C93.7211 39.0553 94.081 40.2873 94.1405 41.5516Z" fill="#3DA5D9"/>
<path d="M92.1412 44.4897C91.498 44.4701 90.8712 44.2821 90.3235 43.9444C89.2156 43.223 88.2929 42.2512 87.6299 41.1075C86.9668 39.9638 86.5819 38.6802 86.5063 37.3603C86.5063 35.5628 87.4354 34.4116 88.8895 34.4116C89.5327 34.4312 90.1595 34.6192 90.7072 34.9569C91.8153 35.6805 92.738 36.6541 93.401 37.7995C94.064 38.9448 94.4488 40.2299 94.5244 41.5511C94.5244 43.3385 93.5852 44.4897 92.1412 44.4897ZM88.8895 35.169C87.8797 35.169 87.2637 35.9869 87.2637 37.3603C87.3319 38.5493 87.6792 39.7056 88.2775 40.7354C88.8757 41.7653 89.7081 42.6397 90.7072 43.288C91.1387 43.5577 91.6328 43.7108 92.1412 43.7323C93.151 43.7323 93.767 42.9144 93.767 41.5511C93.6988 40.3607 93.3515 39.203 92.7533 38.1715C92.1552 37.1401 91.3228 36.2637 90.3235 35.6133C89.892 35.3435 89.3979 35.1904 88.8895 35.169Z" fill="#1A87C7"/>
<path d="M11.6982 76.2912L55.1207 50.9648C59.2206 48.5917 62.543 51.1061 62.543 56.5794V70.3635C62.543 75.8267 59.2206 82.1785 55.1207 84.5011L33.3792 96.932L27.6333 113.705L21.948 103.536L11.668 109.868C7.56807 112.241 4.24574 109.726 4.24574 104.263V90.4691C4.27603 85.006 7.59836 78.6542 11.6982 76.2912Z" fill="white"/>
<path d="M27.6332 114.089C27.7066 114.086 27.7772 114.06 27.8351 114.014C27.893 113.969 27.9354 113.907 27.9564 113.836L33.6922 97.2249L55.3024 84.8747C59.5033 82.4511 62.9165 75.9377 62.9165 70.3635V56.5794C62.9165 52.3987 61.018 49.6924 58.0693 49.6924C56.9495 49.7115 55.855 50.0287 54.8985 50.6113L11.476 75.9579C7.27512 78.3815 3.8619 84.8949 3.8619 90.4691V104.263C3.78199 106.022 4.24372 107.764 5.18477 109.252C5.56998 109.836 6.09506 110.315 6.7123 110.645C7.32953 110.974 8.01936 111.145 8.71916 111.14C9.82739 111.11 10.9077 110.786 11.8496 110.201L21.8166 104.071L27.3 113.887C27.3324 113.947 27.3804 113.998 27.439 114.033C27.4976 114.069 27.5647 114.088 27.6332 114.089ZM57.9987 50.4699C60.4828 50.4699 62.0884 52.8733 62.0884 56.5996V70.3635C62.0884 75.6954 58.8469 81.9159 54.8581 84.2183L33.1267 96.6392C33.046 96.6871 32.9851 96.7623 32.955 96.8512L27.5423 112.776L22.2811 103.355C22.2578 103.309 22.2249 103.27 22.1849 103.238C22.1448 103.207 22.0984 103.185 22.0489 103.173C22.0027 103.152 21.9529 103.142 21.9025 103.142C21.852 103.142 21.8022 103.152 21.756 103.173L11.476 109.545C10.6499 110.061 9.70256 110.35 8.72927 110.383C8.15131 110.384 7.58218 110.241 7.07286 109.968C6.56353 109.695 6.12993 109.3 5.81089 108.818C4.96581 107.454 4.55386 105.866 4.62938 104.263V90.4691C4.62938 85.1373 7.87092 78.9167 11.8597 76.6143L55.2822 51.2879C56.1085 50.7726 57.0557 50.4835 58.029 50.4498L57.9987 50.4699Z" fill="#1A87C7"/>
<path d="M19.6657 104.87L21.9783 103.537L27.6636 113.706L23.0992 111.019L19.6657 104.87Z" fill="#D1EBFF"/>
<path d="M27.6331 114.089C27.7316 114.087 27.8256 114.047 27.8956 113.978C27.9564 113.921 27.9955 113.844 28.0066 113.762C28.0176 113.679 27.9998 113.595 27.9562 113.524L22.281 103.355C22.2562 103.311 22.2229 103.272 22.183 103.241C22.1432 103.209 22.0975 103.186 22.0487 103.173C22.0024 103.153 21.9526 103.143 21.9023 103.143C21.852 103.143 21.8022 103.153 21.7559 103.173L19.4434 104.506C19.3593 104.558 19.2986 104.641 19.2741 104.737C19.2497 104.833 19.2633 104.935 19.3121 105.021L22.7455 111.161C22.7721 111.221 22.8183 111.271 22.8768 111.302L27.4412 113.988C27.4921 114.042 27.5596 114.078 27.6331 114.089ZM21.8064 104.062L26.6232 112.665L23.3615 110.747L20.1604 105.011L21.8064 104.062Z" fill="#03336E"/>
<path d="M7.87105 74.0492L51.2935 48.7228C51.9606 48.2541 52.7356 47.9619 53.5461 47.8736C54.3566 47.7853 55.1763 47.9038 55.9287 48.2179L59.9478 50.6112C58.635 49.8336 56.9183 49.8841 55.0501 50.9747L11.6276 76.3011C7.52771 78.6641 4.20538 85.0159 4.20538 90.4387V104.263C4.20538 106.919 4.99304 108.868 6.22503 109.908L3.96303 108.414C2.79792 107.819 1.83318 106.895 1.18866 105.757C0.54414 104.619 0.248253 103.316 0.337757 102.011V88.2272C0.448837 82.764 3.77116 76.4122 7.87105 74.0492Z" fill="#D1EBFF"/>
<path d="M6.33611 110.282C6.3951 110.283 6.4535 110.27 6.50628 110.244C6.55906 110.217 6.60463 110.178 6.63904 110.131C6.69756 110.054 6.72393 109.957 6.71263 109.861C6.70133 109.765 6.65324 109.677 6.57845 109.616C5.33637 108.606 4.64968 106.697 4.64968 104.263V90.4692C4.64968 85.1373 7.89123 78.9168 11.88 76.6144L55.3025 51.288C55.9495 50.8236 56.7112 50.5452 57.5051 50.4829C58.299 50.4206 59.0949 50.5768 59.8064 50.9346C59.8564 50.9627 59.912 50.9794 59.9693 50.9832C60.0266 50.987 60.084 50.9779 60.1373 50.9566C60.1906 50.9352 60.2384 50.9022 60.2773 50.86C60.3161 50.8177 60.345 50.7673 60.3618 50.7124C60.3891 50.6258 60.3892 50.5329 60.3621 50.4463C60.335 50.3596 60.282 50.2833 60.2103 50.2277L56.171 47.8445C56.0948 47.8248 56.0149 47.8248 55.9387 47.8445C55.144 47.5572 54.2927 47.4614 53.454 47.5649C52.6152 47.6684 51.8128 47.9683 51.1118 48.4403L7.68927 73.7667C3.4884 76.1903 0.0751762 82.7037 0.0751762 88.2779V102.012C-0.0117569 103.385 0.304096 104.754 0.983952 105.95C1.6638 107.147 2.6781 108.119 3.90242 108.747L6.13413 110.191C6.19036 110.242 6.26097 110.273 6.33611 110.282ZM57.7867 49.6925C56.7643 49.7632 55.7739 50.0784 54.8986 50.6114L11.4761 75.958C7.27524 78.3816 3.86202 84.895 3.86202 90.4692V104.263C3.8273 105.68 4.10663 107.087 4.67998 108.384L4.25587 108.101C3.14751 107.542 2.22804 106.67 1.6121 105.593C0.996162 104.515 0.711002 103.28 0.792175 102.042V88.2274C0.792175 82.8955 4.04379 76.675 8.0326 74.3726L51.4551 49.0462C52.071 48.6132 52.7859 48.3419 53.534 48.2572C54.2822 48.1725 55.0396 48.2771 55.7368 48.5615C55.7936 48.5711 55.8516 48.5711 55.9084 48.5615L57.7867 49.6925Z" fill="#1A87C7"/>
<path d="M42.3404 78.2129C40.9297 77.3882 40.9429 74.7408 42.37 72.2997C43.797 69.8586 46.0974 68.5483 47.5081 69.373C48.9189 70.1977 48.9057 72.8451 47.4786 75.2862C46.0516 77.7273 43.7512 79.0376 42.3404 78.2129Z" fill="#3DA5D9"/>
<path d="M43.2857 78.8865C43.9307 78.8693 44.559 78.6773 45.1034 78.3311C46.2143 77.612 47.1398 76.641 47.8048 75.497C48.4698 74.353 48.8556 73.0682 48.9307 71.747C48.9307 69.9596 47.9915 68.7983 46.5475 68.7983C45.9025 68.8156 45.2743 69.0075 44.7298 69.3537C43.6308 70.0654 42.7134 71.024 42.0506 72.1531C41.3879 73.2822 40.9982 74.5506 40.9126 75.857C40.9126 77.6747 41.8417 78.8865 43.2857 78.8865ZM46.5475 69.5557C47.5573 69.5557 48.1733 70.3737 48.1733 71.747C48.1043 72.9373 47.7567 74.0946 47.1586 75.126C46.5605 76.1573 45.7286 77.0338 44.7298 77.6848C44.2948 77.955 43.7974 78.108 43.2857 78.1291C42.2759 78.1291 41.67 77.3112 41.67 75.9378C41.7395 74.7489 42.0862 73.5927 42.6823 72.5616C43.2785 71.5306 44.1076 70.6534 45.1034 70C45.5347 69.7145 46.0318 69.5442 46.5475 69.5052V69.5557Z" fill="#1A87C7"/>
<path d="M29.9259 82.471C29.9259 84.7634 31.5517 85.6924 33.5612 84.4907C34.6106 83.8007 35.4846 82.8756 36.1139 81.7887C36.7432 80.7019 37.1105 79.4833 37.1865 78.2298C37.1865 75.9274 35.5607 74.9983 33.5612 76.1596C32.4978 76.8475 31.6134 77.7787 30.9812 78.8762C30.3491 79.9737 29.9873 81.206 29.9259 82.471Z" fill="#3DA5D9"/>
<path d="M31.9254 85.4101C32.5688 85.392 33.196 85.2038 33.7431 84.8648C34.8539 84.1457 35.7795 83.1747 36.4445 82.0307C37.1095 80.8866 37.4952 79.6019 37.5703 78.2807C37.5703 76.4832 36.6312 75.332 35.1871 75.332C34.5437 75.3501 33.9166 75.5383 33.3694 75.8773C32.2597 76.5991 31.3357 77.5724 30.6725 78.7181C30.0093 79.8638 29.6255 81.1497 29.5523 82.4715C29.5523 84.2589 30.4813 85.4101 31.9254 85.4101ZM35.1871 76.0894C36.1969 76.0894 36.8129 76.9074 36.8129 78.2807C36.7447 79.4698 36.3975 80.626 35.7992 81.6559C35.201 82.6857 34.3685 83.5601 33.3694 84.2084C32.9345 84.4785 32.437 84.6316 31.9254 84.6527C30.9156 84.6527 30.3097 83.8348 30.3097 82.4715C30.3752 81.2816 30.7202 80.1239 31.3167 79.0923C31.9133 78.0606 32.7445 77.1841 33.7431 76.5337C34.1792 76.266 34.676 76.1132 35.1871 76.0894Z" fill="#1A87C7"/>
<path d="M18.838 88.7826C18.838 91.0749 20.4537 92.0039 22.4633 90.8022C23.5184 90.1175 24.3973 89.1938 25.0289 88.106C25.6605 87.0183 26.027 85.7971 26.0986 84.5413C26.0986 82.2389 24.4728 81.3099 22.4633 82.4712C21.4011 83.1596 20.5183 84.0911 19.8878 85.1887C19.2574 86.2863 18.8975 87.5182 18.838 88.7826Z" fill="#3DA5D9"/>
<path d="M20.8378 91.7216C21.481 91.7021 22.1078 91.514 22.6555 91.1763C23.7634 90.4549 24.6861 89.4831 25.3491 88.3394C26.0122 87.1957 26.3971 85.9121 26.4727 84.5922C26.4727 82.7948 25.5436 81.6436 24.0895 81.6436C23.4463 81.6631 22.8195 81.8511 22.2718 82.1889C21.1637 82.9124 20.241 83.8861 19.578 85.0314C18.915 86.1768 18.5302 87.4618 18.4546 88.783C18.4546 90.5704 19.3938 91.7216 20.8378 91.7216ZM24.0895 82.4009C25.0993 82.4009 25.7153 83.2189 25.7153 84.5922C25.6471 85.7813 25.2998 86.9375 24.7015 87.9674C24.1033 88.9972 23.2709 89.8717 22.2718 90.5199C21.8403 90.7897 21.3462 90.9428 20.8378 90.9642C19.828 90.9642 19.212 90.1463 19.212 88.783C19.2802 87.5926 19.6275 86.4349 20.2257 85.4035C20.8238 84.372 21.6562 83.4957 22.6555 82.8452C23.087 82.5755 23.5811 82.4224 24.0895 82.4009Z" fill="#1A87C7"/>
</svg>
