<svg width="80" height="116" viewBox="0 0 80 116" fill="none" xmlns="http://www.w3.org/2000/svg">
<path fill-rule="evenodd" clip-rule="evenodd" d="M3.29536 99.8205L15.1388 106.654L76.7891 71.0616L64.9456 64.228L3.29536 99.8205ZM15.1388 108.516C14.9845 108.515 14.833 108.474 14.6985 108.399L1.16203 100.588C1.02791 100.514 0.916064 100.405 0.838191 100.273C0.760317 100.141 0.719238 99.9909 0.719238 99.8377C0.719238 99.6845 0.760317 99.5341 0.838191 99.4022C0.916064 99.2703 1.02791 99.1616 1.16203 99.0876L64.5052 62.5008C64.6394 62.4244 64.7911 62.3843 64.9456 62.3843C65.1 62.3843 65.2518 62.4244 65.386 62.5008L78.9225 70.3356C79.0584 70.4055 79.1718 70.5123 79.2497 70.6438C79.3277 70.7753 79.3669 70.9261 79.3629 71.0788C79.3676 71.2331 79.3288 71.3856 79.2509 71.5189C79.173 71.6521 79.0592 71.7608 78.9225 71.8324L15.5793 108.423C15.4405 108.483 15.2898 108.51 15.1388 108.502V108.516Z" fill="#1A87C7"/>
<path fill-rule="evenodd" clip-rule="evenodd" d="M78.5537 71.0619L64.9451 63.2339L1.52979 99.8208L15.1384 107.656L78.5537 71.0619Z" fill="#BDEDF8"/>
<path fill-rule="evenodd" clip-rule="evenodd" d="M2.4111 106.338L14.2581 113.175V108.158L2.4111 101.331V106.348V106.338ZM15.1424 115.535C14.9885 115.531 14.8377 115.491 14.7019 115.418L1.08986 107.583C0.964407 107.5 0.859535 107.389 0.783235 107.259C0.706936 107.129 0.661194 106.983 0.649414 106.833L0.721659 99.8205C0.717931 99.6665 0.757595 99.5144 0.836075 99.3818C0.914556 99.2492 1.02871 99.1413 1.16555 99.0704C1.28737 98.9963 1.42725 98.957 1.56987 98.957C1.71248 98.957 1.85228 98.9963 1.9741 99.0704L15.5828 106.905C15.7094 106.988 15.8154 107.098 15.8924 107.229C15.9693 107.359 16.0153 107.505 16.0267 107.655L15.951 114.668C15.9536 114.813 15.9215 114.957 15.8575 115.087C15.7935 115.218 15.6993 115.331 15.5828 115.418C15.446 115.491 15.294 115.531 15.1389 115.535H15.1424Z" fill="#1A87C7"/>
<path fill-rule="evenodd" clip-rule="evenodd" d="M15.1384 107.656L1.52979 99.8208V106.833L15.1384 114.668V107.656Z" fill="#3DA5D9"/>
<path fill-rule="evenodd" clip-rule="evenodd" d="M16.0228 108.158L15.9471 113.171L77.6729 77.5857V72.5689L16.0228 108.158ZM15.1385 115.539C14.9846 115.534 14.8338 115.494 14.6981 115.422C14.5617 115.351 14.448 115.242 14.3701 115.11C14.2922 114.977 14.2532 114.825 14.2577 114.671V107.659C14.2682 107.508 14.3134 107.362 14.3898 107.232C14.4662 107.102 14.5718 106.991 14.6981 106.909L78.1133 70.3083C78.2487 70.2354 78.4 70.1973 78.5538 70.1973C78.7075 70.1973 78.8589 70.2354 78.9942 70.3083C79.1111 70.3947 79.2056 70.508 79.2697 70.6385C79.3337 70.769 79.3656 70.913 79.3624 71.0584V78.0709C79.3669 78.2247 79.3279 78.3766 79.25 78.5092C79.1721 78.6419 79.0584 78.75 78.922 78.821L15.5789 115.418C15.4432 115.491 15.2924 115.531 15.1385 115.535V115.539Z" fill="#1A87C7"/>
<path fill-rule="evenodd" clip-rule="evenodd" d="M78.5536 71.0615L15.1382 107.655V114.668L78.4813 78.0809L78.5536 71.0615Z" fill="white"/>
<path fill-rule="evenodd" clip-rule="evenodd" d="M3.29527 87.7122L15.1387 94.5389L76.789 58.9533L64.9454 52.1198L3.29527 87.7122ZM15.1387 96.4073C14.9848 96.403 14.8341 96.363 14.6984 96.2903L1.16195 88.4554C1.02591 88.3854 0.912189 88.2786 0.833736 88.1472C0.755282 88.0159 0.715227 87.8652 0.71806 87.7122C0.713991 87.5567 0.75339 87.4031 0.831803 87.2688C0.910217 87.1345 1.02455 87.0247 1.16195 86.9518L64.5051 50.3752C64.6393 50.2989 64.791 50.2588 64.9454 50.2588C65.0999 50.2588 65.2516 50.2989 65.3859 50.3752L78.9223 58.2032C79.0555 58.278 79.1664 58.3869 79.2436 58.5187C79.3207 58.6506 79.3614 58.8006 79.3614 58.9533C79.3614 59.1061 79.3207 59.2561 79.2436 59.3879C79.1664 59.5198 79.0555 59.6287 78.9223 59.7035L15.5792 96.2903C15.4435 96.363 15.2927 96.403 15.1387 96.4073Z" fill="#1A87C7"/>
<path fill-rule="evenodd" clip-rule="evenodd" d="M78.5537 58.953L64.9451 51.1182L1.52979 87.7119L15.1384 95.5399L78.5537 58.953Z" fill="#BDEDF8"/>
<path fill-rule="evenodd" clip-rule="evenodd" d="M2.41072 94.2289L14.2577 101.066V96.0388L2.41072 89.2052V94.2289ZM15.142 103.42C14.9881 103.418 14.8369 103.379 14.7015 103.306L1.08947 95.4711C0.963102 95.3914 0.856507 95.284 0.777812 95.157C0.699117 95.03 0.650365 94.8868 0.635254 94.7382L0.707499 87.7222C0.703524 87.5676 0.743023 87.4151 0.821495 87.2819C0.899967 87.1486 1.01428 87.0401 1.15139 86.9687C1.27347 86.8953 1.41325 86.8564 1.55571 86.8564C1.69816 86.8564 1.83795 86.8953 1.96003 86.9687L15.5686 94.8035C15.6957 94.884 15.802 94.9932 15.8791 95.1223C15.9562 95.2514 16.0019 95.3968 16.0125 95.5468L15.9368 102.563C15.94 102.708 15.9082 102.852 15.8441 102.983C15.78 103.113 15.6856 103.226 15.5686 103.313C15.4358 103.382 15.2883 103.419 15.1385 103.42H15.142Z" fill="#1A87C7"/>
<path fill-rule="evenodd" clip-rule="evenodd" d="M15.1384 95.5404L1.52979 87.7124V94.7215L15.1384 102.556V95.5404Z" fill="#3DA5D9"/>
<path fill-rule="evenodd" clip-rule="evenodd" d="M16.0227 96.0388L15.9471 101.056L77.673 65.47V60.4532L16.0227 96.0388ZM15.1384 103.419C14.9845 103.418 14.8334 103.379 14.6981 103.306C14.5619 103.235 14.4484 103.126 14.3705 102.994C14.2927 102.861 14.2536 102.709 14.2576 102.556V95.5398C14.2691 95.3895 14.3148 95.2439 14.3911 95.1139C14.4674 94.9839 14.5724 94.873 14.6981 94.7897L78.1134 58.2029C78.2477 58.1265 78.3994 58.0864 78.5539 58.0864C78.7083 58.0864 78.8601 58.1265 78.9943 58.2029C79.1108 58.2897 79.205 58.403 79.269 58.5335C79.333 58.6639 79.3651 58.8077 79.3625 58.953V65.9724C79.3665 66.1252 79.3273 66.2759 79.2493 66.4074C79.1714 66.5389 79.058 66.6457 78.9221 66.7156L15.5789 103.306C15.4435 103.379 15.2923 103.418 15.1384 103.419Z" fill="#1A87C7"/>
<path fill-rule="evenodd" clip-rule="evenodd" d="M78.5536 58.9531L15.1382 95.54V102.556L78.4813 65.9725L78.5536 58.9531Z" fill="white"/>
<path fill-rule="evenodd" clip-rule="evenodd" d="M3.29525 75.5935L15.1387 82.4305L76.7888 46.845L64.9453 40.0286L3.29525 75.6107V75.5935ZM15.1387 84.2989C14.9848 84.2947 14.8341 84.2546 14.6983 84.1819L1.16193 76.3471C1.0279 76.2726 0.916178 76.1635 0.838426 76.0313C0.760675 75.8992 0.719727 75.7486 0.719727 75.5952C0.719727 75.4419 0.760675 75.2913 0.838426 75.1591C0.916178 75.0269 1.0279 74.9179 1.16193 74.8434L64.5049 38.26C64.6392 38.1837 64.7909 38.1436 64.9453 38.1436C65.0997 38.1436 65.2515 38.1837 65.3857 38.26L78.9221 46.0949C79.0591 46.1653 79.1733 46.2732 79.2513 46.406C79.3293 46.5388 79.3679 46.6911 79.3626 46.845C79.3654 46.9985 79.3258 47.1497 79.2481 47.2821C79.1704 47.4145 79.0576 47.5228 78.9221 47.5951L15.5791 84.1819C15.4434 84.2546 15.2926 84.2947 15.1387 84.2989Z" fill="#1A87C7"/>
<path fill-rule="evenodd" clip-rule="evenodd" d="M78.5537 46.8446L64.9451 39.0098L1.52979 75.5966L15.1384 83.4314L78.5537 46.8446Z" fill="#BDEDF8"/>
<path fill-rule="evenodd" clip-rule="evenodd" d="M2.4111 82.1138L14.2581 88.9474V83.9306L2.4111 77.097V82.1138ZM15.1424 91.3078C14.9885 91.3036 14.8377 91.2635 14.7019 91.1908L1.08986 83.3628C0.964229 83.2795 0.859221 83.1686 0.782899 83.0387C0.706578 82.9087 0.660943 82.763 0.649414 82.6127L0.721659 75.5933C0.718333 75.4393 0.758142 75.2875 0.836579 75.1549C0.915016 75.0224 1.02897 74.9144 1.16555 74.8432C1.28847 74.7723 1.42793 74.7349 1.56987 74.7349C1.71181 74.7349 1.85118 74.7723 1.9741 74.8432L15.5828 82.6781C15.7095 82.7613 15.8154 82.8726 15.8924 83.0033C15.9693 83.1339 16.0153 83.2804 16.0267 83.4316L15.951 90.4476C15.9528 90.5918 15.9203 90.7343 15.8563 90.8635C15.7923 90.9927 15.6986 91.1048 15.5828 91.1908C15.4452 91.2604 15.2932 91.2969 15.1389 91.2975L15.1424 91.3078Z" fill="#1A87C7"/>
<path fill-rule="evenodd" clip-rule="evenodd" d="M15.1384 83.4316L1.52979 75.5967V82.6126L15.1384 90.4406V83.4316Z" fill="#3DA5D9"/>
<path fill-rule="evenodd" clip-rule="evenodd" d="M16.0228 83.9303L15.9471 88.9471L77.6729 53.3547V48.3379L16.0228 83.9303ZM15.1385 91.3076C14.9846 91.3033 14.8338 91.2632 14.6981 91.1905C14.5617 91.1195 14.448 91.0115 14.3701 90.8788C14.2922 90.7462 14.2532 90.5942 14.2577 90.4404V83.4314C14.2692 83.2806 14.3148 83.1344 14.3911 83.0039C14.4674 82.8733 14.5724 82.7618 14.6981 82.6778L78.1134 46.0945C78.2476 46.0181 78.3994 45.978 78.5538 45.978C78.7082 45.978 78.86 46.0181 78.9942 46.0945C79.1107 46.1813 79.2049 46.2946 79.2689 46.4251C79.333 46.5555 79.365 46.6993 79.3624 46.8446V53.8639C79.3656 54.0166 79.326 54.167 79.2482 54.2984C79.1704 54.4297 79.0574 54.5367 78.922 54.6072L15.5789 91.1905C15.4423 91.2596 15.2915 91.2962 15.1385 91.2972V91.3076Z" fill="#1A87C7"/>
<path fill-rule="evenodd" clip-rule="evenodd" d="M78.5536 46.8447L15.1382 83.4315V90.4406L78.4813 53.8538L78.5536 46.8447Z" fill="white"/>
<path fill-rule="evenodd" clip-rule="evenodd" d="M37.2843 42.5266L49.1278 49.3602L76.789 33.3808L64.9454 26.5472L37.2843 42.5266ZM49.1278 51.2286C48.9739 51.2238 48.8232 51.1838 48.6873 51.1116L35.0753 43.2767C34.9594 43.1893 34.8656 43.0759 34.8017 42.9456C34.7377 42.8153 34.7054 42.6718 34.7071 42.5266C34.7059 42.3816 34.7385 42.2382 34.8024 42.108C34.8664 41.9778 34.9598 41.8643 35.0753 41.7765L64.5051 24.8027C64.6388 24.7247 64.7907 24.6836 64.9454 24.6836C65.1002 24.6836 65.2522 24.7247 65.3859 24.8027L78.9223 32.6307C79.0555 32.7054 79.1664 32.8144 79.2435 32.9462C79.3207 33.078 79.3614 33.228 79.3614 33.3808C79.3614 33.5335 79.3207 33.6835 79.2435 33.8153C79.1664 33.9472 79.0555 34.0561 78.9223 34.1309L49.496 51.1116C49.391 51.1929 49.2605 51.2344 49.1278 51.2286Z" fill="#1A87C7"/>
<path fill-rule="evenodd" clip-rule="evenodd" d="M78.5541 33.3808L64.9454 25.5459L35.519 42.5266L49.1277 50.3615L78.5541 33.3808Z" fill="#BDEDF8"/>
<path fill-rule="evenodd" clip-rule="evenodd" d="M36.3994 49.0436L48.2429 55.8772V50.8604L36.3994 44.0268V49.0436ZM49.0549 58.2411C48.8995 58.2397 48.7469 58.1994 48.611 58.124L35.0747 50.2961C34.9493 50.2126 34.8444 50.1017 34.7681 49.9717C34.6918 49.8418 34.6461 49.6962 34.6343 49.546L34.7065 42.5266C34.7048 42.3815 34.7372 42.2379 34.8011 42.1076C34.8651 41.9773 34.9588 41.8639 35.0747 41.7765C35.21 41.7015 35.3621 41.6621 35.5168 41.6621C35.6715 41.6621 35.8237 41.7015 35.959 41.7765L49.4954 49.6113C49.6315 49.6809 49.7452 49.7877 49.8232 49.9192C49.9011 50.0508 49.9402 50.2017 49.9358 50.3546V57.374C49.9378 57.5263 49.8977 57.6763 49.82 57.8074C49.7423 57.9385 49.63 58.0457 49.4954 58.1172C49.3612 58.1945 49.2098 58.2371 49.0549 58.2411Z" fill="#1A87C7"/>
<path fill-rule="evenodd" clip-rule="evenodd" d="M49.1277 50.3613L35.519 42.5264V49.5458L49.0555 57.3703L49.1277 50.3613Z" fill="#3DA5D9"/>
<path fill-rule="evenodd" clip-rule="evenodd" d="M49.9365 50.8602V55.877L77.6733 39.8907V34.867L49.9365 50.8464V50.8602ZM49.0557 58.2409C48.9428 58.245 48.8305 58.2247 48.7262 58.1816C48.6219 58.1385 48.528 58.0734 48.451 57.9909C48.374 57.9083 48.3156 57.8102 48.2799 57.7032C48.2441 57.5961 48.2318 57.4826 48.2437 57.3703V50.3509C48.2399 50.1969 48.2795 50.0449 48.358 49.9123C48.4365 49.7796 48.5506 49.6717 48.6875 49.6008L78.1137 32.6201C78.2412 32.538 78.3891 32.4932 78.5407 32.4908C78.6923 32.4884 78.8416 32.5285 78.9716 32.6066C79.1016 32.6847 79.2071 32.7976 79.2763 32.9325C79.3454 33.0675 79.3754 33.2191 79.3628 33.3702V40.3896C79.3672 40.5425 79.3281 40.6934 79.2501 40.825C79.1722 40.9565 79.0585 41.0633 78.9223 41.1328L49.4961 58.1239C49.3613 58.1988 49.2099 58.2391 49.0557 58.2409Z" fill="#1A87C7"/>
<path fill-rule="evenodd" clip-rule="evenodd" d="M78.5537 33.3804L49.1274 50.3611L49.0552 57.3702L78.4815 40.3929L78.5537 33.3804Z" fill="white"/>
<path fill-rule="evenodd" clip-rule="evenodd" d="M37.2843 30.418L49.1278 37.2516L76.789 21.2653L64.9455 14.4386L37.2843 30.418ZM49.1278 39.1131C48.973 39.1121 48.8211 39.0706 48.6873 38.9927L35.0753 31.1647C34.9595 31.078 34.8658 30.9652 34.8018 30.8355C34.7378 30.7057 34.7054 30.5627 34.7071 30.418C34.7051 30.2723 34.7373 30.1283 34.8013 29.9974C34.8652 29.8665 34.9592 29.7524 35.0753 29.6645L64.5051 12.6872C64.6394 12.6109 64.791 12.5708 64.9455 12.5708C65.0999 12.5708 65.2517 12.6109 65.3859 12.6872L78.9223 20.5221C79.0557 20.5959 79.1669 20.7041 79.2443 20.8354C79.3217 20.9667 79.3625 21.1163 79.3625 21.2688C79.3625 21.4212 79.3217 21.5708 79.2443 21.7021C79.1669 21.8334 79.0557 21.9416 78.9223 22.0154L49.496 38.9961C49.391 39.0775 49.2605 39.1189 49.1278 39.1131Z" fill="#1A87C7"/>
<path fill-rule="evenodd" clip-rule="evenodd" d="M78.5541 21.2655L64.9454 13.4375L35.519 30.4182L49.1277 38.2531L78.5541 21.2655Z" fill="#BDEDF8"/>
<path fill-rule="evenodd" clip-rule="evenodd" d="M36.3994 36.9316L48.2429 43.7651V38.7483L36.3994 31.9148V36.9316ZM49.0549 46.1256C48.8997 46.1225 48.7475 46.0824 48.611 46.0086L35.0747 38.1806C34.9489 38.0958 34.844 37.9837 34.7677 37.8526C34.6914 37.7215 34.6458 37.5749 34.6343 37.4236L34.7065 30.4146C34.7045 30.2689 34.7367 30.1248 34.8007 29.9939C34.8646 29.863 34.9586 29.7489 35.0747 29.661C35.2112 29.5895 35.3628 29.5522 35.5168 29.5522C35.6708 29.5522 35.8225 29.5895 35.959 29.661L49.4953 37.4959C49.6316 37.5681 49.7449 37.6769 49.8227 37.81C49.9005 37.9431 49.9397 38.0953 49.9358 38.2494V45.2584C49.9394 45.4121 49.9001 45.5637 49.8223 45.6962C49.7445 45.8287 49.6313 45.9369 49.4953 46.0086C49.3602 46.0832 49.2092 46.1245 49.0549 46.129V46.1256Z" fill="#1A87C7"/>
<path fill-rule="evenodd" clip-rule="evenodd" d="M49.1277 38.2529L35.519 30.418V37.4339L49.0555 45.2619L49.1277 38.2529Z" fill="#3DA5D9"/>
<path fill-rule="evenodd" clip-rule="evenodd" d="M49.936 38.7519V43.7687L77.6728 27.7824V22.7656L49.936 38.7519ZM49.0551 46.1291C48.8999 46.126 48.7477 46.0859 48.6112 46.0121C48.4953 45.9247 48.4016 45.8113 48.3377 45.681C48.2737 45.5507 48.2413 45.4071 48.2431 45.262V38.2529C48.2383 38.0982 48.2774 37.9453 48.356 37.8119C48.4345 37.6786 48.5492 37.5702 48.6869 37.4994L78.1132 20.5153C78.2415 20.434 78.3898 20.3902 78.5416 20.3887C78.6934 20.3872 78.8426 20.4281 78.9724 20.5067C79.1022 20.5854 79.2074 20.6987 79.2763 20.834C79.3452 20.9692 79.375 21.121 79.3623 21.2722V28.2847C79.3678 28.4382 79.3292 28.5901 79.2512 28.7224C79.1731 28.8547 79.0589 28.9619 78.9219 29.0314L49.4955 46.0121C49.3601 46.0855 49.2091 46.1256 49.0551 46.1291Z" fill="#1A87C7"/>
<path fill-rule="evenodd" clip-rule="evenodd" d="M78.5537 21.2656L49.1274 38.2532L49.0552 45.2623L78.4815 28.285L78.5537 21.2656Z" fill="white"/>
<path fill-rule="evenodd" clip-rule="evenodd" d="M37.2838 18.3062L49.1273 25.1432L76.7886 9.15345L64.945 2.31988L37.2838 18.3062ZM49.1273 27.0047C48.973 27.0004 48.8219 26.9591 48.6869 26.8843L35.0748 19.0563C34.9605 18.9675 34.8679 18.8538 34.8043 18.7238C34.7406 18.5937 34.7075 18.4509 34.7075 18.3062C34.7075 18.1614 34.7406 18.0186 34.8043 17.8886C34.8679 17.7586 34.9605 17.6448 35.0748 17.556L64.5047 0.575337C64.6394 0.500624 64.7909 0.461426 64.945 0.461426C65.0991 0.461426 65.2507 0.500624 65.3855 0.575337L78.9219 8.40332C79.0551 8.4781 79.166 8.58701 79.2431 8.71885C79.3203 8.85068 79.361 9.00069 79.361 9.15345C79.361 9.30621 79.3203 9.45622 79.2431 9.58805C79.166 9.71988 79.0551 9.82876 78.9219 9.90353L49.4955 26.8843C49.3917 26.9683 49.2606 27.0111 49.1273 27.0047Z" fill="#1A87C7"/>
<path fill-rule="evenodd" clip-rule="evenodd" d="M36.3994 24.8269L48.2429 31.6605V26.6368L36.3994 19.7997V24.8269ZM49.0549 34.0209C48.9001 34.0157 48.7483 33.9757 48.611 33.9039L35.0747 26.0691C34.9491 25.9858 34.8441 25.8749 34.7678 25.7449C34.6914 25.6149 34.6458 25.4692 34.6343 25.3189L34.7065 18.2995C34.7053 18.1555 34.738 18.0131 34.802 17.884C34.8659 17.7549 34.9594 17.6426 35.0747 17.5563C35.2096 17.48 35.3619 17.4399 35.5168 17.4399C35.6718 17.4399 35.8241 17.48 35.959 17.5563L49.4954 25.3912C49.6315 25.4607 49.7452 25.5675 49.8232 25.6991C49.9011 25.8306 49.9402 25.9816 49.9358 26.1344V33.1469C49.9395 33.3006 49.9001 33.4522 49.8223 33.5847C49.7445 33.7172 49.6313 33.8254 49.4954 33.8971C49.3597 33.9708 49.2091 34.0131 49.0549 34.0209Z" fill="#1A87C7"/>
<path fill-rule="evenodd" clip-rule="evenodd" d="M78.5541 9.15365L64.9454 1.3291L35.519 18.3064L49.1277 26.1344L78.5541 9.15365Z" fill="#BDEDF8"/>
<path fill-rule="evenodd" clip-rule="evenodd" d="M49.1277 26.1341L35.519 18.3062V25.3187L49.0555 33.1535L49.1277 26.1341Z" fill="#3DA5D9"/>
<path fill-rule="evenodd" clip-rule="evenodd" d="M49.9359 26.6365V31.6533L77.6728 15.6739V10.6571L49.9359 26.6365ZM49.055 34.0207C48.9002 34.0155 48.7484 33.9755 48.6111 33.9037C48.496 33.8155 48.4029 33.7019 48.339 33.5718C48.2752 33.4417 48.2423 33.2985 48.243 33.1536V26.1342C48.2385 25.9809 48.2779 25.8295 48.3565 25.6978C48.4351 25.5662 48.5497 25.4597 48.6868 25.3909L78.1133 8.40331C78.2407 8.32119 78.3887 8.27642 78.5403 8.27403C78.6919 8.27164 78.8411 8.31176 78.9711 8.38983C79.1011 8.4679 79.2067 8.58077 79.2758 8.71573C79.345 8.85069 79.375 9.00233 79.3624 9.15344V16.1728C79.3668 16.3266 79.3279 16.4785 79.25 16.6112C79.1721 16.7438 79.0584 16.8519 78.9219 16.9229L49.4955 33.9037C49.3592 33.975 49.2087 34.015 49.055 34.0207Z" fill="#1A87C7"/>
<path fill-rule="evenodd" clip-rule="evenodd" d="M78.5537 9.15332L49.1274 26.134L49.0552 33.1534L78.4815 16.1727L78.5537 9.15332Z" fill="white"/>
<path fill-rule="evenodd" clip-rule="evenodd" d="M3.29536 37.9126L15.1388 44.7393L42.284 29.0695L30.5162 22.236L3.29536 37.9126ZM15.1388 46.6077C14.9842 46.6085 14.8323 46.5681 14.6985 46.4907L1.16203 38.6524C1.02791 38.5784 0.916064 38.4697 0.838191 38.3378C0.760317 38.2059 0.719238 38.0555 0.719238 37.9023C0.719238 37.7491 0.760317 37.5987 0.838191 37.4668C0.916064 37.3348 1.02791 37.2262 1.16203 37.1522L30.0654 20.4811C30.1866 20.405 30.3267 20.3647 30.4697 20.3647C30.6128 20.3647 30.7528 20.405 30.874 20.4811L44.4861 28.3091C44.6193 28.3839 44.7303 28.4928 44.8074 28.6246C44.8846 28.7564 44.9253 28.9065 44.9253 29.0592C44.9253 29.212 44.8846 29.362 44.8074 29.4938C44.7303 29.6257 44.6193 29.7346 44.4861 29.8093L15.5827 46.4804C15.4489 46.562 15.2956 46.606 15.1388 46.6077Z" fill="#1A87C7"/>
<path fill-rule="evenodd" clip-rule="evenodd" d="M44.052 29.0692L30.5157 21.2412L1.52979 37.9122L15.1384 45.7471L44.052 29.0692Z" fill="#BDEDF8"/>
<path fill-rule="evenodd" clip-rule="evenodd" d="M2.4111 70.0019L14.2581 76.8389V46.2392L2.4111 39.4125V70.0019ZM15.1424 79.1994C14.9885 79.1951 14.8377 79.1551 14.7019 79.0824L1.08986 71.2475C0.964923 71.1651 0.860292 71.0554 0.783992 70.9266C0.707691 70.7978 0.661707 70.6534 0.649414 70.5043L0.721659 37.9123C0.717931 37.7582 0.757595 37.6062 0.836075 37.4736C0.914556 37.341 1.02871 37.2331 1.16555 37.1622C1.28737 37.088 1.42725 37.0488 1.56987 37.0488C1.71248 37.0488 1.85228 37.088 1.9741 37.1622L15.5828 44.997C15.7094 45.0796 15.8154 45.1902 15.8924 45.3203C15.9693 45.4504 16.0153 45.5964 16.0267 45.7472L15.951 78.3323C15.9533 78.4775 15.9212 78.6212 15.8572 78.7516C15.7932 78.882 15.6991 78.9954 15.5828 79.0824C15.446 79.1556 15.294 79.1956 15.1389 79.1994H15.1424Z" fill="#1A87C7"/>
<path fill-rule="evenodd" clip-rule="evenodd" d="M15.1384 45.747L1.52979 37.9121V70.5041L15.1384 78.3321V45.747Z" fill="#3DA5D9"/>
<path fill-rule="evenodd" clip-rule="evenodd" d="M16.0227 46.2391L15.9471 76.8388L43.168 61.1588V30.5625L16.0227 46.2391ZM15.1384 79.1993C14.9845 79.195 14.8338 79.155 14.6981 79.0823C14.5619 79.0109 14.4484 78.9028 14.3705 78.7702C14.2927 78.6376 14.2536 78.4859 14.2576 78.3321V45.7471C14.2691 45.5968 14.3148 45.4511 14.3911 45.3211C14.4674 45.1911 14.5724 45.0802 14.6981 44.9969L43.6015 28.319C43.7365 28.243 43.8888 28.2031 44.0436 28.2031C44.1985 28.2031 44.3508 28.243 44.4858 28.319C44.6114 28.4023 44.7164 28.5132 44.7927 28.6432C44.869 28.7732 44.9147 28.9188 44.9262 29.0691L44.854 61.6611C44.8552 61.8062 44.8225 61.9495 44.7586 62.0797C44.6947 62.2099 44.6012 62.3235 44.4858 62.4112L15.5823 79.0823C15.4455 79.1555 15.2935 79.1955 15.1384 79.1993Z" fill="#1A87C7"/>
<path fill-rule="evenodd" clip-rule="evenodd" d="M44.0518 29.0693L15.1382 45.7473V78.3323L44.0518 61.6613V29.0693Z" fill="white"/>
<path fill-rule="evenodd" clip-rule="evenodd" d="M18.9646 60.4398V70.3633L39.9299 58.2652C40.0118 58.2062 40.0805 58.1308 40.1314 58.0436C40.1824 57.9565 40.2146 57.8597 40.2258 57.7594V52.2919L38.3849 51.6312C38.1647 51.5555 37.4284 51.7688 36.7677 52.6635L31.3242 59.6416C30.3677 60.9628 29.043 61.5891 27.9385 61.2725L20.7297 59.208C20.4338 59.1289 19.6975 59.4729 19.0368 60.3572L18.9646 60.4743V60.4398ZM18.4485 72.4072C18.241 72.4029 18.0383 72.3448 17.8601 72.2386C17.6466 72.1181 17.4714 71.94 17.3545 71.7246C17.2377 71.5091 17.1839 71.2651 17.1994 71.0205V60.1611C17.2085 59.9826 17.258 59.8085 17.344 59.6519L17.6398 59.3078C18.6721 57.8798 20.0691 57.1676 21.1702 57.5048L28.396 59.5693C28.6885 59.6484 29.3526 59.3697 30.0132 58.537L35.4567 51.5693C36.489 50.1929 37.886 49.5839 38.9871 49.9796L41.3441 50.8467C41.5165 50.903 41.6664 51.0127 41.7722 51.1599C41.878 51.3072 41.9342 51.4843 41.9325 51.6656V57.7353C41.9112 58.1317 41.8008 58.5182 41.6096 58.8661C41.4184 59.214 41.1512 59.5143 40.828 59.7448L19.2708 72.1594C19.0232 72.313 18.7396 72.3984 18.4485 72.4072Z" fill="#1A87C7"/>
<path fill-rule="evenodd" clip-rule="evenodd" d="M41.1069 51.6931V57.7629C41.0838 58.013 41.0062 58.2551 40.8796 58.472C40.753 58.689 40.5804 58.8756 40.3739 59.0187L18.817 71.4369C18.3765 71.6743 18.0806 71.4816 18.0806 71.0205V60.1611L18.3008 59.817C19.1129 58.7297 20.2139 58.1276 20.9503 58.3478L28.1589 60.4123C28.8952 60.6256 29.9275 60.0958 30.6604 59.0807L36.1073 52.1129C36.9159 51.0807 37.9447 50.5439 38.6811 50.8123L41.1069 51.6931Z" fill="#66CEEF"/>
<path fill-rule="evenodd" clip-rule="evenodd" d="M34.8547 40.6718C33.0895 41.704 31.5446 44.3225 31.5446 46.3802C31.5446 47.206 31.837 47.8082 32.2052 48.049C32.6491 48.3002 33.3098 48.1969 34.0461 47.7943C35.8113 46.7621 37.2839 44.1436 37.2839 42.0756C37.2839 41.2601 37.0603 40.6477 36.6199 40.4068C36.2551 40.1625 35.5876 40.2589 34.8547 40.6718ZM32.7901 49.9208C32.2981 49.9316 31.8128 49.8041 31.3897 49.5527C30.3574 48.9849 29.8447 47.8528 29.8447 46.3802C29.8447 43.6894 31.6857 40.5307 34.0392 39.1543C35.2883 38.418 36.5407 38.3216 37.4972 38.8894C38.5295 39.4606 39.0423 40.5892 39.0423 42.0584C39.0423 44.7595 37.2013 47.932 34.8478 49.2843C34.2349 49.6793 33.5258 49.8994 32.797 49.9208H32.7901Z" fill="#1A87C7"/>
<path fill-rule="evenodd" clip-rule="evenodd" d="M34.4863 39.915C36.4752 38.7314 38.1647 39.6948 38.1647 42.0759C38.1647 44.457 36.4752 47.3508 34.4863 48.5447C32.353 49.7284 30.7358 48.7649 30.7358 46.3804C30.7358 43.9959 32.353 41.1056 34.4863 39.915Z" fill="#BDEDF8"/>
</svg>
