<svg width="81" height="120" viewBox="0 0 81 120" fill="none" xmlns="http://www.w3.org/2000/svg">
<path fill-rule="evenodd" clip-rule="evenodd" d="M2.30089 63.1345V109.744C2.45308 111.34 2.4814 111.793 3.63167 112.738L8.83093 115.729C8.77784 115.375 8.75662 114.985 8.71061 114.546L8.73184 66.8366L2.30089 63.1345ZM11.2695 119.034C11.1107 119.032 10.9544 118.993 10.8129 118.921L2.62652 114.207C0.856862 112.766 0.697592 111.775 0.50293 109.839L0.527686 61.6055C0.524208 61.4501 0.562421 61.2965 0.638354 61.1608C0.714288 61.0252 0.825183 60.9123 0.959494 60.834C1.09746 60.759 1.25198 60.7197 1.40899 60.7197C1.56601 60.7197 1.72051 60.759 1.85847 60.834L10.0414 65.5625C10.1779 65.6401 10.2917 65.7522 10.3712 65.8876C10.4507 66.023 10.4932 66.177 10.4944 66.334L10.4732 114.469C10.6218 116.058 10.6466 116.511 11.804 117.456C11.9764 117.598 12.0897 117.799 12.1218 118.02C12.1538 118.242 12.1024 118.467 11.9774 118.652C11.8982 118.767 11.7927 118.862 11.6696 118.929C11.5465 118.995 11.4094 119.031 11.2695 119.034Z" fill="#1A87C7"/>
<path fill-rule="evenodd" clip-rule="evenodd" d="M11.2694 118.149L3.07948 113.428C1.66376 112.253 1.57528 111.527 1.40186 109.744L1.42309 61.5913L9.60949 66.3198L9.58825 114.454C9.76168 116.256 9.83601 116.985 11.2694 118.149Z" fill="white"/>
<path fill-rule="evenodd" clip-rule="evenodd" d="M2.3016 61.0778L8.73254 64.7764V50.7147C8.82773 48.5862 9.43138 46.5115 10.493 44.6642C11.5546 42.8168 13.0432 41.2507 14.8343 40.0968L73.647 6.17605C74.0717 5.97785 74.4504 5.82212 74.7973 5.66639L69.4883 2.60488C68.2318 2.14123 67.8319 2.32528 66.3029 3.02606L7.57872 36.8972C6.04349 37.8957 4.76737 39.2446 3.85545 40.8327C2.94353 42.4209 2.42188 44.203 2.33346 46.0322L2.30514 61.0778H2.3016ZM9.61028 67.2149C9.45056 67.2107 9.29457 67.1656 9.15724 67.084L0.977902 62.3626C0.843591 62.2842 0.732718 62.1713 0.656785 62.0356C0.580851 61.9 0.542639 61.7464 0.546116 61.591V45.9862C0.641786 43.8582 1.24525 41.784 2.30614 39.9368C3.36702 38.0897 4.85451 36.5232 6.64434 35.3683L65.4641 1.43691C67.3046 0.58748 68.2566 0.230003 70.2634 0.987415L78.5737 5.77257C78.7682 5.88311 78.9131 6.06371 78.9789 6.2775C79.0446 6.49128 79.0263 6.72211 78.9277 6.92284C78.8366 7.12539 78.6713 7.28529 78.4658 7.36957C78.2604 7.45386 78.0305 7.45611 77.8234 7.37586C76.4466 6.85204 76.0219 7.04317 74.4858 7.72979L15.7651 41.6293C14.229 42.6249 12.9516 43.9714 12.0384 45.5579C11.1251 47.1444 10.6022 48.9253 10.5128 50.7536V66.3266C10.5123 66.4837 10.4701 66.638 10.3905 66.7736C10.3109 66.9091 10.1968 67.0211 10.0598 67.0982C9.92183 67.1735 9.76744 67.2136 9.61028 67.2149Z" fill="#1A87C7"/>
<path fill-rule="evenodd" clip-rule="evenodd" d="M9.60976 66.3196L1.42334 61.5911V45.9862C1.53276 44.01 2.10636 42.0873 3.09762 40.3741C4.08888 38.661 5.46989 37.2055 7.1287 36.1257L65.9202 2.21915C67.5518 1.46882 68.2278 1.18213 69.9373 1.83336L78.1166 6.55481C76.4142 5.91065 75.7347 6.20087 74.0995 6.94766L15.308 40.8542C13.6509 41.9352 12.2716 43.3911 11.2816 45.1042C10.2917 46.8172 9.71896 48.7393 9.60976 50.7147V66.3196Z" fill="#3DA5D9"/>
<path fill-rule="evenodd" clip-rule="evenodd" d="M15.7648 41.6296C12.9334 43.2718 10.5125 47.434 10.5125 50.715V64.7767L78.899 25.3134V10.2394C78.899 8.82371 78.4743 7.76192 77.6638 7.32659C76.8533 6.89125 75.788 7.00804 74.5528 7.71945L15.7648 41.6296ZM9.60997 67.2152C9.45025 67.211 9.29426 67.1659 9.15693 67.0843C9.02424 67.0065 8.91486 66.8945 8.84015 66.76C8.76545 66.6256 8.72819 66.4736 8.73223 66.3198V50.715C8.73223 46.8217 11.4964 42.0366 14.8871 40.097L73.6396 6.18692C75.4482 5.14282 77.2037 5.00479 78.5593 5.79406C79.9148 6.58333 80.6829 8.16895 80.6829 10.2501V25.823C80.6812 25.9786 80.6384 26.1309 80.5589 26.2645C80.4793 26.3982 80.3658 26.5084 80.2298 26.584L10.0595 67.0914C9.92217 67.1691 9.76773 67.2117 9.60997 67.2152Z" fill="#1A87C7"/>
<path fill-rule="evenodd" clip-rule="evenodd" d="M15.3077 40.8543L74.0992 6.96538C77.2385 5.15679 79.7974 6.63268 79.7974 10.2569L79.7762 25.8299L9.60938 66.3196V50.7148C9.60938 47.0976 12.1683 42.6664 15.3077 40.8543Z" fill="#BDEDF8"/>
<path fill-rule="evenodd" clip-rule="evenodd" d="M10.5123 66.8362L10.4911 114.472C10.4911 115.888 10.9123 116.925 11.7228 117.378C12.5333 117.831 13.5986 117.696 14.8338 116.992L73.6253 83.0605C76.4567 81.4253 78.8741 77.256 78.8741 73.9715L78.8989 27.3482L10.5123 66.8362ZM12.7704 119.427C12.0905 119.433 11.4213 119.258 10.8309 118.921C9.47885 118.135 8.72852 116.553 8.72852 114.472L8.74975 66.3372C8.74665 66.1827 8.78425 66.03 8.8588 65.8946C8.93335 65.7591 9.04223 65.6457 9.17447 65.5656L79.3696 25.0724C79.5027 24.9943 79.6542 24.9531 79.8085 24.9531C79.9628 24.9531 80.1143 24.9943 80.2474 25.0724C80.3835 25.1513 80.4968 25.2643 80.5762 25.4001C80.6556 25.536 80.6984 25.6901 80.7004 25.8475L80.6685 74.0034C80.6685 77.9178 77.915 82.6818 74.5491 84.6213L15.7505 118.531C14.8525 119.085 13.825 119.394 12.7704 119.427Z" fill="#1A87C7"/>
<path fill-rule="evenodd" clip-rule="evenodd" d="M79.7764 25.8301V73.9859C79.7764 77.6101 77.2175 82.0378 74.0781 83.8464C52.5166 96.2871 36.8446 105.316 15.2867 117.757C12.1473 119.565 9.58838 118.089 9.58838 114.472L9.60961 66.3375L79.7764 25.8301Z" fill="white"/>
<path fill-rule="evenodd" clip-rule="evenodd" d="M53.9467 27.8013C53.6696 27.8206 53.4018 27.9095 53.1681 28.0597C52.4992 28.4993 51.9417 29.0886 51.54 29.7809C51.1382 30.4732 50.9031 31.2496 50.8534 32.0485C50.8534 32.5475 51.0056 32.9262 51.2321 33.0536C51.4586 33.1811 51.8586 33.1138 52.2939 32.8661C52.9534 32.4196 53.5018 31.8279 53.8969 31.1364C54.2921 30.445 54.5234 29.6721 54.5732 28.8772C54.5732 28.3711 54.4528 27.9924 54.2193 27.865C54.1332 27.8232 54.0388 27.8014 53.9432 27.8013H53.9467ZM51.4692 34.9012C51.066 34.9001 50.6699 34.7952 50.3189 34.5968C49.5403 34.1367 49.0625 33.2058 49.0625 32.0485C49.1155 30.9359 49.4355 29.8524 49.9955 28.8896C50.5555 27.9267 51.3389 27.1128 52.2797 26.5165C53.2778 25.9396 54.3077 25.8582 55.1112 26.3183C55.9146 26.7784 56.3358 27.7128 56.3358 28.8772C56.3358 30.9442 54.959 33.3722 53.1504 34.4021C52.6471 34.7125 52.0709 34.8846 51.4798 34.9012H51.4692Z" fill="#1A87C7"/>
<path fill-rule="evenodd" clip-rule="evenodd" d="M52.715 27.2881C54.2511 26.4104 55.4757 27.1218 55.4757 28.8772C55.4248 29.8325 55.148 30.762 54.6681 31.5896C54.1882 32.4171 53.5188 33.119 52.715 33.6376C51.2073 34.5083 49.9756 33.804 49.9756 32.0485C49.9756 30.293 51.2073 28.1588 52.715 27.2881Z" fill="white"/>
<path fill-rule="evenodd" clip-rule="evenodd" d="M63.4069 22.3471C63.131 22.3699 62.8644 22.4572 62.6283 22.6019C61.4002 23.3097 60.3207 25.1537 60.3207 26.5907C60.3207 27.0968 60.4694 27.4684 60.6994 27.6029C60.9295 27.7374 61.3046 27.6596 61.7612 27.4083C62.4286 26.9677 62.9845 26.378 63.385 25.6858C63.7855 24.9935 64.0195 24.2177 64.0688 23.4195C64.0916 23.2344 64.0697 23.0466 64.0051 22.8717C63.9404 22.6969 63.8349 22.54 63.6972 22.4143C63.6129 22.3643 63.5154 22.3409 63.4176 22.3471H63.4069ZM60.9294 29.4434C60.5263 29.4453 60.1297 29.3416 59.7792 29.1425C59.0005 28.686 58.5439 27.7551 58.5439 26.5907C58.5439 24.5237 59.9597 22.0958 61.7293 21.0658C62.7345 20.4854 63.7644 20.4146 64.5608 20.8712C65.3571 21.3277 65.8137 22.2621 65.8137 23.4195C65.8137 25.4935 64.398 27.9144 62.6 28.9514C62.1005 29.2529 61.5305 29.4176 60.9471 29.4292L60.9294 29.4434Z" fill="#1A87C7"/>
<path fill-rule="evenodd" clip-rule="evenodd" d="M62.2036 21.8306C63.7113 20.9599 64.943 21.6713 64.943 23.4197C64.943 25.1682 63.7113 27.313 62.2036 28.1801C60.6958 29.0472 59.4429 28.3465 59.4429 26.591C59.4952 25.6361 59.7726 24.707 60.2524 23.8797C60.7322 23.0524 61.4007 22.3503 62.2036 21.8306Z" fill="white"/>
<path fill-rule="evenodd" clip-rule="evenodd" d="M72.8751 16.8756C72.5977 16.8936 72.3296 16.9826 72.0965 17.1339C71.4355 17.5786 70.8856 18.1693 70.4892 18.8603C70.0927 19.5513 69.8604 20.3241 69.8101 21.1192C69.8101 21.6218 69.9375 22.004 70.164 22.135C70.3905 22.2659 70.7869 22.1881 71.2258 21.9368C71.8924 21.4956 72.4475 20.9057 72.8473 20.2135C73.2471 19.5214 73.4808 18.7458 73.5299 17.948C73.5537 17.7634 73.5342 17.5757 73.4727 17.4C73.4113 17.2242 73.3097 17.0653 73.176 16.9357C73.0892 16.8928 72.9931 16.8721 72.8964 16.8756H72.8751ZM70.4365 23.9542C70.0327 23.9579 69.6354 23.8528 69.2863 23.6498C68.4793 23.1968 68.0298 22.2659 68.0298 21.0979C68.0298 19.0345 69.4455 16.603 71.2152 15.566C72.2203 14.9856 73.2503 14.9183 74.0466 15.3784C74.843 15.8386 75.3031 16.7623 75.3031 17.9267C75.3031 19.9937 73.8874 22.4252 72.0894 23.4622C71.5906 23.7672 71.0209 23.9368 70.4365 23.9542Z" fill="#1A87C7"/>
<path fill-rule="evenodd" clip-rule="evenodd" d="M71.6719 16.3515C73.1761 15.4773 74.4043 16.1851 74.4043 17.9406C74.3534 18.8926 74.0796 19.8194 73.605 20.6462C73.1304 21.4731 72.4683 22.1769 71.6719 22.701C70.143 23.5787 68.9077 22.8673 68.9077 21.1118C68.9077 19.3563 70.143 17.2292 71.6719 16.3515Z" fill="white"/>
<path fill-rule="evenodd" clip-rule="evenodd" d="M32.4807 76.4984V76.9833L42.4226 71.246V70.7612L32.4807 76.4984ZM31.6029 79.4113C31.4438 79.4116 31.287 79.3727 31.1464 79.298C31.0106 79.2196 30.8974 79.1073 30.818 78.972C30.7386 78.8368 30.6956 78.6833 30.6934 78.5264V75.9817C30.6954 75.8243 30.7382 75.6702 30.8176 75.5343C30.897 75.3985 31.0103 75.2855 31.1464 75.2065L42.8544 68.4535C42.9875 68.3718 43.1407 68.3286 43.2968 68.3286C43.453 68.3286 43.6061 68.3718 43.7393 68.4535C43.8742 68.5306 43.9864 68.6418 44.0647 68.776C44.143 68.9102 44.1845 69.0627 44.1852 69.218V71.7628C44.184 71.919 44.1423 72.0722 44.0641 72.2075C43.9859 72.3427 43.874 72.4553 43.7393 72.5344L32.01 79.2909C31.8887 79.3694 31.7474 79.4112 31.6029 79.4113Z" fill="#1A87C7"/>
<path fill-rule="evenodd" clip-rule="evenodd" d="M31.6035 78.5267V75.9819L43.301 69.2183V71.763L31.6035 78.5267Z" fill="#66CEEF"/>
<path fill-rule="evenodd" clip-rule="evenodd" d="M19.4031 79.6165V80.9261L29.7591 69.7242V67.6891L19.3925 68.4854V70.5665L26.871 69.6251C27.0537 69.6015 27.2392 69.6356 27.4017 69.7225C27.5641 69.8094 27.6953 69.9449 27.7771 70.11C27.8553 70.2767 27.8806 70.4635 27.8496 70.645C27.8186 70.8266 27.7328 70.9944 27.6036 71.1258L19.3925 79.6201L19.4031 79.6165ZM18.5182 84.0796C18.4069 84.0798 18.2965 84.0594 18.1926 84.0194C18.0242 83.9571 17.8789 83.8447 17.7763 83.6972C17.6738 83.5498 17.619 83.3744 17.6193 83.1948V79.252C17.6278 79.0231 17.7153 78.8042 17.867 78.6326L24.5705 71.7062L18.6244 72.4424C18.4981 72.4596 18.3696 72.4496 18.2475 72.413C18.1254 72.3763 18.0125 72.314 17.9166 72.23C17.732 72.0539 17.624 71.8125 17.6157 71.5575V67.6643C17.6184 67.4384 17.7051 67.2216 17.8588 67.0561C18.0126 66.8906 18.2224 66.7882 18.4475 66.7689L30.5908 65.838C30.7102 65.8259 30.8308 65.841 30.9436 65.882C31.0564 65.9231 31.1584 65.9891 31.242 66.0752C31.3388 66.1528 31.4165 66.2515 31.4693 66.3638C31.522 66.476 31.5484 66.5989 31.5465 66.7229V70.071C31.5425 70.2974 31.4527 70.5137 31.2951 70.6763L19.173 83.7717C19.0906 83.8649 18.99 83.9403 18.8774 83.9933C18.7648 84.0462 18.6426 84.0756 18.5182 84.0796Z" fill="#1A87C7"/>
<path fill-rule="evenodd" clip-rule="evenodd" d="M18.5181 83.1949V79.2521L26.977 70.5064L18.5181 71.5718V67.6679L30.6473 66.73V70.0746L18.5181 83.1949Z" fill="#66CEEF"/>
</svg>
