<svg width="121" height="131" viewBox="0 0 121 131" fill="none" xmlns="http://www.w3.org/2000/svg">
<path fill-rule="evenodd" clip-rule="evenodd" d="M3.59805 93.9831L2.10791 92.9676C1.7579 92.3803 1.67228 91.7043 1.65726 91.0313L1.67377 46.0955C1.73836 43.1438 3.61907 39.8841 6.14571 38.3489L69.4711 1.82218L69.7084 1.69149C70.5541 1.27689 71.4524 1.03054 72.3267 1.4932L73.4638 2.26832C72.8631 2.38152 72.2879 2.60293 71.7664 2.92177L8.44554 39.4469C5.64551 41.1474 3.59956 44.6715 3.52745 47.9702L3.51692 93.2395C3.53045 93.4273 3.54548 93.5925 3.56651 93.7788V93.8089L3.59654 93.9831H3.59805ZM1.49502 93.6827L4.27402 95.5754C4.36169 95.6345 4.46686 95.662 4.57222 95.6534C4.67758 95.6447 4.77686 95.6005 4.85377 95.528C4.93067 95.4555 4.98061 95.3589 4.99536 95.2542C5.01012 95.1496 4.98882 95.043 4.93496 94.952C4.53539 94.2835 4.44978 93.7082 4.43327 92.9271L4.44977 47.9913C4.51586 45.02 6.40258 41.7723 8.92021 40.2446L72.2305 3.72542L72.2501 3.71491C73.1514 3.21769 74.1383 2.8767 75.1237 3.39495C75.2287 3.45929 75.3549 3.47929 75.4746 3.45056C75.5944 3.42182 75.6978 3.3467 75.7621 3.24172C75.8265 3.13675 75.8465 3.01051 75.8177 2.89078C75.789 2.77105 75.7139 2.66764 75.6089 2.6033L72.8299 0.709073C71.7784 -0.00445586 70.3138 0.360572 69.2683 0.874312L5.67405 37.5512C2.868 39.2532 0.820549 42.7968 0.748444 46.0775L0.736412 91.2927C0.713882 91.8455 1.06239 93.3792 1.49502 93.6796V93.6827Z" fill="#1A87C7"/>
<path fill-rule="evenodd" clip-rule="evenodd" d="M4.54224 95.188L1.76324 93.2953L1.65959 93.121L1.56494 92.9347L1.48081 92.738L1.4072 92.5292L1.34262 92.3083L1.29003 92.0755L1.2495 91.8336L1.21943 91.5798L1.20142 91.3154V91.0405L1.21793 46.0867C1.22948 45.5035 1.30099 44.9232 1.43126 44.3547C1.95995 42.2132 3.11526 40.2781 4.74953 38.7967C5.1156 38.483 5.507 38.2001 5.91972 37.9509L69.2421 1.41374L69.4839 1.28155L69.7212 1.16588L69.9556 1.06523L70.1854 0.981114L70.4138 0.910512L70.6361 0.854932L70.8539 0.815874L71.0672 0.788837L71.2745 0.77832H71.4773L71.6741 0.794847L71.8648 0.826391L72.0496 0.872958L72.2269 0.931544L72.3981 1.00365L72.5603 1.08927L75.3394 2.9835L75.1756 2.89638L75.0044 2.82427L74.8271 2.76569L74.6439 2.72062L74.4531 2.68757L74.2563 2.67105H74.0535L73.8447 2.68307L73.6329 2.70861L73.4151 2.74916L73.1913 2.80324L72.9644 2.87384L72.7346 2.95797L72.4988 3.05861L72.2614 3.17428L72.0196 3.30797L8.6867 39.8407C7.8351 40.3585 7.079 41.0191 6.45149 41.7935C6.05195 42.2868 5.68945 42.809 5.36693 43.3557C4.54975 44.8173 4.01499 46.2729 3.98495 47.9854L3.9669 92.9392V93.2141L3.98495 93.4785L4.01498 93.7324L4.05704 93.9757L4.1096 94.2071L4.17271 94.4279L4.24632 94.6367L4.34846 94.8335L4.44161 95.0182L4.54224 95.188Z" fill="#66CEEF"/>
<path fill-rule="evenodd" clip-rule="evenodd" d="M8.92448 40.2426L72.2588 3.70844C72.9333 3.31938 73.5642 3.13462 74.114 3.13462C74.4636 3.12575 74.8087 3.21365 75.1115 3.3886C75.4142 3.56356 75.6627 3.81876 75.8295 4.12605C76.1059 4.60374 76.2606 5.24216 76.2606 6.02328L76.2426 50.9771C76.2426 52.3877 75.7364 53.9679 74.9222 55.377C74.108 56.786 72.9934 58.0133 71.7676 58.7178L8.43477 95.2505C7.7588 95.6396 7.12941 95.8243 6.57962 95.8243C6.23066 95.8283 5.88673 95.7408 5.58216 95.5705C5.28086 95.3925 5.03248 95.1373 4.86261 94.8314C4.58772 94.3537 4.43151 93.7138 4.43151 92.9326L4.44952 47.9788C4.44952 46.5713 4.95576 44.9925 5.76993 43.582C6.5841 42.1714 7.70021 40.9457 8.92448 40.2426ZM71.7962 2.90028L8.4618 39.433C7.09633 40.2201 5.86155 41.5706 4.97076 43.1118C4.07998 44.653 3.52721 46.3985 3.52721 47.9743L3.50916 92.9281C3.50916 93.879 3.70898 94.6737 4.06348 95.2896C4.31059 95.7398 4.67628 96.1138 5.12091 96.371C5.56554 96.6281 6.07207 96.7585 6.58559 96.7482C7.29462 96.7482 8.08779 96.5243 8.90347 96.0511L72.2363 59.5184C73.6033 58.7298 74.8381 57.3794 75.7274 55.8381C76.6166 54.2969 77.1709 52.5514 77.1709 50.9726L77.189 6.01878C77.189 5.06941 76.9892 4.27326 76.6347 3.65887C76.3877 3.20888 76.0222 2.83515 75.5779 2.57827C75.1335 2.32139 74.6272 2.19117 74.114 2.20177C73.405 2.20628 72.6179 2.4301 71.7962 2.90028Z" fill="#1A87C7"/>
<path fill-rule="evenodd" clip-rule="evenodd" d="M8.69344 39.8406L72.0263 3.3079C74.613 1.81474 76.7266 3.04051 76.7251 6.02382L76.7071 50.9777C76.7071 53.9655 74.592 57.6277 72.0053 59.1209L8.67243 95.6536C6.0872 97.1437 3.97215 95.921 3.97365 92.9332L3.99169 47.9793C3.99319 44.9945 6.10972 41.3307 8.69344 39.8406Z" fill="#BDEDF8"/>
<path fill-rule="evenodd" clip-rule="evenodd" d="M9.20493 43.6167L71.976 7.40701C72.1945 7.2678 72.4457 7.18806 72.7045 7.17567C72.8189 7.17323 72.9319 7.20122 73.032 7.25679C73.1301 7.31596 73.2109 7.39988 73.2663 7.50014C73.3851 7.73206 73.4416 7.9909 73.4301 8.25122L73.4135 52.0244C73.3715 52.6882 73.1764 53.3333 72.8436 53.9092C72.5108 54.4851 72.0494 54.9762 71.4953 55.3442L8.72421 91.5464C8.5047 91.6848 8.25333 91.7644 7.99418 91.7777C7.87982 91.7796 7.76697 91.7516 7.66671 91.6966C7.56868 91.638 7.48784 91.5546 7.43237 91.4548C7.31396 91.2227 7.25754 90.964 7.26862 90.7037L7.28666 46.9305C7.32819 46.2662 7.52296 45.6205 7.85577 45.044C8.18858 44.4675 8.65037 43.9759 9.20493 43.6077V43.6167ZM25.4283 33.1872L8.74376 42.8116C8.04656 43.2604 7.46645 43.869 7.05158 44.5869C6.63671 45.3049 6.39904 46.1114 6.35829 46.9395L6.34179 90.7127C6.33163 91.1313 6.4305 91.5455 6.62869 91.9144C6.76331 92.1577 6.96174 92.3597 7.20261 92.4987C7.44347 92.6377 7.71766 92.7083 7.99568 92.703C8.41736 92.6908 8.82851 92.5686 9.18839 92.3485L71.9579 56.1463C72.6553 55.6985 73.2355 55.0905 73.6502 54.373C74.0649 53.6554 74.302 52.8492 74.3419 52.0214L74.3599 8.24821C74.3717 7.82631 74.2723 7.40873 74.0715 7.03747C73.9371 6.7937 73.7389 6.59118 73.498 6.45169C73.2571 6.31221 72.9828 6.24104 72.7045 6.24583C72.2831 6.25797 71.8723 6.38075 71.5133 6.60185L25.4283 33.1872Z" fill="#1A87C7"/>
<path fill-rule="evenodd" clip-rule="evenodd" d="M8.97439 43.2142L25.659 33.5898L71.7454 7.00148C72.9336 6.3165 73.8965 6.8738 73.895 8.24378L73.8785 52.0184C73.8785 53.3899 72.9141 55.0543 71.7274 55.7408L19.7209 85.7391L8.95634 91.949C7.76814 92.634 6.80527 92.0797 6.80527 90.7082L6.82328 46.9351C6.82328 45.5621 7.78768 43.8992 8.97439 43.2142Z" fill="white"/>
<path fill-rule="evenodd" clip-rule="evenodd" d="M120.202 86.0938V89.5322L120.148 89.7155L120.078 89.8972L119.996 90.0775L119.897 90.2548L119.783 90.4305L119.653 90.6033L119.509 90.773L119.348 90.9382L119.174 91.1005L118.983 91.2582L118.779 91.4129L118.558 91.5616L118.322 91.7044L54.7372 128.42L54.4894 128.556L54.2325 128.683L53.9666 128.802L53.6932 128.912L53.4123 129.012L53.1254 129.105L52.8325 129.188L52.5336 129.263L52.2301 129.328L51.9222 129.385L51.6097 129.433L51.2958 129.473L50.9788 129.503L50.6604 129.526L50.3404 129.539L50.0189 129.542L49.699 129.538L49.379 129.524L49.0605 129.503L48.7436 129.472L48.4296 129.433L48.1172 129.385L47.8092 129.326L47.5058 129.26L47.2069 129.186L46.914 129.102L46.627 129.009L46.3461 128.909L46.0727 128.799L45.8068 128.68L45.55 128.552L45.3021 128.416L6.2593 105.832L6.02495 105.688L5.80414 105.541L5.59836 105.386L5.40909 105.228L5.23481 105.066L5.07561 104.901L4.93137 104.731L4.8022 104.558L4.68803 104.383L4.59041 104.204L4.50628 104.025L4.43869 103.843L4.3846 103.66V100.222L4.43869 100.405L4.50628 100.587L4.59041 100.767L4.68803 100.944L4.8022 101.12L4.93137 101.293L5.07561 101.462L5.23481 101.628L5.40909 101.79L5.59836 101.948L5.80414 102.101L6.02495 102.251L6.2593 102.394L45.3021 124.977L45.55 125.114L45.8068 125.242L46.0727 125.36L46.3461 125.47L46.627 125.572L46.914 125.664L47.2069 125.748L47.5058 125.822L47.8092 125.888L48.1172 125.946L48.4296 125.994L48.7436 126.033L49.0605 126.065L49.379 126.087L49.699 126.099L50.0189 126.104L50.3404 126.099L50.6604 126.087L50.9788 126.065L51.2958 126.035L51.6097 125.996L51.9222 125.946L52.2301 125.889L52.5336 125.825L52.8325 125.749L53.1254 125.667L53.4123 125.574L53.6932 125.473L53.9666 125.363L54.2325 125.245L54.4894 125.119L54.7372 124.982L118.322 88.2659L118.558 88.1232L118.779 87.9745L118.983 87.8212L119.174 87.662L119.348 87.4998L119.509 87.3345L119.653 87.1648L119.783 86.9921L119.897 86.8163L119.996 86.639L120.078 86.4588L120.148 86.277L120.202 86.0938Z" fill="#66CEEF"/>
<path fill-rule="evenodd" clip-rule="evenodd" d="M119.735 87.7735V89.4755L119.71 89.5656L119.651 89.7158L119.577 89.866L119.499 90.0072L119.399 90.1574L119.296 90.2926L119.164 90.4429L119.026 90.5931C118.916 90.6952 118.822 90.7778 118.706 90.8755L118.493 91.0347C118.355 91.1278 118.233 91.206 118.09 91.2931L54.514 128.003L54.2676 128.138L54.0273 128.258L53.7944 128.362C53.6157 128.433 53.4519 128.497 53.2717 128.562L53.0013 128.647L52.7008 128.732L52.429 128.799L52.1075 128.868C51.9182 128.903 51.738 128.934 51.5472 128.963L51.2092 129.005L50.9418 129.031C50.6249 129.052 50.3289 129.065 50.0135 129.07H49.7131L49.4126 129.056C49.2008 129.043 48.9995 129.026 48.7892 129.005L48.4963 128.967L48.1958 128.922L47.8954 128.868L47.595 128.802L47.3246 128.735L47.0242 128.647C46.8499 128.592 46.6892 128.536 46.5164 128.475L46.243 128.365L46.0102 128.26L45.7699 128.141C32.6394 120.92 19.497 112.951 6.49121 105.427C5.77168 104.988 5.0927 104.44 4.84936 103.597V101.894L4.8974 101.945L4.91544 101.963L5.08968 102.125L5.13325 102.16L5.3 102.299L5.31801 102.314L5.55086 102.495L5.77016 102.645L5.81072 102.669C18.459 110.368 32.3585 118.382 45.3327 125.53L45.6076 125.667C45.8014 125.753 45.9817 125.831 46.18 125.911L46.219 125.924L46.4909 126.022L46.7913 126.119L47.0843 126.203C47.2976 126.256 47.5019 126.304 47.7167 126.354C47.7317 126.355 47.7467 126.355 47.7617 126.354L48.0381 126.406C48.3731 126.456 48.6976 126.505 49.0341 126.531L49.3525 126.553L49.686 126.565C50.027 126.565 50.3545 126.565 50.6955 126.552L51.0154 126.529H51.056L51.3564 126.501L51.6704 126.462L51.723 126.451C51.9288 126.42 52.127 126.388 52.3313 126.348L52.6318 126.282L52.6708 126.271C52.8691 126.221 53.0554 126.172 53.2522 126.121L53.2882 126.109L53.5556 126.023C53.6593 125.986 53.7644 125.95 53.8665 125.911L54.1399 125.801C54.4314 125.672 54.6822 125.548 54.9616 125.397L118.556 88.6748L118.59 88.6538L118.817 88.5141L119.058 88.3518L119.263 88.2016C119.28 88.1893 119.295 88.1757 119.31 88.1611L119.472 88.0274L119.492 88.0093L119.667 87.8471L119.694 87.8186L119.735 87.7765V87.7735ZM120.668 89.5355V86.0971C120.668 85.9851 120.628 85.8768 120.555 85.7921C120.481 85.7075 120.38 85.6522 120.269 85.6364C120.158 85.6207 120.045 85.6456 119.951 85.7065C119.857 85.7674 119.788 85.8603 119.758 85.9679L119.711 86.1271L119.652 86.2774L119.579 86.4276L119.501 86.5688L119.4 86.719L119.298 86.8557L119.166 87.0059L119.028 87.1561L118.859 87.3063L118.72 87.4235L118.502 87.5842L118.302 87.7194L118.108 87.8366C96.6633 99.6046 75.7171 112.923 54.2661 124.692L54.0258 124.811L53.7929 124.916L53.5196 125.026C53.2432 125.125 52.9893 125.204 52.7069 125.286C52.5116 125.334 52.3268 125.376 52.1301 125.419L51.8296 125.473L51.5697 125.514H51.5457L51.2303 125.555C51.023 125.574 50.8262 125.589 50.6189 125.603L50.3184 125.615H50.018C49.701 125.615 49.4051 125.597 49.0897 125.574L48.7892 125.544L48.4963 125.508C48.3025 125.478 48.1208 125.446 47.927 125.41L47.6055 125.34L47.3366 125.272L47.0437 125.189L46.7703 125.102C46.59 125.038 46.4263 124.973 46.2475 124.903C46.0688 124.832 45.9366 124.76 45.7744 124.679L45.528 124.544L6.49572 101.964C5.74464 101.514 5.09721 100.976 4.84334 100.105C4.8225 99.9898 4.75914 99.8868 4.66587 99.8163C4.57261 99.7458 4.45627 99.713 4.33991 99.7243C4.22356 99.7357 4.11572 99.7904 4.03783 99.8776C3.95995 99.9647 3.91769 100.078 3.91949 100.195V103.633C3.91949 104.554 5.19482 105.736 5.76265 106.047L45.0773 128.798L45.3252 128.934L45.6001 129.071L45.9006 129.203L46.1739 129.313C46.2761 129.352 46.3812 129.388 46.4849 129.426L46.7418 129.508L46.7868 129.523C46.9971 129.583 47.1954 129.636 47.4087 129.69L47.7091 129.755C48.0411 129.821 48.3626 129.866 48.6976 129.905L48.986 129.933H49.0266L49.345 129.954C49.689 129.972 50.0135 129.971 50.356 129.969L50.688 129.956L51.0079 129.933L51.3084 129.905H51.3564L51.6704 129.864C51.783 129.849 51.8957 129.83 52.0099 129.813L52.2863 129.762H52.3313L52.6318 129.696C52.7414 129.672 52.8496 129.642 52.9577 129.615L53.2582 129.532L53.5586 129.436L53.8305 129.338L53.8695 129.323L54.1429 129.215L54.4434 129.082L54.7183 128.945L118.56 92.0877L118.784 91.9525L118.822 91.93L119.016 91.7978C119.032 91.7893 119.048 91.7792 119.062 91.7678L119.268 91.6175L119.287 91.6025L119.454 91.4643C119.469 91.4531 119.484 91.4411 119.498 91.4283L119.673 91.266L119.846 91.0858L119.869 91.0618L120.019 90.892L120.037 90.8695L120.156 90.7193L120.186 90.6787L120.298 90.503L120.316 90.4759L120.404 90.3257C120.413 90.3092 120.422 90.2921 120.431 90.2746L120.515 90.0943L120.527 90.0628L120.596 89.8811L120.606 89.8465L120.648 89.6963C120.665 89.6434 120.672 89.5879 120.668 89.5325V89.5355Z" fill="#1A87C7"/>
<path fill-rule="evenodd" clip-rule="evenodd" d="M6.49696 97.3448L70.0822 60.6289C71.3094 59.9198 72.9363 59.5668 74.5661 59.5668C76.196 59.5668 77.8243 59.9228 79.0486 60.6304L118.091 83.2154C118.769 83.6075 119.247 84.0627 119.523 84.5418C119.708 84.8419 119.806 85.1875 119.806 85.54C119.806 85.8926 119.708 86.2382 119.523 86.5382C119.247 87.0159 118.772 87.4711 118.091 87.8631L54.5047 124.576C53.2789 125.284 51.6506 125.638 50.0192 125.637C48.3879 125.635 46.7295 125.401 45.5037 124.692L6.46091 102.107C5.87753 101.756 5.39635 101.258 5.06539 100.663C4.88382 100.361 4.78581 100.016 4.78146 99.6642C4.78726 99.3119 4.88572 98.9674 5.06689 98.6652C5.34329 98.1875 5.81798 97.7324 6.49696 97.3418V97.3448ZM69.6165 59.8237L6.03127 96.5397C5.20808 97.0143 4.61773 97.5912 4.26171 98.2026C3.99486 98.6448 3.85383 99.1514 3.85383 99.6679C3.85383 100.184 3.99486 100.691 4.26171 101.133C4.61623 101.749 5.20658 102.32 6.02827 102.796L45.0711 125.38C46.4396 126.171 48.2332 126.568 50.0283 126.568C51.8233 126.568 53.6109 126.174 54.9854 125.384L118.556 88.6743C119.379 88.1981 119.971 87.6228 120.327 87.0099C120.594 86.5682 120.735 86.0617 120.735 85.5453C120.735 85.0289 120.594 84.5224 120.327 84.0807C119.972 83.4648 119.382 82.8925 118.557 82.4163L79.5158 59.8327C78.1473 59.0426 76.3537 58.646 74.5586 58.646C72.7635 58.646 70.9865 59.0321 69.6165 59.8237Z" fill="#1A87C7"/>
<path fill-rule="evenodd" clip-rule="evenodd" d="M6.26412 96.9357L69.8433 60.2257C72.4391 58.7236 76.6842 58.7236 79.2754 60.2257L118.324 82.8153C120.919 84.3175 120.92 86.769 118.324 88.2682L54.739 124.984C52.1448 126.486 47.8982 126.486 45.3039 124.984L6.26262 102.401C3.66837 100.894 3.66988 98.4379 6.26412 96.9357Z" fill="#BDEDF8"/>
<path fill-rule="evenodd" clip-rule="evenodd" d="M74.8601 110.177L92.2447 100.131C92.3511 100.069 92.4285 99.967 92.4601 99.8479C92.4916 99.7288 92.4747 99.6021 92.4129 99.4955C92.372 99.4229 92.3116 99.3631 92.2387 99.3227L78.928 91.6286C78.8564 91.5869 78.775 91.5649 78.6922 91.5649C78.6093 91.5649 78.5279 91.5869 78.4563 91.6286L61.0718 101.677C61.0188 101.707 60.9724 101.748 60.9351 101.796C60.8979 101.845 60.8707 101.9 60.8549 101.959C60.8391 102.018 60.8352 102.08 60.8433 102.14C60.8514 102.201 60.8713 102.259 60.902 102.312C60.943 102.385 61.0033 102.444 61.0762 102.485L74.3869 110.179C74.4587 110.221 74.5403 110.243 74.6235 110.243C74.7067 110.243 74.7884 110.221 74.8601 110.179V110.177ZM91.0835 99.7283L74.6228 109.242L62.2359 102.082L78.6952 92.569L91.0835 99.7283Z" fill="#1A87C7"/>
<path fill-rule="evenodd" clip-rule="evenodd" d="M74.6217 109.778L92.0107 99.7288L78.694 92.0317L61.3049 102.083L74.6217 109.778Z" fill="#66CEEF"/>
<path fill-rule="evenodd" clip-rule="evenodd" d="M14.4593 98.6189L38.9206 84.4985L38.9536 84.4775L39.0468 84.4159L39.1444 84.3558L72.2597 65.2317C72.8801 64.8727 73.7093 64.6939 74.5445 64.6939C75.3388 64.677 76.1245 64.862 76.8278 65.2317L96.5287 76.6286C96.8068 76.7755 97.0423 76.9918 97.2122 77.2565L97.2242 77.2761C97.2982 77.4022 97.336 77.5463 97.3337 77.6926C97.3313 77.8388 97.2887 77.9816 97.2107 78.1053C97.0411 78.3708 96.805 78.5873 96.5257 78.7332L72.0629 92.8535C72.0456 92.8633 72.029 92.8744 72.0133 92.8866L71.9172 92.9482L71.8406 92.9947L38.7268 112.116L38.7043 112.129C38.0058 112.49 37.228 112.671 36.442 112.654C35.6068 112.654 34.7791 112.473 34.1587 112.114L14.4578 100.719C14.179 100.572 13.9429 100.356 13.7728 100.091C13.6954 99.9625 13.6534 99.8158 13.6511 99.6659C13.6535 99.5162 13.696 99.3699 13.7743 99.2423C13.9441 98.977 14.1795 98.7602 14.4578 98.6129L14.4593 98.6189ZM19.0049 94.9205L13.9936 97.8137C13.5737 98.0407 13.2204 98.3737 12.9691 98.7796C12.8085 99.0484 12.7237 99.3557 12.7237 99.6689C12.7237 99.982 12.8085 100.289 12.9691 100.558C13.2185 100.966 13.5715 101.3 13.9921 101.527L33.6931 112.924C34.4562 113.366 35.4536 113.586 36.4435 113.586C37.4334 113.586 38.4053 113.372 39.1654 112.941L39.194 112.925L72.3062 93.8059L72.4099 93.7428L72.4384 93.7263L72.5376 93.6602L96.9928 79.5398C97.4126 79.3119 97.7657 78.9785 98.0173 78.5724C98.177 78.3026 98.262 77.9952 98.2637 77.6817C98.2623 77.38 98.1826 77.084 98.0324 76.8224L98.0173 76.7924C97.7668 76.386 97.414 76.0525 96.9943 75.825L77.2934 64.4295C76.5303 63.9879 75.5344 63.7671 74.5445 63.7671C73.5545 63.7671 72.5571 63.9864 71.7925 64.428L38.6787 83.5491L38.5465 83.6272C38.5075 83.6528 38.4684 83.6783 38.4309 83.7054L19.0049 94.9205Z" fill="#1A87C7"/>
<path fill-rule="evenodd" clip-rule="evenodd" d="M14.2271 98.2161L19.2384 95.3229L26.8303 90.9396L34.7377 86.373L38.6884 84.0927C38.759 84.0431 38.8386 83.9951 38.9123 83.9425L43.925 81.0478L51.5169 76.672L59.4228 72.1069L69.7232 66.1598L72.026 64.8289C73.4125 64.0283 75.6778 64.0298 77.0613 64.8289L96.7622 76.2259C98.1457 77.0265 98.1457 78.3289 96.7622 79.1356L72.2994 93.2559C72.2303 93.304 72.1492 93.3506 72.0771 93.3971L38.9633 112.518C37.5783 113.317 35.313 113.317 33.928 112.518L14.2271 101.121C12.8406 100.327 12.8421 99.0167 14.2271 98.2161Z" fill="#66CEEF"/>
<path fill-rule="evenodd" clip-rule="evenodd" d="M50.3901 129.536V126.098L50.3406 126.099L50.0206 126.104L49.6991 126.099L49.3792 126.086L49.0607 126.064L48.7438 126.033L48.4298 125.994L48.1174 125.946L47.8094 125.887L47.506 125.821L47.2071 125.748L46.9141 125.663L46.6272 125.57L46.3463 125.47L46.0729 125.36L45.807 125.241L45.5502 125.114L45.3023 124.977L6.25948 102.393L6.02514 102.251L5.80432 102.102L5.59855 101.947L5.40927 101.789L5.235 101.627L5.07579 101.462L4.93156 101.292L4.80239 101.119L4.68822 100.944L4.5906 100.765L4.50647 100.586L4.43888 100.404L4.38478 100.221V103.66L4.43888 103.843L4.50647 104.025L4.5906 104.203L4.68822 104.382L4.80239 104.558L4.93156 104.731L5.07579 104.899L5.235 105.066L5.40927 105.228L5.59855 105.387L5.80432 105.54L6.02514 105.688L6.25948 105.832L45.3023 128.415L45.5502 128.552L45.807 128.68L46.0729 128.798L46.3463 128.908L46.6272 129.009L46.9141 129.102L47.2071 129.184L47.506 129.261L47.8094 129.327L48.1174 129.384L48.4298 129.432L48.7438 129.471L49.0607 129.503L49.3792 129.525L49.6991 129.537L50.0206 129.542L50.3406 129.537L50.3901 129.536Z" fill="#1A87C7"/>
<path fill-rule="evenodd" clip-rule="evenodd" d="M50.8572 129.534V126.095C50.8572 126.034 50.8451 125.973 50.8216 125.916C50.7981 125.86 50.7637 125.808 50.7204 125.765C50.677 125.721 50.6255 125.687 50.5688 125.663C50.5121 125.64 50.4513 125.628 50.39 125.628C50.371 125.626 50.3519 125.626 50.3329 125.628C48.7597 125.694 47.1941 125.375 45.7723 124.698C32.6344 117.438 19.516 109.517 6.49519 101.985L6.26836 101.847L6.06856 101.712L5.89733 101.584L5.71407 101.434L5.56385 101.284L5.43014 101.144L5.29345 100.983L5.19282 100.85L5.09816 100.699L5.01102 100.542L4.93742 100.391L4.88637 100.253L4.83679 100.087C4.80588 99.9789 4.73709 99.8861 4.64311 99.8252C4.54913 99.7642 4.43633 99.7394 4.32544 99.7551C4.21456 99.7708 4.11307 99.8261 4.03975 99.9108C3.96643 99.9954 3.9262 100.104 3.92646 100.216V103.654C3.92646 104.414 4.96297 105.5 5.55333 105.921L45.3337 128.955C46.915 129.72 48.6624 130.077 50.417 129.995C50.5379 129.992 50.6527 129.941 50.737 129.854C50.8212 129.768 50.8681 129.651 50.8677 129.531L50.8572 129.534ZM49.9243 126.565V129.083C48.3741 129.062 46.92 128.933 45.5515 128.182L6.51921 105.604C5.77494 105.173 5.19757 104.504 4.88036 103.705L4.85183 103.606V101.894C5.13177 102.18 5.44436 102.432 5.78316 102.645C18.6177 110.456 32.0846 117.757 45.0783 125.383C46.594 126.229 48.2118 126.544 49.9243 126.568V126.565Z" fill="#1A87C7"/>
<path fill-rule="evenodd" clip-rule="evenodd" d="M63.0959 81.9764L65.938 80.3346C66.1865 80.2061 66.4635 80.1425 66.7432 80.1498C67.0226 80.1423 67.2992 80.2064 67.5468 80.3361L70.3889 81.9794C70.4622 82.0165 70.5252 82.0713 70.5722 82.1387V82.1507C70.574 82.1591 70.574 82.1678 70.5722 82.1762C70.5711 82.1897 70.5664 82.2027 70.5587 82.2138C70.5127 82.2815 70.4501 82.3364 70.3769 82.373L67.5453 84.0179C67.2949 84.1405 67.0197 84.2042 66.7409 84.2042C66.4621 84.2042 66.1869 84.1405 65.9365 84.0179L63.0959 82.3745C63.0222 82.3373 62.9591 82.282 62.9127 82.2138C62.9051 82.2026 62.9004 82.1897 62.8991 82.1762C62.9009 82.1629 62.9055 82.1501 62.9127 82.1387C62.9601 82.0716 63.0229 82.017 63.0959 81.9794V81.9764ZM65.4738 79.5294L62.6302 81.1713C62.4153 81.2888 62.235 81.4608 62.1075 81.67C62.018 81.8229 61.9708 81.9968 61.9708 82.174C61.9708 82.3511 62.018 82.5251 62.1075 82.6779C62.2348 82.8867 62.4145 83.0586 62.6287 83.1767L65.4693 84.82C65.8623 85.0234 66.2984 85.1295 66.7409 85.1295C67.1834 85.1295 67.6195 85.0234 68.0125 84.82L70.8561 83.1782C71.071 83.0606 71.2513 82.8886 71.3788 82.6794C71.4692 82.5271 71.5174 82.3534 71.5186 82.1762C71.5184 82.0119 71.4771 81.8502 71.3984 81.706C71.3935 81.6944 71.3875 81.6833 71.3803 81.673C71.2542 81.4632 71.0742 81.291 70.8591 81.1743L68.0185 79.5219C67.6257 79.3185 67.1899 79.2124 66.7477 79.2124C66.3054 79.2124 65.8696 79.3185 65.4768 79.5219L65.4738 79.5294Z" fill="#1A87C7"/>
<path fill-rule="evenodd" clip-rule="evenodd" d="M62.863 81.5734L65.7066 79.9315C66.0283 79.7685 66.3839 79.6836 66.7446 79.6836C67.1052 79.6836 67.4608 79.7685 67.7826 79.9315L70.6232 81.5749C71.194 81.9054 71.194 82.4432 70.6232 82.7766L67.7811 84.4185C67.4593 84.5815 67.1037 84.6664 66.7431 84.6664C66.3824 84.6664 66.0268 84.5815 65.7051 84.4185L62.8645 82.7751C62.2906 82.4432 62.2921 81.9039 62.863 81.5734Z" fill="white"/>
<path fill-rule="evenodd" clip-rule="evenodd" d="M51.4739 87.614L48.6318 89.2544C48.4169 89.372 48.2366 89.544 48.109 89.7531C48.0186 89.9057 47.9709 90.0797 47.9709 90.2571C47.9709 90.4344 48.0186 90.6085 48.109 90.7611C48.1152 90.7726 48.1222 90.7837 48.1301 90.7941C48.256 90.9881 48.4278 91.148 48.6303 91.2598L51.4724 92.9032C51.8651 93.1065 52.3009 93.2126 52.7432 93.2126C53.1855 93.2126 53.6213 93.1065 54.0141 92.9032L56.8562 91.2613L56.8847 91.2433C57.0877 91.1278 57.2578 90.9623 57.3789 90.7626C57.4693 90.6103 57.5171 90.4365 57.5171 90.2593C57.5171 90.0822 57.4693 89.9084 57.3789 89.7561C57.3789 89.7441 57.3654 89.7336 57.3594 89.7231C57.2324 89.5294 57.0602 89.3696 56.8577 89.2574L54.017 87.614C53.627 87.4036 53.1893 87.297 52.7462 87.3046C52.3024 87.2986 51.8644 87.4062 51.4739 87.617V87.614ZM49.0974 90.0595L51.9411 88.4192C52.1895 88.2904 52.4665 88.2268 52.7462 88.2344C53.0256 88.2269 53.3023 88.291 53.5499 88.4207L56.392 90.0641C56.4605 90.1006 56.52 90.1519 56.5662 90.2143V90.2293C56.5743 90.2402 56.5789 90.2533 56.5797 90.2668C56.5787 90.2804 56.5741 90.2933 56.5662 90.3044C56.5246 90.3664 56.469 90.4178 56.404 90.4546L56.3814 90.4651L53.5394 92.107C53.2889 92.2296 53.0138 92.2933 52.7349 92.2933C52.4561 92.2933 52.181 92.2296 51.9305 92.107L49.09 90.4636C49.0214 90.4265 48.9615 90.3753 48.9142 90.3134V90.2984C48.9054 90.2879 48.9006 90.2746 48.9006 90.2608C48.9006 90.2471 48.9054 90.2338 48.9142 90.2233C48.9603 90.1539 49.0233 90.0975 49.0974 90.0595Z" fill="#1A87C7"/>
<path fill-rule="evenodd" clip-rule="evenodd" d="M51.7069 88.0163L48.8633 89.6566C48.2925 89.9871 48.291 90.5264 48.8633 90.8584L51.7039 92.5017C52.0256 92.6647 52.3812 92.7497 52.7419 92.7497C53.1025 92.7497 53.4582 92.6647 53.7799 92.5017L56.6235 90.8599C57.1958 90.5294 57.1958 89.9901 56.6235 89.6581L53.7829 88.0148C53.4611 87.852 53.1054 87.7673 52.7447 87.7676C52.384 87.7678 52.0285 87.853 51.7069 88.0163Z" fill="white"/>
<path fill-rule="evenodd" clip-rule="evenodd" d="M58.4675 91.6591L55.6255 93.2995C55.4101 93.4171 55.2297 93.5897 55.1027 93.7997C55.0127 93.9522 54.965 94.1259 54.9645 94.3029C54.9647 94.4795 55.0124 94.6529 55.1027 94.8047C55.2292 95.0141 55.4091 95.1862 55.624 95.3034L58.4645 96.9467C58.8573 97.1501 59.2931 97.2562 59.7354 97.2562C60.1776 97.2562 60.6134 97.1501 61.0062 96.9467L63.8498 95.3064L63.8784 95.2884C64.0805 95.1711 64.2503 95.0053 64.3726 94.8062C64.463 94.6539 64.5107 94.48 64.5107 94.3029C64.5107 94.1258 64.463 93.952 64.3726 93.7997L64.3515 93.7667C64.2256 93.5727 64.0538 93.4128 63.8513 93.301L61.0092 91.6576C60.6165 91.4543 60.1806 91.3481 59.7384 91.3481C59.2961 91.3481 58.8603 91.4543 58.4675 91.6576V91.6591ZM56.0911 94.1047L58.9332 92.4643C59.1839 92.3417 59.4593 92.2779 59.7384 92.2779C60.0174 92.2779 60.2929 92.3417 60.5436 92.4643L63.3841 94.1077C63.453 94.1443 63.513 94.1956 63.5599 94.2579V94.2729C63.5687 94.2834 63.5735 94.2967 63.5735 94.3104C63.5735 94.3242 63.5687 94.3375 63.5599 94.348C63.5182 94.41 63.4627 94.4614 63.3977 94.4982L63.3751 94.5087L60.533 96.1506C60.2826 96.2732 60.0074 96.3369 59.7286 96.3369C59.4498 96.3369 59.1746 96.2732 58.9242 96.1506L56.0821 94.5072C56.0092 94.4701 55.9467 94.4154 55.9003 94.348C55.8928 94.3368 55.8881 94.3239 55.8868 94.3104C55.8884 94.2968 55.8936 94.2838 55.9018 94.2729C55.949 94.2011 56.0143 94.1431 56.0911 94.1047Z" fill="#1A87C7"/>
<path fill-rule="evenodd" clip-rule="evenodd" d="M58.7 92.0615L55.8579 93.7019C55.2855 94.0324 55.2855 94.5716 55.8579 94.9036L58.6985 96.547C59.0202 96.71 59.3758 96.7949 59.7365 96.7949C60.0971 96.7949 60.4527 96.71 60.7745 96.547L63.6166 94.9066C64.1889 94.5762 64.1904 94.0369 63.6166 93.7049L60.7745 92.0615C60.4529 91.8988 60.0976 91.814 59.7372 91.814C59.3769 91.814 59.0215 91.8988 58.7 92.0615Z" fill="white"/>
<path fill-rule="evenodd" clip-rule="evenodd" d="M54.0199 84.8168L56.862 83.175L56.8905 83.1569C57.0936 83.0415 57.2637 82.876 57.3848 82.6763C57.4746 82.5232 57.5223 82.349 57.5229 82.1715C57.5229 81.9954 57.4752 81.8225 57.3848 81.6713C57.2574 81.4625 57.0777 81.2906 56.8635 81.1726L54.0229 79.5292C53.6301 79.3259 53.1943 79.2197 52.7521 79.2197C52.3098 79.2197 51.874 79.3259 51.4812 79.5292L48.6376 81.1711C48.4224 81.2882 48.242 81.4603 48.1149 81.6698C48.0244 81.8218 47.9767 81.9954 47.9767 82.1723C47.9767 82.3492 48.0244 82.5228 48.1149 82.6747C48.241 82.8845 48.421 83.0567 48.6361 83.1735L51.4767 84.8168C51.8699 85.0197 52.3059 85.1256 52.7483 85.1256C53.1907 85.1256 53.6267 85.0197 54.0199 84.8168ZM56.3963 82.3653L53.5527 84.0072C53.302 84.1288 53.027 84.192 52.7483 84.192C52.4697 84.192 52.1946 84.1288 51.9439 84.0072L49.1018 82.3548C49.0286 82.3182 48.966 82.2633 48.92 82.1956C48.9126 82.1844 48.9084 82.1714 48.908 82.158C48.9098 82.1447 48.9144 82.1319 48.9215 82.1204C48.9685 82.053 49.0315 81.9983 49.1048 81.9612L51.9484 80.3194C52.1989 80.1968 52.474 80.133 52.7528 80.133C53.0317 80.133 53.3068 80.1968 53.5572 80.3194L56.3978 81.9627C56.4719 81.9994 56.535 82.0548 56.5811 82.1235C56.5884 82.1348 56.5931 82.1476 56.5946 82.161C56.5924 82.1745 56.5872 82.1873 56.5796 82.1986C56.539 82.2609 56.4838 82.3125 56.4188 82.3488L56.3963 82.3653Z" fill="#1A87C7"/>
<path fill-rule="evenodd" clip-rule="evenodd" d="M53.7844 84.4141L56.6235 82.7722C57.1958 82.4418 57.1958 81.9025 56.6235 81.5705L53.7829 79.9271C53.4612 79.7641 53.1056 79.6792 52.7449 79.6792C52.3842 79.6792 52.0286 79.7641 51.7069 79.9271L48.8633 81.569C48.291 81.898 48.291 82.4373 48.8633 82.7707L51.7054 84.4126C52.0274 84.5762 52.3835 84.6616 52.7447 84.6619C53.1059 84.6621 53.4621 84.5772 53.7844 84.4141Z" fill="white"/>
<path fill-rule="evenodd" clip-rule="evenodd" d="M61.0179 80.7747L63.8615 79.1328C64.0764 79.0153 64.2567 78.8433 64.3842 78.6341C64.4747 78.4821 64.5225 78.3085 64.5225 78.1316C64.5225 77.9548 64.4747 77.7812 64.3842 77.6292C64.2573 77.42 64.0775 77.248 63.863 77.1305L61.0209 75.4871C60.6311 75.2759 60.1934 75.1688 59.7501 75.1761C59.307 75.1695 58.8696 75.276 58.4792 75.4856L55.6371 77.1275C55.4218 77.2446 55.2415 77.4167 55.1144 77.6262C55.0244 77.7789 54.9769 77.9529 54.9769 78.1301C54.9769 78.3074 55.0244 78.4814 55.1144 78.6341L55.1354 78.6657C55.2619 78.8601 55.4341 79.0205 55.6371 79.1328L58.4777 80.7762C58.8705 80.9796 59.3063 81.0857 59.7486 81.0857C60.1908 81.0857 60.6266 80.9796 61.0194 80.7762L61.0179 80.7747ZM63.3958 78.3277L60.5522 79.9695C60.3018 80.0921 60.0266 80.1559 59.7478 80.1559C59.469 80.1559 59.1938 80.0921 58.9434 79.9695L56.1013 78.3262C56.0331 78.2891 55.9737 78.2379 55.927 78.176L55.918 78.1609C55.9107 78.1502 55.9061 78.1378 55.9045 78.1249C55.906 78.1113 55.9112 78.0983 55.9195 78.0873C55.966 78.0191 56.0291 77.9638 56.1028 77.9266L58.9464 76.2847C59.1971 76.1631 59.4721 76.0999 59.7508 76.0999C60.0294 76.0999 60.3045 76.1631 60.5552 76.2847L63.3958 77.9281C63.4696 77.9653 63.5326 78.0206 63.5791 78.0888C63.5859 78.1003 63.5899 78.1131 63.5911 78.1264C63.5893 78.1397 63.5847 78.1525 63.5776 78.1639C63.5311 78.2324 63.4688 78.2886 63.3958 78.3277Z" fill="#1A87C7"/>
<path fill-rule="evenodd" clip-rule="evenodd" d="M60.7853 80.3721L63.6289 78.7302C64.2012 78.3997 64.2012 77.8604 63.6289 77.5285L60.7883 75.8866C60.4668 75.7236 60.1115 75.6387 59.751 75.6387C59.3906 75.6387 59.0352 75.7236 58.7138 75.8866L55.8732 77.5285C55.3009 77.8589 55.2994 78.3982 55.8732 78.7302L58.7138 80.3736C59.035 80.5356 59.3899 80.6199 59.7497 80.6196C60.1095 80.6193 60.4642 80.5345 60.7853 80.3721Z" fill="white"/>
<path fill-rule="evenodd" clip-rule="evenodd" d="M49.3962 86.4122L46.5541 88.0526C46.306 88.1823 46.0289 88.2464 45.749 88.2389C45.4692 88.2456 45.1922 88.1816 44.9438 88.0526L42.1032 86.4092C42.0299 86.3721 41.967 86.3174 41.92 86.25V86.238C41.916 86.23 41.9134 86.2213 41.9124 86.2124C41.9138 86.1987 41.919 86.1857 41.9274 86.1749C41.9735 86.1063 42.0367 86.0509 42.1107 86.0142L44.9528 84.3723C45.2014 84.244 45.4783 84.1805 45.758 84.1875C46.0378 84.18 46.315 84.2441 46.5631 84.3738L49.4037 86.0172C49.4763 86.0513 49.5393 86.1029 49.587 86.1674C49.5943 86.1787 49.599 86.1915 49.6005 86.2049C49.5987 86.2183 49.5941 86.2311 49.587 86.2425C49.5401 86.3104 49.4772 86.3656 49.4037 86.4032L49.3962 86.4122ZM47.0198 88.8578L49.8649 87.2159C50.0799 87.0979 50.2606 86.926 50.3892 86.7172C50.4787 86.5646 50.5259 86.3909 50.5259 86.2139C50.5259 86.037 50.4787 85.8633 50.3892 85.7107C50.2605 85.5038 50.0797 85.3344 49.8649 85.2195L47.0228 83.5762C46.6304 83.3718 46.1944 83.2651 45.752 83.2651C45.3095 83.2651 44.8736 83.3718 44.4811 83.5762L41.6375 85.2165C41.423 85.3341 41.2433 85.5061 41.1163 85.7152C41.0256 85.868 40.9779 86.0423 40.9781 86.22C40.978 86.3838 41.0193 86.545 41.0982 86.6886C41.1028 86.7006 41.1084 86.7121 41.1148 86.7232C41.2423 86.9323 41.4226 87.1043 41.6375 87.2219L44.4781 88.8653C44.8709 89.0686 45.3067 89.1747 45.749 89.1747C46.1913 89.1747 46.6271 89.0686 47.0198 88.8653V88.8578Z" fill="#1A87C7"/>
<path fill-rule="evenodd" clip-rule="evenodd" d="M49.6278 86.813L46.7857 88.4548C46.464 88.6178 46.1084 88.7028 45.7477 88.7028C45.3871 88.7028 45.0315 88.6178 44.7097 88.4548L41.8691 86.8115C41.2983 86.481 41.2983 85.9417 41.8691 85.6097L44.7112 83.9679C45.0332 83.8057 45.3887 83.7212 45.7492 83.7212C46.1098 83.7212 46.4652 83.8057 46.7872 83.9679L49.6278 85.6202C50.2016 85.9447 50.2001 86.484 49.6278 86.813Z" fill="white"/>
<path fill-rule="evenodd" clip-rule="evenodd" d="M56.0969 86.0186L58.939 84.3767C59.1897 84.2541 59.4651 84.1904 59.7442 84.1904C60.0233 84.1904 60.2986 84.2541 60.5493 84.3767L63.3839 86.0201C63.4577 86.0573 63.5207 86.1126 63.5672 86.1808V86.1914C63.5688 86.1998 63.5688 86.2085 63.5672 86.2169C63.5656 86.2303 63.561 86.2431 63.5537 86.2545C63.5112 86.3228 63.453 86.38 63.3839 86.4212L60.5418 88.0631C60.2932 88.1913 60.0163 88.2549 59.7367 88.2478C59.4568 88.2553 59.1797 88.1912 58.9315 88.0616L56.0909 86.4182C56.017 86.3819 55.9538 86.3271 55.9076 86.259C55.9003 86.2477 55.8956 86.2348 55.8941 86.2214C55.8959 86.2081 55.9005 86.1953 55.9076 86.1839C55.9549 86.1161 56.0184 86.0613 56.0924 86.0246L56.0969 86.0186ZM58.4733 83.5671L55.6312 85.2089C55.416 85.3261 55.2356 85.4981 55.1085 85.7077C55.0185 85.8601 54.9711 86.0339 54.9711 86.2109C54.9711 86.3879 55.0185 86.5617 55.1085 86.7141C55.2356 86.9236 55.416 87.0957 55.6312 87.2128L58.4718 88.8652C58.8646 89.0686 59.3004 89.1747 59.7427 89.1747C60.1849 89.1747 60.6207 89.0686 61.0135 88.8652L63.8571 87.2233C64.0716 87.1058 64.2517 86.9345 64.3798 86.7261C64.4697 86.573 64.5174 86.3989 64.5181 86.2214C64.5173 86.0577 64.476 85.8967 64.3979 85.7527L64.3798 85.7182C64.2525 85.5094 64.0728 85.3375 63.8586 85.2195L61.0165 83.5761C60.6238 83.3727 60.188 83.2666 59.7457 83.2666C59.3034 83.2666 58.8676 83.3727 58.4749 83.5761L58.4733 83.5671Z" fill="#1A87C7"/>
<path fill-rule="evenodd" clip-rule="evenodd" d="M55.8624 85.6159L58.7061 83.974C59.0278 83.811 59.3834 83.7261 59.7441 83.7261C60.1047 83.7261 60.4603 83.811 60.782 83.974L63.6227 85.6174C64.1935 85.9479 64.1935 86.4871 63.6227 86.8191L60.779 88.461C60.4574 88.6243 60.1018 88.7095 59.7411 88.7095C59.3803 88.7095 59.0247 88.6243 58.7031 88.461L55.8624 86.8176C55.2916 86.4841 55.2916 85.9464 55.8624 85.6159Z" fill="white"/>
<path fill-rule="evenodd" clip-rule="evenodd" d="M77.096 73.8927L79.9381 72.2509C80.1891 72.1292 80.4644 72.066 80.7433 72.066C81.0222 72.066 81.2974 72.1292 81.5484 72.2509L84.389 73.8942C84.4624 73.9318 84.5254 73.9871 84.5723 74.055V74.067C84.5735 74.0755 84.5735 74.0841 84.5723 74.0925C84.5713 74.1054 84.5672 74.1177 84.5602 74.1286C84.5132 74.1969 84.4496 74.2521 84.3755 74.2893L81.5334 75.9312C81.2824 76.0528 81.0071 76.116 80.7282 76.116C80.4493 76.116 80.174 76.0528 79.9231 75.9312L77.0825 74.2863C77.009 74.25 76.946 74.1958 76.8992 74.1286C76.8901 74.1182 76.8851 74.1048 76.8851 74.091C76.8851 74.0772 76.8901 74.0639 76.8992 74.0535C76.9454 73.9854 77.0086 73.9305 77.0825 73.8942L77.096 73.8927ZM79.4724 71.4457L76.6288 73.0876C76.4139 73.2052 76.2336 73.3771 76.106 73.5863C76.0165 73.7392 75.9694 73.9131 75.9694 74.0903C75.9694 74.2674 76.0165 74.4414 76.106 74.5943C76.2327 74.8034 76.4119 74.9759 76.6258 75.0945L79.4679 76.7363C79.8605 76.9402 80.2964 77.0466 80.7387 77.0466C81.1811 77.0466 81.617 76.9402 82.0096 76.7363L84.8532 75.0945C85.0678 74.9765 85.248 74.8046 85.3759 74.5958C85.4656 74.4431 85.5138 74.2696 85.5156 74.0925C85.5155 73.9284 85.4748 73.7669 85.397 73.6224L85.3789 73.5878C85.2509 73.379 85.0708 73.2071 84.8562 73.0891L82.0111 71.4457C81.6183 71.2424 81.1825 71.1362 80.7402 71.1362C80.298 71.1362 79.8622 71.2424 79.4694 71.4457H79.4724Z" fill="#1A87C7"/>
<path fill-rule="evenodd" clip-rule="evenodd" d="M76.8635 73.4903L79.7056 71.85C80.0273 71.687 80.3829 71.6021 80.7436 71.6021C81.1043 71.6021 81.4598 71.687 81.7816 71.85L84.6222 73.4934C85.193 73.8238 85.193 74.3631 84.6222 74.6951L81.7801 76.337C81.4581 76.4991 81.1026 76.5836 80.7421 76.5836C80.3816 76.5836 80.0261 76.4991 79.7041 76.337L76.8635 74.6936C76.2897 74.3601 76.2912 73.8208 76.8635 73.4903Z" fill="white"/>
<path fill-rule="evenodd" clip-rule="evenodd" d="M84.0881 77.9384L86.9317 76.2965C87.1825 76.1749 87.4575 76.1117 87.7361 76.1117C88.0148 76.1117 88.2898 76.1749 88.5405 76.2965L91.3827 77.9414C91.4558 77.9781 91.5187 78.0323 91.5659 78.0991C91.5729 78.1112 91.5774 78.1244 91.5794 78.1382C91.5783 78.1517 91.5737 78.1646 91.5659 78.1757C91.5189 78.2431 91.4559 78.2978 91.3827 78.3349L88.539 79.9768C88.2886 80.0994 88.0135 80.1631 87.7346 80.1631C87.4558 80.1631 87.1807 80.0994 86.9302 79.9768L84.0896 78.3334C84.0159 78.2963 83.9528 78.241 83.9064 78.1727C83.8988 78.1615 83.8942 78.1486 83.8929 78.1352C83.8945 78.1223 83.8991 78.1099 83.9064 78.0991C83.9532 78.0312 84.0162 77.976 84.0896 77.9384H84.0881ZM86.4661 75.4913L83.6225 77.1332C83.4075 77.2508 83.2273 77.4228 83.0997 77.6319C83.0093 77.7845 82.9616 77.9586 82.9616 78.1359C82.9616 78.3133 83.0093 78.4873 83.0997 78.6399C83.2275 78.8483 83.4071 79.0201 83.6209 79.1386L86.4616 80.782C86.8546 80.9853 87.2906 81.0915 87.7331 81.0915C88.1756 81.0915 88.6117 80.9853 89.0047 80.782L91.8468 79.1401C92.0617 79.0225 92.242 78.8506 92.3696 78.6414C92.4601 78.4891 92.5084 78.3154 92.5093 78.1382C92.5091 77.9616 92.4613 77.7883 92.3711 77.6364C92.2446 77.4265 92.0648 77.2539 91.8498 77.1362L89.0092 75.4929C88.6166 75.289 88.1808 75.1826 87.7384 75.1826C87.296 75.1826 86.8602 75.289 86.4676 75.4929L86.4661 75.4913Z" fill="#1A87C7"/>
<path fill-rule="evenodd" clip-rule="evenodd" d="M83.8556 77.5357L86.6992 75.8939C87.0208 75.7312 87.3761 75.6465 87.7365 75.6465C88.0969 75.6465 88.4522 75.7312 88.7737 75.8939L91.6158 77.5372C92.1867 77.8677 92.1867 78.407 91.6158 78.739L88.7737 80.3808C88.452 80.5438 88.0964 80.6288 87.7357 80.6288C87.3751 80.6288 87.0195 80.5438 86.6977 80.3808L83.8572 78.7375C83.2833 78.4055 83.2848 77.8662 83.8556 77.5357Z" fill="white"/>
<path fill-rule="evenodd" clip-rule="evenodd" d="M68.0179 76.7318L70.8615 75.09C71.0764 74.9724 71.2567 74.8004 71.3843 74.5912C71.4738 74.4387 71.521 74.2649 71.521 74.088C71.521 73.9111 71.4738 73.7374 71.3843 73.5848C71.2567 73.3756 71.0764 73.2037 70.8615 73.0861L68.0209 71.4427C67.6306 71.233 67.1932 71.1264 66.7501 71.1333C66.3069 71.125 65.8691 71.2316 65.4792 71.4427L62.6327 73.0846C62.4177 73.2022 62.2375 73.3741 62.1099 73.5833C62.0204 73.7359 61.9732 73.9096 61.9732 74.0865C61.9727 74.2635 62.0199 74.4373 62.1099 74.5897L62.1309 74.6228C62.2573 74.8164 62.429 74.9762 62.6311 75.0885L65.4733 76.7318C65.8635 76.9417 66.301 77.0482 66.7441 77.0413C67.1873 77.0495 67.6251 76.9429 68.0149 76.7318H68.0179ZM70.3944 74.2863L67.5507 75.9267C67.3003 76.0493 67.0252 76.113 66.7463 76.113C66.4675 76.113 66.1924 76.0493 65.9419 75.9267L63.1013 74.2833C63.0329 74.2467 62.9734 74.1954 62.9271 74.1331L62.918 74.1181C62.9092 74.1075 62.9044 74.0942 62.9044 74.0805C62.9044 74.0668 62.9092 74.0535 62.918 74.043C62.9656 73.9751 63.029 73.9199 63.1028 73.8822L65.9374 72.2464C66.1859 72.1179 66.4629 72.0543 66.7426 72.0616C67.022 72.0541 67.2986 72.1182 67.5462 72.2479L70.3883 73.8912C70.4616 73.9284 70.5246 73.9831 70.5716 74.0505C70.5787 74.0619 70.5833 74.0747 70.5851 74.088C70.5836 74.1017 70.5784 74.1146 70.5701 74.1256C70.5257 74.1929 70.4653 74.2481 70.3944 74.2863Z" fill="#1A87C7"/>
<path fill-rule="evenodd" clip-rule="evenodd" d="M67.7852 76.3297L70.6273 74.6878C71.1996 74.3589 71.2011 73.8196 70.6273 73.4861L67.7882 71.8502C67.4663 71.6877 67.1108 71.603 66.7502 71.603C66.3897 71.603 66.0341 71.6877 65.7122 71.8502L62.8701 73.4936C62.2978 73.8226 62.2963 74.3619 62.8701 74.6953L65.7107 76.3387C66.033 76.5001 66.3887 76.5833 66.749 76.5818C67.1094 76.5802 67.4644 76.4938 67.7852 76.3297Z" fill="white"/>
<path fill-rule="evenodd" clip-rule="evenodd" d="M75.0179 72.6914L77.86 71.0495C78.075 70.9319 78.2552 70.76 78.3828 70.5508C78.4726 70.3983 78.5203 70.2246 78.521 70.0476C78.5201 69.8704 78.4719 69.6967 78.3813 69.5444C78.2544 69.3348 78.0746 69.1623 77.86 69.0441L75.0179 67.4008C74.6257 67.1974 74.1904 67.0913 73.7486 67.0913C73.3068 67.0913 72.8715 67.1974 72.4793 67.4008L69.6372 69.0426C69.4223 69.1602 69.242 69.3322 69.1144 69.5414C69.0247 69.6939 68.977 69.8676 68.9762 70.0446C68.9764 70.2212 69.0242 70.3945 69.1144 70.5463C69.2407 70.7556 69.4206 70.9273 69.6357 71.0435L72.4763 72.6869C72.8691 72.8907 73.3053 72.9971 73.7479 72.9971C74.1905 72.9971 74.6266 72.8907 75.0194 72.6869L75.0179 72.6914ZM77.3944 70.2444L74.5508 71.8862C74.3022 72.0147 74.0253 72.0783 73.7456 72.071C73.4662 72.0785 73.1895 72.0144 72.9419 71.8847L70.1013 70.2429C70.0273 70.2062 69.9641 70.1508 69.9181 70.0821C69.9103 70.071 69.9057 70.0581 69.9046 70.0446C69.9071 70.0312 69.9122 70.0185 69.9196 70.007C69.9666 69.9397 70.0296 69.885 70.1028 69.8478L72.9465 68.2059C73.1945 68.0761 73.4717 68.012 73.7516 68.0197C74.0309 68.0128 74.3074 68.0769 74.5553 68.2059L77.3959 69.8493C77.4693 69.8869 77.5322 69.9422 77.5791 70.01C77.587 70.021 77.5912 70.0341 77.5911 70.0476C77.5895 70.0605 77.5849 70.0729 77.5776 70.0836C77.5308 70.1516 77.4678 70.2068 77.3944 70.2444Z" fill="#1A87C7"/>
<path fill-rule="evenodd" clip-rule="evenodd" d="M74.7838 72.2888L77.6274 70.6484C78.1997 70.3179 78.1997 69.7787 77.6274 69.4467L74.7868 67.7943C74.4653 67.6313 74.11 67.5464 73.7496 67.5464C73.3891 67.5464 73.0338 67.6313 72.7123 67.7943L69.8687 69.4467C69.2964 69.7772 69.2964 70.3149 69.8687 70.6484L72.7093 72.2903C73.0311 72.4523 73.3864 72.5366 73.7467 72.5364C74.107 72.5361 74.4622 72.4513 74.7838 72.2888Z" fill="white"/>
<path fill-rule="evenodd" clip-rule="evenodd" d="M70.0955 77.9352L72.9391 76.2919C73.187 76.1633 73.4635 76.0998 73.7427 76.1071C74.0226 76.0995 74.2998 76.1636 74.5479 76.2934L77.3885 77.9367C77.4617 77.9739 77.5247 78.0286 77.5717 78.096V78.108C77.5734 78.1164 77.5734 78.1251 77.5717 78.1335C77.5708 78.1468 77.5666 78.1597 77.5597 78.1711C77.5128 78.2389 77.4499 78.2942 77.3765 78.3318L74.5329 79.9722C74.2824 80.0948 74.0073 80.1585 73.7284 80.1585C73.4496 80.1585 73.1745 80.0948 72.924 79.9722L70.0819 78.3288C70.009 78.2917 69.9465 78.237 69.9002 78.1696C69.8904 78.1595 69.885 78.146 69.885 78.132C69.885 78.118 69.8904 78.1045 69.9002 78.0945C69.9468 78.0267 70.0098 77.9719 70.0834 77.9352H70.0955ZM72.4719 75.4882L69.6298 77.1286C69.4152 77.2466 69.235 77.4185 69.107 77.6273C69.0166 77.7798 68.9689 77.9539 68.9689 78.1313C68.9689 78.3086 69.0166 78.4827 69.107 78.6352C69.2336 78.8447 69.4134 79.0168 69.6283 79.134L72.4689 80.7773C72.8616 80.9807 73.2974 81.0868 73.7397 81.0868C74.182 81.0868 74.6178 80.9807 75.0105 80.7773L77.8541 79.1355C78.0694 79.0183 78.2498 78.8463 78.3769 78.6367C78.4675 78.4844 78.5157 78.3107 78.5166 78.1335C78.516 77.9697 78.4747 77.8087 78.3964 77.6648L78.3784 77.6303C78.251 77.4215 78.0714 77.2496 77.8571 77.1316L75.0165 75.4882C74.6235 75.2848 74.1875 75.1787 73.745 75.1787C73.3025 75.1787 72.8664 75.2848 72.4734 75.4882H72.4719Z" fill="#1A87C7"/>
<path fill-rule="evenodd" clip-rule="evenodd" d="M69.8625 77.5313L72.7061 75.891C73.0275 75.728 73.3829 75.6431 73.7433 75.6431C74.1037 75.6431 74.4591 75.728 74.7806 75.891L77.6227 77.5344C78.1935 77.8648 78.1935 78.4041 77.6227 78.7361L74.7791 80.3765C74.4573 80.5394 74.1017 80.6244 73.7411 80.6244C73.3804 80.6244 73.0248 80.5394 72.7031 80.3765L69.8625 78.7331C69.2901 78.4011 69.2901 77.8588 69.8625 77.5313Z" fill="white"/>
<path fill-rule="evenodd" clip-rule="evenodd" d="M63.0835 90.0641L79.9243 80.339C80.175 80.2164 80.4503 80.1527 80.7294 80.1527C81.0085 80.1527 81.2839 80.2164 81.5346 80.339L84.3752 81.9824C84.4475 82.017 84.5104 82.0685 84.5584 82.1326C84.5659 82.1444 84.5705 82.1578 84.572 82.1717C84.5704 82.1851 84.5658 82.1979 84.5584 82.2092C84.5116 82.2771 84.4486 82.3324 84.3752 82.37L67.5329 92.095C67.2819 92.2166 67.0066 92.2798 66.7277 92.2798C66.4488 92.2798 66.1735 92.2166 65.9226 92.095L63.082 90.4516C63.0088 90.4149 62.9459 90.3607 62.8987 90.2939C62.8911 90.2827 62.8865 90.2698 62.8852 90.2563C62.887 90.243 62.8916 90.2302 62.8987 90.2188C62.9464 90.1514 63.0098 90.0967 63.0835 90.0595V90.0641ZM79.4571 79.5339L62.6148 89.2589C62.4001 89.3769 62.22 89.5488 62.092 89.7576C62.0016 89.9102 61.9539 90.0842 61.9539 90.2616C61.9539 90.4389 62.0016 90.613 62.092 90.7656C62.219 90.9747 62.3988 91.1467 62.6133 91.2643L65.4554 92.9167C65.8481 93.12 66.284 93.2261 66.7262 93.2261C67.1685 93.2261 67.6043 93.12 67.9971 92.9167L84.8393 83.1916C85.0538 83.074 85.2336 82.902 85.3606 82.6929C85.4506 82.5405 85.498 82.3667 85.498 82.1897C85.498 82.0127 85.4506 81.8389 85.3606 81.6865C85.2329 81.4776 85.0533 81.3052 84.8393 81.1863L81.9973 79.5429C81.6045 79.3395 81.1687 79.2334 80.7264 79.2334C80.2841 79.2334 79.8483 79.3395 79.4556 79.5429L79.4571 79.5339Z" fill="#1A87C7"/>
<path fill-rule="evenodd" clip-rule="evenodd" d="M62.8565 89.6614L79.6988 79.9364C80.0205 79.7734 80.3761 79.6885 80.7368 79.6885C81.0974 79.6885 81.453 79.7734 81.7748 79.9364L84.6153 81.5798C85.1862 81.9103 85.1862 82.4495 84.6153 82.7815L67.773 92.5065C67.4513 92.6695 67.0957 92.7545 66.7351 92.7545C66.3744 92.7545 66.0188 92.6695 65.6971 92.5065L62.855 90.8632C62.2841 90.5297 62.2856 89.9919 62.8565 89.6614Z" fill="white"/>
<path fill-rule="evenodd" clip-rule="evenodd" d="M39.8284 95.4211L42.672 93.7822C42.9224 93.6596 43.1976 93.5959 43.4764 93.5959C43.7552 93.5959 44.0304 93.6596 44.2808 93.7822L47.1214 95.4256C47.1971 95.4614 47.2623 95.5163 47.3107 95.5848L47.3182 95.5953C47.3196 95.6038 47.3196 95.6124 47.3182 95.6208C47.3159 95.6343 47.3108 95.6471 47.3031 95.6584C47.2567 95.7267 47.1936 95.782 47.1199 95.8191L44.2763 97.4595C44.0259 97.5821 43.7507 97.6458 43.4719 97.6458C43.193 97.6458 42.9179 97.5821 42.6675 97.4595L39.8269 95.8161C39.7533 95.7794 39.6902 95.7246 39.6436 95.6569C39.6339 95.6468 39.6284 95.6333 39.6284 95.6193C39.6284 95.6053 39.6339 95.5919 39.6436 95.5818C39.6902 95.514 39.7533 95.4593 39.8269 95.4226L39.8284 95.4211ZM42.2033 92.974L39.3612 94.6144C39.1466 94.7324 38.9665 94.9043 38.8385 95.1131C38.748 95.2657 38.7003 95.4397 38.7003 95.6171C38.7003 95.7944 38.748 95.9685 38.8385 96.1211C38.965 96.3305 39.1449 96.5026 39.3597 96.6198L42.2033 98.2631C42.5963 98.4665 43.0324 98.5726 43.4749 98.5726C43.9174 98.5726 44.3534 98.4665 44.7464 98.2631L47.5886 96.6213C47.8037 96.5047 47.9841 96.3331 48.1113 96.1241C48.2012 95.971 48.2488 95.7968 48.2495 95.6193C48.2487 95.4556 48.2074 95.2946 48.1293 95.1507C48.1239 95.1388 48.1179 95.1273 48.1113 95.1161C47.9843 94.907 47.8046 94.735 47.5901 94.6174L44.748 92.974C44.3552 92.7707 43.9194 92.6646 43.4771 92.6646C43.0349 92.6646 42.599 92.7707 42.2063 92.974H42.2033Z" fill="#1A87C7"/>
<path fill-rule="evenodd" clip-rule="evenodd" d="M39.5958 95.0167L42.4395 93.3763C42.7609 93.2134 43.1163 93.1284 43.4767 93.1284C43.8371 93.1284 44.1925 93.2134 44.5139 93.3763L47.3561 95.0197C47.9269 95.3502 47.9269 95.8895 47.3561 96.2214L44.5125 97.8618C44.191 98.0248 43.8356 98.1097 43.4752 98.1097C43.1148 98.1097 42.7594 98.0248 42.438 97.8618L39.5958 96.2184C39.0235 95.8849 39.0235 95.3472 39.5958 95.0167Z" fill="white"/>
<path fill-rule="evenodd" clip-rule="evenodd" d="M46.823 99.466L49.6666 97.8242C49.9142 97.6945 50.1909 97.6304 50.4702 97.6379C50.75 97.6311 51.027 97.6952 51.2754 97.8242L54.116 99.4675C54.1897 99.5047 54.2528 99.56 54.2993 99.6283C54.3068 99.6395 54.3115 99.6524 54.3128 99.6658C54.3116 99.6786 54.3075 99.6909 54.3008 99.7019C54.2539 99.7698 54.191 99.825 54.1175 99.8626L51.2739 101.504C51.0254 101.633 50.7484 101.696 50.4687 101.689C50.1893 101.697 49.9127 101.633 49.6651 101.503L46.823 99.8596C46.7507 99.825 46.6878 99.7735 46.6397 99.7094C46.6324 99.6981 46.6277 99.6852 46.6262 99.6718C46.628 99.6582 46.6332 99.6453 46.6412 99.6343C46.6878 99.5665 46.7509 99.5117 46.8245 99.475L46.823 99.466ZM49.1994 97.019L46.3573 98.6609C46.142 98.778 45.9617 98.9501 45.8345 99.1596C45.7448 99.3122 45.6971 99.4858 45.6964 99.6628C45.6961 99.84 45.7439 100.014 45.8345 100.166C45.9611 100.375 46.1409 100.548 46.3558 100.665L49.1964 102.308C49.589 102.512 50.0249 102.618 50.4672 102.618C50.9096 102.618 51.3455 102.512 51.7381 102.308L54.5817 100.666C54.7966 100.549 54.9768 100.377 55.1044 100.168C55.1948 100.015 55.243 99.8415 55.2441 99.6643C55.2447 99.4869 55.1975 99.3125 55.1074 99.1596C54.9794 98.9508 54.7993 98.7789 54.5847 98.6609L51.7441 97.0175C51.3513 96.8142 50.9155 96.708 50.4733 96.708C50.031 96.708 49.5952 96.8142 49.2024 97.0175L49.1994 97.019Z" fill="#1A87C7"/>
<path fill-rule="evenodd" clip-rule="evenodd" d="M46.5899 99.0636L49.432 97.4218C49.7537 97.2588 50.1093 97.1738 50.47 97.1738C50.8306 97.1738 51.1862 97.2588 51.508 97.4218L54.3486 99.0651C54.9209 99.3956 54.9209 99.9349 54.3486 100.267L51.505 101.909C51.183 102.071 50.8275 102.155 50.467 102.155C50.1065 102.155 49.751 102.071 49.429 101.909L46.5884 100.264C46.0175 99.9319 46.0175 99.3926 46.5899 99.0636Z" fill="white"/>
<path fill-rule="evenodd" clip-rule="evenodd" d="M37.7508 94.2177L40.5944 92.5803C40.8089 92.4627 40.9887 92.2907 41.1157 92.0816C41.2066 91.9289 41.2548 91.7546 41.2554 91.5769C41.2543 91.3997 41.206 91.226 41.1157 91.0736C40.9881 90.8645 40.8079 90.6925 40.5929 90.5749L37.7523 88.9315C37.3596 88.7282 36.9238 88.6221 36.4815 88.6221C36.0392 88.6221 35.6034 88.7282 35.2107 88.9315L32.3686 90.5734C32.153 90.6901 31.9725 90.8623 31.8458 91.0721C31.7552 91.2243 31.7074 91.3982 31.7076 91.5754C31.7078 91.7523 31.755 91.9259 31.8443 92.0786L31.8653 92.1116C31.9919 92.3056 32.1642 92.4655 32.3671 92.5773L35.2076 94.2207C35.6004 94.424 36.0362 94.5302 36.4785 94.5302C36.9207 94.5302 37.3566 94.424 37.7493 94.2207L37.7508 94.2177ZM40.1272 91.7706L37.2852 93.4125C37.0345 93.5351 36.7591 93.5989 36.48 93.5989C36.2009 93.5989 35.9255 93.5351 35.6748 93.4125L32.8342 91.7691C32.7658 91.7325 32.7063 91.6812 32.66 91.6189L32.651 91.6039C32.6422 91.5934 32.6374 91.5801 32.6374 91.5664C32.6374 91.5526 32.6422 91.5393 32.651 91.5288C32.698 91.4605 32.7616 91.4052 32.8357 91.3681L35.6778 89.7277C35.9261 89.5984 36.2032 89.5343 36.483 89.5414C36.7628 89.5348 37.0397 89.5989 37.2882 89.7277L40.1287 91.3786C40.2022 91.4162 40.2652 91.4714 40.312 91.5393C40.3189 91.5501 40.3231 91.5625 40.324 91.5754C40.3225 91.5888 40.3179 91.6016 40.3105 91.6129C40.2635 91.68 40.2005 91.7342 40.1272 91.7706Z" fill="#1A87C7"/>
<path fill-rule="evenodd" clip-rule="evenodd" d="M37.5178 93.8145L40.3614 92.1741C40.9323 91.8436 40.9323 91.3043 40.3614 90.9724L37.5208 89.329C37.1991 89.166 36.8435 89.0811 36.4828 89.0811C36.1222 89.0811 35.7666 89.166 35.4448 89.329L32.6028 90.9709C32.0304 91.2998 32.0289 91.8391 32.6028 92.1726L35.4433 93.8145C35.7649 93.9772 36.1202 94.062 36.4806 94.062C36.841 94.062 37.1963 93.9772 37.5178 93.8145Z" fill="white"/>
<path fill-rule="evenodd" clip-rule="evenodd" d="M32.8328 99.4632L35.6764 97.8229C35.9268 97.7003 36.202 97.6365 36.4808 97.6365C36.7596 97.6365 37.0348 97.7003 37.2852 97.8229L40.1258 99.4662C40.1994 99.5029 40.2624 99.5577 40.3091 99.6255L40.3166 99.6375C40.3176 99.646 40.3176 99.6545 40.3166 99.663C40.3148 99.6764 40.3102 99.6892 40.3031 99.7006C40.2561 99.768 40.1931 99.8227 40.1198 99.8598L37.2762 101.502C37.0258 101.624 36.7506 101.688 36.4718 101.688C36.1929 101.688 35.9178 101.624 35.6674 101.502L32.8253 99.8583C32.7524 99.8212 32.6899 99.7665 32.6435 99.6991C32.6338 99.689 32.6283 99.6755 32.6283 99.6615C32.6283 99.6475 32.6338 99.634 32.6435 99.624C32.69 99.5557 32.7531 99.5004 32.8268 99.4632H32.8328ZM35.2092 97.0162L32.3671 98.6581C32.1522 98.7756 31.9719 98.9476 31.8444 99.1568C31.7544 99.3095 31.7069 99.4835 31.7069 99.6608C31.7069 99.838 31.7544 100.012 31.8444 100.165C31.9719 100.374 32.1522 100.546 32.3671 100.663L35.2077 102.307C35.6005 102.51 36.0363 102.616 36.4785 102.616C36.9208 102.616 37.3566 102.51 37.7494 102.307L40.593 100.665C40.8082 100.548 40.9886 100.376 41.1157 100.166C41.2021 100.019 41.2491 99.8529 41.2523 99.6827C41.2554 99.5124 41.2146 99.3442 41.1337 99.1943L41.1157 99.1598C40.9882 98.9506 40.8079 98.7787 40.593 98.6611L37.7524 97.0177C37.3595 96.8148 36.9237 96.709 36.4815 96.709C36.0394 96.709 35.6036 96.8148 35.2107 97.0177L35.2092 97.0162Z" fill="#1A87C7"/>
<path fill-rule="evenodd" clip-rule="evenodd" d="M32.6001 99.0602L35.4437 97.4198C35.7655 97.2568 36.121 97.1719 36.4817 97.1719C36.8424 97.1719 37.198 97.2568 37.5197 97.4198L40.3603 99.0632C40.9326 99.3937 40.9326 99.9314 40.3603 100.265L37.5182 101.907C37.1965 102.07 36.8409 102.155 36.4802 102.155C36.1195 102.155 35.7639 102.07 35.4422 101.907L32.6016 100.263C32.0278 99.9299 32.0278 99.3907 32.6001 99.0602Z" fill="white"/>
<path fill-rule="evenodd" clip-rule="evenodd" d="M39.8269 103.508L42.669 101.868C42.9194 101.745 43.1946 101.681 43.4734 101.681C43.7522 101.681 44.0274 101.745 44.2778 101.868L47.1199 103.511C47.1936 103.548 47.2567 103.603 47.3031 103.672C47.3106 103.682 47.3153 103.695 47.3167 103.708C47.3157 103.721 47.3116 103.734 47.3046 103.745C47.2574 103.813 47.1939 103.868 47.1199 103.905L44.2778 105.546C44.0271 105.669 43.7517 105.733 43.4726 105.733C43.1935 105.733 42.9182 105.669 42.6675 105.546L39.8269 103.903C39.7537 103.866 39.6908 103.812 39.6436 103.745C39.6348 103.735 39.63 103.721 39.63 103.708C39.63 103.694 39.6348 103.681 39.6436 103.67C39.6907 103.602 39.7542 103.547 39.8284 103.509L39.8269 103.508ZM42.2033 101.062L39.3597 102.703C39.1447 102.821 38.9644 102.993 38.8369 103.203C38.7474 103.356 38.7002 103.529 38.7002 103.706C38.7002 103.883 38.7474 104.057 38.8369 104.209C38.9635 104.419 39.1434 104.591 39.3582 104.708L42.2033 106.352C42.596 106.555 43.0318 106.661 43.4741 106.661C43.9164 106.661 44.3522 106.555 44.7449 106.352L47.5886 104.711C47.8032 104.593 47.9829 104.421 48.1098 104.211C48.201 104.059 48.2493 103.885 48.2495 103.708C48.2493 103.531 48.2021 103.357 48.1128 103.204C47.9853 102.995 47.805 102.823 47.5901 102.706L44.7495 101.062C44.3567 100.859 43.9209 100.753 43.4786 100.753C43.0364 100.753 42.6006 100.859 42.2078 101.062H42.2033Z" fill="#1A87C7"/>
<path fill-rule="evenodd" clip-rule="evenodd" d="M39.592 103.106L42.4356 101.465C42.7573 101.302 43.1129 101.217 43.4736 101.217C43.8342 101.217 44.1898 101.302 44.5116 101.465L47.3522 103.109C47.923 103.439 47.923 103.978 47.3522 104.31L44.5101 105.952C44.1883 106.115 43.8327 106.2 43.472 106.2C43.1114 106.2 42.7558 106.115 42.4341 105.952L39.5934 104.309C39.0196 103.975 39.0212 103.436 39.592 103.106Z" fill="white"/>
<path fill-rule="evenodd" clip-rule="evenodd" d="M23.7557 102.303L26.5994 100.661L26.6279 100.643C26.8303 100.527 27.0002 100.362 27.1221 100.163C27.2125 100.01 27.2603 99.8365 27.2603 99.6594C27.2603 99.4823 27.2125 99.3084 27.1221 99.1562C26.9947 98.9474 26.815 98.7754 26.6008 98.6574L23.7587 97.0141C23.366 96.8107 22.9302 96.7046 22.4879 96.7046C22.0456 96.7046 21.6098 96.8107 21.2171 97.0141L18.3735 98.6559C18.1589 98.7739 17.9786 98.9458 17.8507 99.1547C17.7611 99.307 17.7139 99.4804 17.7139 99.6571C17.7139 99.8338 17.7611 100.007 17.8507 100.16C17.9784 100.368 18.1587 100.54 18.3735 100.657L21.2141 102.309C21.6068 102.513 22.0426 102.619 22.4849 102.619C22.9272 102.619 23.363 102.513 23.7557 102.309V102.303ZM26.1307 99.8562L23.2886 101.498C23.0376 101.62 22.7623 101.683 22.4834 101.683C22.2045 101.683 21.9292 101.62 21.6783 101.498L18.8376 99.8547C18.7642 99.8171 18.7012 99.7618 18.6544 99.6939C18.6466 99.6828 18.6419 99.6699 18.6408 99.6564C18.6427 99.6428 18.6478 99.6299 18.6559 99.6188C18.7025 99.5511 18.7655 99.4963 18.8391 99.4596L21.6827 97.8177C21.9303 97.6881 22.207 97.6239 22.4864 97.6315C22.7662 97.6247 23.0432 97.6887 23.2916 97.8177L26.1307 99.4611C26.2041 99.4987 26.2671 99.5539 26.3139 99.6218C26.3217 99.6329 26.3263 99.6459 26.3275 99.6594C26.3258 99.6723 26.3212 99.6846 26.3139 99.6954C26.2726 99.7578 26.217 99.8093 26.1517 99.8456L26.1307 99.8562Z" fill="#1A87C7"/>
<path fill-rule="evenodd" clip-rule="evenodd" d="M23.5226 101.901L26.3662 100.259C26.9371 99.9286 26.9386 99.3893 26.3662 99.0573L23.5256 97.414C23.2039 97.251 22.8483 97.166 22.4876 97.166C22.127 97.166 21.7714 97.251 21.4497 97.414L18.6075 99.0558C18.0352 99.3863 18.0352 99.9241 18.6075 100.258L21.4466 101.893C21.7677 102.058 22.123 102.144 22.4837 102.146C22.8445 102.147 23.2004 102.063 23.5226 101.901Z" fill="white"/>
<path fill-rule="evenodd" clip-rule="evenodd" d="M30.7547 98.2612L33.5968 96.6194C33.8121 96.5022 33.9925 96.3301 34.1196 96.1206C34.2094 95.9681 34.2571 95.7944 34.2578 95.6174C34.2566 95.4407 34.2084 95.2675 34.1181 95.1157C33.9916 94.9062 33.8117 94.7341 33.5968 94.617L30.7563 92.9736C30.3638 92.7693 29.9279 92.6626 29.4854 92.6626C29.043 92.6626 28.607 92.7693 28.2146 92.9736L25.371 94.614C25.156 94.7315 24.9758 94.9035 24.8482 95.1127C24.7578 95.2652 24.7101 95.4393 24.7101 95.6167C24.7101 95.794 24.7578 95.9681 24.8482 96.1206L24.8693 96.1537C24.9952 96.3476 25.167 96.5076 25.3695 96.6194L28.2101 98.2627C28.6031 98.4661 29.0391 98.5722 29.4816 98.5722C29.9242 98.5722 30.3602 98.4661 30.7532 98.2627L30.7547 98.2612ZM33.1312 95.8142L30.2876 97.4561C30.04 97.5857 29.7633 97.6498 29.4839 97.6423C29.2041 97.6494 28.927 97.5853 28.6787 97.4561L25.8382 95.8127C25.7693 95.7761 25.7093 95.7248 25.6624 95.6625V95.6475C25.6553 95.636 25.6507 95.6232 25.6489 95.6099C25.6504 95.5965 25.655 95.5837 25.6624 95.5723C25.7092 95.5044 25.7722 95.4492 25.8457 95.4116L28.6833 93.7818C28.9318 93.6533 29.2088 93.5897 29.4884 93.597C29.7678 93.5895 30.0445 93.6536 30.2921 93.7833L33.1342 95.4266C33.2071 95.4637 33.2696 95.5184 33.316 95.5859C33.3227 95.5972 33.3263 95.6102 33.3264 95.6234C33.3249 95.6371 33.3197 95.65 33.3114 95.661C33.2649 95.7261 33.203 95.7788 33.1312 95.8142Z" fill="#1A87C7"/>
<path fill-rule="evenodd" clip-rule="evenodd" d="M30.5231 97.8584L33.3652 96.2165C33.9375 95.8861 33.9375 95.3483 33.3652 95.0148L30.5231 93.3715C30.2016 93.2085 29.8463 93.1235 29.4859 93.1235C29.1254 93.1235 28.7701 93.2085 28.4486 93.3715L25.605 95.0133C25.0342 95.3438 25.0327 95.8831 25.605 96.215L28.4471 97.8584C28.7688 98.0214 29.1245 98.1064 29.4851 98.1064C29.8458 98.1064 30.2014 98.0214 30.5231 97.8584Z" fill="white"/>
<path fill-rule="evenodd" clip-rule="evenodd" d="M25.8303 103.507L28.6844 101.865C28.9351 101.743 29.2102 101.68 29.4888 101.68C29.7675 101.68 30.0425 101.743 30.2932 101.865L33.1339 103.517C33.2075 103.554 33.2705 103.609 33.3171 103.676C33.3248 103.688 33.3299 103.701 33.3321 103.714C33.3317 103.727 33.3275 103.74 33.3201 103.752C33.2731 103.819 33.2101 103.874 33.1368 103.911L30.2932 105.553C30.0428 105.675 29.7677 105.739 29.4888 105.739C29.21 105.739 28.9349 105.675 28.6844 105.553L25.8438 103.909C25.7701 103.872 25.707 103.817 25.6606 103.749C25.653 103.737 25.6484 103.724 25.647 103.711C25.6487 103.698 25.6533 103.686 25.6606 103.675C25.7074 103.607 25.7704 103.552 25.8438 103.514L25.8303 103.507ZM28.2067 101.06L25.3646 102.702C25.1497 102.819 24.9694 102.991 24.8419 103.2C24.7514 103.353 24.7038 103.527 24.7038 103.704C24.7038 103.882 24.7514 104.056 24.8419 104.208C24.9692 104.417 25.1489 104.589 25.3631 104.707L28.2037 106.35C28.5968 106.554 29.0328 106.66 29.4753 106.66C29.9178 106.66 30.3539 106.554 30.7469 106.35L33.589 104.708C33.8039 104.591 33.9842 104.419 34.1117 104.21C34.2021 104.057 34.2503 103.884 34.2515 103.707C34.2515 103.529 34.2037 103.356 34.1132 103.203C33.9867 102.994 33.8068 102.822 33.592 102.705L30.7514 101.061C30.3585 100.857 29.9224 100.751 29.4798 100.751C29.0372 100.751 28.6011 100.857 28.2083 101.061L28.2067 101.06Z" fill="#1A87C7"/>
<path fill-rule="evenodd" clip-rule="evenodd" d="M25.6032 103.104L28.4468 101.462C28.7683 101.299 29.1236 101.214 29.484 101.214C29.8445 101.214 30.1998 101.299 30.5213 101.462L33.3634 103.106C33.9342 103.436 33.9342 103.974 33.3634 104.307L30.5213 105.949C30.1996 106.112 29.844 106.197 29.4833 106.197C29.1226 106.197 28.767 106.112 28.4453 105.949L25.6032 104.306C25.0309 103.974 25.0324 103.435 25.6032 103.104Z" fill="white"/>
<path fill-rule="evenodd" clip-rule="evenodd" d="M32.8299 107.552L35.6735 105.91L35.693 105.898C35.9365 105.778 36.2056 105.719 36.4771 105.725C36.757 105.718 37.0341 105.782 37.2823 105.912L40.1228 107.555C40.1952 107.59 40.2581 107.641 40.3061 107.705C40.3138 107.717 40.3184 107.73 40.3196 107.744C40.3181 107.758 40.3135 107.77 40.3061 107.782C40.2595 107.85 40.1964 107.904 40.1228 107.941L37.2793 109.583C37.0286 109.705 36.7532 109.769 36.4741 109.769C36.195 109.769 35.9196 109.705 35.6689 109.583L32.8284 107.939C32.7553 107.902 32.6928 107.847 32.6466 107.779C32.6383 107.768 32.6332 107.756 32.6316 107.743C32.6331 107.729 32.6383 107.716 32.6466 107.705C32.693 107.637 32.7561 107.582 32.8299 107.544V107.552ZM35.2063 105.105L32.3642 106.747C32.1492 106.864 31.969 107.036 31.8414 107.245C31.7516 107.399 31.7039 107.573 31.7032 107.75C31.7032 107.927 31.751 108.101 31.8414 108.253C31.968 108.463 32.1478 108.635 32.3627 108.752L35.2033 110.396C35.596 110.599 36.0318 110.705 36.4741 110.705C36.9164 110.705 37.3522 110.599 37.7449 110.396L40.5885 108.754C40.8035 108.636 40.9837 108.464 41.1113 108.255C41.2018 108.103 41.2495 107.929 41.2495 107.752C41.2495 107.576 41.2018 107.402 41.1113 107.25C40.9848 107.04 40.805 106.867 40.59 106.75L37.748 105.106C37.3608 104.905 36.9313 104.798 36.4949 104.795C36.0584 104.793 35.6276 104.894 35.2378 105.09L35.2063 105.105Z" fill="#1A87C7"/>
<path fill-rule="evenodd" clip-rule="evenodd" d="M32.5897 107.151L35.4438 105.508C35.7656 105.345 36.1212 105.26 36.4818 105.26C36.8425 105.26 37.1981 105.345 37.5198 105.508L40.3559 107.151C40.9282 107.482 40.9282 108.019 40.3559 108.353L37.5123 109.995C37.1906 110.158 36.835 110.243 36.4743 110.243C36.1137 110.243 35.758 110.158 35.4363 109.995L32.5897 108.353C32.0249 108.019 32.0249 107.48 32.5897 107.151Z" fill="white"/>
<path fill-rule="evenodd" clip-rule="evenodd" d="M45.4976 63.4725C45.5043 63.5916 45.5564 63.7036 45.6432 63.7856C45.7299 63.8675 45.8447 63.9132 45.964 63.9132C46.0833 63.9132 46.1981 63.8675 46.2848 63.7856C46.3716 63.7036 46.4236 63.5916 46.4304 63.4725V59.5894C46.434 59.5259 46.4246 59.4623 46.4028 59.4026C46.381 59.3429 46.3472 59.2883 46.3036 59.242C46.2599 59.1958 46.2073 59.159 46.1489 59.1338C46.0905 59.1087 46.0276 59.0957 45.964 59.0957C45.9004 59.0957 45.8375 59.1087 45.7791 59.1338C45.7207 59.159 45.6681 59.1958 45.6244 59.242C45.5808 59.2883 45.547 59.3429 45.5252 59.4026C45.5034 59.4623 45.494 59.5259 45.4976 59.5894V63.4725Z" fill="#1A87C7"/>
<path fill-rule="evenodd" clip-rule="evenodd" d="M28.0443 41.284V69.6749C28.044 69.7598 28.0668 69.8432 28.1105 69.916C28.1541 69.9888 28.2169 70.0483 28.2919 70.0881C28.3669 70.1278 28.4514 70.1463 28.5361 70.1415C28.6209 70.1368 28.7027 70.1089 28.7728 70.061L46.2205 59.9829C52.0449 56.6171 57.8663 53.2542 63.6847 49.8944C63.7553 49.8533 63.8139 49.7943 63.8545 49.7233C63.8951 49.6524 63.9163 49.572 63.916 49.4903V21.1249C63.916 21.001 63.8668 20.8822 63.7792 20.7945C63.6916 20.7069 63.5727 20.6577 63.4488 20.6577C63.3523 20.6578 63.2582 20.6883 63.1799 20.7448L54.221 25.9168C45.3387 31.0467 36.4504 36.1796 28.2801 40.8814C28.209 40.9217 28.15 40.9803 28.109 41.0511C28.0681 41.1218 28.0468 41.2022 28.0473 41.284H28.0443ZM28.9771 68.8668V41.5498C38.0397 36.3373 46.3662 31.5274 54.6882 26.722L62.9847 21.93V49.2229L45.7548 59.1733L28.9771 68.8668Z" fill="#1A87C7"/>
<path fill-rule="evenodd" clip-rule="evenodd" d="M26.9477 42.1883V38.502C39.659 31.1664 52.3423 23.8423 64.9976 16.5298V20.2371C52.3193 27.5517 39.636 34.8687 26.9477 42.1883Z" fill="#BDEDF8"/>
<path fill-rule="evenodd" clip-rule="evenodd" d="M27.4126 41.3833V38.765C35.5964 34.0422 40.8285 31.0198 46.0755 27.9884L64.5311 17.3231V19.9654L53.4361 26.3706C44.5028 31.5291 35.5604 36.689 27.4126 41.3833ZM26.4798 38.4976V42.1884C26.4795 42.2699 26.5008 42.35 26.5415 42.4206C26.5821 42.4912 26.6407 42.5498 26.7113 42.5905C26.7819 42.6312 26.8619 42.6525 26.9434 42.6524C27.0249 42.6522 27.1048 42.6305 27.1752 42.5895C36.684 37.1171 45.2914 32.1464 53.8988 27.1758L65.1861 20.6579C65.2676 20.6207 65.3368 20.5609 65.3852 20.4855C65.4337 20.4101 65.4595 20.3224 65.4595 20.2328V16.5254C65.4598 16.4439 65.4386 16.3637 65.398 16.2929C65.3575 16.2222 65.299 16.1634 65.2285 16.1224C65.158 16.0814 65.0779 16.0598 64.9964 16.0596C64.9148 16.0594 64.8347 16.0807 64.764 16.1213C56.4149 20.9403 51.0176 24.0588 45.6068 27.1848C38.3408 31.3803 31.0538 35.5969 26.7516 38.074C26.6699 38.1116 26.6008 38.172 26.5526 38.2479C26.5043 38.3239 26.479 38.4121 26.4798 38.5021V38.4976Z" fill="#1A87C7"/>
<path fill-rule="evenodd" clip-rule="evenodd" d="M47.2605 34.4206C48.668 33.6094 49.9885 33.2189 51.1511 33.2189C51.916 33.2005 52.671 33.3933 53.3335 33.7759C53.996 34.1586 54.5402 34.7163 54.9065 35.388C55.4879 36.3959 55.8078 37.7329 55.8078 39.3582C55.8078 42.2258 54.7954 45.4104 53.1595 48.2405C51.5236 51.0706 49.2659 53.5492 46.7873 54.9792C45.3738 55.7949 44.0474 56.181 42.8817 56.181C42.1202 56.2011 41.3679 56.0103 40.7081 55.6296C40.0483 55.2489 39.5065 54.6932 39.1428 54.0239C38.5614 53.0174 38.2415 51.6745 38.2415 50.0371C38.2415 47.174 39.2555 43.9849 40.8943 41.1488C42.5332 38.3127 44.7819 35.8476 47.265 34.4146L47.2605 34.4206ZM51.1511 32.2965C49.8292 32.2965 48.3511 32.7201 46.7948 33.6154C44.1645 35.1341 41.7926 37.7253 40.0816 40.6891C38.3707 43.6529 37.3056 47.0117 37.3056 50.0431C37.3056 51.8457 37.6782 53.3479 38.3406 54.4925C38.7857 55.3039 39.4446 55.9777 40.2457 56.4409C41.0468 56.9041 41.9595 57.1389 42.8847 57.1198C44.2066 57.1198 45.6907 56.6917 47.2545 55.7904C49.8803 54.2762 52.2552 51.682 53.9692 48.7137C55.6832 45.7454 56.7422 42.4046 56.7422 39.3642C56.7422 37.5706 56.3711 36.0775 55.7102 34.9313C55.2633 34.1174 54.6019 33.4415 53.7979 32.977C52.9939 32.5125 52.078 32.2771 51.1496 32.2965H51.1511Z" fill="#1A87C7"/>
<path fill-rule="evenodd" clip-rule="evenodd" d="M47.0314 34.0184C52.1298 31.0756 56.2818 33.4746 56.2803 39.3646C56.2777 40.086 56.22 40.8061 56.1075 41.5187L55.9844 42.1496L47.0104 44.6717L44.4943 35.9171L44.5033 35.8825C45.2778 35.1735 46.1252 34.5486 47.0314 34.0184Z" fill="#66CEEF"/>
<path fill-rule="evenodd" clip-rule="evenodd" d="M47.2605 34.4207C48.668 33.6095 49.9885 33.2189 51.1511 33.2189C51.916 33.2006 52.671 33.3934 53.3335 33.776C53.996 34.1586 54.5402 34.7164 54.9065 35.3881C55.4879 36.396 55.8078 37.7329 55.8078 39.3583C55.8078 39.6978 55.7943 40.0388 55.7673 40.3783C55.7402 40.7177 55.6967 41.0798 55.6426 41.4373L55.5765 41.7723L47.3221 44.0931L45.0087 36.0415C45.3352 35.7561 45.6722 35.4852 46.0197 35.2288C46.4165 34.9349 46.8293 34.6631 47.256 34.4146L47.2605 34.4207ZM51.1511 32.2966C49.8292 32.2966 48.3511 32.7202 46.7948 33.6155C46.3377 33.8804 45.8953 34.1703 45.4699 34.4838C45.0358 34.8037 44.6062 35.1567 44.1841 35.5353L44.0819 35.6284L44.0053 35.9198L46.6837 45.2423L56.3831 42.5158C56.4432 42.2064 56.5079 41.8954 56.5649 41.5845C56.622 41.2075 56.6671 40.8334 56.6971 40.4549C56.7272 40.0763 56.7422 39.7188 56.7422 39.3613C56.7422 37.5677 56.3711 36.0745 55.7102 34.9284C55.2633 34.1145 54.6019 33.4386 53.7979 32.974C52.9939 32.5095 52.078 32.2742 51.1496 32.2936L51.1511 32.2966Z" fill="#1A87C7"/>
<path fill-rule="evenodd" clip-rule="evenodd" d="M44.4913 35.917C40.808 39.2443 38.1492 44.4793 37.8127 49.112C37.3801 55.1793 41.0604 58.1701 46.0746 55.8883C46.3525 52.205 46.7461 48.364 47.0015 44.6716C46.2203 41.7169 45.298 38.8838 44.4913 35.917Z" fill="#BDEDF8"/>
<path fill-rule="evenodd" clip-rule="evenodd" d="M44.1804 35.5713C42.2483 37.3542 40.6554 39.4724 39.4787 41.8233C38.2859 44.1802 37.5258 46.7053 37.3486 49.0788C37.2104 51.006 37.4747 52.6434 38.0591 53.9263C38.4462 54.8174 39.0605 55.5913 39.8407 56.1705C40.6133 56.7227 41.526 57.046 42.474 57.1033C43.6201 57.1845 44.903 56.9351 46.273 56.3117L46.5253 56.1975L46.5448 55.9226C46.668 54.2928 46.8182 52.5773 46.9699 50.8588C47.1487 48.8159 47.329 46.7669 47.4717 44.6999V44.6248L47.4521 44.5512C47.036 42.992 46.5854 41.4703 46.1317 39.9441C45.7306 38.5921 45.3281 37.2402 44.93 35.7906L44.7317 35.0605L44.1699 35.5683L44.1804 35.5713ZM40.3093 42.2424C41.3215 40.2241 42.6514 38.3815 44.248 36.785C44.565 37.9162 44.9045 39.0638 45.2455 40.21C45.6886 41.7121 46.1318 43.1963 46.5373 44.7165C46.4021 46.6693 46.2204 48.7288 46.0401 50.7792C45.9004 52.3745 45.7607 53.9638 45.6375 55.5741C44.5094 56.0503 43.4654 56.2396 42.5401 56.175C41.765 56.1332 41.0176 55.8728 40.3844 55.4239C39.737 54.9399 39.2278 54.2945 38.9078 53.5522C38.3866 52.4046 38.1567 50.9189 38.2769 49.1524C38.4407 46.8946 39.1707 44.4927 40.3093 42.2424Z" fill="#1A87C7"/>
<path fill-rule="evenodd" clip-rule="evenodd" d="M55.6116 48.598C55.5588 48.6284 55.5124 48.6689 55.4752 48.7171C55.438 48.7654 55.4106 48.8206 55.3947 48.8795C55.3788 48.9383 55.3747 48.9997 55.3825 49.0602C55.3903 49.1207 55.41 49.179 55.4404 49.2319C55.4708 49.2848 55.5113 49.3311 55.5596 49.3683C55.6079 49.4056 55.663 49.4329 55.7219 49.4488C55.7807 49.4647 55.8422 49.4689 55.9026 49.461C55.9631 49.4532 56.0214 49.4335 56.0743 49.4031L57.7777 48.4162C57.8845 48.3549 57.9626 48.2536 57.9947 48.1347C58.0268 48.0158 58.0104 47.8891 57.949 47.7823C57.8877 47.6755 57.7864 47.5975 57.6675 47.5654C57.5486 47.5333 57.4219 47.5497 57.3151 47.6111L55.6116 48.598Z" fill="#1A87C7"/>
<path fill-rule="evenodd" clip-rule="evenodd" d="M55.987 31.4913C55.8802 31.5529 55.8022 31.6543 55.7703 31.7733C55.7383 31.8924 55.7549 32.0192 55.8165 32.126C55.878 32.2327 55.9795 32.3107 56.0985 32.3427C56.2175 32.3746 56.3444 32.358 56.4512 32.2965L58.4535 31.1413C58.5603 31.08 58.6383 30.9787 58.6705 30.8598C58.7026 30.7409 58.6861 30.6142 58.6248 30.5074C58.5634 30.4006 58.4622 30.3226 58.3433 30.2905C58.2244 30.2584 58.0977 30.2748 57.9909 30.3362L55.987 31.4913Z" fill="#1A87C7"/>
<path fill-rule="evenodd" clip-rule="evenodd" d="M33.4909 53.1558C33.3841 53.2171 33.3061 53.3184 33.274 53.4372C33.2418 53.5561 33.2583 53.6829 33.3197 53.7897C33.381 53.8964 33.4822 53.9745 33.6011 54.0066C33.72 54.0387 33.8468 54.0223 33.9536 53.9609L35.8793 52.8493C35.9322 52.8189 35.9786 52.7784 36.0158 52.7301C36.053 52.6818 36.0803 52.6267 36.0962 52.5678C36.1121 52.509 36.1163 52.4475 36.1085 52.3871C36.1006 52.3266 36.081 52.2683 36.0506 52.2154C36.0202 52.1625 35.9797 52.1162 35.9314 52.079C35.8831 52.0417 35.8279 52.0144 35.7691 51.9985C35.7102 51.9826 35.6488 51.9784 35.5883 51.9863C35.5279 51.9941 35.4695 52.0138 35.4167 52.0442L33.4909 53.1558Z" fill="#1A87C7"/>
<path fill-rule="evenodd" clip-rule="evenodd" d="M49.3546 40.5785C48.9764 40.3685 48.5421 40.2819 48.1123 40.3306C47.6388 40.3863 47.1829 40.543 46.7753 40.7903C46.3061 41.0666 45.8791 41.4091 45.5075 41.8072C44.7177 42.6636 44.1276 43.6846 43.78 44.7966C43.6196 45.318 43.5351 45.8598 43.5291 46.4054C43.5194 46.8863 43.6131 47.3638 43.804 47.8054C43.9773 48.2024 44.2734 48.5333 44.6487 48.7496C45.0239 48.9659 45.4587 49.0562 45.889 49.0071C46.3678 48.9523 46.829 48.7945 47.241 48.5445C47.7064 48.2702 48.1294 47.9296 48.4968 47.5335C48.8958 47.1069 49.2441 46.6356 49.5348 46.129C49.8326 45.6279 50.0677 45.0921 50.2348 44.5337C50.3945 44.0126 50.4785 43.4713 50.4841 42.9264C50.4941 42.445 50.4009 41.9671 50.2108 41.5248C50.0392 41.1214 49.7386 40.7865 49.3561 40.5725L49.3546 40.5785ZM48.1994 41.2559C48.4416 41.2259 48.6872 41.2732 48.9009 41.3911H48.9129C49.1163 41.5099 49.2748 41.6927 49.3635 41.9109C49.4975 42.2317 49.562 42.5773 49.5528 42.9249C49.5466 43.3799 49.4748 43.8317 49.3395 44.2663C49.1935 44.7518 48.9892 45.2179 48.7311 45.6543C48.4761 46.1007 48.1696 46.5157 47.8178 46.8906C47.5131 47.22 47.1625 47.5038 46.7768 47.7333C46.48 47.9149 46.1484 48.0321 45.8034 48.0773C45.5692 48.1083 45.3313 48.0619 45.1259 47.9451L45.1004 47.9301C44.8973 47.8116 44.7389 47.6294 44.6498 47.4118C44.5168 47.0907 44.4528 46.7453 44.462 46.3979C44.4677 45.9424 44.539 45.4901 44.6738 45.0549C44.8203 44.5698 45.0251 44.1043 45.2837 43.6684V43.6579C45.533 43.2155 45.8357 42.8054 46.185 42.4366C46.4925 42.103 46.8466 41.8156 47.2365 41.5834C47.5306 41.4072 47.8588 41.2955 48.1994 41.2559Z" fill="#1A87C7"/>
<path fill-rule="evenodd" clip-rule="evenodd" d="M49.3546 40.5785C48.9764 40.3685 48.5421 40.2819 48.1123 40.3306C47.6388 40.3863 47.1829 40.543 46.7753 40.7903C46.3061 41.0666 45.8791 41.4091 45.5075 41.8072C44.7177 42.6636 44.1276 43.6846 43.78 44.7966C43.6196 45.318 43.5351 45.8598 43.5291 46.4054C43.5194 46.8863 43.6131 47.3638 43.804 47.8054C43.9773 48.2024 44.2734 48.5333 44.6487 48.7496C45.0239 48.9659 45.4587 49.0562 45.889 49.0071C46.3678 48.9523 46.829 48.7945 47.241 48.5445C47.7064 48.2702 48.1294 47.9296 48.4968 47.5335C48.8958 47.1069 49.2441 46.6356 49.5348 46.129C49.8326 45.6279 50.0677 45.0921 50.2348 44.5337C50.3945 44.0126 50.4785 43.4713 50.4841 42.9264C50.4941 42.445 50.4009 41.9671 50.2108 41.5248C50.0392 41.1214 49.7386 40.7865 49.3561 40.5725L49.3546 40.5785ZM48.1994 41.2559C48.4416 41.2259 48.6872 41.2732 48.9009 41.3911H48.9129C49.1163 41.5099 49.2748 41.6927 49.3635 41.9109C49.4975 42.2317 49.562 42.5773 49.5528 42.9249C49.5466 43.3799 49.4748 43.8317 49.3395 44.2663C49.1935 44.7518 48.9892 45.2179 48.7311 45.6543C48.4761 46.1007 48.1696 46.5157 47.8178 46.8906C47.5131 47.22 47.1625 47.5038 46.7768 47.7333C46.48 47.9149 46.1484 48.0321 45.8034 48.0773C45.5692 48.1083 45.3313 48.0619 45.1259 47.9451L45.1004 47.9301C44.8973 47.8116 44.7389 47.6294 44.6498 47.4118C44.5168 47.0907 44.4528 46.7453 44.462 46.3979C44.4677 45.9424 44.539 45.4901 44.6738 45.0549C44.8203 44.5698 45.0251 44.1043 45.2837 43.6684V43.6579C45.533 43.2155 45.8357 42.8054 46.185 42.4366C46.4925 42.103 46.8466 41.8156 47.2365 41.5834C47.5306 41.4072 47.8588 41.2955 48.1994 41.2559Z" fill="#1A87C7"/>
<path fill-rule="evenodd" clip-rule="evenodd" d="M21.7908 67.4728C21.7202 68.3245 21.6406 70.707 21.4588 71.4415C21.0652 71.9568 20.6732 72.4705 20.2691 72.9798C16.4506 76.0923 13.5364 79.7515 13.5364 82.7318V87.5388C13.5364 88.5137 14.2259 88.9117 15.0701 88.425C22.1123 84.3572 29.1499 80.2933 36.1831 76.2335C37.0273 75.7452 37.7183 74.551 37.7183 73.5761V68.7692C37.7183 65.7889 34.792 65.529 30.9585 66.8164C30.5664 66.7548 30.1744 66.6797 29.7688 66.6106C29.5916 66.0818 29.5315 63.7685 29.4834 63.0054C28.3538 65.0018 26.9988 66.6692 25.6183 67.4653C24.2649 68.2449 22.8979 68.1668 21.7908 67.4728Z" fill="white"/>
<path fill-rule="evenodd" clip-rule="evenodd" d="M21.3235 67.4338C21.3055 67.6501 21.283 68.0347 21.2574 68.4853C21.2004 69.4542 21.1297 70.6995 21.0231 71.2418C20.6641 71.7135 20.3036 72.1836 19.931 72.6538C17.9076 74.3062 16.135 76.1088 14.9018 77.9024C13.7541 79.5653 13.0661 81.2207 13.0661 82.7334V87.5403C13.059 87.8641 13.1367 88.1841 13.2914 88.4686C13.4008 88.6618 13.5594 88.8225 13.7511 88.9343C13.9439 89.0452 14.1627 89.1027 14.385 89.101C14.7089 89.0918 15.0248 88.9981 15.3013 88.8292L23.7465 83.9516L36.4143 76.6376C36.9376 76.3134 37.369 75.8603 37.6671 75.3217L37.6821 75.2931C37.99 74.7724 38.1615 74.1823 38.1808 73.5777V68.7707C38.1861 68.3579 38.1243 67.9469 37.9976 67.554C37.793 66.9111 37.3434 66.3747 36.7463 66.0608C36.189 65.7604 35.495 65.6102 34.6973 65.6102C33.6158 65.6102 32.3254 65.87 30.9194 66.3342L30.308 66.2261L30.1578 66.199C30.0722 65.6402 30.0211 64.5001 29.985 63.6859C29.9715 63.3855 29.9595 63.1181 29.9505 62.9648C29.9434 62.8636 29.9035 62.7674 29.8369 62.6909C29.7703 62.6143 29.6806 62.5615 29.5813 62.5404C29.482 62.5194 29.3786 62.5312 29.2867 62.5742C29.1947 62.6172 29.1193 62.6889 29.0717 62.7786C28.5453 63.7264 27.9275 64.6204 27.227 65.4479C26.7062 66.0794 26.085 66.6209 25.3884 67.0507C24.8676 67.366 24.2726 67.5381 23.6639 67.5495C23.0874 67.5485 22.5231 67.3833 22.0371 67.0733C21.9851 67.041 21.9273 67.0193 21.8669 67.0094C21.8065 66.9995 21.7448 67.0015 21.6852 67.0155C21.6256 67.0294 21.5694 67.055 21.5197 67.0907C21.47 67.1264 21.4279 67.1715 21.3956 67.2235C21.3565 67.2867 21.3328 67.3582 21.3265 67.4323L21.3235 67.4338ZM22.1858 68.5349L22.2053 68.2059C22.6685 68.3917 23.1633 68.4861 23.6624 68.4838C24.4336 68.4732 25.1882 68.2587 25.8495 67.8619C26.637 67.3795 27.3394 66.7705 27.9285 66.0593C28.3481 65.5715 28.7364 65.0578 29.0912 64.5211C29.1378 65.3909 29.2024 66.3237 29.3166 66.7173C29.3382 66.8056 29.3851 66.8857 29.4515 66.9479C29.5179 67.01 29.601 67.0515 29.6906 67.0673C29.7687 67.0793 29.955 67.1138 30.1412 67.1469C30.3275 67.1799 30.5468 67.219 30.8653 67.2686C30.9443 67.2849 31.0263 67.2797 31.1026 67.2535C32.4546 66.8029 33.6834 66.546 34.6943 66.546C35.3417 66.546 35.887 66.6512 36.3031 66.875C36.6896 67.0793 36.9804 67.4273 37.1128 67.8439C37.207 68.1421 37.2522 68.4536 37.2465 68.7662V73.5731C37.2292 74.016 37.1005 74.4474 36.8725 74.8275L36.8589 74.85C36.6424 75.2487 36.3275 75.5853 35.9441 75.8279C31.72 78.2694 27.4979 80.7075 23.2778 83.142L14.8312 88.018C14.6965 88.1062 14.5412 88.158 14.3805 88.1682C14.322 88.1699 14.264 88.1565 14.2123 88.1291C14.1623 88.0976 14.1214 88.0536 14.0936 88.0015C14.0223 87.8586 13.9886 87.6998 13.996 87.5403V82.7334C13.996 81.419 14.6209 79.9423 15.6649 78.4297C16.8501 76.7112 18.5701 74.9627 20.5379 73.3568C20.5714 73.3327 20.6012 73.3038 20.6265 73.2712C21.0291 72.765 21.4257 72.2452 21.8208 71.727C21.8596 71.6757 21.8873 71.6169 21.9019 71.5542C22.0476 70.9849 22.1272 69.5969 22.1888 68.5349H22.1858Z" fill="#1A87C7"/>
<path fill-rule="evenodd" clip-rule="evenodd" d="M25.6214 67.4594C27.2273 66.5265 28.8346 64.4055 30.0363 61.9359C31.2591 59.4183 32.0222 56.803 32.0222 54.0045C32.0222 48.6477 32.8664 43.8348 25.6109 48.0213C18.3795 52.2019 19.2237 56.0399 19.2237 61.3906C19.2237 63.4561 19.5662 65.5652 21.2096 67.0283C22.4098 68.1188 24.0156 68.3862 25.6214 67.4594Z" fill="white"/>
<path fill-rule="evenodd" clip-rule="evenodd" d="M25.8535 67.8615C26.6842 67.3794 27.5059 66.6057 28.2796 65.6428C29.1285 64.5596 29.8569 63.3869 30.4517 62.1458L30.4637 62.1203C31.0813 60.8641 31.5743 59.5504 31.9358 58.1981C32.2968 56.8312 32.4816 55.4238 32.4856 54.0101C32.4856 53.3746 32.4931 52.924 32.5006 52.4839C32.5337 50.2652 32.5652 48.2883 31.8818 47.1076C31.015 45.6054 29.2139 45.4102 25.3774 47.6244C18.6176 51.53 18.6687 55.1502 18.7423 59.8911C18.7498 60.3252 18.7558 60.7728 18.7558 61.4022C18.7333 62.4749 18.8669 63.5451 19.1524 64.5793C19.4582 65.6617 20.0638 66.6355 20.8994 67.3884L20.9265 67.4109C21.5799 68.0037 22.4057 68.3721 23.2834 68.4624C24.182 68.5383 25.0817 68.328 25.8535 67.8615ZM27.554 65.063C26.8555 65.9373 26.1179 66.6313 25.3879 67.0564C24.7831 67.4262 24.0774 67.597 23.3705 67.5446C22.6886 67.4688 22.0485 67.1784 21.5423 66.7154L21.5168 66.6899C20.8115 66.0517 20.3007 65.2275 20.0432 64.3119C19.7851 63.3637 19.6652 62.3832 19.6872 61.4007C19.6872 60.9906 19.6781 60.4258 19.6706 59.8745C19.6 55.4446 19.5475 52.0633 25.8415 48.428C29.0742 46.5623 30.4982 46.5638 31.0781 47.5688C31.6324 48.5287 31.6023 50.3868 31.5708 52.4703C31.5708 53.0307 31.5543 53.606 31.5543 54.0086C31.551 55.3432 31.3768 56.6719 31.036 57.9623C30.6897 59.257 30.2178 60.5147 29.627 61.7177L29.615 61.7402C29.0502 62.9191 28.3592 64.0332 27.554 65.063Z" fill="#1A87C7"/>
<path fill-rule="evenodd" clip-rule="evenodd" d="M31.9741 55.215C32.0042 54.8169 32.0207 54.4158 32.0207 54.0133C32.0207 48.6565 32.8649 43.8436 25.6095 48.0301C18.378 52.2107 19.2222 56.0487 19.2222 61.3994C19.2222 61.7975 19.2343 62.1971 19.2673 62.5921C19.395 61.9297 19.5106 61.2597 19.6263 60.5883C19.75 59.9392 19.8098 59.2796 19.8051 58.6189C19.8171 57.8558 19.8291 57.1348 20.2212 56.3176C20.8521 55.0197 21.851 54.7463 23.0167 54.4309C23.8129 54.2176 24.6811 53.9802 25.6095 53.4349C26.5378 52.8896 27.4121 52.1311 28.2142 51.425C29.3919 50.39 30.3788 49.5188 31.0097 50.0866C31.4018 50.4366 31.4259 51.1516 31.4379 51.8997C31.4261 52.4931 31.4861 53.0858 31.6166 53.6648C31.7428 54.192 31.8585 54.7103 31.9741 55.215Z" fill="#66CEEF"/>
<path fill-rule="evenodd" clip-rule="evenodd" d="M32.4395 55.2509C32.453 55.0616 32.465 54.8573 32.474 54.6335C32.4831 54.4096 32.4876 54.1933 32.4876 54.0101C32.4876 53.3746 32.4951 52.924 32.5026 52.4839C32.5356 50.2652 32.5672 48.2883 31.8837 47.1076C31.017 45.6054 29.2159 45.4102 25.3793 47.6244C18.6196 51.53 18.6707 55.1502 18.7443 59.8911C18.7518 60.3252 18.7578 60.7728 18.7578 61.4022C18.7578 61.578 18.7578 61.7808 18.7713 62.0151C18.7848 62.2495 18.7908 62.4447 18.8058 62.6325C18.8146 62.7469 18.8653 62.854 18.9482 62.9334C19.0311 63.0127 19.1403 63.0586 19.255 63.0624C19.3697 63.0661 19.4817 63.0273 19.5696 62.9535C19.6575 62.8798 19.715 62.7761 19.7312 62.6626C19.7988 62.308 19.8574 61.9851 19.9129 61.6756C19.9595 61.4127 20.0241 61.0417 20.0887 60.6707V60.6572C20.2145 59.9891 20.2759 59.3105 20.272 58.6307C20.2705 58.2728 20.2911 57.9151 20.3335 57.5597C20.382 57.2018 20.4859 56.8536 20.6415 56.5277C20.8514 56.0602 21.2043 55.6715 21.6494 55.4176C22.07 55.1772 22.5838 55.0376 23.1381 54.8873C23.5482 54.7777 23.9778 54.662 24.4224 54.5028C24.9163 54.3288 25.3926 54.1085 25.845 53.8448L25.8796 53.8238C26.3628 53.5365 26.8246 53.2147 27.2615 52.8609C27.6897 52.5169 28.1132 52.1429 28.5218 51.7809L28.5309 51.7718C29.5358 50.8901 30.377 50.1495 30.6985 50.4394C30.8185 50.5768 30.8916 50.7489 30.9073 50.9306C30.9545 51.2554 30.9766 51.5834 30.9734 51.9115C30.9609 52.5409 31.0255 53.1695 31.1657 53.7832L31.1732 53.8043C31.2678 54.2008 31.3594 54.6034 31.4496 55.006L31.5202 55.3185C31.5442 55.4275 31.6067 55.5241 31.6962 55.5908C31.7858 55.6575 31.8963 55.6896 32.0076 55.6814C32.1189 55.6732 32.2235 55.6252 32.3023 55.5461C32.3811 55.467 32.4287 55.3622 32.4365 55.2509H32.4395ZM31.0876 47.5703C31.4105 48.1321 31.5382 49.0003 31.5773 50.0413C31.5091 49.9297 31.4251 49.8285 31.3279 49.7409C30.3921 48.8982 29.2669 49.8911 27.9255 51.0688L27.915 51.0763C27.5274 51.4203 27.1248 51.7763 26.6892 52.1279C26.2881 52.4541 25.8639 52.7508 25.4199 53.0156L25.3823 53.0352C24.9801 53.2705 24.5561 53.4662 24.116 53.6195C23.6954 53.7697 23.2913 53.8809 22.9053 53.983C22.2924 54.1483 21.7245 54.3045 21.1973 54.6049C20.5867 54.9505 20.1013 55.4806 19.8108 56.1191L19.7868 56.1687C20.1383 53.4137 21.4271 50.9862 25.8495 48.4295C29.0746 46.5638 30.4972 46.5653 31.0785 47.5703H31.0876Z" fill="#1A87C7"/>
<path fill-rule="evenodd" clip-rule="evenodd" d="M18.7999 62.5582C18.7785 62.6788 18.8055 62.803 18.875 62.9038C18.9445 63.0046 19.051 63.074 19.1713 63.0969C19.2916 63.1198 19.4161 63.0944 19.5178 63.0262C19.6195 62.958 19.6903 62.8525 19.7147 62.7325C19.7853 62.3659 19.8469 62.0264 19.9055 61.702C19.9551 61.4271 20.0197 61.047 20.0858 60.6715V60.658C20.2126 59.99 20.275 59.3114 20.272 58.6315C20.2706 58.2736 20.2912 57.9159 20.3336 57.5605C20.3821 57.2026 20.486 56.8544 20.6415 56.5285C20.8514 56.061 21.2044 55.6723 21.6495 55.4184C22.0701 55.1781 22.5839 55.0384 23.1382 54.8881C23.5483 54.7785 23.9778 54.6628 24.4225 54.5036C24.9164 54.3296 25.3927 54.1093 25.8451 53.8456L25.8796 53.8246C26.3629 53.5373 26.8247 53.2155 27.2616 52.8617C27.6897 52.5177 28.1133 52.1437 28.5219 51.7817L28.5309 51.7727C29.5359 50.8909 30.3771 50.1503 30.6985 50.4402C30.8185 50.5776 30.8917 50.7497 30.9074 50.9314C30.9546 51.2562 30.9766 51.5842 30.9735 51.9124C30.961 52.5418 31.0256 53.1703 31.1657 53.784L31.1733 53.8051C31.2679 54.2002 31.358 54.6012 31.4481 54.9963L31.5308 55.3628C31.567 55.4722 31.6426 55.5642 31.7428 55.6209C31.8431 55.6776 31.9609 55.695 32.0733 55.6697C32.1857 55.6444 32.2846 55.5783 32.3509 55.4841C32.4172 55.3899 32.4462 55.2744 32.4321 55.16L32.3494 54.792C32.2608 54.3999 32.1692 54.0004 32.07 53.5903C32.07 53.5753 32.07 53.5587 32.0595 53.5422C31.9403 53.0023 31.8854 52.4502 31.8958 51.8973C31.9 51.5194 31.8744 51.1416 31.8192 50.7677C31.7721 50.3793 31.5941 50.0185 31.3145 49.7447C30.3786 48.902 29.2535 49.8949 27.9121 51.0726L27.9015 51.0801C27.514 51.4241 27.1114 51.7802 26.6757 52.1317C26.2747 52.4579 25.8505 52.7546 25.4064 53.0195L25.3689 53.039C24.9667 53.2743 24.5426 53.47 24.1025 53.6233C23.6819 53.7735 23.2778 53.8847 22.8918 53.9868C22.2789 54.1521 21.7111 54.3083 21.1838 54.6087C20.5733 54.9543 20.0879 55.4844 19.7973 56.1229C19.5988 56.5353 19.4665 56.9763 19.4053 57.4298C19.3569 57.822 19.3338 58.2169 19.3362 58.612V58.621C19.341 59.2422 19.2866 59.8624 19.1739 60.4732C19.1693 60.4868 19.1663 60.5009 19.1649 60.5153C19.1108 60.8262 19.0568 61.1327 18.9847 61.5427C18.9201 61.9018 18.86 62.2458 18.7999 62.5582Z" fill="#1A87C7"/>
<path fill-rule="evenodd" clip-rule="evenodd" d="M25.98 82.1264L25.2785 82.5305C25.0051 82.1129 24.7197 81.6998 24.4343 81.2747C24.6596 79.1386 24.8849 77.2188 25.1117 74.9235C25.1251 74.8627 25.1246 74.7997 25.1103 74.7391C25.096 74.6785 25.0683 74.6219 25.0291 74.5735C24.9465 74.3873 24.8624 74.189 24.7677 73.9967L25.5879 71.7915L26.4081 73.0488C26.3255 73.3493 26.2429 73.6392 26.1587 73.9201C26.0918 74.0606 26.0593 74.2151 26.0641 74.3707C26.3015 76.4437 26.5283 78.1397 26.7656 80.0489C26.5012 80.7519 26.2399 81.4384 25.98 82.1264Z" fill="white"/>
<path fill-rule="evenodd" clip-rule="evenodd" d="M25.5998 81.808L25.4225 81.9101L25.1221 81.4595L24.9133 81.1485C24.9854 80.4696 25.0635 79.7575 25.1416 79.0455C25.2918 77.7536 25.4255 76.4603 25.5728 74.9626C25.5905 74.8466 25.5859 74.7284 25.5592 74.6141C25.5354 74.5105 25.4916 74.4125 25.4301 74.3257L25.3805 74.2115C25.3444 74.1319 25.3099 74.0508 25.2708 73.9652L25.7004 72.81L25.9017 73.1195C25.8386 73.3448 25.7755 73.5701 25.717 73.7639C25.6761 73.8609 25.6445 73.9615 25.6223 74.0643C25.5979 74.1783 25.5902 74.2952 25.5998 74.4113V74.4218C25.75 75.7873 25.9243 77.1077 26.094 78.4491C26.118 78.6384 26.1436 78.8337 26.2878 79.9949C26.1962 80.2397 26.076 80.5582 25.9363 80.9262L25.6013 81.8035L25.5998 81.808ZM25.5067 82.9331L26.1766 82.5471C26.2856 82.4961 26.3703 82.4044 26.4124 82.2917L26.806 81.2582C26.9037 80.9998 27.0238 80.6784 27.1846 80.2502C27.2216 80.1711 27.2356 80.0831 27.2251 79.9964L27.0148 78.3365C26.8646 77.0972 26.7009 75.8744 26.5236 74.3212C26.5243 74.2999 26.5273 74.2787 26.5326 74.2581C26.542 74.2133 26.5555 74.1696 26.5732 74.1274C26.5849 74.1033 26.5945 74.0781 26.6017 74.0523C26.6888 73.7594 26.7685 73.4785 26.8481 73.1976C26.87 73.1313 26.8767 73.061 26.8676 72.9918C26.8585 72.9226 26.8338 72.8563 26.7955 72.798L25.9753 71.5422C25.9203 71.4596 25.8411 71.3961 25.7485 71.3604C25.691 71.339 25.6299 71.3291 25.5685 71.3314C25.5072 71.3336 25.4469 71.3479 25.3911 71.3734C25.3353 71.3989 25.2851 71.4352 25.2433 71.4801C25.2015 71.5251 25.169 71.5778 25.1476 71.6353L24.335 73.818C24.3088 73.8798 24.2963 73.9465 24.2981 74.0136C24.2999 74.0807 24.3161 74.1467 24.3455 74.207C24.4026 74.3212 24.4642 74.4624 24.5242 74.5991L24.5948 74.7493C24.6087 74.7835 24.6269 74.8158 24.6489 74.8454V74.877C24.5092 76.3056 24.3635 77.629 24.2178 78.9539C24.1382 79.6779 24.0585 80.402 23.9714 81.2251C23.9615 81.3311 23.9886 81.4373 24.048 81.5256L24.356 81.9762C24.5287 82.2316 24.6985 82.4825 24.8893 82.7739C24.9521 82.8745 25.0512 82.9472 25.1661 82.9768C25.2811 83.0065 25.403 82.9908 25.5067 82.9331Z" fill="#1A87C7"/>
<path fill-rule="evenodd" clip-rule="evenodd" d="M25.5847 71.7913C26.9867 70.0628 28.3822 68.3358 29.7712 66.6104C30.1768 66.6795 30.5689 66.7606 30.9609 66.8161C29.594 69.1195 28.2265 71.4228 26.8585 73.7261C26.4409 73.0832 26.0128 72.4373 25.5847 71.7913Z" fill="white"/>
<path fill-rule="evenodd" clip-rule="evenodd" d="M26.1625 71.8189C27.0759 70.6922 27.9066 69.6647 28.7343 68.6373L29.9615 67.1171L30.2154 67.1621L30.1312 67.3033C29.0297 69.148 27.9321 70.9947 26.8385 72.8433L26.6147 72.5023L26.164 71.8189H26.1625ZM28.0102 68.0544C27.0563 69.2351 26.1025 70.4188 25.2402 71.4824C25.1713 71.5587 25.1297 71.6558 25.1221 71.7583C25.1144 71.8609 25.1412 71.963 25.1982 72.0487L25.8396 73.0161C26.0694 73.3676 26.2902 73.6891 26.4555 73.9549C26.4953 74.0247 26.5528 74.0827 26.6222 74.1232C26.7284 74.1858 26.8551 74.2037 26.9745 74.173C27.0939 74.1423 27.1963 74.0655 27.2591 73.9594C28.4829 71.8945 29.7076 69.8335 30.9334 67.7765L31.3631 67.054C31.3932 67.0033 31.4131 66.9471 31.4216 66.8887C31.4398 66.7671 31.4093 66.6433 31.3368 66.544C31.2642 66.4448 31.1554 66.3781 31.0341 66.3585C30.8838 66.3344 30.5969 66.2849 30.3115 66.2338L29.8519 66.1527C29.77 66.1392 29.686 66.1477 29.6084 66.1773C29.5308 66.2068 29.4624 66.2564 29.4102 66.3209L28.0102 68.0544Z" fill="#1A87C7"/>
<path fill-rule="evenodd" clip-rule="evenodd" d="M25.5845 71.7914C24.2175 71.6757 22.837 71.5661 21.458 71.4414C21.0644 71.9566 20.6724 72.4704 20.2683 72.9931C21.6202 73.7217 22.9722 74.4562 24.3121 75.1908C24.7402 74.0642 25.1684 72.924 25.5845 71.7914Z" fill="white"/>
<path fill-rule="evenodd" clip-rule="evenodd" d="M25.6241 71.3273L24.1354 71.2027C23.132 71.1185 22.1255 71.0344 21.4976 70.9788C21.4191 70.9719 21.3401 70.9851 21.2681 71.0172C21.1961 71.0492 21.1334 71.0991 21.086 71.1621C20.6804 71.6939 20.2749 72.2256 19.9008 72.7093C19.8633 72.7576 19.8356 72.8127 19.8195 72.8717C19.8034 72.9307 19.7991 72.9922 19.807 73.0528C19.8148 73.1135 19.8346 73.1719 19.8651 73.2249C19.8956 73.2778 19.9364 73.3242 19.9849 73.3613C20.0048 73.3765 20.0259 73.3901 20.048 73.4018C21.4826 74.1739 22.7715 74.8785 24.0603 75.583L24.0903 75.598C24.1439 75.6274 24.2027 75.6459 24.2634 75.6525C24.3241 75.6592 24.3856 75.6537 24.4442 75.6366C24.5028 75.6194 24.5574 75.5908 24.605 75.5525C24.6525 75.5142 24.6921 75.4669 24.7213 75.4132C24.7303 75.3937 24.7408 75.3742 24.7483 75.3547C24.9316 74.8725 25.1404 74.3167 25.3882 73.6557C25.6361 72.9947 25.8539 72.4119 26.0221 71.9522C26.0437 71.8947 26.0537 71.8334 26.0515 71.7719C26.0492 71.7105 26.0348 71.6501 26.0091 71.5942C25.9834 71.5383 25.947 71.4881 25.9017 71.4465C25.8565 71.4048 25.8035 71.3725 25.7457 71.3514C25.7062 71.3381 25.6655 71.329 25.6241 71.3243V71.3273ZM24.0588 72.131L24.9376 72.2046C24.7874 72.6312 24.6371 73.0053 24.5185 73.3327C24.3998 73.6602 24.2361 74.0838 24.0678 74.5345C23.0163 73.9561 21.9648 73.3823 20.9734 72.8505C21.2167 72.5336 21.4466 72.2316 21.6734 71.9342C22.6678 72.0153 23.3648 72.0739 24.0588 72.131Z" fill="#1A87C7"/>
<path fill-rule="evenodd" clip-rule="evenodd" d="M37.7182 68.769V75.347C34.3158 77.3133 29.3797 80.1644 25.9773 82.1263C26.2401 81.4383 26.5015 80.7383 26.7629 80.0382C28.6661 74.9309 29.7672 72.5845 30.9614 66.8192C34.792 65.5318 37.7212 65.7917 37.7212 68.772L37.7182 68.769ZM13.5333 89.3096V82.7316C13.5333 79.7513 16.4595 76.1116 20.278 72.9856C21.4557 77.3328 22.5613 78.4249 24.4285 81.261C24.7139 81.6861 24.9994 82.1127 25.2728 82.5303L16.5722 87.5551L13.5333 89.3096Z" fill="#66CEEF"/>
<path fill-rule="evenodd" clip-rule="evenodd" d="M37.2458 68.769V72.0362V75.0781L26.8628 81.0747L27.1903 80.2004C27.4517 79.4974 27.7912 78.6217 28.0916 77.797C29.4435 74.2444 30.3719 71.8214 31.3468 67.1676C32.5981 66.7666 33.7367 66.5427 34.6846 66.5427C35.332 66.5427 35.8773 66.6479 36.2934 66.8717C36.6799 67.0761 36.9707 67.424 37.1031 67.8406C37.1973 68.1388 37.2424 68.4503 37.2368 68.7629L37.2458 68.769ZM38.1756 72.0362V68.769C38.1809 68.3561 38.119 67.9452 37.9924 67.5522C37.7878 66.9093 37.3382 66.3729 36.741 66.059C36.1837 65.7586 35.4898 65.6084 34.6921 65.6084C33.5835 65.6084 32.2541 65.8818 30.806 66.3685C30.7301 66.3953 30.6626 66.4414 30.6099 66.5023C30.5572 66.5631 30.5213 66.6366 30.5056 66.7155C29.5291 71.4548 28.6038 73.8793 27.2354 77.4635C26.983 78.126 26.7141 78.832 26.3266 79.867L26.31 79.915C26.0892 80.5039 25.8684 81.0957 25.5424 81.9505C25.5303 81.9804 25.5217 82.0117 25.5169 82.0436L25.245 81.6305L24.8154 80.9921C24.4699 80.4678 24.1965 80.0668 23.9396 79.6912C22.6042 77.7384 21.6864 76.4045 20.7325 72.8714C20.7166 72.8011 20.6842 72.7357 20.6378 72.6806C20.5597 72.585 20.4469 72.5244 20.324 72.512C20.2012 72.4996 20.0785 72.5365 19.9829 72.6145C17.9415 74.2864 16.1449 76.11 14.8996 77.9111C13.7534 79.5635 13.0669 81.2159 13.0669 82.7181V89.2961C13.0669 89.3775 13.0883 89.4575 13.1289 89.528C13.1696 89.5986 13.2281 89.6572 13.2986 89.698C13.369 89.7387 13.449 89.7603 13.5304 89.7604C13.6118 89.7605 13.6918 89.7392 13.7624 89.6986L16.7773 87.9591L16.8028 87.9441L25.4823 82.9314L25.5244 82.9073C25.5211 82.8265 25.54 82.7463 25.579 82.6754C25.6181 82.6045 25.6758 82.5457 25.7459 82.5053C25.816 82.4649 25.8959 82.4445 25.9768 82.4462C26.0577 82.448 26.1366 82.4719 26.2049 82.5153L32.0753 79.1264L37.9503 75.7555C38.0207 75.7149 38.0792 75.6564 38.1198 75.586C38.1604 75.5156 38.1817 75.4357 38.1816 75.3545V72.0497L38.1756 72.0362ZM13.9907 88.5044V82.7316C13.9907 81.4217 14.6142 79.9541 15.6552 78.4504C16.7352 76.8882 18.2629 75.2959 20.0114 73.8042C20.9428 76.9888 21.8576 78.3257 23.157 80.226C23.4454 80.6466 23.7578 81.0957 24.0282 81.5163L24.4534 82.1518L24.6036 82.3726L16.3281 87.151L16.3041 87.166L13.9907 88.5044Z" fill="#1A87C7"/>
<path fill-rule="evenodd" clip-rule="evenodd" d="M4.54304 95.1878L1.76403 93.2951L1.66039 93.1208L1.56573 92.9345L1.4816 92.7378L1.408 92.529L1.34341 92.3081L1.29082 92.0753L1.2503 91.8335L1.22023 91.5796L1.20222 91.3152V91.0403L1.21872 46.0865C1.23027 45.5033 1.30178 44.923 1.43206 44.3545C1.71611 43.2162 2.17575 42.1291 2.79449 41.1323L5.79883 42.6841C4.98015 44.1457 4.03228 46.2667 3.99623 47.9792L3.97822 92.933V93.2079L3.99623 93.4723L4.0263 93.7262L4.06833 93.9695L4.12092 94.2009L4.184 94.4217L4.2576 94.6305L4.34925 94.8333L4.4424 95.018L4.54304 95.1878Z" fill="#1A87C7"/>
</svg>
