<svg width="161" height="161" viewBox="0 0 161 161" fill="none" xmlns="http://www.w3.org/2000/svg">
<path fill-rule="evenodd" clip-rule="evenodd" d="M136.223 155.8L140.714 152.741L140.881 152.459L141.034 152.158L141.17 151.84L141.292 151.5L141.394 151.144L141.479 150.77L141.544 150.377L141.595 149.966L141.624 149.539V149.097L141.598 76.4476C141.58 75.506 141.465 74.5687 141.253 73.6511C140.398 70.1904 138.531 67.0631 135.89 64.6691C135.299 64.1608 134.667 63.7028 133.999 63.2999L31.6606 4.25683L31.2722 4.04321L30.8862 3.85628L30.5075 3.69362L30.1361 3.55527L29.7671 3.44361L29.4078 3.35379L29.0559 3.28824L28.7112 3.24696L28.3761 3.22998H28.0484L27.7304 3.25911L27.4221 3.31008L27.1235 3.38292L26.837 3.47757L26.5603 3.59654L26.2981 3.7349L21.8071 6.79362L22.0718 6.65526L22.3485 6.53875L22.635 6.44164L22.9311 6.3688L23.2394 6.31783L23.5574 6.29113H23.8851L24.2226 6.30811L24.5649 6.34939L24.9168 6.41494L25.2786 6.50476L25.6451 6.61642L26.019 6.75477L26.3977 6.91743L26.7812 7.10436L27.1721 7.31798L129.52 66.3562C130.896 67.1938 132.118 68.2613 133.133 69.5121C133.779 70.3087 134.365 71.1526 134.885 72.0367C136.206 74.3988 137.07 76.7486 137.119 79.5185L137.148 152.166V152.61L137.119 153.037L137.07 153.447L137.002 153.838L136.917 154.215L136.815 154.571L136.696 154.909L136.558 155.229L136.407 155.528L136.223 155.8Z" fill="#66CEEF"/>
<path fill-rule="evenodd" clip-rule="evenodd" d="M137.745 153.853L140.153 152.212C140.719 151.26 140.857 150.17 140.882 149.083L140.855 76.4645C140.751 71.6943 137.711 66.4241 133.631 63.9456L31.2968 4.917L30.9132 4.70581C29.5465 4.0358 28.0973 3.63769 26.682 4.38295L24.8443 5.63555C25.8154 5.81886 26.7449 6.17752 27.5875 6.69397L129.916 65.7201C134.441 68.4657 137.748 74.1631 137.864 79.4941L137.881 152.649C137.862 152.954 137.835 153.219 137.801 153.523V153.569L137.753 153.853H137.745ZM141.144 153.367L136.653 156.428C136.511 156.524 136.341 156.568 136.171 156.554C136.001 156.54 135.84 156.469 135.716 156.352C135.592 156.234 135.511 156.078 135.487 155.909C135.463 155.74 135.498 155.568 135.585 155.421C136.231 154.341 136.369 153.411 136.396 152.149L136.369 79.5305C136.262 74.7288 133.213 69.4804 129.144 67.0116L26.8446 7.99999L26.8107 7.98301C25.3541 7.17949 23.7592 6.62843 22.1691 7.46594C22.0002 7.55492 21.8038 7.57637 21.6196 7.52592C21.4355 7.47547 21.2774 7.35689 21.1774 7.19423C21.0774 7.03158 21.043 6.837 21.0811 6.6499C21.1192 6.46281 21.227 6.29719 21.3826 6.18661L25.8736 3.12546C27.5729 1.96995 29.9398 2.55984 31.6318 3.39249L134.4 62.6614C138.935 65.4142 142.244 71.1409 142.36 76.4426L142.38 149.512C142.411 150.398 141.848 152.877 141.144 153.36V153.367Z" fill="#1A87C7"/>
<path fill-rule="evenodd" clip-rule="evenodd" d="M129.516 65.618L27.1671 6.57974C22.9869 4.16918 19.5713 6.14766 19.5737 10.9712L19.6029 83.6184C19.6029 88.4468 23.0208 94.3652 27.2011 96.7757L129.552 155.816C133.727 158.225 137.145 156.246 137.143 151.42L137.114 78.773C137.111 73.9518 133.691 68.0286 129.516 65.618Z" fill="#BDEDF8"/>
<path fill-rule="evenodd" clip-rule="evenodd" d="M129.142 67.0046L26.8055 7.96634C25.7131 7.3376 24.6935 7.03899 23.805 7.03899C23.2402 7.02466 22.6824 7.16671 22.1932 7.44944C21.7039 7.73217 21.3024 8.14459 21.0328 8.64117C20.5885 9.41314 20.3361 10.4449 20.3361 11.7072L20.3652 84.3544C20.3652 86.6314 21.1833 89.1852 22.499 91.4647C23.8148 93.7442 25.616 95.7251 27.5969 96.8611L129.945 155.902C131.038 156.531 132.055 156.827 132.943 156.827C133.509 156.842 134.067 156.7 134.557 156.418C135.047 156.135 135.449 155.722 135.718 155.225C136.162 154.453 136.415 153.418 136.415 152.156L136.386 79.5089C136.386 77.2343 135.568 74.6805 134.252 72.4035C132.936 70.1264 131.132 68.1407 129.154 67.0046H129.142ZM27.5338 6.66514L129.889 65.6986C132.096 66.9706 134.094 69.153 135.531 71.6437C136.968 74.1343 137.864 76.9552 137.864 79.5017L137.893 152.149C137.893 153.683 137.57 154.97 136.997 155.965C136.597 156.692 136.006 157.295 135.287 157.711C134.569 158.126 133.751 158.338 132.921 158.322C131.776 158.322 130.494 157.96 129.176 157.196L26.8274 98.155C24.6207 96.883 22.6229 94.7006 21.1857 92.2099C19.7486 89.7193 18.8528 86.896 18.8528 84.3471L18.8237 11.6999C18.8237 10.1657 19.1466 8.87908 19.7195 7.88621C20.1185 7.15901 20.7092 6.55505 21.4273 6.13992C22.1454 5.72478 22.9636 5.51436 23.7929 5.53149C24.9387 5.53634 26.2132 5.90046 27.5338 6.66514Z" fill="#1A87C7"/>
<path fill-rule="evenodd" clip-rule="evenodd" d="M129.061 71.8081L102.101 56.2547L27.6208 13.2869C25.7031 12.1799 24.147 13.0806 24.147 15.2969L24.1736 86.036C24.1736 88.2524 25.7322 90.9446 27.6499 92.0515L111.694 140.532L129.093 150.565C131.011 151.672 132.567 150.777 132.567 148.563L132.54 77.8211C132.538 75.6096 130.979 72.9126 129.061 71.8081Z" fill="white"/>
<path fill-rule="evenodd" clip-rule="evenodd" d="M128.688 72.4591L27.2475 13.9549C26.8936 13.7317 26.488 13.6038 26.0701 13.5835C25.8848 13.5766 25.7013 13.6222 25.5407 13.715C25.3801 13.8077 25.2489 13.9439 25.1622 14.1079C24.9702 14.4827 24.879 14.901 24.8976 15.3217L24.9243 86.0608C24.9913 87.134 25.3063 88.1771 25.8447 89.108C26.383 90.0389 27.1299 90.8323 28.0267 91.4257L129.465 149.93C129.819 150.154 130.226 150.282 130.645 150.304C130.83 150.311 131.013 150.265 131.174 150.172C131.335 150.08 131.466 149.943 131.552 149.779C131.745 149.405 131.836 148.986 131.817 148.566L131.788 77.8241C131.721 76.7507 131.407 75.7074 130.869 74.7761C130.331 73.8448 129.584 73.0509 128.688 72.4567V72.4591ZM102.47 55.6046L129.433 71.158C130.561 71.882 131.499 72.865 132.169 74.0249C132.84 75.1849 133.223 76.4882 133.288 77.8265L133.315 148.568C133.332 149.245 133.172 149.914 132.851 150.51C132.634 150.904 132.314 151.231 131.925 151.456C131.535 151.681 131.092 151.796 130.642 151.787C129.96 151.768 129.295 151.569 128.715 151.212L27.2766 92.7074C26.149 91.9842 25.2108 91.0018 24.5402 89.8422C23.8696 88.6826 23.4861 87.3794 23.4217 86.0414L23.3925 15.3023C23.3744 14.6213 23.5351 13.9475 23.8586 13.3481C24.0757 12.9541 24.3961 12.6268 24.7854 12.4014C25.1746 12.176 25.6179 12.061 26.0677 12.0687C26.7485 12.0876 27.4124 12.2852 27.9927 12.6416L102.47 55.6046Z" fill="#1A87C7"/>
<path fill-rule="evenodd" clip-rule="evenodd" d="M101.575 134.689L102.708 135.345C103.15 134.668 103.612 134.002 104.073 133.315C103.709 129.863 103.344 126.761 102.978 123.052C102.956 122.953 102.957 122.851 102.98 122.753C103.003 122.654 103.048 122.562 103.111 122.484C103.247 122.185 103.381 121.862 103.534 121.551L102.208 117.99L100.883 120.022C101.016 120.508 101.152 120.976 101.286 121.43C101.394 121.657 101.447 121.907 101.439 122.158C101.055 125.508 100.689 128.249 100.305 131.335C100.737 132.471 101.162 133.58 101.575 134.689Z" fill="white"/>
<path fill-rule="evenodd" clip-rule="evenodd" d="M102.217 117.991C99.9518 115.194 97.6966 112.403 95.4519 109.618C94.7989 109.73 94.1629 109.861 93.5293 109.951C95.7384 113.673 97.949 117.395 100.161 121.118C100.846 120.076 101.526 119.035 102.217 117.991Z" fill="white"/>
<path fill-rule="evenodd" clip-rule="evenodd" d="M136.223 155.8L140.714 152.741L140.881 152.459L141.034 152.158L141.17 151.84L141.292 151.5L141.394 151.144L141.478 150.77L141.544 150.376L141.595 149.966L141.624 149.539V149.097L141.597 76.4475C141.58 75.5059 141.464 74.5686 141.253 73.651C140.794 71.8114 140.051 70.0547 139.051 68.4438L134.196 70.9491C135.516 73.3135 137.048 76.7388 137.109 79.5087L137.138 152.156V152.6L137.109 153.027L137.06 153.438L136.992 153.828L136.907 154.205L136.805 154.562L136.686 154.899L136.548 155.219L136.398 155.518L136.223 155.8Z" fill="#3DA5D9"/>
<path fill-rule="evenodd" clip-rule="evenodd" d="M90.385 97.1523L59.7977 61.6274C59.7169 61.5341 59.6099 61.4674 59.4906 61.4359C59.3713 61.4044 59.2453 61.4095 59.129 61.4507C59.0126 61.4918 58.9114 61.567 58.8384 61.6665C58.7655 61.766 58.7242 61.8852 58.7199 62.0085L57.7489 90.9863C57.7441 91.1301 57.7901 91.271 57.8789 91.3842C57.9677 91.4974 58.0936 91.5757 58.2344 91.6053L89.8073 98.1597C89.9332 98.1853 90.0641 98.1706 90.1812 98.1176C90.2984 98.0646 90.3959 97.9761 90.4598 97.8646C90.5238 97.7531 90.551 97.6242 90.5375 97.4963C90.5241 97.3685 90.4707 97.2481 90.385 97.1523Z" fill="#BDEDF8" stroke="#3DA5D9" stroke-miterlimit="10"/>
</svg>
