<svg width="96" height="118" viewBox="0 0 96 118" fill="none" xmlns="http://www.w3.org/2000/svg">
<path fill-rule="evenodd" clip-rule="evenodd" d="M3.34091 71.426L48.5782 97.5555C48.9615 97.058 49.4236 96.6266 49.9462 96.2785L91.5142 72.2885L46.7015 46.4217C46.5566 46.3544 46.4117 46.3409 45.9097 46.6003L4.12937 70.742C3.83569 70.9291 3.5692 71.1558 3.33754 71.4158L3.34091 71.426ZM48.868 99.53C48.7169 99.5258 48.569 99.4853 48.4367 99.412L1.6832 72.4334C1.47551 72.3222 1.32039 72.1332 1.25191 71.9077C1.22813 71.6803 1.27769 71.4513 1.3934 71.2541C1.8201 70.4384 2.4698 69.7606 3.26679 69.2999L45.1212 45.1111C45.8423 44.7405 46.5634 44.4877 47.5 44.9224L94.3344 71.9381C94.5141 72.0552 94.6432 72.2355 94.6962 72.4433C94.7493 72.6511 94.7223 72.8712 94.6208 73.0601C94.5744 73.1557 94.5096 73.2412 94.4301 73.3118C94.3506 73.3824 94.258 73.4366 94.1576 73.4713C94.0571 73.506 93.9509 73.5206 93.8447 73.5143C93.7387 73.5079 93.6348 73.4806 93.5392 73.4341C93.3236 73.3263 93.1787 73.3195 92.6767 73.5722L50.8155 97.7408C50.2807 98.0793 49.8549 98.5648 49.589 99.1391C49.5077 99.2559 49.4001 99.3522 49.2749 99.4201C49.1497 99.4879 49.0104 99.5256 48.868 99.53Z" fill="#1A87C7"/>
<path fill-rule="evenodd" clip-rule="evenodd" d="M93.8933 72.6726L47.1398 45.6873C46.5636 45.411 46.129 45.5559 45.5562 45.8456L3.70171 70.0142C3.03814 70.4317 2.49197 71.0115 2.11475 71.6989L48.8683 98.6775C49.2395 98.0094 49.7566 97.4335 50.3811 96.9928L92.3097 72.8243C92.5362 72.6602 92.8025 72.5597 93.0809 72.533C93.3593 72.5064 93.6398 72.5546 93.8933 72.6726Z" fill="#3DA5D9"/>
<path fill-rule="evenodd" clip-rule="evenodd" d="M93.3167 73.3635C93.1106 73.3753 92.9115 73.4429 92.7406 73.5589L50.8152 97.741C50.2931 98.0723 49.8696 98.5378 49.5888 99.0888C49.2453 99.6327 49.0469 100.256 49.0127 100.898V115.198C49.0127 115.565 49.0834 115.841 49.2283 115.926C49.3732 116.01 49.5888 115.99 50.0201 115.774L91.878 91.6054C92.3937 91.2397 92.8224 90.7647 93.1334 90.2143C93.4444 89.6639 93.6301 89.0517 93.6773 88.4213V74.1149C93.6773 73.6802 93.6065 73.441 93.4616 73.3938C93.3909 73.3635 93.3909 73.35 93.3167 73.35V73.3635ZM49.444 117.674C49.0891 117.679 48.7397 117.587 48.4331 117.408C48.0601 117.181 47.7559 116.856 47.553 116.469C47.35 116.082 47.2559 115.648 47.2808 115.211V100.912C47.3127 99.9743 47.5854 99.0612 48.0726 98.2599C48.5445 97.4418 49.2127 96.754 50.0167 96.2585L91.8746 72.0899C92.7372 71.5912 93.6031 71.5339 94.3242 71.9382C94.6763 72.1805 94.9604 72.509 95.1492 72.8925C95.338 73.276 95.4252 73.7015 95.4024 74.1283V88.4347C95.4024 90.1699 94.2501 92.2152 92.7372 93.0811L50.8119 117.25C50.4049 117.517 49.9308 117.664 49.444 117.674Z" fill="#1A87C7"/>
<path fill-rule="evenodd" clip-rule="evenodd" d="M94.543 74.1281C94.543 73.407 94.3274 72.9016 93.8927 72.6725C93.6399 72.5515 93.3589 72.5018 93.0799 72.5285C92.8009 72.5552 92.5345 72.6574 92.3092 72.8241L50.3806 96.9927C49.7394 97.4144 49.2183 97.9948 48.8678 98.6774C48.4342 99.3428 48.1853 100.111 48.1467 100.905V115.204C48.1215 115.491 48.1754 115.779 48.3026 116.036C48.4297 116.294 48.6252 116.512 48.8678 116.667C49.2283 116.906 49.8044 116.869 50.3806 116.508L92.3092 92.3497C92.9595 91.9141 93.4998 91.3334 93.8875 90.6534C94.2751 89.9734 94.4995 89.2127 94.543 88.4312V74.1281Z" fill="white"/>
<path fill-rule="evenodd" clip-rule="evenodd" d="M88.7785 84.0612V86.7567L91.1573 85.409V82.7134L88.7785 84.0612ZM87.9159 89.085C87.764 89.0789 87.6154 89.0385 87.4813 88.9671C87.3678 88.8815 87.2761 88.7704 87.2134 88.6428C87.1508 88.5152 87.119 88.3747 87.1207 88.2325V83.5895C87.1185 83.4473 87.15 83.3066 87.2127 83.1789C87.2754 83.0512 87.3674 82.9402 87.4813 82.855L91.5245 80.5267C91.6554 80.4503 91.8043 80.4102 91.9558 80.4102C92.1074 80.4102 92.2562 80.4503 92.3871 80.5267C92.5205 80.5948 92.6317 80.6994 92.7081 80.8282C92.7844 80.957 92.8227 81.1049 92.8184 81.2546V85.9144C92.8182 86.0613 92.7772 86.2054 92.6999 86.3304C92.6225 86.4553 92.5118 86.5563 92.3804 86.622L88.3371 88.9569C88.2081 89.0308 88.0642 89.0746 87.9159 89.085Z" fill="#1A87C7"/>
<path fill-rule="evenodd" clip-rule="evenodd" d="M87.915 88.2321L91.9482 85.8972V81.2373L87.915 83.5723V88.2321Z" fill="#BDEDF8"/>
<path fill-rule="evenodd" clip-rule="evenodd" d="M2.47488 72.8947C2.36205 73.2435 2.28974 73.6042 2.25927 73.9695V88.2321C2.33003 88.751 2.40418 88.8588 2.61982 88.997L47.2844 114.823V100.911C47.3343 100.262 47.4797 99.6241 47.7157 99.0175L2.47488 72.8947ZM48.868 117.515C48.7173 117.518 48.5685 117.481 48.4368 117.408L1.68312 90.429C1.32228 90.2026 1.03052 89.8815 0.839787 89.5006C0.649051 89.1197 0.566683 88.6937 0.601561 88.2691V73.9325C0.598585 73.005 0.847788 72.0943 1.32257 71.2976C1.38613 71.194 1.46988 71.1041 1.56886 71.0335C1.66785 70.9629 1.78003 70.9129 1.89873 70.8866C2.00633 70.8561 2.11894 70.8472 2.22999 70.8605C2.34103 70.8738 2.44827 70.909 2.54562 70.9641L49.2285 97.9427C49.3287 97.9929 49.4178 98.0626 49.4905 98.1479C49.5632 98.2331 49.6179 98.3322 49.6516 98.4391C49.6852 98.5459 49.697 98.6585 49.6863 98.77C49.6756 98.8815 49.6425 98.9898 49.5891 99.0883C49.2429 99.652 49.0447 100.294 49.0129 100.955V115.218C49.0129 115.743 49.1577 115.844 49.3026 115.982C49.4799 116.109 49.6062 116.294 49.6587 116.506C49.7113 116.717 49.6865 116.94 49.5891 117.135C49.5009 117.244 49.3916 117.334 49.2677 117.399C49.1437 117.465 49.0078 117.504 48.868 117.515Z" fill="#1A87C7"/>
<path fill-rule="evenodd" clip-rule="evenodd" d="M48.8684 98.6774L2.11478 71.6987C1.68949 72.3635 1.46482 73.1367 1.4678 73.9259V88.2256C1.4678 88.8523 1.53862 89.3139 2.11478 89.6879L48.8684 116.666C48.2923 116.292 48.2215 115.831 48.1473 115.204V100.905C48.2058 100.115 48.4531 99.3513 48.8684 98.6774Z" fill="#66CEEF"/>
<path fill-rule="evenodd" clip-rule="evenodd" d="M82.08 87.9289V90.6244L84.4588 89.2767V86.5812L82.08 87.9289ZM81.2141 92.9527C81.0626 92.9514 80.914 92.9107 80.7829 92.8348C80.6589 92.7541 80.5555 92.6459 80.4806 92.5184C80.4058 92.3909 80.3616 92.2477 80.3516 92.1003V87.4404C80.3629 87.2932 80.4075 87.1506 80.4823 87.0233C80.557 86.896 80.6598 86.7875 80.7829 86.7059L84.8901 84.3777C85.0087 84.3032 85.1459 84.2637 85.286 84.2637C85.4261 84.2637 85.5633 84.3032 85.6819 84.3777C85.8147 84.4464 85.9256 84.5511 86.0018 84.6797C86.0781 84.8084 86.1166 84.9559 86.1131 85.1054V89.7754C86.1163 89.9258 86.0777 90.0741 86.0016 90.2038C85.9254 90.3334 85.8148 90.4394 85.6819 90.5099L81.6387 92.8348C81.5095 92.9095 81.3634 92.9501 81.2141 92.9527Z" fill="#1A87C7"/>
<path fill-rule="evenodd" clip-rule="evenodd" d="M81.2144 92.1003L85.2509 89.7755V85.1055L81.2144 87.4404V92.1003Z" fill="#BDEDF8"/>
<path fill-rule="evenodd" clip-rule="evenodd" d="M3.34101 49.4606L48.5783 75.5902C48.9616 75.0928 49.4237 74.6614 49.9463 74.3132L91.5143 50.3165L46.7016 24.4564C46.5567 24.3891 46.4118 24.3756 45.9098 24.6283L4.12947 48.7767C3.83578 48.9638 3.5693 49.1906 3.33763 49.4505L3.34101 49.4606ZM48.8681 77.5613C48.7168 77.5616 48.5681 77.5221 48.4368 77.4467L1.6833 50.4681C1.47678 50.3555 1.32211 50.167 1.25201 49.9425C1.22798 49.715 1.27756 49.4859 1.39349 49.2888C1.822 48.4743 2.47127 47.7971 3.26689 47.3346L45.1213 23.1457C45.8424 22.7751 46.5635 22.5191 47.5001 22.9571L94.3345 49.966C94.5141 50.0849 94.6429 50.2664 94.6958 50.4751C94.7488 50.6838 94.722 50.9047 94.6209 51.0948C94.5239 51.2848 94.3571 51.4299 94.1555 51.4996C93.9538 51.5693 93.733 51.5583 93.5393 51.4688C93.3237 51.3711 93.1788 51.3542 92.6768 51.6137L50.8223 75.762C50.2891 76.1023 49.8637 76.5873 49.5959 77.1603C49.5151 77.2802 49.407 77.379 49.2804 77.4487C49.1539 77.5185 49.0126 77.557 48.8681 77.5613Z" fill="#1A87C7"/>
<path fill-rule="evenodd" clip-rule="evenodd" d="M93.8933 50.7004L47.1398 23.7285C46.5636 23.4388 46.129 23.5904 45.5562 23.8802L3.70171 48.0487C3.0366 48.4644 2.49001 49.0447 2.11475 49.7334L48.8683 76.712C49.2395 76.0439 49.7566 75.468 50.3811 75.0273L92.3097 50.8588C92.5367 50.6959 92.8024 50.5956 93.0803 50.5678C93.3583 50.54 93.6386 50.5857 93.8933 50.7004Z" fill="#3DA5D9"/>
<path fill-rule="evenodd" clip-rule="evenodd" d="M93.317 51.398C93.1102 51.4065 92.9102 51.4744 92.7409 51.5935L50.8156 75.762C50.2889 76.1011 49.8649 76.5776 49.5892 77.1401C49.2438 77.6819 49.0453 78.3043 49.013 78.946V93.2457C49.013 93.6129 49.0837 93.8859 49.2286 93.9735C49.3735 94.0611 49.5892 94.0375 50.0205 93.8219L91.8783 69.6533C92.4044 69.2946 92.846 68.8255 93.1722 68.2786C93.4976 67.7308 93.672 67.1064 93.6776 66.4692V52.1696C93.6776 51.8023 93.6068 51.5227 93.4619 51.4351C93.417 51.412 93.3675 51.3993 93.317 51.398ZM49.4443 95.7188C49.0896 95.7219 48.7406 95.6299 48.4335 95.4526C48.0597 95.2259 47.7549 94.9016 47.5518 94.5145C47.3488 94.1273 47.2551 93.6922 47.2811 93.2558V78.9562C47.3138 78.017 47.5864 77.1018 48.0729 76.2977C48.547 75.483 49.2148 74.7978 50.0171 74.303L91.8749 50.1345C92.7375 49.6358 93.6034 49.5785 94.3245 49.9761C94.677 50.2212 94.9611 50.5522 95.1498 50.9379C95.3385 51.3235 95.4255 51.751 95.4027 52.1797V66.4793C95.3724 67.4168 95.0997 68.3305 94.6109 69.131C94.1651 69.9436 93.5206 70.6299 92.7375 71.1257L50.8122 95.2943C50.4052 95.5617 49.9312 95.7088 49.4443 95.7188Z" fill="#1A87C7"/>
<path fill-rule="evenodd" clip-rule="evenodd" d="M94.543 52.1699C94.543 51.4488 94.3274 50.9367 93.8927 50.7008C93.6388 50.583 93.3578 50.5356 93.0793 50.5634C92.8007 50.5913 92.5348 50.6934 92.3092 50.8592L50.3806 75.0277C49.7394 75.4494 49.2183 76.0298 48.8678 76.7124C48.435 77.3806 48.1862 78.1512 48.1467 78.9463V93.246C48.1215 93.5324 48.1754 93.8202 48.3026 94.0781C48.4297 94.336 48.6252 94.5539 48.8678 94.7083C49.2283 94.9475 49.8044 94.9172 50.3806 94.5567L92.3092 70.3814C92.9566 69.9456 93.4977 69.3698 93.8927 68.6967C94.3078 68.0272 94.5326 67.2572 94.543 66.4695V52.1699Z" fill="white"/>
<path fill-rule="evenodd" clip-rule="evenodd" d="M88.7785 62.096V64.7915L91.1573 63.4438V60.7482L88.7785 62.096ZM87.9159 67.1165C87.764 67.1135 87.6149 67.0742 87.4813 67.0019C87.3678 66.9163 87.2761 66.8052 87.2134 66.6776C87.1508 66.55 87.119 66.4095 87.1207 66.2674V61.6075C87.1185 61.4652 87.15 61.3245 87.2127 61.1968C87.2754 61.0691 87.3674 60.9581 87.4813 60.8729L91.5245 58.5447C91.6548 58.4666 91.8039 58.4253 91.9558 58.4253C92.1077 58.4253 92.2568 58.4666 92.3871 58.5447C92.5209 58.6121 92.6327 58.7165 92.7091 58.8455C92.7855 58.9745 92.8234 59.1226 92.8183 59.2724V63.9391C92.8213 64.089 92.7825 64.2367 92.7063 64.3658C92.6301 64.4949 92.5196 64.6003 92.3871 64.6703L88.3438 67.0019C88.2124 67.0736 88.0656 67.1129 87.9159 67.1165Z" fill="#1A87C7"/>
<path fill-rule="evenodd" clip-rule="evenodd" d="M87.915 66.2674L91.9482 63.9391V59.2725L87.915 61.6075V66.2674Z" fill="#BDEDF8"/>
<path fill-rule="evenodd" clip-rule="evenodd" d="M2.47488 50.9301C2.36205 51.2789 2.28973 51.6396 2.25927 52.0049V66.2675C2.33003 66.7931 2.40418 66.8942 2.61982 67.0323L47.2843 92.8586V78.9465C47.3354 78.2977 47.4807 77.6598 47.7156 77.0529L2.47488 50.9301ZM48.868 95.5609C48.7164 95.5599 48.5677 95.5192 48.4367 95.4429L1.68312 68.4643C1.32228 68.238 1.03052 67.9168 0.839787 67.5359C0.649051 67.1551 0.566683 66.7291 0.601561 66.3045V51.9611C0.599027 51.0348 0.84822 50.1252 1.32257 49.3296C1.38524 49.2255 1.46879 49.1356 1.56796 49.0654C1.66712 48.9953 1.77974 48.9464 1.89872 48.9219C2.00635 48.8892 2.11975 48.8798 2.2313 48.8943C2.34285 48.9088 2.44996 48.947 2.54562 49.0062L49.2284 75.9781C49.3277 76.0282 49.416 76.0978 49.4881 76.1825C49.5602 76.2673 49.6146 76.3656 49.6482 76.4717C49.6818 76.5777 49.6938 76.6895 49.6837 76.8003C49.6735 76.9111 49.6413 77.0187 49.589 77.1169C49.2428 77.6807 49.0447 78.3228 49.0128 78.9836V93.2461C48.99 93.3888 49.0046 93.535 49.0554 93.6703C49.1063 93.8056 49.1914 93.9253 49.3026 94.0177C49.4804 94.142 49.6074 94.3264 49.6601 94.5369C49.7127 94.7474 49.6874 94.97 49.589 95.1633C49.5017 95.2747 49.3929 95.3673 49.269 95.4356C49.1451 95.5039 49.0087 95.5466 48.868 95.5609Z" fill="#1A87C7"/>
<path fill-rule="evenodd" clip-rule="evenodd" d="M48.8684 76.7125L2.11476 49.7339C1.69104 50.3993 1.46651 51.1721 1.46778 51.961V66.2674C1.46778 66.8941 1.53859 67.3558 2.11476 67.7298L48.8684 94.7084C48.2922 94.3344 48.2214 93.8728 48.1473 93.2461V78.9464C48.2067 78.1551 48.4539 77.3893 48.8684 76.7125Z" fill="#66CEEF"/>
<path fill-rule="evenodd" clip-rule="evenodd" d="M82.08 65.9641V68.6596L84.4588 67.3119V64.6164L82.08 65.9641ZM81.2141 70.9845C81.0629 70.9843 80.9143 70.9449 80.7829 70.87C80.6598 70.7884 80.557 70.6798 80.4823 70.5526C80.4075 70.4253 80.3629 70.2826 80.3516 70.1354V65.4756C80.3629 65.3284 80.4075 65.1857 80.4823 65.0585C80.557 64.9312 80.6598 64.8226 80.7829 64.7411L84.8901 62.4128C85.0088 62.3383 85.146 62.2988 85.2861 62.2988C85.4261 62.2988 85.5634 62.3383 85.682 62.4128C85.8143 62.4822 85.9247 62.5869 86.0008 62.7155C86.077 62.844 86.1159 62.9912 86.1132 63.1406V67.8106C86.1168 67.961 86.0783 68.1094 86.0021 68.2392C85.9259 68.3689 85.8151 68.4749 85.682 68.5451L81.6387 70.87C81.5092 70.9436 81.3631 70.983 81.2141 70.9845Z" fill="#1A87C7"/>
<path fill-rule="evenodd" clip-rule="evenodd" d="M81.2144 70.1354L85.2509 67.8106V63.1406L81.2144 65.4756V70.1354Z" fill="#BDEDF8"/>
<path fill-rule="evenodd" clip-rule="evenodd" d="M3.3413 27.0577L48.5786 53.1839C48.962 52.6875 49.4242 52.2573 49.9466 51.9102L91.5147 27.9202L46.7019 2.0501C46.557 1.98608 46.4122 1.97261 45.9101 2.22868L4.12977 26.3703C3.83618 26.5576 3.56972 26.7843 3.33793 27.0442L3.3413 27.0577ZM48.8684 55.1583C48.7171 55.1586 48.5684 55.1191 48.4371 55.0438L1.68359 28.0651C1.4759 27.9539 1.32079 27.7649 1.2523 27.5395C1.22756 27.3131 1.27721 27.0848 1.39379 26.8892C1.82028 26.0724 2.46996 25.3936 3.26719 24.9316L45.1216 0.746147C45.8427 0.378884 46.5638 0.112686 47.5005 0.560814L94.3349 27.5664C94.5148 27.6842 94.644 27.8651 94.697 28.0734C94.75 28.2818 94.7229 28.5024 94.6212 28.6918C94.523 28.8806 94.3562 29.0247 94.155 29.0942C93.9538 29.1638 93.7336 29.1536 93.5397 29.0658C93.324 28.9648 93.1791 28.9513 92.6771 29.204L50.8226 53.3591C50.2912 53.7 49.8662 54.1833 49.5962 54.754C49.5156 54.8743 49.4076 54.9737 49.2811 55.044C49.1545 55.1143 49.0131 55.1535 48.8684 55.1583Z" fill="#1A87C7"/>
<path fill-rule="evenodd" clip-rule="evenodd" d="M93.8933 28.3011L47.1398 1.31575C46.5636 1.04283 46.129 1.18775 45.5562 1.47414L3.70171 25.636C3.03843 26.0539 2.49233 26.6336 2.11475 27.3206L48.8683 54.2993C49.2387 53.6305 49.7559 53.0545 50.3811 52.6146L92.3097 28.4426C92.5379 28.2819 92.8044 28.1841 93.0825 28.1593C93.3605 28.1344 93.6402 28.1834 93.8933 28.3011Z" fill="#BDEDF8"/>
<path fill-rule="evenodd" clip-rule="evenodd" d="M93.3169 29.0051C93.1106 29.0137 92.9109 29.0803 92.7407 29.1972L50.8155 53.3692C50.2905 53.7088 49.8668 54.1837 49.589 54.7439C49.2451 55.2876 49.0467 55.9107 49.0129 56.5532V70.8529C48.9893 71.1141 49.0664 71.3745 49.2285 71.5807C49.3734 71.6447 49.5891 71.6447 50.0203 71.4291L91.8782 47.2605C92.4059 46.9023 92.8478 46.4316 93.172 45.8824C93.497 45.3356 93.6714 44.7124 93.6774 44.0764V29.7734C93.6774 29.3353 93.6066 29.0995 93.4617 29.0489C93.391 29.0186 93.391 29.0051 93.3169 29.0051ZM49.4442 73.3159C49.0895 73.3189 48.7405 73.227 48.4334 73.0497C48.0599 72.8227 47.7552 72.4983 47.5522 72.1113C47.3492 71.7242 47.2554 71.2892 47.281 70.8529V56.5532C47.3124 55.6159 47.5852 54.7026 48.0728 53.9015C48.5465 53.0839 49.2142 52.3953 50.017 51.8967L91.8748 27.7281C92.7373 27.2328 93.6033 27.1823 94.3243 27.5765C94.6763 27.8205 94.9601 28.1504 95.1488 28.5349C95.3375 28.9193 95.4248 29.3457 95.4025 29.7734V44.0764C95.3485 45.0044 95.0796 45.9071 94.6171 46.7134C94.1546 47.5198 93.5111 48.2076 92.7374 48.7228L50.8121 72.8914C50.4034 73.1537 49.9298 73.2972 49.4442 73.3058V73.3159Z" fill="#1A87C7"/>
<path fill-rule="evenodd" clip-rule="evenodd" d="M94.5435 29.7634C94.5435 29.0457 94.3279 28.5336 93.8932 28.3011C93.6398 28.1827 93.3592 28.1343 93.0807 28.1609C92.8023 28.1876 92.536 28.2883 92.3096 28.4527L50.3809 52.6246C49.7391 53.0454 49.2177 53.626 48.8681 54.3093C48.4341 54.9744 48.1851 55.7432 48.147 56.5365V70.8361C48.1222 71.1225 48.1763 71.4102 48.3034 71.6679C48.4305 71.9257 48.6258 72.1438 48.8681 72.2984C49.2286 72.5343 49.8048 72.5006 50.3809 72.1468L92.3096 47.9783C92.957 47.5423 93.4981 46.9666 93.8932 46.2936C94.3083 45.6253 94.5331 44.8564 94.5435 44.0697V29.7634Z" fill="white"/>
<path fill-rule="evenodd" clip-rule="evenodd" d="M88.7779 39.6931V42.3886L91.1568 41.0409V38.3454L88.7779 39.6931ZM87.9153 44.7135C87.805 44.718 87.695 44.6987 87.5928 44.6569C87.4907 44.615 87.3987 44.5517 87.3232 44.4711C87.2478 44.3905 87.1906 44.2946 87.1555 44.1899C87.1205 44.0852 87.1083 43.9742 87.1201 43.8644V39.2012C87.1183 39.0591 87.1501 38.9185 87.2128 38.7909C87.2754 38.6633 87.3671 38.5523 87.4806 38.4667L91.524 36.1418C91.6543 36.0637 91.8034 36.0225 91.9553 36.0225C92.1072 36.0225 92.2563 36.0637 92.3866 36.1418C92.5199 36.2099 92.6312 36.3144 92.7076 36.4433C92.7839 36.5721 92.8222 36.7199 92.8179 36.8696V41.5362C92.8223 41.6868 92.7841 41.8356 92.7078 41.9655C92.6315 42.0954 92.5202 42.2012 92.3866 42.2707L88.3432 44.599C88.2124 44.6722 88.0652 44.7116 87.9153 44.7135Z" fill="#1A87C7"/>
<path fill-rule="evenodd" clip-rule="evenodd" d="M87.915 43.8645L91.9482 41.5362V36.8696L87.915 39.2013V43.8645Z" fill="#BDEDF8"/>
<path fill-rule="evenodd" clip-rule="evenodd" d="M2.47514 28.5268C2.36231 28.8745 2.28999 29.2341 2.25954 29.5983V43.8643C2.33029 44.3832 2.40444 44.4876 2.62008 44.6258L47.2846 70.4488V56.5399C47.3358 55.8901 47.4811 55.2511 47.7158 54.643L2.47514 28.5235V28.5268ZM48.8682 73.1443C48.7171 73.1429 48.5688 73.1035 48.4369 73.0297L1.68338 46.051C1.32201 45.8244 1.02991 45.5027 0.839147 45.1212C0.648381 44.7396 0.566311 44.313 0.601826 43.8879V29.5545C0.598915 28.626 0.848092 27.7142 1.32284 26.9163C1.38697 26.8131 1.47089 26.7237 1.56978 26.6531C1.66867 26.5826 1.78057 26.5323 1.89899 26.5052C2.00709 26.4749 2.12031 26.467 2.23157 26.482C2.34283 26.4971 2.44975 26.5348 2.54588 26.5928L49.2287 53.5715C49.3281 53.6207 49.4166 53.6893 49.4889 53.7734C49.5612 53.8575 49.6157 53.9553 49.6494 54.061C49.683 54.1667 49.6951 54.278 49.6847 54.3884C49.6744 54.4989 49.6419 54.606 49.5892 54.7036C49.2432 55.2662 49.045 55.9072 49.0131 56.5669V70.8329C48.9902 70.9756 49.0049 71.1218 49.0557 71.2571C49.1065 71.3924 49.1917 71.5121 49.3028 71.6045C49.4804 71.7282 49.6073 71.912 49.66 72.122C49.7126 72.3319 49.6875 72.5538 49.5892 72.7467C49.502 72.8581 49.3932 72.9507 49.2693 73.019C49.1454 73.0874 49.009 73.1299 48.8682 73.1443Z" fill="#1A87C7"/>
<path fill-rule="evenodd" clip-rule="evenodd" d="M48.8684 54.3095L2.11479 27.3208C1.68898 27.9853 1.46426 28.7587 1.46781 29.548V43.8476C1.46781 44.471 1.53863 44.9359 2.11479 45.3099L48.8684 72.2886C48.2923 71.9146 48.2215 71.453 48.1473 70.8263V56.5266C48.2068 55.7374 48.4541 54.9738 48.8684 54.2994V54.3095Z" fill="#66CEEF"/>
<path fill-rule="evenodd" clip-rule="evenodd" d="M82.08 43.5608V46.2563L84.4588 44.9085V42.213L82.08 43.5608ZM81.2141 48.5812C81.0631 48.5794 80.9149 48.54 80.7829 48.4666C80.66 48.3865 80.5571 48.2792 80.4824 48.153C80.4076 48.0268 80.3629 47.8851 80.3516 47.7388V43.0689C80.3624 42.9225 80.4069 42.7806 80.4817 42.6543C80.5565 42.528 80.6596 42.4208 80.7829 42.3411L84.8901 40.0095C85.0087 39.935 85.146 39.8955 85.286 39.8955C85.4261 39.8955 85.5633 39.935 85.6819 40.0095C85.815 40.0797 85.9259 40.1856 86.0021 40.3153C86.0783 40.4451 86.1167 40.5935 86.1131 40.744V45.4039C86.1171 45.5544 86.0788 45.703 86.0026 45.8328C85.9264 45.9627 85.8153 46.0685 85.6819 46.1384L81.6387 48.4666C81.5086 48.5388 81.3629 48.5782 81.2141 48.5812Z" fill="#1A87C7"/>
<path fill-rule="evenodd" clip-rule="evenodd" d="M81.2144 47.739L85.2509 45.404V40.7441L81.2144 43.069V47.739Z" fill="#BDEDF8"/>
<path fill-rule="evenodd" clip-rule="evenodd" d="M52.254 62.1735C52.107 62.1748 51.9624 62.1364 51.8355 62.0622C51.7086 61.9881 51.6041 61.881 51.533 61.7523C51.432 61.5575 51.4058 61.3325 51.4591 61.1197C51.5125 60.9068 51.6418 60.7208 51.8227 60.5967L77.0359 46.0444C77.2306 45.9358 77.4598 45.9075 77.675 45.9654C77.8902 46.0233 78.0743 46.1628 78.1882 46.3544C78.29 46.5498 78.317 46.7757 78.2643 46.9896C78.2116 47.2035 78.0828 47.3909 77.9019 47.5168L52.6853 62.059C52.5543 62.1348 52.4054 62.1743 52.254 62.1735Z" fill="#1A87C7"/>
<path fill-rule="evenodd" clip-rule="evenodd" d="M52.2537 84.5798C52.1065 84.5804 51.9618 84.5413 51.8349 84.4666C51.7081 84.3919 51.6036 84.2843 51.5327 84.1552C51.432 83.9609 51.4058 83.7364 51.4592 83.5241C51.5126 83.3118 51.6418 83.1265 51.8224 83.0029L77.0356 68.4574C77.2288 68.3456 77.4584 68.3148 77.6742 68.3716C77.8901 68.4284 78.0747 68.5682 78.1879 68.7606C78.2901 68.9554 78.3175 69.1809 78.2647 69.3945C78.2119 69.6081 78.0827 69.7949 77.9015 69.9197L52.685 84.4653C52.5533 84.5395 52.4049 84.5788 52.2537 84.5798Z" fill="#1A87C7"/>
<path fill-rule="evenodd" clip-rule="evenodd" d="M52.2537 106.545C52.1065 106.545 51.9618 106.506 51.8349 106.431C51.7081 106.357 51.6036 106.249 51.5327 106.12C51.432 105.926 51.4058 105.701 51.4592 105.489C51.5126 105.277 51.6418 105.091 51.8224 104.968L77.0355 90.4155C77.2304 90.3048 77.4612 90.276 77.6772 90.3354C77.8933 90.3948 78.0769 90.5375 78.1878 90.7322C78.2896 90.9259 78.3168 91.1504 78.264 91.3628C78.2112 91.5753 78.0822 91.761 77.9015 91.8845L52.685 106.43C52.5533 106.504 52.4049 106.544 52.2537 106.545Z" fill="#1A87C7"/>
</svg>
