<svg width="121" height="122" viewBox="0 0 121 122" fill="none" xmlns="http://www.w3.org/2000/svg">
<path fill-rule="evenodd" clip-rule="evenodd" d="M56.6488 76.3635C56.6488 78.5402 56.7926 79.7854 55.5768 81.7039C52.4261 86.2469 45.1999 87.9137 40.0458 87.9791C34.8165 88.0445 27.8092 86.5901 24.3023 82.4556C23.2856 81.3175 22.6813 79.8705 22.5864 78.3473V76.3145C22.7302 78.1316 23.446 79.5076 24.6618 80.8443C28.5838 84.9886 36.1009 86.2534 41.6211 85.8841C46.3438 85.5573 52.7138 83.8054 55.5768 79.6743C56.2171 78.6832 56.5867 77.5418 56.6488 76.3635Z" fill="#66CEEF"/>
<path fill-rule="evenodd" clip-rule="evenodd" d="M26.6677 83.5342C30.3152 86.2469 35.8975 87.2143 39.9796 87.1294C44.0617 87.0444 49.3532 86.0279 52.7882 83.3871C49.5656 85.4527 45.271 86.4626 41.6955 86.7077C37.2571 87.0346 31.1028 86.2861 26.6612 83.5211L26.6677 83.5342ZM39.692 88.8256C34.4627 88.8256 27.3116 87.3059 23.6772 82.9982C22.5305 81.7223 21.8496 80.0957 21.7456 78.3834V76.3145C21.7444 76.0999 21.8253 75.893 21.9718 75.7362C22.1182 75.5794 22.3191 75.4846 22.5333 75.4713C22.7579 75.4603 22.9783 75.5343 23.1509 75.6784C23.3235 75.8225 23.4355 76.0262 23.4648 76.2491C23.5334 77.8049 24.1184 78.9978 25.3245 80.2659C28.9719 84.0865 36.1295 85.4233 41.568 85.0376C46.2907 84.7108 52.3044 83.0146 54.8799 79.2004C55.4368 78.3227 55.7795 77.3263 55.88 76.2916C55.8766 76.1817 55.8972 76.0723 55.9404 75.9711C55.9837 75.87 56.0485 75.7795 56.1304 75.706C56.2123 75.6326 56.3092 75.5779 56.4144 75.5458C56.5196 75.5137 56.6306 75.505 56.7396 75.5203C56.9529 75.5359 57.1525 75.6314 57.2985 75.7877C57.4445 75.944 57.5262 76.1497 57.5272 76.3635V76.9518C57.5272 78.8475 57.5991 80.2201 56.2395 82.1811C53.0202 86.9758 45.5031 88.7602 40.0646 88.8321L39.692 88.8256Z" fill="#1A87C7"/>
<path fill-rule="evenodd" clip-rule="evenodd" d="M39.617 67.0915C33.9628 67.0915 28.4524 68.7649 25.4456 71.7718C23.8114 73.468 23.0858 75.3473 23.5859 77.2299C24.2395 79.9426 27.0928 82.4134 31.3874 83.8286C39.2608 86.4433 49.3632 84.93 53.7852 80.4295C55.5043 78.7333 56.1482 76.8344 55.7201 74.9682C55.0664 72.2588 52.1249 69.7879 47.9186 68.3727C45.2365 67.5097 42.4345 67.0773 39.617 67.0915ZM39.5451 86.7766C36.5822 86.7877 33.636 86.3311 30.8154 85.4235C25.9489 83.7894 22.7296 80.9525 21.9419 77.6188C21.2883 75.1774 22.1576 72.6804 24.3017 70.5821C29.1682 65.6796 40.0452 63.9703 48.4186 66.7745C53.2852 68.4087 56.5895 71.2554 57.364 74.5825C57.936 77.0305 57.0797 79.521 55.0043 81.6192C51.7131 84.9235 45.6994 86.7766 39.5451 86.7766Z" fill="#1A87C7"/>
<path fill-rule="evenodd" clip-rule="evenodd" d="M31.0996 84.622C22.9288 81.9093 20.1508 75.8858 24.8898 71.1761C29.6289 66.4665 40.0613 64.8487 48.1504 67.581C56.3212 70.2904 59.1712 76.3172 54.4452 81.0268C49.7192 85.7365 39.2606 87.3478 31.0996 84.622Z" fill="#BDEDF8"/>
<path fill-rule="evenodd" clip-rule="evenodd" d="M30.0279 79.4291L27.7368 78.1055V71.814L30.0279 73.1376V79.4291Z" fill="#66CEEF"/>
<path fill-rule="evenodd" clip-rule="evenodd" d="M28.5248 77.6248L29.1784 77.968V73.6178L28.5248 73.2714V77.6248ZM30.0282 80.2656C29.8789 80.2643 29.7321 80.2274 29.6 80.1577L27.3122 78.8504C27.1786 78.7823 27.0671 78.6776 26.9907 78.5486C26.9143 78.4195 26.8762 78.2714 26.8808 78.1216V71.8137C26.8759 71.6646 26.9139 71.5173 26.9904 71.3892C27.0669 71.2612 27.1786 71.1578 27.3122 71.0914C27.4422 71.014 27.5907 70.9731 27.742 70.9731C27.8933 70.9731 28.0418 71.014 28.1718 71.0914L30.391 72.3988C30.5232 72.4682 30.6334 72.5733 30.7091 72.7021C30.7847 72.8309 30.8228 72.9783 30.8191 73.1276V79.4191C30.8228 79.5684 30.7847 79.7158 30.7091 79.8446C30.6334 79.9734 30.5232 80.0785 30.391 80.1479C30.2883 80.2297 30.1594 80.2715 30.0282 80.2656Z" fill="#1A87C7"/>
<path fill-rule="evenodd" clip-rule="evenodd" d="M30.8154 73.6177V77.9743L44.4117 70.1304V65.7933L30.8154 73.6177ZM30.0278 80.2654C29.8785 80.2642 29.7317 80.2272 29.5996 80.1576C29.4665 80.0889 29.3555 79.9841 29.2792 79.8552C29.2029 79.7263 29.1644 79.5785 29.1682 79.4287V73.1372C29.1644 72.9875 29.2029 72.8397 29.2792 72.7108C29.3555 72.5819 29.4665 72.4771 29.5996 72.4084L44.8431 63.6133C44.9731 63.5375 45.1208 63.4976 45.2713 63.4976C45.4217 63.4976 45.5695 63.5375 45.6994 63.6133C45.8126 63.6978 45.9041 63.8079 45.9666 63.9346C46.0291 64.0613 46.0607 64.2009 46.0589 64.3421V70.6337C46.0607 70.7749 46.0291 70.9145 45.9666 71.0412C45.9041 71.1679 45.8126 71.278 45.6994 71.3625L30.3873 80.1576C30.2841 80.2352 30.1567 80.2734 30.0278 80.2654Z" fill="#1A87C7"/>
<path fill-rule="evenodd" clip-rule="evenodd" d="M30.0278 73.1373L45.2713 64.3423V70.6338L30.0278 79.4288V73.1373Z" fill="#BDEDF8"/>
<path fill-rule="evenodd" clip-rule="evenodd" d="M68.0289 2.26055C67.6693 2.26055 67.3131 2.41743 66.5973 2.73446L9.56186 35.6464C8.49232 36.361 7.60502 37.3162 6.97106 38.4354C6.3371 39.5546 5.97409 40.8068 5.91113 42.0916V81.8833C5.98304 82.7756 5.98304 83.1122 6.41119 83.5338C6.41119 83.4293 6.3393 83.3214 6.3393 83.207V43.2616C6.43225 41.7004 6.88839 40.1825 7.67141 38.8287C8.45442 37.4748 9.54268 36.3225 10.8496 35.4634L68.0452 2.48607C68.1857 2.4207 68.2609 2.36514 68.4014 2.30631C68.2858 2.2724 68.1657 2.25587 68.0452 2.25728L68.0289 2.26055ZM8.41468 86.6257C8.2651 86.6207 8.11862 86.5816 7.98651 86.5113L5.83924 85.2595C4.40771 84.1156 4.33581 83.256 4.20508 81.9618V42.0229C4.29572 40.4634 4.74845 38.9464 5.52737 37.5922C6.30628 36.238 7.38995 35.084 8.69248 34.2215L65.7998 1.24411C67.1595 0.613322 67.9471 0.335515 69.4506 0.917276L71.7384 2.2246C71.9121 2.33822 72.0422 2.50734 72.1075 2.7044C72.1728 2.90145 72.1694 3.11481 72.0979 3.30969C72.0005 3.49802 71.8386 3.64513 71.6419 3.72429C71.4452 3.80346 71.2266 3.80943 71.0259 3.74111C70.0944 3.38813 69.8787 3.49598 68.8067 3.9993L11.7091 36.8917C10.6381 37.6048 9.74976 38.5596 9.11562 39.6791C8.48148 40.7987 8.11936 42.0516 8.05844 43.3368V83.1351C8.13034 84.2594 8.20225 84.5078 8.91474 85.1386C9.0824 85.2684 9.19686 85.4549 9.23659 85.6632C9.27631 85.8715 9.23854 86.0871 9.13042 86.2694C9.0452 86.3784 8.93672 86.4669 8.81288 86.5286C8.68904 86.5902 8.55299 86.6234 8.41468 86.6257Z" fill="#1A87C7"/>
<path fill-rule="evenodd" clip-rule="evenodd" d="M88.2076 68.3132C88.2076 69.3526 88.4233 70.4246 88.9233 71.1272C90.9301 74.0687 97.7282 78.1378 104.167 79.2686C107.602 79.8863 110.393 79.5334 112.184 78.2685C113.063 77.6808 113.718 76.8137 114.044 75.8075C114.127 75.4139 114.175 75.0135 114.187 74.6113C113.397 75.469 112.449 76.1678 111.396 76.6703C103.739 79.0823 100.519 76.7095 96.8686 73.9543C94.937 72.5424 93.0055 71.0913 90.2143 70.0323C90.1398 69.9982 90.0677 69.9589 89.9986 69.9147C89.3264 69.474 88.7229 68.9366 88.2076 68.3198V68.3132ZM107.246 81.246C106.117 81.2345 104.992 81.1251 103.882 80.9191C97.5844 79.8112 90.0705 75.7617 87.4951 72.075C85.9916 69.9506 86.4198 66.1431 87.1356 64.7769C87.2066 64.6159 87.3306 64.4839 87.487 64.4031C87.6433 64.3222 87.8226 64.2973 87.9951 64.3324C88.1737 64.3681 88.3375 64.4567 88.4651 64.5867C88.5928 64.7167 88.6784 64.882 88.7109 65.0612C88.9233 66.9013 89.4266 67.4112 90.8582 68.4832C93.8618 69.6336 96.009 71.209 97.8687 72.598C101.464 75.2747 104.026 77.2063 110.752 75.1081C112.54 74.2223 113.472 73.1471 113.759 71.6959C113.802 71.5018 113.91 71.3284 114.067 71.2056C114.223 71.0827 114.417 71.0181 114.616 71.0227C114.804 71.0172 114.988 71.0805 115.133 71.2009C115.278 71.3212 115.374 71.4902 115.403 71.6763C115.691 72.8366 116.119 74.5394 115.619 76.252C115.248 77.6357 114.381 78.8348 113.184 79.6216C111.681 80.7002 109.684 81.246 107.246 81.246Z" fill="#1A87C7"/>
<path fill-rule="evenodd" clip-rule="evenodd" d="M11.35 36.1601L68.4574 3.21869C70.6766 1.91136 72.5363 2.98338 72.5363 5.59476V45.4487C72.5363 48.0633 70.6766 51.2598 68.3855 52.5638L11.2781 85.5052C9.05889 86.8126 7.19922 85.7405 7.19922 83.1292V43.2622C7.19922 40.6475 9.05888 37.4642 11.35 36.1601Z" fill="#BDEDF8"/>
<path fill-rule="evenodd" clip-rule="evenodd" d="M11.7093 36.8915C9.77447 38.042 8.05863 40.9639 8.05863 43.2648V83.135C8.05863 84.0697 8.34295 84.7692 8.84627 85.0601C9.34959 85.3509 10.0621 85.2431 10.8498 84.779L68.0453 51.8376C70.0488 50.6871 71.6928 47.7685 71.6928 45.4545V5.59411C71.6928 4.65937 71.4084 3.95994 70.9084 3.66906C70.4083 3.37818 69.6893 3.47622 68.9049 3.95013L11.7093 36.8915ZM9.49012 86.8969C8.96266 86.9087 8.44224 86.7741 7.9867 86.5079C6.91142 85.9 6.35254 84.6973 6.35254 83.1252V43.2615C6.35254 40.32 8.35602 36.8948 10.9282 35.4175L68.0355 2.47614C69.3951 1.68847 70.6829 1.59694 71.7549 2.19832C72.8269 2.79969 73.389 4.00898 73.389 5.58104V45.448C73.3171 48.3895 71.3856 51.8245 68.8134 53.292L11.7093 86.2334C11.0409 86.6465 10.2755 86.8764 9.49012 86.9001V86.8969Z" fill="#1A87C7"/>
<path fill-rule="evenodd" clip-rule="evenodd" d="M8.41438 85.7824L6.26707 84.5307C5.26697 83.694 5.19508 83.1711 5.05127 81.8833V42.0098C5.33888 39.0389 6.62662 36.6498 9.20206 34.8947L66.2375 1.95983C67.4566 1.41729 67.9566 1.20812 69.179 1.68203L71.3263 2.92726C70.1105 2.46316 69.6071 2.66905 68.4632 3.20506L11.3493 36.1595C8.77389 37.9146 7.48619 40.2024 7.19858 43.2649V83.1351C7.34238 84.4163 7.41428 84.9392 8.41438 85.7824Z" fill="#BDEDF8"/>
<path fill-rule="evenodd" clip-rule="evenodd" d="M87.8507 65.1592C87.1971 66.3881 86.9912 69.8329 88.207 71.5912C91.8021 76.7323 106.385 83.3572 112.683 78.9417C113.71 78.2406 114.467 77.2114 114.831 76.0231C115.259 74.4968 114.903 72.9509 114.615 71.8658C114.187 73.8627 112.755 75.0491 110.968 75.9087C100.159 79.3077 99.0153 72.4671 90.4981 69.225C88.8541 68.0059 88.1383 67.3195 87.8507 65.1592Z" fill="#3DA5D9"/>
<path fill-rule="evenodd" clip-rule="evenodd" d="M88.2072 67.0484C87.9948 69.4604 89.3544 69.9376 92.1292 70.7024C94.0607 71.2416 96.208 71.8495 97.7114 73.7157C99.2835 75.7781 102.287 77.288 105.582 77.6606C108.445 77.9874 111.092 77.3893 112.811 76.0068C113.232 75.6699 113.559 75.2297 113.759 74.7292C113.959 74.2286 114.027 73.6847 113.955 73.1503C113.883 72.1992 113.455 71.0978 112.739 69.882C111.664 68.2217 108.732 64.1036 103.366 61.7798C101.218 60.8418 99.4992 60.2993 97.6395 60.5052C93.9888 60.9007 88.4883 63.6493 88.1908 67.0418L88.2072 67.0484ZM107.101 79.4353C106.555 79.4359 106.009 79.4021 105.467 79.334C101.673 78.9124 98.2376 77.1507 96.378 74.7387C95.3027 73.317 93.4365 72.8137 91.6552 72.3267C89.1485 71.6207 86.2168 70.8167 86.5011 66.9111C86.9293 62.4302 93.2273 59.2894 97.45 58.8318C99.7378 58.5801 101.745 59.2175 104.104 60.2405C109.83 62.7538 113.05 67.1987 114.197 68.993C115 70.1949 115.515 71.5663 115.7 73C115.779 73.809 115.657 74.6249 115.344 75.3752C115.032 76.1255 114.539 76.7871 113.909 77.3011C112.184 78.6836 109.821 79.4353 107.101 79.4353Z" fill="#1A87C7"/>
<path fill-rule="evenodd" clip-rule="evenodd" d="M87.3514 66.9764C86.92 72.5489 94.0057 70.3395 97.0125 74.232C100.448 78.641 109.105 80.164 113.328 76.6506C113.87 76.239 114.293 75.6924 114.557 75.0655C114.821 74.4385 114.916 73.7533 114.831 73.0783C114.76 71.8919 114.178 70.6598 113.472 69.4374C111.111 65.7458 107.73 62.818 103.739 61.0084C101.52 60.0279 99.6599 59.4396 97.5845 59.6684C93.8618 60.0704 87.7076 62.9041 87.3514 66.9764Z" fill="#BDEDF8"/>
<path fill-rule="evenodd" clip-rule="evenodd" d="M97.0128 87.8872V90.4757C96.7971 91.2503 96.297 91.7014 95.5813 92.1099L47.7756 119.704C46.6788 120.263 45.4653 120.555 44.2343 120.555C43.0034 120.555 41.7899 120.263 40.6931 119.704L24.3744 110.226C23.6586 109.818 23.1586 109.37 22.9429 108.592V106.013C23.1586 106.785 23.6586 107.236 24.3744 107.647L40.6931 117.126C41.7893 117.686 43.003 117.979 44.2343 117.979C45.4657 117.979 46.6794 117.686 47.7756 117.126L95.5813 89.5312C96.284 89.1161 96.7971 88.6651 97.0128 87.8872Z" fill="#3DA5D9"/>
<path fill-rule="evenodd" clip-rule="evenodd" d="M23.8018 108.448C23.9456 108.853 24.23 109.148 24.8052 109.497L41.1207 118.975C42.0971 119.469 43.1757 119.726 44.2697 119.726C45.3636 119.726 46.4423 119.469 47.4187 118.975L95.2212 91.3875C95.6376 91.1545 95.9651 90.7902 96.1527 90.3515V90.1717C96.1527 90.1946 96.0808 90.2305 96.0089 90.2502L48.2064 117.848C46.9905 118.48 45.6402 118.81 44.2697 118.81C42.8992 118.81 41.5489 118.48 40.333 117.848L23.9456 108.35C23.8737 108.314 23.8018 108.295 23.8018 108.259V108.438V108.448ZM44.2681 121.401C42.9015 121.409 41.5541 121.078 40.3461 120.44L23.9587 110.962C23.2429 110.524 22.4553 109.945 22.099 108.837V106.013C22.0927 105.811 22.1622 105.613 22.2941 105.46C22.4259 105.306 22.6105 105.208 22.8115 105.183C23.0119 105.154 23.216 105.198 23.3869 105.306C23.5578 105.415 23.6841 105.581 23.743 105.775C23.8868 106.242 24.1711 106.533 24.8183 106.928L41.1337 116.407C42.9215 117.387 45.5721 117.387 47.4318 116.407L95.2343 88.8186C95.8095 88.446 96.0939 88.1388 96.2377 87.6747C96.3009 87.4894 96.4269 87.3319 96.5939 87.2296C96.761 87.1273 96.9585 87.0866 97.1524 87.1145C97.3462 87.1424 97.5242 87.2372 97.6556 87.3825C97.787 87.5278 97.8635 87.7144 97.8718 87.91V90.4986C97.8762 90.5393 97.8724 90.5806 97.8607 90.6199C97.8489 90.6592 97.8293 90.6957 97.8032 90.7273C97.5156 91.8385 96.7279 92.4236 96.0122 92.8485L48.2064 120.433C46.9979 121.087 45.6419 121.42 44.2681 121.401Z" fill="#1A87C7"/>
<path fill-rule="evenodd" clip-rule="evenodd" d="M75.6923 75.9453C74.5977 75.9214 73.5145 76.1719 72.5417 76.6741L24.7392 104.278C24.0855 104.664 23.7358 105.144 23.7358 105.586C23.7358 106.027 24.0921 106.53 24.7392 106.913L41.1266 116.391C42.8424 117.371 45.7022 117.371 47.4246 116.391L95.2271 88.7963C95.8807 88.4107 96.2304 87.9302 96.2304 87.4727C96.2304 87.0151 95.8709 86.5347 95.2271 86.1653L78.8397 76.6872C77.8703 76.1776 76.7873 75.9223 75.6923 75.9453ZM44.274 118.832C42.9031 118.856 41.5503 118.518 40.352 117.852L23.9646 108.374C22.7488 107.681 22.0298 106.664 22.0298 105.589C22.0298 104.514 22.7488 103.523 23.9646 102.821L71.6821 75.2198C73.9699 73.9124 77.4082 73.9124 79.6274 75.2198L96.0147 84.6979C97.2306 85.394 97.9463 86.4007 97.9463 87.4759C97.9463 88.5512 97.2306 89.5644 96.0147 90.2507L48.2058 117.848C47.0011 118.512 45.6425 118.846 44.2674 118.816L44.274 118.832Z" fill="#1A87C7"/>
<path fill-rule="evenodd" clip-rule="evenodd" d="M24.3806 103.529L72.0981 75.9448C74.1015 74.8205 77.2489 74.827 79.2557 75.9448L95.5711 85.4229C97.5746 86.5472 97.5746 88.3938 95.5711 89.5247L47.7752 117.126C45.8436 118.25 42.6962 118.25 40.6928 117.126L24.3806 107.648C22.3705 106.5 22.3705 104.66 24.3806 103.529Z" fill="#BDEDF8"/>
<path fill-rule="evenodd" clip-rule="evenodd" d="M6.77077 38.8165C6.24064 39.8269 5.94673 40.9444 5.91119 42.0848V81.8831C5.9831 82.7689 5.98311 83.112 6.41126 83.5336C6.41126 83.4291 6.33936 83.3212 6.33936 83.2068V43.2614C6.42506 41.8467 6.81645 40.4674 7.48656 39.2185L6.77077 38.8132V38.8165ZM8.40494 86.6255C8.25536 86.6205 8.10892 86.5814 7.97681 86.5111L5.82948 85.2593C4.46985 84.1514 4.32605 83.3702 4.19531 81.9616V42.0227C4.40775 40.0323 4.849 38.6139 5.7674 37.2118C5.88744 37.0291 6.07275 36.8992 6.28542 36.8488C6.4981 36.7984 6.72205 36.8312 6.91132 36.9405L9.05861 38.1922C9.16139 38.239 9.24933 38.3131 9.31275 38.4065C9.37617 38.4999 9.41262 38.609 9.41812 38.7217C9.46007 38.8283 9.47545 38.9436 9.46292 39.0574C9.4504 39.1713 9.41035 39.2804 9.34622 39.3754C8.55855 40.5422 8.20232 41.6959 8.05852 43.3333V83.1349C8.13042 84.2592 8.20232 84.5076 8.91482 85.1384C9.08248 85.2682 9.19694 85.4547 9.23667 85.663C9.27639 85.8713 9.23862 86.0869 9.1305 86.2692C9.04528 86.3782 8.93681 86.4667 8.81296 86.5284C8.68912 86.59 8.55307 86.6232 8.41475 86.6255H8.40494Z" fill="#1A87C7"/>
<path fill-rule="evenodd" clip-rule="evenodd" d="M8.63011 38.9147L6.4828 37.6694C5.62252 38.9653 5.12795 40.4693 5.05127 42.0228V81.8963C5.19508 83.184 5.26697 83.707 6.26708 84.5437L8.41439 85.7954C7.41428 84.9522 7.34239 84.4293 7.19858 83.1416V43.2615C7.27992 41.7109 7.77414 40.2102 8.63011 38.9147Z" fill="#3DA5D9"/>
<path fill-rule="evenodd" clip-rule="evenodd" d="M46.9323 101.683L47.2919 102.428C47.2919 102.428 47.3637 102.428 47.3637 102.408L46.9323 101.683ZM47.72 102.193L49.7235 103.349C49.8702 103.414 50.0288 103.448 50.1892 103.448C50.3496 103.448 50.5082 103.414 50.655 103.349L52.6584 102.193L50.655 101.032C50.5078 100.969 50.3493 100.937 50.1892 100.937C50.0291 100.937 49.8707 100.969 49.7235 101.032L47.72 102.193ZM50.2268 105.134C49.7538 105.137 49.2871 105.025 48.8672 104.807L46.5042 103.425C46.2687 103.316 46.0694 103.142 45.9297 102.923C45.7901 102.704 45.7158 102.45 45.7158 102.191C45.7158 101.931 45.7901 101.677 45.9297 101.459C46.0694 101.24 46.2687 101.066 46.5042 100.957L48.9391 99.5746C49.3356 99.3637 49.7777 99.2534 50.2268 99.2534C50.6759 99.2534 51.1181 99.3637 51.5145 99.5746L53.8742 100.957C54.1097 101.066 54.309 101.24 54.4487 101.459C54.5884 101.677 54.6626 101.931 54.6626 102.191C54.6626 102.45 54.5884 102.704 54.4487 102.923C54.309 103.142 54.1097 103.316 53.8742 103.425L51.4426 104.807C51.0658 105.026 50.6362 105.137 50.2007 105.127L50.2268 105.134Z" fill="#1A87C7"/>
<path fill-rule="evenodd" clip-rule="evenodd" d="M46.9322 101.683L49.2952 100.304C49.5728 100.165 49.8788 100.093 50.1891 100.093C50.4994 100.093 50.8054 100.165 51.083 100.304L53.446 101.683C53.946 101.964 53.946 102.421 53.446 102.693L51.083 104.082C50.804 104.216 50.4985 104.285 50.1891 104.285C49.8796 104.285 49.5742 104.216 49.2952 104.082L46.9322 102.693C46.4158 102.418 46.4158 101.964 46.9322 101.683Z" fill="white"/>
<path fill-rule="evenodd" clip-rule="evenodd" d="M35.9073 108.997L37.914 110.158C38.0606 110.221 38.2185 110.253 38.3781 110.253C38.5377 110.253 38.6956 110.221 38.8422 110.158L40.8457 108.997L38.8422 107.837C38.6957 107.774 38.5377 107.741 38.3781 107.741C38.2185 107.741 38.0606 107.774 37.914 107.837L35.9073 108.997ZM38.4141 111.939C37.9629 111.951 37.5172 111.838 37.1264 111.612L34.6915 110.226C34.461 110.109 34.2663 109.933 34.1277 109.715C33.9891 109.497 33.9118 109.246 33.9038 108.987C33.912 108.731 33.9896 108.482 34.1283 108.266C34.267 108.05 34.4616 107.876 34.6915 107.762L37.1264 106.376C37.5224 106.164 37.9647 106.053 38.4141 106.053C38.8634 106.053 39.3058 106.164 39.7018 106.376L42.0615 107.762C42.2971 107.87 42.4967 108.044 42.6366 108.262C42.7765 108.481 42.8509 108.735 42.8509 108.994C42.8509 109.253 42.7765 109.507 42.6366 109.726C42.4967 109.944 42.2971 110.118 42.0615 110.226L39.7018 111.605C39.3047 111.827 38.8559 111.94 38.401 111.932L38.4141 111.939Z" fill="#1A87C7"/>
<path fill-rule="evenodd" clip-rule="evenodd" d="M37.5424 107.108L35.1074 108.487C35.0119 108.533 34.9312 108.604 34.8746 108.693C34.8181 108.783 34.7881 108.886 34.7881 108.992C34.7881 109.098 34.8181 109.202 34.8746 109.291C34.9312 109.38 35.0119 109.452 35.1074 109.497L37.5424 110.88C37.8072 111.02 38.1023 111.093 38.4019 111.093C38.7016 111.093 38.9967 111.02 39.2615 110.88L41.6212 109.504C42.1213 109.226 42.1213 108.775 41.6212 108.487L39.2615 107.108C38.9962 106.969 38.7013 106.897 38.4019 106.897C38.1026 106.897 37.8077 106.969 37.5424 107.108Z" fill="white"/>
<path fill-rule="evenodd" clip-rule="evenodd" d="M41.836 112.403L43.8395 113.564C43.9866 113.627 44.1451 113.659 44.3052 113.659C44.4653 113.659 44.6238 113.627 44.7709 113.564L46.7025 112.403L44.7709 111.246C44.6238 111.183 44.4653 111.151 44.3052 111.151C44.1451 111.151 43.9866 111.183 43.8395 111.246L41.836 112.403ZM44.2676 115.345C43.8181 115.343 43.376 115.231 42.9799 115.018L40.5483 113.629C40.3364 113.499 40.1601 113.318 40.0352 113.103C39.9102 112.888 39.8406 112.645 39.8325 112.397C39.841 112.148 39.9107 111.904 40.0355 111.688C40.1603 111.472 40.3364 111.29 40.5483 111.158L42.9799 109.779C43.378 109.571 43.8203 109.463 44.2692 109.463C44.7182 109.463 45.1606 109.571 45.5586 109.779L47.9902 111.168C48.2257 111.277 48.425 111.451 48.5647 111.67C48.7044 111.888 48.7786 112.142 48.7786 112.402C48.7786 112.661 48.7044 112.915 48.5647 113.134C48.425 113.352 48.2257 113.527 47.9902 113.636L45.5586 115.018C45.1648 115.239 44.7193 115.352 44.2676 115.345Z" fill="#1A87C7"/>
<path fill-rule="evenodd" clip-rule="evenodd" d="M43.4083 110.514L40.9767 111.896C40.8804 111.942 40.799 112.014 40.742 112.104C40.6851 112.194 40.6548 112.298 40.6548 112.404C40.6548 112.511 40.6851 112.615 40.742 112.705C40.799 112.795 40.8804 112.867 40.9767 112.913L43.4083 114.292C43.6736 114.431 43.9685 114.503 44.2679 114.503C44.5672 114.503 44.8621 114.431 45.1275 114.292L47.5624 112.913C47.6579 112.867 47.7387 112.796 47.7952 112.706C47.8517 112.617 47.8817 112.513 47.8817 112.408C47.8817 112.302 47.8517 112.198 47.7952 112.109C47.7387 112.02 47.6579 111.948 47.5624 111.903L45.1275 110.514C44.8617 110.377 44.5669 110.305 44.2679 110.305C43.9688 110.305 43.6741 110.377 43.4083 110.514Z" fill="white"/>
<path fill-rule="evenodd" clip-rule="evenodd" d="M35.8947 102.186L37.9701 103.343C38.104 103.408 38.251 103.442 38.3999 103.442C38.5488 103.442 38.6958 103.408 38.8297 103.343L40.8331 102.192L38.8297 101.026C38.6958 100.96 38.5488 100.926 38.3999 100.926C38.251 100.926 38.104 100.96 37.9701 101.026L35.8947 102.186ZM38.4015 105.118C37.9503 105.13 37.5046 105.017 37.1138 104.791L34.6789 103.402C34.4442 103.293 34.2455 103.119 34.1063 102.901C33.9671 102.683 33.8931 102.43 33.8931 102.171C33.8931 101.913 33.9671 101.659 34.1063 101.441C34.2455 101.223 34.4442 101.05 34.6789 100.941L37.1138 99.5582C37.5098 99.346 37.9522 99.2349 38.4015 99.2349C38.8509 99.2349 39.2932 99.346 39.6892 99.5582L42.049 100.941C42.2844 101.05 42.4837 101.224 42.6234 101.442C42.7631 101.661 42.8373 101.915 42.8373 102.175C42.8373 102.434 42.7631 102.688 42.6234 102.907C42.4837 103.125 42.2844 103.299 42.049 103.408L39.6892 104.791C39.295 105.008 38.8516 105.121 38.4015 105.118Z" fill="#1A87C7"/>
<path fill-rule="evenodd" clip-rule="evenodd" d="M39.2615 104.076L41.6212 102.693C42.1213 102.415 42.1213 101.964 41.6212 101.683L39.2615 100.297C38.9962 100.159 38.7013 100.086 38.4019 100.086C38.1026 100.086 37.8077 100.159 37.5424 100.297L35.1074 101.683C35.0119 101.729 34.9312 101.8 34.8746 101.889C34.8181 101.979 34.7881 102.082 34.7881 102.188C34.7881 102.294 34.8181 102.398 34.8746 102.487C34.9312 102.576 35.0119 102.648 35.1074 102.693L37.5424 104.076C37.8082 104.213 38.1029 104.284 38.4019 104.284C38.701 104.284 38.9957 104.213 39.2615 104.076Z" fill="white"/>
<path fill-rule="evenodd" clip-rule="evenodd" d="M41.836 98.7775L43.8395 99.9443C44.1382 100.065 44.4722 100.065 44.7709 99.9443L46.7025 98.7873L44.7709 97.6205C44.6242 97.5558 44.4656 97.5223 44.3052 97.5223C44.1448 97.5223 43.9862 97.5558 43.8395 97.6205L41.836 98.7775ZM44.2676 101.719C43.8177 101.72 43.3749 101.608 42.9799 101.392L40.6202 100.01C40.3895 99.8932 40.1946 99.7167 40.0559 99.4986C39.9173 99.2806 39.8401 99.0292 39.8325 98.7709C39.8405 98.514 39.9179 98.2641 40.0566 98.0477C40.1953 97.8313 40.39 97.6566 40.6202 97.5421L42.9799 96.1595C43.377 95.9487 43.8197 95.8384 44.2692 95.8384C44.7188 95.8384 45.1616 95.9487 45.5586 96.1595L47.9902 97.5421C48.2257 97.6511 48.425 97.8251 48.5647 98.0438C48.7044 98.2624 48.7786 98.5164 48.7786 98.7758C48.7786 99.0353 48.7044 99.2893 48.5647 99.5079C48.425 99.7265 48.2257 99.9006 47.9902 100.01L45.5586 101.392C45.166 101.616 44.7196 101.729 44.2676 101.719Z" fill="#1A87C7"/>
<path fill-rule="evenodd" clip-rule="evenodd" d="M45.1997 100.673L47.5627 99.2872C48.0628 99.0061 48.0628 98.5551 47.5627 98.2773L45.1997 96.8948C44.9211 96.7578 44.6147 96.6865 44.3042 96.6865C43.9937 96.6865 43.6873 96.7578 43.4087 96.8948L40.9771 98.2773C40.8815 98.3226 40.8008 98.3941 40.7443 98.4835C40.6877 98.5728 40.6577 98.6764 40.6577 98.7822C40.6577 98.888 40.6877 98.9916 40.7443 99.0809C40.8008 99.1703 40.8815 99.2418 40.9771 99.2872L43.4087 100.673C43.6877 100.808 43.9939 100.879 44.3042 100.879C44.6145 100.879 44.9207 100.808 45.1997 100.673Z" fill="white"/>
<path fill-rule="evenodd" clip-rule="evenodd" d="M35.7548 106.092L35.3952 105.356C35.3952 105.356 35.3952 105.356 35.3233 105.376L35.7548 106.092L35.3233 105.376L35.7548 106.092ZM30.0286 105.591L32.0321 106.752C32.1793 106.815 32.3377 106.847 32.4978 106.847C32.6579 106.847 32.8164 106.815 32.9636 106.752L34.9671 105.591L32.9636 104.431C32.8164 104.368 32.6579 104.336 32.4978 104.336C32.3377 104.336 32.1793 104.368 32.0321 104.431L30.0286 105.591ZM32.4635 108.533C32.0068 108.539 31.5565 108.426 31.1562 108.206L28.7965 106.824C28.5664 106.709 28.3716 106.534 28.2329 106.318C28.0942 106.102 28.0167 105.852 28.0088 105.595C28.0167 105.337 28.0941 105.085 28.2327 104.867C28.3713 104.649 28.566 104.473 28.7965 104.356L31.1562 102.977C31.5655 102.766 32.0194 102.656 32.4799 102.656C32.9404 102.656 33.3942 102.766 33.8035 102.977L36.1666 104.356C36.3959 104.474 36.5897 104.651 36.7281 104.869C36.8665 105.086 36.9446 105.337 36.9542 105.595C36.9456 105.851 36.8678 106.101 36.7292 106.317C36.5906 106.534 36.3962 106.709 36.1666 106.824L33.8035 108.206C33.389 108.419 32.9294 108.529 32.4635 108.526V108.533Z" fill="#1A87C7"/>
<path fill-rule="evenodd" clip-rule="evenodd" d="M35.7536 106.092L33.3906 107.481C33.1125 107.618 32.8067 107.689 32.4967 107.689C32.1867 107.689 31.8809 107.618 31.6028 107.481L29.2398 106.092C28.7397 105.814 28.7397 105.363 29.2398 105.085L31.6028 103.703C31.8804 103.564 32.1864 103.492 32.4967 103.492C32.807 103.492 33.113 103.564 33.3906 103.703L35.7536 105.085C36.2537 105.36 36.2537 105.82 35.7536 106.092Z" fill="white"/>
<path fill-rule="evenodd" clip-rule="evenodd" d="M40.9764 105.085L41.4078 105.833V105.807L40.9764 105.085ZM41.836 105.592L43.8395 106.758C44.1381 106.88 44.4723 106.88 44.7709 106.758L46.7025 105.592L44.7709 104.431C44.6238 104.368 44.4653 104.336 44.3052 104.336C44.1451 104.336 43.9867 104.368 43.8395 104.431L41.836 105.592ZM44.2676 108.533C43.8175 108.536 43.3743 108.423 42.9799 108.206L40.5483 106.824C40.3369 106.692 40.1611 106.511 40.0363 106.295C39.9115 106.08 39.8415 105.837 39.8325 105.588C39.8403 105.34 39.9098 105.097 40.0348 104.882C40.1597 104.667 40.3362 104.486 40.5483 104.356L42.9799 102.97C43.3775 102.761 43.82 102.652 44.2692 102.652C44.7185 102.652 45.1611 102.761 45.5586 102.97L47.9902 104.356C48.2257 104.465 48.425 104.639 48.5647 104.858C48.7044 105.077 48.7786 105.331 48.7786 105.59C48.7786 105.849 48.7044 106.103 48.5647 106.322C48.425 106.541 48.2257 106.715 47.9902 106.824L45.5586 108.206C45.1666 108.432 44.7198 108.545 44.2676 108.533Z" fill="#1A87C7"/>
<path fill-rule="evenodd" clip-rule="evenodd" d="M40.9767 105.085L43.4083 103.703C43.6869 103.566 43.9933 103.495 44.3038 103.495C44.6143 103.495 44.9207 103.566 45.1993 103.703L47.5624 105.092C48.0624 105.37 48.0624 105.821 47.5624 106.099L45.1993 107.481C44.9207 107.618 44.6143 107.689 44.3038 107.689C43.9933 107.689 43.6869 107.618 43.4083 107.481L40.9767 106.099C40.8802 106.054 40.7986 105.982 40.7414 105.892C40.6842 105.803 40.6538 105.698 40.6538 105.592C40.6538 105.486 40.6842 105.381 40.7414 105.292C40.7986 105.202 40.8802 105.13 40.9767 105.085Z" fill="white"/>
<path fill-rule="evenodd" clip-rule="evenodd" d="M58.7239 94.8785L59.0835 95.6237V95.6008L58.7239 94.8785ZM59.5116 95.3786L61.5151 96.5388C61.6618 96.6038 61.8204 96.6373 61.9808 96.6373C62.1413 96.6373 62.2999 96.6038 62.4466 96.5388L64.45 95.3786L62.4466 94.2216C62.2998 94.1568 62.1412 94.1234 61.9808 94.1234C61.8205 94.1234 61.6618 94.1568 61.5151 94.2216L59.5116 95.3786ZM61.9465 98.3201C61.4898 98.3257 61.0395 98.2131 60.6392 97.9933L58.2795 96.6075C58.0448 96.4987 57.8461 96.325 57.7069 96.107C57.5676 95.8889 57.4937 95.6356 57.4937 95.377C57.4937 95.1183 57.5676 94.865 57.7069 94.6469C57.8461 94.4289 58.0448 94.2552 58.2795 94.1464L60.6392 92.7639C61.0367 92.5547 61.4793 92.4453 61.9285 92.4453C62.3778 92.4453 62.8203 92.5547 63.2179 92.7639L65.6495 94.153C65.8796 94.2675 66.0744 94.4422 66.2131 94.6586C66.3518 94.875 66.4293 95.1249 66.4372 95.3818C66.4296 95.6401 66.3524 95.8915 66.2137 96.1096C66.0751 96.3276 65.8802 96.5041 65.6495 96.6206L63.2179 97.9998C62.831 98.2199 62.3915 98.3306 61.9465 98.3201Z" fill="#1A87C7"/>
<path fill-rule="evenodd" clip-rule="evenodd" d="M58.7242 94.878L61.0872 93.4889C61.3653 93.352 61.6711 93.2808 61.9811 93.2808C62.291 93.2808 62.5969 93.352 62.875 93.4889L65.2379 94.878C65.738 95.1591 65.738 95.6068 65.2379 95.8879L62.8031 97.2671C62.5383 97.4057 62.2439 97.4781 61.9451 97.4781C61.6463 97.4781 61.3519 97.4057 61.0872 97.2671L58.7242 95.8879C58.2241 95.6068 58.2241 95.1493 58.7242 94.878Z" fill="white"/>
<path fill-rule="evenodd" clip-rule="evenodd" d="M64.5942 98.2838L65.0224 99.0224V99.0061L64.5942 98.2838L65.0224 99.0061L64.5942 98.2838ZM65.3819 98.7871L67.3853 99.9507C67.5319 100.014 67.6899 100.046 67.8495 100.046C68.0091 100.046 68.167 100.014 68.3136 99.9507L70.317 98.7937L68.3136 97.6269C68.1667 97.5647 68.0089 97.5326 67.8495 97.5326C67.69 97.5326 67.5322 97.5647 67.3853 97.6269L65.3819 98.7871ZM67.8854 101.729C67.4124 101.732 66.9458 101.619 66.5258 101.402L64.1628 100.019C63.9284 99.9093 63.7303 99.7349 63.5914 99.5164C63.4526 99.2979 63.3789 99.0444 63.3789 98.7855C63.3789 98.5266 63.4526 98.2731 63.5914 98.0546C63.7303 97.8361 63.9284 97.6617 64.1628 97.5517L66.5258 96.1692C66.9351 95.9582 67.389 95.8481 67.8495 95.8481C68.31 95.8481 68.7638 95.9582 69.1731 96.1692L71.5361 97.5517C71.7715 97.6607 71.9709 97.8348 72.1105 98.0534C72.2502 98.272 72.3245 98.5261 72.3245 98.7855C72.3245 99.0449 72.2502 99.299 72.1105 99.5176C71.9709 99.7362 71.7715 99.9103 71.5361 100.019L69.1731 101.402C68.7786 101.618 68.3352 101.729 67.8854 101.725V101.729Z" fill="#1A87C7"/>
<path fill-rule="evenodd" clip-rule="evenodd" d="M64.5806 98.2842L66.9403 96.8951C67.2191 96.7588 67.5254 96.688 67.8358 96.688C68.1461 96.688 68.4524 96.7588 68.7313 96.8951L71.091 98.2744C71.5943 98.5522 71.5943 99.0065 71.091 99.2843L68.7313 100.664C68.4531 100.802 68.1466 100.874 67.8358 100.874C67.525 100.874 67.2184 100.802 66.9403 100.664L64.5806 99.2843C64.0936 99.0163 64.0936 98.562 64.5806 98.2842Z" fill="white"/>
<path fill-rule="evenodd" clip-rule="evenodd" d="M47.7029 95.3783L49.7064 96.5385C49.8539 96.6001 50.0122 96.6318 50.1721 96.6318C50.332 96.6318 50.4903 96.6001 50.6378 96.5385L52.6413 95.3783L50.6378 94.2213C50.4912 94.1563 50.3325 94.1228 50.1721 94.1228C50.0117 94.1228 49.8531 94.1563 49.7064 94.2213L47.7029 95.3783ZM50.2097 98.3133C49.7585 98.3256 49.3127 98.2125 48.922 97.9864L46.4871 96.6072C46.2517 96.4982 46.0523 96.3241 45.9126 96.1055C45.7729 95.8868 45.6987 95.6328 45.6987 95.3734C45.6987 95.1139 45.7729 94.8599 45.9126 94.6413C46.0523 94.4227 46.2517 94.2486 46.4871 94.1396L48.922 92.7571C49.3189 92.5478 49.761 92.4385 50.2097 92.4385C50.6585 92.4385 51.1004 92.5478 51.4974 92.7571L53.8571 94.1461C54.0918 94.2549 54.2905 94.4286 54.4298 94.6466C54.569 94.8646 54.643 95.118 54.643 95.3767C54.643 95.6353 54.569 95.8886 54.4298 96.1067C54.2905 96.3247 54.0918 96.4984 53.8571 96.6072L51.4974 97.993C51.0952 98.1979 50.6512 98.3075 50.1999 98.3133H50.2097Z" fill="#1A87C7"/>
<path fill-rule="evenodd" clip-rule="evenodd" d="M51.0663 97.2675L53.4293 95.8882C53.9294 95.6006 53.9294 95.1496 53.4293 94.8718L51.0663 93.4892C50.8011 93.3522 50.5069 93.2808 50.2084 93.2808C49.9099 93.2808 49.6157 93.3522 49.3505 93.4892L46.9156 94.8718C46.4155 95.1496 46.4155 95.6006 46.9156 95.8817L49.2786 97.2675C49.5571 97.403 49.8627 97.4734 50.1725 97.4734C50.4822 97.4734 50.7878 97.403 51.0663 97.2675Z" fill="white"/>
<path fill-rule="evenodd" clip-rule="evenodd" d="M53.6445 91.9593L55.5761 93.1196C55.7226 93.1829 55.8806 93.2156 56.0402 93.2156C56.1998 93.2156 56.3578 93.1829 56.5043 93.1196L58.511 91.9659L56.5043 90.7991C56.2068 90.6777 55.8736 90.6777 55.5761 90.7991L53.6445 91.9593ZM56.0827 94.9008C55.6317 94.9113 55.1864 94.7983 54.795 94.574L52.3634 93.1915C52.1336 93.074 51.9394 92.8972 51.8009 92.6794C51.6624 92.4616 51.5847 92.2107 51.5757 91.9528C51.5841 91.6956 51.6617 91.4454 51.8003 91.2286C51.9389 91.0117 52.1334 90.8363 52.3634 90.7206L54.795 89.3414C55.191 89.1291 55.6334 89.0181 56.0827 89.0181C56.532 89.0181 56.9743 89.1291 57.3704 89.3414L59.8053 90.7206C60.0405 90.8302 60.2396 91.0047 60.3791 91.2236C60.5185 91.4424 60.5927 91.6965 60.5927 91.9561C60.5927 92.2156 60.5185 92.4697 60.3791 92.6886C60.2396 92.9074 60.0405 93.0819 59.8053 93.1915L57.3704 94.574C56.9756 94.7899 56.5326 94.9024 56.0827 94.9008Z" fill="#1A87C7"/>
<path fill-rule="evenodd" clip-rule="evenodd" d="M56.936 93.8615L59.3677 92.4823C59.4643 92.4379 59.5462 92.3668 59.6036 92.2773C59.661 92.1878 59.6915 92.0837 59.6915 91.9773C59.6915 91.871 59.661 91.7669 59.6036 91.6774C59.5462 91.5879 59.4643 91.5167 59.3677 91.4724L56.936 90.0899C56.6698 89.9544 56.3752 89.8838 56.0765 89.8838C55.7777 89.8838 55.4832 89.9544 55.2169 90.0899L52.7853 91.4724C52.689 91.5179 52.6076 91.5898 52.5506 91.6798C52.4936 91.7698 52.4634 91.8741 52.4634 91.9806C52.4634 92.0871 52.4936 92.1914 52.5506 92.2814C52.6076 92.3714 52.689 92.4433 52.7853 92.4888L55.2169 93.8681C55.4828 94.0057 55.7779 94.0769 56.0773 94.0758C56.3766 94.0747 56.6713 94.0011 56.936 93.8615Z" fill="white"/>
<path fill-rule="evenodd" clip-rule="evenodd" d="M52.7853 98.2774L53.2134 99.0226V98.9997L52.7853 98.2774ZM53.6448 98.7872L55.5764 99.9442C55.7225 100.009 55.8806 100.042 56.0405 100.042C56.2003 100.042 56.3584 100.009 56.5046 99.9442L58.5113 98.7872L56.5046 97.627C56.3589 97.5605 56.2006 97.5261 56.0405 97.5261C55.8803 97.5261 55.7221 97.5605 55.5764 97.627L53.6448 98.7872ZM56.0764 101.729C55.6249 101.744 55.1784 101.631 54.7887 101.402L52.3571 100.019C52.1224 99.9106 51.9237 99.7369 51.7845 99.5189C51.6453 99.3009 51.5713 99.0476 51.5713 98.7889C51.5713 98.5302 51.6453 98.2769 51.7845 98.0589C51.9237 97.8408 52.1224 97.6672 52.3571 97.5584L54.7887 96.1693C55.1852 95.9584 55.6274 95.8481 56.0764 95.8481C56.5255 95.8481 56.9677 95.9584 57.3642 96.1693L59.799 97.5518C60.0292 97.6671 60.2239 97.8425 60.3625 98.0594C60.5012 98.2763 60.5786 98.5267 60.5867 98.784C60.5775 99.0414 60.4996 99.2917 60.3611 99.509C60.2226 99.7262 60.0286 99.9024 59.799 100.019L57.3642 101.395C56.9727 101.613 56.531 101.725 56.083 101.719L56.0764 101.729Z" fill="#1A87C7"/>
<path fill-rule="evenodd" clip-rule="evenodd" d="M52.7857 98.2775L55.2173 96.895C55.4831 96.758 55.7779 96.6865 56.0769 96.6865C56.376 96.6865 56.6707 96.758 56.9365 96.895L59.3682 98.2841C59.4648 98.3284 59.5467 98.3996 59.6041 98.4891C59.6615 98.5786 59.692 98.6827 59.692 98.789C59.692 98.8953 59.6615 98.9994 59.6041 99.0889C59.5467 99.1784 59.4648 99.2496 59.3682 99.294L56.9365 100.673C56.6712 100.812 56.3762 100.884 56.0769 100.884C55.7776 100.884 55.4826 100.812 55.2173 100.673L52.7857 99.294C52.2856 99.0064 52.2856 98.5553 52.7857 98.2775Z" fill="white"/>
<path fill-rule="evenodd" clip-rule="evenodd" d="M46.915 108.487L47.2746 109.233C47.2746 109.233 47.2746 109.233 47.3465 109.213L46.915 108.487L47.3465 109.213L46.915 108.487ZM47.7027 108.997L49.7062 110.158C49.8534 110.221 50.0118 110.253 50.172 110.253C50.3321 110.253 50.4905 110.221 50.6377 110.158L64.4496 102.193L62.4461 101.032C62.299 100.969 62.1406 100.937 61.9804 100.937C61.8203 100.937 61.6618 100.969 61.5147 101.032L47.7027 108.997ZM50.2095 111.939C49.7365 111.942 49.2698 111.83 48.8499 111.612L46.4869 110.226C46.257 110.112 46.0624 109.938 45.9237 109.722C45.785 109.506 45.7074 109.257 45.6992 109.001C45.7072 108.742 45.7845 108.491 45.9231 108.273C46.0617 108.055 46.2565 107.879 46.4869 107.762L60.6584 99.5714C61.0564 99.3638 61.4988 99.2554 61.9477 99.2554C62.3967 99.2554 62.839 99.3638 63.2371 99.5714L65.6687 100.96C65.9042 101.069 66.1035 101.244 66.2432 101.462C66.3829 101.681 66.4571 101.935 66.4571 102.194C66.4571 102.454 66.3829 102.708 66.2432 102.926C66.1035 103.145 65.9042 103.319 65.6687 103.428L51.4286 111.599C51.0576 111.822 50.6327 111.94 50.1997 111.939H50.2095Z" fill="#1A87C7"/>
<path fill-rule="evenodd" clip-rule="evenodd" d="M46.9322 108.487L61.1037 100.316C61.3684 100.178 61.6628 100.105 61.9616 100.105C62.2604 100.105 62.5548 100.178 62.8196 100.316L65.2545 101.696C65.7545 101.983 65.7545 102.434 65.2545 102.712L51.083 110.883C50.8049 111.02 50.4991 111.091 50.1891 111.091C49.8791 111.091 49.5733 111.02 49.2952 110.883L46.9322 109.5C46.4158 109.226 46.4158 108.775 46.9322 108.487Z" fill="white"/>
<path fill-rule="evenodd" clip-rule="evenodd" d="M78.2616 83.5502L78.6897 84.2954V84.2725L78.2616 83.5502ZM79.1211 84.0568L81.1246 85.2171C81.2585 85.2823 81.4055 85.3163 81.5544 85.3163C81.7034 85.3163 81.8503 85.2823 81.9842 85.2171L83.9876 84.0568L81.9842 82.8998C81.8503 82.8346 81.7034 82.8006 81.5544 82.8006C81.4055 82.8006 81.2585 82.8346 81.1246 82.8998L79.1211 84.0568ZM81.5528 86.9983C81.1022 87.0052 80.6578 86.8925 80.2651 86.6715L77.8302 85.2824C77.6195 85.1512 77.4443 84.9702 77.32 84.7554C77.1958 84.5405 77.1263 84.2983 77.1177 84.0503C77.1257 83.7925 77.2026 83.5416 77.3406 83.3237C77.4786 83.1059 77.6725 82.929 77.9021 82.8116L80.2651 81.4323C80.662 81.2231 81.104 81.1138 81.5528 81.1138C82.0015 81.1138 82.4435 81.2231 82.8405 81.4323L85.2753 82.8214C85.4928 82.9449 85.6737 83.1239 85.7995 83.34C85.9253 83.5562 85.9916 83.8018 85.9916 84.0519C85.9916 84.302 85.9253 84.5476 85.7995 84.7638C85.6737 84.98 85.4928 85.1589 85.2753 85.2824L82.8405 86.6649C82.4458 86.8812 82.0028 86.9936 81.5528 86.9918V86.9983Z" fill="#1A87C7"/>
<path fill-rule="evenodd" clip-rule="evenodd" d="M78.2618 83.55L80.6967 82.1675C80.962 82.0305 81.2562 81.959 81.5547 81.959C81.8532 81.959 82.1474 82.0305 82.4126 82.1675L84.8443 83.5565C85.3476 83.8278 85.3476 84.2853 84.8443 84.5664L82.4126 85.9456C82.1479 86.0842 81.8535 86.1566 81.5547 86.1566C81.2559 86.1566 80.9615 86.0842 80.6967 85.9456L78.2618 84.5599C78.1652 84.5155 78.0833 84.4444 78.0259 84.3549C77.9685 84.2654 77.938 84.1613 77.938 84.0549C77.938 83.9486 77.9685 83.8445 78.0259 83.755C78.0833 83.6655 78.1652 83.5943 78.2618 83.55Z" fill="white"/>
<path fill-rule="evenodd" clip-rule="evenodd" d="M84.19 86.9563L84.5496 87.7014C84.5496 87.7014 84.6214 87.6851 84.6214 87.6786L84.19 86.9563L84.6214 87.6786L84.19 86.9563ZM84.9777 87.4661L86.9812 88.6231C87.1279 88.6879 87.2865 88.7213 87.4469 88.7213C87.6073 88.7213 87.7659 88.6879 87.9127 88.6231L89.9161 87.4661L87.9127 86.3059C87.7653 86.2436 87.6069 86.2115 87.4469 86.2115C87.2869 86.2115 87.1286 86.2436 86.9812 86.3059L84.9777 87.4661ZM87.4093 90.4076C86.9589 90.4132 86.5149 90.3005 86.1216 90.0808L83.7619 88.6983C83.5272 88.5895 83.3285 88.4158 83.1893 88.1978C83.05 87.9798 82.9761 87.7265 82.9761 87.4678C82.9761 87.2091 83.05 86.9558 83.1893 86.7377C83.3285 86.5197 83.5272 86.3461 83.7619 86.2372L86.1216 84.8482C86.5326 84.6408 86.9865 84.5327 87.4469 84.5327C87.9073 84.5327 88.3612 84.6408 88.7722 84.8482L91.132 86.2372C91.3674 86.3462 91.5667 86.5203 91.7064 86.739C91.8461 86.9576 91.9203 87.2116 91.9203 87.471C91.9203 87.7305 91.8461 87.9845 91.7064 88.2031C91.5667 88.4217 91.3674 88.5958 91.132 88.7048L88.7003 90.0873C88.3102 90.3079 87.8671 90.4175 87.4191 90.4044L87.4093 90.4076Z" fill="#1A87C7"/>
<path fill-rule="evenodd" clip-rule="evenodd" d="M84.1909 86.9558L86.5539 85.5766C86.8315 85.4379 87.1375 85.3657 87.4478 85.3657C87.7581 85.3657 88.0641 85.4379 88.3417 85.5766L90.7047 86.9623C91.2048 87.2434 91.2048 87.6944 90.7047 87.9722L88.3417 89.3547C88.0636 89.4917 87.7578 89.5629 87.4478 89.5629C87.1378 89.5629 86.832 89.4917 86.5539 89.3547L84.1909 87.9722C83.7007 87.6846 83.7007 87.2434 84.1909 86.9558Z" fill="white"/>
<path fill-rule="evenodd" clip-rule="evenodd" d="M73.1795 80.6513L75.2549 81.8116C75.3894 81.8746 75.5361 81.9073 75.6846 81.9073C75.8332 81.9073 75.9799 81.8746 76.1144 81.8116L78.1179 80.6513L76.1144 79.4911C75.9799 79.4281 75.8332 79.3954 75.6846 79.3954C75.5361 79.3954 75.3894 79.4281 75.2549 79.4911L73.1795 80.6513ZM75.6862 83.5863C75.2354 83.5951 74.7906 83.4822 74.3986 83.2595L71.9637 81.8737C71.7284 81.7641 71.5294 81.5896 71.3899 81.3708C71.2504 81.1519 71.1763 80.8978 71.1763 80.6383C71.1763 80.3787 71.2504 80.1246 71.3899 79.9058C71.5294 79.6869 71.7284 79.5124 71.9637 79.4028L74.3986 78.0236C74.7955 77.8141 75.2375 77.7046 75.6862 77.7046C76.135 77.7046 76.5771 77.8141 76.974 78.0236L79.3337 79.4126C79.5642 79.5266 79.7594 79.7012 79.8982 79.9177C80.0369 80.1342 80.1141 80.3845 80.1213 80.6415C80.1129 80.8988 80.0353 81.1489 79.8967 81.3658C79.7581 81.5826 79.5636 81.7581 79.3337 81.8737L76.974 83.2529C76.581 83.4681 76.1408 83.5827 75.6928 83.5863H75.6862Z" fill="#1A87C7"/>
<path fill-rule="evenodd" clip-rule="evenodd" d="M76.5429 82.5404L78.9059 81.1579C79.4059 80.8801 79.4059 80.4225 78.9059 80.1512L76.5429 78.7622C76.2776 78.6252 75.9835 78.5537 75.6849 78.5537C75.3864 78.5537 75.0922 78.6252 74.827 78.7622L72.3921 80.1447C71.8921 80.4225 71.8921 80.8801 72.3921 81.1579L74.827 82.5404C75.0922 82.6774 75.3864 82.7489 75.6849 82.7489C75.9835 82.7489 76.2776 82.6774 76.5429 82.5404Z" fill="white"/>
<path fill-rule="evenodd" clip-rule="evenodd" d="M72.3921 86.9561L72.8235 87.7013V87.6784L72.3921 86.9561ZM73.1797 87.4562L75.2551 88.623C75.389 88.6883 75.5359 88.7222 75.6849 88.7222C75.8338 88.7222 75.9808 88.6883 76.1147 88.623L78.1181 87.466L76.1147 86.3057C75.9808 86.2404 75.8338 86.2065 75.6849 86.2065C75.5359 86.2065 75.389 86.2404 75.2551 86.3057L73.1797 87.4562ZM75.6865 90.3977C75.235 90.4128 74.7884 90.2995 74.3988 90.0708L71.9639 88.6883C71.733 88.5722 71.5379 88.3957 71.3992 88.1776C71.2605 87.9596 71.1835 87.708 71.1763 87.4496C71.1843 87.1936 71.2619 86.9446 71.4006 86.7293C71.5394 86.5139 71.7341 86.3404 71.9639 86.2273L74.3988 84.8383C74.7953 84.6274 75.2374 84.5171 75.6865 84.5171C76.1356 84.5171 76.5778 84.6274 76.9742 84.8383L79.3339 86.2273C79.5686 86.3361 79.7673 86.5098 79.9065 86.7278C80.0458 86.9458 80.1197 87.1991 80.1197 87.4578C80.1197 87.7165 80.0458 87.9698 79.9065 88.1878C79.7673 88.4059 79.5686 88.5795 79.3339 88.6883L76.9742 90.0708C76.583 90.2896 76.1413 90.4022 75.693 90.3977H75.6865Z" fill="#1A87C7"/>
<path fill-rule="evenodd" clip-rule="evenodd" d="M72.3921 86.9559L74.827 85.5767C75.0918 85.4381 75.3861 85.3657 75.6849 85.3657C75.9838 85.3657 76.2781 85.4381 76.5429 85.5767L78.9059 86.9559C79.4059 87.2435 79.4059 87.6848 78.9059 87.9724L76.5429 89.345C76.2791 89.4867 75.9843 89.5608 75.6849 89.5608C75.3855 89.5608 75.0908 89.4867 74.827 89.345L72.3921 87.9658C71.8921 87.6848 71.8921 87.2337 72.3921 86.9559Z" fill="white"/>
<path fill-rule="evenodd" clip-rule="evenodd" d="M78.2613 90.3613L78.6895 91.1065V91.0836L78.2613 90.3613ZM79.1209 90.8712L81.1244 92.0314C81.2589 92.0944 81.4057 92.1271 81.5542 92.1271C81.7027 92.1271 81.8494 92.0944 81.984 92.0314L83.9874 90.8712L81.984 89.7109C81.8494 89.6479 81.7027 89.6152 81.5542 89.6152C81.4057 89.6152 81.2589 89.6479 81.1244 89.7109L79.1209 90.8712ZM81.5526 93.8126C81.1018 93.821 80.657 93.7081 80.2648 93.4858L77.8299 92.0968C77.6077 91.9771 77.4232 91.7977 77.2973 91.5789C77.1714 91.3601 77.1091 91.1104 77.1174 90.8581C77.1258 90.6017 77.203 90.3523 77.341 90.136C77.479 89.9198 77.6728 89.7447 77.9018 89.6292L80.2648 88.2467C80.6623 88.0391 81.1041 87.9307 81.5526 87.9307C82.001 87.9307 82.4428 88.0391 82.8403 88.2467L85.2751 89.6358C85.4868 89.7661 85.663 89.9469 85.7879 90.1619C85.9128 90.3769 85.9825 90.6194 85.9909 90.8679C85.9811 91.1169 85.9108 91.3599 85.7861 91.5757C85.6614 91.7915 85.486 91.9737 85.2751 92.1066L82.8403 93.4858C82.445 93.7005 82.0023 93.8128 81.5526 93.8126Z" fill="#1A87C7"/>
<path fill-rule="evenodd" clip-rule="evenodd" d="M78.2618 90.3617L80.6967 88.9825C80.9615 88.8439 81.2559 88.7715 81.5547 88.7715C81.8535 88.7715 82.1479 88.8439 82.4126 88.9825L84.8443 90.3617C85.3476 90.6427 85.3476 91.1003 84.8443 91.3781L82.4126 92.7606C82.1474 92.8976 81.8532 92.9691 81.5547 92.9691C81.2562 92.9691 80.962 92.8976 80.6967 92.7606L78.2618 91.3716C78.1652 91.3272 78.0833 91.2561 78.0259 91.1666C77.9685 91.0771 77.938 90.973 77.938 90.8666C77.938 90.7603 77.9685 90.6562 78.0259 90.5667C78.0833 90.4772 78.1652 90.406 78.2618 90.3617Z" fill="white"/>
<path fill-rule="evenodd" clip-rule="evenodd" d="M61.4435 87.4562L63.447 88.623C63.582 88.6843 63.7285 88.716 63.8768 88.716C64.0251 88.716 64.1716 88.6843 64.3066 88.623L66.3101 87.4562L64.3066 86.2992C64.1727 86.2339 64.0257 86.2 63.8768 86.2C63.7279 86.2 63.5809 86.2339 63.447 86.2992L61.4435 87.4562ZM63.8784 90.3977C63.4285 90.3995 62.9854 90.2871 62.5907 90.0708L60.2277 88.6818C59.993 88.573 59.7943 88.3993 59.6551 88.1813C59.5159 87.9633 59.4419 87.71 59.4419 87.4513C59.4419 87.1926 59.5159 86.9393 59.6551 86.7213C59.7943 86.5032 59.993 86.3296 60.2277 86.2208L62.5907 84.8383C62.9872 84.6274 63.4294 84.5171 63.8784 84.5171C64.3275 84.5171 64.7697 84.6274 65.1662 84.8383L67.5978 86.2208C67.8332 86.3298 68.0326 86.5039 68.1723 86.7225C68.312 86.9411 68.3862 87.1951 68.3862 87.4546C68.3862 87.714 68.312 87.968 68.1723 88.1866C68.0326 88.4053 67.8332 88.5793 67.5978 88.6883L65.1662 90.0708C64.7746 90.2947 64.3294 90.4077 63.8784 90.3977Z" fill="#1A87C7"/>
<path fill-rule="evenodd" clip-rule="evenodd" d="M64.7345 89.3455L67.1694 87.9663C67.2649 87.921 67.3456 87.8495 67.4022 87.7601C67.4587 87.6707 67.4887 87.5671 67.4887 87.4613C67.4887 87.3556 67.4587 87.252 67.4022 87.1626C67.3456 87.0732 67.2649 87.0017 67.1694 86.9564L64.7345 85.5674C64.4688 85.4319 64.1748 85.3613 63.8765 85.3613C63.5783 85.3613 63.2843 85.4319 63.0186 85.5674L60.587 86.9564C60.4904 87.0008 60.4085 87.0719 60.3511 87.1614C60.2937 87.2509 60.2632 87.355 60.2632 87.4613C60.2632 87.5677 60.2937 87.6718 60.3511 87.7613C60.4085 87.8508 60.4904 87.9219 60.587 87.9663L63.0186 89.3455C63.2834 89.4841 63.5777 89.5565 63.8765 89.5565C64.1754 89.5565 64.4697 89.4841 64.7345 89.3455Z" fill="white"/>
<path fill-rule="evenodd" clip-rule="evenodd" d="M67.3133 84.0568L69.3167 85.2171C69.4643 85.2785 69.6226 85.3101 69.7825 85.3101C69.9423 85.3101 70.1006 85.2785 70.2482 85.2171L72.2517 84.0568L70.2482 82.8999C70.1015 82.8351 69.9429 82.8017 69.7825 82.8017C69.6221 82.8017 69.4635 82.8351 69.3167 82.8999L67.3133 84.0568ZM69.8168 86.9918C69.344 86.9928 68.8778 86.8808 68.4572 86.6649L66.0975 85.2825C65.8622 85.1729 65.6631 84.9984 65.5236 84.7795C65.3841 84.5607 65.3101 84.3065 65.3101 84.047C65.3101 83.7875 65.3841 83.5334 65.5236 83.3145C65.6631 83.0957 65.8622 82.9212 66.0975 82.8116L68.4572 81.4324C68.8547 81.2231 69.2973 81.1138 69.7465 81.1138C70.1958 81.1138 70.6383 81.2231 71.0359 81.4324L73.4675 82.8116C73.6968 82.9297 73.8906 83.1066 74.029 83.3243C74.1674 83.542 74.2455 83.7925 74.2551 84.0503C74.2474 84.3077 74.1701 84.5582 74.0314 84.7751C73.8927 84.9921 73.6978 85.1674 73.4675 85.2825L71.0359 86.6649C70.6639 86.8814 70.2406 86.9943 69.8102 86.9918H69.8168Z" fill="#1A87C7"/>
<path fill-rule="evenodd" clip-rule="evenodd" d="M70.6038 85.9453L73.0354 84.5596C73.5387 84.2785 73.5387 83.8275 73.0354 83.5497L70.6757 82.1672C70.3976 82.0302 70.0918 81.959 69.7818 81.959C69.4718 81.959 69.166 82.0302 68.8879 82.1672L66.5249 83.5497C66.0249 83.8275 66.0249 84.2785 66.5249 84.5596L68.8879 85.9453C69.1536 86.0808 69.4476 86.1514 69.7459 86.1514C70.0441 86.1514 70.3381 86.0808 70.6038 85.9453Z" fill="white"/>
<path fill-rule="evenodd" clip-rule="evenodd" d="M66.5412 90.3613L66.8975 91.1065V91.0836L66.5412 90.3613ZM67.3289 90.8613L69.3324 92.0314C69.6312 92.1522 69.9652 92.1522 70.2639 92.0314L72.2674 90.8711L70.2639 89.7043C70.1163 89.6429 69.958 89.6113 69.7981 89.6113C69.6383 89.6113 69.48 89.6429 69.3324 89.7043L67.3289 90.8548V90.8613ZM69.8324 93.8028C69.3585 93.814 68.8899 93.7013 68.4728 93.476L66.1131 92.0935C65.8776 91.9845 65.6783 91.8104 65.5386 91.5918C65.3989 91.3732 65.3247 91.1191 65.3247 90.8597C65.3247 90.6003 65.3989 90.3462 65.5386 90.1276C65.6783 89.909 65.8776 89.7349 66.1131 89.6259L68.4728 88.2434C68.8704 88.0341 69.3129 87.9248 69.7622 87.9248C70.2115 87.9248 70.654 88.0341 71.0516 88.2434L73.4832 89.6259C73.7132 89.7431 73.9076 89.9199 74.0461 90.1377C74.1846 90.3556 74.2622 90.6066 74.2709 90.8646C74.2622 91.1213 74.1845 91.371 74.0459 91.5873C73.9072 91.8035 73.7129 91.9784 73.4832 92.0935L71.0516 93.476C70.6757 93.6978 70.246 93.8121 69.8096 93.8061L69.8324 93.8028Z" fill="#1A87C7"/>
<path fill-rule="evenodd" clip-rule="evenodd" d="M66.5416 90.3617L68.9046 88.9825C69.1693 88.8439 69.4637 88.7715 69.7625 88.7715C70.0613 88.7715 70.3557 88.8439 70.6204 88.9825L73.0521 90.3617C73.5554 90.6428 73.5554 91.1003 73.0521 91.3716L70.6204 92.7606C70.3547 92.8961 70.0607 92.9667 69.7625 92.9667C69.4643 92.9667 69.1703 92.8961 68.9046 92.7606L66.5416 91.3716C66.0252 91.0938 66.0252 90.6526 66.5416 90.3617Z" fill="white"/>
<path fill-rule="evenodd" clip-rule="evenodd" d="M72.3918 93.7707L72.8232 94.5126V94.493L72.3918 93.7707L72.8232 94.493L72.3918 93.7707ZM73.1795 94.2708L75.2549 95.4376C75.3902 95.4974 75.5366 95.5284 75.6846 95.5284C75.8326 95.5284 75.979 95.4974 76.1144 95.4376L78.1179 94.2773L76.1144 93.117C75.9799 93.054 75.8332 93.0214 75.6846 93.0214C75.5361 93.0214 75.3894 93.054 75.2549 93.117L73.1795 94.2708ZM75.6862 97.2122C75.2351 97.2242 74.7894 97.1111 74.3986 96.8854L71.9637 95.5062C71.7284 95.3966 71.5294 95.2221 71.3899 95.0033C71.2504 94.7844 71.1763 94.5303 71.1763 94.2708C71.1763 94.0112 71.2504 93.7571 71.3899 93.5383C71.5294 93.3194 71.7284 93.1449 71.9637 93.0353L74.3986 91.6561C74.795 91.4452 75.2372 91.335 75.6862 91.335C76.1353 91.335 76.5775 91.4452 76.974 91.6561L79.3337 93.0452C79.5639 93.1577 79.7591 93.3311 79.8979 93.5465C80.0367 93.762 80.114 94.0113 80.1213 94.2675C80.1141 94.5258 80.037 94.7774 79.8984 94.9955C79.7597 95.2136 79.5645 95.39 79.3337 95.5062L76.974 96.8854C76.5815 97.1011 76.1406 97.2136 75.6928 97.2122H75.6862Z" fill="#1A87C7"/>
<path fill-rule="evenodd" clip-rule="evenodd" d="M72.3921 93.7702L74.827 92.3877C75.0922 92.2507 75.3864 92.1792 75.6849 92.1792C75.9835 92.1792 76.2776 92.2507 76.5429 92.3877L78.9059 93.7702C79.4059 94.048 79.4059 94.499 78.9059 94.7768L76.5429 96.1593C76.2791 96.3009 75.9843 96.375 75.6849 96.375C75.3855 96.375 75.0908 96.3009 74.827 96.1593L72.3921 94.7768C71.8921 94.499 71.8921 94.048 72.3921 93.7702Z" fill="white"/>
<path fill-rule="evenodd" clip-rule="evenodd" d="M100.532 67.062C100.324 67.0529 100.123 66.9773 99.9604 66.8463C97.5737 64.7071 94.6985 63.1864 91.5869 62.4177C91.4811 62.3887 91.382 62.339 91.2956 62.2713C91.2092 62.2036 91.1371 62.1194 91.0835 62.0236C91.03 61.9277 90.9961 61.8222 90.9838 61.7131C90.9714 61.604 90.9809 61.4936 91.0117 61.3882C91.0361 61.2817 91.0817 61.1812 91.1459 61.0928C91.2101 61.0043 91.2915 60.9298 91.3852 60.8736C91.4789 60.8174 91.583 60.7808 91.6913 60.7659C91.7995 60.751 91.9097 60.7581 92.0151 60.7868C95.3808 61.6451 98.4956 63.2881 101.104 65.5815C101.268 65.731 101.367 65.9386 101.381 66.1601C101.394 66.3816 101.321 66.5996 101.176 66.7679C101.006 66.9427 100.776 67.0476 100.532 67.062Z" fill="#1A87C7"/>
<path fill-rule="evenodd" clip-rule="evenodd" d="M68.9532 7.28429C68.8024 7.29956 68.6565 7.34634 68.525 7.42158L12.0616 40.0165C11.6465 40.2879 11.3008 40.6528 11.0522 41.0818C10.8036 41.5109 10.659 41.9923 10.63 42.4874V80.8673C10.6292 81.0248 10.6535 81.1815 10.7019 81.3314C10.7738 81.3542 10.9177 81.3543 11.202 81.2039L67.6654 48.5991C68.0796 48.3307 68.425 47.9688 68.6736 47.5424C68.9223 47.1161 69.0673 46.6373 69.097 46.1446L69.1689 7.7582C69.1686 7.59157 69.1185 7.42883 69.0251 7.29084H68.9532V7.28429ZM10.7771 83.0211C10.474 83.0265 10.1757 82.9448 9.91754 82.7858C9.59018 82.589 9.32334 82.3059 9.14634 81.9675C8.96934 81.629 8.88903 81.2484 8.91418 80.8673V42.4874C8.95101 41.6976 9.17829 40.9285 9.57666 40.2456C9.97503 39.5626 10.5327 38.9862 11.202 38.5654L67.7439 5.96063C68.0591 5.75284 68.4233 5.63142 68.8001 5.60848C69.1769 5.58554 69.5531 5.66188 69.8912 5.82989C70.1974 6.04576 70.4436 6.33609 70.6066 6.67346C70.7695 7.01083 70.8439 7.38414 70.8227 7.7582V46.1446C70.7858 46.9344 70.5585 47.7035 70.1602 48.3865C69.7618 49.0694 69.2042 49.6458 68.5348 50.0666L11.9929 82.6648C11.6243 82.8845 11.206 83.0071 10.7771 83.0211Z" fill="#1A87C7"/>
<path fill-rule="evenodd" clip-rule="evenodd" d="M11.6336 39.2936L68.0971 6.68879C69.1691 6.10376 69.9567 6.58094 69.9567 7.75754V46.144C69.9314 46.7864 69.7486 47.4127 69.4243 47.9678C69.1 48.5229 68.6442 48.9898 68.0971 49.3273L11.5552 81.9321C10.5518 82.5106 9.76416 82.0399 9.76416 80.8666V42.4867C9.80508 41.8455 9.99546 41.2228 10.3201 40.6684C10.6447 40.1139 11.0945 39.6431 11.6336 39.2936Z" fill="white"/>
<path fill-rule="evenodd" clip-rule="evenodd" d="M98.5158 65.4304C98.3158 65.439 98.1193 65.3759 97.9617 65.2525C97.8041 65.1291 97.6958 64.9534 97.6562 64.7571C97.5843 64.2832 97.0026 63.7407 96.2966 63.3812C95.5089 62.9661 94.7932 62.9399 94.5055 63.0739C94.4051 63.1209 94.2964 63.1477 94.1856 63.1527C94.0748 63.1577 93.9641 63.1408 93.8599 63.103C93.7556 63.0652 93.6599 63.0073 93.578 62.9325C93.4962 62.8577 93.4298 62.7675 93.3828 62.667C93.3358 62.5666 93.3091 62.4579 93.3041 62.3471C93.2991 62.2364 93.316 62.1257 93.3538 62.0214C93.3916 61.9172 93.4495 61.8214 93.5243 61.7396C93.5991 61.6577 93.6893 61.5914 93.7897 61.5444C94.7212 61.1489 95.937 61.2796 97.0842 61.8712C98.3001 62.4726 99.0878 63.4237 99.3002 64.4042C99.3314 64.5119 99.3386 64.6252 99.3215 64.7361C99.3043 64.847 99.2632 64.9528 99.201 65.0462C99.1387 65.1395 99.0569 65.2181 98.9611 65.2766C98.8654 65.3351 98.758 65.372 98.6465 65.3847C98.6051 65.4054 98.5611 65.4207 98.5158 65.4304Z" fill="#1A87C7"/>
<path fill-rule="evenodd" clip-rule="evenodd" d="M19.5072 44.7749V72.0784L60.2272 48.5465V21.2462L19.5072 44.7781V44.7749ZM18.6476 74.376C18.4975 74.3748 18.3502 74.3354 18.2195 74.2616C18.0873 74.1939 17.9769 74.0901 17.9012 73.9623C17.8254 73.8345 17.7873 73.6879 17.7913 73.5394V44.2879C17.7872 44.1385 17.8252 43.9909 17.9009 43.8621C17.9766 43.7332 18.087 43.6282 18.2195 43.559L60.6586 19.0761C60.7897 19.0019 60.9377 18.9629 61.0884 18.9629C61.239 18.9629 61.3871 19.0019 61.5182 19.0761C61.6318 19.1609 61.7236 19.2715 61.7861 19.3988C61.8486 19.5261 61.88 19.6664 61.8777 19.8082V49.0531C61.8787 49.1937 61.8467 49.3326 61.7843 49.4586C61.7218 49.5847 61.6307 49.6943 61.5182 49.7787L19.0823 74.2911C18.9469 74.3556 18.7974 74.3848 18.6476 74.376Z" fill="#1A87C7"/>
<path fill-rule="evenodd" clip-rule="evenodd" d="M18.6475 44.2877L61.0866 19.7949V49.0398L18.6475 73.5392V44.2877Z" fill="white"/>
<path fill-rule="evenodd" clip-rule="evenodd" d="M19.5068 40.5553V42.8432L60.2269 19.3112V17.0234L19.5068 40.5553ZM18.6472 45.131C18.4976 45.126 18.3512 45.0869 18.2191 45.0166C18.0868 44.9463 17.9767 44.8406 17.9011 44.7113C17.8255 44.582 17.7873 44.4342 17.7909 44.2845V40.0749C17.7862 39.925 17.8239 39.7767 17.8996 39.6472C17.9753 39.5177 18.0861 39.4122 18.2191 39.3428L60.6583 14.85C60.7894 14.7758 60.9374 14.7368 61.088 14.7368C61.2387 14.7368 61.3867 14.7758 61.5178 14.85C61.6314 14.9342 61.7232 15.0442 61.7857 15.1709C61.8483 15.2977 61.8797 15.4375 61.8773 15.5788V19.795C61.8791 19.9362 61.8475 20.0758 61.785 20.2025C61.7225 20.3292 61.631 20.4393 61.5178 20.5238L19.0819 45.0362C18.9465 45.1018 18.7977 45.1354 18.6472 45.1343V45.131Z" fill="#1A87C7"/>
<path fill-rule="evenodd" clip-rule="evenodd" d="M18.6475 44.288L61.0866 19.7952V15.5791L18.6475 40.0752V44.288Z" fill="#BDEDF8"/>
<path fill-rule="evenodd" clip-rule="evenodd" d="M29.3835 45.5691C29.7397 45.3829 30.0372 45.543 30.0372 45.896C30.0214 46.1064 29.9533 46.3096 29.8392 46.4871C29.725 46.6646 29.5684 46.8107 29.3835 46.9124C29.0959 47.0987 28.8115 46.9484 28.8115 46.5692C28.8302 46.3714 28.8908 46.1799 28.9895 46.0074C29.0881 45.835 29.2225 45.6855 29.3835 45.5691Z" fill="#BDEDF8"/>
<path fill-rule="evenodd" clip-rule="evenodd" d="M29.3123 46.1802C29.3123 46.2063 29.3842 46.2357 29.3842 46.2586C29.4298 46.2827 29.478 46.3014 29.528 46.3142C29.4561 46.2848 29.4561 46.2586 29.3842 46.2357C29.3842 46.2063 29.3123 46.1932 29.3123 46.1802ZM29.1685 47.8405C28.9669 47.8504 28.7672 47.7979 28.5965 47.6901C28.391 47.589 28.2196 47.4298 28.1034 47.2323C27.9873 47.0349 27.9314 46.8077 27.9429 46.5789C27.9562 46.2306 28.0543 45.8909 28.2285 45.589C28.4028 45.2872 28.648 45.0324 28.9429 44.8467C29.1378 44.7245 29.3618 44.6567 29.5917 44.6504C29.8216 44.6441 30.049 44.6994 30.2503 44.8107C30.4329 44.929 30.5817 45.0927 30.6819 45.2858C30.7822 45.4789 30.8305 45.6947 30.8222 45.9122C30.81 46.2633 30.7123 46.6061 30.5374 46.9109C30.3625 47.2156 30.1159 47.473 29.8189 47.6607C29.6226 47.7787 29.3974 47.8398 29.1685 47.8372V47.8405Z" fill="#1A87C7"/>
<path fill-rule="evenodd" clip-rule="evenodd" d="M29.3835 52.0274C29.7397 51.8412 30.0372 51.9915 30.0372 52.3543C30.0195 52.5629 29.9506 52.7639 29.8366 52.9396C29.7225 53.1152 29.5669 53.2599 29.3835 53.3609C29.0959 53.5472 28.8115 53.3903 28.8115 53.0341C28.8288 52.835 28.8889 52.6421 28.9876 52.4683C29.0863 52.2946 29.2214 52.1442 29.3835 52.0274Z" fill="#BDEDF8"/>
<path fill-rule="evenodd" clip-rule="evenodd" d="M29.3118 52.6354C29.3118 52.6616 29.3838 52.691 29.3838 52.7139C29.4557 52.7335 29.4557 52.7564 29.5276 52.7694C29.4557 52.7433 29.4557 52.7139 29.3838 52.6845C29.3838 52.6616 29.3118 52.6485 29.3118 52.6354ZM29.1681 54.3023C28.9663 54.3061 28.7677 54.2516 28.5961 54.1454C28.3921 54.0449 28.2218 53.8873 28.1057 53.6918C27.9897 53.4962 27.9329 53.2712 27.9424 53.044C27.9557 52.6934 28.0535 52.3513 28.2277 52.0468C28.4018 51.7423 28.6471 51.4845 28.9425 51.2954C29.1374 51.1732 29.3614 51.1054 29.5913 51.0991C29.8212 51.0928 30.0486 51.1481 30.2498 51.2594C30.4339 51.3786 30.5836 51.5438 30.684 51.7388C30.7844 51.9338 30.8319 52.1516 30.8218 52.3707C30.8089 52.7195 30.7108 53.0598 30.5358 53.3618C30.3609 53.6638 30.1146 53.9182 29.8184 54.1029C29.6255 54.2309 29.3996 54.3002 29.1681 54.3023Z" fill="#1A87C7"/>
<path fill-rule="evenodd" clip-rule="evenodd" d="M29.3835 58.8812C29.7397 58.695 30.0372 58.8518 30.0372 59.2081C30.0205 59.4183 29.9521 59.6211 29.838 59.7985C29.724 59.9758 29.5678 60.1222 29.3835 60.2246C29.0959 60.4108 28.8115 60.2605 28.8115 59.8977C28.8275 59.697 28.8869 59.502 28.9856 59.3265C29.0844 59.151 29.2202 58.9991 29.3835 58.8812Z" fill="#BDEDF8"/>
<path fill-rule="evenodd" clip-rule="evenodd" d="M29.3123 59.4951C29.3123 59.518 29.3842 59.5474 29.3842 59.5735C29.4311 59.5939 29.4791 59.6113 29.528 59.6259C29.4561 59.5964 29.4561 59.567 29.3842 59.5474C29.3842 59.518 29.3123 59.5049 29.3123 59.4951ZM29.1685 61.1554C28.9662 61.1634 28.7665 61.1086 28.5966 60.9986C28.391 60.8983 28.2195 60.7398 28.1033 60.5428C27.987 60.3458 27.9313 60.119 27.9429 59.8906C27.9546 59.5419 28.0519 59.2015 28.2263 58.8994C28.4008 58.5973 28.6469 58.3428 28.943 58.1584C29.137 58.0345 29.3608 57.9652 29.5908 57.9577C29.8209 57.9502 30.0487 58.0049 30.2503 58.1159C30.4332 58.2339 30.5821 58.3976 30.6824 58.5907C30.7827 58.7839 30.8309 58.9998 30.8222 59.2173C30.8101 59.568 30.7123 59.9104 30.5374 60.2146C30.3625 60.5188 30.1158 60.7756 29.8189 60.9626C29.6248 61.0873 29.3992 61.1542 29.1685 61.1554Z" fill="#1A87C7"/>
<path fill-rule="evenodd" clip-rule="evenodd" d="M33.3911 51.2302C33.2451 51.2296 33.1019 51.1903 32.9762 51.1162C32.8504 51.0421 32.7466 50.936 32.6753 50.8086C32.5748 50.6147 32.5485 50.3908 32.6014 50.1789C32.6544 49.967 32.783 49.7818 32.963 49.6581L49.5628 40.0754C49.7556 39.976 49.9791 39.9541 50.1875 40.0142C50.3959 40.0743 50.5735 40.2118 50.6838 40.3986C50.7941 40.5854 50.8288 40.8072 50.7808 41.0188C50.7328 41.2303 50.6057 41.4155 50.4256 41.5363L33.8193 51.106C33.688 51.1797 33.5414 51.2222 33.3911 51.2302Z" fill="#1A87C7"/>
<path fill-rule="evenodd" clip-rule="evenodd" d="M33.3911 44.7746C33.2451 44.7741 33.102 44.7347 32.9762 44.6607C32.8504 44.5866 32.7466 44.4804 32.6754 44.353C32.5755 44.159 32.5496 43.9353 32.6025 43.7236C32.6554 43.5119 32.7836 43.3267 32.963 43.2026L49.5627 33.6198C49.7555 33.5205 49.979 33.4986 50.1874 33.5586C50.3959 33.6187 50.5734 33.7563 50.6837 33.943C50.794 34.1298 50.8287 34.3517 50.7807 34.5632C50.7327 34.7747 50.6056 34.9599 50.4255 35.0808L33.8193 44.6602C33.6895 44.7363 33.5415 44.7758 33.3911 44.7746Z" fill="#1A87C7"/>
<path fill-rule="evenodd" clip-rule="evenodd" d="M33.3908 58.0802C33.2446 58.081 33.1008 58.0422 32.9748 57.968C32.8488 57.8938 32.7452 57.7868 32.6751 57.6585C32.5754 57.465 32.5496 57.2419 32.6026 57.0307C32.6555 56.8196 32.7835 56.635 32.9627 56.5114L46.4151 48.7687C46.6074 48.6577 46.8357 48.627 47.0505 48.6833C47.2652 48.7396 47.4492 48.8784 47.5623 49.0694C47.6624 49.2639 47.6884 49.4881 47.6355 49.7004C47.5826 49.9126 47.4543 50.0984 47.2747 50.2231L33.819 57.969C33.6882 58.0424 33.5407 58.0807 33.3908 58.0802Z" fill="#1A87C7"/>
</svg>
