<svg width="121" height="120" viewBox="0 0 121 120" fill="none" xmlns="http://www.w3.org/2000/svg">
<path fill-rule="evenodd" clip-rule="evenodd" d="M4.39147 74.7427V77.8962C4.43527 78.207 4.75457 78.6492 4.98487 78.8767C5.20142 79.0828 5.44192 79.2621 5.7012 79.4108L58.8432 110.095C60.704 111.145 63.5622 111.141 65.4229 110.095L114.576 81.6827C115.119 81.3605 115.64 80.9141 115.848 80.2952L115.885 80.1681V77.0202C115.68 77.7266 115.198 78.166 114.578 78.5348L65.4243 106.945C63.5608 107.994 60.7082 107.996 58.8446 106.945L5.7012 76.2573C5.07954 75.8899 4.59775 75.4505 4.39147 74.7427Z" fill="#66CEEF"/>
<path fill-rule="evenodd" clip-rule="evenodd" d="M115.505 75.3331L90.1541 60.5234L31.55 57.5366L5.01923 72.9693L4.62504 73.5415L4.47243 74.9403L5.37526 76.1186L60.1378 107.531H63.8692L115.542 77.7123L115.884 76.3531L115.505 75.3331Z" fill="white"/>
<path fill-rule="evenodd" clip-rule="evenodd" d="M3.96326 74.7428V77.8963C3.96313 77.9302 3.96741 77.9639 3.97599 77.9966C4.02235 78.2047 4.10458 78.4031 4.219 78.583C4.35107 78.7997 4.508 79.0003 4.68665 79.1806C4.8078 79.2998 4.93768 79.4099 5.07519 79.5098C5.20705 79.6063 5.34381 79.6959 5.48492 79.7783C23.287 89.7997 40.8376 100.416 58.634 110.467C59.623 111.032 60.8819 111.315 62.1309 111.306C63.3798 111.298 64.6373 111.024 65.6305 110.459C81.8262 100.772 98.6732 91.8088 114.798 82.0445C115.108 81.8647 115.393 81.6452 115.646 81.3917C115.92 81.1196 116.128 80.7879 116.253 80.4225L116.296 80.2812C116.307 80.2426 116.312 80.2027 116.313 80.1625V77.0203C116.324 76.9079 116.29 76.7956 116.219 76.708C116.148 76.6204 116.044 76.5648 115.932 76.5534C115.82 76.542 115.707 76.5757 115.62 76.6471C115.532 76.7185 115.476 76.8217 115.465 76.9342C115.386 77.1883 115.252 77.4215 115.071 77.6166C114.863 77.8337 114.625 78.0193 114.364 78.1676L65.2194 106.566C64.3519 107.055 63.2414 107.301 62.1379 107.301C61.0345 107.301 59.9254 107.056 59.0579 106.569L5.91868 75.89C5.65757 75.7418 5.41957 75.5562 5.21225 75.339C5.02295 75.136 4.88445 74.891 4.80815 74.6241C4.78453 74.5205 4.72282 74.4295 4.63524 74.3692C4.54765 74.3089 4.44062 74.2837 4.33535 74.2986C4.23008 74.3136 4.13427 74.3675 4.06692 74.4498C3.99957 74.5321 3.9656 74.6367 3.97175 74.7428H3.96326ZM4.81947 77.8681V76.1528C5.02661 76.3303 5.24933 76.4887 5.48492 76.6262C22.2358 85.1231 42.2434 97.5196 58.634 107.315C59.623 107.88 60.8833 108.154 62.1323 108.154C63.3812 108.154 64.6373 107.872 65.6305 107.314C79.9287 97.8276 99.5067 87.5123 114.798 78.898C115.033 78.7644 115.255 78.6088 115.461 78.4332V80.1145L115.442 80.1767C115.355 80.4129 115.217 80.6271 115.038 80.804C114.836 81.0024 114.61 81.1743 114.364 81.3154L65.2194 109.721C64.3519 110.21 63.2414 110.454 62.1365 110.454C61.0317 110.454 59.924 110.211 59.0579 109.722L5.92432 79.0436C5.80564 78.9729 5.6926 78.9023 5.58523 78.8217C5.48091 78.7456 5.38223 78.662 5.28995 78.5717C5.16161 78.4441 5.04874 78.3018 4.95368 78.1478C4.89528 78.0617 4.85004 77.9675 4.81947 77.8681Z" fill="#1A87C7"/>
<path fill-rule="evenodd" clip-rule="evenodd" d="M114.785 74.36L61.6462 43.6768C60.6742 43.1117 59.4068 42.8291 58.1437 42.8376C56.8806 42.8461 55.6105 43.1202 54.6398 43.6853L5.48631 72.0937L5.46229 72.1079C4.95167 72.3877 4.52233 72.7952 4.21615 73.2904C4.02205 73.6145 3.91953 73.9851 3.91953 74.3628C3.91953 74.7405 4.02205 75.1111 4.21615 75.4352C4.52789 75.9393 4.96632 76.3529 5.48772 76.6347L58.6283 107.312L58.6552 107.326C59.623 107.877 60.8805 108.151 62.1337 108.151C63.3869 108.151 64.6669 107.869 65.6362 107.304L114.79 78.8995C115.311 78.6194 115.75 78.2066 116.061 77.7028C116.256 77.3796 116.359 77.0093 116.359 76.6319C116.359 76.2544 116.256 75.8841 116.061 75.5609C115.75 75.0568 115.311 74.6432 114.79 74.3614L114.785 74.36ZM61.2181 44.4073L114.359 75.0989C114.75 75.3069 115.082 75.6126 115.321 75.9862C115.441 76.1799 115.504 76.4033 115.504 76.6312C115.504 76.859 115.441 77.0824 115.321 77.2761C115.083 77.6493 114.752 77.9545 114.362 78.162L65.2081 106.57C64.3688 107.056 63.2541 107.299 62.1337 107.299C61.0133 107.299 59.9141 107.062 59.0776 106.593L59.0564 106.58L5.91441 75.8901C5.52247 75.6836 5.19128 75.3782 4.95366 75.0042C4.83665 74.8084 4.77332 74.5852 4.77 74.3572C4.77301 74.1299 4.83639 73.9076 4.95366 73.7129C5.18611 73.3469 5.50865 73.0467 5.89039 72.8412L5.913 72.8299L55.0679 44.4158C55.9072 43.9311 57.0219 43.6881 58.1437 43.6867C59.2656 43.6853 60.3775 43.9283 61.2181 44.4129V44.4073Z" fill="#1A87C7"/>
<path fill-rule="evenodd" clip-rule="evenodd" d="M31.2305 72.8198V75.2047C30.0747 80.7685 16.2301 80.8844 15.0518 75.2047V72.8184C16.2188 78.4458 29.8656 78.3285 31.1839 73.043L31.2305 72.8198Z" fill="#66CEEF"/>
<path fill-rule="evenodd" clip-rule="evenodd" d="M31.6579 74.563V72.8195C31.6695 72.7071 31.636 72.5947 31.5647 72.507C31.4934 72.4193 31.3903 72.3635 31.2778 72.3519C31.1654 72.3403 31.053 72.3738 30.9653 72.445C30.8776 72.5163 30.8218 72.6195 30.8102 72.7319L30.7664 72.9439C30.4556 74.1787 29.3535 75.1112 27.8926 75.7258C26.4628 76.3234 24.6911 76.6159 22.9321 76.5947C21.173 76.5735 19.4338 76.2401 18.0591 75.5845C16.7225 74.9473 15.7448 74.0077 15.4736 72.7588C15.4663 72.6464 15.4146 72.5415 15.3299 72.4671C15.288 72.4303 15.2393 72.4021 15.1864 72.3842C15.1336 72.3662 15.0778 72.3588 15.0221 72.3625C14.9665 72.3661 14.9121 72.3806 14.862 72.4053C14.812 72.4299 14.7673 72.4642 14.7305 72.5061C14.6937 72.548 14.6655 72.5968 14.6476 72.6496C14.6296 72.7024 14.6222 72.7582 14.6258 72.8139V75.2002C14.6259 75.2287 14.6287 75.2571 14.6343 75.285C14.979 76.9423 16.2718 78.1404 18.0096 78.8906C19.4903 79.5292 21.3044 79.8457 23.1186 79.8429C24.9327 79.84 26.7482 79.5179 28.2331 78.8807C29.9822 78.1319 31.2891 76.9451 31.6409 75.3217C31.6529 75.2823 31.6591 75.2414 31.6593 75.2002V74.5588L31.6579 74.563ZM30.8017 74.7043V75.1606C30.5078 76.4732 29.3888 77.4565 27.8969 78.098C26.5151 78.69 24.8168 78.9895 23.1171 78.9923C21.4175 78.9952 19.7263 78.7013 18.3459 78.1065C16.8695 77.4693 15.7745 76.4873 15.4792 75.162V74.6788C16.0805 75.3973 16.8363 75.9707 17.6903 76.3559C19.1753 77.0623 21.0431 77.424 22.9179 77.4467C24.7928 77.4693 26.6832 77.1556 28.2176 76.5142C29.2843 76.0691 30.1829 75.4658 30.8017 74.7071V74.7043Z" fill="#1A87C7"/>
<path fill-rule="evenodd" clip-rule="evenodd" d="M17.6303 69.4089C19.1463 68.5399 21.1398 68.1048 23.1404 68.1048C25.141 68.1048 27.153 68.5442 28.6718 69.4202L28.6944 69.4329C29.5421 69.9246 30.1341 70.4939 30.4803 71.0958C30.7144 71.4786 30.8383 71.9187 30.8383 72.3674C30.8383 72.8161 30.7144 73.2562 30.4803 73.639C30.1299 74.2451 29.5294 74.8201 28.6746 75.3132C27.1558 76.1892 25.1523 76.6286 23.1418 76.6286C21.1313 76.6286 19.1293 76.1906 17.6091 75.3132C16.7543 74.8201 16.1524 74.2451 15.8034 73.639C15.5692 73.2562 15.4452 72.8162 15.4452 72.3674C15.4452 71.9186 15.5692 71.4786 15.8034 71.0958C16.1538 70.4897 16.7557 69.9147 17.6105 69.4202L17.6317 69.4089H17.6303ZM23.1404 67.25C21.0042 67.25 18.858 67.7233 17.2064 68.6629L17.181 68.677C16.192 69.2421 15.4855 69.9302 15.0617 70.6635C14.752 71.1766 14.5883 71.7645 14.5883 72.3639C14.5883 72.9632 14.752 73.5511 15.0617 74.0642C15.4855 74.7961 16.192 75.4771 17.181 76.0423C18.8354 76.9973 20.9957 77.4749 23.1418 77.4749C25.288 77.4749 27.4483 76.9973 29.1027 76.0423C30.0917 75.4771 30.7982 74.789 31.222 74.0642C31.5326 73.5512 31.6968 72.9629 31.6968 72.3632C31.6968 71.7634 31.5326 71.1751 31.222 70.6621C30.7982 69.9359 30.1044 69.2577 29.1267 68.6841L29.1041 68.6699C27.4398 67.7276 25.2894 67.25 23.1404 67.25Z" fill="#1A87C7"/>
<path fill-rule="evenodd" clip-rule="evenodd" d="M17.3953 69.0514C20.5686 67.2146 25.7128 67.2146 28.8847 69.0514C32.0566 70.8881 32.0594 73.8551 28.8847 75.6918C25.71 77.5285 20.5657 77.5285 17.391 75.6918C14.2163 73.8551 14.222 70.8839 17.3953 69.0514Z" fill="white"/>
<path fill-rule="evenodd" clip-rule="evenodd" d="M17.0322 43.8958V71.684C17.032 71.7241 17.0378 71.7641 17.0491 71.8027L17.0788 71.9439C17.4405 73.3949 18.8759 74.3359 20.6505 74.7781C22.3099 75.174 24.0392 75.174 25.6987 74.7781C27.4732 74.3345 28.9101 73.3935 29.2704 71.9439L29.3071 71.7687C29.3127 71.7408 29.3156 71.7124 29.3156 71.684V43.8958C29.3225 43.7834 29.2845 43.6728 29.2099 43.5884C29.1353 43.504 29.0303 43.4527 28.9179 43.4458C28.8055 43.4388 28.6949 43.4768 28.6105 43.5514C28.5261 43.626 28.4748 43.7311 28.4679 43.8435C28.4537 43.9223 28.4348 44.0001 28.4114 44.0766C28.3581 44.2337 28.2839 44.3829 28.1909 44.5203C28.0859 44.6792 27.9641 44.8265 27.8279 44.9597C27.5071 45.2622 27.1416 45.5133 26.7442 45.7042C26.2658 45.9378 25.7624 46.116 25.2437 46.2355C24.2506 46.4607 23.2275 46.5223 22.2145 46.4177C21.2804 46.3363 20.3699 46.0804 19.5301 45.6633C19.2515 45.5189 18.9883 45.3466 18.7445 45.149C18.5407 44.9859 18.3601 44.7957 18.2077 44.5838L18.1921 44.5641C18.1283 44.4702 18.0721 44.3715 18.024 44.2688C17.9777 44.1696 17.9403 44.0666 17.9124 43.9608L17.8813 43.8195C17.8756 43.7638 17.8591 43.7098 17.8325 43.6606C17.806 43.6113 17.77 43.5677 17.7267 43.5324C17.6833 43.497 17.6334 43.4706 17.5798 43.4545C17.5262 43.4384 17.47 43.433 17.4143 43.4387C17.3587 43.4444 17.3047 43.4609 17.2554 43.4875C17.2062 43.514 17.1626 43.55 17.1273 43.5933C17.0919 43.6367 17.0654 43.6866 17.0494 43.7402C17.0333 43.7938 17.0279 43.85 17.0336 43.9057L17.0322 43.8958ZM17.8869 71.6515V45.5234C17.9858 45.6223 18.0904 45.717 18.1992 45.806C18.4878 46.0415 18.8003 46.2461 19.1317 46.4163C20.0674 46.8835 21.0824 47.171 22.1241 47.264C23.2301 47.3774 24.3472 47.3101 25.4316 47.0648C26.0178 46.9306 26.5867 46.7296 27.1271 46.4658C27.6046 46.2347 28.0431 45.9306 28.4269 45.5644L28.4679 45.5248V71.6515L28.4495 71.7447C28.1754 72.8439 26.9858 73.5814 25.5023 73.953C23.9767 74.3175 22.3866 74.3175 20.861 73.953C19.3789 73.5829 18.1921 72.8453 17.9152 71.7475L17.8869 71.6515Z" fill="#1A87C7"/>
<path fill-rule="evenodd" clip-rule="evenodd" d="M17.461 43.8955V71.6837L17.4935 71.8419C18.4274 75.586 27.9247 75.5818 28.8572 71.8419L28.8896 71.6837V43.8955C28.8708 44.0021 28.8448 44.1074 28.8119 44.2106C28.6665 44.61 28.4305 44.9703 28.1225 45.2632C27.3962 45.9696 26.3126 46.4217 25.3363 46.6506C23.4445 47.0928 21.068 46.9459 19.3302 46.0388C18.7505 45.7544 18.245 45.3389 17.8538 44.8252C17.6894 44.5911 17.5674 44.33 17.4935 44.0537L17.461 43.8955Z" fill="white"/>
<path fill-rule="evenodd" clip-rule="evenodd" d="M19.81 70.9858C19.81 71.0982 19.8547 71.2061 19.9341 71.2856C20.0136 71.365 20.1214 71.4097 20.2339 71.4097C20.3463 71.4097 20.4541 71.365 20.5336 71.2856C20.6131 71.2061 20.6577 71.0982 20.6577 70.9858V49.5244C20.6577 49.412 20.6131 49.3042 20.5336 49.2247C20.4541 49.1452 20.3463 49.1006 20.2339 49.1006C20.1214 49.1006 20.0136 49.1452 19.9341 49.2247C19.8547 49.3042 19.81 49.412 19.81 49.5244V70.9858Z" fill="#1A87C7"/>
<path fill-rule="evenodd" clip-rule="evenodd" d="M23.5684 50.9302C23.5684 50.8178 23.5237 50.71 23.4442 50.6305C23.3647 50.551 23.2569 50.5063 23.1445 50.5063C23.0321 50.5063 22.9243 50.551 22.8448 50.6305C22.7653 50.71 22.7206 50.8178 22.7206 50.9302V71.801C22.7206 71.9134 22.7653 72.0212 22.8448 72.1007C22.9243 72.1802 23.0321 72.2249 23.1445 72.2249C23.2569 72.2249 23.3647 72.1802 23.4442 72.1007C23.5237 72.0212 23.5684 71.9134 23.5684 71.801V50.9302Z" fill="#1A87C7"/>
<path fill-rule="evenodd" clip-rule="evenodd" d="M26.459 52.8687C26.459 52.7563 26.4143 52.6485 26.3348 52.569C26.2553 52.4895 26.1475 52.4448 26.0351 52.4448C25.9227 52.4448 25.8149 52.4895 25.7354 52.569C25.6559 52.6485 25.6113 52.7563 25.6113 52.8687V71.1653C25.6113 71.2777 25.6559 71.3855 25.7354 71.465C25.8149 71.5445 25.9227 71.5891 26.0351 71.5891C26.1475 71.5891 26.2553 71.5445 26.3348 71.465C26.4143 71.3855 26.459 71.2777 26.459 71.1653V52.8687Z" fill="#1A87C7"/>
<path fill-rule="evenodd" clip-rule="evenodd" d="M68.6729 95.2207V97.6056C67.5171 103.169 53.6725 103.285 52.4942 97.6056V95.2207C53.6612 100.848 67.308 100.731 68.6262 95.4439L68.6729 95.2207Z" fill="#66CEEF"/>
<path fill-rule="evenodd" clip-rule="evenodd" d="M69.0994 96.9641V95.2206C69.1108 95.1082 69.0771 94.9958 69.0057 94.9083C68.9343 94.8207 68.831 94.7651 68.7186 94.7537C68.6062 94.7422 68.4938 94.7759 68.4063 94.8473C68.3187 94.9187 68.2631 95.022 68.2517 95.1344L68.2079 95.3463C67.8984 96.5812 66.795 97.5137 65.3355 98.1269C63.9043 98.7259 62.134 99.0184 60.3735 98.9972C58.6131 98.976 56.8767 98.6411 55.502 97.9856C54.164 97.3484 53.1863 96.4088 52.915 95.1598C52.9077 95.0474 52.8561 94.9425 52.7714 94.8682C52.7295 94.8314 52.6807 94.8032 52.6279 94.7853C52.5751 94.7673 52.5193 94.7599 52.4636 94.7635C52.408 94.7672 52.3536 94.7817 52.3035 94.8063C52.2535 94.831 52.2088 94.8652 52.172 94.9072C52.1352 94.9491 52.107 94.9978 52.089 95.0507C52.0711 95.1035 52.0637 95.1593 52.0673 95.215V97.5999C52.0672 97.6289 52.0705 97.6578 52.0772 97.686C52.4205 99.3419 53.7133 100.54 55.4511 101.29C56.9318 101.93 58.7473 102.245 60.56 102.243C62.3727 102.24 64.1897 101.918 65.6746 101.282C67.4251 100.532 68.7306 99.3448 69.0824 97.7228C69.0938 97.6828 69.0995 97.6414 69.0994 97.5999V96.9584V96.9641ZM68.2446 97.1054V97.5603C67.9521 98.8729 66.8388 99.8562 65.3412 100.498C63.958 101.09 62.2597 101.389 60.56 101.392C58.8604 101.395 57.1692 101.101 55.7888 100.508C54.3124 99.8689 53.2174 98.8884 52.9221 97.5631V97.0828C53.5231 97.8006 54.2785 98.3734 55.1318 98.7584C56.6153 99.4648 58.4831 99.8265 60.3594 99.8491C62.2357 99.8717 64.1233 99.5581 65.6576 98.9152C66.7272 98.4716 67.6258 97.8683 68.2446 97.1096V97.1054Z" fill="#1A87C7"/>
<path fill-rule="evenodd" clip-rule="evenodd" d="M55.0524 91.8224C56.5712 90.9451 58.5733 90.5071 60.5824 90.5071C62.5915 90.5071 64.5949 90.9451 66.1137 91.8224L66.1363 91.8352C66.9841 92.3254 67.5746 92.8962 67.9222 93.4981C68.1523 93.8828 68.2765 94.3215 68.2825 94.7697C68.277 95.2178 68.1532 95.6564 67.9236 96.0413C67.576 96.646 66.9728 97.2196 66.1166 97.7141C64.5977 98.5915 62.5943 99.0295 60.5838 99.0295C58.5733 99.0295 56.5698 98.5915 55.051 97.7155C54.2033 97.2224 53.5943 96.6474 53.2454 96.0427L53.2327 96.0215C53.0031 95.6396 52.883 95.2021 52.8852 94.7566C52.8874 94.3111 53.012 93.8748 53.2454 93.4953C53.5958 92.8892 54.1976 92.3141 55.0538 91.8196L55.0524 91.8224ZM60.5824 89.6509C58.4334 89.6509 56.2774 90.1298 54.6243 91.0835C53.6353 91.6487 52.9289 92.3367 52.505 93.07C52.1976 93.5793 52.0341 94.1624 52.0318 94.7573C52.0296 95.3522 52.1887 95.9366 52.4923 96.4482L52.505 96.4722C52.9289 97.204 53.6353 97.885 54.6243 98.4573C56.2788 99.4123 58.4391 99.8899 60.5824 99.8899C62.7257 99.8899 64.8888 99.4123 66.5432 98.4573C67.5322 97.8921 68.2387 97.204 68.6625 96.4708C68.9678 95.9574 69.132 95.3725 69.1387 94.7753C69.1335 94.1783 68.9702 93.5933 68.6654 93.0799C68.2415 92.3551 67.5478 91.6783 66.5687 91.1019L66.5461 91.0863C64.8803 90.1298 62.7313 89.6509 60.5824 89.6509Z" fill="#1A87C7"/>
<path fill-rule="evenodd" clip-rule="evenodd" d="M54.8381 91.4527C58.0114 89.616 63.1556 89.616 66.3275 91.4527C69.4994 93.2895 69.5036 96.2565 66.3275 98.0932C63.1514 99.9299 58.0086 99.9299 54.8339 98.0932C51.6592 96.2565 51.6648 93.2852 54.8381 91.4527Z" fill="white"/>
<path fill-rule="evenodd" clip-rule="evenodd" d="M54.9029 66.8477V94.633L54.9354 94.7927C55.8693 98.5354 65.368 98.5311 66.299 94.7927L66.3315 94.6344V66.8477C66.3125 66.9547 66.2865 67.0604 66.2538 67.1641C66.1087 67.5633 65.8727 67.9232 65.5644 68.2153C64.8381 68.9217 63.7545 69.3739 62.7782 69.6027C60.8864 70.0464 58.5099 69.898 56.7721 68.9924C56.1925 68.7078 55.6874 68.2917 55.2971 67.7773C55.1315 67.5438 55.009 67.2825 54.9354 67.0059L54.9029 66.8477Z" fill="white"/>
<path fill-rule="evenodd" clip-rule="evenodd" d="M54.475 66.8474V94.6328C54.4754 94.6744 54.4815 94.7158 54.4934 94.7557L54.5216 94.897C54.8833 96.3466 56.3188 97.289 58.0933 97.7312C59.7534 98.1259 61.4829 98.1259 63.1429 97.7312C64.9175 97.289 66.3529 96.3466 66.7146 94.897L66.75 94.7218C66.7556 94.6939 66.7584 94.6655 66.7584 94.637V66.8474C66.7655 66.735 66.7277 66.6244 66.6533 66.5398C66.5788 66.4553 66.4738 66.4038 66.3614 66.3967C66.249 66.3896 66.1384 66.4274 66.0538 66.5019C65.9693 66.5763 65.9178 66.6813 65.9107 66.7937C65.8961 66.8716 65.8767 66.9485 65.8528 67.024C65.7984 67.1804 65.7238 67.3291 65.631 67.4662C65.5263 67.6255 65.4046 67.7729 65.2679 67.9056C64.9474 68.2085 64.5818 68.4596 64.1842 68.6502C63.7059 68.8842 63.2025 69.0629 62.6837 69.1829C61.6902 69.4083 60.6665 69.4699 59.6531 69.3651C58.719 69.2839 57.8084 69.028 56.9687 68.6107C56.6895 68.4671 56.4258 68.2953 56.1817 68.0978C55.9786 67.934 55.798 67.7439 55.6448 67.5326C55.5747 67.4331 55.5133 67.3277 55.4612 67.2176C55.4138 67.1165 55.3764 67.0109 55.3496 66.9025L55.3199 66.7612C55.3083 66.6488 55.2525 66.5456 55.1648 66.4743C55.0771 66.4031 54.9646 66.3695 54.8522 66.3812C54.7398 66.3928 54.6366 66.4486 54.5653 66.5363C54.4941 66.624 54.4606 66.7364 54.4722 66.8488L54.475 66.8474ZM55.3312 94.5961V68.4736C55.4287 68.5725 55.5332 68.6658 55.642 68.7562C55.9316 68.9911 56.2445 69.1957 56.5759 69.3665C57.5114 69.8343 58.5265 70.1219 59.5684 70.2143C60.6739 70.3289 61.7907 70.2616 62.8745 70.015C63.4606 69.8813 64.0295 69.6808 64.5699 69.4174C65.0474 69.1864 65.486 68.8822 65.8697 68.516L65.9121 68.475V94.5961L65.8923 94.6893C65.6182 95.7885 64.43 96.526 62.9451 96.899C61.4194 97.2626 59.8296 97.2626 58.3039 96.899C56.8204 96.5288 55.6321 95.7899 55.358 94.6907L55.3312 94.5961Z" fill="#1A87C7"/>
<path fill-rule="evenodd" clip-rule="evenodd" d="M57.2512 93.9353C57.2512 94.0489 57.2963 94.1578 57.3766 94.238C57.4569 94.3183 57.5658 94.3634 57.6793 94.3634C57.7929 94.3634 57.9018 94.3183 57.982 94.238C58.0623 94.1578 58.1074 94.0489 58.1074 93.9353V72.4725C58.1074 72.359 58.0623 72.2501 57.982 72.1698C57.9018 72.0895 57.7929 72.0444 57.6793 72.0444C57.5658 72.0444 57.4569 72.0895 57.3766 72.1698C57.2963 72.2501 57.2512 72.359 57.2512 72.4725V93.9353Z" fill="#1A87C7"/>
<path fill-rule="evenodd" clip-rule="evenodd" d="M61.0117 73.8793C61.0117 73.7657 60.9666 73.6568 60.8863 73.5766C60.8061 73.4963 60.6972 73.4512 60.5836 73.4512C60.4701 73.4512 60.3612 73.4963 60.2809 73.5766C60.2006 73.6568 60.1555 73.7657 60.1555 73.8793V94.7501C60.1555 94.8636 60.2006 94.9725 60.2809 95.0528C60.3612 95.1331 60.4701 95.1782 60.5836 95.1782C60.6972 95.1782 60.8061 95.1331 60.8863 95.0528C60.9666 94.9725 61.0117 94.8636 61.0117 94.7501V73.8793Z" fill="#1A87C7"/>
<path fill-rule="evenodd" clip-rule="evenodd" d="M63.9028 75.8177C63.9028 75.7042 63.8577 75.5953 63.7774 75.515C63.6972 75.4347 63.5883 75.3896 63.4747 75.3896C63.3612 75.3896 63.2523 75.4347 63.172 75.515C63.0917 75.5953 63.0466 75.7042 63.0466 75.8177V94.1157C63.0466 94.2293 63.0917 94.3382 63.172 94.4184C63.2523 94.4987 63.3612 94.5438 63.4747 94.5438C63.5883 94.5438 63.6972 94.4987 63.7774 94.4184C63.8577 94.3382 63.9028 94.2293 63.9028 94.1157V75.8177Z" fill="#1A87C7"/>
<path fill-rule="evenodd" clip-rule="evenodd" d="M49.3008 62.435V64.8199C48.1451 70.3838 34.3004 70.4996 33.1221 64.8199V62.4336C34.2891 68.061 47.936 67.9438 49.2542 62.6582L49.3008 62.435Z" fill="#66CEEF"/>
<path fill-rule="evenodd" clip-rule="evenodd" d="M49.7272 64.1787V62.4352C49.7389 62.3228 49.7053 62.2104 49.6341 62.1227C49.5628 62.035 49.4596 61.9792 49.3472 61.9676C49.2348 61.956 49.1223 61.9895 49.0346 62.0608C48.9469 62.132 48.8911 62.2352 48.8795 62.3477L48.8357 62.5596C48.5263 63.7944 47.4313 64.7269 45.9619 65.3415C44.5307 65.9392 42.7604 66.2316 41 66.2104C39.2395 66.1892 37.5031 65.8544 36.1284 65.2002C34.7919 64.563 33.8142 63.6235 33.5443 62.3745C33.537 62.2621 33.4853 62.1572 33.4007 62.0829C33.3587 62.0461 33.31 62.0179 33.2572 61.9999C33.2044 61.9819 33.1486 61.9746 33.0929 61.9782C33.0372 61.9818 32.9828 61.9964 32.9328 62.021C32.8827 62.0456 32.838 62.0799 32.8012 62.1218C32.7644 62.1637 32.7363 62.2125 32.7183 62.2653C32.7003 62.3181 32.693 62.3739 32.6966 62.4296V64.8159C32.6971 64.8444 32.7004 64.8728 32.7065 64.9007C33.0498 66.558 34.3426 67.7547 36.0818 68.5063C37.5611 69.1449 39.3766 69.4614 41.1893 69.4586C43.002 69.4558 44.8189 69.1322 46.3039 68.4964C48.0544 67.7476 49.3599 66.5608 49.7117 64.9374C49.7232 64.898 49.7289 64.857 49.7286 64.8159V64.1745L49.7272 64.1787ZM48.8795 64.32V64.7764C48.5871 66.0875 47.4667 67.0708 45.9761 67.7123C44.5943 68.3043 42.8946 68.6038 41.1949 68.6066C39.4953 68.6095 37.8041 68.317 36.4237 67.7222C34.9487 67.085 33.8523 66.103 33.557 64.7778V64.3045C34.1598 65.0224 34.9171 65.5948 35.7724 65.9787C37.2559 66.6851 39.1223 67.0468 41 67.0694C42.8777 67.092 44.7653 66.7784 46.2996 66.1369C47.3607 65.6848 48.2536 65.083 48.8725 64.3228L48.8795 64.32Z" fill="#1A87C7"/>
<path fill-rule="evenodd" clip-rule="evenodd" d="M35.7007 59.0246C37.2167 58.1557 39.2102 57.7205 41.2108 57.7205C43.2115 57.7205 45.2234 58.1599 46.7436 59.0359C47.5998 59.5304 48.2031 60.1054 48.5521 60.7115C48.7821 61.0962 48.9064 61.5349 48.9124 61.9831C48.9078 62.4313 48.7839 62.8702 48.5535 63.2547C48.2031 63.8608 47.6026 64.4358 46.7493 64.9289C45.2304 65.8049 43.2284 66.2443 41.2165 66.2443C39.2046 66.2443 37.204 65.8063 35.6837 64.9289C34.836 64.4344 34.2271 63.8608 33.8781 63.2575C33.6437 62.8748 33.5196 62.4347 33.5196 61.9859C33.5196 61.5371 33.6437 61.0971 33.8781 60.7144C34.2271 60.1097 34.8289 59.5346 35.6865 59.0401L35.7063 59.0288L35.7007 59.0246ZM41.2108 56.8657C39.0746 56.8657 36.9299 57.339 35.2768 58.2786L35.2514 58.2927C34.2624 58.8579 33.5559 59.5459 33.1321 60.2792C32.8224 60.7926 32.6588 61.3807 32.6588 61.9803C32.6588 62.5798 32.8224 63.168 33.1321 63.6814C33.5559 64.4132 34.2624 65.0942 35.2514 65.6594C36.9073 66.6159 39.0661 67.092 41.2123 67.092C43.3584 67.092 45.5187 66.6145 47.1731 65.6594C48.1621 65.0942 48.8686 64.4048 49.2924 63.6814C49.5987 63.1685 49.7631 62.5833 49.7686 61.9859C49.7637 61.3889 49.6004 60.8038 49.2952 60.2905C48.8714 59.5572 48.165 58.8776 47.176 58.304C45.5144 57.3433 43.3584 56.8657 41.2108 56.8657Z" fill="#1A87C7"/>
<path fill-rule="evenodd" clip-rule="evenodd" d="M35.466 58.6671C38.6393 56.8304 43.7836 56.8304 46.9554 58.6671C50.1273 60.5038 50.1316 63.4708 46.9554 65.3075C43.7793 67.1443 38.6365 67.1443 35.4618 65.3075C32.2871 63.4708 32.2927 60.4996 35.466 58.6671Z" fill="white"/>
<path fill-rule="evenodd" clip-rule="evenodd" d="M87.5908 62.1074V64.4923C86.4365 70.0562 72.5904 70.172 71.4135 64.4923V62.1074C72.5791 67.7349 86.226 67.6176 87.5456 62.3307L87.5908 62.1074Z" fill="#66CEEF"/>
<path fill-rule="evenodd" clip-rule="evenodd" d="M88.0188 63.8508V62.1073C88.0302 61.9949 87.9965 61.8826 87.9251 61.795C87.8537 61.7074 87.7505 61.6518 87.638 61.6404C87.5256 61.6289 87.4133 61.6626 87.3257 61.734C87.2381 61.8054 87.1825 61.9087 87.1711 62.0211L87.1273 62.2331C86.8165 63.4679 85.7144 64.4004 84.2535 65.0136C82.8223 65.6126 81.052 65.9051 79.2915 65.8839C77.5311 65.8627 75.7947 65.5279 74.42 64.8723C73.0834 64.2351 72.1043 63.2955 71.8345 62.0466C71.8271 61.9342 71.7755 61.8292 71.6908 61.7549C71.6489 61.7181 71.6002 61.6899 71.5473 61.672C71.4945 61.654 71.4387 61.6466 71.3831 61.6503C71.3274 61.6539 71.273 61.6684 71.2229 61.6931C71.1729 61.7177 71.1282 61.752 71.0914 61.7939C71.0546 61.8358 71.0264 61.8846 71.0085 61.9374C70.9905 61.9902 70.9831 62.046 70.9867 62.1017V64.4866C70.9868 64.5155 70.9897 64.5444 70.9952 64.5728C71.3385 66.2301 72.6327 67.4267 74.3705 68.177C75.8512 68.817 77.6653 69.1321 79.4795 69.1293C81.2936 69.1264 83.1077 68.8043 84.594 68.1685C86.3432 67.4183 87.6501 66.2315 88.0019 64.6095C88.0133 64.5695 88.019 64.5281 88.0188 64.4866V63.8451V63.8508ZM87.1711 63.9921V64.4484C86.8772 65.7596 85.7582 66.7429 84.2662 67.3844C82.8845 67.9764 81.1862 68.2759 79.4865 68.2787C77.7869 68.2815 76.0957 67.9877 74.7153 67.3943C73.2388 66.7571 72.1425 65.7751 71.8486 64.4499V63.9652C72.4508 64.6836 73.2077 65.2564 74.0625 65.6409C75.546 66.3473 77.4139 66.709 79.2901 66.7316C81.1664 66.7542 83.054 66.4406 84.5898 65.7977C85.6494 65.3583 86.5438 64.755 87.164 63.9963L87.1711 63.9921Z" fill="#1A87C7"/>
<path fill-rule="evenodd" clip-rule="evenodd" d="M73.7575 58.3404C76.9308 56.5037 82.0737 56.5037 85.2469 58.3404C88.4202 60.1772 88.4216 63.1442 85.2469 64.9809C82.0722 66.8176 76.9294 66.8176 73.7533 64.9809C70.5772 63.1442 70.5842 60.1715 73.7575 58.3404Z" fill="white"/>
<path fill-rule="evenodd" clip-rule="evenodd" d="M73.9905 58.6968C75.5079 57.8293 77.5015 57.3941 79.5007 57.3941C81.4999 57.3941 83.5132 57.8321 85.032 58.7095C85.8882 59.204 86.4901 59.779 86.8405 60.3852C87.0706 60.7699 87.1948 61.2085 87.2008 61.6567C87.1957 62.1049 87.0719 62.5437 86.8419 62.9283C86.4915 63.5358 85.8896 64.1109 85.0363 64.6026C83.5174 65.4799 81.514 65.9179 79.5021 65.9179C77.4902 65.9179 75.4881 65.4799 73.9693 64.6026L73.9467 64.5913C73.099 64.101 72.5098 63.5302 72.1637 62.9297L72.1495 62.9085C71.9198 62.5267 71.7996 62.089 71.8021 61.6434C71.8046 61.1979 71.9297 60.7615 72.1637 60.3823L72.175 60.3597C72.5254 59.7635 73.1244 59.1955 73.9707 58.7067L73.9905 58.694V58.6968ZM79.5007 56.5379C77.363 56.5379 75.2183 57.0112 73.5666 57.9508L73.5398 57.9649C72.5635 58.5301 71.8613 59.2026 71.4375 59.9274L71.4219 59.9514C71.1138 60.4604 70.9498 61.0436 70.9473 61.6385C70.9448 62.2335 71.104 62.818 71.4078 63.3296L71.4219 63.3536C71.8458 64.0784 72.5381 64.7551 73.5158 65.3316L73.5384 65.3457C75.1929 66.3008 77.3531 66.7784 79.4993 66.7784C81.6454 66.7784 83.8043 66.3008 85.4587 65.3457C86.4477 64.7735 87.1542 64.0911 87.578 63.3606C87.8828 62.8472 88.0465 62.2623 88.0527 61.6652C88.047 61.0681 87.8832 60.4831 87.578 59.9698C87.1542 59.2379 86.4477 58.5569 85.4587 57.9833C83.8057 57.0169 81.6496 56.5337 79.5021 56.5337L79.5007 56.5379Z" fill="#1A87C7"/>
<path fill-rule="evenodd" clip-rule="evenodd" d="M87.2432 84.2261V86.611C86.0889 92.1748 72.2428 92.2907 71.0659 86.611V84.2261C72.2273 89.8507 85.8783 89.7362 87.2036 84.4479L87.2432 84.2261Z" fill="#66CEEF"/>
<path fill-rule="evenodd" clip-rule="evenodd" d="M87.6716 85.9675V84.2255C87.6831 84.1131 87.6494 84.0007 87.578 83.9132C87.5066 83.8256 87.4033 83.77 87.2909 83.7585C87.1785 83.7471 87.0661 83.7808 86.9785 83.8522C86.891 83.9236 86.8354 84.0269 86.8239 84.1393L86.7801 84.3512C86.4693 85.5847 85.3743 86.5171 83.9064 87.1317C82.4751 87.7308 80.7048 88.0233 78.9444 88.0007C77.184 87.978 75.4475 87.646 74.0728 86.9905C72.7363 86.3533 71.7572 85.4137 71.4873 84.1647C71.48 84.0523 71.4283 83.9474 71.3437 83.8731C71.3017 83.8363 71.253 83.8081 71.2002 83.7901C71.1474 83.7722 71.0915 83.7648 71.0359 83.7684C70.9802 83.772 70.9258 83.7866 70.8758 83.8112C70.8257 83.8359 70.781 83.8701 70.7442 83.912C70.7074 83.954 70.6793 84.0027 70.6613 84.0555C70.6433 84.1083 70.636 84.1642 70.6396 84.2198V86.6062C70.6397 86.6351 70.6425 86.664 70.6481 86.6923C70.9914 88.3482 72.2856 89.5463 74.0234 90.2966C75.5041 90.9366 77.3182 91.2517 79.1309 91.2488C80.9436 91.246 82.7605 90.9239 84.2469 90.2867C85.996 89.5379 87.3015 88.351 87.6547 86.7277C87.6662 86.6882 87.6719 86.6473 87.6716 86.6062V85.9647V85.9675ZM86.8239 86.1088V86.5652C86.53 87.8777 85.4111 88.8611 83.9191 89.5025C82.5373 90.0945 80.839 90.394 79.1379 90.3969C77.4369 90.3997 75.7471 90.1058 74.3681 89.511C72.8917 88.8738 71.7953 87.8933 71.5 86.5666V86.0834C72.101 86.8003 72.8558 87.3725 73.7083 87.7576C75.1918 88.4641 77.0596 88.8258 78.9359 88.8484C80.8122 88.871 82.6998 88.5573 84.2341 87.9159C85.298 87.4751 86.1966 86.8718 86.8169 86.1117L86.8239 86.1088Z" fill="#1A87C7"/>
<path fill-rule="evenodd" clip-rule="evenodd" d="M73.6221 80.8264C75.1409 79.949 77.1444 79.511 79.1549 79.511C81.1654 79.511 83.1674 79.949 84.6862 80.8249C85.5424 81.3194 86.1457 81.8945 86.4947 82.4992C86.7251 82.8837 86.8494 83.3225 86.855 83.7708C86.8495 84.2188 86.7257 84.6575 86.4961 85.0423L86.4834 85.0635C86.133 85.6612 85.5354 86.2291 84.6905 86.7166C83.1702 87.5996 81.1668 88.0404 79.1506 88.0404C77.1345 88.0404 75.1367 87.6024 73.6179 86.7251L73.5952 86.7123C72.7475 86.2221 72.157 85.6527 71.8108 85.0536C71.5764 84.6709 71.4523 84.2309 71.4523 83.7821C71.4523 83.3333 71.5764 82.8932 71.8108 82.5105C72.1612 81.9058 72.7631 81.3308 73.6179 80.8377L73.6221 80.8264ZM79.1506 78.6548C77.0031 78.6548 74.847 79.1323 73.1926 80.0874C72.2036 80.6526 71.4972 81.3421 71.0733 82.0753C70.7631 82.5883 70.5992 83.1763 70.5992 83.7757C70.5992 84.3751 70.7631 84.9631 71.0733 85.4761C71.4972 86.2009 72.1909 86.8776 73.1657 87.4456L73.1898 87.4612C74.8485 88.4163 77.0059 88.8882 79.1506 88.8882C81.2954 88.8882 83.4556 88.4092 85.1101 87.4555C86.0878 86.8904 86.7886 86.2164 87.2138 85.4945L87.2294 85.4704C87.5341 84.9569 87.6979 84.3721 87.7041 83.775C87.6983 83.178 87.5351 82.5932 87.2308 82.0796C86.8069 81.3463 86.1005 80.6667 85.1115 80.0917C83.457 79.1394 81.3024 78.6548 79.1506 78.6548Z" fill="#1A87C7"/>
<path fill-rule="evenodd" clip-rule="evenodd" d="M73.4099 80.4562C76.5832 78.6194 81.726 78.6194 84.8993 80.4562C88.0726 82.2929 88.074 85.2599 84.8993 87.0966C81.7246 88.9333 76.5818 88.9333 73.4056 87.0966C70.2295 85.2599 70.2366 82.2886 73.4099 80.4562Z" fill="white"/>
<path fill-rule="evenodd" clip-rule="evenodd" d="M73.0454 55.3005V83.0958C73.046 83.1359 73.0517 83.1758 73.0624 83.2144L73.0921 83.3557C73.4538 84.8067 74.8906 85.7477 76.6638 86.1899C78.3237 86.5856 80.0534 86.5856 81.7134 86.1899C83.4879 85.7477 84.9234 84.8053 85.2851 83.3557L85.3218 83.1805C85.3274 83.1526 85.3303 83.1242 85.3303 83.0958V55.3005C85.337 55.1881 85.2988 55.0776 85.2241 54.9933C85.1494 54.9091 85.0443 54.858 84.9319 54.8512C84.8194 54.8445 84.709 54.8827 84.6247 54.9574C84.5404 55.0321 84.4893 55.1372 84.4826 55.2496C84.4686 55.3281 84.4493 55.4055 84.4247 55.4813C84.3699 55.6373 84.2958 55.7859 84.2042 55.9236C84.0991 56.0825 83.9774 56.2298 83.8411 56.363C83.5202 56.6652 83.1547 56.9163 82.7575 57.1076C82.279 57.3409 81.7757 57.5191 81.257 57.6388C80.2635 57.8641 79.2398 57.9257 78.2264 57.821C77.2923 57.7399 76.3817 57.4839 75.542 57.0666C75.263 56.9229 74.9997 56.7505 74.7564 56.5523C74.5523 56.389 74.3713 56.1989 74.2181 55.9872C74.1488 55.8878 74.0878 55.7829 74.0359 55.6735C73.9887 55.5742 73.9513 55.4706 73.9242 55.3641L73.8932 55.2228C73.8817 55.1104 73.8261 55.0071 73.7386 54.9357C73.651 54.8643 73.5386 54.8306 73.4262 54.842C73.3138 54.8535 73.2105 54.9091 73.1391 54.9966C73.0677 55.0842 73.034 55.1966 73.0454 55.309V55.3005ZM73.9016 83.0506V56.9281C74.0006 57.0278 74.1048 57.1221 74.2139 57.2107C74.5025 57.4463 74.815 57.6508 75.1464 57.821C76.0818 58.2889 77.097 58.5764 78.1388 58.6688C79.2448 58.7828 80.362 58.7155 81.4463 58.4696C82.0325 58.3351 82.6013 58.1341 83.1418 57.8705C83.6189 57.6395 84.0574 57.3359 84.4416 56.9705L84.4826 56.9295V83.052L84.4628 83.1452C84.1887 84.2444 83.0005 84.9819 81.517 85.3535C79.9914 85.718 78.4013 85.718 76.8757 85.3535C75.3936 84.9848 74.2054 84.2458 73.9299 83.148L73.9016 83.0506Z" fill="#1A87C7"/>
<path fill-rule="evenodd" clip-rule="evenodd" d="M73.4733 55.3003V83.0956L73.5072 83.2538C74.4397 86.9979 83.9383 86.9936 84.8708 83.2538L84.9033 83.0956V55.3003C84.8833 55.4068 84.8569 55.512 84.8242 55.6154C84.6793 56.015 84.4432 56.3754 84.1347 56.6679C83.4099 57.3744 82.3248 57.8265 81.3486 58.0554C79.4581 58.499 77.0817 58.3507 75.3425 57.4436C74.7632 57.1592 74.2581 56.7436 73.8674 56.23C73.7024 55.9963 73.5804 55.7351 73.5072 55.4585L73.4733 55.3003Z" fill="white"/>
<path fill-rule="evenodd" clip-rule="evenodd" d="M75.8242 82.3887C75.8242 82.5011 75.8688 82.609 75.9483 82.6884C76.0278 82.7679 76.1356 82.8126 76.248 82.8126C76.3604 82.8126 76.4682 82.7679 76.5477 82.6884C76.6272 82.609 76.6719 82.5011 76.6719 82.3887V60.9287C76.6719 60.8163 76.6272 60.7085 76.5477 60.629C76.4682 60.5495 76.3604 60.5049 76.248 60.5049C76.1356 60.5049 76.0278 60.5495 75.9483 60.629C75.8688 60.7085 75.8242 60.8163 75.8242 60.9287V82.3887Z" fill="#1A87C7"/>
<path fill-rule="evenodd" clip-rule="evenodd" d="M79.583 62.335C79.583 62.2226 79.5384 62.1148 79.4589 62.0353C79.3794 61.9558 79.2716 61.9111 79.1591 61.9111C79.0467 61.9111 78.9389 61.9558 78.8594 62.0353C78.7799 62.1148 78.7353 62.2226 78.7353 62.335V83.2058C78.7353 83.3182 78.7799 83.426 78.8594 83.5055C78.9389 83.585 79.0467 83.6297 79.1591 83.6297C79.2716 83.6297 79.3794 83.585 79.4589 83.5055C79.5384 83.426 79.583 83.3182 79.583 83.2058V62.335Z" fill="#1A87C7"/>
<path fill-rule="evenodd" clip-rule="evenodd" d="M82.4736 64.2733C82.4736 64.1598 82.4285 64.0509 82.3482 63.9706C82.268 63.8903 82.1591 63.8452 82.0455 63.8452C81.932 63.8452 81.8231 63.8903 81.7428 63.9706C81.6625 64.0509 81.6174 64.1598 81.6174 64.2733V82.5699C81.6174 82.6834 81.6625 82.7923 81.7428 82.8726C81.8231 82.9529 81.932 82.998 82.0455 82.998C82.1591 82.998 82.268 82.9529 82.3482 82.8726C82.4285 82.7923 82.4736 82.6834 82.4736 82.5699V64.2733Z" fill="#1A87C7"/>
<path fill-rule="evenodd" clip-rule="evenodd" d="M106.369 73.4711V75.8561C105.215 81.4199 91.3688 81.5344 90.1904 75.8561V73.4697C91.3575 79.0972 105.004 78.9799 106.323 73.6944L106.369 73.4711Z" fill="#66CEEF"/>
<path fill-rule="evenodd" clip-rule="evenodd" d="M106.797 75.2132V73.4711C106.809 73.3587 106.775 73.2463 106.703 73.1588C106.632 73.0712 106.529 73.0156 106.416 73.0041C106.304 72.9927 106.192 73.0264 106.104 73.0978C106.016 73.1692 105.961 73.2725 105.949 73.3849L105.906 73.5926C105.598 74.8288 104.501 75.7613 103.032 76.3774C101.601 76.975 99.8303 77.2674 98.0699 77.2463C96.3094 77.2251 94.573 76.8902 93.1983 76.2361C91.8603 75.5975 90.8826 74.6593 90.6128 73.4103C90.6055 73.2979 90.5538 73.193 90.4692 73.1187C90.4272 73.0819 90.3785 73.0537 90.3257 73.0358C90.2729 73.0178 90.217 73.0104 90.1614 73.014C90.1057 73.0176 90.0513 73.0322 90.0013 73.0568C89.9512 73.0815 89.9065 73.1157 89.8697 73.1577C89.8329 73.1996 89.8047 73.2483 89.7868 73.3011C89.7688 73.3539 89.7614 73.4098 89.7651 73.4654V75.8518C89.7652 75.8802 89.768 75.9086 89.7735 75.9365C90.1169 77.5938 91.4096 78.7905 93.1489 79.5422C94.6296 80.1808 96.4437 80.4973 98.2564 80.4944C100.069 80.4916 101.886 80.1681 103.372 79.5323C105.121 78.7835 106.427 77.5967 106.779 75.9733C106.791 75.9339 106.797 75.8929 106.797 75.8518V75.2089V75.2132ZM105.941 75.3544V75.8108C105.648 77.1219 104.535 78.1053 103.038 78.7467C101.656 79.3387 99.9575 79.6382 98.2564 79.6425C96.5553 79.6467 94.8655 79.3514 93.4851 78.7566C92.0101 78.1194 90.9137 77.1375 90.6184 75.8122V75.329C91.2212 76.047 91.9786 76.6193 92.8338 77.0032C94.3173 77.7097 96.1851 78.0714 98.0614 78.094C99.9377 78.1166 101.825 77.8029 103.361 77.1615C104.425 76.7207 105.322 76.1188 105.941 75.3587V75.3544Z" fill="#1A87C7"/>
<path fill-rule="evenodd" clip-rule="evenodd" d="M92.5354 69.7027C95.7072 67.866 100.851 67.866 104.025 69.7027C107.198 71.5395 107.199 74.5065 104.025 76.3432C100.85 78.1799 95.7058 78.1799 92.5311 76.3432C89.3564 74.5065 89.3621 71.5352 92.5354 69.7027Z" fill="white"/>
<path fill-rule="evenodd" clip-rule="evenodd" d="M92.7492 70.0734C94.268 69.196 96.2701 68.7566 98.2791 68.7566C100.288 68.7566 102.292 69.196 103.811 70.0734C104.667 70.5665 105.27 71.1415 105.619 71.7477C105.849 72.1322 105.973 72.571 105.978 73.0192C105.972 73.4674 105.848 73.9061 105.618 74.2908C105.269 74.8941 104.667 75.4692 103.811 75.9622C102.292 76.8396 100.288 77.279 98.2763 77.279C96.2644 77.279 94.2624 76.841 92.7421 75.9622C91.8944 75.4692 91.2869 74.8955 90.9379 74.2908C90.7035 73.9081 90.5794 73.468 90.5794 73.0192C90.5794 72.5704 90.7035 72.1304 90.9379 71.7477C91.2883 71.1401 91.8902 70.5651 92.745 70.0734H92.7492ZM98.2791 67.9019C96.1316 67.9019 93.9756 68.3794 92.3211 69.3345C91.3321 69.8996 90.6257 70.5891 90.2018 71.3125C89.8918 71.825 89.7278 72.4125 89.7278 73.0115C89.7278 73.6104 89.8918 74.198 90.2018 74.7104C90.6257 75.4437 91.3321 76.1233 92.3211 76.6969C93.9756 77.652 96.1358 78.1296 98.2791 78.1296C100.422 78.1296 102.587 77.652 104.241 76.6969C105.23 76.1318 105.937 75.4437 106.361 74.7104C106.666 74.1973 106.83 73.6122 106.835 73.015C106.83 72.4176 106.666 71.8325 106.359 71.3196C105.935 70.5877 105.229 69.9067 104.24 69.3331C102.584 68.3794 100.428 67.9019 98.2791 67.9019Z" fill="#1A87C7"/>
<path fill-rule="evenodd" clip-rule="evenodd" d="M94.949 71.6356C94.949 71.7492 94.9941 71.8581 95.0744 71.9384C95.1546 72.0186 95.2635 72.0637 95.3771 72.0637C95.4906 72.0637 95.5995 72.0186 95.6798 71.9384C95.7601 71.8581 95.8052 71.7492 95.8052 71.6356V50.1757C95.8052 50.0621 95.7601 49.9532 95.6798 49.873C95.5995 49.7927 95.4906 49.7476 95.3771 49.7476C95.2635 49.7476 95.1546 49.7927 95.0744 49.873C94.9941 49.9532 94.949 50.0621 94.949 50.1757V71.6356Z" fill="#1A87C7"/>
<path fill-rule="evenodd" clip-rule="evenodd" d="M92.5992 44.5469V72.3351L92.6317 72.4933C93.5656 76.236 103.064 76.2332 103.995 72.4933L104.029 72.3351V44.5469C104.009 44.6534 103.983 44.7586 103.95 44.8619C103.805 45.2611 103.569 45.621 103.261 45.9131C102.534 46.6196 101.451 47.0717 100.475 47.3006C98.5827 47.7442 96.2063 47.5973 94.4684 46.6902C93.8899 46.4058 93.3858 45.9902 92.9962 45.4765C92.8309 45.2429 92.7084 44.9817 92.6346 44.7051L92.5992 44.5469Z" fill="white"/>
<path fill-rule="evenodd" clip-rule="evenodd" d="M92.1727 44.547V72.3352C92.1724 72.3763 92.1781 72.4172 92.1896 72.4567L92.2179 72.598C92.5725 74.0532 94.0164 74.9885 95.791 75.4293C97.4504 75.8259 99.1798 75.8259 100.839 75.4293C102.614 74.9871 104.049 74.0461 104.409 72.5966L104.446 72.4228C104.453 72.3945 104.456 72.3656 104.456 72.3366V44.547C104.46 44.4913 104.453 44.4355 104.435 44.3826C104.417 44.3298 104.389 44.281 104.352 44.239C104.315 44.197 104.271 44.1627 104.221 44.1379C104.171 44.1132 104.116 44.0986 104.06 44.0949C104.005 44.0911 103.949 44.0984 103.896 44.1163C103.843 44.1342 103.794 44.1623 103.753 44.199C103.711 44.2358 103.676 44.2804 103.651 44.3304C103.627 44.3804 103.612 44.4348 103.608 44.4905C103.593 44.5701 103.573 44.6488 103.549 44.7264C103.495 44.883 103.421 45.032 103.329 45.17C103.223 45.3294 103.101 45.4767 102.964 45.6094C102.644 45.9119 102.279 46.1631 101.882 46.354C101.403 46.5873 100.9 46.7656 100.381 46.8853C99.3868 47.1101 98.3623 47.1716 97.348 47.0675C96.4138 46.9863 95.5032 46.7304 94.6635 46.313C94.3843 46.169 94.1206 45.9967 93.8766 45.7988C93.6733 45.6351 93.4928 45.445 93.3397 45.2336C93.2698 45.1346 93.2088 45.0297 93.1574 44.92C93.1094 44.8185 93.0715 44.7125 93.0444 44.6035L93.0147 44.4622C93.0092 44.4065 92.9927 44.3525 92.9662 44.3032C92.9398 44.2539 92.9039 44.2103 92.8606 44.1749C92.8173 44.1395 92.7675 44.1129 92.7139 44.0968C92.6604 44.0806 92.6041 44.0752 92.5485 44.0807C92.4928 44.0863 92.4388 44.1028 92.3895 44.1292C92.3402 44.1557 92.2966 44.1915 92.2612 44.2348C92.2258 44.2781 92.1992 44.328 92.183 44.3815C92.1669 44.4351 92.1614 44.4913 92.167 44.547H92.1727ZM93.0274 72.2984V46.1746C93.1263 46.2735 93.2309 46.3682 93.3383 46.4572C93.6265 46.6918 93.938 46.8963 94.2679 47.0675C95.2041 47.5348 96.2196 47.8224 97.2618 47.9152C98.3678 48.0285 99.4849 47.9612 100.569 47.716C101.153 47.5813 101.719 47.3803 102.256 47.117C102.734 46.8859 103.173 46.5818 103.558 46.2156L103.598 46.1746V72.2956L103.577 72.3945C103.302 73.4923 102.115 74.2312 100.633 74.6C99.1073 74.9645 97.5172 74.9645 95.9916 74.6C94.5081 74.2298 93.3185 73.4909 93.0444 72.3903L93.0274 72.2984Z" fill="#1A87C7"/>
<path fill-rule="evenodd" clip-rule="evenodd" d="M98.7085 51.5887C98.7085 51.4752 98.6634 51.3663 98.5831 51.286C98.5028 51.2058 98.3939 51.1606 98.2804 51.1606C98.1669 51.1606 98.058 51.2058 97.9777 51.286C97.8974 51.3663 97.8523 51.4752 97.8523 51.5887V72.4511C97.8523 72.5646 97.8974 72.6735 97.9777 72.7538C98.058 72.8341 98.1669 72.8792 98.2804 72.8792C98.3939 72.8792 98.5028 72.8341 98.5831 72.7538C98.6634 72.6735 98.7085 72.5646 98.7085 72.4511V51.5887Z" fill="#1A87C7"/>
<path fill-rule="evenodd" clip-rule="evenodd" d="M49.8857 84.1791V86.5641C48.73 92.1279 34.8854 92.2438 33.707 86.5641V84.1777C34.8741 89.8052 48.5209 89.6879 49.8391 84.4024L49.8857 84.1791Z" fill="#66CEEF"/>
<path fill-rule="evenodd" clip-rule="evenodd" d="M50.3128 85.9212V84.1791C50.3242 84.0667 50.2905 83.9543 50.2191 83.8668C50.1477 83.7792 50.0444 83.7236 49.932 83.7121C49.8196 83.7007 49.7072 83.7344 49.6197 83.8058C49.5321 83.8772 49.4765 83.9805 49.465 84.0929L49.4212 84.3048C49.1118 85.5383 48.0169 86.4708 46.5489 87.0854C45.1177 87.683 43.3473 87.9755 41.5869 87.9543C39.8265 87.9331 38.0901 87.5996 36.7154 86.9441C35.3774 86.3069 34.3997 85.3673 34.1284 84.1183C34.1211 84.0059 34.0694 83.901 33.9848 83.8267C33.9429 83.7899 33.8941 83.7617 33.8413 83.7438C33.7885 83.7258 33.7327 83.7184 33.677 83.722C33.6213 83.7257 33.5669 83.7402 33.5169 83.7648C33.4668 83.7895 33.4222 83.8237 33.3854 83.8657C33.3486 83.9076 33.3204 83.9563 33.3024 84.0091C33.2844 84.062 33.2771 84.1178 33.2807 84.1734V86.5598C33.2812 86.5883 33.2845 86.6167 33.2906 86.6445C33.6339 88.3018 34.9267 89.4999 36.6645 90.2502C38.1452 90.8888 39.9607 91.2053 41.7734 91.2024C43.5861 91.1996 45.4031 90.8775 46.888 90.2403C48.6385 89.4915 49.944 88.3047 50.2958 86.6813C50.3073 86.6418 50.313 86.6009 50.3128 86.5598V85.9212ZM49.465 86.0624V86.5188C49.1726 87.8313 48.0522 88.8133 46.5616 89.4547C45.1784 90.0467 43.4801 90.3463 41.7805 90.3491C40.0808 90.3519 38.3896 90.0665 37.0092 89.4646C35.5342 88.8274 34.4378 87.8455 34.1425 86.5202V86.037C34.7453 86.755 35.5027 87.3274 36.3579 87.7113C37.8428 88.4177 39.7092 88.7794 41.5855 88.802C43.4618 88.8246 45.3494 88.5109 46.8837 87.8695C47.9406 87.4301 48.8391 86.8268 49.458 86.0624H49.465Z" fill="#1A87C7"/>
<path fill-rule="evenodd" clip-rule="evenodd" d="M36.2653 80.78C37.7841 79.904 39.7862 79.4646 41.7967 79.4646C43.8072 79.4646 45.8078 79.904 47.3266 80.78L47.3492 80.7927C48.1969 81.2844 48.7875 81.8552 49.1351 82.4557C49.3651 82.8404 49.4894 83.279 49.4954 83.7273C49.4899 84.1753 49.3661 84.614 49.1365 84.9988C48.7889 85.6021 48.1856 86.1772 47.3295 86.6717C45.8106 87.5476 43.8086 87.987 41.7981 87.987C39.7876 87.987 37.7841 87.5491 36.2639 86.6717C35.4091 86.1772 34.8072 85.6035 34.4583 84.9974L34.4456 84.9776C34.2159 84.5956 34.0957 84.1578 34.0979 83.712C34.1001 83.2663 34.2248 82.8297 34.4583 82.45C34.8087 81.8439 35.4105 81.2689 36.2667 80.7744L36.2653 80.78ZM41.7967 78.6099C39.6477 78.6099 37.4917 79.0874 35.8372 80.0425C34.8482 80.6077 34.1418 81.2957 33.7179 82.0276C33.4137 82.5412 33.2504 83.1261 33.2446 83.723C33.2484 84.3123 33.4073 84.8902 33.7052 85.3987L33.7179 85.4241C34.1418 86.156 34.8482 86.837 35.8372 87.4092C37.4917 88.3643 39.6519 88.8418 41.7967 88.8418C43.9414 88.8418 46.1031 88.3629 47.7561 87.4092C48.7451 86.844 49.4516 86.1546 49.8754 85.4213C50.1816 84.9083 50.3459 84.3232 50.3516 83.7258C50.3467 83.1288 50.1834 82.5437 49.8783 82.0304C49.4544 81.3056 48.7607 80.6274 47.7816 80.0524L47.759 80.0383C46.1003 79.0874 43.9442 78.6099 41.7967 78.6099Z" fill="#1A87C7"/>
<path fill-rule="evenodd" clip-rule="evenodd" d="M36.051 80.4112C39.2243 78.5745 44.3685 78.5745 47.5404 80.4112C50.7123 82.248 50.7165 85.215 47.5404 87.0517C44.3643 88.8884 39.2215 88.8884 36.0468 87.0517C32.872 85.215 32.8777 82.248 36.051 80.4112Z" fill="white"/>
<path fill-rule="evenodd" clip-rule="evenodd" d="M35.6879 55.2622V83.0433C35.6878 83.0835 35.6935 83.1234 35.7049 83.162L35.7346 83.3033C36.0962 84.7543 37.5317 85.6952 39.3063 86.1375C40.9662 86.5331 42.6959 86.5331 44.3558 86.1375C46.1304 85.6952 47.5659 84.7528 47.9276 83.3033L47.9629 83.1281C47.9685 83.1002 47.9713 83.0718 47.9714 83.0433V55.2622C47.9748 55.2065 47.9672 55.1507 47.9491 55.098C47.931 55.0452 47.9026 54.9966 47.8657 54.9548C47.8288 54.913 47.784 54.8789 47.7339 54.8544C47.6837 54.83 47.6293 54.8156 47.5736 54.8122C47.518 54.8087 47.4622 54.8163 47.4095 54.8344C47.3567 54.8526 47.3081 54.8809 47.2663 54.9178C47.2245 54.9548 47.1904 54.9996 47.1659 55.0497C47.1414 55.0998 47.1271 55.1542 47.1236 55.2099C47.1092 55.2882 47.0898 55.3656 47.0657 55.4416C47.0112 55.5982 46.9372 55.7472 46.8453 55.8852C46.7402 56.0445 46.6179 56.1919 46.4808 56.3246C46.1603 56.6274 45.7947 56.8786 45.3971 57.0692C44.9188 57.3027 44.4154 57.481 43.8967 57.6004C42.9014 57.824 41.8762 57.8831 40.8618 57.7756C39.9278 57.694 39.0172 57.4381 38.1774 57.0212C37.8988 56.8768 37.6356 56.7045 37.3918 56.5069C37.188 56.3438 37.0074 56.1536 36.855 55.9417C36.7848 55.8422 36.7234 55.7368 36.6713 55.6267C36.625 55.5275 36.5876 55.4245 36.5597 55.3187L36.53 55.1774C36.5186 55.065 36.4629 54.9617 36.3754 54.8903C36.2878 54.8189 36.1755 54.7852 36.063 54.7966C35.9506 54.808 35.8474 54.8637 35.7759 54.9512C35.7045 55.0388 35.6709 55.1512 35.6823 55.2636L35.6879 55.2622ZM36.5441 83.0122V56.8841C36.6416 56.9816 36.7462 57.0763 36.855 57.1667C37.1435 57.4023 37.4561 57.6068 37.7874 57.7771C38.7231 58.2444 39.7382 58.5319 40.7799 58.6248C41.8859 58.7389 43.0031 58.6716 44.0874 58.4256C44.6712 58.2908 45.2376 58.0899 45.7758 57.8265C46.2535 57.5951 46.6925 57.291 47.077 56.9251L47.118 56.8855V83.0066L47.0982 83.0998C46.8241 84.199 45.6359 84.9365 44.151 85.3081C42.6254 85.6726 41.0353 85.6726 39.5097 85.3081C38.0276 84.9379 36.8408 84.2004 36.5639 83.1012L36.5441 83.0122Z" fill="#1A87C7"/>
<path fill-rule="evenodd" clip-rule="evenodd" d="M36.1158 55.2622V83.0433L36.1483 83.2016C37.0822 86.9457 46.5809 86.9414 47.5119 83.2016L47.5444 83.0433V55.2622C47.5254 55.3688 47.4994 55.474 47.4667 55.5773C47.3216 55.9764 47.0856 56.3363 46.7772 56.6284C46.051 57.3349 44.9674 57.787 43.9911 58.0159C42.0993 58.4595 39.7228 58.3126 37.985 57.4055C37.4055 57.1214 36.9004 56.7058 36.51 56.1919C36.3446 55.9582 36.2221 55.697 36.1483 55.4204L36.1158 55.2622Z" fill="white"/>
<path fill-rule="evenodd" clip-rule="evenodd" d="M38.4602 82.3455C38.4602 82.459 38.5053 82.5679 38.5856 82.6482C38.6659 82.7285 38.7748 82.7736 38.8883 82.7736C39.0019 82.7736 39.1107 82.7285 39.191 82.6482C39.2713 82.5679 39.3164 82.459 39.3164 82.3455V60.8827C39.3164 60.7692 39.2713 60.6603 39.191 60.58C39.1107 60.4997 39.0019 60.4546 38.8883 60.4546C38.7748 60.4546 38.6659 60.4997 38.5856 60.58C38.5053 60.6603 38.4602 60.7692 38.4602 60.8827V82.3455Z" fill="#1A87C7"/>
<path fill-rule="evenodd" clip-rule="evenodd" d="M42.2256 62.2894C42.2256 62.1759 42.1805 62.067 42.1002 61.9867C42.0199 61.9064 41.911 61.8613 41.7975 61.8613C41.6839 61.8613 41.5751 61.9064 41.4948 61.9867C41.4145 62.067 41.3694 62.1759 41.3694 62.2894V83.1588C41.3694 83.2724 41.4145 83.3813 41.4948 83.4615C41.5751 83.5418 41.6839 83.5869 41.7975 83.5869C41.911 83.5869 42.0199 83.5418 42.1002 83.4615C42.1805 83.3813 42.2256 83.2724 42.2256 83.1588V62.2894Z" fill="#1A87C7"/>
<path fill-rule="evenodd" clip-rule="evenodd" d="M45.1147 64.2282C45.1147 64.1148 45.0697 64.0061 44.9896 63.926C44.9094 63.8458 44.8007 63.8008 44.6874 63.8008C44.574 63.8008 44.4653 63.8458 44.3851 63.926C44.305 64.0061 44.26 64.1148 44.26 64.2282V82.5304C44.26 82.6438 44.305 82.7525 44.3851 82.8326C44.4653 82.9128 44.574 82.9578 44.6874 82.9578C44.8007 82.9578 44.9094 82.9128 44.9896 82.8326C45.0697 82.7525 45.1147 82.6438 45.1147 82.5304V64.2282Z" fill="#1A87C7"/>
<path fill-rule="evenodd" clip-rule="evenodd" d="M9.73089 39.1271L60.7635 9.66328C60.8315 9.62201 60.904 9.58882 60.9797 9.56438C61.0562 9.55096 61.1337 9.54481 61.2114 9.54601L87.8608 11.4732C87.9688 11.486 88.0752 11.5092 88.1787 11.5424C88.2834 11.5818 88.3849 11.629 88.4825 11.6837C88.6113 11.7663 88.7345 11.8574 88.8512 11.9564C88.9701 12.0589 89.0838 12.1673 89.1917 12.2813L116.07 41.8215C116.37 42.1621 116.621 42.5425 116.817 42.9518C116.997 43.3605 117.1 43.7986 117.123 44.2445L117.133 45.5528C117.133 45.5924 117.133 45.6235 117.124 45.639L65.4019 75.5055L65.3949 74.5773V74.5533C65.3695 74.0054 65.2431 73.467 65.0219 72.9652C64.7937 72.4789 64.4984 72.0271 64.1445 71.623L37.2436 42.0602L37.221 42.0376C37.066 41.8734 36.9009 41.719 36.7265 41.5756C36.5365 41.4272 36.3326 41.2975 36.1175 41.1885L36.0765 41.1687C35.9663 41.1227 35.8536 41.0831 35.7389 41.05L35.7007 41.0416C35.5951 41.0151 35.488 40.9949 35.38 40.9808H35.3517L9.73089 39.13V39.1271ZM60.3495 8.92011L7.80091 39.2557L7.77689 39.2684C7.72744 39.295 7.68373 39.3311 7.64824 39.3747C7.61275 39.4182 7.58617 39.4683 7.57003 39.5221C7.55389 39.5759 7.5485 39.6323 7.55418 39.6882C7.55985 39.744 7.57648 39.7982 7.6031 39.8477C7.62973 39.8971 7.66584 39.9409 7.70937 39.9763C7.75288 40.0118 7.80296 40.0384 7.85676 40.0546C7.91055 40.0707 7.96699 40.0761 8.02286 40.0704C8.07874 40.0647 8.13293 40.0481 8.18237 40.0215C8.25019 39.9799 8.32278 39.9467 8.39855 39.9226C8.47455 39.9091 8.55167 39.9029 8.62885 39.9042L35.2811 41.8299C35.3496 41.8382 35.4175 41.8504 35.4846 41.8667L35.5156 41.8751C35.5905 41.8963 35.6569 41.9204 35.7431 41.9529C35.9024 42.0359 36.0537 42.1333 36.1952 42.2439C36.3411 42.3647 36.4794 42.4945 36.6092 42.6324L63.4903 72.1782C63.7911 72.5185 64.0431 72.8989 64.2392 73.3085C64.4187 73.7177 64.5217 74.1564 64.5429 74.6027L64.5528 75.8927L64.5429 75.9986L64.5203 76.0142C64.4266 76.0775 64.362 76.1754 64.3405 76.2865C64.319 76.3975 64.3425 76.5125 64.4059 76.6062C64.4692 76.6998 64.5671 76.7645 64.6782 76.786C64.7892 76.8074 64.9042 76.7839 64.9979 76.7206L117.556 46.3794C117.584 46.3653 117.611 46.3487 117.636 46.3299C117.761 46.238 117.859 46.1134 117.918 45.9696C117.96 45.8572 117.983 45.739 117.987 45.6192C117.987 45.6023 117.987 45.5853 117.987 45.5698L117.976 44.2459C117.977 44.229 117.977 44.212 117.976 44.1951C117.948 43.6475 117.819 43.1098 117.597 42.6084C117.369 42.122 117.074 41.6698 116.721 41.2648L89.8233 11.7035L89.8134 11.6936C89.665 11.541 89.5308 11.411 89.4023 11.3008C89.254 11.1764 89.0977 11.0617 88.9346 10.9575C88.9233 10.95 88.9115 10.9434 88.8993 10.9377C88.7561 10.8582 88.6068 10.7901 88.4528 10.7342C88.2987 10.6837 88.1403 10.6478 87.9795 10.6268H87.9315L61.2608 8.69405H61.2213C61.0743 8.69201 60.9275 8.70527 60.7833 8.73361C60.6344 8.77357 60.4918 8.83396 60.3594 8.91305L60.3495 8.92011Z" fill="#1A87C7"/>
<path fill-rule="evenodd" clip-rule="evenodd" d="M7.98212 39.6442L60.5618 9.28738C60.7609 9.16031 60.9961 9.10177 61.2315 9.12066L87.9022 11.0464C88.1849 11.0792 88.4578 11.1706 88.7032 11.3148C88.9989 11.5053 89.2691 11.7327 89.5072 11.9916L116.393 41.5402C117.099 42.3879 117.476 43.1212 117.548 44.2247L117.56 45.5754C117.541 45.7816 117.531 45.8664 117.366 45.9992L64.7863 76.3532C64.9516 76.2218 64.9615 76.137 64.9799 75.9293L64.97 74.5786C64.8951 73.4653 64.5221 72.7419 63.8128 71.8942L36.9288 42.3484C36.6438 42.028 36.3024 41.7627 35.9215 41.5657C35.7305 41.4835 35.5288 41.4288 35.3224 41.4032L8.64899 39.4774C8.41454 39.4597 8.18063 39.5182 7.98212 39.6442Z" fill="#BDEDF8"/>
<path fill-rule="evenodd" clip-rule="evenodd" d="M8.62035 39.903L35.291 41.8301C35.5097 41.8513 35.7206 41.9228 35.907 42.0392C36.1709 42.2017 36.409 42.4026 36.6134 42.6355L63.496 72.1855C63.8152 72.5352 64.0744 72.9352 64.2632 73.3695C64.4365 73.7509 64.5326 74.1629 64.5457 74.5817C64.5584 75.0296 64.557 75.4958 64.557 75.9465L64.5316 75.9324L8.43102 42.959C8.29682 42.8705 8.18663 42.7501 8.1103 42.6086C8.02749 42.4751 7.97896 42.3232 7.96901 42.1664L7.95913 40.8143C7.95913 40.7648 7.95913 40.7083 7.95913 40.6476C7.96034 40.4355 8.02969 40.2295 8.15693 40.0598C8.2065 40.0062 8.26724 39.9641 8.33487 39.9365C8.40249 39.9089 8.47535 39.8965 8.5483 39.9002C8.56243 39.9002 8.58786 39.9002 8.62035 39.9002V39.903ZM35.3517 40.9782L8.6811 39.051C8.64342 39.051 8.59633 39.051 8.53981 39.051C8.34686 39.0473 8.1554 39.0854 7.97858 39.1627C7.80176 39.24 7.64377 39.3547 7.51549 39.4989C7.26217 39.8079 7.11767 40.1917 7.10434 40.591C7.10434 40.6589 7.10434 40.7323 7.10434 40.8242L7.11424 42.1777C7.12579 42.4836 7.21474 42.7816 7.37279 43.0438C7.52441 43.3113 7.74055 43.5367 8.00152 43.6993L64.0979 76.6671C64.2562 76.7656 64.4384 76.8188 64.6248 76.8211C64.7576 76.8223 64.8883 76.7879 65.0033 76.7216C65.1183 76.6552 65.2135 76.5594 65.279 76.4439C65.3671 76.2866 65.4106 76.1083 65.4048 75.9282L65.3949 74.5775C65.3823 74.0445 65.2647 73.5192 65.0487 73.0318C64.8215 72.5108 64.5103 72.0306 64.1275 71.6105L37.2436 42.0604C36.9814 41.7643 36.6761 41.5095 36.3379 41.3045C36.039 41.1207 35.7013 41.0089 35.3517 40.9782Z" fill="#1A87C7"/>
<path fill-rule="evenodd" clip-rule="evenodd" d="M8.64814 39.4773L35.3216 41.403C35.8472 41.4426 36.3954 41.7647 36.928 42.3483L63.812 71.8969C64.5184 72.681 64.962 73.6926 64.9691 74.5813L64.979 75.932C64.979 76.3559 64.6809 76.5169 64.3135 76.3008L8.21298 43.3288C8.01869 43.2007 7.85653 43.0296 7.73916 42.8286C7.62178 42.6277 7.55234 42.4024 7.53621 42.1702L7.52492 40.8195C7.51785 39.9309 7.9417 39.425 8.64814 39.4773Z" fill="#66CEEF"/>
<path fill-rule="evenodd" clip-rule="evenodd" d="M12.791 43.6768L57.4078 69.8995C57.4956 69.9562 57.6011 69.9784 57.7043 69.962C57.8074 69.9456 57.9009 69.8917 57.9667 69.8106C58.0325 69.7295 58.0661 69.627 58.061 69.5227C58.0559 69.4184 58.0125 69.3196 57.9391 69.2454L35.5282 44.6135C35.4558 44.5318 35.3545 44.4811 35.2456 44.4722L13.0128 42.8672C12.9125 42.8564 12.8116 42.8817 12.7282 42.9386C12.6449 42.9955 12.5845 43.0803 12.5582 43.1777C12.5317 43.2752 12.541 43.3788 12.5842 43.47C12.6274 43.5613 12.7017 43.6341 12.7938 43.6754L12.791 43.6768ZM55.4143 67.7421L14.7676 43.852L35.0125 45.3143L55.4143 67.7421Z" fill="#1A87C7"/>
<path fill-rule="evenodd" clip-rule="evenodd" d="M12.9804 43.2939L57.624 69.5336L35.2132 44.9004L12.9804 43.2939Z" fill="white"/>
<path fill-rule="evenodd" clip-rule="evenodd" d="M9.73048 39.1271L60.7631 9.66328C60.8311 9.62201 60.9036 9.58882 60.9793 9.56438C61.0558 9.55096 61.1333 9.54481 61.211 9.54601L87.6004 11.4534L35.8812 41.0952C35.8317 41.0783 35.7837 41.0627 35.7399 41.05L35.7017 41.0416C35.5961 41.0151 35.489 40.9949 35.381 40.9808H35.3528L9.7319 39.13L9.73048 39.1271ZM60.3491 8.92011L7.80051 39.2557L7.77648 39.2684C7.72704 39.295 7.68333 39.3311 7.64783 39.3747C7.61234 39.4182 7.58576 39.4683 7.56963 39.5221C7.55349 39.5759 7.5481 39.6323 7.55377 39.6882C7.55945 39.744 7.57608 39.7982 7.6027 39.8477C7.62933 39.8971 7.66544 39.9409 7.70896 39.9763C7.75248 40.0118 7.80256 40.0384 7.85635 40.0546C7.91014 40.0707 7.96658 40.0761 8.02246 40.0704C8.07833 40.0647 8.13253 40.0481 8.18198 40.0215C8.24979 39.9799 8.32237 39.9467 8.39815 39.9226C8.47414 39.9091 8.55127 39.9029 8.62844 39.9042L35.2807 41.8299C35.3492 41.8382 35.4171 41.8504 35.4841 41.8667L35.5152 41.8751C35.5891 41.8961 35.6617 41.9211 35.7328 41.95C35.7955 41.9808 35.8648 41.9956 35.9345 41.9931C36.0043 41.9906 36.0723 41.971 36.1327 41.9359L88.9144 11.6851C88.9814 11.6476 89.0369 11.5927 89.0751 11.5261C89.1133 11.4596 89.1327 11.3839 89.1313 11.3072C89.1298 11.2304 89.1076 11.1555 89.0669 11.0905C89.0262 11.0254 88.9686 10.9726 88.9003 10.9377C88.7571 10.8582 88.6078 10.7901 88.4538 10.7342C88.2997 10.6837 88.1413 10.6478 87.9805 10.6268H87.9325L61.2604 8.69405H61.2209C61.0739 8.69201 60.9271 8.70527 60.7829 8.73361C60.634 8.77357 60.4914 8.83396 60.359 8.91305L60.3491 8.92011Z" fill="#1A87C7"/>
<path fill-rule="evenodd" clip-rule="evenodd" d="M7.98151 39.6442L60.5612 9.28738C60.7603 9.16031 60.9955 9.10177 61.2309 9.12066L87.9015 11.0464C88.1843 11.0792 88.4572 11.1706 88.7026 11.3148L35.9166 41.5657C35.7256 41.4835 35.5239 41.4288 35.3176 41.4032L8.64838 39.4774C8.41393 39.4597 8.18003 39.5182 7.98151 39.6442Z" fill="#66CEEF"/>
</svg>
