<svg width="29" height="29" viewBox="0 0 29 29" fill="none" xmlns="http://www.w3.org/2000/svg">
<rect x="0.998047" y="0.351562" width="28" height="28" rx="8" fill="#F6F6F6"/>
<g clip-path="url(#clip0)">
<path d="M18.4979 5.01855H11.4979C8.27672 5.01855 5.66455 7.63072 5.66455 10.8519V17.8519C5.66455 21.0731 8.27672 23.6852 11.4979 23.6852H18.4979C21.719 23.6852 24.3312 21.0731 24.3312 17.8519V10.8519C24.3312 7.63072 21.719 5.01855 18.4979 5.01855ZM22.5812 17.8519C22.5812 20.1036 20.7495 21.9352 18.4979 21.9352H11.4979C9.24622 21.9352 7.41455 20.1036 7.41455 17.8519V10.8519C7.41455 8.60022 9.24622 6.76855 11.4979 6.76855H18.4979C20.7495 6.76855 22.5812 8.60022 22.5812 10.8519V17.8519Z" fill="#FF7B00"/>
<path d="M14.9977 9.68555C12.4206 9.68555 10.3311 11.775 10.3311 14.3522C10.3311 16.9294 12.4206 19.0189 14.9977 19.0189C17.5749 19.0189 19.6644 16.9294 19.6644 14.3522C19.6644 11.775 17.5749 9.68555 14.9977 9.68555ZM14.9977 17.2689C13.3901 17.2689 12.0811 15.9599 12.0811 14.3522C12.0811 12.7434 13.3901 11.4355 14.9977 11.4355C16.6054 11.4355 17.9144 12.7434 17.9144 14.3522C17.9144 15.9599 16.6054 17.2689 14.9977 17.2689Z" fill="#FF7B00"/>
<path d="M20.0144 9.95753C20.3578 9.95753 20.6362 9.67913 20.6362 9.3357C20.6362 8.99227 20.3578 8.71387 20.0144 8.71387C19.671 8.71387 19.3926 8.99227 19.3926 9.3357C19.3926 9.67913 19.671 9.95753 20.0144 9.95753Z" fill="#FF7B00"/>
</g>
<defs>
<clipPath id="clip0">
<rect width="18.6667" height="18.6667" fill="white" transform="translate(5.66455 5.01855)"/>
</clipPath>
</defs>
</svg>
