<svg width="29" height="29" viewBox="0 0 29 29" fill="none" xmlns="http://www.w3.org/2000/svg">
<rect x="0.998047" y="0.351562" width="28" height="28" rx="8" fill="#F6F6F6"/>
<g clip-path="url(#clip0)">
<path d="M12.989 16.8264L12.6802 21.1695C13.122 21.1695 13.3134 20.9797 13.5428 20.7519L15.614 18.7724L19.9058 21.9154C20.6929 22.3541 21.2475 22.1231 21.4598 21.1913L24.2769 7.99087L24.2777 7.99009C24.5273 6.82653 23.8569 6.37153 23.09 6.65698L6.53113 12.9966C5.40102 13.4353 5.41813 14.0653 6.33902 14.3508L10.5725 15.6675L20.4059 9.51453C20.8687 9.20809 21.2895 9.37764 20.9433 9.68409L12.989 16.8264Z" fill="#FF7B00"/>
</g>
<defs>
<clipPath id="clip0">
<rect width="18.6667" height="18.6667" fill="white" transform="translate(5.66455 5.01855)"/>
</clipPath>
</defs>
</svg>
