<svg width="29" height="29" viewBox="0 0 29 29" fill="none" xmlns="http://www.w3.org/2000/svg">
<rect x="0.998047" y="0.351562" width="28" height="28" rx="8" fill="#F6F6F6"/>
<path d="M23.3782 9.97781C23.1765 9.2281 22.5854 8.63711 21.8358 8.43524C20.4664 8.06055 14.9886 8.06055 14.9886 8.06055C14.9886 8.06055 9.51094 8.06055 8.14151 8.42104C7.40633 8.62269 6.80081 9.22821 6.59915 9.97781C6.23877 11.3471 6.23877 14.1869 6.23877 14.1869C6.23877 14.1869 6.23877 17.041 6.59915 18.396C6.80103 19.1456 7.39191 19.7366 8.14162 19.9385C9.52536 20.3133 14.9888 20.3133 14.9888 20.3133C14.9888 20.3133 20.4664 20.3133 21.8358 19.9528C22.5855 19.751 23.1765 19.1601 23.3784 18.4105C23.7387 17.041 23.7387 14.2013 23.7387 14.2013C23.7387 14.2013 23.7531 11.3471 23.3782 9.97781ZM13.2445 16.8104V11.5634L17.7996 14.1869L13.2445 16.8104Z" fill="#FF7B00"/>
</svg>
