<svg width="29" height="29" viewBox="0 0 29 29" fill="none" xmlns="http://www.w3.org/2000/svg">
<rect x="0.998047" y="0.351562" width="28" height="28" rx="8" fill="#F6F6F6"/>
<g clip-path="url(#clip0)">
<path d="M24.3312 8.56405C23.6371 8.86855 22.8974 9.07039 22.1262 9.16839C22.9195 8.69472 23.5251 7.95039 23.8097 7.05322C23.0701 7.49422 22.2534 7.80572 21.383 7.97955C20.6807 7.23172 19.6797 6.76855 18.5877 6.76855C16.4691 6.76855 14.7634 8.48822 14.7634 10.5964C14.7634 10.8997 14.7891 11.1914 14.8521 11.4691C11.6706 11.3139 8.85538 9.78905 6.96422 7.46622C6.63405 8.03905 6.44038 8.69472 6.44038 9.40055C6.44038 10.7259 7.12288 11.9007 8.14022 12.5809C7.52538 12.5692 6.92222 12.3907 6.41122 12.1096C6.41122 12.1212 6.41122 12.1364 6.41122 12.1516C6.41122 14.0112 7.73772 15.5559 9.47722 15.9117C9.16572 15.9969 8.82622 16.0377 8.47388 16.0377C8.22888 16.0377 7.98155 16.0237 7.74938 15.9724C8.24522 17.4879 9.65222 18.6021 11.3252 18.6382C10.0232 19.6567 8.37005 20.2704 6.58038 20.2704C6.26655 20.2704 5.96555 20.2564 5.66455 20.2179C7.35972 21.3111 9.36872 21.9352 11.5352 21.9352C18.5772 21.9352 22.4272 16.1019 22.4272 11.0456C22.4272 10.8764 22.4214 10.7131 22.4132 10.5509C23.1727 10.0119 23.8109 9.33872 24.3312 8.56405Z" fill="#FF7B00"/>
</g>
<defs>
<clipPath id="clip0">
<rect width="18.6667" height="18.6667" fill="white" transform="translate(5.66455 5.01855)"/>
</clipPath>
</defs>
</svg>
