<svg width="120" height="32" viewBox="0 0 120 32" fill="none" xmlns="http://www.w3.org/2000/svg">
<path d="M15.1819 2.8349C16.6232 2.76766 18.0673 2.78525 19.5066 2.88758C20.7845 2.96178 22.0418 3.24265 23.2298 3.71926C23.7138 3.9011 24.1564 4.17837 24.5312 4.5346C24.906 4.89082 25.2054 5.31873 25.4116 5.79292C25.8052 6.72995 25.7128 7.99133 25.1343 9.57708C24.6076 10.3034 24.0753 10.7248 23.5347 10.8495C22.9895 10.9706 22.4194 10.9052 21.9157 10.6638C21.3436 10.4 20.801 10.0767 20.2967 9.69906C18.7831 8.97457 17.4764 8.76942 16.3767 9.08361C15.2771 9.3978 14.34 10.15 13.5656 11.3402C12.6955 12.7806 12.0593 14.3498 11.6805 15.9893C11.5239 16.9802 11.595 17.9937 11.8884 18.9529C12.1351 19.8712 12.5948 20.7184 13.2302 21.4258C13.474 21.7225 13.7899 21.9517 14.1476 22.0915C14.5054 22.2312 14.8929 22.2769 15.2733 22.2242C16.0723 22.1654 16.8255 21.829 17.4025 21.2733C18.1039 20.6135 19.709 19.8179 20.671 19.9315C21.3957 20.0616 22.1022 20.2785 22.7751 20.5775C23.4848 20.8547 23.9478 21.2539 24.1613 21.7862C24.3747 22.3185 23.9339 23.6408 23.8674 23.7628C23.3426 24.7679 22.7066 25.7109 21.9712 26.5739C21.1675 27.4708 20.0996 28.0892 18.9217 28.3398C17.6187 28.667 15.8287 28.5644 13.5518 28.0321C11.1491 27.3335 9.28246 26.3484 7.95177 25.0769C6.71365 23.9351 5.77417 22.5073 5.21554 20.9185C4.73601 19.5167 4.50612 18.0417 4.53632 16.5604C5.06306 13.62 5.75427 11.27 6.60998 9.51054C7.46569 7.75107 8.38424 6.425 9.36562 5.53233C10.1821 4.74242 11.1394 4.11242 12.1878 3.6749C12.9188 3.38308 13.6764 3.16303 14.45 3.01787C14.7522 2.95134 14.9961 2.89035 15.1819 2.8349Z" fill="#FF7B00"/>
<path d="M38.0309 11.0973C38.5079 11.11 38.9837 11.1507 39.4559 11.2193C40.8457 11.3472 42.1807 11.824 43.3371 12.6054C44.3227 13.2946 45.1196 14.2202 45.6547 15.2973C46.1696 16.3329 46.4534 17.468 46.4864 18.624C46.5283 19.7437 46.3396 20.86 45.9319 21.9036C45.6371 22.4828 45.2791 23.0276 44.8646 23.5282C44.2607 24.2734 43.5816 24.9543 42.8381 25.5603C41.9399 26.2955 40.9491 26.9097 39.8911 27.3872C38.6801 27.9325 37.3893 28.2798 36.0682 28.4157C34.8191 28.6569 33.5283 28.5612 32.3284 28.1385C31.1216 27.6762 30.1059 26.8206 29.4452 25.71C28.6801 24.5123 28.1783 22.8554 27.9399 20.7393C27.9101 19.0964 28.3631 17.4808 29.2428 16.0929C30.1556 14.618 31.4122 13.3862 32.905 12.5028C34.4529 11.5741 36.2259 11.088 38.0309 11.0973ZM39.625 17.3931C39.1565 17.3737 38.4995 17.6482 37.6567 18.211C36.3334 19.3365 35.4527 20.2809 35.0147 21.0442C34.5767 21.8075 34.5046 22.3306 34.7985 22.6133C35.096 22.8961 35.68 22.8739 36.5505 22.5468C37.421 22.2197 38.5087 21.5294 39.8135 20.4759C40.1463 20.0792 40.3886 19.6147 40.5232 19.1147C40.646 18.7218 40.6333 18.2991 40.4872 17.9143C40.4133 17.7503 40.2912 17.6126 40.1373 17.5195C39.9833 17.4264 39.8046 17.3823 39.625 17.3931Z" fill="#FF7B00"/>
<path d="M55.2384 2.79622C55.9322 2.78455 56.625 2.85151 57.3037 2.99583C57.4719 2.92375 57.9645 3.04388 58.7814 3.35622C59.7892 3.79109 60.7242 4.37827 61.5536 5.09721C62.7008 6.0869 63.6483 7.28662 64.3453 8.63186C65.1715 10.1418 65.6816 12.0575 65.8756 14.3788C66.0281 16.4225 65.728 18.4746 64.9968 20.3891C64.3555 22.041 63.4084 23.5571 62.2051 24.858C61.1794 25.98 59.9689 26.9177 58.6261 27.6303C57.3934 28.2586 56.3113 28.5608 55.3798 28.5368C54.2212 28.4073 53.1077 28.0137 52.1251 27.3863C50.983 26.7043 50.1827 26.0066 49.7243 25.2932C49.3713 24.663 49.1329 23.3425 49.0091 21.3317C48.8853 19.3208 48.8428 17.0965 48.8816 14.6588C48.9241 12.2247 49.0239 10.0651 49.181 8.17998C49.3381 6.29483 49.5229 5.17668 49.7354 4.82553C50.3234 4.04939 51.1569 3.49532 52.1002 3.25365C53.1192 2.95265 54.1759 2.79862 55.2384 2.79622ZM56.2336 11.0798C56.1175 11.0689 56.0004 11.0831 55.8902 11.1215C55.7801 11.1599 55.6795 11.2216 55.5954 11.3023C55.5112 11.3831 55.4454 11.481 55.4024 11.5895C55.3595 11.698 55.3404 11.8144 55.3465 11.9309L55.4907 19.2913C55.5156 19.8235 55.7291 20.1229 56.1338 20.2255C56.6217 20.2937 57.1173 20.1738 57.52 19.8901C58.1049 19.5136 58.5824 18.9921 58.9061 18.3764C59.3321 17.5701 59.5449 16.6683 59.5243 15.7566C59.5455 14.845 59.3498 13.9413 58.9532 13.1202C58.6534 12.5024 58.2036 11.9696 57.6447 11.5705C57.2361 11.2655 56.7433 11.0941 56.2336 11.0798Z" fill="#FF7B00"/>
<path d="M70.9353 11.7314C71.6758 11.3406 72.4963 11.1253 73.3333 11.1021C74.145 11.0471 74.9564 11.2129 75.6815 11.5817C76.0029 11.747 76.2698 12.0016 76.4503 12.3148C76.6307 12.628 76.717 12.9866 76.6989 13.3476L76.7793 17.0791V17.9773C76.7793 18.8451 76.7793 19.7849 76.7793 20.7912C76.7793 21.7975 76.8541 22.7817 76.9512 23.7354L77.148 26.7599C77.1591 27.1757 76.8818 27.55 76.3163 27.8827C75.6778 28.2354 74.9722 28.4498 74.2454 28.512C73.486 28.6065 72.7156 28.4784 72.0276 28.1433C71.3539 27.8106 70.9187 27.1841 70.7385 26.2692C70.3688 24.0403 70.0916 21.8428 69.9068 19.6767C69.7275 17.5563 69.6812 15.4267 69.7682 13.3005C69.8477 12.637 70.2367 12.114 70.9353 11.7314Z" fill="#FF7B00"/>
<path d="M81.3201 6.20914C81.3713 5.7417 81.4841 5.28307 81.6555 4.84518C81.8539 4.41206 82.1366 4.02282 82.4872 3.70023C82.9534 3.27088 83.5052 2.94495 84.1062 2.7438C84.9686 2.45989 85.874 2.32946 86.7814 2.35845C90.4556 2.34366 93.2538 2.51093 95.1759 2.86023C97.098 3.20954 98.0655 3.83145 98.0785 4.72597C98.1311 5.47726 98.1589 6.26736 98.1672 7.09627C98.1867 7.79252 98.1234 8.48862 97.9787 9.16993C97.8345 9.55251 97.3725 9.73732 96.5925 9.72439C95.6802 9.70001 94.7701 9.62039 93.8674 9.48597C92.9145 9.34791 91.9548 9.26277 90.9925 9.23092C90.1017 9.2032 89.4669 9.36122 89.088 9.70498C88.8461 9.95546 88.6666 10.2594 88.564 10.5921C88.4802 10.8742 88.4566 11.1708 88.4947 11.4626C88.5289 11.7193 88.595 11.9708 88.6915 12.2111C88.7978 12.4621 88.9307 12.701 89.088 12.9236C89.8513 12.833 90.5055 12.7804 91.0508 12.7656C91.6017 12.7528 92.1529 12.7788 92.7003 12.8432C93.1887 12.891 93.6642 13.0282 94.103 13.2479C94.2773 13.3299 94.4272 13.4558 94.5381 13.6133C94.6489 13.7708 94.7168 13.9544 94.7351 14.1462C94.749 14.3458 94.7601 14.5565 94.7739 14.7782C94.8016 15.28 94.8183 15.7901 94.8238 16.3113C94.832 16.7938 94.7986 17.2761 94.724 17.7529C94.6719 18.1431 94.5264 18.5149 94.2999 18.8369C94.1924 18.9793 94.0514 19.0928 93.8893 19.1673C93.7272 19.2418 93.5492 19.275 93.3711 19.2638C92.7529 19.2638 92.1014 19.2638 91.4167 19.2638C90.7319 19.2638 89.9169 19.2472 88.9688 19.2333V22.8372C88.9161 23.4305 88.8773 24.107 88.8496 24.8721C88.8108 26.1335 88.7387 27.162 88.6333 27.9521C88.5945 28.2145 88.2092 28.5139 87.4773 28.8503C86.6723 29.2075 85.8213 29.4501 84.949 29.5711C84.1052 29.7274 83.2344 29.6379 82.4401 29.3133C81.7248 28.9972 81.345 28.3208 81.3062 27.2812C81.0678 23.7124 80.9624 20.1084 80.9902 16.4693C81.0179 12.8303 81.1279 9.4102 81.3201 6.20914Z" fill="#FF7B00"/>
<path d="M99.1516 13.234C99.6605 12.7534 100.269 12.3909 100.934 12.1723C101.618 11.9159 102.344 11.7926 103.074 11.8091C103.754 11.8368 104.228 12.0614 104.494 12.4828L105.819 14.8281C106.019 15.1469 106.199 15.4131 106.373 15.6237C106.528 15.8304 106.707 16.0168 106.908 16.1782C107.073 16.322 107.281 16.4085 107.499 16.4249C107.707 16.4109 107.904 16.3235 108.053 16.1782C108.237 16.0135 108.4 15.8274 108.538 15.6237C108.713 15.3722 108.869 15.1081 109.004 14.8337L110.318 12.1251C110.373 11.9521 110.481 11.8008 110.627 11.6928C110.773 11.5848 110.949 11.5256 111.131 11.5236C111.624 11.4949 112.118 11.5695 112.58 11.7426C113.125 11.9265 113.644 12.177 114.127 12.4883C114.555 12.745 114.931 13.0787 115.236 13.4725C115.489 13.8162 115.533 14.1267 115.372 14.404C114.965 15.0119 114.512 15.5875 114.017 16.1255C113.504 16.68 112.988 17.2344 112.475 17.7307C111.81 18.3886 111.24 18.9995 110.765 19.5632C110.358 19.9914 110.076 20.5224 109.95 21.099C109.855 22.0046 109.763 23.1782 109.672 24.6198C109.589 25.9911 109.497 27.2082 109.395 28.2709C109.379 28.4227 109.329 28.569 109.249 28.699C109.169 28.829 109.061 28.9394 108.932 29.0222C108.659 29.2004 108.354 29.3254 108.034 29.3909C107.735 29.4593 107.432 29.5093 107.127 29.5406C106.744 29.585 106.357 29.585 105.974 29.5406C105.584 29.5076 105.206 29.3903 104.865 29.1968C104.715 29.114 104.59 28.9939 104.5 28.8482C104.41 28.7026 104.359 28.5362 104.352 28.3651C104.325 27.5529 104.28 26.5992 104.225 25.5014C104.128 23.777 104.067 22.2855 104.039 21.0352C103.972 20.41 103.699 19.8248 103.263 19.3719C102.716 18.7454 102.132 18.1529 101.514 17.5976C101.009 17.1485 100.524 16.68 100.053 16.1865C99.5961 15.7142 99.1875 15.1979 98.8328 14.6451C98.6036 14.1498 98.7099 13.6795 99.1516 13.234Z" fill="#FF7B00"/>
</svg>
