<svg width="198" height="403" viewBox="0 0 198 403" fill="none" xmlns="http://www.w3.org/2000/svg">
<path fill-rule="evenodd" clip-rule="evenodd" d="M50.4643 110.148C50.6394 110.146 50.8109 110.197 50.957 110.294C51.1032 110.39 51.2173 110.528 51.2851 110.69C51.3529 110.851 51.3712 111.029 51.3377 111.201C51.3042 111.373 51.2204 111.531 51.0969 111.655C50.9735 111.779 50.8159 111.864 50.6443 111.899C50.4726 111.933 50.2945 111.916 50.1326 111.849C49.9707 111.782 49.8323 111.669 49.7349 111.524C49.6375 111.378 49.5855 111.207 49.5855 111.032C49.5855 110.798 49.6779 110.574 49.8426 110.408C50.0072 110.243 50.2307 110.149 50.4643 110.148Z" fill="#B5EAFF"/>
<path fill-rule="evenodd" clip-rule="evenodd" d="M144.348 105.601C144.523 105.601 144.694 105.653 144.839 105.75C144.984 105.847 145.098 105.985 145.165 106.147C145.232 106.308 145.249 106.486 145.215 106.657C145.181 106.829 145.097 106.986 144.973 107.11C144.849 107.234 144.692 107.318 144.52 107.352C144.349 107.386 144.171 107.369 144.009 107.302C143.848 107.235 143.71 107.122 143.612 106.976C143.515 106.831 143.463 106.66 143.463 106.485C143.463 106.369 143.485 106.253 143.529 106.146C143.573 106.038 143.639 105.94 143.721 105.858C143.803 105.776 143.901 105.711 144.008 105.666C144.116 105.622 144.231 105.6 144.348 105.601Z" fill="#B5EAFF"/>
<path fill-rule="evenodd" clip-rule="evenodd" d="M134.817 222.174C134.993 222.173 135.164 222.224 135.311 222.321C135.457 222.417 135.571 222.555 135.639 222.717C135.706 222.879 135.724 223.057 135.69 223.229C135.656 223.401 135.572 223.559 135.448 223.683C135.324 223.807 135.166 223.892 134.994 223.926C134.822 223.96 134.644 223.942 134.482 223.874C134.32 223.806 134.182 223.692 134.085 223.546C133.989 223.4 133.937 223.228 133.939 223.053C133.939 222.82 134.031 222.596 134.196 222.431C134.361 222.266 134.584 222.174 134.817 222.174Z" fill="#B5EAFF"/>
<path fill-rule="evenodd" clip-rule="evenodd" d="M-0.893146 52.753C-0.71803 52.7519 -0.546482 52.8028 -0.400352 52.8993C-0.254221 52.9958 -0.14003 53.1336 -0.0722659 53.2951C-0.00450145 53.4565 0.0137385 53.6345 -0.0197615 53.8064C-0.0532615 53.9783 -0.137051 54.1363 -0.260495 54.2605C-0.38394 54.3847 -0.541438 54.4695 -0.713112 54.5041C-0.884787 54.5387 -1.06287 54.5215 -1.22476 54.4547C-1.38666 54.3879 -1.52507 54.2746 -1.62248 54.1291C-1.71988 53.9835 -1.77193 53.8124 -1.77193 53.6372C-1.77265 53.5214 -1.75041 53.4065 -1.70656 53.2993C-1.66272 53.192 -1.59814 53.0945 -1.51647 53.0123C-1.43479 52.9301 -1.33767 52.8649 -1.23069 52.8204C-1.12372 52.7759 -1.00901 52.753 -0.893146 52.753Z" fill="#B5EAFF"/>
<path fill-rule="evenodd" clip-rule="evenodd" d="M1.81976 260.579C1.99488 260.578 2.16636 260.629 2.31249 260.726C2.45862 260.822 2.57281 260.96 2.64057 261.121C2.70834 261.283 2.72665 261.461 2.69315 261.633C2.65965 261.804 2.57586 261.963 2.45241 262.087C2.32897 262.211 2.1714 262.296 1.99973 262.33C1.82805 262.365 1.64997 262.348 1.48808 262.281C1.32618 262.214 1.18777 262.101 1.09036 261.955C0.992957 261.81 0.940982 261.639 0.940979 261.463C0.940975 261.23 1.03339 261.006 1.19804 260.84C1.36269 260.674 1.58619 260.581 1.81976 260.579Z" fill="#B5EAFF"/>
<path fill-rule="evenodd" clip-rule="evenodd" d="M10.5093 120.081C10.6844 120.081 10.8556 120.133 11.0012 120.231C11.1467 120.328 11.26 120.466 11.3268 120.628C11.3935 120.79 11.4107 120.968 11.3762 121.14C11.3416 121.312 11.2568 121.469 11.1326 121.593C11.0084 121.716 10.8504 121.8 10.6785 121.833C10.5066 121.867 10.3286 121.849 10.1672 121.781C10.0057 121.713 9.86794 121.599 9.77144 121.453C9.67494 121.307 9.62397 121.135 9.62506 120.96C9.62505 120.844 9.64798 120.729 9.69248 120.622C9.73699 120.515 9.8022 120.418 9.88438 120.337C9.96656 120.255 10.0641 120.19 10.1714 120.146C10.2786 120.103 10.3934 120.08 10.5093 120.081Z" fill="#B5EAFF"/>
<path fill-rule="evenodd" clip-rule="evenodd" d="M112.569 95.6124C112.745 95.6113 112.916 95.6624 113.063 95.7591C113.209 95.8559 113.323 95.9939 113.391 96.1557C113.458 96.3175 113.476 96.4957 113.442 96.6678C113.408 96.8398 113.324 96.9979 113.2 97.1219C113.076 97.2459 112.918 97.3302 112.746 97.3641C112.574 97.3981 112.396 97.3801 112.234 97.3125C112.072 97.2449 111.934 97.1307 111.837 96.9845C111.741 96.8382 111.689 96.6665 111.691 96.4912C111.691 96.2581 111.783 96.0346 111.948 95.8698C112.113 95.705 112.336 95.6124 112.569 95.6124Z" fill="#B5EAFF"/>
<path fill-rule="evenodd" clip-rule="evenodd" d="M9.11761 135.943C9.29273 135.942 9.46421 135.993 9.61034 136.09C9.75647 136.186 9.87066 136.324 9.93843 136.485C10.0062 136.647 10.0245 136.825 9.991 136.997C9.9575 137.169 9.87371 137.327 9.75026 137.451C9.62682 137.575 9.46925 137.66 9.29758 137.695C9.12591 137.729 8.94782 137.712 8.78593 137.645C8.62404 137.578 8.48562 137.465 8.38821 137.319C8.29081 137.174 8.23883 137.003 8.23883 136.828C8.23883 136.594 8.33124 136.37 8.49589 136.204C8.66054 136.039 8.88404 135.945 9.11761 135.943Z" fill="#B5EAFF"/>
<path fill-rule="evenodd" clip-rule="evenodd" d="M7.13089 346.684C7.30578 346.684 7.47674 346.736 7.62215 346.833C7.76756 346.93 7.88091 347.068 7.94784 347.23C8.01476 347.391 8.03226 347.569 7.99814 347.74C7.96402 347.912 7.87981 348.069 7.75614 348.193C7.63248 348.317 7.47492 348.401 7.30339 348.435C7.13186 348.469 6.95405 348.452 6.79247 348.385C6.6309 348.318 6.49279 348.205 6.39563 348.059C6.29846 347.914 6.24664 347.743 6.24664 347.568C6.24807 347.334 6.34171 347.11 6.50723 346.944C6.67275 346.779 6.89681 346.685 7.13089 346.684Z" fill="#B5EAFF"/>
<path fill-rule="evenodd" clip-rule="evenodd" d="M64.5581 346.684C64.733 346.684 64.904 346.736 65.0494 346.833C65.1948 346.93 65.3082 347.068 65.3751 347.23C65.442 347.391 65.4595 347.569 65.4254 347.74C65.3913 347.912 65.3071 348.069 65.1834 348.193C65.0597 348.317 64.9022 348.401 64.7306 348.435C64.5591 348.469 64.3814 348.452 64.2198 348.385C64.0582 348.318 63.9201 348.205 63.8229 348.059C63.7258 347.914 63.6739 347.743 63.6739 347.568C63.6739 347.333 63.767 347.108 63.9329 346.943C64.0987 346.777 64.3236 346.684 64.5581 346.684Z" fill="#B5EAFF"/>
<path fill-rule="evenodd" clip-rule="evenodd" d="M-21.9457 396.748C-18.627 396.633 -15.3029 396.431 -11.9952 396.131C11.4623 394.202 34.3757 388.037 55.6335 377.933C56.0429 377.715 56.474 377.524 56.8998 377.333C59.3124 376.176 61.7086 374.997 64.0557 373.73C76.0699 367.381 87.3944 359.804 97.8481 351.122C100.512 348.9 103.132 346.602 105.675 344.239C109.478 340.735 113.106 337.085 116.559 333.29C125.676 323.458 133.742 312.701 140.625 301.195C143.136 297.068 145.461 292.876 147.639 288.559C160.698 262.74 168.051 234.415 169.199 205.505C169.515 197.211 169.285 188.906 168.512 180.642C168.206 177.012 167.775 173.426 167.267 169.818C164.318 149.672 158.24 130.111 149.255 111.84C133.245 79.3248 109.955 53.3868 82.4776 34.7794C81.5715 34.1353 80.6436 33.5077 79.7484 32.9072C75.0761 29.8615 70.3001 27.0231 65.4203 24.3922C63.8483 23.5407 62.2472 22.7092 60.617 21.8978C35.2092 9.08495 7.35868 1.8441 -21.0723 0.659407L-21.9238 0.659407L-21.9457 396.748Z" fill="url(#paint0_radial)"/>
<g style="mix-blend-mode:multiply" opacity="0.5">
<g style="mix-blend-mode:multiply" opacity="0.5">
<path fill-rule="evenodd" clip-rule="evenodd" d="M-21.9454 313.651C-19.6474 314.688 -17.9554 316.887 -16.165 318.842C-12.6717 322.662 -8.24499 325.812 -4.25496 329.169C-0.619717 332.242 2.01665 336.466 5.63005 339.802C11.5087 345.162 18.5499 349.403 25.3728 353.415C32.8289 357.727 40.2631 362.017 47.3971 366.82C52.4424 370.18 58.0929 372.527 64.0341 373.73C76.0483 367.381 87.3728 359.804 97.8266 351.122L97.2808 351.062C89.328 350.069 81.5444 347.154 73.5371 346.597C68.4444 346.242 63.45 345.68 58.9633 342.995C55.9285 341.188 52.6043 339.387 49.8151 337.214C47.3098 335.266 45.5085 332.635 43.1178 330.582C39.9137 327.793 36.6552 326.276 34.0952 322.761C31.7099 319.54 28.9862 316.822 26.9284 313.367C25.673 311.265 20.0073 305.125 23.2168 302.789C24.1337 302.15 28.1565 302.548 29.1554 302.985C33.6804 304.852 38.3964 308.564 42.2554 311.418C49.4877 316.74 56.0649 322.755 63.6138 327.706C71.1627 332.657 80.1197 336.767 88.6238 339.78C94.1385 341.821 99.8409 343.315 105.648 344.239C109.451 340.735 113.079 337.085 116.532 333.29C113.89 332.013 111.26 330.506 108.492 329.556C105.217 328.415 101.866 327.64 98.5143 326.685C88.9295 323.956 79.5412 321.533 70.5295 317.16C67.0799 315.523 63.652 313.656 60.3006 311.757C56.8346 309.781 53.9417 307.024 50.4756 305.07C44.2805 301.615 38.238 297.702 32.2721 293.848C24.9088 289.083 18.2115 281.796 12.0108 275.617C1.92928 265.547 -8.42511 254.805 -17.0875 243.495C-18.6777 241.428 -20.2897 239.377 -21.9235 237.343L-21.9454 313.651Z" fill="#C4B0B8"/>
</g>
<g style="mix-blend-mode:multiply" opacity="0.5">
<path fill-rule="evenodd" clip-rule="evenodd" d="M-21.9456 190.118C-18.9217 194.168 -15.9414 198.262 -12.8411 202.252C0.357124 219.271 13.9374 236.274 30.2087 250.493C33.8385 253.675 37.9049 255.858 41.8294 258.636C46.5017 261.977 50.6883 265.65 55.7372 268.429C59.8637 270.65 63.9247 273.341 68.1986 275.333C73.2312 277.724 78.6949 278.936 83.9294 280.792C90.4794 283.09 96.4836 286.998 102.886 289.694C106.74 291.332 110.468 292.969 114.409 294.372C119.07 296.048 123.813 299.088 128.726 299.83C132.509 300.376 136.608 301.009 140.603 301.244C143.114 297.118 145.439 292.926 147.617 288.608C144.293 288.286 141.34 287.38 137.579 286.354C133.819 285.328 130.129 285.164 126.253 284.716C122.858 284.334 119.911 283.024 116.767 281.873C111.051 279.738 105.671 276.795 100.79 273.134C94.494 268.428 87.8339 264.23 80.8728 260.58C72.0085 255.858 62.3145 252.829 53.3137 248.326C45.2081 244.303 36.7641 239.434 29.9466 233.381C26.6716 230.461 23.9425 227.317 20.4492 224.549C16.2627 221.236 13.1678 216.498 10.122 212.197C7.311 208.218 4.06329 204.659 1.03391 200.855C-2.37208 196.559 -5.28679 191.881 -8.75829 187.591C-13.2341 182.078 -17.6008 176.489 -21.9456 170.883L-21.9456 190.118Z" fill="#C4B0B8"/>
</g>
<g style="mix-blend-mode:multiply" opacity="0.5">
<path fill-rule="evenodd" clip-rule="evenodd" d="M-21.9454 88.1505C-21.7216 89.4277 -21.4924 90.6722 -21.2795 91.8731C-20.3571 96.9711 -16.7109 101.305 -15.379 106.299C-17.8025 107.271 -20.1987 103.57 -21.929 99.9077L-21.929 119.65C-20.391 121.63 -18.7128 123.496 -16.9074 125.234C-5.99076 136.495 5.58639 148.088 17.3218 158.961C31.3278 171.919 42.692 187.492 57.0638 200.046C63.39 205.603 69.4651 211.64 76.1679 216.727C82.4013 221.426 89.9502 224.598 96.4565 228.915C102.704 233.047 109.303 236.621 116.177 239.597C121.505 241.879 126.505 244.684 131.941 246.791C136.007 248.32 140.189 248.62 144.222 249.984C148.176 251.352 152.372 251.878 156.542 251.529C158.267 251.376 160.128 251.393 162 251.393C166.18 236.425 168.589 221.018 169.178 205.488C160.051 200.745 152.29 192.934 143.076 188.267C134.818 184.119 127.471 178.142 119.829 172.924C111.844 167.465 104.093 161.936 96.5547 155.817C91.5581 151.782 86.9858 147.249 82.9089 142.286C80.9494 139.928 79.492 136.975 77.8545 134.312C75.9114 131.151 73.215 127.833 71.8504 124.383C68.6536 116.174 64.6878 108.287 60.0058 100.825C56.4579 95.0498 52.8664 89.3623 49.384 83.5601C46.502 78.7567 42.6756 74.8977 39.7118 70.078C36.475 64.7616 33.3255 60.0565 31.5843 54.0414C30.3016 49.7075 30.2525 47.2677 31.1149 42.9938C29.1827 40.8105 27.4524 43.0702 26.4262 44.5331C24.9852 46.6181 24.6468 49.844 25.1053 52.5404C25.6511 55.6189 27.1576 57.5293 28.2602 60.2639C28.8061 61.6776 28.6751 63.0641 29.3082 64.4505C30.322 66.3944 31.2134 68.3997 31.9774 70.4546C34.2699 77.0756 40.7107 80.5634 44.1931 86.2838C45.8306 88.9583 47.5227 91.5729 49.1056 94.2857C49.9437 95.6295 50.6111 97.0725 51.0924 98.5814C51.8184 100.825 51.9112 101.272 51.2289 103.292C49.384 108.788 42.5938 110.098 39.2697 105.164C37.8778 103.079 35.8528 100.437 35.0613 98.0683C33.855 94.4549 32.7579 90.3666 30.8966 86.9333C29.4229 84.2423 27.0758 78.9641 24.6632 77.0374C23.6609 76.4324 22.5471 76.0352 21.3882 75.8693C18.7901 75.5418 17.4254 75.509 14.8819 74.3846C10.0862 72.2294 5.82135 69.049 2.38776 65.0673C-0.745314 61.5084 -2.02252 55.537 -5.48309 52.3275C-12.2896 46.045 -19.4564 60.1766 -21.9072 67.2233L-21.9454 88.1505Z" fill="#C4B0B8"/>
</g>
<g style="mix-blend-mode:multiply" opacity="0.5">
<path fill-rule="evenodd" clip-rule="evenodd" d="M168.512 180.626C168.206 176.996 167.78 173.41 167.267 169.802C163.725 166.527 160.717 162.532 157.278 159.431C153.354 155.889 148.496 153.536 144.511 149.961C141.007 146.806 138.054 143.247 134.485 140.213C125.544 132.571 117.345 123.401 109.955 114.286C104.278 107.359 99.584 101.071 96.1998 92.818C93.236 85.6293 90.4468 78.9156 88.4109 71.4159C86.1675 63.1629 82.8106 55.8214 82.4558 47.2136C82.3139 43.6657 82.7779 40.2925 82.6523 36.8428C82.6196 36.1369 82.5596 35.4492 82.4722 34.7796C81.5661 34.1355 80.6382 33.5078 79.7431 32.9074C75.0707 29.8617 70.2947 27.0233 65.415 24.3924C63.843 23.5409 62.2418 22.7094 60.6116 21.898C60.9355 23.7683 61.3303 25.6697 61.7961 27.6019C63.2425 33.6061 64.0121 39.8231 65.9226 45.6962C68.0131 52.1098 71.0479 58.4578 73.5642 64.7512C79.8304 80.3675 87.6358 95.0013 94.7916 110.181C98.9072 118.876 103.394 127.882 109.114 135.699C115.397 144.257 122.176 153.274 130.495 160.004C132.607 161.718 134.861 163.607 137.077 165.146C139.43 166.784 142.301 167.379 144.719 168.967C146.815 170.364 148.791 172.16 150.816 173.678C153.681 175.801 154.893 176.112 158.075 177.275C161.58 178.568 164.8 180.08 168.512 180.626Z" fill="#C4B0B8"/>
</g>
</g>
<g style="mix-blend-mode:multiply" opacity="0.65">
<g style="mix-blend-mode:multiply" opacity="0.65">
<path fill-rule="evenodd" clip-rule="evenodd" d="M-12.8139 78.6695C-12.9886 74.7777 -12.6611 71.1152 -10.8926 67.529C-10.0575 65.8315 -8.58919 64.4178 -6.60781 64.7071C-4.71923 64.9909 -2.53045 66.4592 -1.22045 67.8292C0.962879 70.1272 3.22808 72.5616 5.25858 75.0069C7.46097 77.5947 9.29757 80.4726 10.7169 83.5601C11.6339 85.5742 12.409 87.5392 13.1622 89.6188C13.9755 91.8677 15.2801 93.7781 16.53 95.8031C17.78 97.8282 18.959 100.001 20.3945 101.938C21.4479 103.357 22.6379 104.667 23.6695 106.098C26.6287 109.984 28.8895 114.356 30.3505 119.017C31.4094 122.538 31.4749 125.638 29.1278 128.58C27.3975 130.764 25.1378 132.51 22.2613 132.745C17.5071 133.138 12.9384 130.262 9.34139 127.467C4.68544 123.848 0.608115 119.001 -2.82517 114.236C-6.83703 108.636 -10.2485 101.933 -11.9569 95.2355C-12.6338 92.5882 -12.6774 89.9682 -13.0486 87.2936C-13.3543 85.1103 -13.6709 82.9979 -13.3652 80.8091C-13.2451 79.9413 -13.1632 79.128 -13.1086 78.2437C-13.0431 77.6542 -12.7048 76.5898 -12.8139 78.6695Z" fill="#C4B0B8"/>
</g>
<g style="mix-blend-mode:multiply" opacity="0.65">
<path fill-rule="evenodd" clip-rule="evenodd" d="M21.1038 144.988C21.8647 144.824 22.6518 144.824 23.4127 144.988C23.5123 145.157 23.6255 145.318 23.7511 145.468C24.3155 145.95 24.8479 146.468 25.345 147.019C26.6713 148.443 27.4355 150.261 28.5053 151.871C30.3885 154.699 37.7844 157.679 33.5815 161.461C29.8644 164.824 25.0502 159.982 22.4411 157.471C21.1529 156.232 20.0449 154.95 19.6683 153.165C19.4281 152.035 18.9642 150.818 18.9478 149.65C18.9314 148.356 19.3462 146.036 21.1038 144.988Z" fill="#C4B0B8"/>
</g>
<g style="mix-blend-mode:multiply" opacity="0.65">
<path fill-rule="evenodd" clip-rule="evenodd" d="M127.874 197.699C128.42 199.664 128.731 201.574 129.637 203.403C131.113 206.469 133.12 209.251 135.565 211.618C138.474 214.347 142.956 216.65 147.077 216.132C148.769 215.919 151.312 215.297 151.765 213.364C152.42 210.559 149.757 206.973 148.343 204.827C146.209 201.585 143.523 199.085 140.488 196.733C138.551 195.226 136.668 193.66 134.703 192.181C133.376 191.065 131.79 190.301 130.09 189.959C128.671 189.73 126.99 189.861 125.997 191.094C125.298 191.951 125.407 193.823 125.593 194.822C125.721 195.447 125.994 196.033 126.39 196.533C126.787 197.032 127.295 197.432 127.874 197.699Z" fill="#C4B0B8"/>
</g>
<g style="mix-blend-mode:multiply" opacity="0.65">
<path fill-rule="evenodd" clip-rule="evenodd" d="M102.455 118.341C103.428 119.523 104.474 120.642 105.588 121.692C105.861 121.097 106.439 121.512 106.876 121.07C107.422 120.492 107.204 119.072 107.083 118.385C106.832 116.971 106.035 115.956 105.277 114.717C104.278 113.079 103.41 111.163 101.969 109.87C100.648 108.685 99.2399 108.412 99.2399 110.514C99.2999 113.489 100.943 115.917 102.433 118.341L102.455 118.341Z" fill="#C4B0B8"/>
</g>
<g style="mix-blend-mode:multiply" opacity="0.65">
<path fill-rule="evenodd" clip-rule="evenodd" d="M65.0326 261.125C65.704 260.688 66.2662 260.213 67.0577 260.142C67.8147 260.137 68.5707 260.197 69.3174 260.322C71.8699 260.623 74.3871 261.172 76.8335 261.96C78.3206 262.511 79.7458 263.218 81.0856 264.067C82.5102 264.869 84.1094 265.568 85.3594 266.632C86.9641 268.002 88.7818 269.711 89.8462 271.545C91.1562 273.815 90.1627 275.846 88.0121 277.227C86.3746 278.269 84.1913 277.773 82.3628 277.543C79.9993 277.265 77.7123 276.452 75.4362 275.742C70.5728 274.268 65.895 272.194 61.1627 270.366C59.7217 269.82 55.4369 267.877 56.0973 265.671C56.3703 264.744 57.7349 263.608 58.3899 262.991C59.2523 262.216 60.2621 261.512 61.1572 260.775C62.9967 259.291 66.1134 258.368 65.0326 261.125Z" fill="#C4B0B8"/>
</g>
<g style="mix-blend-mode:multiply" opacity="0.65">
<path fill-rule="evenodd" clip-rule="evenodd" d="M39.3949 354.462C35.6341 353.916 32.6812 352.202 29.2806 350.488C24.581 348.125 19.7231 346.269 14.8543 344.298C12.2289 343.207 9.51063 342.066 7.49651 340.014C6.11841 338.668 4.82412 337.239 3.62105 335.734C1.51959 333.005 0.089514 329.828 -1.4934 326.799C-4.47365 321.062 -7.66675 315.298 -10.0084 309.25C-11.4494 305.55 -14.6479 294.256 -6.97897 295.545C-5.22685 295.839 -4.00419 297.182 -2.61232 298.208C-0.80561 299.513 1.07748 300.708 2.81323 302.116C6.99976 305.506 11.2791 308.858 15.3128 312.427C18.6369 315.364 21.6936 318.535 25.0996 321.373C28.118 323.884 31.131 326.422 34.0403 329.064C36.9285 331.743 39.4932 334.751 41.6819 338.027C42.7736 339.626 44.0127 341.094 45.0607 342.71C46.1086 344.326 47.3804 346.531 47.757 348.387C48.5703 352.371 44.9569 355.008 39.3949 354.462Z" fill="#C4B0B8"/>
</g>
<g style="mix-blend-mode:multiply" opacity="0.65">
<path fill-rule="evenodd" clip-rule="evenodd" d="M44.5419 359.107C45.0877 358.812 45.7864 358.228 46.4523 358.321C46.9981 358.398 47.6149 358.971 48.0898 359.233C49.0231 359.778 49.7272 360.101 50.3549 361.018C51.2719 362.398 50.7425 363.501 49.2087 364.069C48.3572 364.385 47.2437 363.823 46.3922 363.588C45.0494 363.217 43.4393 361.285 43.5703 359.724L44.5419 359.107Z" fill="#C4B0B8"/>
</g>
<g style="mix-blend-mode:multiply" opacity="0.65">
<path fill-rule="evenodd" clip-rule="evenodd" d="M30.9617 136.402C32.4682 138.406 35.241 140.818 35.3284 143.465C35.3922 144.442 35.2794 145.422 34.9954 146.358C34.2858 148.209 32.7411 148.269 31.3874 146.981C29.2477 144.923 27.5284 138.335 31.2455 136.899L30.9617 136.402Z" fill="#C4B0B8"/>
</g>
<g style="mix-blend-mode:multiply" opacity="0.65">
<path fill-rule="evenodd" clip-rule="evenodd" d="M56.4687 106.251C55.0993 109.789 54.7021 113.629 55.3183 117.372C55.9345 121.116 57.5417 124.626 59.9729 127.538C62.451 130.409 65.726 132.625 68.8045 134.798C69.656 135.398 70.4802 136.13 71.5336 136.337C72.0795 136.446 72.6253 136.299 73.1711 136.512C74.4866 134.836 74.3283 130.797 73.6405 128.805C72.774 126.614 71.5451 124.584 70.0053 122.8C69.0446 121.709 67.7238 121.076 66.8559 119.897C65.0862 117.516 63.5507 114.969 62.2709 112.293C61.6159 110.847 61.4739 109.357 60.2622 108.227C59.3779 107.408 58.1717 107.179 57.1619 106.589C56.687 107.135 56.7798 108.118 56.4687 106.251Z" fill="#C4B0B8"/>
</g>
<g style="mix-blend-mode:multiply" opacity="0.65">
<path fill-rule="evenodd" clip-rule="evenodd" d="M74.4806 143.356C77.4445 141.806 77.6083 142.493 79.1366 145.277C79.8898 146.653 79.6824 148.438 77.8484 148.885C76.7567 149.158 75.9434 148.399 75.1192 147.793C73.7273 146.702 73.0669 145.943 73.4817 143.973L74.4806 143.356Z" fill="#C4B0B8"/>
</g>
<g style="mix-blend-mode:multiply" opacity="0.65">
<path fill-rule="evenodd" clip-rule="evenodd" d="M2.44731 293.684C2.63158 292.822 3.10784 292.051 3.7955 291.5C5.57491 292.27 7.02136 292.374 8.70799 293.684C9.97261 294.679 11.1076 295.829 12.0867 297.106C12.6736 298.034 13.0896 299.06 13.3148 300.135C13.5386 301.227 13.3148 301.309 12.5615 301.456C11.9338 301.576 10.7385 301.129 10.0835 301.052C8.78441 300.905 7.77459 301.052 6.63926 300.283C4.29218 298.689 2.91668 296.697 1.45385 294.317L2.44731 293.684Z" fill="#C4B0B8"/>
</g>
<g style="mix-blend-mode:multiply" opacity="0.65">
<path fill-rule="evenodd" clip-rule="evenodd" d="M81.8331 150.866C81.0198 152.023 81.0853 152.984 81.6038 154.316C82.0677 155.506 83.0776 156.499 83.8963 157.487C85.4465 159.316 87.6244 160.718 89.4856 162.209C91.7836 164.054 94.218 165.795 96.3959 167.776C98.675 169.97 100.8 172.319 102.755 174.806C105.91 178.589 108.841 182.53 112.099 186.214C113.056 187.297 114.106 188.292 115.238 189.189C116.068 189.86 116.592 190.701 117.356 191.416C118.246 192.246 119.092 193.054 120.298 193.212C120.697 193.304 121.114 193.289 121.505 193.167C121.897 193.045 122.249 192.821 122.525 192.519C123.071 191.891 123.24 190.881 123.818 190.172C124.593 189.09 125.602 188.198 126.771 187.563C127.968 187.062 129.303 187.004 130.538 187.399C132.055 187.764 133.649 188.288 135.199 188.349C136.203 188.387 136.766 188.19 135.81 187.257C134.855 186.323 133.289 185.477 132.017 184.713C129.517 183.207 126.924 181.919 124.473 180.308C123.109 179.413 121.886 178.382 120.56 177.443C119.233 176.504 118.016 175.723 116.826 174.757C114.463 172.836 111.827 171.171 109.338 169.403C105.277 166.51 101.15 163.677 97.1655 160.669C95.3079 159.234 93.3218 157.973 91.2323 156.903C90.1024 156.357 88.8416 156.019 87.7281 155.429C86.7892 154.927 86.1506 154.054 85.3864 153.339C84.938 152.983 84.4322 152.706 83.8909 152.52C82.7446 152.002 81.4783 151.565 80.6159 150.642C80.5449 150.675 80.4685 150.702 81.8331 150.866Z" fill="#C4B0B8"/>
</g>
<g style="mix-blend-mode:multiply" opacity="0.65">
<path fill-rule="evenodd" clip-rule="evenodd" d="M33.5983 133.4C33.5492 132.979 33.0525 131.216 33.5983 130.632C34.0186 130.179 34.4935 130.409 34.8919 130.72C35.5357 131.341 36.1205 132.021 36.6386 132.75C37.6757 133.956 38.7292 135.086 39.8208 136.238C40.716 137.188 41.6821 138.05 42.55 139.016C43.6416 140.206 44.6514 141.543 45.825 142.668C46.873 143.683 47.8773 144.6 48.827 145.714C49.9733 147.062 51.376 148.083 52.4677 149.491C54.7329 152.406 56.9162 155.435 59.0177 158.481C61.1767 161.58 63.7768 164.348 66.7358 166.695C68.0731 167.787 69.394 168.879 70.7749 169.905C71.9758 170.8 73.3349 171.379 74.5958 172.176C77.3577 173.917 80.4635 175.298 83.0671 177.263C85.8738 179.49 88.4968 181.94 90.9107 184.588C94.4532 188.272 97.8973 192.055 101.451 195.734C105.544 199.964 109.78 204.112 114.049 208.162C115.904 209.92 118.137 211.983 120.342 213.271C122.165 214.363 123.999 215.526 125.866 216.503C127.329 217.272 128.786 218.047 130.232 218.85C131.679 219.652 133.196 220.182 134.637 220.946C135.778 221.546 136.821 222.387 138.082 222.649C139.351 222.892 140.606 223.201 141.842 223.577C142.71 223.844 143.589 223.964 144.462 224.183C145.232 224.379 145.707 224.685 146.526 224.641C147.275 224.618 148.021 224.523 148.753 224.357C149.844 224.106 151.056 224.412 152.169 224.281C152.491 224.243 152.841 224.079 153.152 224.057C153.737 224.092 154.317 224.187 154.882 224.341C155.428 224.417 156.007 224.368 156.574 224.434C157.399 224.532 158.152 224.979 158.976 225.149C160.068 225.4 161.072 225.804 162.191 226.017C163.31 226.229 164.221 225.918 165.275 225.547C165.4 225.749 165.75 225.804 165.821 225.918C166.061 226.24 165.941 226.131 165.99 226.464C166.066 227.183 166.022 227.91 165.859 228.615C165.438 231.009 164.644 233.322 163.506 235.47C162.764 236.742 161.754 238.254 160.351 238.882C159.961 239.074 159.523 239.148 159.091 239.094C158.659 239.039 158.253 238.859 157.923 238.576C156.607 237.67 155.603 236.36 154.255 235.492C152.704 234.493 151.127 233.494 149.566 232.506C148.594 231.884 147.552 231.491 146.613 230.809C145.646 230.082 144.59 229.484 143.469 229.03C141.598 228.175 139.677 227.437 137.716 226.819C134.73 226.011 131.712 224.898 128.824 223.844C126.497 223.079 124.214 222.186 121.985 221.17C120.256 220.25 118.657 219.105 117.231 217.764C116.348 216.851 115.512 215.894 114.725 214.898C113.776 213.855 112.848 212.867 111.996 211.748C110.599 209.92 109.267 208.097 108.001 206.192C107.021 204.75 105.864 203.437 104.557 202.284C103.465 201.356 102.559 200.346 101.282 199.751C100.25 199.276 99.2783 198.703 98.263 198.185C96.8384 197.453 95.2773 196.929 93.8964 196.138C92.1006 195.111 90.1574 193.916 88.1597 193.376C87.1062 193.086 82.6577 191.842 82.8324 193.976C82.9579 195.444 84.4699 197.137 85.5615 198.097C86.1544 198.508 86.7917 198.85 87.4611 199.118C88.0779 199.462 88.7274 199.707 89.3496 200.035C90.4176 200.68 91.3927 201.468 92.248 202.377C94.0219 204.041 95.8887 205.575 97.6408 207.251C99.5621 209.085 101.784 210.597 103.645 212.491C107.357 216.257 110.741 220.476 115.326 223.238C117.509 224.554 119.447 226.197 121.586 227.561C123.573 228.828 125.691 229.865 127.705 231.065C130.691 232.85 133.436 234.843 136.586 236.3C137.836 236.879 139.124 236.889 140.472 237.01C141.718 237.104 142.968 237.133 144.217 237.097C145.538 237.001 146.862 237.222 148.081 237.741C149.019 238.126 149.888 238.663 150.652 239.329C150.379 239.434 150.08 239.455 149.795 239.389C148.976 239.297 148.158 239.089 147.333 239.007C146.051 238.876 144.904 238.811 143.78 239.444C142.697 240.028 141.471 240.293 140.243 240.208C137.324 240.076 134.434 239.566 131.646 238.691C130.07 238.29 128.563 237.656 127.176 236.808C125.8 235.88 124.501 234.837 123.148 233.882C120.418 231.955 117.782 229.897 115.14 227.845C112.286 225.624 109.807 222.96 107.166 220.493C105.921 219.336 104.835 218.02 103.579 216.874C101.942 215.395 100.354 213.904 98.7434 212.42C96.1452 210.035 92.9466 208.13 89.8572 206.454C88.4708 205.706 87.0626 204.997 85.698 204.211C83.9677 203.212 82.3575 202.027 80.5999 201.077C77.5536 199.423 74.6214 197.567 71.823 195.521C69.0938 193.55 66.9378 190.767 64.6562 188.31C62.3746 185.854 60.0329 183.354 57.8005 180.8C55.2242 177.847 52.495 175.112 50.1261 171.979C48.2266 169.474 46.2016 167.067 44.4385 164.479C43.4069 162.967 42.2552 161.668 41.6329 159.922C41.2225 158.624 40.9894 157.276 40.9397 155.915C40.5795 151.134 39.5752 145.927 37.0534 141.784C36.3165 140.577 35.8035 139.251 35.0939 138.023C34.5444 137.096 34.0856 136.118 33.7239 135.103C33.2544 133.831 33.2872 132.974 33.5983 133.4Z" fill="#C4B0B8"/>
</g>
<g style="mix-blend-mode:multiply" opacity="0.65">
<path fill-rule="evenodd" clip-rule="evenodd" d="M37.8173 178.305C38.1066 177.536 38.3632 176.351 39.0837 175.773C39.957 175.047 41.4635 175.663 42.3041 176.177C44.0671 177.268 45.4263 179.282 46.9218 180.685C48.8978 182.541 50.9773 184.288 53.0078 186.073C54.9214 187.694 56.7164 189.451 58.3789 191.329C59.0666 192.131 60.2292 193.283 60.0164 194.446C59.5306 196.864 57.047 195.816 55.4587 195.199C52.5548 194.069 50.2623 191.656 48.079 189.506C46.5179 187.972 45.0496 186.466 43.6359 184.79C42.6043 183.573 41.5181 182.568 40.3609 181.466C39.9024 181.024 39.635 180.505 39.2038 180.057C38.9363 179.795 37.8501 179.2 37.8173 178.305Z" fill="#C4B0B8"/>
</g>
<g style="mix-blend-mode:multiply" opacity="0.65">
<path fill-rule="evenodd" clip-rule="evenodd" d="M152.584 167.924C150.897 167.733 149.751 167.111 148.217 166.368C145.221 164.949 142.612 162.733 139.702 161.15C136.834 159.613 134.214 157.654 131.93 155.337C130.167 153.492 128.758 151.423 127.197 149.431C126.275 148.258 125.609 146.92 124.681 145.747C123.713 144.447 122.82 143.093 122.006 141.691C121.171 140.343 120.445 138.962 119.73 137.565C118.873 135.862 117.82 134.29 117.116 132.499C116.755 131.599 115.751 129.405 116.766 128.679C117.782 127.953 118.89 128.777 119.747 129.268C121.81 130.499 123.682 132.026 125.303 133.799C127.601 136.255 129.976 138.673 132.323 141.091C134.32 143.138 136.356 145.157 138.436 147.095C139.397 148.001 140.406 148.694 141.443 149.502C142.481 150.31 143.425 151.271 144.566 152.013C146.525 153.279 148.07 154.999 149.882 156.456C150.701 157.111 151.52 157.777 152.306 158.448C153.092 159.12 154.205 159.573 155.138 160.217C156.776 161.309 158.599 162.4 159.985 163.781C161.197 164.998 162.371 166.199 163.588 167.4C164.565 168.372 166.819 169.993 166.459 171.608C166.039 173.519 162.709 173.426 161.252 173.208C159.118 172.891 157.202 171.723 155.368 170.642C154.243 170.042 153.135 169.425 152.584 167.924Z" fill="#C4B0B8"/>
</g>
</g>
<path fill-rule="evenodd" clip-rule="evenodd" d="M16.2137 369.2C17.8512 368.992 20.0345 368.998 20.6786 370.93C21.4482 373.261 19.849 375.946 18.1951 377.447C15.7825 379.63 11.596 381.044 8.3701 380.378C6.77946 380.113 5.21702 379.7 3.70321 379.145C2.73708 378.757 1.86373 378.55 1.36156 377.573C0.329941 375.569 2.62249 373.08 3.80695 371.656C5.11149 370.084 7.0819 368.43 9.1506 368.086C11.0247 367.702 12.9466 367.608 14.8491 367.808C15.7225 367.928 16.7541 368.108 16.2137 369.2Z" fill="#FF8142"/>
<path fill-rule="evenodd" clip-rule="evenodd" d="M13.6971 360.073C14.4316 361.112 15.3445 362.012 16.3935 362.731C16.718 362.521 17.0684 362.354 17.436 362.235C17.6653 362.164 18.1129 362.235 18.2712 362.027C18.7406 361.421 18.0637 360.319 17.6926 359.893C17.0758 359.184 16.268 358.905 15.471 358.496C15.0423 358.211 14.5186 358.107 14.0137 358.206C14.023 358.501 13.924 358.788 13.7353 359.014L13.6971 360.073Z" fill="#FF8142"/>
<path fill-rule="evenodd" clip-rule="evenodd" d="M87.242 311.592C87.9764 312.632 88.8893 313.534 89.9384 314.256C90.2624 314.045 90.613 313.878 90.981 313.759C91.2102 313.683 91.6578 313.759 91.8161 313.546C92.2855 312.946 91.6086 311.843 91.2375 311.418C90.6152 310.708 89.8129 310.43 89.016 310.02C88.5872 309.736 88.0635 309.632 87.5586 309.731C87.5669 310.025 87.468 310.312 87.2802 310.539L87.242 311.592Z" fill="#FF8142"/>
<path fill-rule="evenodd" clip-rule="evenodd" d="M115.479 252.135C115.858 251.586 116.364 251.135 116.952 250.82C118.393 251.311 119.496 251.721 120.555 253.003C121.81 254.521 122.962 256.781 122.465 258.806C122.263 259.613 121.652 261.213 120.91 261.704C120.167 262.195 118.803 261.846 118.055 261.567C116.592 261.022 115.326 259.084 114.78 257.654C114.498 256.93 114.314 256.172 114.234 255.4C114.174 254.248 114.78 253.402 115.124 252.332L115.479 252.135Z" fill="#FF8142"/>
<path fill-rule="evenodd" clip-rule="evenodd" d="M133.425 262.659C134.172 263.78 135.21 264.676 136.427 265.252C136.728 264.602 137.481 264.16 137.415 263.325C137.199 262.529 136.773 261.805 136.182 261.229C135.639 260.964 135.053 260.799 134.452 260.743C134.258 260.754 134.071 260.819 133.913 260.932C133.755 261.045 133.633 261.2 133.56 261.38C133.487 261.56 133.467 261.757 133.502 261.947C133.537 262.138 133.626 262.315 133.758 262.457L133.425 262.659Z" fill="#FF8142"/>
<path fill-rule="evenodd" clip-rule="evenodd" d="M74.11 86.7145C74.8559 87.8347 75.8941 88.7294 77.1121 89.3018C77.4123 88.6577 78.1601 88.2101 78.1001 87.3804C77.8805 86.5826 77.4529 85.8574 76.8611 85.279C76.3207 85.0139 75.7359 84.851 75.1362 84.7986C74.9425 84.8077 74.7554 84.8721 74.5971 84.9842C74.4388 85.0962 74.3159 85.2513 74.243 85.4311C74.17 85.6108 74.1501 85.8077 74.1856 85.9983C74.221 86.189 74.3103 86.3656 74.443 86.5071L74.11 86.7145Z" fill="#FF8142"/>
<path fill-rule="evenodd" clip-rule="evenodd" d="M97.6248 316.353C99.2623 316.664 100.96 316.778 102.242 317.99C103.629 319.311 103.132 320.665 102.242 322.16C101.265 323.798 98.6509 325.113 96.9479 325.867C95.2449 326.62 92.5103 327.297 90.78 326.538C87.4723 325.091 88.7768 321.473 90.9001 319.611C91.4896 319.098 92.0627 318.52 92.674 318.028C93.4982 317.39 94.4425 317.259 95.4032 316.937C96.3639 316.615 97.2972 316.145 98.3124 316.091C99.2146 316.115 100.108 316.271 100.965 316.555L97.6248 316.353Z" fill="#FF8142"/>
<path fill-rule="evenodd" clip-rule="evenodd" d="M82.1777 97.3206C84.1536 98.8543 85.2616 99.6185 86.255 101.829C86.9864 103.467 87.4995 105.241 88.0835 106.911C88.6676 108.581 90.5562 112.271 88.755 113.881C86.5716 115.846 82.6635 113.51 80.5675 112.631C78.4715 111.752 76.2717 110.519 74.7761 108.81C73.4116 107.233 72.2053 106.229 72.1834 104.034C72.1834 102.348 72.1507 100.415 73.2369 99.0344C74.4432 97.4952 76.1189 97.0749 78.0075 97.2551C79.7378 97.3751 81.1078 97.921 82.1777 97.3206Z" fill="#FF8142"/>
<path fill-rule="evenodd" clip-rule="evenodd" d="M92.166 112.959C91.1999 113.647 90.725 113.691 90.9379 114.712C91.1057 115.198 91.3995 115.631 91.7893 115.967C92.1639 116.155 92.5804 116.243 92.9989 116.224C93.4175 116.205 93.8242 116.079 94.1801 115.858C94.8133 115.47 95.3864 114.837 94.7259 114.111C94.3711 113.707 92.7719 112.97 92.357 113.292L92.166 112.959Z" fill="#FF8142"/>
<path fill-rule="evenodd" clip-rule="evenodd" d="M116.221 262.522C115.255 263.215 114.78 263.259 114.993 264.28C115.161 264.764 115.455 265.196 115.845 265.529C116.218 265.72 116.635 265.81 117.054 265.792C117.472 265.773 117.879 265.647 118.235 265.426C118.868 265.033 119.442 264.405 118.781 263.679C118.426 263.275 116.827 262.538 116.412 262.855L116.221 262.522Z" fill="#FF8142"/>
<path fill-rule="evenodd" clip-rule="evenodd" d="M138.458 118.662C139.626 119.639 141.122 120.567 141.859 121.905C142.255 122.685 142.599 123.491 142.89 124.317C143.436 125.731 143.84 127.505 143.343 129.017C142.601 131.271 140.98 130.971 139.626 129.426C138.191 127.789 136.477 126.026 136.089 123.788C135.887 122.631 135.472 119.105 137.869 119.967L138.458 118.662Z" fill="#FF8142"/>
<path fill-rule="evenodd" clip-rule="evenodd" d="M48.6905 346.46C49.0998 347.257 50.4644 350.625 51.5779 351.804C52.1237 352.349 52.7896 352.824 53.3627 353.337C54.6168 354.54 56.1728 355.381 57.8659 355.772C58.5889 355.891 59.3308 355.81 60.011 355.537C60.737 355.133 60.9662 353.981 60.9717 353.152C60.9717 351.918 60.1529 350.919 59.5471 349.92C58.5868 348.184 57.2124 346.713 55.5461 345.636C54.5199 345.019 49.9677 343.392 49.6893 345.843L48.6905 346.46Z" fill="#FF8142"/>
<path fill-rule="evenodd" clip-rule="evenodd" d="M88.4876 278.379C89.6284 276.605 89.7048 276.468 91.7299 276.435C93.9459 276.397 95.7636 277.434 97.483 278.739C98.7111 279.672 100.392 282.259 98.2525 283.329C96.5605 284.175 93.1709 283.04 91.4515 282.505C89.3992 281.866 88.3621 280.42 87.2868 278.657L88.4876 278.379Z" fill="#FF8142"/>
<path fill-rule="evenodd" clip-rule="evenodd" d="M52.8604 116.048C51.7958 115.922 50.7175 116.111 49.76 116.594C49.8365 117.642 49.116 118.619 49.0396 119.721C48.9359 121.239 49.7436 122.451 50.6224 123.63C51.5012 124.809 53.5208 126.211 54.9891 125.109C56.3646 124.077 56.6266 121.697 56.31 120.245C55.9935 118.794 55.2893 117.74 54.4706 116.425L52.8604 116.048Z" fill="#FFCE42"/>
<path fill-rule="evenodd" clip-rule="evenodd" d="M123.218 149.852C123.126 151.254 122.563 154.218 124.621 154.699C125.784 154.971 126.384 154.087 126.875 153.279C127.135 152.933 127.309 152.529 127.382 152.102C127.455 151.675 127.426 151.236 127.296 150.823C126.881 149.589 125.822 149.688 125.183 148.782L124.719 148.929L123.218 149.852Z" fill="#FFCE42"/>
<path fill-rule="evenodd" clip-rule="evenodd" d="M11.1918 115.24C13.9209 115.535 16.994 116.294 14.7561 119.328C13.8827 120.518 13.7354 120.382 12.3981 120C11.1754 119.651 10.6405 119.394 10.2529 117.997L10.6132 117.658L11.1918 115.24Z" fill="#FFCE42"/>
<path style="mix-blend-mode:screen" fill-rule="evenodd" clip-rule="evenodd" d="M161.225 294.175C180.662 294.524 197.004 262.216 197.724 221.967C198.445 181.717 183.282 148.825 163.845 148.498C144.407 148.17 128.065 180.478 127.345 220.706C126.624 260.934 141.793 293.826 161.225 294.175Z" fill="url(#paint1_radial)"/>
<g style="mix-blend-mode:soft-light">
<g style="mix-blend-mode:soft-light">
<path fill-rule="evenodd" clip-rule="evenodd" d="M62.3313 266.818C62.364 266.534 62.3804 264.848 62.8062 264.416C63.1456 264.157 63.5115 263.933 63.8978 263.751C64.6051 263.343 65.3963 263.102 66.2109 263.047C67.0255 262.992 67.8419 263.125 68.5974 263.434C69.9506 264.02 71.2104 264.802 72.3364 265.754C73.0077 266.261 73.5645 266.813 73.5809 267.719C73.6464 270.955 68.8758 269.875 67.0309 269.438C65.9392 269.192 63.5812 269.4 63.0845 268.068L62.3313 266.818Z" fill="#FFFE90"/>
</g>
<g style="mix-blend-mode:soft-light">
<path fill-rule="evenodd" clip-rule="evenodd" d="M41.2077 252.626C37.9655 251.365 35.2036 249.247 32.2288 247.457C29.254 245.667 26.3393 244.182 23.692 241.999C20.9844 239.856 18.496 237.45 16.2632 234.815C12.9888 230.739 10.2603 226.252 8.1467 221.47C7.27882 219.532 6.62385 217.507 5.71231 215.586C5.2811 214.68 5.11188 213.73 4.74617 212.808C5.23196 212.169 6.23626 212.862 6.76026 213.13C7.82464 213.675 8.77987 214.811 9.72416 215.553C10.8158 216.415 11.8529 217.343 12.9227 218.239C15.4501 220.261 17.8731 222.411 20.1823 224.679C22.8514 227.409 25.2531 230.482 27.824 233.342C30.2093 236.016 32.993 238.287 35.4274 240.918C37.0649 242.714 38.8989 244.264 40.1652 246.376C40.6619 247.211 41.4534 248.096 41.5789 249.105C41.6062 249.569 41.366 250.656 41.2077 252.626Z" fill="#FFFE90"/>
</g>
<g style="mix-blend-mode:soft-light">
<path fill-rule="evenodd" clip-rule="evenodd" d="M1.51465 214.407C1.15986 213.245 0.53759 211.754 0.47209 210.477C0.436484 209.677 0.276271 208.887 -0.00278072 208.136C-0.679247 206.278 -1.70573 204.568 -3.02665 203.098C-3.41419 202.65 -8.485 196.002 -8.99809 199.528C-9.29284 201.547 -8.354 203.965 -7.36059 205.647C-6.23482 207.637 -4.91469 209.511 -3.41963 211.241C-2.77846 212.038 -2.01812 212.73 -1.16541 213.294C-0.887032 213.463 -0.75051 213.665 -0.417552 213.55C-0.0845948 213.436 0.106401 213.25 1.51465 214.407Z" fill="#FFFE90"/>
</g>
<g style="mix-blend-mode:soft-light">
<path fill-rule="evenodd" clip-rule="evenodd" d="M2.43717 206.957C2.43717 206.291 2.39347 205.625 2.33343 204.965C2.56268 205.33 2.33343 205.56 2.39893 205.925C2.46899 206.466 2.61798 206.994 2.84109 207.492C3.07033 208.005 4.11835 209.102 4.83339 208.611C6.18159 207.694 3.58888 205.281 2.91751 204.937L2.43717 206.957Z" fill="#FFFE90"/>
</g>
<g style="mix-blend-mode:soft-light">
<path fill-rule="evenodd" clip-rule="evenodd" d="M-5.0191 83.5053C-5.97431 84.0511 -5.9525 83.8983 -6.26908 84.6352C-6.63863 85.6558 -6.86278 86.7234 -6.93498 87.8064C-7.15331 89.9898 -7.24608 92.9536 -5.67954 94.7658C-4.113 96.578 -1.04547 95.6828 -0.406849 93.363C-0.0608993 91.7959 0.0330763 90.1837 -0.128468 88.587C-0.115721 87.1472 -0.336908 85.7148 -0.78344 84.3459C-0.967772 83.8426 -1.27185 83.3918 -1.66935 83.0324C-2.06685 82.6729 -2.54587 82.4156 -3.06505 82.2826C-3.38446 82.2165 -3.71539 82.2318 -4.02732 82.3272C-4.33924 82.4226 -4.62214 82.595 -4.84993 82.8285C-5.28114 83.3306 -5.2156 84.1385 -5.0191 83.5053Z" fill="#FFFE90"/>
</g>
<g style="mix-blend-mode:soft-light">
<path fill-rule="evenodd" clip-rule="evenodd" d="M26.6284 297.734C23.0641 296.768 20.6242 294.317 18.1898 291.604C17.5021 290.84 13.4902 286.359 15.9737 285.715C17.4202 285.343 19.2487 286.746 20.3732 287.434C22.158 288.526 23.8337 289.705 25.5312 290.922C28.8881 293.334 32.2668 295.692 35.7165 297.963C37.0647 298.853 38.5548 299.601 39.7775 300.638C40.3233 301.096 40.8691 301.495 40.6071 302.248C40.0613 303.7 38.0035 303.247 36.7863 303.099C34.5676 302.789 32.4489 301.977 30.5911 300.725C29.4704 299.883 28.2839 299.133 27.0432 298.482C26.159 298.067 25.5804 297.488 26.6284 297.734Z" fill="#FFFE90"/>
</g>
<g style="mix-blend-mode:soft-light">
<path fill-rule="evenodd" clip-rule="evenodd" d="M45.5251 306.074L45.6015 306.303C44.75 306.849 45.274 308.945 45.6506 309.649C46.015 310.389 46.454 311.089 46.9606 311.74C47.5992 312.509 48.5981 312.646 49.5697 312.678C51.3 312.733 53.6471 311.789 51.9769 309.949C50.4485 308.279 48.5436 306.756 46.2347 306.674L45.5251 306.074Z" fill="#FFFE90"/>
</g>
<g style="mix-blend-mode:soft-light">
<path fill-rule="evenodd" clip-rule="evenodd" d="M57.5659 312.777C59.702 313.039 61.7391 313.829 63.4937 315.075C64.5035 315.817 65.7862 317.58 65.5515 318.896C65.1476 321.177 62.0854 321.963 60.0931 321.69C57.0092 321.265 54.4601 318.175 53.7669 315.31C53.6032 314.611 53.3412 313.699 53.7669 313.055C54.1927 312.411 55.4535 312.116 56.1686 312.247L57.5659 312.777Z" fill="#FFFE90"/>
</g>
<g style="mix-blend-mode:soft-light">
<path fill-rule="evenodd" clip-rule="evenodd" d="M69.7 323.552C69.307 323.47 66.5341 322.749 66.9708 324.179C67.2819 325.206 68.6083 325.348 69.4106 325.631C69.9565 325.817 70.8244 326.428 71.0481 325.577C71.2119 324.987 70.4041 324.136 70.1039 323.645L69.7 323.552Z" fill="#FFFE90"/>
</g>
<g style="mix-blend-mode:soft-light">
<path fill-rule="evenodd" clip-rule="evenodd" d="M86.4682 195.008C86.7847 194.506 86.7138 194.511 87.1068 194.386C87.4714 194.277 87.8509 194.228 88.2312 194.239C89.3023 194.339 90.3227 194.742 91.1732 195.401C92.0411 195.974 92.8762 196.646 93.7059 197.268C94.5356 197.89 95.5508 198.36 96.4351 198.944C97.6161 199.728 98.7282 200.612 99.7592 201.585C100.851 202.584 101.872 203.49 102.488 204.86C102.69 205.324 103.034 206.252 102.63 206.716C102.161 207.262 101.086 207.158 100.512 206.885C100.145 206.678 99.7929 206.445 99.459 206.187C98.9841 205.865 98.4765 205.592 98.018 205.248C97.0465 204.589 96.1151 203.873 95.2288 203.103C93.9079 201.853 92.7234 200.275 91.1296 199.353C90.158 198.807 89.1373 198.551 88.3076 197.781C87.5762 197.115 86.5337 196.023 86.4682 195.008Z" fill="#FFFE90"/>
</g>
<g style="mix-blend-mode:soft-light">
<path fill-rule="evenodd" clip-rule="evenodd" d="M103.012 202.039C102.619 202.088 102.428 202.001 102.362 202.317C102.297 202.634 102.581 202.989 102.712 203.234C102.929 203.75 103.186 204.249 103.481 204.724C103.696 204.994 103.942 205.237 104.213 205.45C104.611 205.802 105.044 206.111 105.506 206.373C105.571 206.412 105.644 206.438 105.719 206.448C105.795 206.457 105.872 206.451 105.945 206.43C106.018 206.408 106.085 206.372 106.143 206.322C106.201 206.273 106.248 206.212 106.281 206.144C106.707 205.461 105.763 204.233 105.332 203.791C104.947 203.36 104.527 202.962 104.076 202.601C103.803 202.405 103.367 201.913 103.034 201.853L103.012 202.039Z" fill="#FFFE90"/>
</g>
<g style="mix-blend-mode:soft-light">
<path fill-rule="evenodd" clip-rule="evenodd" d="M109.475 215.619C109.677 215.411 109.879 215.073 110.179 215.073C110.515 215.091 110.848 215.155 111.167 215.264C112.336 215.473 113.459 215.89 114.48 216.497C114.929 216.724 115.363 216.98 115.779 217.262C116.172 217.556 116.494 217.938 116.871 218.255C117.247 218.572 117.668 218.855 118.039 219.188C118.491 219.643 118.974 220.067 119.485 220.455C121.612 221.791 123.575 223.37 125.337 225.16C125.97 225.848 126.903 226.797 127.105 227.758C127.225 228.304 127.329 228.882 126.685 229.068C125.85 229.303 125.047 228.981 124.283 228.659C123.265 228.154 122.295 227.558 121.385 226.879C120.151 226.077 118.95 225.242 117.766 224.352C116.582 223.462 115.583 222.665 114.491 221.841C112.78 220.614 111.204 219.211 109.786 217.655C109.071 216.803 108.623 216.05 109.475 215.619Z" fill="#FFFE90"/>
</g>
<g style="mix-blend-mode:soft-light">
<path fill-rule="evenodd" clip-rule="evenodd" d="M108.58 226.158C108.612 227.37 108.924 228.516 110.217 228.888C110.714 229.035 111.194 229.106 111.205 228.478C111.205 227.386 109.971 225.563 108.782 225.656L108.58 226.158Z" fill="#FFFE90"/>
</g>
<g style="mix-blend-mode:soft-light">
<path fill-rule="evenodd" clip-rule="evenodd" d="M95.0923 274.198C94.7703 273.652 93.6295 272.238 93.886 271.343C93.9601 271.086 94.13 270.868 94.3606 270.733C94.5912 270.598 94.8648 270.556 95.125 270.617C96.3204 270.868 97.3084 271.895 98.2363 272.599C99.661 273.69 100.965 274.924 102.428 275.923C104.066 277.014 105.627 278.221 107.341 279.247C108.781 280.142 110.266 280.963 111.789 281.709C112.488 282.042 113.154 282.435 113.814 282.833C114.451 283.167 115.043 283.58 115.577 284.061C116.292 284.782 117.166 285.89 117.057 286.976C116.86 288.941 113.323 288.586 112.073 288.269C110.505 287.909 109.005 287.299 107.63 286.463C106.227 285.5 104.901 284.43 103.662 283.264C102.608 282.32 101.533 281.441 100.441 280.535C99.5323 279.838 98.6749 279.075 97.8761 278.253C97.0191 277.326 96.2386 276.37 95.4198 275.388C94.6011 274.405 94.3882 273.641 95.0923 274.198Z" fill="#FFFE90"/>
</g>
<g style="mix-blend-mode:soft-light">
<path fill-rule="evenodd" clip-rule="evenodd" d="M100.823 285.469C101.243 285.878 101.68 286.266 102.128 286.637C102.286 286.604 102.39 286.702 102.592 286.757C102.871 286.817 103.162 286.79 103.427 286.681C103.847 286.555 104.065 286.375 103.934 285.895C103.727 285.114 102.925 284.721 102.237 284.405C101.871 284.235 100.665 283.793 100.599 284.568L100.823 285.469Z" fill="#FFFE90"/>
</g>
</g>
<defs>
<radialGradient id="paint0_radial" cx="0" cy="0" r="1" gradientUnits="userSpaceOnUse" gradientTransform="translate(-104.041 191.135) rotate(58.5432) scale(271.521)">
<stop stop-color="#FF5731"/>
<stop offset="0.7" stop-color="#BA005E"/>
<stop offset="0.95" stop-color="#5E1377"/>
<stop offset="1" stop-color="#8160FF"/>
</radialGradient>
<radialGradient id="paint1_radial" cx="0" cy="0" r="1" gradientUnits="userSpaceOnUse" gradientTransform="translate(-359506 126195) rotate(91.1458) scale(9401.32 9334.56)">
<stop stop-color="#2C6AFF"/>
<stop offset="0.09" stop-color="#2559D6"/>
<stop offset="0.23" stop-color="#1B429E"/>
<stop offset="0.36" stop-color="#132E6E"/>
<stop offset="0.5" stop-color="#0C1D46"/>
<stop offset="0.63" stop-color="#071027"/>
<stop offset="0.76" stop-color="#030712"/>
<stop offset="0.89" stop-color="#010204"/>
<stop offset="1"/>
</radialGradient>
</defs>
</svg>
