<svg width="225" height="343" viewBox="0 0 225 343" fill="none" xmlns="http://www.w3.org/2000/svg">
<path fill-rule="evenodd" clip-rule="evenodd" d="M205.329 262.631C205.163 262.631 205.002 262.582 204.864 262.49C204.727 262.398 204.62 262.267 204.557 262.115C204.493 261.962 204.477 261.794 204.509 261.632C204.541 261.47 204.621 261.321 204.738 261.204C204.855 261.087 205.004 261.008 205.166 260.976C205.328 260.943 205.496 260.96 205.648 261.023C205.801 261.086 205.932 261.193 206.023 261.331C206.115 261.468 206.164 261.63 206.164 261.795C206.163 262.016 206.074 262.228 205.918 262.384C205.762 262.541 205.55 262.629 205.329 262.631Z" fill="#B5EAFF"/>
<path fill-rule="evenodd" clip-rule="evenodd" d="M116.62 266.927C116.455 266.928 116.292 266.88 116.154 266.789C116.016 266.697 115.908 266.567 115.844 266.415C115.78 266.262 115.763 266.094 115.795 265.932C115.826 265.769 115.906 265.62 116.022 265.502C116.139 265.385 116.288 265.305 116.45 265.272C116.612 265.24 116.78 265.256 116.933 265.319C117.086 265.382 117.217 265.489 117.309 265.627C117.401 265.764 117.45 265.926 117.45 266.091C117.451 266.201 117.43 266.309 117.389 266.411C117.347 266.512 117.286 266.604 117.209 266.682C117.132 266.76 117.04 266.821 116.939 266.863C116.838 266.905 116.73 266.927 116.62 266.927Z" fill="#B5EAFF"/>
<path fill-rule="evenodd" clip-rule="evenodd" d="M117.254 2.09054C117.088 2.09156 116.926 2.04343 116.788 1.95224C116.65 1.86105 116.542 1.73091 116.478 1.57833C116.414 1.42574 116.397 1.25757 116.429 1.09515C116.46 0.932732 116.539 0.783365 116.656 0.665994C116.773 0.548622 116.921 0.468531 117.084 0.43587C117.246 0.40321 117.414 0.419453 117.567 0.48254C117.72 0.545628 117.851 0.652715 117.943 0.790232C118.035 0.927749 118.084 1.0895 118.084 1.25498C118.084 1.47569 117.997 1.68744 117.841 1.84399C117.686 2.00054 117.475 2.08918 117.254 2.09054Z" fill="#B5EAFF"/>
<path fill-rule="evenodd" clip-rule="evenodd" d="M125.62 156.772C125.454 156.773 125.292 156.725 125.154 156.634C125.016 156.542 124.908 156.412 124.844 156.259C124.78 156.106 124.763 155.937 124.795 155.775C124.827 155.612 124.907 155.463 125.024 155.346C125.141 155.229 125.291 155.149 125.453 155.117C125.616 155.085 125.784 155.102 125.937 155.166C126.09 155.23 126.22 155.337 126.312 155.476C126.403 155.614 126.451 155.776 126.45 155.942C126.449 156.162 126.361 156.372 126.206 156.527C126.05 156.683 125.84 156.771 125.62 156.772Z" fill="#B5EAFF"/>
<path fill-rule="evenodd" clip-rule="evenodd" d="M146.623 276.366C146.457 276.366 146.295 276.317 146.158 276.225C146.02 276.132 145.913 276.002 145.85 275.849C145.787 275.696 145.771 275.527 145.804 275.365C145.836 275.203 145.916 275.054 146.034 274.937C146.151 274.821 146.3 274.742 146.463 274.71C146.625 274.678 146.793 274.696 146.946 274.76C147.099 274.824 147.229 274.932 147.32 275.07C147.411 275.208 147.459 275.37 147.458 275.535C147.457 275.756 147.368 275.967 147.212 276.123C147.055 276.278 146.843 276.366 146.623 276.366Z" fill="#B5EAFF"/>
<path fill-rule="evenodd" clip-rule="evenodd" d="M192.011 39.1184C191.846 39.1194 191.684 39.0713 191.545 38.9801C191.407 38.8889 191.3 38.7587 191.235 38.6062C191.171 38.4536 191.154 38.2854 191.186 38.123C191.218 37.9606 191.297 37.8112 191.413 37.6938C191.53 37.5765 191.679 37.4964 191.841 37.4637C192.003 37.431 192.172 37.4473 192.325 37.5104C192.478 37.5735 192.608 37.6805 192.7 37.8181C192.792 37.9556 192.842 38.1173 192.842 38.2828C192.842 38.5035 192.754 38.7153 192.599 38.8718C192.443 39.0284 192.232 39.117 192.011 39.1184Z" fill="#B5EAFF"/>
<path style="mix-blend-mode:screen" fill-rule="evenodd" clip-rule="evenodd" d="M278.585 25.9451C206.974 13.8244 131.748 28.7768 109.977 95.6784C71.8348 212.884 144.869 321.636 243.831 312.661C255.532 311.614 267.145 309.749 278.585 307.08V25.9451Z" fill="url(#paint0_radial)"/>
<path opacity="0.61" fill-rule="evenodd" clip-rule="evenodd" d="M278.585 25.9451C206.974 13.8244 131.748 28.7768 109.977 95.6784C71.8348 212.884 144.869 321.636 243.831 312.661C255.532 311.614 267.145 309.749 278.585 307.08V25.9451Z" fill="#5BAEFF"/>
<path fill-rule="evenodd" clip-rule="evenodd" d="M278.584 44.1883C253.096 40.6728 227.135 44.657 203.874 55.654H203.848C192.682 60.9002 182.318 67.706 173.066 75.8674C154.399 92.1115 140.944 113.506 134.388 137.367C127.832 161.228 128.467 186.494 136.214 209.996C137.844 214.942 139.784 219.781 142.022 224.484C148.178 237.502 156.485 249.389 166.593 259.644C169.136 262.223 171.787 264.699 174.552 267.061C189.056 279.487 206.107 288.583 224.505 293.712C242.079 298.67 260.488 299.948 278.579 297.466L278.584 44.1883Z" fill="url(#paint1_radial)"/>
<g opacity="0.61">
<path opacity="0.61" d="M278.584 305.827C267.109 308.519 255.458 310.396 243.718 311.444C229.12 312.808 214.396 311.488 200.274 307.55C167.444 298.328 139.448 275.112 121.442 242.175C98.4075 200.041 94.663 146.756 111.168 96.0497C132.382 30.8553 206.112 14.8404 278.584 27.1778V25.9451C206.969 13.8295 131.747 28.7767 110.002 95.6783C77.7867 194.708 124.888 287.641 199.954 308.726C214.225 312.707 229.105 314.04 243.857 312.661C255.557 311.614 267.17 309.749 278.61 307.08L278.584 305.827Z" fill="#90CCFF"/>
</g>
<path d="M278.584 337.285C262.594 339.296 246.376 338.538 230.643 335.046C208.774 330.297 188.001 321.454 169.42 308.984C132.32 284.34 104.85 246.203 94.4928 204.281C89.335 183.247 86.1115 161.332 88.0147 140.144C90.2377 118.997 99.8775 99.1239 115.294 83.599C130.711 68.0741 149.96 56.1699 169.652 45.5758C189.499 35.0901 210.362 26.523 231.303 18.2757C246.518 12.5531 262.411 8.82904 278.584 7.19677V5.27808C262.283 7.42553 246.291 11.4816 230.937 17.3628C209.924 25.5172 188.973 33.8212 168.466 43.2909C148.103 52.936 128.024 63.9221 110.884 79.2252C93.7759 94.4097 81.7479 116.227 79.2773 139.179C78.0943 150.514 78.2554 161.949 79.7571 173.246C80.4585 178.853 81.1342 184.47 82.4598 189.927C83.6357 195.42 84.6105 200.933 86.4467 206.354C92.6618 228.192 103.503 248.555 117.466 266.339C131.428 284.123 148.624 299.349 167.61 311.614C186.595 323.879 207.618 333.318 229.869 338.404C245.719 341.932 262.245 343.464 278.584 342.014V337.285Z" fill="#4ACCFF"/>
<path d="M278.584 332.694C264.008 334.21 249.376 334.876 234.79 333.545C212.193 331.735 189.958 325.489 170.178 314.683C150.398 303.877 132.98 289.25 117.904 272.724C102.431 256.55 89.7733 237.543 83.3931 216.278C77.0129 195.012 77.9826 172.003 85.2809 151.099C92.5792 130.194 105.267 111.193 120.725 95.0079C136.385 78.7499 154.612 65.1775 174.676 54.8339C184.728 49.6173 195.252 45.3654 206.107 42.1355L222.431 37.1272C227.78 35.1776 233.227 33.4704 238.421 31.1752C248.963 26.8994 259.145 21.6384 268.398 15.0623C271.853 12.669 275.185 10.0592 278.564 7.53704V6.56738C275.025 9.23396 271.554 11.9779 267.939 14.433C258.701 20.9215 248.561 26.0896 238.023 30.288C232.83 32.542 227.388 34.2131 222.034 36.1266L205.772 41.0523C194.82 44.2447 184.195 48.469 174.041 53.6683C153.731 63.9368 135.246 77.4742 119.327 93.7391C103.581 109.945 90.4747 129.029 83.1197 150.408C75.6564 171.678 74.6301 195.249 81.1237 216.943C87.6174 238.637 100.496 258.03 116.088 274.344C131.33 290.973 148.763 306.09 169.054 316.725C189.251 327.459 211.863 333.524 234.666 335.092C249.35 336.248 264.019 335.443 278.584 333.793V332.694Z" fill="url(#paint2_radial)"/>
<path opacity="0.61" fill-rule="evenodd" clip-rule="evenodd" d="M278.584 27.518C207.556 15.9955 133.48 31.2677 111.905 97.5762C73.7687 214.777 146.793 323.487 245.76 314.554C256.803 313.559 267.768 311.836 278.584 309.396V27.518Z" fill="#5BAEFF"/>
<path fill-rule="evenodd" clip-rule="evenodd" d="M212.219 112.627C218.367 110.275 224.201 107.103 230.204 104.044C234.903 101.646 239.803 99.691 244.497 97.3391C248.623 95.2759 252.991 91.6655 255.106 87.5754C257.159 83.8392 258.317 79.6779 258.49 75.4185C258.649 71.906 258.851 69.1827 256.808 66.1345C254.766 63.0862 251.852 62.4518 248.329 61.5647C243.733 60.4093 239.782 60.9148 235.28 61.936C228.007 63.5762 221.555 66.7224 214.489 68.9764C208.114 71.0395 204.013 75.1657 205.37 78.9876C201.434 80.8909 198.824 82.3454 195.905 85.6309C191.779 90.2137 188.651 95.6041 186.719 101.46C185.517 105.256 184.336 109.284 186.306 113.122C189.215 118.795 200.047 116.247 204.988 114.87C207.015 114.308 208.965 113.534 210.935 112.807C213.643 111.776 216.897 110.429 219.652 112.028C222.839 113.875 224.515 118.218 221.802 121.111C217.898 125.31 213.746 120.724 212.245 117.073L212.219 112.627Z" fill="#5BAEFF"/>
<path fill-rule="evenodd" clip-rule="evenodd" d="M204.266 252.727C201.455 252.176 195.425 249.591 192.511 251.866C191.217 252.898 190.355 253.63 189.736 255.152C187.926 259.613 190.134 264.374 192.95 267.922C197.241 273.338 205.452 278.171 212.621 275.612C217.97 273.704 220.435 267.185 217.176 262.646C214.7 259.2 208.181 251.716 203.25 253.284L204.266 252.727Z" fill="#5BAEFF"/>
<path fill-rule="evenodd" clip-rule="evenodd" d="M110.57 34.6875C108.507 35.0124 107.351 34.7287 106.237 36.3431C104.623 38.7549 103.387 41.3985 102.57 44.183C101.152 48.9591 100.852 53.6475 102.255 58.403C102.467 59.1199 102.916 60.5486 103.71 60.92C104.741 61.3842 106.583 60.3217 107.46 59.8884C110.525 58.4501 113.344 56.5352 115.81 54.2148C118.306 51.8938 119.488 48.8972 119.936 45.6117C120.23 43.466 120.251 41.3255 120.504 39.1851C120.738 37.7816 120.764 36.3512 120.581 34.9402C120.282 33.1401 119.864 30.979 117.672 30.783C115.929 30.6231 113.427 31.5154 111.823 32.1034C109.404 33.0318 107.883 34.8628 110.57 34.6875Z" fill="#5BAEFF"/>
<path fill-rule="evenodd" clip-rule="evenodd" d="M97.5412 74.7535C97.4382 74.0582 97.5145 73.348 97.763 72.6904C99.4032 72.3087 100.295 72.3655 101.58 73.593C102.611 74.5833 103.302 76.3576 102.095 77.4872C101.095 78.4053 99.4238 78.8798 98.3046 78.0287C97.0151 77.0487 95.7979 75.2538 96.5922 73.6291L97.5412 74.7535Z" fill="#5BAEFF"/>
<path fill-rule="evenodd" clip-rule="evenodd" d="M75.0481 110.481C74.0784 111.554 72.4125 113.576 73.6349 115.19C74.0288 115.651 74.5805 115.949 75.1822 116.026C75.894 116.067 76.1518 115.623 76.6727 115.247C78.3542 114.04 80.5463 112.745 81.0208 110.682C81.3251 109.372 81.7686 106.004 79.6385 105.891C77.1472 105.757 75.1821 110.533 74.6096 112.034L75.0481 110.481Z" fill="#5BAEFF"/>
<path fill-rule="evenodd" clip-rule="evenodd" d="M62.0913 209.47C62.6999 211.889 63.9274 213.86 65.2581 215.969C65.908 217.001 67.0944 219.162 68.7191 218.868C69.8022 218.667 70.9111 216.351 71.0555 215.376C71.2824 213.829 70.6996 211.43 70.0859 210.053C69.3019 208.3 67.2284 206.144 65.155 206.335C63.7211 206.469 62.8288 206.85 62.4368 208.305L62.0913 209.47Z" fill="#5BAEFF"/>
<path fill-rule="evenodd" clip-rule="evenodd" d="M98.0103 206.483C99.2276 212.033 101.714 217.707 105.474 222.055C106.18 222.87 107.289 223.984 108.445 223.329C109.966 222.467 109.182 220.12 108.996 218.816C108.341 214.297 106.933 209.924 105.644 205.529C104.979 203.218 104.097 200.98 103.746 198.613C103.4 196.157 102.616 193.707 102.152 191.252C101.739 189.065 101.177 186.93 100.713 184.764C100.538 183.964 100.058 182.211 99.274 181.669C98.49 181.128 97.0355 181.994 96.4888 182.701C95.2922 184.191 94.9414 186.089 94.7454 187.91C94.5838 190.034 94.6495 192.17 94.9415 194.28C95.1478 196.498 95.1013 198.757 95.6687 200.928C96.2515 203.182 96.7467 205.57 97.6132 207.726C98.1288 209.238 98.7298 210.719 99.4132 212.162C100.249 213.709 101.43 215.066 102.369 216.556L98.0103 206.483Z" fill="#5BAEFF"/>
<path style="mix-blend-mode:screen" d="M146.081 229.509C171.591 189.827 169.909 143.283 142.325 125.551C114.741 107.818 71.6997 125.612 46.1898 165.294C20.6798 204.976 22.3614 251.52 49.9455 269.252C77.5296 286.985 120.571 269.192 146.081 229.509Z" fill="url(#paint3_radial)"/>
<defs>
<radialGradient id="paint0_radial" cx="0" cy="0" r="1" gradientUnits="userSpaceOnUse" gradientTransform="translate(209.491 84.5072) rotate(15.9454) scale(156.86 153.901)">
<stop stop-color="#2C6AFF"/>
<stop offset="0.11" stop-color="#2B68FA"/>
<stop offset="0.23" stop-color="#2962EC"/>
<stop offset="0.36" stop-color="#2558D4"/>
<stop offset="0.5" stop-color="#1F4AB3"/>
<stop offset="0.65" stop-color="#183989"/>
<stop offset="0.79" stop-color="#0F2355"/>
<stop offset="0.94" stop-color="#040A18"/>
<stop offset="1"/>
</radialGradient>
<radialGradient id="paint1_radial" cx="0" cy="0" r="1" gradientUnits="userSpaceOnUse" gradientTransform="translate(241.555 130.927) rotate(15.9454) scale(179.165 175.785)">
<stop stop-color="#5EA4EA"/>
<stop offset="0.77" stop-color="#75FFF6"/>
<stop offset="1" stop-color="#F2F4FF"/>
</radialGradient>
<radialGradient id="paint2_radial" cx="0" cy="0" r="1" gradientUnits="userSpaceOnUse" gradientTransform="translate(662457 -406123) scale(67772.4 110537)">
<stop stop-color="#5EA4EA"/>
<stop offset="0.77" stop-color="#75FFF6"/>
<stop offset="1" stop-color="#F2F4FF"/>
</radialGradient>
<radialGradient id="paint3_radial" cx="0" cy="0" r="1" gradientUnits="userSpaceOnUse" gradientTransform="translate(437550 192811) rotate(30.7431) scale(19649.9 19705.3)">
<stop stop-color="#2C6AFF"/>
<stop offset="0.09" stop-color="#2559D6"/>
<stop offset="0.23" stop-color="#1B429E"/>
<stop offset="0.36" stop-color="#132E6E"/>
<stop offset="0.5" stop-color="#0C1D46"/>
<stop offset="0.63" stop-color="#071027"/>
<stop offset="0.76" stop-color="#030712"/>
<stop offset="0.89" stop-color="#010204"/>
<stop offset="1"/>
</radialGradient>
</defs>
</svg>
