<svg width="155" height="342" viewBox="0 0 155 342" fill="none" xmlns="http://www.w3.org/2000/svg">
<path fill-rule="evenodd" clip-rule="evenodd" d="M41.8754 245.417C42.0236 245.418 42.1687 245.375 42.2924 245.293C42.4161 245.211 42.5127 245.095 42.5701 244.958C42.6275 244.821 42.643 244.671 42.6146 244.525C42.5862 244.38 42.5153 244.246 42.4108 244.141C42.3064 244.036 42.173 243.964 42.0277 243.935C41.8824 243.905 41.7317 243.92 41.5946 243.976C41.4576 244.033 41.3405 244.129 41.258 244.252C41.1756 244.375 41.1316 244.52 41.1316 244.668C41.1316 244.866 41.2098 245.056 41.3492 245.196C41.4885 245.336 41.6777 245.416 41.8754 245.417Z" fill="#B5EAFF"/>
<path fill-rule="evenodd" clip-rule="evenodd" d="M121.337 249.265C121.485 249.265 121.629 249.221 121.752 249.139C121.875 249.057 121.971 248.94 122.028 248.803C122.085 248.667 122.099 248.516 122.071 248.371C122.042 248.226 121.97 248.092 121.866 247.988C121.761 247.883 121.628 247.812 121.483 247.783C121.337 247.754 121.187 247.769 121.05 247.826C120.913 247.882 120.796 247.978 120.714 248.101C120.632 248.224 120.588 248.369 120.588 248.517C120.588 248.715 120.667 248.906 120.807 249.046C120.948 249.187 121.138 249.265 121.337 249.265Z" fill="#B5EAFF"/>
<path fill-rule="evenodd" clip-rule="evenodd" d="M113.293 150.599C113.441 150.599 113.586 150.555 113.709 150.473C113.833 150.39 113.928 150.273 113.985 150.136C114.041 149.999 114.056 149.849 114.027 149.703C113.998 149.558 113.926 149.425 113.821 149.32C113.716 149.216 113.582 149.145 113.436 149.116C113.291 149.088 113.14 149.103 113.003 149.161C112.867 149.218 112.75 149.315 112.669 149.439C112.587 149.562 112.544 149.707 112.545 149.856C112.545 149.954 112.564 150.051 112.602 150.141C112.639 150.232 112.695 150.314 112.764 150.383C112.834 150.452 112.916 150.507 113.007 150.544C113.098 150.581 113.195 150.6 113.293 150.599Z" fill="#B5EAFF"/>
<path fill-rule="evenodd" clip-rule="evenodd" d="M0.707655 118.094C0.855677 118.094 1.00038 118.051 1.12345 117.968C1.24653 117.886 1.34241 117.769 1.39905 117.632C1.4557 117.496 1.47056 117.345 1.44169 117.2C1.41281 117.055 1.34153 116.922 1.23686 116.817C1.13219 116.712 0.998838 116.641 0.853661 116.612C0.708483 116.583 0.557982 116.598 0.421228 116.655C0.284473 116.711 0.167579 116.807 0.0853424 116.93C0.00310576 117.053 -0.0407556 117.198 -0.0407556 117.346C-0.0407556 117.545 0.038095 117.735 0.17845 117.875C0.318804 118.016 0.509164 118.094 0.707655 118.094Z" fill="#B5EAFF"/>
<path fill-rule="evenodd" clip-rule="evenodd" d="M8.05822 237.009C8.20644 237.009 8.35135 236.965 8.47453 236.882C8.5977 236.8 8.69362 236.682 8.75013 236.545C8.80663 236.408 8.82117 236.258 8.79191 236.112C8.76266 235.967 8.69092 235.834 8.58579 235.729C8.48066 235.625 8.34689 235.554 8.20141 235.526C8.05593 235.497 7.90531 235.513 7.76864 235.57C7.63197 235.627 7.51539 235.724 7.43371 235.848C7.35203 235.971 7.3089 236.117 7.30981 236.265C7.30981 236.363 7.32922 236.46 7.36688 236.55C7.40455 236.641 7.45974 236.723 7.5293 236.792C7.59886 236.861 7.68141 236.916 7.77219 236.953C7.86297 236.99 7.96016 237.009 8.05822 237.009Z" fill="#B5EAFF"/>
<path fill-rule="evenodd" clip-rule="evenodd" d="M94.444 257.719C94.5922 257.719 94.7371 257.675 94.8603 257.593C94.9834 257.511 95.0794 257.393 95.1359 257.256C95.1924 257.119 95.2069 256.969 95.1777 256.823C95.1484 256.678 95.0767 256.545 94.9715 256.44C94.8664 256.336 94.7326 256.265 94.5872 256.236C94.4417 256.208 94.2911 256.224 94.1544 256.281C94.0177 256.338 93.9011 256.435 93.8195 256.559C93.7378 256.682 93.6946 256.827 93.6956 256.976C93.6956 257.074 93.715 257.171 93.7526 257.261C93.7903 257.352 93.8455 257.434 93.915 257.503C93.9846 257.572 94.0672 257.627 94.1579 257.664C94.2487 257.701 94.3459 257.72 94.444 257.719Z" fill="#B5EAFF"/>
<path fill-rule="evenodd" clip-rule="evenodd" d="M6.8849 223.584C7.03292 223.584 7.17762 223.54 7.3007 223.458C7.42377 223.375 7.51965 223.259 7.5763 223.122C7.63294 222.985 7.64781 222.834 7.61893 222.689C7.59005 222.544 7.51877 222.411 7.41411 222.306C7.30944 222.201 7.17608 222.13 7.03091 222.101C6.88573 222.072 6.73523 222.087 6.59847 222.144C6.46172 222.201 6.34483 222.296 6.26259 222.42C6.18035 222.543 6.13649 222.687 6.13649 222.835C6.13649 223.034 6.21534 223.224 6.3557 223.365C6.49605 223.505 6.68641 223.584 6.8849 223.584Z" fill="#B5EAFF"/>
<path fill-rule="evenodd" clip-rule="evenodd" d="M-21.6055 7.38923C-14.3309 7.3574 -7.06255 7.82045 0.149231 8.77518C4.612 9.38038 9.06093 10.1611 13.4682 11.1359C36.539 16.2174 58.197 26.3482 76.8847 40.7999C147.194 94.9951 160.259 195.943 106.064 266.238C102.435 270.953 98.5416 275.459 94.4031 279.733C79.7414 294.921 62.2308 307.072 42.8718 315.491C23.5128 323.91 2.6848 328.433 -18.4225 328.8C-19.4804 328.8 -20.5337 328.828 -21.5917 328.828L-21.6055 7.38923Z" fill="url(#paint0_radial)"/>
<g style="mix-blend-mode:multiply" opacity="0.58">
<g style="mix-blend-mode:multiply" opacity="0.58">
<path fill-rule="evenodd" clip-rule="evenodd" d="M23.2622 118.052C23.1375 117.794 22.9434 117.498 23.0081 117.304C23.0586 117.21 23.1317 117.131 23.2206 117.073C23.6318 116.819 24.6066 117.535 25.1009 117.923C26.4268 118.939 27.7573 120.358 28.2747 121.683C28.6073 122.529 28.6674 123.615 28.0668 123.993C27.2353 124.543 25.5814 123.943 24.3248 123.222C23.1514 122.547 21.6268 121.429 21.1972 120.284C21.1093 120.112 21.0574 119.925 21.0447 119.732C21.032 119.54 21.0587 119.347 21.1232 119.166C21.248 118.944 21.5205 118.847 21.6776 118.653C21.8347 118.459 21.8439 117.988 22.2597 117.891C22.6024 117.848 22.9503 117.904 23.2622 118.052Z" fill="#9CBDFF"/>
</g>
<g style="mix-blend-mode:multiply" opacity="0.58">
<path fill-rule="evenodd" clip-rule="evenodd" d="M31.2313 124.1C30.9864 124.271 30.9957 124.312 31.0742 124.649C31.1108 124.809 31.1835 124.959 31.2868 125.086C31.3901 125.213 31.5212 125.315 31.6702 125.384C32.2292 125.698 32.8159 125.573 32.8159 125.125C32.728 124.741 32.507 124.401 32.1922 124.164C32.0476 124.024 31.8685 123.924 31.6729 123.876C31.4774 123.827 31.2724 123.831 31.0789 123.887L31.2313 124.1Z" fill="#9CBDFF"/>
</g>
<g style="mix-blend-mode:multiply" opacity="0.58">
<path fill-rule="evenodd" clip-rule="evenodd" d="M27.9875 149.407C27.6492 149.056 27.4309 148.606 27.3639 148.123C27.3315 147.864 27.3639 147.707 27.5949 147.633C28.2001 147.448 29.3643 147.698 30.1496 148.072C30.7605 148.371 31.2875 148.817 31.6834 149.37C31.9266 149.821 32.1069 150.303 32.2193 150.802C32.3446 151.198 32.4479 151.601 32.5289 152.008C32.6767 152.696 32.6952 153.362 31.9375 153.445C31.0485 153.459 30.1841 153.152 29.5029 152.581C29.0236 152.171 28.612 151.687 28.2832 151.149C27.909 150.631 27.5579 150.197 27.9875 149.407Z" fill="#9CBDFF"/>
</g>
<g style="mix-blend-mode:multiply" opacity="0.58">
<path fill-rule="evenodd" clip-rule="evenodd" d="M26.7038 145.54C27.1021 145.822 27.5334 146.055 27.9881 146.233C28.0574 146.113 28.33 146.233 28.3531 146.044C28.3854 145.78 27.8495 145.452 27.6139 145.281C27.3323 145.069 27.0019 144.931 26.653 144.879C26.5421 144.879 26.057 144.819 26.3019 145.041L26.7038 145.54Z" fill="#9CBDFF"/>
</g>
<g style="mix-blend-mode:multiply" opacity="0.58">
<path fill-rule="evenodd" clip-rule="evenodd" d="M1.794 103.897C1.75704 103.435 1.71547 102.908 2.38072 102.945C3.04598 102.982 3.72972 103.638 4.11779 104.156C4.32106 104.428 4.57976 104.742 4.45965 104.955C4.3216 105.158 4.16709 105.35 3.99767 105.528C3.66504 105.99 4.16395 106.914 3.15682 106.807C2.60395 106.718 2.08802 106.473 1.66925 106.101C1.41203 105.835 1.21947 105.514 1.10649 105.163C0.993515 104.811 0.963156 104.438 1.01784 104.072L1.794 103.897Z" fill="#9CBDFF"/>
</g>
<g style="mix-blend-mode:multiply" opacity="0.58">
<path fill-rule="evenodd" clip-rule="evenodd" d="M43.0726 101.975C43.0726 100.201 44.1028 99.0555 45.4194 98.1453C46.2556 97.5679 47.2166 96.6947 48.8335 97.3969C52.6218 99.0416 51.8734 105.066 51.4576 106.849C51.135 108.354 50.3008 109.701 49.0969 110.66C48.3623 111.196 46.4035 111.889 45.0175 111.386C43.2296 110.734 42.0424 108.928 41.7005 107.565C40.9105 104.424 42.9986 102.784 43.4514 100.252L43.0726 101.975Z" fill="#9CBDFF"/>
</g>
<g style="mix-blend-mode:multiply" opacity="0.58">
<path fill-rule="evenodd" clip-rule="evenodd" d="M41.2242 101.001C40.9193 100.71 39.5241 99.5222 39.1822 98.9448C38.9374 98.529 38.5494 97.8822 38.6464 97.5588C38.7804 97.0968 39.4687 97.0645 40.0323 97.143C40.5238 97.2139 40.9783 97.4444 41.3258 97.7991C41.5137 98.1053 41.632 98.4491 41.6723 98.8062C41.7762 99.2932 41.8104 99.7925 41.774 100.289C41.7969 100.518 41.7844 100.748 41.737 100.973C41.6169 101.282 41.2751 101.158 41.0117 101.278L41.2242 101.001Z" fill="#9CBDFF"/>
</g>
<g style="mix-blend-mode:multiply" opacity="0.58">
<path fill-rule="evenodd" clip-rule="evenodd" d="M-2.62808 249.029C-3.19632 248.05 -4.41596 246.345 -3.55205 245.795C-3.15474 245.537 -2.5726 245.5 -2.12448 245.297C-1.74729 245.125 -1.40204 244.891 -1.10351 244.604C-0.536007 244.124 0.191254 243.875 0.933849 243.906C1.51133 243.952 1.71459 244.525 1.78851 244.959C1.92458 245.386 1.90826 245.846 1.74232 246.262C1.43392 246.682 1.19811 247.15 1.04472 247.648C0.993902 247.851 1.08165 248.138 1.01235 248.346C0.905462 248.605 0.748466 248.84 0.550367 249.039C0.153061 249.477 -1.10816 249.921 -2.62808 249.029Z" fill="#9CBDFF"/>
</g>
<g style="mix-blend-mode:multiply" opacity="0.58">
<path fill-rule="evenodd" clip-rule="evenodd" d="M-1.08005 240.058C-1.14132 240.083 -1.19641 240.122 -1.24145 240.17C-1.28648 240.219 -1.32043 240.277 -1.34104 240.34C-1.36165 240.404 -1.3684 240.47 -1.36083 240.536C-1.35327 240.602 -1.33159 240.666 -1.29722 240.723C-0.0452462 241.647 1.53016 240.51 0.592331 239.337C-0.48871 237.974 -1.51436 238.963 -1.4774 239.762L-1.08005 240.058Z" fill="#9CBDFF"/>
</g>
<g style="mix-blend-mode:multiply" opacity="0.58">
<path fill-rule="evenodd" clip-rule="evenodd" d="M19.5661 231.742C19.6077 232.116 19.5892 232.726 20.1713 233.058C20.2642 233.117 20.3693 233.154 20.4786 233.165C20.5879 233.176 20.6984 233.162 20.8014 233.124C20.9043 233.085 20.9969 233.024 21.072 232.943C21.147 232.863 21.2024 232.766 21.2339 232.661C21.5434 231.973 19.8479 231.631 19.6262 232.074L19.5661 231.742Z" fill="#9CBDFF"/>
</g>
<g style="mix-blend-mode:multiply" opacity="0.58">
<path fill-rule="evenodd" clip-rule="evenodd" d="M31.8043 235.308C31.8043 234.943 31.8043 234.61 32.0861 234.421C32.4834 234.153 33.0425 234.361 33.6292 234.79C34.5254 235.446 35.0151 236.047 34.7795 236.735C34.6317 237.16 33.8556 237.382 33.2688 237.304C32.956 237.244 32.6606 237.115 32.4049 236.925C32.1966 236.777 32.0261 236.582 31.9073 236.355C31.7885 236.129 31.7248 235.878 31.7212 235.622L31.8043 235.308Z" fill="#9CBDFF"/>
</g>
<g style="mix-blend-mode:multiply" opacity="0.58">
<path fill-rule="evenodd" clip-rule="evenodd" d="M70.2876 243.786C70.1629 243.527 69.9688 243.231 70.0335 243.037C70.0842 242.942 70.1591 242.863 70.2506 242.806C70.6571 242.552 71.6366 243.268 72.1263 243.656C73.4568 244.673 74.7827 246.091 75.3001 247.417C75.6327 248.262 75.6928 249.348 75.0922 249.727C74.2653 250.276 72.6113 249.676 71.3501 248.955C70.1767 248.281 68.6521 247.163 68.2225 246.017C68.1346 245.846 68.0828 245.658 68.0701 245.466C68.0573 245.273 68.0841 245.081 68.1486 244.899C68.2733 244.677 68.5459 244.58 68.703 244.386C68.86 244.192 68.8693 243.721 69.2851 243.624C69.6278 243.581 69.9757 243.637 70.2876 243.786Z" fill="#9CBDFF"/>
</g>
<g style="mix-blend-mode:multiply" opacity="0.58">
<path fill-rule="evenodd" clip-rule="evenodd" d="M78.2611 249.833C78.0163 250.004 78.0209 250.045 78.0994 250.383C78.1369 250.542 78.21 250.691 78.3132 250.818C78.4164 250.945 78.5471 251.048 78.6954 251.117C79.259 251.431 79.8457 251.307 79.8457 250.858C79.7559 250.474 79.5334 250.134 79.2174 249.897C79.0744 249.756 78.896 249.656 78.701 249.607C78.5059 249.558 78.3013 249.563 78.1086 249.62L78.2611 249.833Z" fill="#9CBDFF"/>
</g>
<g style="mix-blend-mode:multiply" opacity="0.58">
<path fill-rule="evenodd" clip-rule="evenodd" d="M48.8195 229.63C48.7826 229.168 48.741 228.642 49.4062 228.679C50.0715 228.716 50.7552 229.372 51.1433 229.889C51.3512 230.162 51.6053 230.476 51.4852 230.688C51.3474 230.892 51.1929 231.083 51.0232 231.261C50.6906 231.723 51.1895 232.647 50.1824 232.541C49.6306 232.452 49.1159 232.207 48.6995 231.834C48.4408 231.57 48.247 231.249 48.1331 230.897C48.0193 230.545 47.9886 230.172 48.0434 229.806L48.8195 229.63Z" fill="#9CBDFF"/>
</g>
<g style="mix-blend-mode:multiply" opacity="0.58">
<path fill-rule="evenodd" clip-rule="evenodd" d="M22.4951 180.184C22.5413 180.669 22.4951 181.51 23.1419 182.074C23.6593 182.536 23.9966 182.48 24.5278 182.614C25.6828 182.91 26.8886 183.049 26.5513 181.69C26.2265 180.895 25.6612 180.222 24.9344 179.764C24.3246 179.385 23.0402 179.071 22.9109 179.621L22.4951 180.184Z" fill="#9CBDFF"/>
</g>
<g style="mix-blend-mode:multiply" opacity="0.58">
<path fill-rule="evenodd" clip-rule="evenodd" d="M90.1063 227.709C90.1063 225.93 91.1411 224.789 92.4532 223.879C93.2894 223.301 94.2503 222.423 95.8672 223.126C99.6555 224.775 98.9071 230.799 98.4913 232.582C98.1723 234.089 97.3374 235.437 96.1305 236.394C95.396 236.93 93.4418 237.623 92.0512 237.119C90.268 236.468 89.076 234.661 88.7342 233.299C87.9442 230.157 90.0324 228.517 90.4851 225.985L90.1063 227.709Z" fill="#9CBDFF"/>
</g>
<g style="mix-blend-mode:multiply" opacity="0.58">
<path fill-rule="evenodd" clip-rule="evenodd" d="M88.263 226.72C87.9581 226.429 86.563 225.242 86.2211 224.66C85.9809 224.248 85.5882 223.602 85.6852 223.274C85.8192 222.812 86.5075 222.779 87.0711 222.858C87.561 222.93 88.0137 223.16 88.3601 223.514C88.5493 223.82 88.6692 224.164 88.7112 224.521C88.8114 225.009 88.844 225.508 88.8082 226.004C88.8334 226.232 88.821 226.463 88.7713 226.688C88.6511 226.997 88.3093 226.872 88.0505 226.993L88.263 226.72Z" fill="#9CBDFF"/>
</g>
<g style="mix-blend-mode:multiply" opacity="0.58">
<path fill-rule="evenodd" clip-rule="evenodd" d="M54.0536 123.679C54.0952 124.053 54.0536 124.663 54.6588 125C54.7515 125.058 54.8563 125.094 54.9651 125.105C55.0738 125.116 55.1836 125.102 55.2859 125.063C55.3882 125.025 55.4804 124.963 55.5551 124.883C55.6298 124.804 55.6851 124.708 55.7168 124.603C56.0263 123.91 54.3308 123.568 54.1091 124.012L54.0536 123.679Z" fill="#9CBDFF"/>
</g>
<g style="mix-blend-mode:multiply" opacity="0.58">
<path fill-rule="evenodd" clip-rule="evenodd" d="M66.2917 127.269C66.2917 126.904 66.2917 126.571 66.5689 126.382C66.9662 126.114 67.5298 126.322 68.1165 126.751C69.0128 127.407 69.5024 128.008 69.2668 128.701C69.1144 129.121 68.3429 129.348 67.7562 129.265C67.4436 129.207 67.1482 129.079 66.8923 128.89C66.6841 128.741 66.5135 128.545 66.394 128.318C66.2745 128.091 66.2094 127.839 66.2039 127.583L66.2917 127.269Z" fill="#9CBDFF"/>
</g>
<g style="mix-blend-mode:multiply" opacity="0.58">
<path fill-rule="evenodd" clip-rule="evenodd" d="M104.774 135.746C104.65 135.488 104.456 135.197 104.52 134.998C104.57 134.905 104.643 134.827 104.733 134.772C105.144 134.513 106.119 135.234 106.613 135.617C107.939 136.633 109.27 138.052 109.787 139.378C110.12 140.223 110.18 141.309 109.579 141.687C108.747 142.242 107.094 141.637 105.837 140.916C104.664 140.246 103.139 139.123 102.709 137.978C102.621 137.806 102.57 137.619 102.557 137.426C102.544 137.234 102.571 137.041 102.635 136.86C102.76 136.638 103.033 136.546 103.19 136.347C103.347 136.148 103.356 135.682 103.772 135.585C104.115 135.544 104.462 135.6 104.774 135.746Z" fill="#9CBDFF"/>
</g>
<g style="mix-blend-mode:multiply" opacity="0.58">
<path fill-rule="evenodd" clip-rule="evenodd" d="M112.744 141.793C112.499 141.964 112.508 142.011 112.586 142.343C112.622 142.504 112.694 142.654 112.797 142.781C112.901 142.909 113.033 143.01 113.182 143.078C113.741 143.397 114.328 143.272 114.328 142.824C114.24 142.438 114.02 142.096 113.704 141.858C113.56 141.718 113.381 141.618 113.185 141.569C112.99 141.521 112.785 141.525 112.591 141.581L112.744 141.793Z" fill="#9CBDFF"/>
</g>
<g style="mix-blend-mode:multiply" opacity="0.58">
<path fill-rule="evenodd" clip-rule="evenodd" d="M83.3062 121.591C83.2692 121.129 83.2277 120.603 83.8929 120.64C84.5582 120.676 85.2419 121.333 85.63 121.85C85.8333 122.123 86.092 122.437 85.9719 122.649C85.8338 122.852 85.6793 123.044 85.5099 123.222C85.1772 123.684 85.6762 124.608 84.6691 124.502C84.1173 124.413 83.6026 124.168 83.1861 123.795C82.9275 123.531 82.7336 123.21 82.6198 122.858C82.506 122.506 82.4753 122.133 82.5301 121.767L83.3062 121.591Z" fill="#9CBDFF"/>
</g>
<g style="mix-blend-mode:multiply" opacity="0.58">
<path fill-rule="evenodd" clip-rule="evenodd" d="M124.594 119.67C124.594 117.896 125.624 116.75 126.94 115.84C127.777 115.262 128.738 114.389 130.355 115.091C134.143 116.736 133.394 122.76 132.979 124.548C132.655 126.051 131.821 127.396 130.618 128.355C129.883 128.895 127.924 129.584 126.539 129.08C124.751 128.429 123.563 126.622 123.221 125.26C122.431 122.118 124.52 120.478 124.972 117.946L124.594 119.67Z" fill="#9CBDFF"/>
</g>
<g style="mix-blend-mode:multiply" opacity="0.58">
<path fill-rule="evenodd" clip-rule="evenodd" d="M122.75 118.68C122.445 118.389 121.05 117.202 120.708 116.624C120.463 116.209 120.075 115.562 120.172 115.238C120.306 114.776 120.995 114.74 121.558 114.818C122.05 114.891 122.505 115.123 122.852 115.479C123.039 115.784 123.157 116.126 123.198 116.481C123.3 116.97 123.334 117.471 123.3 117.969C123.323 118.196 123.31 118.425 123.263 118.648C123.143 118.957 122.801 118.833 122.538 118.953L122.75 118.68Z" fill="#9CBDFF"/>
</g>
<g style="mix-blend-mode:multiply" opacity="0.58">
<path fill-rule="evenodd" clip-rule="evenodd" d="M47.2295 89.5063L48.5369 90.0329C48.6571 89.7234 49.0451 89.5478 48.7633 89.0674C48.4089 88.6174 47.9633 88.2475 47.4559 87.9817C46.9108 87.7276 46.4442 87.7138 46.2363 88.0233C46.0284 88.3328 46.3933 88.9103 46.8599 89.3677L47.2295 89.5063Z" fill="#9CBDFF"/>
</g>
<g style="mix-blend-mode:multiply" opacity="0.58">
<path fill-rule="evenodd" clip-rule="evenodd" d="M8.42332 37.8473C8.49724 37.3854 8.62199 37.1128 9.24566 37.1821C9.72022 37.241 10.174 37.4116 10.5699 37.6798C10.9658 37.948 11.2925 38.3062 11.5232 38.7251C12.1192 39.8847 12.3871 41.6679 11.5232 42.2269C10.9827 42.5734 9.53671 42.3471 8.95924 41.4416C8.62878 40.9619 8.34561 40.4514 8.11377 39.917C8.00169 39.5904 7.96428 39.2428 8.00425 38.8998C8.04423 38.5569 8.16057 38.2272 8.34476 37.9351L8.42332 37.8473Z" fill="#9CBDFF"/>
</g>
</g>
<path fill-rule="evenodd" clip-rule="evenodd" d="M-21.6061 254.38C1.89963 264.141 32.7555 276.185 49.641 279.659L54.0068 266.391L89.0112 262.968C89.0112 262.968 107.671 217.171 106.04 171.527L115.742 167.711C115.742 167.711 143.225 198.262 149.004 222.295L127.656 268.914L120.264 267.098C120.264 267.098 52.7363 348.162 -12.2925 340.974C-12.2925 340.974 -16.3025 336.326 -21.5922 326.758L-21.6061 254.38Z" fill="url(#paint1_linear)"/>
<path fill-rule="evenodd" clip-rule="evenodd" d="M18.9654 39.5108L25.5995 76.5804L87.3574 118.847L92.9336 99.6796L105.61 104.697C105.61 104.697 104.03 70.63 38.1608 29.4766L18.9654 39.5108Z" fill="url(#paint2_linear)"/>
<path fill-rule="evenodd" clip-rule="evenodd" d="M0.163074 8.79369L6.44603 0.648926L44.6844 10.9142L63.6812 31.9298C63.6812 31.9298 27.6511 11.2052 0.163074 8.79369Z" fill="url(#paint3_linear)"/>
<path fill-rule="evenodd" clip-rule="evenodd" d="M106.659 71.3698L106.405 90.7084L116.758 128.72L137.427 142.492L154.738 140.136C154.738 140.136 156.872 103.242 131.676 59.9126L106.659 71.3698Z" fill="url(#paint4_linear)"/>
<path fill-rule="evenodd" clip-rule="evenodd" d="M131.675 59.9165L128.497 109.631L154.738 140.121C154.738 140.121 159.14 105.251 131.675 59.9165Z" fill="#573DAE"/>
<path fill-rule="evenodd" clip-rule="evenodd" d="M118.126 170.479L120.182 249.242L127.643 268.932L148.991 222.313C148.991 222.313 145.101 195.763 118.126 170.479Z" fill="#573DAE"/>
<path fill-rule="evenodd" clip-rule="evenodd" d="M105.731 139.161L122.445 170.705L134.48 171.444L133.062 151.103L111.875 130.171L105.731 139.161Z" fill="url(#paint5_linear)"/>
<path fill-rule="evenodd" clip-rule="evenodd" d="M134.48 171.444L114.763 142.529L111.875 130.171L133.062 151.103L134.48 171.444Z" fill="#573DAE"/>
<g style="mix-blend-mode:multiply">
<path fill-rule="evenodd" clip-rule="evenodd" d="M-21.592 251.617L50.9578 274.744L49.655 279.673L53.1846 314.451L11.2735 277.206L-21.592 258.265V251.617Z" fill="#A972B0"/>
</g>
<path fill-rule="evenodd" clip-rule="evenodd" d="M-21.5916 172.636L16.0647 188.477L40.8408 245.957L27.3832 263.411L-21.5916 236.851V172.636Z" fill="url(#paint6_linear)"/>
<g style="mix-blend-mode:multiply">
<path fill-rule="evenodd" clip-rule="evenodd" d="M-21.5916 170.908L29.841 189.651L40.8408 245.957L12.1979 193.887L-18.6165 181.927L-21.5916 179.968V170.908Z" fill="#A972B0"/>
</g>
<path fill-rule="evenodd" clip-rule="evenodd" d="M102.345 285.956L101.014 260.094L103.971 232.897L114.352 270.382L102.345 285.956Z" fill="#573DAE"/>
<path fill-rule="evenodd" clip-rule="evenodd" d="M102.645 102.682L92.9434 99.6794L87.3673 118.847L32.0909 74.4689L24.4082 39.7647L38.166 29.4902C38.166 29.4902 65.2337 39.7925 83.4035 58.7014C101.573 77.6104 102.645 102.682 102.645 102.682Z" fill="#5729AE"/>
<g style="mix-blend-mode:soft-light" opacity="0.88">
<path fill-rule="evenodd" clip-rule="evenodd" d="M25.6 76.5808L32.0815 74.4695L24.3988 39.7653L18.9658 39.5112L25.6 76.5808Z" fill="#A99AF4"/>
</g>
<g style="mix-blend-mode:multiply">
<path fill-rule="evenodd" clip-rule="evenodd" d="M54.0078 266.41L94.4082 279.733L89.0122 262.986L54.0078 266.41Z" fill="#A972B0"/>
</g>
<path d="M-21.5925 307.226L-15.6976 321.354L3.96436 340.794L3.45619 341.307L-16.2567 321.815L-21.5925 309.051V307.226Z" fill="#00E7F4"/>
<path d="M-21.5921 275.233L14.3918 294.082L54.0669 323.086L53.6372 323.672L14.0129 294.692L-21.5921 276.046V275.233Z" fill="#00E7F4"/>
<path d="M11.8832 301.095L-15.2583 285L-17.2587 287.596L-17.2218 287.762L-10.1626 319.14L12.9412 339.911L13.4262 339.375L-9.51123 318.757L-16.4826 287.767L-15.0781 285.947L11.472 301.686L44.7533 328.486L45.2061 327.922L11.8832 301.095Z" fill="#00E7F4"/>
<path d="M96.4219 290.35L79.2962 283.268L79.1437 283.351L64.083 291.777L64.5358 316.475L65.2611 316.461L64.8176 292.198L79.3424 284.067L96.1401 291.02L96.4219 290.35Z" fill="#00E7F4"/>
<path d="M93.96 293.481L84.3692 290.737L84.2259 290.834L75.6469 296.808L75.6331 296.969L74.2425 309.563L74.9586 309.642L76.3307 297.214L84.4986 291.527L93.7567 294.174L93.96 293.481Z" fill="#00E7F4"/>
<path d="M-21.5921 196.165L-16.0298 202.863L27.6738 263.198L27.0917 263.623L-16.5981 203.311L-21.5921 197.296V196.165Z" fill="#00E7F4"/>
<path d="M16.4247 188.445L15.704 188.51L17.5011 208.237L33.98 254.537L34.6592 254.296L18.1987 208.038L16.4247 188.445Z" fill="#00E7F4"/>
<path d="M25.027 41.2202L24.5327 41.7469L91.317 104.646L91.8159 104.124L25.027 41.2202Z" fill="#00E7F4"/>
<path d="M88.2495 116.232L39.9306 80.3086L39.4964 80.8861L87.8198 116.81L88.2495 116.232Z" fill="#00E7F4"/>
<defs>
<radialGradient id="paint0_radial" cx="0" cy="0" r="1" gradientUnits="userSpaceOnUse" gradientTransform="translate(-80.6513 188.911) rotate(37.63) scale(220.994)">
<stop stop-color="#B840C7"/>
<stop offset="0.7" stop-color="#750088"/>
<stop offset="0.95" stop-color="#5E1377"/>
<stop offset="1" stop-color="#8160FF"/>
</radialGradient>
<linearGradient id="paint1_linear" x1="121.688" y1="172.516" x2="-9.8177" y2="343.095" gradientUnits="userSpaceOnUse">
<stop stop-color="#4F0E6F"/>
<stop offset="1" stop-color="#450086"/>
</linearGradient>
<linearGradient id="paint2_linear" x1="422445" y1="-7848.55" x2="422445" y2="-16816.9" gradientUnits="userSpaceOnUse">
<stop stop-color="#4F0E6F"/>
<stop offset="1" stop-color="#450086"/>
</linearGradient>
<linearGradient id="paint3_linear" x1="317325" y1="-1584.67" x2="317325" y2="-3312.62" gradientUnits="userSpaceOnUse">
<stop stop-color="#4F0E6F"/>
<stop offset="1" stop-color="#450086"/>
</linearGradient>
<linearGradient id="paint4_linear" x1="228139" y1="-1569.38" x2="228139" y2="-12938.1" gradientUnits="userSpaceOnUse">
<stop stop-color="#4F0E6F"/>
<stop offset="1" stop-color="#450086"/>
</linearGradient>
<linearGradient id="paint5_linear" x1="134277" y1="-6734.87" x2="134277" y2="-9025.96" gradientUnits="userSpaceOnUse">
<stop stop-color="#4F0E6F"/>
<stop offset="1" stop-color="#450086"/>
</linearGradient>
<linearGradient id="paint6_linear" x1="298675" y1="-35494.7" x2="298675" y2="-47810.2" gradientUnits="userSpaceOnUse">
<stop stop-color="#4F0E6F"/>
<stop offset="1" stop-color="#450086"/>
</linearGradient>
</defs>
</svg>
