<svg width="50" height="51" viewBox="0 0 50 51" fill="none" xmlns="http://www.w3.org/2000/svg">
<path d="M25 0.456055C11.2 0.456055 0 11.6561 0 25.4561C0 39.2561 11.2 50.4561 25 50.4561C38.8 50.4561 50 39.2561 50 25.4561C50 11.6561 38.8 0.456055 25 0.456055ZM37.5 25.4561C37.5 26.8368 36.3807 27.9561 35 27.9561H27.5V35.4561C27.5 36.8368 26.3807 37.9561 25 37.9561C23.6193 37.9561 22.5 36.8368 22.5 35.4561V27.9561H15C13.6193 27.9561 12.5 26.8368 12.5 25.4561C12.5 24.0753 13.6193 22.9561 15 22.9561H22.5V15.4561C22.5 14.0753 23.6193 12.9561 25 12.9561C26.3807 12.9561 27.5 14.0753 27.5 15.4561V22.9561H35C36.3807 22.9561 37.5 24.0753 37.5 25.4561Z" fill="white"/>
</svg>
