<svg width="299" height="226" viewBox="0 0 299 226" fill="none" xmlns="http://www.w3.org/2000/svg">
<path d="M85.9411 208.047L85.6796 221.971H130.745L120.772 211.199C120.772 211.199 109.463 215.15 104.721 209.079L96.6844 216.055L85.9411 208.047Z" fill="#31529A"/>
<path d="M92.4439 37.209C82.3377 37.209 74.145 29.0163 74.145 18.9102C74.145 8.804 82.3377 0.611328 92.4439 0.611328C102.55 0.611328 110.743 8.804 110.743 18.9102C110.743 29.0163 102.55 37.209 92.4439 37.209Z" fill="#292929"/>
<path d="M168.226 56.0234C173.781 58.0378 177.817 64.1586 177.817 71.3961C177.817 79.602 172.629 86.366 165.922 87.3555" fill="white"/>
<path d="M168.466 55.1683C179.86 59.409 181.803 75.849 173.803 84.1467C171.766 86.2948 169.087 87.7235 166.169 88.2178C165.052 88.3945 164.572 86.6912 165.696 86.5145C170.558 85.7511 174.262 81.9981 175.888 77.4675C176.81 74.9284 177.138 72.2115 176.847 69.5256C176.555 66.8398 175.652 64.2566 174.205 61.9747C172.729 59.6526 170.553 57.8586 167.993 56.8504C166.94 56.4546 167.392 54.7301 168.459 55.1471L168.466 55.1683Z" fill="#292929"/>
<path d="M290.034 220.96H9.297C8.12842 220.96 6.97131 221.071 5.89169 221.287C4.81207 221.502 3.83112 221.817 3.00482 222.215C2.1785 222.613 1.52304 223.085 1.07587 223.605C0.628662 224.125 0.398499 224.682 0.398499 225.245V225.5H298.954V225.245C298.954 224.681 298.723 224.123 298.275 223.603C297.826 223.082 297.169 222.61 296.34 222.212C295.512 221.814 294.528 221.498 293.446 221.284C292.364 221.069 291.205 220.959 290.034 220.96Z" fill="#292929"/>
<path d="M108.085 19.1854C106.507 18.6109 104.828 18.3641 103.151 18.4601C101.474 18.5561 99.8341 18.9929 98.3315 19.7438C94.1614 21.8641 88.6414 26.3947 84.1957 36.1696C75.8485 54.4189 51.5137 61.0698 43.4492 84.6979C43.4492 84.6979 34.063 107.315 60.0023 120.999C60.0023 120.999 50.1072 103.096 62.1226 91.0661C62.1226 91.0661 48.0858 127.31 101.173 127.713L118.44 126.37L120.871 99.5122C120.871 99.5122 96.9321 91.2993 99.1938 65.7983C100.651 50.016 103.636 34.4124 108.106 19.2066L108.085 19.1854Z" fill="#292929"/>
<path d="M168.685 73.0996C168.685 73.0996 169.957 79.5667 184.708 81.2701C199.459 82.9735 209.538 95.7523 201.049 110.319C201.049 110.319 204.873 97.5051 192.136 93.3562C192.136 93.3562 207.629 127.445 160.939 130.406L149.63 127.742L150.089 102.177C150.089 102.177 165.921 99.5195 168.685 73.0996Z" fill="#292929"/>
<path d="M104.607 85.3833C104.72 85.56 104.84 85.7367 104.961 85.9063C105.081 86.076 105.265 86.3163 105.427 86.5213L105.625 86.7757L105.964 87.1927C107.351 88.8498 108.871 90.391 110.509 91.801C115.954 96.513 122.446 99.857 129.444 101.555C134.287 102.727 139.273 103.203 144.251 102.968C147.768 102.858 151.204 101.887 154.259 100.141C159.497 97.0595 162.804 91.6596 164.727 86.0406C166.209 81.6032 167.068 76.9814 167.278 72.3077C167.349 70.9648 167.356 69.6219 167.328 68.2861C167.258 64.7508 166.981 61.2227 166.501 57.7195C165.812 52.2752 164.576 46.9141 162.811 41.7178C160.861 36.1059 158.104 30.6424 154.111 26.2037C149.955 21.5225 144.383 18.3281 138.243 17.1073C136.516 16.7756 134.764 16.5841 133.006 16.5348C131.868 16.4924 131.868 14.7254 133.006 14.7678C139.884 14.9022 146.523 17.3133 151.884 21.6237C156.698 25.5676 160.189 30.9322 162.677 36.5794C165.004 42.0137 166.665 47.7093 167.625 53.5424C168.381 57.8273 168.854 62.1576 169.038 66.5049C169.095 67.9185 169.123 69.2897 169.095 70.675C169.022 74.8944 168.455 79.0907 167.406 83.1781C165.893 89.0516 163.214 94.9179 158.634 99.0315C156.122 101.288 153.115 102.925 149.856 103.809C145.403 105.018 140.569 104.884 136.024 104.41C127.723 103.611 119.766 100.69 112.919 95.9287C109.279 93.4262 106.077 90.3409 103.441 86.7969C103.314 86.6273 103.194 86.4506 103.081 86.2739C102.466 85.3127 103.992 84.4292 104.607 85.3833Z" fill="#292929"/>
<path d="M159.667 80.3513C158.861 83.8428 155.624 86.5216 152.167 87.0941C145.934 88.1189 139.332 84.8818 136.837 79.0225C136.227 77.6569 135.859 76.1957 135.749 74.704C135.692 73.5661 137.459 73.5661 137.516 74.704C137.516 74.7676 137.516 74.8313 137.516 74.9019C137.516 74.9726 137.516 75.0574 137.516 75.1352C137.516 75.3401 137.48 74.9231 137.516 75.1352C137.516 75.2058 137.516 75.2765 137.516 75.3472C137.638 76.0665 137.815 76.7753 138.046 77.4676C138.741 79.5675 140.027 81.4226 141.749 82.8109C145.686 85.9279 152.938 87.0022 156.436 82.6837C157.124 81.8662 157.609 80.8973 157.85 79.8565C158.104 78.7539 159.808 79.2204 159.553 80.3301L159.667 80.3513Z" fill="#292929"/>
<path d="M159.73 126.371C159.73 126.371 145.594 132.527 104.834 126.371C104.834 126.371 74.979 126.215 52.4818 186.151C52.4818 186.151 40.5936 217.843 61.8185 223.505C83.0435 229.166 106.975 211.051 106.975 211.051C106.975 211.051 97.9214 205.256 102.311 194.357C102.311 194.357 137.537 186.716 137.113 207.517H221.596C221.596 207.517 220.719 129.975 159.73 126.371Z" fill="#31529A"/>
<path d="M160.176 127.134C157.61 128.243 154.663 128.675 151.914 129.063C142.725 130.357 133.304 130.159 124.052 129.466C120.469 129.198 116.892 128.837 113.323 128.406C111.33 128.166 109.339 127.904 107.351 127.621C106.517 127.508 105.64 127.282 104.799 127.254C104.613 127.243 104.427 127.243 104.241 127.254L103.718 127.31H103.597L103.216 127.367C99.6444 127.997 96.2069 129.233 93.0522 131.021C86.9243 134.329 81.6304 139.015 77.0221 144.203C69.4665 152.727 63.6638 162.735 58.8859 173.033C55.8043 179.67 52.8358 186.462 51.2737 193.636C49.7541 200.598 48.9272 208.924 52.4965 215.412C53.4925 217.175 54.836 218.717 56.4458 219.946C58.0556 221.174 59.8981 222.063 61.8615 222.558C67.7985 224.204 74.1243 223.893 80.0896 222.558C89.0729 220.543 97.6675 216.38 105.23 211.164C105.661 210.867 106.092 210.563 106.509 210.245V211.814C104.789 210.648 103.34 209.123 102.264 207.344C101.188 205.566 100.51 203.575 100.276 201.509C100.097 199.643 100.277 197.76 100.806 195.961C101.039 195.134 101.237 193.735 102.177 193.48C103.051 193.276 103.936 193.118 104.827 193.007C108.751 192.376 112.72 192.076 116.694 192.109C121.373 192.18 126.278 192.759 130.512 194.887C132.724 195.955 134.609 197.598 135.969 199.643C137.394 202.015 138.092 204.753 137.976 207.517L137.092 206.634H218.133C219.239 206.545 220.349 206.545 221.455 206.634H221.596L220.713 207.517C220.713 204.951 220.444 202.379 220.176 199.827C219.519 193.629 218.408 187.487 216.854 181.451C214.899 173.583 211.981 165.987 208.167 158.833C203.926 151.059 198.406 143.991 191.395 138.584C183.413 132.537 173.95 128.751 164 127.621C162.586 127.452 161.173 127.325 159.759 127.24C158.635 127.169 158.621 125.402 159.759 125.473C170.276 126.109 180.602 129.092 189.444 134.972C196.974 140.142 203.283 146.897 207.927 154.762C212.197 162.004 215.487 169.78 217.709 177.888C219.566 184.416 220.904 191.081 221.709 197.82C222.196 200.989 222.451 204.19 222.473 207.397C222.469 207.442 222.469 207.487 222.473 207.531C222.467 207.764 222.372 207.985 222.208 208.15C222.043 208.314 221.822 208.409 221.589 208.415H147.51C144.097 208.415 140.647 208.556 137.234 208.415H137.092C136.859 208.413 136.635 208.319 136.47 208.154C136.304 207.989 136.211 207.765 136.209 207.531C136.258 204.287 135.368 201.17 133.021 198.809C130.844 196.654 127.897 195.495 124.964 194.802C119.055 193.388 112.595 193.728 106.722 194.519C105.308 194.71 103.894 194.922 102.523 195.226L103.138 194.604C101.59 198.541 101.52 202.76 103.781 206.429C104.465 207.523 105.298 208.517 106.255 209.383C106.418 209.531 106.58 209.68 106.757 209.821C106.934 209.963 107.082 210.076 107.025 210.04C107.153 210.132 107.273 210.224 107.4 210.302C107.53 210.382 107.637 210.495 107.712 210.628C107.786 210.762 107.825 210.912 107.825 211.065C107.825 211.218 107.786 211.368 107.712 211.502C107.637 211.636 107.53 211.748 107.4 211.829C101.633 216.071 95.2873 219.465 88.557 221.907C82.9197 224.119 76.9407 225.334 70.8872 225.498C65.6357 225.547 59.7835 224.713 55.4579 221.512C48.7858 216.564 47.7327 207.658 48.489 199.954C48.9588 194.939 50.0877 190.008 51.8462 185.288C56.5323 172.927 62.2926 160.798 70.0885 150.069C74.9866 143.333 80.6904 137.092 87.5957 132.336C91.477 129.558 95.8135 127.479 100.41 126.194C101.581 125.884 102.774 125.664 103.979 125.536C104.219 125.536 104.467 125.487 104.686 125.487H104.856C105.745 125.569 106.63 125.696 107.506 125.869L110.609 126.3C122.313 127.833 134.251 128.781 146.054 127.918C150.38 127.6 154.91 127.148 159.031 125.699C159.158 125.657 159.738 125.402 159.307 125.607C160.317 125.162 161.222 126.681 160.176 127.134Z" fill="#292929"/>
<path d="M133.77 13.1358C133.77 13.1358 145.439 49.3235 101.505 64.7315C101.505 64.7315 85.1639 13.9062 129.522 9.02224C129.522 9.02224 153.079 -2.08851 170.276 15.6732C187.472 33.4348 167.335 57.3738 167.335 57.3738C167.335 57.3738 165.985 46.362 161.469 37.0677C155.815 25.4481 145.566 15.1077 130.865 16.0548L133.77 13.1358Z" fill="#292929"/>
<path d="M234.197 135.481H125.988C124.43 135.481 122.936 136.1 121.834 137.201C120.733 138.303 120.114 139.797 120.114 141.354V215.08C120.114 216.639 120.734 218.135 121.837 219.238C122.939 220.341 124.435 220.96 125.995 220.96H234.197C235.755 220.96 237.249 220.341 238.35 219.24C239.452 218.138 240.071 216.645 240.071 215.087V141.376C240.074 140.603 239.924 139.836 239.63 139.121C239.336 138.406 238.904 137.756 238.358 137.209C237.812 136.661 237.164 136.227 236.45 135.93C235.736 135.634 234.97 135.481 234.197 135.481Z" fill="#FF7B00"/>
<path d="M125.988 220.076H234.127C235.131 220.081 236.114 219.788 236.952 219.235C237.79 218.681 238.445 217.892 238.835 216.967C239.386 215.61 239.195 213.899 239.195 212.45V153.624C239.195 149.546 239.266 145.461 239.195 141.389C239.184 140.067 238.655 138.802 237.723 137.866C236.79 136.929 235.527 136.395 234.205 136.378H135.784C132.54 136.378 129.296 136.336 126.059 136.378C125.017 136.374 123.998 136.691 123.143 137.287C122.288 137.883 121.638 138.728 121.281 139.707C121.057 140.432 120.961 141.19 120.998 141.948V214.083C120.998 214.415 120.998 214.74 120.998 215.065C121.011 216.387 121.54 217.651 122.473 218.587C123.405 219.524 124.667 220.058 125.988 220.076C126.223 220.076 126.447 220.17 126.613 220.335C126.779 220.501 126.872 220.726 126.872 220.96C126.872 221.194 126.779 221.419 126.613 221.585C126.447 221.75 126.223 221.843 125.988 221.843C124.411 221.825 122.889 221.263 121.679 220.252C120.468 219.241 119.644 217.844 119.344 216.295C119.25 215.673 119.213 215.044 119.231 214.415V141.934C119.203 141.1 119.296 140.267 119.507 139.46C119.934 138.068 120.793 136.848 121.96 135.976C123.126 135.105 124.539 134.627 125.995 134.611C126.815 134.611 127.635 134.611 128.455 134.611H233.668C233.979 134.611 234.29 134.611 234.594 134.611C236.173 134.704 237.671 135.342 238.832 136.417C239.992 137.493 240.743 138.938 240.955 140.506C241.051 141.785 241.07 143.069 241.011 144.351V212.45C241.011 213.998 241.174 215.737 240.665 217.221C240.201 218.558 239.336 219.72 238.187 220.547C237.039 221.374 235.663 221.827 234.247 221.843H125.988C125.754 221.843 125.529 221.75 125.364 221.585C125.198 221.419 125.105 221.194 125.105 220.96C125.105 220.726 125.198 220.501 125.364 220.335C125.529 220.17 125.754 220.076 125.988 220.076Z" fill="#292929"/>
<path d="M101.406 74.4568C101.802 76.7206 102.679 78.8731 103.979 80.7684C107.11 85.7584 112.192 89.158 117.691 91.0522C122.882 92.7282 128.316 93.533 133.77 93.4341C134.005 93.4341 134.229 93.5272 134.395 93.6929C134.561 93.8586 134.654 94.0833 134.654 94.3176C134.654 94.5519 134.561 94.7767 134.395 94.9423C134.229 95.108 134.005 95.2011 133.77 95.2011C125.155 95.2011 115.945 93.7027 108.849 88.4654C104.997 85.7066 102.046 81.8706 100.367 77.4394C100.045 76.6276 99.8078 75.7843 99.6606 74.9233C99.5051 73.8136 101.208 73.333 101.364 74.4568H101.406Z" fill="#292929"/>
<path d="M99.5258 87.4754C92.0233 87.4754 85.9413 80.2764 85.9413 71.3959C85.9413 62.5154 92.0233 55.3164 99.5258 55.3164C107.028 55.3164 113.11 62.5154 113.11 71.3959C113.11 80.2764 107.028 87.4754 99.5258 87.4754Z" fill="#FF7B00"/>
<path d="M113.994 71.3967C113.951 77.8709 110.7 84.6702 104.509 87.3207C98.5291 89.8863 92.0337 87.3207 88.3725 82.2035C84.3791 76.5987 84.0187 68.6968 87.1427 62.6183C90.0122 57.0347 96.0694 53.2816 102.416 54.773C109.831 56.5117 113.944 64.2369 113.994 71.3967C113.994 71.631 113.901 71.8557 113.735 72.0214C113.569 72.1871 113.344 72.2802 113.11 72.2802C112.876 72.2802 112.651 72.1871 112.485 72.0214C112.32 71.8557 112.227 71.631 112.227 71.3967C112.184 65.6222 109.357 59.4731 103.823 57.0842C98.6139 54.8366 92.8818 57.1619 89.7649 61.6713C88.0464 64.2502 87.0401 67.2375 86.8477 70.3305C86.6553 73.4235 87.2838 76.5125 88.6693 79.2845C91.1643 84.1472 96.3592 87.6317 101.95 86.317C108.601 84.755 112.184 77.7931 112.227 71.3967C112.227 71.1624 112.32 70.9376 112.485 70.772C112.651 70.6063 112.876 70.5132 113.11 70.5132C113.344 70.5132 113.569 70.6063 113.735 70.772C113.901 70.9376 113.994 71.1624 113.994 71.3967Z" fill="#292929"/>
<path d="M133.77 97.8161C131.405 97.8161 129.487 96.2497 129.487 94.3175C129.487 92.3852 131.405 90.8188 133.77 90.8188C136.136 90.8188 138.053 92.3852 138.053 94.3175C138.053 96.2497 136.136 97.8161 133.77 97.8161Z" fill="#292929"/>
<path d="M139.607 64.5049C139.607 66.6748 138.272 68.4276 136.632 68.4276C134.992 68.4276 133.663 66.6748 133.663 64.5049C133.663 62.3351 134.992 60.561 136.66 60.561C138.328 60.561 139.607 62.3351 139.607 64.5049Z" fill="#292929"/>
<path d="M161.525 64.5049C161.525 66.6748 160.19 68.4276 158.55 68.4276C156.91 68.4276 155.581 66.6748 155.581 64.5049C155.581 62.3351 156.91 60.561 158.571 60.561C160.232 60.561 161.525 62.3351 161.525 64.5049Z" fill="#292929"/>
<path d="M169.35 50.1357C168.905 52.4399 166.381 50.6163 162.049 49.7753C157.716 48.9342 153.235 49.3865 153.687 47.0824C154.14 44.7783 158.006 43.5908 162.331 44.4319C166.657 45.273 169.802 47.8387 169.35 50.1357Z" fill="#292929"/>
<path d="M142.138 46.8849C142.421 49.2173 139.459 48.256 135.07 48.7791C130.681 49.3021 126.589 51.1115 126.285 48.7791C125.981 46.4467 129.324 44.1355 133.699 43.6054C138.074 43.0753 141.862 44.5525 142.138 46.8849Z" fill="#292929"/>
<path d="M151.503 74.3224C152.754 73.8181 153.834 72.9642 154.613 71.8627C155.369 70.5552 154.062 69.2547 153.313 68.244C152.184 66.8149 151.234 65.2531 150.485 63.5933C149.496 61.1263 149.057 58.4729 149.199 55.8186C149.241 54.6877 151.008 54.6806 150.966 55.8186C150.787 59.6303 151.917 63.3885 154.168 66.4699C154.916 67.392 155.591 68.3703 156.189 69.396C156.967 70.9298 156.514 72.4423 155.39 73.6368C154.527 74.5444 153.498 75.2786 152.358 75.7995C151.333 76.2802 150.436 74.7535 151.468 74.2729L151.503 74.3224Z" fill="#292929"/>
<path d="M151.814 64.2931C151.815 61.4216 152.81 58.639 154.631 56.4189C156.452 54.1987 158.987 52.6783 161.803 52.1165C164.619 51.5547 167.543 51.9861 170.076 53.3373C172.61 54.6886 174.597 56.8762 175.699 59.5277C176.802 62.1792 176.951 65.1308 176.122 67.88C175.293 70.6293 173.537 73.0063 171.153 74.6064C168.768 76.2065 165.903 76.9309 163.045 76.6562C160.186 76.3815 157.511 75.1247 155.475 73.0998" stroke="#31529A" stroke-width="1.5" stroke-miterlimit="10"/>
<path d="M133.77 76.7112C126.911 76.7112 121.351 71.1513 121.351 64.2928C121.351 57.4344 126.911 51.8745 133.77 51.8745C140.628 51.8745 146.188 57.4344 146.188 64.2928C146.188 71.1513 140.628 76.7112 133.77 76.7112Z" stroke="#31529A" stroke-width="1.5" stroke-miterlimit="10"/>
<path d="M152.557 60.0595C152.557 60.0595 151.701 59.1336 145.616 60.0595" stroke="#31529A" stroke-width="1.5" stroke-miterlimit="10"/>
<path d="M121.352 65.4663L112.312 65.9469" stroke="#31529A" stroke-width="1.5" stroke-miterlimit="10"/>
<path d="M120.115 99.0034C120.115 99.0034 129.925 113.139 149.63 109.33L150.111 102.969C150.111 102.969 131.487 106.594 120.115 99.0034Z" fill="#292929"/>
<path d="M174.605 182.603C171.566 179.564 171.566 174.637 174.605 171.598C177.644 168.559 182.571 168.559 185.61 171.598C188.649 174.637 188.649 179.564 185.61 182.603C182.571 185.642 177.644 185.642 174.605 182.603Z" fill="white"/>
<path d="M114.305 13.4605C114.305 13.4605 103.123 24.1896 101.936 56.8575L90.9877 57.9672C90.9877 57.9672 89.15 29.1513 101.59 18.4434C101.597 18.4434 109.605 11.5451 114.305 13.4605Z" fill="#FF7B00"/>
<path d="M114.927 14.0824L114.63 14.3934L114.291 14.7892L114.079 15.0507C114.022 15.1214 113.775 15.4324 113.923 15.2416C112.919 16.572 112.018 17.978 111.23 19.447C108 25.3557 106.085 31.943 104.813 38.5303C103.675 44.581 103.009 50.7108 102.819 56.8645C102.811 57.096 102.715 57.3157 102.551 57.4795C102.387 57.6433 102.167 57.7392 101.936 57.748L90.9877 58.8576C90.493 58.9071 90.1325 58.4053 90.1042 57.9741C89.7853 52.1475 90.0767 46.3036 90.9736 40.5376C92.1822 32.3106 94.7054 22.8113 101.512 17.3831C103.256 15.9564 105.152 14.7262 107.166 13.7149C109.371 12.6476 112.114 11.6864 114.531 12.6123C115.584 13.0152 115.125 14.7327 114.064 14.3157C112.085 13.5594 109.824 14.3651 108.057 15.2416C106.265 16.1304 104.569 17.2009 102.996 18.4362C100.251 20.6794 98.0725 23.5363 96.635 26.7764C92.9879 34.4946 91.9843 43.4637 91.8005 51.9099C91.7511 53.9242 91.744 55.9527 91.8712 57.9741L90.9877 57.0907L101.936 55.981L101.052 56.8645C101.42 47.0259 102.657 37.0743 105.795 27.6952C107.322 23.1435 109.272 18.5635 112.156 14.6903C112.614 14.0326 113.124 13.4133 113.683 12.8385C114.496 12.0469 115.747 13.2908 114.927 14.0824Z" fill="#292929"/>
<path d="M96.1332 87.4754C88.6307 87.4754 82.5487 80.2764 82.5487 71.3959C82.5487 62.5154 88.6307 55.3164 96.1332 55.3164C103.636 55.3164 109.718 62.5154 109.718 71.3959C109.718 80.2764 103.636 87.4754 96.1332 87.4754Z" fill="#FF7B00"/>
<path d="M110.601 71.3967C110.552 77.8709 107.307 84.6702 101.116 87.3207C95.1365 89.8863 88.634 87.3207 84.9799 82.2035C80.9865 76.5987 80.6261 68.6968 83.7501 62.6183C86.6197 57.0347 92.6768 53.2816 99.0238 54.773C106.438 56.5117 110.552 64.2369 110.601 71.3967C110.601 71.631 110.508 71.8557 110.342 72.0214C110.177 72.1871 109.952 72.2802 109.718 72.2802C109.483 72.2802 109.259 72.1871 109.093 72.0214C108.927 71.8557 108.834 71.631 108.834 71.3967C108.792 65.6222 105.965 59.4731 100.423 57.0842C95.2142 54.8366 89.4822 57.1619 86.3723 61.6713C84.6539 64.2502 83.6475 67.2375 83.4551 70.3305C83.2627 73.4235 83.8912 76.5125 85.2767 79.2845C87.7646 84.1472 92.9596 87.6317 98.5503 86.317C105.201 84.755 108.785 77.7931 108.834 71.3967C108.834 71.1624 108.927 70.9376 109.093 70.772C109.259 70.6063 109.483 70.5132 109.718 70.5132C109.952 70.5132 110.177 70.6063 110.342 70.772C110.508 70.9376 110.601 71.1624 110.601 71.3967Z" fill="#292929"/>
<path d="M163.059 113.916C158.824 112.821 154.464 112.277 150.089 112.298V119.267C150.089 119.267 160.387 117.549 163.059 113.916Z" fill="white" stroke="#31529A" stroke-width="1.5" stroke-miterlimit="10"/>
<path d="M100.55 113.916C100.55 113.916 114.219 112.156 120.849 112.298V119.267C120.849 119.267 103.229 117.549 100.55 113.916Z" fill="white" stroke="#31529A" stroke-width="1.5" stroke-miterlimit="10"/>
<path d="M120.998 99.4348V121.628C120.998 121.862 120.905 122.087 120.739 122.253C120.574 122.418 120.349 122.511 120.115 122.511C119.88 122.511 119.656 122.418 119.49 122.253C119.324 122.087 119.231 121.862 119.231 121.628V99.4348C119.231 99.2004 119.324 98.9757 119.49 98.81C119.656 98.6444 119.88 98.5513 120.115 98.5513C120.349 98.5513 120.574 98.6444 120.739 98.81C120.905 98.9757 120.998 99.2004 120.998 99.4348Z" fill="#292929"/>
<path d="M150.994 102.969V121.628C150.994 121.863 150.901 122.087 150.735 122.253C150.57 122.419 150.345 122.512 150.111 122.512C149.876 122.512 149.652 122.419 149.486 122.253C149.32 122.087 149.227 121.863 149.227 121.628V102.969C149.227 102.735 149.32 102.51 149.486 102.344C149.652 102.179 149.876 102.085 150.111 102.085C150.345 102.085 150.57 102.179 150.735 102.344C150.901 102.51 150.994 102.735 150.994 102.969Z" fill="#292929"/>
<path d="M163.059 127.325C163.059 127.325 140.774 139.531 100.55 127.325V113.896C100.55 113.896 137.586 125.148 163.059 113.896V127.325Z" fill="#31529A"/>
<path d="M106.862 209.878C107.79 210.775 108.898 211.464 110.113 211.899C111.569 212.406 113.12 212.577 114.651 212.401C116.181 212.225 117.653 211.706 118.955 210.882C119.158 210.764 119.399 210.731 119.625 210.79C119.852 210.85 120.046 210.997 120.164 211.2C120.282 211.402 120.315 211.643 120.255 211.87C120.195 212.097 120.048 212.29 119.846 212.408C116.778 214.182 113.174 214.861 109.774 213.645C108.216 213.128 106.793 212.268 105.611 211.129C104.819 210.316 106.07 209.065 106.862 209.878Z" fill="#292929"/>
<path d="M102.027 195.212C100.279 194.676 98.4892 194.284 96.6769 194.038C91.926 193.333 87.1113 193.16 82.322 193.523C78.4981 193.792 74.7007 194.357 70.9639 195.212C69.8613 195.459 69.3877 193.756 70.4974 193.508C80.2794 191.303 90.8106 190.681 100.642 193.007C101.264 193.155 101.893 193.303 102.501 193.508C103.575 193.862 103.116 195.565 102.027 195.212Z" fill="#292929"/>
<path d="M85.0644 192.469C85.8593 183.041 87.6964 173.73 90.542 164.706C91.7492 160.793 93.2641 156.981 95.0726 153.306C95.5815 152.288 97.1081 153.186 96.5992 154.196C93.5753 160.518 91.3096 167.175 89.8494 174.029C88.6713 179.131 87.7701 184.294 87.1494 189.494C87.0293 190.483 86.9162 191.473 86.8314 192.469C86.7395 193.593 84.9725 193.6 85.0644 192.469Z" fill="#292929"/>
<path d="M163.519 128.088C160.409 129.784 156.783 130.774 153.355 131.58C143.877 133.813 133.975 134.082 124.313 133.092C116.179 132.217 108.148 130.56 100.332 128.145C100.146 128.093 99.9824 127.982 99.8652 127.829C99.748 127.676 99.6835 127.489 99.6814 127.296V113.867C99.6832 113.732 99.716 113.598 99.7774 113.477C99.8387 113.355 99.927 113.25 100.035 113.168C100.144 113.086 100.27 113.03 100.403 113.004C100.537 112.979 100.674 112.984 100.805 113.019C105.321 114.332 109.915 115.361 114.559 116.101C124.511 117.804 134.745 118.561 144.81 117.514C150.943 116.972 156.954 115.48 162.628 113.09C162.763 113.016 162.915 112.978 163.069 112.98C163.223 112.981 163.373 113.022 163.507 113.099C163.64 113.175 163.752 113.285 163.831 113.417C163.909 113.549 163.953 113.7 163.957 113.853V127.282C163.957 127.517 163.864 127.741 163.698 127.907C163.533 128.073 163.308 128.166 163.074 128.166C162.839 128.166 162.615 128.073 162.449 127.907C162.283 127.741 162.19 127.517 162.19 127.282V113.853L163.519 114.68C153.376 119.126 142.039 120.158 131.077 119.706C122.379 119.314 113.739 118.096 105.272 116.066C103.618 115.67 101.957 115.26 100.325 114.772L101.441 113.917V127.346L100.798 126.491C113.188 130.237 126.158 132.414 139.127 131.778C146.119 131.542 153.032 130.231 159.624 127.89C160.664 127.537 161.674 127.1 162.642 126.583C163.611 126.017 164.501 127.544 163.519 128.088Z" fill="#292929"/>
<path d="M150.875 90.3098C150.875 90.8328 150.097 91.264 149.143 91.264C148.189 91.264 147.404 90.8328 147.404 90.3098C147.404 89.7868 148.182 89.8009 149.143 89.8009C150.104 89.8009 150.875 89.7797 150.875 90.3098Z" fill="#292929"/>
</svg>
