<svg width="362" height="176" viewBox="0 0 362 176" fill="none" xmlns="http://www.w3.org/2000/svg">
<path d="M2.02344 50.158C18.312 24.2565 90.9222 -6.26078 121.966 32.1489C140.251 54.7738 98.2884 71.7306 86.7129 50.158C69.2835 17.676 110.39 -5.00821 141.434 3.73624C191.864 17.9416 178.265 112.125 276.657 142.116" stroke="#FF7B00" stroke-width="3" stroke-dasharray="10 10"/>
<path d="M305.654 129.733L303.499 120.139L349.85 155.557L305.654 129.733Z" fill="white" stroke="#FF7B00" stroke-width="0.75"/>
<path d="M296.781 150.567L305.5 130.511L353.071 158.308L296.781 150.567Z" fill="#FFC2BF" stroke="#FF7B00" stroke-width="0.75"/>
<path d="M308.056 140.916L351.836 158.138L297.1 150.61L308.056 140.916Z" fill="#FA9793" stroke="#FF7B00" stroke-width="0.75"/>
<path d="M310.307 159.583L308.415 141.057L353.021 158.604L310.307 159.583Z" fill="white" stroke="#FF7B00" stroke-width="0.75"/>
</svg>
