<svg width="216" height="100" viewBox="0 0 216 100" fill="none" xmlns="http://www.w3.org/2000/svg">
<rect x="2.79297" width="210.076" height="100" rx="20" fill="#D3D3D3" fill-opacity="0.4"/>
<path d="M81.3199 37.2585C85.2666 37.2585 88.1866 38.0318 90.0799 39.5785C91.9733 41.0985 92.9199 43.1785 92.9199 45.8185C92.9199 47.4985 92.5066 49.0185 91.6799 50.3785C90.8533 51.7385 89.6133 52.8185 87.9599 53.6185C86.3066 54.4185 84.2666 54.8185 81.8399 54.8185C79.8399 54.8185 77.9066 54.5385 76.0399 53.9785C74.1733 53.3918 72.5999 52.5918 71.3199 51.5785L73.5199 47.5385C74.5599 48.3918 75.7999 49.0718 77.2399 49.5785C78.7066 50.0585 80.2133 50.2985 81.7599 50.2985C83.5999 50.2985 85.0399 49.9251 86.0799 49.1785C87.1466 48.4051 87.6799 47.3518 87.6799 46.0185C87.6799 44.5785 87.1066 43.4985 85.9599 42.7785C84.8399 42.0318 82.9066 41.6585 80.1599 41.6585H73.3999L74.8399 26.4185H91.2799V30.7785H79.2399L78.6399 37.2585H81.3199ZM107.599 54.8185C105.359 54.8185 103.359 54.2585 101.599 53.1385C99.8393 51.9918 98.4526 50.3385 97.4393 48.1785C96.426 45.9918 95.9193 43.4051 95.9193 40.4185C95.9193 37.4318 96.426 34.8585 97.4393 32.6985C98.4526 30.5118 99.8393 28.8585 101.599 27.7385C103.359 26.5918 105.359 26.0185 107.599 26.0185C109.839 26.0185 111.839 26.5918 113.599 27.7385C115.386 28.8585 116.786 30.5118 117.799 32.6985C118.813 34.8585 119.319 37.4318 119.319 40.4185C119.319 43.4051 118.813 45.9918 117.799 48.1785C116.786 50.3385 115.386 51.9918 113.599 53.1385C111.839 54.2585 109.839 54.8185 107.599 54.8185ZM107.599 50.2985C109.599 50.2985 111.173 49.4718 112.319 47.8185C113.493 46.1651 114.079 43.6985 114.079 40.4185C114.079 37.1385 113.493 34.6718 112.319 33.0185C111.173 31.3651 109.599 30.5385 107.599 30.5385C105.626 30.5385 104.053 31.3651 102.879 33.0185C101.733 34.6718 101.159 37.1385 101.159 40.4185C101.159 43.6985 101.733 46.1651 102.879 47.8185C104.053 49.4718 105.626 50.2985 107.599 50.2985ZM142.309 42.4185H135.229V49.4185H130.949V42.4185H123.869V38.4185H130.949V31.4185H135.229V38.4185H142.309V42.4185ZM31.3667 67.8185V78.4185H29.4467V69.4985H23.4667V78.4185H21.5467V67.8185H31.3667ZM40.7018 67.7185C41.7285 67.7185 42.6485 67.9451 43.4618 68.3985C44.2751 68.8518 44.9085 69.4851 45.3618 70.2985C45.8285 71.1118 46.0618 72.0518 46.0618 73.1185C46.0618 74.1851 45.8285 75.1318 45.3618 75.9585C44.9085 76.7718 44.2751 77.4051 43.4618 77.8585C42.6485 78.3118 41.7285 78.5385 40.7018 78.5385C39.9418 78.5385 39.2418 78.3918 38.6018 78.0985C37.9751 77.8051 37.4418 77.3785 37.0018 76.8185V82.2985H35.0818V67.8185H36.9218V69.4985C37.3485 68.9118 37.8885 68.4718 38.5418 68.1785C39.1951 67.8718 39.9151 67.7185 40.7018 67.7185ZM40.5418 76.8585C41.2218 76.8585 41.8285 76.7051 42.3618 76.3985C42.9085 76.0785 43.3351 75.6385 43.6418 75.0785C43.9618 74.5051 44.1218 73.8518 44.1218 73.1185C44.1218 72.3851 43.9618 71.7385 43.6418 71.1785C43.3351 70.6051 42.9085 70.1651 42.3618 69.8585C41.8285 69.5518 41.2218 69.3985 40.5418 69.3985C39.8751 69.3985 39.2685 69.5585 38.7218 69.8785C38.1885 70.1851 37.7618 70.6185 37.4418 71.1785C37.1351 71.7385 36.9818 72.3851 36.9818 73.1185C36.9818 73.8518 37.1351 74.5051 37.4418 75.0785C37.7485 75.6385 38.1751 76.0785 38.7218 76.3985C39.2685 76.7051 39.8751 76.8585 40.5418 76.8585ZM58.4313 73.1785C58.4313 73.3251 58.418 73.5185 58.3913 73.7585H49.7913C49.9113 74.6918 50.318 75.4451 51.0113 76.0185C51.718 76.5785 52.5913 76.8585 53.6313 76.8585C54.898 76.8585 55.918 76.4318 56.6913 75.5785L57.7513 76.8185C57.2713 77.3785 56.6713 77.8051 55.9513 78.0985C55.2447 78.3918 54.4513 78.5385 53.5713 78.5385C52.4513 78.5385 51.458 78.3118 50.5913 77.8585C49.7247 77.3918 49.0513 76.7451 48.5713 75.9185C48.1047 75.0918 47.8713 74.1585 47.8713 73.1185C47.8713 72.0918 48.098 71.1651 48.5513 70.3385C49.018 69.5118 49.6513 68.8718 50.4513 68.4185C51.2647 67.9518 52.178 67.7185 53.1913 67.7185C54.2047 67.7185 55.1047 67.9518 55.8913 68.4185C56.6913 68.8718 57.3113 69.5118 57.7513 70.3385C58.2047 71.1651 58.4313 72.1118 58.4313 73.1785ZM53.1913 69.3385C52.2713 69.3385 51.498 69.6185 50.8713 70.1785C50.258 70.7385 49.898 71.4718 49.7913 72.3785H56.5913C56.4847 71.4851 56.118 70.7585 55.4913 70.1985C54.878 69.6251 54.1113 69.3385 53.1913 69.3385ZM71.2299 67.8185V78.4185H69.3099V69.4985H63.3299V78.4185H61.4099V67.8185H71.2299ZM79.4851 78.5385C78.4318 78.5385 77.4851 78.3051 76.6451 77.8385C75.8051 77.3718 75.1451 76.7318 74.6651 75.9185C74.1984 75.0918 73.9651 74.1585 73.9651 73.1185C73.9651 72.0785 74.1984 71.1518 74.6651 70.3385C75.1451 69.5118 75.8051 68.8718 76.6451 68.4185C77.4851 67.9518 78.4318 67.7185 79.4851 67.7185C80.5384 67.7185 81.4784 67.9518 82.3051 68.4185C83.1451 68.8718 83.7984 69.5118 84.2651 70.3385C84.7451 71.1518 84.9851 72.0785 84.9851 73.1185C84.9851 74.1585 84.7451 75.0918 84.2651 75.9185C83.7984 76.7318 83.1451 77.3718 82.3051 77.8385C81.4784 78.3051 80.5384 78.5385 79.4851 78.5385ZM79.4851 76.8585C80.1651 76.8585 80.7718 76.7051 81.3051 76.3985C81.8518 76.0785 82.2784 75.6385 82.5851 75.0785C82.8918 74.5051 83.0451 73.8518 83.0451 73.1185C83.0451 72.3851 82.8918 71.7385 82.5851 71.1785C82.2784 70.6051 81.8518 70.1651 81.3051 69.8585C80.7718 69.5518 80.1651 69.3985 79.4851 69.3985C78.8051 69.3985 78.1918 69.5518 77.6451 69.8585C77.1118 70.1651 76.6851 70.6051 76.3651 71.1785C76.0584 71.7385 75.9051 72.3851 75.9051 73.1185C75.9051 73.8518 76.0584 74.5051 76.3651 75.0785C76.6851 75.6385 77.1118 76.0785 77.6451 76.3985C78.1918 76.7051 78.8051 76.8585 79.4851 76.8585ZM98.4595 76.7385V80.8785H96.6595V78.4185H87.7995V80.8785H85.9795V76.7385H86.5395C87.2195 76.6985 87.6861 76.2185 87.9395 75.2985C88.1928 74.3785 88.3661 73.0785 88.4595 71.3985L88.6195 67.8185H96.8395V76.7385H98.4595ZM90.2195 71.5385C90.1661 72.8718 90.0528 73.9785 89.8795 74.8585C89.7195 75.7251 89.4195 76.3518 88.9795 76.7385H94.9195V69.4985H90.3195L90.2195 71.5385ZM104.741 67.7185C106.207 67.7185 107.327 68.0785 108.101 68.7985C108.887 69.5185 109.281 70.5918 109.281 72.0185V78.4185H107.461V77.0185C107.141 77.5118 106.681 77.8918 106.081 78.1585C105.494 78.4118 104.794 78.5385 103.981 78.5385C102.794 78.5385 101.841 78.2518 101.121 77.6785C100.414 77.1051 100.061 76.3518 100.061 75.4185C100.061 74.4851 100.401 73.7385 101.081 73.1785C101.761 72.6051 102.841 72.3185 104.321 72.3185H107.361V71.9385C107.361 71.1118 107.121 70.4785 106.641 70.0385C106.161 69.5985 105.454 69.3785 104.521 69.3785C103.894 69.3785 103.281 69.4851 102.681 69.6985C102.081 69.8985 101.574 70.1718 101.161 70.5185L100.361 69.0785C100.907 68.6385 101.561 68.3051 102.321 68.0785C103.081 67.8385 103.887 67.7185 104.741 67.7185ZM104.301 77.0585C105.034 77.0585 105.667 76.8985 106.201 76.5785C106.734 76.2451 107.121 75.7785 107.361 75.1785V73.6985H104.401C102.774 73.6985 101.961 74.2451 101.961 75.3385C101.961 75.8718 102.167 76.2918 102.581 76.5985C102.994 76.9051 103.567 77.0585 104.301 77.0585ZM119.958 72.9185C121.331 73.2651 122.018 74.1251 122.018 75.4985C122.018 76.4318 121.665 77.1518 120.958 77.6585C120.265 78.1651 119.225 78.4185 117.838 78.4185H112.738V67.8185H117.658C118.911 67.8185 119.891 68.0585 120.598 68.5385C121.305 69.0051 121.658 69.6718 121.658 70.5385C121.658 71.0985 121.505 71.5851 121.198 71.9985C120.905 72.3985 120.491 72.7051 119.958 72.9185ZM114.618 72.3785H117.498C118.231 72.3785 118.785 72.2451 119.158 71.9785C119.545 71.7118 119.738 71.3251 119.738 70.8185C119.738 69.8051 118.991 69.2985 117.498 69.2985H114.618V72.3785ZM117.698 76.9385C118.498 76.9385 119.098 76.8118 119.498 76.5585C119.898 76.3051 120.098 75.9118 120.098 75.3785C120.098 74.8318 119.911 74.4251 119.538 74.1585C119.178 73.8918 118.605 73.7585 117.818 73.7585H114.618V76.9385H117.698ZM128.803 67.7185C130.27 67.7185 131.39 68.0785 132.163 68.7985C132.95 69.5185 133.343 70.5918 133.343 72.0185V78.4185H131.523V77.0185C131.203 77.5118 130.743 77.8918 130.143 78.1585C129.557 78.4118 128.857 78.5385 128.043 78.5385C126.857 78.5385 125.903 78.2518 125.183 77.6785C124.477 77.1051 124.123 76.3518 124.123 75.4185C124.123 74.4851 124.463 73.7385 125.143 73.1785C125.823 72.6051 126.903 72.3185 128.383 72.3185H131.423V71.9385C131.423 71.1118 131.183 70.4785 130.703 70.0385C130.223 69.5985 129.517 69.3785 128.583 69.3785C127.957 69.3785 127.343 69.4851 126.743 69.6985C126.143 69.8985 125.637 70.1718 125.223 70.5185L124.423 69.0785C124.97 68.6385 125.623 68.3051 126.383 68.0785C127.143 67.8385 127.95 67.7185 128.803 67.7185ZM128.363 77.0585C129.097 77.0585 129.73 76.8985 130.263 76.5785C130.797 76.2451 131.183 75.7785 131.423 75.1785V73.6985H128.463C126.837 73.6985 126.023 74.2451 126.023 75.3385C126.023 75.8718 126.23 76.2918 126.643 76.5985C127.057 76.9051 127.63 77.0585 128.363 77.0585ZM144.701 69.4985H140.821V78.4185H138.901V69.4985H135.021V67.8185H144.701V69.4985ZM155.775 73.1785C155.775 73.3251 155.762 73.5185 155.735 73.7585H147.135C147.255 74.6918 147.662 75.4451 148.355 76.0185C149.062 76.5785 149.935 76.8585 150.975 76.8585C152.242 76.8585 153.262 76.4318 154.035 75.5785L155.095 76.8185C154.615 77.3785 154.015 77.8051 153.295 78.0985C152.588 78.3918 151.795 78.5385 150.915 78.5385C149.795 78.5385 148.802 78.3118 147.935 77.8585C147.068 77.3918 146.395 76.7451 145.915 75.9185C145.448 75.0918 145.215 74.1585 145.215 73.1185C145.215 72.0918 145.442 71.1651 145.895 70.3385C146.362 69.5118 146.995 68.8718 147.795 68.4185C148.608 67.9518 149.522 67.7185 150.535 67.7185C151.548 67.7185 152.448 67.9518 153.235 68.4185C154.035 68.8718 154.655 69.5118 155.095 70.3385C155.548 71.1651 155.775 72.1118 155.775 73.1785ZM150.535 69.3385C149.615 69.3385 148.842 69.6185 148.215 70.1785C147.602 70.7385 147.242 71.4718 147.135 72.3785H153.935C153.828 71.4851 153.462 70.7585 152.835 70.1985C152.222 69.6251 151.455 69.3385 150.535 69.3385ZM167.678 67.8185V78.4185H165.758V69.4985H161.198L161.078 71.8585C161.011 73.2851 160.885 74.4785 160.698 75.4385C160.511 76.3851 160.205 77.1451 159.778 77.7185C159.351 78.2918 158.758 78.5785 157.998 78.5785C157.651 78.5785 157.258 78.5185 156.818 78.3985L156.938 76.7785C157.111 76.8185 157.271 76.8385 157.418 76.8385C157.951 76.8385 158.351 76.6051 158.618 76.1385C158.885 75.6718 159.058 75.1185 159.138 74.4785C159.218 73.8385 159.291 72.9251 159.358 71.7385L159.538 67.8185H167.678ZM180.97 73.1785C180.97 73.3251 180.957 73.5185 180.93 73.7585H172.33C172.45 74.6918 172.857 75.4451 173.55 76.0185C174.257 76.5785 175.13 76.8585 176.17 76.8585C177.437 76.8585 178.457 76.4318 179.23 75.5785L180.29 76.8185C179.81 77.3785 179.21 77.8051 178.49 78.0985C177.784 78.3918 176.99 78.5385 176.11 78.5385C174.99 78.5385 173.997 78.3118 173.13 77.8585C172.264 77.3918 171.59 76.7451 171.11 75.9185C170.644 75.0918 170.41 74.1585 170.41 73.1185C170.41 72.0918 170.637 71.1651 171.09 70.3385C171.557 69.5118 172.19 68.8718 172.99 68.4185C173.804 67.9518 174.717 67.7185 175.73 67.7185C176.744 67.7185 177.644 67.9518 178.43 68.4185C179.23 68.8718 179.85 69.5118 180.29 70.3385C180.744 71.1651 180.97 72.1118 180.97 73.1785ZM175.73 69.3385C174.81 69.3385 174.037 69.6185 173.41 70.1785C172.797 70.7385 172.437 71.4718 172.33 72.3785H179.13C179.024 71.4851 178.657 70.7585 178.03 70.1985C177.417 69.6251 176.65 69.3385 175.73 69.3385ZM183.949 67.8185H185.869V75.5385L192.369 67.8185H194.109V78.4185H192.189V70.6985L185.709 78.4185H183.949V67.8185ZM188.909 66.4385C187.922 66.4385 187.156 66.2051 186.609 65.7385C186.062 65.2585 185.782 64.5718 185.769 63.6785H187.069C187.082 64.1718 187.249 64.5718 187.569 64.8785C187.902 65.1718 188.342 65.3185 188.889 65.3185C189.436 65.3185 189.876 65.1718 190.209 64.8785C190.542 64.5718 190.716 64.1718 190.729 63.6785H192.069C192.056 64.5718 191.769 65.2585 191.209 65.7385C190.649 66.2051 189.882 66.4385 188.909 66.4385Z" fill="white"/>
</svg>
