<svg width="211" height="100" viewBox="0 0 211 100" fill="none" xmlns="http://www.w3.org/2000/svg">
<rect x="0.510254" width="210.076" height="100" rx="20" fill="#D3D3D3" fill-opacity="0.4"/>
<path d="M86.0312 23.9648V51.9648H80.8312V28.3248H74.9112V23.9648H86.0312ZM111.866 47.5648V51.9648H91.2255V48.4848L102.346 37.9248C103.599 36.7248 104.439 35.6848 104.866 34.8048C105.319 33.8982 105.546 33.0048 105.546 32.1248C105.546 30.8182 105.106 29.8182 104.226 29.1248C103.346 28.4315 102.052 28.0848 100.346 28.0848C97.4922 28.0848 95.3055 29.0582 93.7855 31.0048L90.1455 28.2048C91.2389 26.7382 92.7055 25.6048 94.5455 24.8048C96.4122 23.9782 98.4922 23.5648 100.786 23.5648C103.826 23.5648 106.252 24.2848 108.066 25.7248C109.879 27.1648 110.786 29.1248 110.786 31.6048C110.786 33.1248 110.466 34.5515 109.826 35.8848C109.186 37.2182 107.959 38.7382 106.146 40.4448L98.6655 47.5648H111.866ZM133.951 39.9648H126.871V46.9648H122.591V39.9648H115.511V35.9648H122.591V28.9648H126.871V35.9648H133.951V39.9648ZM75.0731 71.4848H72.8731V75.9648H70.9531V65.3648H72.8731V69.8448H75.1131L78.5531 65.3648H80.6131L76.5931 70.4648L80.8931 75.9648H78.6331L75.0731 71.4848ZM91.7608 65.3648L86.6208 77.0248C86.1674 78.1048 85.6341 78.8648 85.0208 79.3048C84.4208 79.7448 83.6941 79.9648 82.8408 79.9648C82.3208 79.9648 81.8141 79.8782 81.3208 79.7048C80.8408 79.5448 80.4408 79.3048 80.1208 78.9848L80.9408 77.5448C81.4874 78.0648 82.1208 78.3248 82.8408 78.3248C83.3074 78.3248 83.6941 78.1982 84.0008 77.9448C84.3208 77.7048 84.6074 77.2848 84.8608 76.6848L85.2008 75.9448L80.5208 65.3648H82.5208L86.2208 73.8448L89.8808 65.3648H91.7608ZM99.3466 65.2648C100.373 65.2648 101.293 65.4915 102.107 65.9448C102.92 66.3982 103.553 67.0315 104.007 67.8448C104.473 68.6582 104.707 69.5982 104.707 70.6648C104.707 71.7315 104.473 72.6782 104.007 73.5048C103.553 74.3182 102.92 74.9515 102.107 75.4048C101.293 75.8582 100.373 76.0848 99.3466 76.0848C98.5866 76.0848 97.8866 75.9382 97.2466 75.6448C96.6199 75.3515 96.0866 74.9248 95.6466 74.3648V79.8448H93.7266V65.3648H95.5666V67.0448C95.9932 66.4582 96.5332 66.0182 97.1866 65.7248C97.8399 65.4182 98.5599 65.2648 99.3466 65.2648ZM99.1866 74.4048C99.8666 74.4048 100.473 74.2515 101.007 73.9448C101.553 73.6248 101.98 73.1848 102.287 72.6248C102.607 72.0515 102.767 71.3982 102.767 70.6648C102.767 69.9315 102.607 69.2848 102.287 68.7248C101.98 68.1515 101.553 67.7115 101.007 67.4048C100.473 67.0982 99.8666 66.9448 99.1866 66.9448C98.5199 66.9448 97.9132 67.1048 97.3666 67.4248C96.8332 67.7315 96.4066 68.1648 96.0866 68.7248C95.7799 69.2848 95.6266 69.9315 95.6266 70.6648C95.6266 71.3982 95.7799 72.0515 96.0866 72.6248C96.3932 73.1848 96.8199 73.6248 97.3666 73.9448C97.9132 74.2515 98.5199 74.4048 99.1866 74.4048ZM112.116 76.0848C111.036 76.0848 110.069 75.8515 109.216 75.3848C108.376 74.9182 107.716 74.2782 107.236 73.4648C106.756 72.6382 106.516 71.7048 106.516 70.6648C106.516 69.6248 106.756 68.6982 107.236 67.8848C107.716 67.0582 108.376 66.4182 109.216 65.9648C110.069 65.4982 111.036 65.2648 112.116 65.2648C113.076 65.2648 113.929 65.4582 114.676 65.8448C115.436 66.2315 116.023 66.7915 116.436 67.5248L114.976 68.4648C114.643 67.9582 114.229 67.5782 113.736 67.3248C113.243 67.0715 112.696 66.9448 112.096 66.9448C111.403 66.9448 110.776 67.0982 110.216 67.4048C109.669 67.7115 109.236 68.1515 108.916 68.7248C108.609 69.2848 108.456 69.9315 108.456 70.6648C108.456 71.4115 108.609 72.0715 108.916 72.6448C109.236 73.2048 109.669 73.6382 110.216 73.9448C110.776 74.2515 111.403 74.4048 112.096 74.4048C112.696 74.4048 113.243 74.2782 113.736 74.0248C114.229 73.7715 114.643 73.3915 114.976 72.8848L116.436 73.8048C116.023 74.5382 115.436 75.1048 114.676 75.5048C113.929 75.8915 113.076 76.0848 112.116 76.0848ZM123.306 76.0848C122.252 76.0848 121.306 75.8515 120.466 75.3848C119.626 74.9182 118.966 74.2782 118.486 73.4648C118.019 72.6382 117.786 71.7048 117.786 70.6648C117.786 69.6248 118.019 68.6982 118.486 67.8848C118.966 67.0582 119.626 66.4182 120.466 65.9648C121.306 65.4982 122.252 65.2648 123.306 65.2648C124.359 65.2648 125.299 65.4982 126.126 65.9648C126.966 66.4182 127.619 67.0582 128.086 67.8848C128.566 68.6982 128.806 69.6248 128.806 70.6648C128.806 71.7048 128.566 72.6382 128.086 73.4648C127.619 74.2782 126.966 74.9182 126.126 75.3848C125.299 75.8515 124.359 76.0848 123.306 76.0848ZM123.306 74.4048C123.986 74.4048 124.592 74.2515 125.126 73.9448C125.672 73.6248 126.099 73.1848 126.406 72.6248C126.712 72.0515 126.866 71.3982 126.866 70.6648C126.866 69.9315 126.712 69.2848 126.406 68.7248C126.099 68.1515 125.672 67.7115 125.126 67.4048C124.592 67.0982 123.986 66.9448 123.306 66.9448C122.626 66.9448 122.012 67.0982 121.466 67.4048C120.932 67.7115 120.506 68.1515 120.186 68.7248C119.879 69.2848 119.726 69.9315 119.726 70.6648C119.726 71.3982 119.879 72.0515 120.186 72.6248C120.506 73.1848 120.932 73.6248 121.466 73.9448C122.012 74.2515 122.626 74.4048 123.306 74.4048ZM138.798 70.4648C140.171 70.8115 140.858 71.6715 140.858 73.0448C140.858 73.9782 140.505 74.6982 139.798 75.2048C139.105 75.7115 138.065 75.9648 136.678 75.9648H131.578V65.3648H136.498C137.751 65.3648 138.731 65.6048 139.438 66.0848C140.145 66.5515 140.498 67.2182 140.498 68.0848C140.498 68.6448 140.345 69.1315 140.038 69.5448C139.745 69.9448 139.331 70.2515 138.798 70.4648ZM133.458 69.9248H136.338C137.071 69.9248 137.625 69.7915 137.998 69.5248C138.385 69.2582 138.578 68.8715 138.578 68.3648C138.578 67.3515 137.831 66.8448 136.338 66.8448H133.458V69.9248ZM136.538 74.4848C137.338 74.4848 137.938 74.3582 138.338 74.1048C138.738 73.8515 138.938 73.4582 138.938 72.9248C138.938 72.3782 138.751 71.9715 138.378 71.7048C138.018 71.4382 137.445 71.3048 136.658 71.3048H133.458V74.4848H136.538Z" fill="white"/>
</svg>
