<svg width="211" height="100" viewBox="0 0 211 100" fill="none" xmlns="http://www.w3.org/2000/svg">
<rect x="0.0761719" width="210.076" height="100" rx="20" fill="#D3D3D3" fill-opacity="0.4"/>
<path d="M65.1463 35.1859C69.093 35.1859 72.013 35.9593 73.9063 37.5059C75.7996 39.0259 76.7463 41.1059 76.7463 43.7459C76.7463 45.4259 76.333 46.9459 75.5063 48.3059C74.6796 49.6659 73.4396 50.7459 71.7863 51.5459C70.133 52.3459 68.093 52.7459 65.6663 52.7459C63.6663 52.7459 61.733 52.4659 59.8663 51.9059C57.9996 51.3193 56.4263 50.5193 55.1463 49.5059L57.3463 45.4659C58.3863 46.3193 59.6263 46.9993 61.0663 47.5059C62.533 47.9859 64.0396 48.2259 65.5863 48.2259C67.4263 48.2259 68.8663 47.8526 69.9063 47.1059C70.973 46.3326 71.5063 45.2793 71.5063 43.9459C71.5063 42.5059 70.933 41.4259 69.7863 40.7059C68.6663 39.9593 66.733 39.5859 63.9863 39.5859H57.2263L58.6663 24.3459H75.1063V28.7059H63.0663L62.4663 35.1859H65.1463ZM91.4257 52.7459C89.1857 52.7459 87.1857 52.1859 85.4257 51.0659C83.6657 49.9193 82.279 48.2659 81.2657 46.1059C80.2524 43.9193 79.7457 41.3326 79.7457 38.3459C79.7457 35.3593 80.2524 32.7859 81.2657 30.6259C82.279 28.4393 83.6657 26.7859 85.4257 25.6659C87.1857 24.5193 89.1857 23.9459 91.4257 23.9459C93.6657 23.9459 95.6657 24.5193 97.4257 25.6659C99.2124 26.7859 100.612 28.4393 101.626 30.6259C102.639 32.7859 103.146 35.3593 103.146 38.3459C103.146 41.3326 102.639 43.9193 101.626 46.1059C100.612 48.2659 99.2124 49.9193 97.4257 51.0659C95.6657 52.1859 93.6657 52.7459 91.4257 52.7459ZM91.4257 48.2259C93.4257 48.2259 94.999 47.3993 96.1457 45.7459C97.319 44.0926 97.9057 41.6259 97.9057 38.3459C97.9057 35.0659 97.319 32.5993 96.1457 30.9459C94.999 29.2926 93.4257 28.4659 91.4257 28.4659C89.4524 28.4659 87.879 29.2926 86.7057 30.9459C85.559 32.5993 84.9857 35.0659 84.9857 38.3459C84.9857 41.6259 85.559 44.0926 86.7057 45.7459C87.879 47.3993 89.4524 48.2259 91.4257 48.2259ZM118.34 52.7459C116.1 52.7459 114.1 52.1859 112.34 51.0659C110.58 49.9193 109.193 48.2659 108.18 46.1059C107.166 43.9193 106.66 41.3326 106.66 38.3459C106.66 35.3593 107.166 32.7859 108.18 30.6259C109.193 28.4393 110.58 26.7859 112.34 25.6659C114.1 24.5193 116.1 23.9459 118.34 23.9459C120.58 23.9459 122.58 24.5193 124.34 25.6659C126.126 26.7859 127.526 28.4393 128.54 30.6259C129.553 32.7859 130.06 35.3593 130.06 38.3459C130.06 41.3326 129.553 43.9193 128.54 46.1059C127.526 48.2659 126.126 49.9193 124.34 51.0659C122.58 52.1859 120.58 52.7459 118.34 52.7459ZM118.34 48.2259C120.34 48.2259 121.913 47.3993 123.06 45.7459C124.233 44.0926 124.82 41.6259 124.82 38.3459C124.82 35.0659 124.233 32.5993 123.06 30.9459C121.913 29.2926 120.34 28.4659 118.34 28.4659C116.366 28.4659 114.793 29.2926 113.62 30.9459C112.473 32.5993 111.9 35.0659 111.9 38.3459C111.9 41.6259 112.473 44.0926 113.62 45.7459C114.793 47.3993 116.366 48.2259 118.34 48.2259ZM153.049 40.3459H145.969V47.3459H141.689V40.3459H134.609V36.3459H141.689V29.3459H145.969V36.3459H153.049V40.3459ZM43.8626 70.8459C45.2359 71.1926 45.9226 72.0526 45.9226 73.4259C45.9226 74.3593 45.5692 75.0793 44.8626 75.5859C44.1692 76.0926 43.1292 76.3459 41.7426 76.3459H36.6426V65.7459H41.5626C42.8159 65.7459 43.7959 65.9859 44.5026 66.4659C45.2092 66.9326 45.5626 67.5993 45.5626 68.4659C45.5626 69.0259 45.4092 69.5126 45.1026 69.9259C44.8092 70.3259 44.3959 70.6326 43.8626 70.8459ZM38.5226 70.3059H41.4026C42.1359 70.3059 42.6892 70.1726 43.0626 69.9059C43.4492 69.6393 43.6426 69.2526 43.6426 68.7459C43.6426 67.7326 42.8959 67.2259 41.4026 67.2259H38.5226V70.3059ZM41.6026 74.8659C42.4026 74.8659 43.0026 74.7393 43.4026 74.4859C43.8026 74.2326 44.0026 73.8393 44.0026 73.3059C44.0026 72.7593 43.8159 72.3526 43.4426 72.0859C43.0826 71.8193 42.5092 71.6859 41.7226 71.6859H38.5226V74.8659H41.6026ZM53.7077 69.3459C55.0411 69.3593 56.0611 69.6659 56.7677 70.2659C57.4744 70.8659 57.8277 71.7126 57.8277 72.8059C57.8277 73.9526 57.4411 74.8393 56.6677 75.4659C55.9077 76.0793 54.8144 76.3793 53.3877 76.3659L48.9277 76.3459V65.7459H50.8477V69.3259L53.7077 69.3459ZM59.4077 65.7459H61.3277V76.3459H59.4077V65.7459ZM53.2477 74.9059C54.1144 74.9193 54.7677 74.7459 55.2077 74.3859C55.6611 74.0259 55.8877 73.4926 55.8877 72.7859C55.8877 72.0926 55.6677 71.5859 55.2277 71.2659C54.7877 70.9459 54.1277 70.7793 53.2477 70.7659L50.8477 70.7259V74.8859L53.2477 74.9059ZM74.8805 65.7459V76.3459H72.9605V67.4259H66.9805V76.3459H65.0605V65.7459H74.8805ZM88.0557 65.7459L82.9157 77.4059C82.4624 78.4859 81.929 79.2459 81.3157 79.6859C80.7157 80.1259 79.989 80.3459 79.1357 80.3459C78.6157 80.3459 78.109 80.2593 77.6157 80.0859C77.1357 79.9259 76.7357 79.6859 76.4157 79.3659L77.2357 77.9259C77.7824 78.4459 78.4157 78.7059 79.1357 78.7059C79.6024 78.7059 79.989 78.5793 80.2957 78.3259C80.6157 78.0859 80.9024 77.6659 81.1557 77.0659L81.4957 76.3259L76.8157 65.7459H78.8157L82.5157 74.2259L86.1757 65.7459H88.0557ZM94.3485 76.4659C93.2685 76.4659 92.3018 76.2326 91.4485 75.7659C90.6085 75.2993 89.9485 74.6593 89.4685 73.8459C88.9885 73.0193 88.7485 72.0859 88.7485 71.0459C88.7485 70.0059 88.9885 69.0793 89.4685 68.2659C89.9485 67.4393 90.6085 66.7993 91.4485 66.3459C92.3018 65.8793 93.2685 65.6459 94.3485 65.6459C95.3085 65.6459 96.1618 65.8393 96.9085 66.2259C97.6685 66.6126 98.2552 67.1726 98.6685 67.9059L97.2085 68.8459C96.8752 68.3393 96.4618 67.9593 95.9685 67.7059C95.4752 67.4526 94.9285 67.3259 94.3285 67.3259C93.6352 67.3259 93.0085 67.4793 92.4485 67.7859C91.9018 68.0926 91.4685 68.5326 91.1485 69.1059C90.8418 69.6659 90.6885 70.3126 90.6885 71.0459C90.6885 71.7926 90.8418 72.4526 91.1485 73.0259C91.4685 73.5859 91.9018 74.0193 92.4485 74.3259C93.0085 74.6326 93.6352 74.7859 94.3285 74.7859C94.9285 74.7859 95.4752 74.6593 95.9685 74.4059C96.4618 74.1526 96.8752 73.7726 97.2085 73.2659L98.6685 74.1859C98.2552 74.9193 97.6685 75.4859 96.9085 75.8859C96.1618 76.2726 95.3085 76.4659 94.3485 76.4659ZM105.274 71.8659H103.074V76.3459H101.154V65.7459H103.074V70.2259H105.314L108.754 65.7459H110.814L106.794 70.8459L111.094 76.3459H108.834L105.274 71.8659ZM113.107 65.7459H115.027V70.2459H121.067V65.7459H122.987V76.3459H121.067V71.9059H115.027V76.3459H113.107V65.7459ZM126.721 65.7459H128.641V73.4659L135.141 65.7459H136.881V76.3459H134.961V68.6259L128.481 76.3459H126.721V65.7459ZM144.727 71.8659H142.527V76.3459H140.607V65.7459H142.527V70.2259H144.767L148.207 65.7459H150.267L146.247 70.8459L150.547 76.3459H148.287L144.727 71.8659ZM156.749 76.4659C155.696 76.4659 154.749 76.2326 153.909 75.7659C153.069 75.2993 152.409 74.6593 151.929 73.8459C151.462 73.0193 151.229 72.0859 151.229 71.0459C151.229 70.0059 151.462 69.0793 151.929 68.2659C152.409 67.4393 153.069 66.7993 153.909 66.3459C154.749 65.8793 155.696 65.6459 156.749 65.6459C157.802 65.6459 158.742 65.8793 159.569 66.3459C160.409 66.7993 161.062 67.4393 161.529 68.2659C162.009 69.0793 162.249 70.0059 162.249 71.0459C162.249 72.0859 162.009 73.0193 161.529 73.8459C161.062 74.6593 160.409 75.2993 159.569 75.7659C158.742 76.2326 157.802 76.4659 156.749 76.4659ZM156.749 74.7859C157.429 74.7859 158.036 74.6326 158.569 74.3259C159.116 74.0059 159.542 73.5659 159.849 73.0059C160.156 72.4326 160.309 71.7793 160.309 71.0459C160.309 70.3126 160.156 69.6659 159.849 69.1059C159.542 68.5326 159.116 68.0926 158.569 67.7859C158.036 67.4793 157.429 67.3259 156.749 67.3259C156.069 67.3259 155.456 67.4793 154.909 67.7859C154.376 68.0926 153.949 68.5326 153.629 69.1059C153.322 69.6659 153.169 70.3126 153.169 71.0459C153.169 71.7793 153.322 72.4326 153.629 73.0059C153.949 73.5659 154.376 74.0059 154.909 74.3259C155.456 74.6326 156.069 74.7859 156.749 74.7859ZM172.241 70.8459C173.615 71.1926 174.301 72.0526 174.301 73.4259C174.301 74.3593 173.948 75.0793 173.241 75.5859C172.548 76.0926 171.508 76.3459 170.121 76.3459H165.021V65.7459H169.941C171.195 65.7459 172.175 65.9859 172.881 66.4659C173.588 66.9326 173.941 67.5993 173.941 68.4659C173.941 69.0259 173.788 69.5126 173.481 69.9259C173.188 70.3259 172.775 70.6326 172.241 70.8459ZM166.901 70.3059H169.781C170.515 70.3059 171.068 70.1726 171.441 69.9059C171.828 69.6393 172.021 69.2526 172.021 68.7459C172.021 67.7326 171.275 67.2259 169.781 67.2259H166.901V70.3059ZM169.981 74.8659C170.781 74.8659 171.381 74.7393 171.781 74.4859C172.181 74.2326 172.381 73.8393 172.381 73.3059C172.381 72.7593 172.195 72.3526 171.821 72.0859C171.461 71.8193 170.888 71.6859 170.101 71.6859H166.901V74.8659H169.981Z" fill="white"/>
</svg>
